<svg width="47" height="46" viewBox="0 0 47 46" fill="none" xmlns="http://www.w3.org/2000/svg">
<path fill-rule="evenodd" clip-rule="evenodd" d="M4.17505 28.5191L22.6835 21.6544L4.17505 14.7871V28.5191Z" fill="#FF9B21"/>
<path fill-rule="evenodd" clip-rule="evenodd" d="M4.17505 14.7871L22.6835 21.6544L41.192 14.7871H4.17505Z" fill="#FF9B21"/>
<path fill-rule="evenodd" clip-rule="evenodd" d="M22.6819 21.6539L41.1904 28.5186V14.7866L22.6819 21.6539Z" fill="#FF9B21"/>
<path fill-rule="evenodd" clip-rule="evenodd" d="M4.17505 28.5185H41.192L22.6835 21.6538L4.17505 28.5185Z" fill="#FF9B21"/>
<path fill-rule="evenodd" clip-rule="evenodd" d="M1.0918 43.3305C1.0918 44.431 1.99238 45.3333 3.09369 45.3333H43.713C44.8143 45.3333 45.7174 44.431 45.7174 43.3305L45.7149 10.2515H1.0918V43.3305ZM4.89486 27.7911V14.0592H41.9117V27.791H4.89486V27.7911ZM32.2394 41.523V32.2879H41.9117V41.5231H32.2394V41.523ZM18.5684 32.2879H28.2408V41.5231H18.5684V32.2879ZM4.89486 32.2879H14.5672V41.5231H4.89486V32.2879Z" fill="white"/>
<path d="M1 4C1 2.34315 2.34315 1 4 1H41.8138C44.0229 1 45.8138 2.79086 45.8138 5V10.9586H1V4Z" fill="white"/>
<path d="M7.66772 1.0918H5.0918C2.88266 1.0918 1.0918 2.88266 1.0918 5.0918V10.4795M14.5611 1.0918H41.536C43.7451 1.0918 45.536 2.88266 45.536 5.0918V10.4795M1.0918 10.4795V41.3999C1.0918 43.6091 2.88266 45.3999 5.0918 45.3999H41.536C43.7451 45.3999 45.536 43.6091 45.536 41.3999V10.4795M1.0918 10.4795H45.536M4.76525 14.2436H41.7265M4.76525 14.2436V27.8944M4.76525 14.2436L41.7265 27.8944M41.7265 14.2436V27.8944M41.7265 14.2436L4.76525 27.8944M41.7265 27.8944H4.76525" stroke="#0D0B49" stroke-width="1.2" stroke-linecap="round" stroke-linejoin="round"/>
<path d="M4.94897 41.7253V32.519H14.4274V41.7253H4.94897Z" fill="#5C63AB"/>
<path d="M4.94897 41.7253V32.519H14.4274M4.94897 41.7253H14.4274V32.519M4.94897 41.7253L14.4274 32.519" stroke="#0D0B49" stroke-width="1.2" stroke-linecap="round" stroke-linejoin="round"/>
<path d="M18.5115 41.6804V32.4741H27.9899V41.6804H18.5115Z" fill="#5C63AB"/>
<path d="M18.5115 41.6804V32.4741H27.9899M18.5115 41.6804H27.9899V32.4741M18.5115 41.6804L27.9899 32.4741" stroke="#0D0B49" stroke-width="1.2" stroke-linecap="round" stroke-linejoin="round"/>
<path d="M32.2026 41.6804V32.4741H41.681V41.6804H32.2026Z" fill="#5C63AB"/>
<path d="M32.2026 41.6804V32.4741H41.681M32.2026 41.6804H41.681V32.4741M32.2026 41.6804L41.681 32.4741" stroke="#0D0B49" stroke-width="1.2" stroke-linecap="round" stroke-linejoin="round"/>
<path d="M6.35474 5.71631H20.1415" stroke="#0D0B49" stroke-width="1.2" stroke-linecap="round"/>
<circle cx="30.303" cy="5.71924" r="1" fill="#0D0B49"/>
<circle cx="35.2051" cy="5.71924" r="1" fill="#0D0B49"/>
<circle cx="40.0959" cy="5.71924" r="1" fill="#0D0B49"/>
</svg>
