<svg width="109" height="59" viewBox="0 0 109 59" fill="none" xmlns="http://www.w3.org/2000/svg">
<path fill-rule="evenodd" clip-rule="evenodd" d="M84.3645 5.02246C83.7657 5.02246 83.2681 5.41895 83.2681 6.01256C83.2681 6.70558 83.7663 7.10207 84.3645 7.10207C84.9628 7.10207 85.461 6.70558 85.461 6.01256C85.4616 5.41895 84.9634 5.02246 84.3645 5.02246ZM84.3645 5.1213C84.4825 5.12086 84.5994 5.14361 84.7084 5.18825C84.8175 5.23289 84.9165 5.29853 84.9999 5.38139C85.0833 5.46424 85.1493 5.56268 85.1942 5.67101C85.2391 5.77934 85.2619 5.89542 85.2614 6.01256C85.2614 6.60674 84.8627 7.00323 84.3645 7.00323C83.7657 7.00323 83.367 6.60674 83.367 6.01256C83.3676 5.51779 83.7663 5.1213 84.3645 5.1213ZM84.8627 6.70614L84.5636 6.11197C84.7638 6.01312 84.8627 5.91372 84.8627 5.81488C84.8627 5.61663 84.6637 5.41895 84.3645 5.41895H83.8652V6.70614H84.0654V6.21137H84.3645L84.6637 6.70614H84.8627ZM84.0654 6.01256V5.61663H84.3645C84.5636 5.61663 84.6637 5.71548 84.6637 5.71548C84.6637 5.91372 84.563 6.01256 84.3645 6.01256H84.0654Z" fill="#0C0E0F"/>
<path fill-rule="evenodd" clip-rule="evenodd" d="M39.0955 52.5564H55.5482V52.2588H39.0955V52.5564Z" fill="#A1C677"/>
<path fill-rule="evenodd" clip-rule="evenodd" d="M39.0955 52.2585H55.5482V51.9614H39.0955V52.2585Z" fill="#A4C67F"/>
<path fill-rule="evenodd" clip-rule="evenodd" d="M39.0955 51.9614H55.5482V51.5654H39.0955V51.9614Z" fill="#A9C983"/>
<path fill-rule="evenodd" clip-rule="evenodd" d="M39.0955 51.5656H55.5482V51.2686H39.0955V51.5656Z" fill="#AECC8B"/>
<path fill-rule="evenodd" clip-rule="evenodd" d="M39.0955 51.2684H55.5482V50.9707H39.0955V51.2684Z" fill="#B1CF92"/>
<path fill-rule="evenodd" clip-rule="evenodd" d="M39.0955 50.9709H55.5482V50.6738H39.0955V50.9709Z" fill="#B6D296"/>
<path fill-rule="evenodd" clip-rule="evenodd" d="M39.0955 50.6737H55.5482V50.2778H39.0955V50.6737Z" fill="#B9D29B"/>
<path fill-rule="evenodd" clip-rule="evenodd" d="M39.0955 50.2776H55.5482V49.9805H39.0955V50.2776Z" fill="#BDD4A0"/>
<path fill-rule="evenodd" clip-rule="evenodd" d="M39.0955 49.9808H55.5482V49.6831H39.0955V49.9808Z" fill="#C4D9A8"/>
<path fill-rule="evenodd" clip-rule="evenodd" d="M39.0955 49.6831H55.5482V49.3872H39.0955V49.6831Z" fill="#C5DAAD"/>
<path fill-rule="evenodd" clip-rule="evenodd" d="M39.0955 49.3873H55.5482V48.9902H39.0955V49.3873Z" fill="#C8DAB2"/>
<path fill-rule="evenodd" clip-rule="evenodd" d="M39.0955 48.9898H55.5482V48.6938H39.0955V48.9898Z" fill="#CEDEB9"/>
<path fill-rule="evenodd" clip-rule="evenodd" d="M39.0955 48.6941H55.5482V48.3965H39.0955V48.6941Z" fill="#D2E0BE"/>
<path fill-rule="evenodd" clip-rule="evenodd" d="M39.0955 48.3962H55.5482V48.0991H39.0955V48.3962Z" fill="#D6E2C4"/>
<path fill-rule="evenodd" clip-rule="evenodd" d="M39.0955 48.0993H55.5482V47.8022H39.0955V48.0993Z" fill="#DAE7CB"/>
<path fill-rule="evenodd" clip-rule="evenodd" d="M39.0955 47.8022H55.5482V47.4062H39.0955V47.8022Z" fill="#DCE8D0"/>
<path fill-rule="evenodd" clip-rule="evenodd" d="M39.0955 47.4066H55.5482V47.1089H39.0955V47.4066Z" fill="#E2EBD6"/>
<path fill-rule="evenodd" clip-rule="evenodd" d="M39.0955 47.1086H55.5482V46.8115H39.0955V47.1086Z" fill="#E5EBDC"/>
<path fill-rule="evenodd" clip-rule="evenodd" d="M39.0955 46.8117H55.5482V46.5146H39.0955V46.8117Z" fill="#ECEEE0"/>
<path fill-rule="evenodd" clip-rule="evenodd" d="M39.0955 46.5146H55.5482V46.1187H39.0955V46.5146Z" fill="#F0F1E8"/>
<path fill-rule="evenodd" clip-rule="evenodd" d="M39.0955 46.1189H55.5482V45.8218H39.0955V46.1189Z" fill="#F2F2EE"/>
<path fill-rule="evenodd" clip-rule="evenodd" d="M39.0955 45.8214H55.5482V45.5249H39.0955V45.8214Z" fill="#F7F8F6"/>
<path fill-rule="evenodd" clip-rule="evenodd" d="M39.0955 45.5251H55.5482V45.228H39.0955V45.5251Z" fill="white"/>
<path fill-rule="evenodd" clip-rule="evenodd" d="M55.647 52.1592H55.9467V37.2065H55.647V52.1592ZM55.9467 52.1592H56.2458V37.2065H55.9467V52.1592Z" fill="#F3D23D"/>
<path fill-rule="evenodd" clip-rule="evenodd" d="M56.2461 52.1592H56.5441V37.2065H56.2461V52.1592Z" fill="#F3D43F"/>
<path fill-rule="evenodd" clip-rule="evenodd" d="M56.5437 52.1592H56.9424V37.2065H56.5437V52.1592Z" fill="#F3D244"/>
<path fill-rule="evenodd" clip-rule="evenodd" d="M56.9436 52.1592H57.2433V37.2065H56.9436V52.1592Z" fill="#F3D44A"/>
<path fill-rule="evenodd" clip-rule="evenodd" d="M57.2424 52.1592H57.5416V37.2065H57.2424V52.1592Z" fill="#F3D44E"/>
<path fill-rule="evenodd" clip-rule="evenodd" d="M57.5415 52.1592H57.8406V37.2065H57.5415V52.1592Z" fill="#F3D552"/>
<path fill-rule="evenodd" clip-rule="evenodd" d="M57.8411 52.1592H58.2397V37.2065H57.8411V52.1592Z" fill="#F2D359"/>
<path fill-rule="evenodd" clip-rule="evenodd" d="M58.2397 52.1592H58.5395V37.2065H58.2397V52.1592Z" fill="#F1D65C"/>
<path fill-rule="evenodd" clip-rule="evenodd" d="M58.5396 52.1592H58.8387V37.2065H58.5396V52.1592Z" fill="#F4D760"/>
<path fill-rule="evenodd" clip-rule="evenodd" d="M58.8381 52.1592H59.1373V37.2065H58.8381V52.1592Z" fill="#F2DA67"/>
<path fill-rule="evenodd" clip-rule="evenodd" d="M59.1377 52.1592H59.4368V37.2065H59.1377V52.1592Z" fill="#F2DA6B"/>
<path fill-rule="evenodd" clip-rule="evenodd" d="M59.4368 52.1592H59.8354V37.2065H59.4368V52.1592Z" fill="#F5DB6F"/>
<path fill-rule="evenodd" clip-rule="evenodd" d="M59.8352 52.1592H60.1338V37.2065H59.8352V52.1592Z" fill="#F6DD72"/>
<path fill-rule="evenodd" clip-rule="evenodd" d="M60.1338 52.1592H60.4329V37.2065H60.1338V52.1592Z" fill="#F5DC77"/>
<path fill-rule="evenodd" clip-rule="evenodd" d="M60.4329 52.1592H60.732V37.2065H60.4329V52.1592Z" fill="#F5DC7B"/>
<path fill-rule="evenodd" clip-rule="evenodd" d="M60.7319 52.1592H61.1312V37.2065H60.7319V52.1592Z" fill="#F5DC7F"/>
<path fill-rule="evenodd" clip-rule="evenodd" d="M61.1313 52.1592H61.4305V37.2065H61.1313V52.1592Z" fill="#F5DC80"/>
<path fill-rule="evenodd" clip-rule="evenodd" d="M61.4304 52.1592H61.7296V37.2065H61.4304V52.1592Z" fill="#F5DD84"/>
<path fill-rule="evenodd" clip-rule="evenodd" d="M61.73 52.1592H62.0291V37.2065H61.73V52.1592Z" fill="#F5DF88"/>
<path fill-rule="evenodd" clip-rule="evenodd" d="M62.0288 52.1592H62.4275V37.2065H62.0288V52.1592Z" fill="#F5DF8B"/>
<path fill-rule="evenodd" clip-rule="evenodd" d="M62.427 52.1592H62.7267V37.2065H62.427V52.1592Z" fill="#F5DF8D"/>
<path fill-rule="evenodd" clip-rule="evenodd" d="M62.7273 52.1592H63.0264V37.2065H62.7273V52.1592Z" fill="#F4E08E"/>
<path fill-rule="evenodd" clip-rule="evenodd" d="M63.0264 52.1592H63.3255V37.2065H63.0264V52.1592Z" fill="#F6E193"/>
<path fill-rule="evenodd" clip-rule="evenodd" d="M63.325 52.1592H63.6235V37.2065H63.325V52.1592Z" fill="#F4E297"/>
<path fill-rule="evenodd" clip-rule="evenodd" d="M63.624 52.1592H64.0227V37.2065H63.624V52.1592Z" fill="#F7E69B"/>
<path fill-rule="evenodd" clip-rule="evenodd" d="M64.0225 52.1592H64.3216V37.2065H64.0225V52.1592Z" fill="#F7E69D"/>
<path fill-rule="evenodd" clip-rule="evenodd" d="M64.3215 52.1592H64.6207V37.2065H64.3215V52.1592Z" fill="#F7E6A0"/>
<path fill-rule="evenodd" clip-rule="evenodd" d="M64.6213 52.1592H64.921V37.2065H64.6213V52.1592Z" fill="#F7E6A4"/>
<path fill-rule="evenodd" clip-rule="evenodd" d="M64.9202 52.1592H65.3189V37.2065H64.9202V52.1592Z" fill="#F7E7A8"/>
<path fill-rule="evenodd" clip-rule="evenodd" d="M65.3196 52.1592H65.6187V37.2065H65.3196V52.1592Z" fill="#F7E7AB"/>
<path fill-rule="evenodd" clip-rule="evenodd" d="M65.6182 52.1592H65.9173V37.2065H65.6182V52.1592Z" fill="#F7E7AD"/>
<path fill-rule="evenodd" clip-rule="evenodd" d="M65.9177 52.1592H66.2174V37.2065H65.9177V52.1592Z" fill="#FAE9B1"/>
<path fill-rule="evenodd" clip-rule="evenodd" d="M66.2175 52.1592H66.5167V37.2065H66.2175V52.1592Z" fill="#F7E7B4"/>
<path fill-rule="evenodd" clip-rule="evenodd" d="M66.5161 52.1592H66.9148V37.2065H66.5161V52.1592Z" fill="#F7E8B6"/>
<path fill-rule="evenodd" clip-rule="evenodd" d="M66.9153 52.1592H67.2133V37.2065H66.9153V52.1592Z" fill="#F7E8B8"/>
<path fill-rule="evenodd" clip-rule="evenodd" d="M67.2131 52.1592H67.5128V37.2065H67.2131V52.1592Z" fill="#F7E8BC"/>
<path fill-rule="evenodd" clip-rule="evenodd" d="M67.5132 52.1592H67.8123V37.2065H67.5132V52.1592Z" fill="#F7E8BF"/>
<path fill-rule="evenodd" clip-rule="evenodd" d="M67.8118 52.1592H68.2104V37.2065H67.8118V52.1592Z" fill="#F7EAC4"/>
<path fill-rule="evenodd" clip-rule="evenodd" d="M68.2109 52.1592H68.5101V37.2065H68.2109V52.1592Z" fill="#F7EBC5"/>
<path fill-rule="evenodd" clip-rule="evenodd" d="M68.5095 52.1592H68.8092V37.2065H68.5095V52.1592Z" fill="#F7EBC7"/>
<path fill-rule="evenodd" clip-rule="evenodd" d="M68.8093 52.1592H69.1085V37.2065H68.8093V52.1592Z" fill="#F8EDCC"/>
<path fill-rule="evenodd" clip-rule="evenodd" d="M69.1086 52.1592H69.4078V37.2065H69.1086V52.1592Z" fill="#FBEFD0"/>
<path fill-rule="evenodd" clip-rule="evenodd" d="M69.408 52.1592H69.8066V37.2065H69.408V52.1592Z" fill="#F8EFD2"/>
<path fill-rule="evenodd" clip-rule="evenodd" d="M69.8064 52.1592H70.1061V37.2065H69.8064V52.1592Z" fill="#F8F0D6"/>
<path fill-rule="evenodd" clip-rule="evenodd" d="M70.1067 52.1592H70.4047V37.2065H70.1067V52.1592Z" fill="#F8F0D9"/>
<path fill-rule="evenodd" clip-rule="evenodd" d="M70.4041 52.1592H70.7032V37.2065H70.4041V52.1592Z" fill="#F8F0DB"/>
<path fill-rule="evenodd" clip-rule="evenodd" d="M70.7031 52.1592H71.1018V37.2065H70.7031V52.1592Z" fill="#F8F0DF"/>
<path fill-rule="evenodd" clip-rule="evenodd" d="M71.1021 52.1592H71.4018V37.2065H71.1021V52.1592Z" fill="#F9F3E4"/>
<path fill-rule="evenodd" clip-rule="evenodd" d="M71.4016 52.1592H71.7007V37.2065H71.4016V52.1592Z" fill="#F9F3E6"/>
<path fill-rule="evenodd" clip-rule="evenodd" d="M71.7004 52.1592H71.9996V37.2065H71.7004V52.1592Z" fill="#F9F3E9"/>
<path fill-rule="evenodd" clip-rule="evenodd" d="M72 52.1592H72.3987V37.2065H72V52.1592Z" fill="#F9F6EB"/>
<path fill-rule="evenodd" clip-rule="evenodd" d="M72.3984 52.1592H72.6981V37.2065H72.3984V52.1592Z" fill="#F9F6EE"/>
<path fill-rule="evenodd" clip-rule="evenodd" d="M72.698 52.1592H72.9972V37.2065H72.698V52.1592Z" fill="#F9F6F0"/>
<path fill-rule="evenodd" clip-rule="evenodd" d="M72.998 52.1592H73.2972V37.2065H72.998V52.1592Z" fill="#FAF9F4"/>
<path fill-rule="evenodd" clip-rule="evenodd" d="M73.2964 52.1592H73.595V37.2065H73.2964V52.1592Z" fill="#FFFFFB"/>
<path fill-rule="evenodd" clip-rule="evenodd" d="M73.5952 52.1592H73.995V37.2065H73.5952V52.1592Z" fill="white"/>
<path fill-rule="evenodd" clip-rule="evenodd" d="M25.635 25.7187H39.9931V25.3228H25.9336L25.635 25.7187Z" fill="#769FD2"/>
<path fill-rule="evenodd" clip-rule="evenodd" d="M25.3347 26.0158H39.9926V25.7188H25.6344L25.3347 26.0158Z" fill="#76A1D3"/>
<path fill-rule="evenodd" clip-rule="evenodd" d="M25.0356 26.3132H39.9926V26.0161H25.3348L25.0356 26.3132Z" fill="#7AA2D3"/>
<path fill-rule="evenodd" clip-rule="evenodd" d="M24.7366 26.6101H39.9921V26.313H25.0351L24.7366 26.6101Z" fill="#7CA3D3"/>
<path fill-rule="evenodd" clip-rule="evenodd" d="M24.4373 27.0069H39.9925V26.6104H24.737L24.4373 27.0069Z" fill="#80A4D1"/>
<path fill-rule="evenodd" clip-rule="evenodd" d="M24.1377 27.3034H39.9921V27.0068H24.4368L24.1377 27.3034Z" fill="#80A4D1"/>
<path fill-rule="evenodd" clip-rule="evenodd" d="M23.8389 27.6009H39.9924V27.3032H24.138L23.8389 27.6009Z" fill="#80A3D0"/>
<path fill-rule="evenodd" clip-rule="evenodd" d="M23.5398 27.8976H39.9925V27.6011H23.8389L23.5398 27.8976ZM23.2412 28.2941H39.9925V27.8976H23.5398L23.2412 28.2941Z" fill="#84A6D1"/>
<path fill-rule="evenodd" clip-rule="evenodd" d="M22.9419 28.591H39.9923V28.2939H23.241L22.9419 28.591Z" fill="#88A9D2"/>
<path fill-rule="evenodd" clip-rule="evenodd" d="M22.6433 28.8874H39.9929V28.5908H22.9424L22.6433 28.8874Z" fill="#8AABD5"/>
<path fill-rule="evenodd" clip-rule="evenodd" d="M22.3433 29.1848H39.9925V28.8877H22.643L22.3433 29.1848Z" fill="#8CACD5"/>
<path fill-rule="evenodd" clip-rule="evenodd" d="M22.144 29.4822H39.9923V29.1846H22.3431L22.144 29.4822Z" fill="#8DAED9"/>
<path fill-rule="evenodd" clip-rule="evenodd" d="M21.8452 29.8783H39.9927V29.4824H22.1444L21.8452 29.8783Z" fill="#8FAFD9"/>
<path fill-rule="evenodd" clip-rule="evenodd" d="M21.5464 30.175H39.9929V29.8779H21.8455L21.5464 30.175Z" fill="#91AFD7"/>
<path fill-rule="evenodd" clip-rule="evenodd" d="M21.2468 30.4724H39.9926V30.1753H21.546L21.2468 30.4724Z" fill="#93B0D9"/>
<path fill-rule="evenodd" clip-rule="evenodd" d="M20.9478 30.7698H39.9926V30.4722H21.2469L20.9478 30.7698Z" fill="#96B4D9"/>
<path fill-rule="evenodd" clip-rule="evenodd" d="M20.6482 31.166H39.9922V30.77H20.9473L20.6482 31.166Z" fill="#9AB5DA"/>
<path fill-rule="evenodd" clip-rule="evenodd" d="M20.3494 31.4631H39.9925V31.166H20.6485L20.3494 31.4631Z" fill="#9BB6DA"/>
<path fill-rule="evenodd" clip-rule="evenodd" d="M20.0503 31.76H39.9926V31.4629H20.3494L20.0503 31.76Z" fill="#9DB6DA"/>
<path fill-rule="evenodd" clip-rule="evenodd" d="M19.7515 32.0567H39.9929V31.7603H20.0506L19.7515 32.0567Z" fill="#9FB7DA"/>
<path fill-rule="evenodd" clip-rule="evenodd" d="M19.5513 32.4526H39.9923V32.0566H19.7509L19.5513 32.3537V32.4526Z" fill="#A2BBDD"/>
<path fill-rule="evenodd" clip-rule="evenodd" d="M19.5513 32.7497H39.9923V32.4526H19.5513V32.7497Z" fill="#A3BADC"/>
<path fill-rule="evenodd" clip-rule="evenodd" d="M19.5513 33.0466H39.9923V32.7495H19.5513V33.0466Z" fill="#A4BDDE"/>
<path fill-rule="evenodd" clip-rule="evenodd" d="M19.5513 33.3445H39.9923V33.0469H19.5513V33.3445Z" fill="#A8BDDD"/>
<path fill-rule="evenodd" clip-rule="evenodd" d="M19.5513 33.6413H39.9923V33.3442H19.5513V33.6413Z" fill="#A8BFDE"/>
<path fill-rule="evenodd" clip-rule="evenodd" d="M19.5513 34.0375H39.9923V33.6416H19.5513V34.0375Z" fill="#AAC0DE"/>
<path fill-rule="evenodd" clip-rule="evenodd" d="M19.5513 34.3342H39.9923V34.0371H19.5513V34.3342ZM19.5513 34.6318H39.9923V34.3342H19.5513V34.6318Z" fill="#AEC3E2"/>
<path fill-rule="evenodd" clip-rule="evenodd" d="M19.5513 34.9283H39.9923V34.6323H19.5513V34.9283Z" fill="#B1C5E3"/>
<path fill-rule="evenodd" clip-rule="evenodd" d="M19.5513 35.3253H39.9923V34.9282H19.5513V35.3253Z" fill="#B3C6E4"/>
<path fill-rule="evenodd" clip-rule="evenodd" d="M19.5513 35.6223H39.9923V35.3252H19.5513V35.6223Z" fill="#B5C9E5"/>
<path fill-rule="evenodd" clip-rule="evenodd" d="M19.5513 35.9186H39.9923V35.6221H19.5513V35.9186Z" fill="#B7C9E5"/>
<path fill-rule="evenodd" clip-rule="evenodd" d="M19.5513 36.2156H39.9923V35.9185H19.5513V36.2156Z" fill="#B9C9E4"/>
<path fill-rule="evenodd" clip-rule="evenodd" d="M19.5513 36.6118H39.9923V36.2158H19.5513V36.6118Z" fill="#BBCBE3"/>
<path fill-rule="evenodd" clip-rule="evenodd" d="M19.5513 36.9091H39.9923V36.5132H19.5513V36.9091Z" fill="#BDCCE3"/>
<path fill-rule="evenodd" clip-rule="evenodd" d="M19.5513 37.2064H39.9923V36.9087H19.5513V37.2064Z" fill="#C0CEE5"/>
<path fill-rule="evenodd" clip-rule="evenodd" d="M19.5513 37.5036H39.9923V37.2065H19.5513V37.5036ZM19.5513 37.8007H39.9923V37.5036H19.5513V37.8007Z" fill="#C4D0E5"/>
<path fill-rule="evenodd" clip-rule="evenodd" d="M19.5513 38.1967H39.9923V37.8008H19.5513V38.1967Z" fill="#C6D3E6"/>
<path fill-rule="evenodd" clip-rule="evenodd" d="M19.5513 38.4944H39.9923V38.1968H19.5513V38.4944ZM19.5513 38.7904H39.9923V38.4944H19.5513V38.7904Z" fill="#C9D5E8"/>
<path fill-rule="evenodd" clip-rule="evenodd" d="M19.5513 39.0871H39.9923V38.79H19.5513V39.0871Z" fill="#CCD8E9"/>
<path fill-rule="evenodd" clip-rule="evenodd" d="M19.5513 39.4833H39.9923V39.0874H19.5513V39.4833Z" fill="#CDD7EB"/>
<path fill-rule="evenodd" clip-rule="evenodd" d="M19.5513 39.7806H39.9923V39.4829H19.5513V39.7806Z" fill="#D0DCED"/>
<path fill-rule="evenodd" clip-rule="evenodd" d="M19.5513 40.0779H39.9923V39.7808H19.5513V40.0779Z" fill="#D2DDED"/>
<path fill-rule="evenodd" clip-rule="evenodd" d="M19.5513 40.3752H39.9923V40.0781H19.5513V40.3752Z" fill="#D4DEEE"/>
<path fill-rule="evenodd" clip-rule="evenodd" d="M19.5513 40.6727H39.9923V40.375H19.5513V40.6727Z" fill="#D6DFF1"/>
<path fill-rule="evenodd" clip-rule="evenodd" d="M19.5513 41.0687H39.9923V40.6729H19.5513V41.0687Z" fill="#D7E0EF"/>
<path fill-rule="evenodd" clip-rule="evenodd" d="M19.5513 41.3659H39.9923V41.0688H19.5513V41.3659Z" fill="#DBE2ED"/>
<path fill-rule="evenodd" clip-rule="evenodd" d="M19.5513 41.6628H39.9923V41.3657H19.5513V41.6628Z" fill="#DEE3ED"/>
<path fill-rule="evenodd" clip-rule="evenodd" d="M19.5513 41.9591H39.9923V41.6626H19.5513V41.9591Z" fill="#E0E6EF"/>
<path fill-rule="evenodd" clip-rule="evenodd" d="M19.5513 42.3565H39.9923V41.9595H19.5513V42.3565ZM19.5513 42.6525H39.9923V42.3565H19.5513V42.6525Z" fill="#E2E7EF"/>
<path fill-rule="evenodd" clip-rule="evenodd" d="M19.5513 42.9495H39.9923V42.6523H19.5513V42.9495Z" fill="#E5E8EF"/>
<path fill-rule="evenodd" clip-rule="evenodd" d="M19.5513 43.2469H39.9923V42.9492H19.5513V43.2469Z" fill="#E7EBF0"/>
<path fill-rule="evenodd" clip-rule="evenodd" d="M19.5513 43.643H39.9923V43.2471H19.5513V43.643Z" fill="#EAECF1"/>
<path fill-rule="evenodd" clip-rule="evenodd" d="M19.5513 43.9401H39.9923V43.6431H19.5513V43.9401ZM19.5513 44.2372H39.9923V43.9401H19.5513V44.2372Z" fill="#ECEFF2"/>
<path fill-rule="evenodd" clip-rule="evenodd" d="M19.5513 44.5344H39.9923V44.2373H19.5513V44.5344ZM19.5513 44.832H39.9923V44.5344H19.5513V44.832Z" fill="#F2F3F4"/>
<path fill-rule="evenodd" clip-rule="evenodd" d="M19.5513 45.2279H39.9923V44.832H19.5513V45.2279Z" fill="#F4F4F7"/>
<path fill-rule="evenodd" clip-rule="evenodd" d="M19.5513 45.5251H39.9923V45.228H19.5513V45.5251Z" fill="#F7F8F8"/>
<path fill-rule="evenodd" clip-rule="evenodd" d="M19.5513 45.8214H39.9923V45.5249H19.5513V45.8214Z" fill="#FBFDFF"/>
<path fill-rule="evenodd" clip-rule="evenodd" d="M19.5513 46.1189H39.9923V45.8218H19.5513V46.1189Z" fill="white"/>
<path fill-rule="evenodd" clip-rule="evenodd" d="M74.6929 25.7187H89.7489V25.3228H74.6929V25.7187Z" fill="#DA884E"/>
<path fill-rule="evenodd" clip-rule="evenodd" d="M74.6929 26.0158H89.7489V25.7188H74.6929V26.0158Z" fill="#DB8A51"/>
<path fill-rule="evenodd" clip-rule="evenodd" d="M74.6929 26.3132H89.7489V26.0161H74.6929V26.3132Z" fill="#DA8F56"/>
<path fill-rule="evenodd" clip-rule="evenodd" d="M74.6929 26.6101H89.7489V26.313H74.6929V26.6101Z" fill="#DB925D"/>
<path fill-rule="evenodd" clip-rule="evenodd" d="M74.6929 27.0069H89.7489V26.6104H74.6929V27.0069Z" fill="#DB9461"/>
<path fill-rule="evenodd" clip-rule="evenodd" d="M74.6929 27.3034H89.7489V27.0068H74.6929V27.3034Z" fill="#DC9865"/>
<path fill-rule="evenodd" clip-rule="evenodd" d="M74.6929 27.6009H89.7489V27.3032H74.6929V27.6009Z" fill="#DF9B68"/>
<path fill-rule="evenodd" clip-rule="evenodd" d="M74.6929 27.8976H89.7489V27.6011H74.6929V27.8976Z" fill="#E39D6D"/>
<path fill-rule="evenodd" clip-rule="evenodd" d="M74.6929 28.294H89.7489V27.8975H74.6929V28.294Z" fill="#E09F73"/>
<path fill-rule="evenodd" clip-rule="evenodd" d="M74.6929 28.591H89.7489V28.2939H74.6929V28.591Z" fill="#E2A475"/>
<path fill-rule="evenodd" clip-rule="evenodd" d="M74.6929 28.8874H89.7489V28.5908H74.6929V28.8874Z" fill="#E0A779"/>
<path fill-rule="evenodd" clip-rule="evenodd" d="M74.6929 29.1848H89.7489V28.8877H74.6929V29.1848Z" fill="#E1A97B"/>
<path fill-rule="evenodd" clip-rule="evenodd" d="M74.6929 29.4822H89.7489V29.1846H74.6929V29.4822Z" fill="#E1AB80"/>
<path fill-rule="evenodd" clip-rule="evenodd" d="M74.6929 29.8783H89.7489V29.4824H74.6929V29.8783Z" fill="#E3AF86"/>
<path fill-rule="evenodd" clip-rule="evenodd" d="M74.6929 30.175H89.7489V29.8779H74.6929V30.175Z" fill="#E3B188"/>
<path fill-rule="evenodd" clip-rule="evenodd" d="M74.6929 30.4724H89.7489V30.1753H74.6929V30.4724Z" fill="#E6B48D"/>
<path fill-rule="evenodd" clip-rule="evenodd" d="M74.6929 30.7698H89.7489V30.4722H74.6929V30.7698Z" fill="#E7B892"/>
<path fill-rule="evenodd" clip-rule="evenodd" d="M74.6929 31.166H89.7489V30.77H74.6929V31.166Z" fill="#E9BE96"/>
<path fill-rule="evenodd" clip-rule="evenodd" d="M74.6929 31.4631H89.7489V31.166H74.6929V31.4631Z" fill="#E7C09B"/>
<path fill-rule="evenodd" clip-rule="evenodd" d="M74.6929 31.76H89.7489V31.4629H74.6929V31.76Z" fill="#E8C29E"/>
<path fill-rule="evenodd" clip-rule="evenodd" d="M74.6929 32.0567H89.7489V31.7603H74.6929V32.0567Z" fill="#E8C4A2"/>
<path fill-rule="evenodd" clip-rule="evenodd" d="M74.6929 32.4526H89.7489V32.0566H74.6929V32.4526Z" fill="#EAC8A8"/>
<path fill-rule="evenodd" clip-rule="evenodd" d="M74.6929 32.7497H89.7489V32.4526H74.6929V32.7497Z" fill="#EBCCAD"/>
<path fill-rule="evenodd" clip-rule="evenodd" d="M74.6929 33.0466H89.7489V32.7495H74.6929V33.0466Z" fill="#EBCEB0"/>
<path fill-rule="evenodd" clip-rule="evenodd" d="M74.6929 33.3445H89.7489V33.0469H74.6929V33.3445Z" fill="#ECD0B4"/>
<path fill-rule="evenodd" clip-rule="evenodd" d="M74.6929 33.6413H89.7489V33.3442H74.6929V33.6413Z" fill="#EFD3B7"/>
<path fill-rule="evenodd" clip-rule="evenodd" d="M74.6929 34.0375H89.7489V33.6416H74.6929V34.0375Z" fill="#F3D7BD"/>
<path fill-rule="evenodd" clip-rule="evenodd" d="M74.6929 34.3342H89.7489V34.0371H74.6929V34.3342Z" fill="#F4D9C1"/>
<path fill-rule="evenodd" clip-rule="evenodd" d="M74.6929 34.6321H89.7489V34.3345H74.6929V34.6321Z" fill="#F2DCC6"/>
<path fill-rule="evenodd" clip-rule="evenodd" d="M74.6929 34.9283H89.7489V34.6323H74.6929V34.9283Z" fill="#F0DFCB"/>
<path fill-rule="evenodd" clip-rule="evenodd" d="M74.6929 35.3253H89.7489V34.9282H74.6929V35.3253Z" fill="#F1E1CE"/>
<path fill-rule="evenodd" clip-rule="evenodd" d="M74.6929 35.6223H89.7489V35.3252H74.6929V35.6223Z" fill="#F2E5D6"/>
<path fill-rule="evenodd" clip-rule="evenodd" d="M74.6929 35.9186H89.7489V35.6221H74.6929V35.9186Z" fill="#F3E7DA"/>
<path fill-rule="evenodd" clip-rule="evenodd" d="M74.6929 36.2156H89.7489V35.9185H74.6929V36.2156Z" fill="#F3E9DF"/>
<path fill-rule="evenodd" clip-rule="evenodd" d="M74.6929 36.6118H89.7489V36.2158H74.6929V36.6118Z" fill="#F4EEE3"/>
<path fill-rule="evenodd" clip-rule="evenodd" d="M74.6929 36.9091H89.7489V36.5132H74.6929V36.9091Z" fill="#F4EEE7"/>
<path fill-rule="evenodd" clip-rule="evenodd" d="M74.6929 37.2064H89.7489V36.9087H74.6929V37.2064Z" fill="#F5F0EA"/>
<path fill-rule="evenodd" clip-rule="evenodd" d="M74.6929 37.5036H89.7489V37.2065H74.6929V37.5036Z" fill="#F9F6F0"/>
<path fill-rule="evenodd" clip-rule="evenodd" d="M74.6929 37.8005H89.7489V37.5034H74.6929V37.8005Z" fill="#F9F6F4"/>
<path fill-rule="evenodd" clip-rule="evenodd" d="M74.6929 38.1967H89.7489V37.8008H74.6929V38.1967Z" fill="white"/>
<path fill-rule="evenodd" clip-rule="evenodd" d="M74.6929 45.7227C72.6985 50.1795 70.0056 52.1592 65.7182 52.1592C62.228 52.1592 58.8385 50.1795 57.3428 47.2081C56.3453 45.1285 55.9466 43.346 55.9466 39.5838H79.9762C79.9762 35.2257 79.478 32.5525 78.1814 29.7799C75.8884 24.7294 71.3017 21.8574 65.6181 21.8574C56.5438 21.8574 50.2624 28.8881 50.2624 39.2867C50.2624 49.4865 56.3447 56.319 65.4179 56.319C72.0985 56.319 77.284 52.7539 79.3785 46.7133L74.6929 45.7227ZM56.2463 35.7211C56.5443 32.552 57.1432 30.9671 58.5394 29.1846C60.4337 27.0061 62.8269 25.7189 65.7182 25.7189C71.0032 25.7189 74.1936 29.4822 74.3938 35.7211H56.2463ZM103.808 51.9615C102.014 52.2586 101.016 52.3574 99.819 52.3574C96.3299 52.3574 94.534 50.6737 94.534 47.2075V14.0337L89.4492 14.2319V46.4157C89.4492 53.0504 92.6402 56.4172 98.9221 56.4172C100.418 56.4172 101.514 56.3184 103.808 56.0213V51.9615ZM1.60327 50.9708C1.60327 48.0993 3.89687 45.8209 6.78817 45.8209C9.67948 45.8209 11.9731 48.0993 11.9731 50.9708C11.9731 53.8423 9.67948 56.1207 6.78817 56.1207C3.89687 56.1207 1.60327 53.8428 1.60327 50.9708ZM42.4853 56.3184V36.0187C42.4853 31.3636 42.0861 28.8881 41.3889 27.3038C39.594 23.6399 36.0044 21.362 31.7169 21.362C27.2298 21.362 24.5381 23.0457 21.1475 28.2939V22.2533H16.4607V56.3184H21.5461V37.0077C21.5461 30.5712 25.4344 25.7189 30.8189 25.7189C35.2059 25.7189 37.599 28.591 37.599 33.9386V56.3184H42.4853Z" fill="#0C0E0F"/>
<path fill-rule="evenodd" clip-rule="evenodd" d="M65.5188 21.8568H102.711V25.7189H65.5188V21.8568ZM41.9869 52.4563H65.7179V56.2196H41.9869V52.4563ZM15.3634 15.6185V1.85309H12.7707L8.6828 12.8453L4.49484 1.85309H2.0022V15.6185H3.39837V3.53678L7.98499 15.6185H9.18155L13.6687 3.53678V15.6185H15.3634ZM18.754 15.6185H20.3493V5.41871H18.754V15.6185ZM18.754 3.53678H20.4493V1.85309H18.754V3.53678ZM29.622 12.0535C29.3229 13.7372 28.4255 14.6279 27.1294 14.6279C25.4341 14.6279 24.4371 13.0436 24.4371 10.4686C24.4371 7.99309 25.5336 6.40881 27.2295 6.40881C28.5256 6.40881 29.423 7.30007 29.622 8.9832L31.1177 8.68611C30.7191 6.40825 29.3229 5.12106 27.2295 5.12106C24.5372 5.12106 22.7424 7.29951 22.7424 10.4686C22.7424 13.7366 24.4377 15.8162 27.1294 15.8162C28.2264 15.8162 29.1238 15.5191 29.9217 14.7267C30.52 14.1325 30.8192 13.5384 31.1183 12.2512L29.622 12.0535ZM34.907 15.6185V10.1721C35.0065 8.0925 36.5022 6.50821 38.3972 6.7059V5.12162H37.7989C37.1005 5.12162 36.3032 5.51811 35.8044 6.01288C35.5053 6.50822 35.3057 6.8053 34.8075 7.79541V5.41927H33.4113V15.6191H34.907V15.6185ZM43.7811 5.12106C42.2854 5.12106 41.0889 5.71523 40.1914 6.90358C39.4936 7.79485 39.095 8.9832 39.095 10.4686C39.095 11.9541 39.3941 13.1424 40.0919 14.1325C40.8898 15.3209 41.9869 15.8162 43.5821 15.8162C46.3744 15.8162 48.2688 13.6378 48.2688 10.5675C48.2682 7.39892 46.4739 5.12106 43.7811 5.12106ZM43.6816 6.40881C44.4795 6.40881 45.2768 6.90358 45.7756 7.49776C46.2743 8.19134 46.5735 9.18144 46.5735 10.4686C46.5735 13.043 45.477 14.6279 43.6816 14.6279C41.8868 14.6279 40.7897 13.0436 40.7897 10.4686C40.7897 9.28028 41.0889 8.19134 41.4875 7.5966C41.9869 6.90358 42.8837 6.40881 43.6816 6.40881ZM49.3653 12.9442C49.5649 13.8354 49.8634 14.3308 50.4623 14.7267C51.2596 15.5191 52.4562 15.8162 53.9519 15.8162C56.4445 15.8162 58.1398 14.6279 58.1398 12.7465C58.1398 11.0628 57.1423 10.0727 55.0484 9.77562L53.0545 9.37913C51.8579 9.18088 51.3591 8.68611 51.3591 7.99309C51.3591 7.00299 52.2566 6.40881 53.6527 6.40881C54.8493 6.40881 55.7467 6.90358 56.2455 8.0925L57.7412 7.69657C57.1423 6.01288 55.7467 5.12162 53.6527 5.12162C51.2596 5.12162 49.7639 6.30997 49.7639 8.0925C49.7639 9.57793 50.7609 10.6674 52.5557 10.964L54.7492 11.3605C55.8457 11.5587 56.4445 12.1529 56.4445 12.9447C56.4445 13.9348 55.447 14.6284 54.0514 14.6284C53.0545 14.6284 52.157 14.3313 51.5588 13.8366C51.2596 13.5395 51.06 13.2418 50.861 12.6482L49.3653 12.9442ZM64.4223 5.12106C62.9261 5.12106 61.7295 5.71523 60.7326 6.90358C60.0348 7.79485 59.6361 8.9832 59.6361 10.4686C59.6361 11.9541 60.0348 13.1424 60.6336 14.1325C61.5305 15.3209 62.6269 15.8162 64.1238 15.8162C66.9161 15.8162 68.8099 13.6378 68.8099 10.5675C68.8093 7.39892 67.114 5.12106 64.4223 5.12106ZM64.2222 6.40881C65.1201 6.40881 65.9175 6.90358 66.4157 7.49776C66.915 8.19134 67.1135 9.18144 67.1135 10.4686C67.1135 13.043 66.017 14.6279 64.2222 14.6279C62.4273 14.6279 61.4298 13.0436 61.4298 10.4686C61.4298 9.28028 61.63 8.19134 62.1276 7.5966C62.5268 6.90358 63.4248 6.40881 64.2222 6.40881ZM75.5895 5.41871H73.0968C73.0968 4.32976 73.0968 4.23036 73.297 3.83443C73.4961 3.14141 74.1939 2.84432 75.1914 2.84432C75.59 2.84432 75.7902 2.84432 76.1889 2.94316V1.65597C75.4911 1.55713 75.0924 1.55713 74.6932 1.55713C73.3965 1.55713 72.3001 2.1513 71.9008 3.14141C71.7007 3.73558 71.7007 4.13151 71.6017 5.41927H69.8069V6.70646H71.6017V15.6191H73.0974V6.70646H75.59V5.41871H75.5895ZM82.8689 14.529C82.3696 14.6279 81.9709 14.6279 81.6718 14.6279C80.5753 14.6279 79.9765 14.1331 79.9765 13.0436V6.7059H82.2707V5.41871H79.9765V2.74492L78.4808 2.84376L78.3813 5.41815H76.5864V6.70534H78.3813V12.8453C78.3813 14.8255 79.3788 15.9151 81.3721 15.9151C81.7708 15.9151 82.1706 15.8162 82.8684 15.8162V14.529H82.8689ZM104.507 23.9364V22.0551H105.104V21.8568H103.609V22.0551H104.207V23.9364H104.507ZM107.398 23.9364V21.8568H106.899L106.301 23.5405L105.703 21.8568H105.304V23.9364H105.603V22.1539L106.301 23.9364H106.4L107.099 22.1539V23.9364H107.398Z" fill="#0C0E0F"/>
</svg>
