<svg width="67" height="74" viewBox="0 0 67 74" fill="none" xmlns="http://www.w3.org/2000/svg">
<g clip-path="url(#clip0_101_2823)">
<path d="M30.6705 1.48185C32.4811 0.449787 34.8393 0.445126 36.6483 1.48185C45.7491 6.60307 54.8528 11.7163 63.9521 16.8406C65.6636 17.8007 66.8084 19.6975 66.791 21.6614V52.4726C66.8037 54.5178 65.5458 56.46 63.7402 57.3983C54.6692 62.4913 45.603 67.5905 36.5336 72.6835C34.6856 73.7357 32.28 73.6547 30.4898 72.5162C27.7703 70.9462 25.0462 69.384 22.3264 67.8156C21.7707 67.4856 21.1442 67.223 20.7518 66.6864C21.0987 66.2207 21.7189 66.1627 22.2229 65.9594C23.3581 65.5999 24.4007 65.0229 25.4435 64.463C25.7072 64.2832 26.0292 64.3521 26.282 64.5129C28.6074 65.8408 30.9124 67.2072 33.2456 68.5223C33.7434 68.8085 34.2474 68.4286 34.6729 68.1924C43.5742 63.1823 52.4865 58.1911 61.3864 53.1794C61.7161 53.0214 61.8984 52.6728 61.8716 52.3131C61.8779 42.1491 61.8732 31.9833 61.8748 21.8194C61.9125 21.4112 61.6753 21.0359 61.3047 20.8689C52.2652 15.7992 43.2304 10.7218 34.1925 5.65078C34.0359 5.54357 33.8504 5.48605 33.6604 5.48577C33.4704 5.48549 33.2847 5.54247 33.1278 5.64922C24.0899 10.7218 15.0567 15.8039 6.01877 20.8733C5.64949 21.0406 5.40165 21.4097 5.4456 21.8194C5.44716 31.9833 5.4456 42.1491 5.4456 52.3146C5.42993 52.4902 5.46864 52.6662 5.55652 52.8192C5.6444 52.9721 5.77722 53.0946 5.93711 53.1701C8.34892 54.5321 10.7639 55.8845 13.1772 57.2419C14.5368 57.9707 16.2062 58.4037 17.7041 57.8453C19.026 57.3732 19.9526 56.0298 19.9274 54.632C19.9399 44.5274 19.9211 34.4212 19.9367 24.3181C19.9037 23.8695 20.331 23.4989 20.7689 23.5411C21.9278 23.5333 23.0882 23.5256 24.247 23.5442C24.7307 23.5333 25.0636 24.0164 25.0038 24.4683C24.9991 34.6369 25.0163 44.8058 24.996 54.9744C24.9991 57.6845 23.8811 60.6333 21.364 61.9593C18.263 63.5591 14.4302 63.2198 11.3667 61.6858C8.71457 60.3676 6.18365 58.8119 3.57862 57.3996C1.76833 56.4665 0.516656 54.5165 0.529399 52.4729V21.6614C0.510414 19.6568 1.70072 17.7256 3.46549 16.7795C12.5349 11.6823 21.6027 6.58132 30.6705 1.48185Z" fill="#8CC84B"/>
<path d="M38.5828 22.825C42.5384 22.5715 46.7729 22.6748 50.3324 24.6154C53.0883 26.1025 54.6161 29.2236 54.6648 32.2726C54.5878 32.6839 54.1561 32.9108 53.7618 32.8826C52.6142 32.881 51.4663 32.8981 50.3186 32.8748C49.8318 32.8934 49.5488 32.4464 49.4877 32.0178C49.158 30.5589 48.3591 29.114 46.9802 28.4104C44.8636 27.355 42.4094 27.4081 40.1013 27.4301C38.4164 27.5192 36.6045 27.6645 35.1771 28.6512C34.0812 29.3987 33.7483 30.9075 34.1394 32.1227C34.5082 32.9952 35.5196 33.2767 36.3471 33.5362C41.114 34.7778 46.1654 34.6543 50.8414 36.2882C52.7773 36.9544 54.671 38.2493 55.3337 40.2678C56.2004 42.9732 55.8205 46.2069 53.8877 48.3788C52.3203 50.1661 50.0375 51.1388 47.7607 51.6672C44.7317 52.3398 41.5884 52.3569 38.5124 52.0582C35.6199 51.7298 32.61 50.9731 30.3771 49.0105C28.4677 47.3594 27.5352 44.7869 27.6277 42.304C27.6498 41.8847 28.0691 41.5923 28.4724 41.6267C29.6281 41.6174 30.7838 41.6143 31.9396 41.6283C32.4012 41.5954 32.7434 41.9927 32.7671 42.426C32.9803 43.816 33.5049 45.2748 34.722 46.0989C37.0708 47.6081 40.0181 47.5047 42.7077 47.5469C44.9359 47.4485 47.4371 47.4187 49.2555 45.9521C50.2149 45.1156 50.4991 43.716 50.2398 42.512C49.959 41.4954 48.8911 41.0217 47.9742 40.712C43.2684 39.2296 38.1605 39.7675 33.5002 38.091C31.6082 37.4252 29.7787 36.1663 29.0518 34.2306C28.0376 31.491 28.5023 28.1024 30.6377 26.0039C32.7197 23.9164 35.7253 23.1125 38.5828 22.8248V22.825Z" fill="#8CC84B"/>
</g>
<defs>
<clipPath id="clip0_101_2823">
<rect width="66.5903" height="73.0345" fill="white" transform="translate(0.373047 0.554688)"/>
</clipPath>
</defs>
</svg>
