<svg width="109" height="58" viewBox="0 0 109 58" fill="none" xmlns="http://www.w3.org/2000/svg">
<path d="M54.5 57.6618C84.5995 57.6618 109 44.7538 109 28.8309C109 12.908 84.5995 0 54.5 0C24.4005 0 0 12.908 0 28.8309C0 44.7538 24.4005 57.6618 54.5 57.6618Z" fill="#8993BE"/>
<path fill-rule="evenodd" clip-rule="evenodd" d="M15.3049 45.9019L21.2778 15.174H35.0889C41.0613 15.5535 44.0477 18.5881 44.0477 23.8995C44.0477 33.0039 36.9555 38.3149 30.6092 37.9354H23.8908L22.3976 45.9019H15.3049ZM25.3836 32.2454L27.2502 20.8645H32.1029C34.7159 20.8645 36.5821 22.0025 36.5821 24.2785C36.2091 30.7279 33.2227 31.8659 29.8632 32.2454H25.384H25.3836ZM42.6601 37.9354L48.6325 7.20801H55.7252L54.232 15.174H60.9508C66.9237 15.5535 69.1633 18.5881 68.4169 22.382L65.8039 37.9354H58.3382L60.9512 23.8995C61.3242 22.0025 61.3242 20.8645 58.7116 20.8645H53.1122L49.7528 37.9354H42.6601ZM65.3257 45.9019L71.2981 15.174H85.1096C91.0825 15.5535 94.0689 18.5881 94.0689 23.8995C94.0689 33.0039 86.9763 38.3149 80.6304 37.9354H73.9112L72.418 45.9019H65.3257ZM75.404 32.2454L77.2706 20.8645H82.1236C84.7367 20.8645 86.6029 22.0025 86.6029 24.2785C86.2299 30.7279 83.2434 31.8659 79.884 32.2454H75.4044H75.404Z" fill="#232531"/>
</svg>
