<svg width="48" height="47" viewBox="0 0 48 47" fill="none" xmlns="http://www.w3.org/2000/svg">
<path d="M25.2299 4.5791H29.9983C31.1028 4.5791 31.9983 5.47453 31.9983 6.5791V40.4299C31.9983 41.5353 31.1014 42.4311 29.996 42.4299L17.8733 42.4161L6.07019 42.4298C4.96471 42.4311 4.06787 41.5353 4.06787 40.4298V6.5791C4.06787 5.47453 4.9633 4.5791 6.06787 4.5791H10.8362" fill="white"/>
<path d="M14.2012 7.61509H24.1084C25.1868 7.61509 26.0607 6.74083 26.0607 5.66272V1H12.2488V5.66272C12.2488 6.74083 13.123 7.61509 14.2012 7.61509Z" fill="#FF9B21"/>
<path d="M8.15845 14.249C8.15845 13.1445 9.05388 12.249 10.1584 12.249H12.0385C13.1431 12.249 14.0385 13.1445 14.0385 14.249V16.1291C14.0385 17.2337 13.1431 18.1291 12.0385 18.1291H10.1584C9.05388 18.1291 8.15845 17.2337 8.15845 16.1291V14.249Z" fill="#FF9B21"/>
<path d="M31.3689 23.7251L42.1339 12.9601C43.0828 12.0112 44.5352 12.3227 45.4841 13.2716C46.433 14.2205 46.5192 15.4476 45.5703 16.3965L34.8053 27.1615L28.6108 29.9192L31.3689 23.7251Z" fill="#FF9B21"/>
<path d="M8.15845 34.4614C8.15845 33.3569 9.05388 32.4614 10.1584 32.4614H12.0385C13.1431 32.4614 14.0385 33.3569 14.0385 34.4614V36.3415C14.0385 37.4461 13.1431 38.3415 12.0385 38.3415H10.1584C9.05388 38.3415 8.15845 37.4461 8.15845 36.3415V34.4614Z" fill="#5C63AB"/>
<path d="M44.3187 17.5786L45.5002 16.3971C46.4491 15.4482 46.4491 13.9096 45.5002 12.9607C44.5513 12.0118 43.0127 12.0118 42.0638 12.9607L40.8823 14.1418L44.3187 17.5786Z" fill="#FE646F"/>
<path d="M34.8053 26.9339L31.3689 23.4976L28.6108 29.6917L34.8053 26.9339Z" fill="white"/>
<path d="M13.2716 16.3621V13.249C13.2716 12.6967 12.8238 12.249 12.2716 12.249H10.9474H9.15845C8.60616 12.249 8.15845 12.6967 8.15845 13.249V16.3621C8.15845 16.9144 8.60616 17.3621 9.15845 17.3621H12.2716C12.8238 17.3621 13.2716 16.9144 13.2716 16.3621Z" stroke="#0D0B49" stroke-width="1.5"/>
<path d="M8.15845 24.3555C8.15845 23.2509 9.05388 22.3555 10.1584 22.3555H12.0385C13.1431 22.3555 14.0385 23.2509 14.0385 24.3555V26.2356C14.0385 27.3401 13.1431 28.2355 12.0385 28.2355H10.1584C9.05388 28.2355 8.15845 27.3401 8.15845 26.2355V24.3555Z" fill="#FF9B21"/>
<path d="M13.2716 26.5882V23.4751C13.2716 22.9228 12.8238 22.4751 12.2716 22.4751H10.9474H9.15845C8.60616 22.4751 8.15845 22.9228 8.15845 23.4751V26.5882C8.15845 27.1405 8.60616 27.5882 9.15845 27.5882H12.2716C12.8238 27.5882 13.2716 27.1405 13.2716 26.5882Z" stroke="#0D0B49" stroke-width="1.5"/>
<path d="M13.2716 36.8143V33.7012C13.2716 33.1489 12.8238 32.7012 12.2716 32.7012H10.9474H9.15845C8.60616 32.7012 8.15845 33.1489 8.15845 33.7012V36.8143C8.15845 37.3666 8.60616 37.8143 9.15845 37.8143H12.2716C12.8238 37.8143 13.2716 37.3666 13.2716 36.8143Z" stroke="#0D0B49" stroke-width="1.5"/>
<path d="M19.4072 13.783L21.9638 16.3395L26.5656 12.249" stroke="#0D0B49" stroke-width="1.5" stroke-linecap="round" stroke-linejoin="round"/>
<path d="M19.4072 24.009L21.9638 26.5656L26.5656 22.4751" stroke="#0D0B49" stroke-width="1.5" stroke-linecap="round" stroke-linejoin="round"/>
<path d="M19.4072 37.8143L24.5203 32.7012M19.4072 32.7012L24.5203 37.8143" stroke="#0D0B49" stroke-width="1.5" stroke-linecap="round"/>
<path d="M15.3167 42.4162H6.57918C5.47461 42.4162 4.57918 41.5208 4.57918 40.4162V6.57918C4.57918 5.47461 5.47461 4.57918 6.57918 4.57918H10.2036H11.7375M11.7375 4.57918V1M11.7375 4.57918V5.64705C11.7375 6.75162 12.633 7.64705 13.7375 7.64705H23.5429C24.6475 7.64705 25.5429 6.75162 25.5429 5.64705V4.57918M11.7375 1H3C1.89543 1 1 1.89543 1 3V43.9954C1 45.1 1.89543 45.9954 3 45.9954H34.2805C35.3851 45.9954 36.2805 45.1 36.2805 43.9954V26.0543M11.7375 1H25.5429M36.2805 26.0543L34.7466 27.0769M36.2805 26.0543L44.4615 17.8733M32.7013 21.9638L31.1674 23.4977M32.7013 21.9638L36.2805 18.3846M32.7013 21.9638V6.57918C32.7013 5.47461 31.8059 4.57918 30.7013 4.57918H25.5429M31.1674 23.4977L29.0736 28.9415C28.9097 29.3676 29.3556 29.7724 29.7639 29.5682L32.7013 28.0995M31.1674 23.4977L34.7466 27.0769M34.7466 27.0769L32.7013 28.0995M36.2805 18.3846V3C36.2805 1.89543 35.3851 1 34.2805 1H25.5429M36.2805 18.3846L40.371 14.2941M25.5429 1V4.57918M32.7013 28.0995V40.4162C32.7013 41.5208 31.8059 42.4162 30.7013 42.4162H21.4525M44.4615 17.8733L45.5064 16.8284C46.3245 16.0103 46.2799 14.6708 45.4092 13.909L44.3357 12.9697C43.5433 12.2763 42.349 12.3161 41.6045 13.0606L40.371 14.2941M44.4615 17.8733L40.371 14.2941" stroke="#0D0B49" stroke-width="1.5" stroke-linecap="round"/>
</svg>
