<svg width="46" height="46" viewBox="0 0 46 46" fill="none" xmlns="http://www.w3.org/2000/svg">
<path d="M43.6263 35.9639L34.4849 26.8225L34.1018 27.2057C33.4673 27.8402 32.4373 27.8402 31.8028 27.2057C31.1683 26.5712 31.1683 25.5412 31.8028 24.9067L32.186 24.5236L29.887 22.2246L22.2239 29.8878L24.5228 32.1868L24.906 31.8036C25.5405 31.1691 26.5704 31.1691 27.205 31.8036C27.8395 32.4381 27.8395 33.4681 27.205 34.1026L26.8218 34.4857L35.9632 43.6271C36.2406 43.9022 36.5463 44.1466 36.8758 44.3558L44.3551 36.8766C44.1458 36.5471 43.9014 36.2413 43.6263 35.9639Z" fill="#FF9B21"/>
<path d="M44.3552 36.877L36.876 44.3562C39.391 45.9716 42.7398 45.2429 44.3552 42.7278C45.5001 40.9461 45.5001 38.6594 44.3552 36.877Z" fill="white"/>
<path d="M9.96289 6.89814L9.19654 3.83282L3.83241 0.767578L0.76709 3.83282L3.83241 9.19703L6.89765 9.96338L24.5228 27.5886L27.5881 24.5233L9.96289 6.89814Z" fill="white"/>
<path d="M44.9546 7.15733L39.8494 12.2625L35.2516 10.7299L33.7189 6.13205L38.8241 1.02685C34.332 -0.119584 29.7617 2.59311 28.6153 7.08524C28.2682 8.44697 28.2682 9.87385 28.6153 11.2356L11.2354 28.6156C6.69723 27.4638 2.08479 30.208 0.933016 34.746C-0.218757 39.2842 2.52545 43.8966 7.0635 45.0484C11.6016 46.2001 16.2141 43.456 17.3658 38.9179C17.713 37.5492 17.713 36.1147 17.3658 34.7461L34.7458 17.3661C39.241 18.5094 43.8113 15.7922 44.9546 11.2969C45.3002 9.939 45.3002 8.51601 44.9546 7.15733ZM11.4959 40.6161H6.89803L4.59905 36.7845L6.89803 32.9529H11.4959L13.7949 36.7845L11.4959 40.6161Z" fill="#5C63AB"/>
<path d="M45.2134 39.7959C45.2127 38.7606 44.9146 37.7475 44.3552 36.877L42.1482 39.0839V44.6711C44.0211 43.7692 45.2127 41.8749 45.2134 39.7959Z" fill="white"/>
<path d="M0.102329 4.21712L3.16757 9.58133C3.27102 9.76298 3.4442 9.89397 3.64653 9.94456L6.50639 10.6596L16.3152 20.4684L17.3988 19.3848L7.43669 9.42264C7.33858 9.32453 7.21598 9.2548 7.0811 9.22108L4.33308 8.53141L1.72307 3.96192L3.9607 1.72429L8.53255 4.33667L9.22222 7.08469C9.25594 7.21957 9.32567 7.34294 9.42378 7.44105L19.3859 17.4031L20.4694 16.3196L10.6606 6.51075L9.94562 3.65241C9.89504 3.44932 9.76397 3.27614 9.58239 3.17269L4.21818 0.107368C3.91859 -0.062762 3.54232 -0.0121807 3.29864 0.230732L0.233322 3.29597C-0.0134052 3.53812 -0.0670382 3.91592 0.102329 4.21712Z" fill="#0D0B49"/>
<path d="M30.8777 14.0192L14.019 30.8779L15.1028 31.9616L31.9615 15.103L30.8777 14.0192Z" fill="#0D0B49"/>
<path d="M12.1522 32.5582C12.0135 32.3276 11.7644 32.1865 11.4955 32.1865H6.89762C6.62862 32.1865 6.37961 32.3275 6.24091 32.5582L3.94194 36.3898C3.79637 36.6327 3.79637 36.9362 3.94194 37.1791L6.24091 41.0107C6.37961 41.2413 6.6287 41.3824 6.89762 41.3824H11.4955C11.7645 41.3824 12.0135 41.2414 12.1522 41.0107L14.4512 37.1791C14.5967 36.9362 14.5967 36.6327 14.4512 36.3898L12.1522 32.5582ZM11.0618 39.8497H7.33134L5.49218 36.7845L7.33134 33.7192H11.0618L12.9009 36.7845L11.0618 39.8497Z" fill="#0D0B49"/>
<path d="M36.7849 18.393C41.8464 18.4099 45.963 14.3208 45.9798 9.25929C45.9821 8.48912 45.8879 7.72132 45.6986 6.97489C45.5967 6.56413 45.1806 6.31436 44.7698 6.41628C44.635 6.45 44.5116 6.51973 44.4135 6.61784L39.6432 11.3851L35.8584 10.1237L34.5963 6.33968L39.3666 1.56864C39.6654 1.26904 39.6654 0.783904 39.3658 0.48507C39.2669 0.386196 39.1428 0.316465 39.0072 0.282744C34.0989 -0.960198 29.1125 2.01075 27.8696 6.91904C27.6811 7.66388 27.5868 8.42946 27.5891 9.19726C27.5907 9.80035 27.6535 10.4019 27.7754 10.9927L10.9931 27.775C10.4023 27.6532 9.80076 27.5911 9.19768 27.5888C4.11933 27.5888 0.00195312 31.7062 0.00195312 36.7845C0.00195312 41.8629 4.11933 45.9803 9.19768 45.9803C14.276 45.9803 18.3934 41.8629 18.3934 36.7845C18.3919 36.1814 18.329 35.5799 18.2072 34.9891L22.2249 30.9713L23.9821 32.7285C24.2809 33.0273 24.7668 33.0273 25.0656 32.7285L25.4488 32.3453C25.7852 32.0113 26.3277 32.0113 26.6642 32.3453C26.9998 32.6802 27.0006 33.2235 26.6657 33.5592L26.6642 33.5607L26.281 33.9439C25.9822 34.2427 25.9822 34.7286 26.281 35.0275L35.4224 44.1688C37.8271 46.5949 41.7429 46.6126 44.169 44.2086C46.5952 41.8039 46.6128 37.8881 44.2089 35.4619C44.1958 35.4489 44.1829 35.4358 44.169 35.4221L35.0277 26.2807C34.7289 25.9819 34.243 25.9819 33.9441 26.2807L33.561 26.6638C33.2246 26.9979 32.6821 26.9979 32.3456 26.6638C32.0099 26.329 32.0092 25.7856 32.3441 25.45L32.3456 25.4484L32.7287 25.0653C33.0276 24.7665 33.0276 24.2806 32.7287 23.9817L30.9716 22.2246L34.9893 18.2068C35.5802 18.3287 36.1818 18.3907 36.7849 18.393ZM39.7957 44.4476C39.2386 44.4469 38.6869 44.3465 38.1657 44.1503L44.1507 38.1654C45.0541 40.5678 43.8388 43.2476 41.4364 44.1503C40.9115 44.3472 40.3559 44.4484 39.7957 44.4476ZM31.1142 24.5312C30.2659 25.5435 30.3984 27.0523 31.4107 27.9007C32.3004 28.6463 33.597 28.6455 34.486 27.8984L43.0856 36.5056C43.179 36.5991 43.2664 36.6979 43.3507 36.7983L36.7987 43.3503C36.6983 43.266 36.5994 43.1787 36.5059 43.0852L27.8995 34.478C28.7478 33.4657 28.6153 31.9568 27.6029 31.1085C26.7132 30.3629 25.4167 30.3637 24.5277 31.1108L23.3016 29.8847L29.8881 23.3082L31.1142 24.5312ZM34.2085 16.8236L16.8247 34.2043C16.6339 34.3944 16.5572 34.671 16.6224 34.9323C17.6737 39.0612 15.1786 43.2606 11.0497 44.312C6.92084 45.3626 2.72144 42.8682 1.67007 38.7393C0.618694 34.6104 3.11381 30.411 7.24271 29.3597C8.49183 29.0417 9.80069 29.0417 11.0497 29.3597C11.311 29.4233 11.5869 29.3466 11.7777 29.1573L29.1577 11.7766C29.3477 11.5866 29.4243 11.3099 29.3593 11.0486C28.3147 6.96802 30.7761 2.81379 34.8567 1.77012C35.6277 1.57245 36.4254 1.49731 37.22 1.54636L33.1777 5.5902C32.9723 5.79557 32.9003 6.09906 32.9923 6.37417L34.5249 10.972C34.6015 11.2011 34.7808 11.3805 35.0099 11.4563L39.6078 12.989C39.8829 13.0809 40.1864 13.0096 40.3918 12.8043L44.4341 8.76194C44.4433 8.90835 44.4479 9.05315 44.4479 9.19719C44.4693 13.4081 41.0738 16.8389 36.8629 16.8603C36.2115 16.8633 35.5633 16.7837 34.9326 16.622C34.6713 16.5568 34.3946 16.6335 34.2046 16.8235L34.2085 16.8236Z" fill="#0D0B49"/>
<path d="M31.9597 30.8787L30.876 31.9624L38.5389 39.6253L39.6226 38.5416L31.9597 30.8787Z" fill="#0D0B49"/>
</svg>
