<svg width="35" height="24" viewBox="0 0 35 24" fill="none" xmlns="http://www.w3.org/2000/svg">
<rect x="0.631104" y="0.5" width="33.4376" height="22.1621" rx="3" fill="#5C63AB"/>
<path d="M16.3507 14.1536L14.3059 12.3494C13.933 12.0204 13.375 12.0153 12.9963 12.3375L2.70182 21.0955C1.9933 21.6983 2.41957 22.8572 3.34981 22.8572H31.1556C32.0858 22.8572 32.5121 21.6983 31.8036 21.0955L21.4579 12.2939C21.1019 11.9911 20.5837 11.9752 20.2099 12.2556L17.6123 14.2038C17.2331 14.4882 16.7062 14.4673 16.3507 14.1536Z" fill="#434A93"/>
<path d="M31.4873 0.67842L3.23979 0.515775C2.30708 0.510405 1.87552 1.67201 2.58547 2.27693L16.5202 14.15C16.8882 14.4636 17.4278 14.469 17.802 14.1628L32.1148 2.45236C32.8399 1.85907 32.4242 0.683815 31.4873 0.67842Z" fill="#666FCB"/>
<path d="M21.0418 11.7761L32.9503 21.95M13.46 11.7761L1.60034 21.95" stroke="#0D0B49"/>
<path d="M0.631104 19.8565V3.5C0.631104 1.84315 1.97425 0.5 3.6311 0.5H31.0425C32.7096 0.5 34.0569 1.8591 34.0424 3.52609L33.9002 19.8826C33.8858 21.5292 32.547 22.8565 30.9003 22.8565H3.6311C1.97425 22.8565 0.631104 21.5134 0.631104 19.8565Z" stroke="#0D0B49"/>
<path d="M1.60034 1.05005L15.2125 13.1619C16.3257 14.1525 17.9973 14.1758 19.1377 13.2167L32.9503 1.60005" stroke="#0D0B49"/>
</svg>
