<svg width="24" height="24" viewBox="0 0 24 24" fill="none" xmlns="http://www.w3.org/2000/svg">
<path d="M12 0C5.3828 0 0 5.38331 0 12C0 18.6167 5.3828 24 12 24C18.6172 24 24 18.6167 24 12C24 5.38331 18.6172 0 12 0ZM12 20C11.4482 20 11 19.5513 11 19C11 18.4488 11.4483 18 12 18C12.5517 18 13 18.4488 13 19C13 19.5513 12.5518 20 12 20ZM13 16.5C13 16.7764 12.7763 17 12.5 17H11.5C11.2236 17 11 16.7764 11 16.5V4.5C11 4.22363 11.2236 3.99998 11.5 3.99998H12.5C12.7763 3.99998 13 4.22363 13 4.5V16.5Z" fill="#F61048"/>
</svg>
