<svg width="136" height="124" viewBox="0 0 136 124" fill="none" xmlns="http://www.w3.org/2000/svg">
<path d="M67.9204 118.228C99.0714 118.228 124.324 92.9948 124.324 61.8677C124.324 30.7406 99.0714 5.50708 67.9204 5.50708C36.7695 5.50708 11.5166 30.7406 11.5166 61.8677C11.5166 92.9948 36.7695 118.228 67.9204 118.228Z" fill="white" stroke="#4385F4" stroke-width="8"/>
<path d="M67.9201 114.42C96.9659 114.42 120.512 90.8917 120.512 61.8677C120.512 32.8438 96.9659 9.31519 67.9201 9.31519C38.8744 9.31519 15.3281 32.8438 15.3281 61.8677C15.3281 90.8917 38.8744 114.42 67.9201 114.42Z" fill="white" stroke="#4385F4" stroke-width="6" stroke-dasharray="3 3"/>
<path d="M46.2353 56.411C46.0303 56.5495 45.8787 56.651 45.7717 56.7156C45.3883 56.9557 45.0227 57.1403 44.6838 57.288C44.1934 57.4911 43.7565 57.5926 43.3642 57.5926C42.0178 57.5926 40.9032 57.1772 40.0027 56.3371C39.1021 55.4971 38.6562 54.4447 38.6562 53.1707C38.6562 51.9429 39.0575 50.8813 39.8689 49.9766C40.6803 49.0719 41.6611 48.6288 42.8203 48.6288C43.3018 48.6288 43.8189 48.7119 44.3539 48.8873C45.0494 49.1089 45.6112 49.4412 46.057 49.8751L45.2813 50.7428C44.9513 50.4197 44.5234 50.1797 44.024 50.032C43.6495 49.9212 43.2394 49.8658 42.7846 49.8658C41.9732 49.8658 41.2866 50.1982 40.7427 50.8536C40.1988 51.5183 39.9224 52.303 39.9224 53.2261C39.9224 54.14 40.2345 54.8878 40.8586 55.4878C41.4828 56.0879 42.2764 56.3925 43.2394 56.3925C43.6406 56.3925 44.0508 56.2633 44.4699 56.014C44.8176 55.7463 44.9959 55.6171 45.0048 55.6078V53.7154H42.4012L42.7757 52.5338H46.2353V56.411V56.411ZM54.0997 54.1031C54.0997 55.017 53.7787 55.8109 53.1368 56.4756C52.4948 57.1403 51.7012 57.4818 50.756 57.4818C49.8822 57.4818 49.1154 57.1495 48.4556 56.4941C47.7957 55.8386 47.4747 55.0447 47.4747 54.1123C47.4747 53.1892 47.7868 52.3953 48.411 51.7121C49.0351 51.029 49.802 50.6967 50.7025 50.6967C51.7012 50.6967 52.5126 51.0198 53.1457 51.6752C53.7787 52.3122 54.0997 53.1246 54.0997 54.1031ZM52.8782 54.1216C52.8782 53.5031 52.6731 52.9769 52.2629 52.5522C51.8528 52.1183 51.3445 51.906 50.7382 51.906C50.1675 51.906 49.686 52.1276 49.2848 52.5707C48.8836 53.0138 48.6874 53.5215 48.6874 54.0939C48.6874 54.6939 48.8925 55.2017 49.2937 55.6263C49.695 56.051 50.1943 56.2725 50.8006 56.2725C51.3624 56.2725 51.8439 56.0602 52.254 55.6355C52.6731 55.2109 52.8782 54.7032 52.8782 54.1216ZM61.8572 54.1031C61.8572 55.017 61.5362 55.8109 60.8942 56.4756C60.2522 57.1403 59.4586 57.4818 58.5134 57.4818C57.6396 57.4818 56.8728 57.1495 56.213 56.4941C55.5531 55.8386 55.2322 55.0447 55.2322 54.1123C55.2322 53.1892 55.5442 52.3953 56.1684 51.7121C56.7925 51.029 57.5594 50.6967 58.4599 50.6967C59.4586 50.6967 60.27 51.0198 60.9031 51.6752C61.5362 52.3122 61.8572 53.1246 61.8572 54.1031ZM60.6356 54.1216C60.6356 53.5031 60.4305 52.9769 60.0203 52.5522C59.6102 52.1183 59.1019 51.906 58.4956 51.906C57.925 51.906 57.4435 52.1276 57.0422 52.5707C56.641 53.0138 56.4448 53.5215 56.4448 54.0939C56.4448 54.6939 56.6499 55.2017 57.0511 55.6263C57.4524 56.051 57.9517 56.2725 58.558 56.2725C59.1198 56.2725 59.6013 56.0602 60.0114 55.6355C60.4305 55.2109 60.6356 54.7032 60.6356 54.1216ZM69.035 57.2972L67.9115 57.4726V56.3741L67.6708 56.651C67.4568 56.8541 67.216 57.0203 66.9574 57.1495C66.5829 57.3249 66.1728 57.4172 65.7359 57.4172C64.862 57.4172 64.1131 57.0941 63.5067 56.4387C62.9004 55.7832 62.5972 55.0078 62.5972 54.1031C62.5972 53.1707 62.9004 52.3676 63.4978 51.7029C64.0952 51.0382 64.8264 50.7059 65.7002 50.7059C66.1995 50.7059 66.6364 50.789 67.002 50.9552C67.2606 51.0752 67.4835 51.2321 67.6708 51.426C67.7332 51.509 67.7956 51.6014 67.858 51.6844V48.8042L69.0528 48.6288L69.035 57.2972V57.2972ZM67.9828 54.1862C67.9828 53.54 67.7688 52.9953 67.3319 52.5522C66.895 52.0999 66.4046 51.8783 65.8429 51.8783C65.2187 51.8783 64.7194 52.0906 64.336 52.5153C63.9793 52.9215 63.7921 53.42 63.7921 54.0016C63.7921 54.657 63.9793 55.2017 64.3538 55.6263C64.7283 56.051 65.2009 56.2633 65.7804 56.2633C66.3511 56.2633 66.8504 56.0694 67.2963 55.6725C67.751 55.2663 67.9828 54.7678 67.9828 54.1862V54.1862ZM75.339 50.0043H71.9953V52.303H74.59V53.4846H71.9953V57.288L70.6935 57.4818V48.8134H75.0804L75.339 50.0043ZM78.0229 49.3304L77.2204 50.3551L76.4536 49.3304L77.265 48.3149L78.0229 49.3304ZM77.7821 57.2972L76.5873 57.4634V51.0475L77.7821 50.8628V57.2972ZM83.1767 50.7982L82.6149 52.1091C82.5525 52.0999 82.4723 52.0906 82.392 52.0906C82.2761 52.0906 82.1602 52.0999 82.0443 52.1183C81.9283 52.1368 81.8035 52.183 81.6698 52.2476C81.4201 52.3584 81.2061 52.5984 81.0189 52.9584C80.8138 53.3646 80.7068 53.8077 80.7068 54.2785V57.288L79.512 57.4818V51.0475L80.6176 50.8444V52.1829C80.7603 51.9522 80.9119 51.7214 81.0545 51.4814C81.2596 51.2413 81.5004 51.0659 81.7679 50.9644C81.9105 50.909 82.1691 50.8628 82.5614 50.8259C82.9359 50.7982 83.1499 50.7798 83.1767 50.7982V50.7982ZM92.0754 57.2972L90.8806 57.4726V53.0692C90.8806 52.663 90.7914 52.3676 90.6131 52.1829C90.4348 51.9983 90.1673 51.906 89.8195 51.906C89.4004 51.906 89.0794 52.0814 88.8654 52.4322C88.7228 52.6722 88.6425 52.9307 88.6425 53.1892V57.288L87.4477 57.5095V53.0969C87.4477 52.7091 87.3585 52.4137 87.1891 52.2106C87.0108 52.0076 86.779 51.906 86.4758 51.906H86.3599C85.9408 51.906 85.6376 52.0814 85.4504 52.4414C85.3077 52.7091 85.2364 53.0507 85.2364 53.4661V57.288L83.997 57.5095V51.0475L85.1116 50.8536V51.6752C85.2364 51.4814 85.3612 51.3244 85.4771 51.2136C85.7981 50.909 86.1726 50.7613 86.5917 50.7613C87.0643 50.7613 87.412 50.8351 87.6528 50.9921C87.8579 51.1213 88.054 51.3798 88.2502 51.7491C88.6604 51.0936 89.2399 50.7613 90.0068 50.7613C90.7379 50.7613 91.2818 50.9921 91.6385 51.4629C91.9327 51.8506 92.0754 52.423 92.0754 53.1707V57.2972V57.2972ZM97.5323 55.3494C97.5323 55.9402 97.3273 56.4295 96.9171 56.8079C96.5069 57.1957 95.9898 57.3803 95.3656 57.3803C94.893 57.3803 94.474 57.2695 94.0905 57.048C93.7071 56.8264 93.4218 56.5772 93.2346 56.2817L94.0727 55.5248C94.1351 55.6171 94.1886 55.6909 94.2421 55.7463C94.5542 56.0694 94.9287 56.2356 95.3656 56.2356C95.6688 56.2356 95.9095 56.1525 96.0789 55.9956C96.2573 55.8386 96.3375 55.6171 96.3375 55.3309C96.3375 55.0078 96.1324 54.7862 95.7223 54.6662C94.9109 54.417 94.474 54.2785 94.4115 54.2508C94.037 54.057 93.7696 53.8539 93.6001 53.6231C93.4129 53.3554 93.3148 53.0046 93.3148 52.5522C93.3148 51.9983 93.5199 51.5367 93.9211 51.1675C94.3224 50.7982 94.8039 50.6228 95.3567 50.6228C95.7758 50.6228 96.1681 50.7151 96.5248 50.909C96.8814 51.1029 97.14 51.306 97.2916 51.546L96.5783 52.3307C96.4445 52.2014 96.3286 52.0999 96.2305 52.0352C95.9452 51.8322 95.6688 51.7306 95.4102 51.7306C95.1605 51.7306 94.9555 51.786 94.795 51.8968C94.6077 52.0352 94.5096 52.2383 94.5096 52.5061C94.5096 52.7645 94.5988 52.9584 94.786 53.0784C94.9465 53.18 95.2854 53.2907 95.8204 53.4107C96.3554 53.54 96.7655 53.7615 97.0598 54.0754C97.3897 54.4077 97.5323 54.8232 97.5323 55.3494V55.3494Z" fill="#4385F4"/>
<path fill-rule="evenodd" clip-rule="evenodd" d="M78.0991 21.6057H63.5404C58.2773 22.8573 58.165 27.2165 58.165 27.2165V41.9486H63.765V28.5359C63.765 27.3957 64.8843 27.1942 64.8843 27.1942H78.0991V21.6057ZM66.509 28.8142C66.509 28.8142 65.3752 28.7023 65.3752 29.7046V34.1567H72.8562V35.4929C72.8562 35.4929 72.8785 36.1604 72.1761 36.1604H65.3752V41.9486H73.5363C73.5363 41.9486 78.4785 41.1923 78.5232 36.1604V28.8142H66.509V28.8142Z" fill="#4385F4"/>
<path fill-rule="evenodd" clip-rule="evenodd" d="M0.0595703 72.8867H15.3282V96.6201H0.0595703L4.96053 85.4757L0.0595703 72.8867ZM135.781 72.8867H120.512V96.6201H135.781L130.88 85.4757L135.781 72.8867Z" fill="#3876DF"/>
<path fill-rule="evenodd" clip-rule="evenodd" d="M7.69629 64.8345L15.3306 72.8479V96.5813L7.69629 88.5679V64.8345ZM128.149 64.8345L120.515 72.8479V96.5813L128.149 88.5679V64.8345Z" fill="#2354A6"/>
<path fill-rule="evenodd" clip-rule="evenodd" d="M7.69629 64.8345H128.149V88.5679H7.69629V64.8345Z" fill="#4385F4"/>
<path fill-rule="evenodd" clip-rule="evenodd" d="M51.0206 100.737C50.8221 100.626 50.6821 100.499 50.6007 100.356C50.5193 100.213 50.4786 100.09 50.4786 99.9868C50.4786 99.9511 50.4925 99.9203 50.5203 99.8945C50.5481 99.8687 50.5799 99.8558 50.6156 99.8558H50.8777C50.9134 99.8558 50.9432 99.8647 50.967 99.8826C50.9909 99.9005 51.0107 99.9332 51.0266 99.9809C51.1378 100.298 51.3899 100.457 51.7831 100.457C52.0809 100.457 52.3013 100.394 52.4442 100.267C52.5872 100.14 52.6587 99.9154 52.6587 99.5938V99.1829C52.4283 99.4767 52.1067 99.6236 51.6937 99.6236C51.2728 99.6236 50.9581 99.4886 50.7496 99.2186C50.5411 98.9486 50.431 98.6072 50.419 98.1943L50.4131 98.0276L50.419 97.8668C50.431 97.4579 50.5411 97.1175 50.7496 96.8455C50.9581 96.5736 51.2728 96.4376 51.6937 96.4376C52.1107 96.4376 52.4363 96.5904 52.6706 96.8961V96.6401C52.6706 96.6004 52.6835 96.5666 52.7093 96.5388C52.7351 96.511 52.7679 96.4971 52.8076 96.4971H53.0637C53.1034 96.4971 53.1362 96.511 53.162 96.5388C53.1878 96.5666 53.2007 96.6004 53.2007 96.6401V99.5283C53.2007 100.445 52.7381 100.904 51.8128 100.904C51.4833 100.904 51.2192 100.848 51.0206 100.737ZM52.4293 98.8881C52.5703 98.7075 52.6467 98.4901 52.6587 98.236C52.6626 98.2003 52.6646 98.1308 52.6646 98.0276C52.6646 97.9283 52.6626 97.8608 52.6587 97.8251C52.6467 97.571 52.5703 97.3537 52.4293 97.173C52.2884 96.9924 52.0789 96.9021 51.8009 96.9021C51.515 96.9021 51.3075 96.9924 51.1785 97.173C51.0494 97.3537 50.9789 97.5869 50.967 97.8728L50.9611 98.0276L50.967 98.1884C50.9789 98.4742 51.0494 98.7075 51.1785 98.8881C51.3075 99.0687 51.515 99.1591 51.8009 99.1591C52.0789 99.1591 52.2884 99.0687 52.4293 98.8881V98.8881ZM54.3473 99.2841C54.111 99.038 53.985 98.7104 53.9691 98.3015L53.9631 98.0455L53.9691 97.7894C53.985 97.3805 54.113 97.0529 54.3533 96.8068C54.5935 96.5607 54.9281 96.4376 55.3569 96.4376C55.7858 96.4376 56.1203 96.5607 56.3606 96.8068C56.6008 97.0529 56.7289 97.3805 56.7448 97.7894C56.7527 97.8767 56.7567 97.9621 56.7567 98.0455C56.7567 98.1288 56.7527 98.2142 56.7448 98.3015C56.7289 98.7104 56.6028 99.038 56.3665 99.2841C56.1303 99.5303 55.7937 99.6533 55.3569 99.6533C54.9201 99.6533 54.5836 99.5303 54.3473 99.2841ZM55.9615 98.9655C56.1104 98.8047 56.1908 98.5735 56.2027 98.2717C56.2067 98.232 56.2087 98.1566 56.2087 98.0455C56.2087 97.9343 56.2067 97.8589 56.2027 97.8192C56.1908 97.5174 56.1104 97.2862 55.9615 97.1254C55.8126 96.9646 55.6111 96.8842 55.3569 96.8842C55.1028 96.8842 54.9013 96.9646 54.7523 97.1254C54.6034 97.2862 54.523 97.5174 54.5111 97.8192L54.5051 98.0455L54.5111 98.2717C54.523 98.5735 54.6034 98.8047 54.7523 98.9655C54.9013 99.1263 55.1028 99.2067 55.3569 99.2067C55.6111 99.2067 55.8126 99.1263 55.9615 98.9655ZM57.7544 99.2841C57.5181 99.038 57.392 98.7104 57.3761 98.3015L57.3702 98.0455L57.3761 97.7894C57.392 97.3805 57.5201 97.0529 57.7603 96.8068C58.0006 96.5607 58.3351 96.4376 58.764 96.4376C59.1929 96.4376 59.5274 96.5607 59.7676 96.8068C60.0079 97.0529 60.136 97.3805 60.1518 97.7894C60.1598 97.8767 60.1637 97.9621 60.1637 98.0455C60.1637 98.1288 60.1598 98.2142 60.1518 98.3015C60.136 98.7104 60.0099 99.038 59.7736 99.2841C59.5373 99.5303 59.2008 99.6533 58.764 99.6533C58.3272 99.6533 57.9906 99.5303 57.7544 99.2841ZM59.3686 98.9655C59.5175 98.8047 59.5979 98.5735 59.6098 98.2717C59.6138 98.232 59.6158 98.1566 59.6158 98.0455C59.6158 97.9343 59.6138 97.8589 59.6098 97.8192C59.5979 97.5174 59.5175 97.2862 59.3686 97.1254C59.2197 96.9646 59.0181 96.8842 58.764 96.8842C58.5098 96.8842 58.3083 96.9646 58.1594 97.1254C58.0105 97.2862 57.9301 97.5174 57.9182 97.8192L57.9122 98.0455L57.9182 98.2717C57.9301 98.5735 58.0105 98.8047 58.1594 98.9655C58.3083 99.1263 58.5098 99.2067 58.764 99.2067C59.0181 99.2067 59.2197 99.1263 59.3686 98.9655ZM61.1078 99.2484C60.8994 98.9784 60.7872 98.637 60.7713 98.2241L60.7653 98.0455L60.7713 97.8668C60.7872 97.4579 60.9004 97.1175 61.1108 96.8455C61.3213 96.5736 61.633 96.4376 62.046 96.4376C62.459 96.4376 62.7806 96.5845 63.0109 96.8783V95.5026C63.0109 95.4629 63.0238 95.4302 63.0496 95.4044C63.0754 95.3786 63.1082 95.3657 63.1479 95.3657H63.416C63.4557 95.3657 63.4884 95.3786 63.5142 95.4044C63.54 95.4302 63.553 95.4629 63.553 95.5026V99.4568C63.553 99.4965 63.54 99.5293 63.5142 99.5551C63.4884 99.5809 63.4557 99.5938 63.416 99.5938H63.1598C63.1201 99.5938 63.0884 99.5809 63.0645 99.5551C63.0407 99.5293 63.0288 99.4965 63.0288 99.4568V99.2007C62.8024 99.5025 62.4748 99.6533 62.046 99.6533C61.629 99.6533 61.3163 99.5184 61.1078 99.2484ZM62.7846 98.9119C62.9236 98.7273 62.999 98.508 63.0109 98.2539C63.0149 98.2102 63.0169 98.1348 63.0169 98.0276C63.0169 97.9164 63.0149 97.839 63.0109 97.7953C63.003 97.5532 62.9265 97.3437 62.7816 97.1671C62.6367 96.9904 62.4292 96.9021 62.1592 96.9021C61.8732 96.9021 61.6648 96.9914 61.5337 97.1701C61.4027 97.3487 61.3312 97.5829 61.3193 97.8728L61.3133 98.0455C61.3133 98.8077 61.5953 99.1888 62.1592 99.1888C62.4371 99.1888 62.6456 99.0965 62.7846 98.9119V98.9119ZM64.8008 99.5551C64.775 99.5293 64.7621 99.4965 64.7621 99.4568V96.9557H64.2499C64.2101 96.9557 64.1774 96.9438 64.1516 96.9199C64.1258 96.8961 64.1129 96.8644 64.1129 96.8247V96.6341C64.1129 96.5944 64.1258 96.5616 64.1516 96.5358C64.1774 96.51 64.2101 96.4971 64.2499 96.4971H64.7621V96.1994C64.7621 95.8778 64.8405 95.6287 64.9974 95.452C65.1542 95.2753 65.4114 95.187 65.7687 95.187H66.6622C66.7019 95.187 66.7337 95.1999 66.7575 95.2257C66.7813 95.2515 66.7932 95.2843 66.7932 95.324V95.5145C66.7932 95.5542 66.7813 95.586 66.7575 95.6098C66.7337 95.6336 66.7019 95.6456 66.6622 95.6456H65.7807C65.598 95.6456 65.4709 95.6932 65.3994 95.7885C65.328 95.8838 65.2922 96.0306 65.2922 96.2292V96.4971H66.6622C66.7019 96.4971 66.7337 96.51 66.7575 96.5358C66.7813 96.5616 66.7932 96.5944 66.7932 96.6341V99.4568C66.7932 99.4965 66.7813 99.5293 66.7575 99.5551C66.7337 99.5809 66.7019 99.5938 66.6622 99.5938H66.4001C66.3604 99.5938 66.3277 99.5809 66.3018 99.5551C66.276 99.5293 66.2631 99.4965 66.2631 99.4568V96.9557H65.2922V99.4568C65.2922 99.4965 65.2793 99.5293 65.2535 99.5551C65.2277 99.5809 65.1949 99.5938 65.1552 99.5938H64.8991C64.8594 99.5938 64.8266 99.5809 64.8008 99.5551V99.5551ZM67.7254 99.5551C67.6996 99.5293 67.6867 99.4965 67.6867 99.4568V96.6401C67.6867 96.6004 67.6996 96.5666 67.7254 96.5388C67.7512 96.511 67.784 96.4971 67.8237 96.4971H68.0739C68.1176 96.4971 68.1523 96.51 68.1781 96.5358C68.2039 96.5616 68.2168 96.5964 68.2168 96.6401V96.9021C68.3796 96.6321 68.6556 96.4971 69.0448 96.4971H69.2771C69.3208 96.4971 69.3545 96.509 69.3783 96.5329C69.4022 96.5567 69.4141 96.5904 69.4141 96.6341V96.8544C69.4141 96.8941 69.4022 96.9269 69.3783 96.9527C69.3545 96.9785 69.3208 96.9914 69.2771 96.9914H68.9376C68.7192 96.9914 68.5474 97.0549 68.4223 97.182C68.2972 97.309 68.2347 97.4817 68.2347 97.7001V99.4568C68.2347 99.4965 68.2208 99.5293 68.193 99.5551C68.1652 99.5809 68.1315 99.5938 68.0917 99.5938H67.8237C67.784 99.5938 67.7512 99.5809 67.7254 99.5551V99.5551ZM69.965 99.5551C69.9392 99.5293 69.9263 99.4965 69.9263 99.4568V96.6341C69.9263 96.5944 69.9392 96.5616 69.965 96.5358C69.9909 96.51 70.0236 96.4971 70.0633 96.4971H70.3135C70.3532 96.4971 70.385 96.51 70.4088 96.5358C70.4326 96.5616 70.4445 96.5944 70.4445 96.6341V96.8366C70.659 96.5706 70.9488 96.4376 71.3142 96.4376C71.751 96.4376 72.0607 96.6202 72.2434 96.9854C72.3387 96.8187 72.4747 96.6857 72.6514 96.5865C72.8281 96.4872 73.0257 96.4376 73.2441 96.4376C73.5697 96.4376 73.8357 96.5487 74.0422 96.7711C74.2487 96.9934 74.352 97.315 74.352 97.7358V99.4568C74.352 99.4965 74.339 99.5293 74.3132 99.5551C74.2874 99.5809 74.2547 99.5938 74.215 99.5938H73.9588C73.9191 99.5938 73.8864 99.5809 73.8605 99.5551C73.8347 99.5293 73.8218 99.4965 73.8218 99.4568V97.7894C73.8218 97.4718 73.7563 97.2445 73.6253 97.1075C73.4942 96.9706 73.3215 96.9021 73.1071 96.9021C72.9165 96.9021 72.7527 96.9725 72.6157 97.1135C72.4787 97.2544 72.4102 97.4797 72.4102 97.7894V99.4568C72.4102 99.4965 72.3973 99.5293 72.3714 99.5551C72.3456 99.5809 72.3129 99.5938 72.2732 99.5938H72.0111C71.9714 99.5938 71.9386 99.5809 71.9128 99.5551C71.887 99.5293 71.8741 99.4965 71.8741 99.4568V97.7894C71.8741 97.4757 71.8056 97.2495 71.6686 97.1105C71.5316 96.9716 71.3618 96.9021 71.1593 96.9021C70.9687 96.9021 70.8049 96.9716 70.6679 97.1105C70.5309 97.2495 70.4624 97.4738 70.4624 97.7834V99.4568C70.4624 99.4965 70.4495 99.5293 70.4237 99.5551C70.3979 99.5809 70.3651 99.5938 70.3254 99.5938H70.0633C70.0236 99.5938 69.9909 99.5809 69.965 99.5551V99.5551ZM75.582 99.5193C75.3933 99.43 75.2534 99.3278 75.162 99.2127C75.0707 99.0975 75.025 99.0022 75.025 98.9268C75.025 98.8871 75.0389 98.8563 75.0667 98.8345C75.0945 98.8127 75.1243 98.8018 75.1561 98.8018H75.4062C75.4301 98.8018 75.4489 98.8057 75.4628 98.8137C75.4767 98.8216 75.4956 98.8395 75.5194 98.8673C75.6107 98.9784 75.713 99.0658 75.8262 99.1293C75.9393 99.1928 76.0912 99.2246 76.2818 99.2246C76.4963 99.2246 76.668 99.1849 76.7971 99.1055C76.9261 99.0261 76.9906 98.9109 76.9906 98.7601C76.9906 98.6608 76.9629 98.5814 76.9073 98.5219C76.8517 98.4623 76.7593 98.4087 76.6303 98.3611C76.5012 98.3134 76.3096 98.2618 76.0555 98.2062C75.71 98.1308 75.4658 98.0216 75.3228 97.8787C75.1799 97.7358 75.1084 97.5512 75.1084 97.3249C75.1084 97.178 75.1521 97.0361 75.2395 96.8991C75.3268 96.7621 75.4569 96.651 75.6296 96.5656C75.8023 96.4803 76.0078 96.4376 76.2461 96.4376C76.4963 96.4376 76.7097 96.4793 76.8864 96.5626C77.0631 96.646 77.1961 96.7433 77.2855 96.8544C77.3748 96.9656 77.4195 97.0589 77.4195 97.1343C77.4195 97.1701 77.4066 97.1998 77.3808 97.2237C77.355 97.2475 77.3242 97.2594 77.2885 97.2594H77.0621C77.0065 97.2594 76.9668 97.2375 76.943 97.1939C76.8755 97.1184 76.8189 97.0599 76.7732 97.0182C76.7276 96.9765 76.6611 96.9408 76.5737 96.911C76.4863 96.8812 76.3771 96.8663 76.2461 96.8663C76.0515 96.8663 75.9026 96.907 75.7994 96.9884C75.6961 97.0698 75.6445 97.178 75.6445 97.313C75.6445 97.3964 75.6663 97.4668 75.71 97.5244C75.7537 97.5819 75.8371 97.6355 75.9602 97.6852C76.0833 97.7348 76.2659 97.7854 76.5082 97.837C76.8854 97.9164 77.1525 98.0296 77.3093 98.1765C77.4662 98.3234 77.5446 98.5119 77.5446 98.7422C77.5446 98.9129 77.496 99.0677 77.3987 99.2067C77.3014 99.3456 77.1564 99.4548 76.9638 99.5342C76.7712 99.6136 76.5419 99.6533 76.2759 99.6533C76.0019 99.6533 75.7706 99.6087 75.582 99.5193V99.5193ZM78.2385 99.5551C78.2127 99.5293 78.1998 99.4965 78.1998 99.4568V99.0459C78.1998 99.0062 78.2127 98.9725 78.2385 98.9447C78.2643 98.9169 78.2971 98.903 78.3368 98.903H78.7478C78.7875 98.903 78.8203 98.9169 78.8461 98.9447C78.8719 98.9725 78.8848 99.0062 78.8848 99.0459V99.4568C78.8848 99.4965 78.8719 99.5293 78.8461 99.5551C78.8203 99.5809 78.7875 99.5938 78.7478 99.5938H78.3368C78.2971 99.5938 78.2643 99.5809 78.2385 99.5551ZM79.9748 99.293C79.7366 99.0529 79.6115 98.7164 79.5996 98.2837L79.5936 98.0455L79.5996 97.8073C79.6115 97.3745 79.7366 97.0381 79.9748 96.7979C80.2131 96.5577 80.5446 96.4376 80.9695 96.4376C81.2554 96.4376 81.4967 96.4882 81.6932 96.5894C81.8898 96.6907 82.0367 96.8167 82.134 96.9676C82.2313 97.1184 82.2839 97.2693 82.2919 97.4202C82.2958 97.4559 82.2829 97.4877 82.2531 97.5155C82.2234 97.5432 82.1906 97.5571 82.1549 97.5571H81.8928C81.8531 97.5571 81.8233 97.5482 81.8034 97.5303C81.7836 97.5125 81.7637 97.4797 81.7439 97.4321C81.6724 97.2375 81.5741 97.0996 81.449 97.0182C81.3239 96.9368 81.1661 96.8961 80.9755 96.8961C80.7253 96.8961 80.5268 96.9735 80.3799 97.1284C80.2329 97.2832 80.1535 97.5194 80.1416 97.837L80.1356 98.0455L80.1416 98.2539C80.1535 98.5715 80.2329 98.8077 80.3799 98.9625C80.5268 99.1174 80.7253 99.1948 80.9755 99.1948C81.1701 99.1948 81.3289 99.1541 81.452 99.0727C81.5751 98.9913 81.6724 98.8534 81.7439 98.6588C81.7637 98.6112 81.7836 98.5784 81.8034 98.5606C81.8233 98.5427 81.8531 98.5338 81.8928 98.5338H82.1549C82.1906 98.5338 82.2234 98.5477 82.2531 98.5755C82.2829 98.6033 82.2958 98.635 82.2919 98.6707C82.2839 98.8176 82.2313 98.9665 82.134 99.1174C82.0367 99.2682 81.8898 99.3953 81.6932 99.4985C81.4967 99.6017 81.2554 99.6533 80.9695 99.6533C80.5446 99.6533 80.2131 99.5332 79.9748 99.293ZM83.2538 99.2841C83.0176 99.038 82.8915 98.7104 82.8756 98.3015L82.8696 98.0455L82.8756 97.7894C82.8915 97.3805 83.0195 97.0529 83.2598 96.8068C83.5 96.5607 83.8346 96.4376 84.2634 96.4376C84.6923 96.4376 85.0269 96.5607 85.2671 96.8068C85.5073 97.0529 85.6354 97.3805 85.6513 97.7894C85.6592 97.8767 85.6632 97.9621 85.6632 98.0455C85.6632 98.1288 85.6592 98.2142 85.6513 98.3015C85.6354 98.7104 85.5093 99.038 85.2731 99.2841C85.0368 99.5303 84.7003 99.6533 84.2634 99.6533C83.8266 99.6533 83.4901 99.5303 83.2538 99.2841ZM84.868 98.9655C85.0169 98.8047 85.0973 98.5735 85.1093 98.2717C85.1132 98.232 85.1152 98.1566 85.1152 98.0455C85.1152 97.9343 85.1132 97.8589 85.1093 97.8192C85.0973 97.5174 85.0169 97.2862 84.868 97.1254C84.7191 96.9646 84.5176 96.8842 84.2634 96.8842C84.0093 96.8842 83.8078 96.9646 83.6589 97.1254C83.51 97.2862 83.4295 97.5174 83.4176 97.8192L83.4117 98.0455L83.4176 98.2717C83.4295 98.5735 83.51 98.8047 83.6589 98.9655C83.8078 99.1263 84.0093 99.2067 84.2634 99.2067C84.5176 99.2067 84.7191 99.1263 84.868 98.9655Z" fill="#4A4A4A"/>
<path fill-rule="evenodd" clip-rule="evenodd" d="M41.7351 74.8412H40.6686V70.6254H39.1782V69.7462H43.229V70.6254H41.7351V74.8412ZM46.1179 69.658C47.6259 69.658 48.5759 70.6713 48.5759 72.2955C48.5759 73.9162 47.6259 74.9295 46.1179 74.9295C44.6063 74.9295 43.6599 73.9162 43.6599 72.2955C43.6599 70.6713 44.6063 69.658 46.1179 69.658ZM46.1179 70.5477C45.2844 70.5477 44.7476 71.2257 44.7476 72.2955C44.7476 73.3618 45.2809 74.0362 46.1179 74.0362C46.9514 74.0362 47.4846 73.3618 47.4846 72.2955C47.4846 71.2257 46.9514 70.5477 46.1179 70.5477ZM49.261 69.7462H51.3871C52.4325 69.7462 53.1529 70.4418 53.1529 71.4905C53.1529 72.5356 52.4077 73.2347 51.3341 73.2347H50.3276V74.8412H49.261V69.7462V69.7462ZM50.3276 70.5901V72.4014H51.101C51.712 72.4014 52.0687 72.0766 52.0687 71.494C52.0687 70.9149 51.7155 70.5901 51.1046 70.5901H50.3276ZM60.7318 69.7462V74.8412H59.7818V71.4022H59.7535L58.3691 74.7918H57.6981L56.3137 71.4022H56.2855V74.8412H55.3355V69.7462H56.5715L58.0195 73.3583H58.0478L59.4957 69.7462H60.7318V69.7462ZM63.8785 69.658C65.3865 69.658 66.3365 70.6713 66.3365 72.2955C66.3365 73.9162 65.3865 74.9295 63.8785 74.9295C62.3669 74.9295 61.4205 73.9162 61.4205 72.2955C61.4205 70.6713 62.3669 69.658 63.8785 69.658ZM63.8785 70.5477C63.045 70.5477 62.5082 71.2257 62.5082 72.2955C62.5082 73.3618 63.0415 74.0362 63.8785 74.0362C64.712 74.0362 65.2452 73.3618 65.2452 72.2955C65.2452 71.2257 64.712 70.5477 63.8785 70.5477ZM69.3101 74.8412H67.0216V69.7462H69.2713C70.2284 69.7462 70.8287 70.237 70.8287 71.0173C70.8287 71.5752 70.412 72.0413 69.8717 72.1225V72.1507C70.5639 72.2037 71.0724 72.7086 71.0724 73.383C71.0724 74.2798 70.3979 74.8412 69.3101 74.8412ZM68.0882 70.5407V71.8647H68.8863C69.4549 71.8647 69.7799 71.614 69.7799 71.1833C69.7799 70.7737 69.4938 70.5407 68.9958 70.5407H68.0882V70.5407ZM68.0882 74.0468H69.0382C69.6527 74.0468 69.9847 73.7855 69.9847 73.2983C69.9847 72.8216 69.6421 72.5674 69.0135 72.5674H68.0882V74.0468ZM72.7464 74.8412H71.6799V69.7462H72.7464V74.8412ZM76.889 73.9585V74.8412H73.594V69.7462H74.6606V73.9585H76.889ZM80.8974 73.9585V74.8412H77.5212V69.7462H80.8974V70.6254H78.5878V71.8541H80.7668V72.6733H78.5878V73.9585H80.8974V73.9585ZM86.5587 74.8412L86.1702 73.6054H84.3796L83.9912 74.8412H82.8964L84.6657 69.7462H85.9194L87.6923 74.8412H86.5587V74.8412ZM85.2625 70.7207L84.6092 72.8075H85.9406L85.2873 70.7207H85.2625ZM88.2115 69.7462H90.3375C91.3829 69.7462 92.1033 70.4418 92.1033 71.4905C92.1033 72.5356 91.3582 73.2347 90.2845 73.2347H89.278V74.8412H88.2115V69.7462V69.7462ZM89.278 70.5901V72.4014H90.0514C90.6624 72.4014 91.0191 72.0766 91.0191 71.494C91.0191 70.9149 90.666 70.5901 90.055 70.5901H89.278ZM92.732 69.7462H94.858C95.9034 69.7462 96.6238 70.4418 96.6238 71.4905C96.6238 72.5356 95.8786 73.2347 94.805 73.2347H93.7985V74.8412H92.732V69.7462V69.7462ZM93.7985 70.5901V72.4014H94.5719C95.1829 72.4014 95.5396 72.0766 95.5396 71.494C95.5396 70.9149 95.1864 70.5901 94.5755 70.5901H93.7985ZM23.3477 78.2535H25.3112C26.8404 78.2535 27.741 79.1645 27.741 80.7816C27.741 82.3987 26.8404 83.3485 25.3112 83.3485H23.3477V78.2535ZM24.4142 79.1327V82.4658H25.1841C26.1376 82.4658 26.6533 81.8867 26.6533 80.7851C26.6533 79.7188 26.1235 79.1327 25.1841 79.1327H24.4142V79.1327ZM31.8024 82.4658V83.3485H28.4262V78.2535H31.8024V79.1327H29.4927V80.3614H31.6717V81.1806H29.4927V82.4658H31.8024V82.4658ZM35.2457 83.3485H33.9602L32.2474 78.2535H33.4411L34.6065 82.2504H34.6312L35.7967 78.2535H36.9586L35.2457 83.3485ZM40.854 82.4658V83.3485H37.4777V78.2535H40.854V79.1327H38.5443V80.3614H40.7233V81.1806H38.5443V82.4658H40.854V82.4658ZM44.9189 82.4658V83.3485H41.6239V78.2535H42.6904V82.4658H44.9189ZM47.8502 78.1652C49.3582 78.1652 50.3082 79.1786 50.3082 80.8028C50.3082 82.4234 49.3582 83.4368 47.8502 83.4368C46.3386 83.4368 45.3921 82.4234 45.3921 80.8028C45.3921 79.1786 46.3386 78.1652 47.8502 78.1652ZM47.8502 79.055C47.0167 79.055 46.4799 79.7329 46.4799 80.8028C46.4799 81.8691 47.0132 82.5435 47.8502 82.5435C48.6836 82.5435 49.2169 81.8691 49.2169 80.8028C49.2169 79.7329 48.6836 79.055 47.8502 79.055ZM50.9933 78.2535H53.1194C54.1647 78.2535 54.8852 78.9491 54.8852 79.9977C54.8852 81.0429 54.14 81.742 53.0664 81.742H52.0599V83.3485H50.9933V78.2535V78.2535ZM52.0599 79.0974V80.9087H52.8333C53.4443 80.9087 53.801 80.5839 53.801 80.0013C53.801 79.4222 53.4478 79.0974 52.8368 79.0974H52.0599ZM60.9101 78.2535V83.3485H59.9601V79.9095H59.9319L58.5475 83.2991H57.8765L56.4921 79.9095H56.4638V83.3485H55.5138V78.2535H56.7499L58.1978 81.8656H58.2261L59.6741 78.2535H60.9101ZM65.134 82.4658V83.3485H61.7577V78.2535H65.134V79.1327H62.8243V80.3614H65.0033V81.1806H62.8243V82.4658H65.134V82.4658ZM66.9245 83.3485H65.9039V78.2535H66.7939L69.1742 81.5725H69.2024V78.2535H70.2231V83.3485H69.3402L66.9563 80.0119H66.9245V83.3485V83.3485ZM73.3733 83.3485H72.3067V79.1327H70.8164V78.2535H74.8672V79.1327H73.3733V83.3485ZM79.2641 83.4368C77.7808 83.4368 76.852 82.4446 76.852 80.7992C76.852 79.1574 77.7878 78.1652 79.2641 78.1652C80.4895 78.1652 81.4219 78.942 81.5031 80.0825H80.4648C80.3659 79.4575 79.8856 79.0479 79.2641 79.0479C78.4588 79.0479 77.9397 79.7223 77.9397 80.7957C77.9397 81.8832 78.4518 82.5541 79.2676 82.5541C79.8998 82.5541 80.3553 82.1833 80.4684 81.5796H81.5067C81.3866 82.7165 80.5143 83.4368 79.2641 83.4368V83.4368ZM84.4626 78.1652C85.9706 78.1652 86.9207 79.1786 86.9207 80.8028C86.9207 82.4234 85.9706 83.4368 84.4626 83.4368C82.9511 83.4368 82.0046 82.4234 82.0046 80.8028C82.0046 79.1786 82.9511 78.1652 84.4626 78.1652ZM84.4626 79.055C83.6292 79.055 83.0924 79.7329 83.0924 80.8028C83.0924 81.8691 83.6256 82.5435 84.4626 82.5435C85.2961 82.5435 85.8294 81.8691 85.8294 80.8028C85.8294 79.7329 85.2961 79.055 84.4626 79.055ZM93.0021 78.2535V83.3485H92.0521V79.9095H92.0239L90.6395 83.2991H89.9685L88.5841 79.9095H88.5558V83.3485H87.6058V78.2535H88.8419L90.2898 81.8656H90.3181L91.7661 78.2535H93.0021ZM93.8497 78.2535H95.9758C97.0211 78.2535 97.7416 78.9491 97.7416 79.9977C97.7416 81.0429 96.9964 81.742 95.9228 81.742H94.9163V83.3485H93.8497V78.2535ZM94.9163 79.0974V80.9087H95.6897C96.3007 80.9087 96.6574 80.5839 96.6574 80.0013C96.6574 79.4222 96.3042 79.0974 95.6932 79.0974H94.9163ZM101.708 83.3485L101.319 82.1127H99.5286L99.1401 83.3485H98.0453L99.8147 78.2535H101.068L102.841 83.3485H101.708V83.3485ZM100.412 79.228L99.7582 81.3147H101.09L100.436 79.228H100.412ZM104.381 83.3485H103.36V78.2535H104.25L106.631 81.5725H106.659V78.2535H107.68V83.3485H106.797L104.413 80.0119H104.381V83.3485V83.3485ZM111.042 83.3485H109.975V81.4454L108.202 78.2535H109.364L110.505 80.4285H110.53L111.674 78.2535H112.818L111.042 81.4454V83.3485Z" fill="white"/>
</svg>
