<svg width="92" height="122" viewBox="0 0 92 122" fill="none" xmlns="http://www.w3.org/2000/svg">
<g clip-path="url(#clip0_101_9956)">
<path d="M90.7957 1.21899H1.2041V103.138V103.245L45.9999 120.693L90.7957 103.245V103.138V1.21899Z" fill="white"/>
<path d="M46 122L0 104.084V0H92V104.084L46 122ZM2.40838 102.406L46 119.384L89.5916 102.406V2.43824H2.40838V102.406Z" fill="#8D0200"/>
<path d="M7.20508 92.7898V98.5489V98.6416L45.9799 113.744L84.7548 98.6416V98.5489V92.7898L45.9799 107.892L7.20508 92.7898Z" fill="url(#paint0_radial_101_9956)"/>
<path d="M7.20508 84.6218V90.381V90.4736L45.9799 105.576L84.7548 90.4736V90.381V84.6218L45.9799 99.7243L7.20508 84.6218Z" fill="url(#paint1_radial_101_9956)"/>
<path d="M7.20508 76.4536V82.2127V82.3054L45.9799 97.4079L84.7548 82.3054V82.2127V76.4536L45.9799 91.5561L7.20508 76.4536Z" fill="url(#paint2_radial_101_9956)"/>
<path d="M43.9529 11.4842C43.9529 11.4842 39.8851 12.0206 39.8394 12.162C39.7936 12.3034 42.7752 15.1561 42.7752 15.1561C42.7752 15.1561 42.0214 19.2402 42.1394 19.3255C42.2574 19.4109 45.8603 17.4262 45.8603 17.4262C45.8603 17.4262 49.4729 19.4133 49.5789 19.3255C49.6848 19.2378 48.9455 15.1561 48.9455 15.1561C48.9455 15.1561 51.927 12.3034 51.8813 12.162C51.8355 12.0206 47.7678 11.4842 47.7678 11.4842C47.7678 11.4842 46.0048 7.73413 45.8603 7.73413C45.7158 7.73413 43.9529 11.4842 43.9529 11.4842Z" fill="url(#paint3_radial_101_9956)"/>
<path d="M39.4222 34.6963V37.0175H36.1854V46.7705H33.2953V37.0175H30.085V34.6963H39.4222Z" fill="black"/>
<path d="M49.3515 35.3008C50.2582 35.8185 51.0077 36.5773 51.5191 37.4952C52.0443 38.4767 52.3195 39.5754 52.3195 40.6918C52.3195 41.8081 52.0443 42.9068 51.5191 43.8883C51.0069 44.8093 50.2578 45.5727 49.3515 46.0974C48.4199 46.6186 47.3729 46.8921 46.3085 46.8921C45.2441 46.8921 44.1971 46.6186 43.2656 46.0974C42.3578 45.5746 41.6084 44.8107 41.098 43.8883C40.5717 42.9102 40.2959 41.8141 40.2959 40.7003C40.2959 39.5865 40.5717 38.4904 41.098 37.5123C41.611 36.5957 42.3602 35.8373 43.2656 35.3179C44.2006 34.798 45.2502 34.5254 46.317 34.5254C47.3838 34.5254 48.4333 34.798 49.3684 35.3179L49.3515 35.3008ZM44.0531 38.1511C43.496 38.7721 43.2174 39.6173 43.2174 40.6869C43.2174 41.7565 43.496 42.5985 44.0531 43.2129C44.6497 43.814 45.4572 44.1514 46.2989 44.1514C47.1406 44.1514 47.9481 43.814 48.5447 43.2129C49.1067 42.5855 49.3877 41.7435 49.3877 40.6869C49.3877 39.6303 49.1099 38.7883 48.5544 38.1609C47.9542 37.5627 47.1459 37.2275 46.3037 37.2275C45.4616 37.2275 44.6532 37.5627 44.0531 38.1609V38.1511Z" fill="black"/>
<path d="M56.8168 42.5304V46.7632H53.9268V34.6963H58.5966C60.0127 34.6963 61.0917 35.0515 61.8335 35.7618C62.5752 36.4722 62.9461 37.4312 62.9461 38.6389C62.9587 39.34 62.7866 40.0318 62.4476 40.6432C62.1045 41.2433 61.5909 41.725 60.9737 42.0257C60.2319 42.3819 59.4172 42.5548 58.5966 42.5304H56.8168ZM60.0199 38.6292C60.0199 37.571 59.4411 37.0419 58.2835 37.0419H56.8168V40.1823H58.2835C59.4444 40.1888 60.024 39.6744 60.0224 38.6389L60.0199 38.6292Z" fill="black"/>
<path d="M28.6411 52.1785V58.3423H27.16V54.4875L25.8402 58.3423H24.5469L23.2199 54.4802V58.3423H21.7363V52.1785H23.5498L25.2044 56.4722L26.8349 52.1785H28.6411Z" fill="black"/>
<path d="M33.2154 53.6854C33.5898 53.8834 33.9001 54.1864 34.1089 54.5582C34.3224 54.9696 34.4339 55.4273 34.4339 55.892C34.4339 56.3566 34.3224 56.8143 34.1089 57.2257C33.9002 57.5982 33.59 57.9021 33.2154 58.101C32.8174 58.3065 32.3759 58.4103 31.9293 58.4033C31.4804 58.41 31.0366 58.3062 30.636 58.101C30.2602 57.9028 29.9491 57.5988 29.7401 57.2257C29.5266 56.8143 29.415 56.3566 29.415 55.892C29.415 55.4273 29.5266 54.9696 29.7401 54.5582C29.9491 54.1857 30.2603 53.8825 30.636 53.6854C31.0362 53.479 31.4802 53.3752 31.9293 53.383C32.376 53.3749 32.8179 53.4787 33.2154 53.6854V53.6854ZM31.214 54.9923C31.0044 55.242 30.8998 55.565 30.9226 55.892C30.8995 56.2175 31.0042 56.539 31.214 56.7868C31.3059 56.8871 31.4179 56.9665 31.5425 57.0194C31.6671 57.0724 31.8014 57.0979 31.9365 57.094C32.0717 57.0987 32.2063 57.0736 32.331 57.0206C32.4557 56.9675 32.5676 56.8878 32.659 56.7868C32.8653 56.5373 32.968 56.2165 32.9456 55.892C32.9675 55.566 32.8649 55.2439 32.659 54.9923C32.5682 54.8903 32.4565 54.8095 32.3317 54.7556C32.207 54.7017 32.0721 54.676 31.9365 54.6802C31.8002 54.6759 31.6646 54.7016 31.5391 54.7555C31.4135 54.8094 31.301 54.8901 31.2092 54.9923H31.214Z" fill="black"/>
<path d="M39.2895 53.6851C39.6139 53.897 39.8721 54.1981 40.0337 54.5531C40.2162 54.9761 40.3103 55.4326 40.3103 55.8942C40.3103 56.3557 40.2162 56.8122 40.0337 57.2352C39.8729 57.5927 39.6147 57.8963 39.2895 58.1105C38.9682 58.3131 38.5962 58.418 38.2178 58.4129C37.8801 58.4274 37.5456 58.3427 37.2544 58.169C36.9933 58.0064 36.79 57.7639 36.674 57.4766V58.3641H35.1904V51.8467H36.674V54.3288C36.791 54.0421 36.994 53.7999 37.2544 53.6363C37.5455 53.4625 37.8801 53.3778 38.2178 53.3925C38.5954 53.3833 38.9676 53.485 39.2895 53.6851V53.6851ZM36.975 55.0188C36.78 55.266 36.6738 55.5729 36.6738 55.8893C36.6738 56.2056 36.78 56.5126 36.975 56.7597C37.0757 56.8618 37.1953 56.9428 37.3269 56.9981C37.4585 57.0534 37.5996 57.0818 37.7421 57.0818C37.8846 57.0818 38.0257 57.0534 38.1573 56.9981C38.2889 56.9428 38.4085 56.8618 38.5092 56.7597C38.6968 56.5065 38.7982 56.1985 38.7982 55.882C38.7982 55.5654 38.6968 55.2574 38.5092 55.0042C38.3049 54.7998 38.0293 54.6851 37.7421 54.6851C37.4549 54.6851 37.1793 54.7998 36.975 55.0042V55.0188Z" fill="black"/>
<path d="M41.1826 51.4982C41.3657 51.3529 41.5917 51.2739 41.8244 51.2739C42.0571 51.2739 42.2831 51.3529 42.4662 51.4982C42.5449 51.5694 42.6073 51.6571 42.6489 51.7553C42.6905 51.8534 42.7103 51.9596 42.7071 52.0663C42.7086 52.1711 42.6879 52.2749 42.6463 52.3708C42.6048 52.4667 42.5434 52.5525 42.4662 52.6223C42.2831 52.7676 42.0571 52.8466 41.8244 52.8466C41.5917 52.8466 41.3657 52.7676 41.1826 52.6223C41.1055 52.5525 41.0441 52.4667 41.0025 52.3708C40.961 52.2749 40.9402 52.1711 40.9418 52.0663C40.9385 51.9596 40.9584 51.8534 41 51.7553C41.0416 51.6571 41.1039 51.5694 41.1826 51.4982V51.4982ZM42.5626 53.4488V58.3473H41.079V53.444L42.5626 53.4488Z" fill="black"/>
<path d="M45.0671 51.8467V58.3422H43.5859V51.8467H45.0671Z" fill="black"/>
<path d="M50.6441 56.1649H47.2892C47.277 56.4561 47.3762 56.7408 47.5662 56.9597C47.6518 57.0411 47.7525 57.1046 47.8625 57.1464C47.9724 57.1882 48.0894 57.2077 48.2068 57.2036C48.4025 57.2111 48.595 57.1518 48.7535 57.0353C48.8951 56.9301 48.9964 56.7784 49.0401 56.6062H50.608C50.5481 56.9451 50.4058 57.2636 50.1937 57.5327C49.975 57.8077 49.6952 58.0265 49.3773 58.1715C49.0329 58.3346 48.6569 58.4179 48.2767 58.4154C47.8376 58.423 47.4037 58.3191 47.0147 58.113C46.6503 57.9109 46.3511 57.6071 46.1525 57.2377C45.9481 56.8209 45.8418 56.362 45.8418 55.8967C45.8418 55.4314 45.9481 54.9724 46.1525 54.5556C46.3498 54.1863 46.6506 53.8843 47.0171 53.6876C47.4105 53.4903 47.8436 53.3877 48.2827 53.3877C48.7217 53.3877 49.1548 53.4903 49.5483 53.6876C49.904 53.8789 50.1975 54.1702 50.3936 54.5264C50.5973 54.907 50.7001 55.3346 50.6923 55.7674C50.6889 55.9012 50.6728 56.0343 50.6441 56.1649V56.1649ZM48.9317 54.8092C48.7522 54.6462 48.5178 54.559 48.2767 54.5654C48.0287 54.5565 47.7866 54.6437 47.5999 54.8092C47.4076 55.0031 47.2985 55.2659 47.2965 55.5407H49.187C49.2005 55.4072 49.1847 55.2724 49.1405 55.1459C49.0964 55.0194 49.0251 54.9044 48.9317 54.8092V54.8092Z" fill="black"/>
<path d="M56.9897 57.2086H54.6921L54.3116 58.3423H52.751L54.9956 52.1785H56.7031L58.9501 58.3423H57.3702L56.9897 57.2086ZM56.6092 56.0797L55.8554 53.7853L55.0727 56.0797H56.6092Z" fill="black"/>
<path d="M63.6088 53.6852C63.9327 53.8978 64.1906 54.1987 64.353 54.5532C64.5355 54.9762 64.6297 55.4327 64.6297 55.8943C64.6297 56.3558 64.5355 56.8123 64.353 57.2353C64.1915 57.5923 63.9335 57.8958 63.6088 58.1106C63.2875 58.3132 62.9156 58.4181 62.5371 58.413C62.1994 58.4282 61.8646 58.3435 61.5737 58.1691C61.3126 58.0065 61.1093 57.764 60.9933 57.4767V60.6976H59.5098V53.4438H60.9933V54.3289C61.1103 54.0422 61.3134 53.8 61.5737 53.6364C61.8646 53.4621 62.1994 53.3774 62.5371 53.3926C62.9147 53.3834 63.2869 53.4851 63.6088 53.6852V53.6852ZM61.292 55.0189C61.0986 55.2668 60.9934 55.5735 60.9934 55.8894C60.9934 56.2053 61.0986 56.5119 61.292 56.7598C61.3928 56.862 61.5126 56.9431 61.6444 56.9984C61.7762 57.0537 61.9175 57.0821 62.0602 57.0821C62.2029 57.0821 62.3442 57.0537 62.476 56.9984C62.6079 56.9431 62.7276 56.862 62.8285 56.7598C63.0161 56.5066 63.1175 56.1986 63.1175 55.8821C63.1175 55.5655 63.0161 55.2575 62.8285 55.0043C62.6239 54.7997 62.3478 54.685 62.0602 54.685C61.7726 54.685 61.4966 54.7997 61.292 55.0043V55.0189Z" fill="black"/>
<path d="M69.4863 53.6852C69.8109 53.8977 70.0696 54.1985 70.2329 54.5532C70.4138 54.9766 70.5072 55.433 70.5072 55.8943C70.5072 56.3555 70.4138 56.8119 70.2329 57.2353C70.0705 57.5925 69.8117 57.896 69.4863 58.1106C69.1658 58.3131 68.7947 58.4181 68.417 58.413C68.0793 58.4282 67.7445 58.3435 67.4536 58.1691C67.1925 58.0065 66.9892 57.764 66.8732 57.4767V60.6976H65.3896V53.4438H66.8732V54.3289C66.9926 54.042 67.1993 53.8011 67.4633 53.6413C67.7541 53.467 68.0889 53.3822 68.4266 53.3975C68.7998 53.3887 69.1676 53.4885 69.4863 53.6852V53.6852ZM67.1742 55.0189C66.9809 55.2668 66.8757 55.5735 66.8757 55.8894C66.8757 56.2053 66.9809 56.5119 67.1742 56.7598C67.2717 56.8668 67.3908 56.9513 67.5233 57.0077C67.6559 57.064 67.7988 57.091 67.9425 57.0866C68.0852 57.0928 68.2275 57.0677 68.3597 57.013C68.4919 56.9583 68.6109 56.8752 68.7084 56.7696C68.896 56.5164 68.9974 56.2084 68.9974 55.8918C68.9974 55.5753 68.896 55.2673 68.7084 55.0141C68.5042 54.8096 68.2285 54.695 67.9413 54.695C67.6541 54.695 67.3785 54.8096 67.1742 55.0141V55.0189Z" fill="black"/>
<path d="M26.4199 66.5981C26.1638 67.0672 25.7779 67.4502 25.3096 67.7002C24.7828 67.9741 24.1966 68.1099 23.6045 68.0952H21.29V61.8874H23.6045C24.1973 61.872 24.7847 62.0052 25.3144 62.2751C25.7812 62.5187 26.166 62.8972 26.4199 63.3626C26.6731 63.8633 26.8051 64.4178 26.8051 64.9803C26.8051 65.5429 26.6731 66.0974 26.4199 66.5981V66.5981ZM24.8231 66.286C25.1336 65.9227 25.3045 65.4583 25.3045 64.9779C25.3045 64.4975 25.1336 64.0331 24.8231 63.6698C24.4516 63.341 23.967 63.1737 23.4744 63.2041H22.7736V66.7517H23.4744C23.967 66.7821 24.4516 66.6148 24.8231 66.286V66.286Z" fill="black"/>
<path d="M32.1968 65.9178H28.842C28.8297 66.209 28.9289 66.4937 29.1189 66.7127C29.2046 66.7939 29.3053 66.8573 29.4153 66.8991C29.5252 66.941 29.6422 66.9605 29.7596 66.9565C29.9553 66.9644 30.1479 66.9051 30.3063 66.7883C30.4478 66.683 30.5491 66.5314 30.5929 66.3591H32.1631C32.1013 66.6979 31.9583 67.0161 31.7465 67.2857C31.5277 67.5606 31.248 67.7795 30.93 67.9245C30.5856 68.0876 30.2096 68.1709 29.8294 68.1683C29.3904 68.176 28.9565 68.072 28.5674 67.866C28.2031 67.6639 27.9038 67.36 27.7052 66.9906C27.5009 66.5739 27.3945 66.1149 27.3945 65.6496C27.3945 65.1843 27.5009 64.7253 27.7052 64.3086C27.9032 63.9397 28.2039 63.6379 28.5698 63.4405C28.9633 63.2433 29.3964 63.1406 29.8354 63.1406C30.2745 63.1406 30.7076 63.2433 31.101 63.4405C31.4567 63.6318 31.7503 63.9231 31.9464 64.2793C32.1511 64.6595 32.2541 65.0874 32.245 65.5204C32.2417 65.6541 32.2256 65.7872 32.1968 65.9178V65.9178ZM30.4845 64.5621C30.3049 64.3991 30.0705 64.3119 29.8294 64.3183C29.5814 64.3095 29.3394 64.3967 29.1526 64.5621C28.9603 64.756 28.8513 65.0189 28.8492 65.2936H30.7398C30.7538 65.1601 30.7382 65.0252 30.694 64.8986C30.6498 64.772 30.5782 64.6571 30.4845 64.5621V64.5621Z" fill="black"/>
<path d="M35.2499 66.6276L36.2999 63.197H37.8774L36.1602 68.0955H34.3226L32.6055 63.197H34.1805L35.2499 66.6276Z" fill="black"/>
<path d="M43.0448 65.9181H39.6875C39.6769 66.2094 39.7769 66.4938 39.9669 66.7129C40.0525 66.7943 40.1532 66.8577 40.2632 66.8996C40.3731 66.9414 40.4901 66.9609 40.6075 66.9567C40.8032 66.9642 40.9958 66.905 41.1542 66.7885C41.2951 66.6826 41.3962 66.5312 41.4408 66.3594H43.0087C42.9479 66.6985 42.8047 67.0169 42.592 67.2859C42.3747 67.5613 42.0956 67.7803 41.778 67.9247C41.4335 68.0875 41.0575 68.1708 40.6774 68.1686C40.2383 68.1764 39.8044 68.0725 39.4154 67.8662C39.0502 67.6652 38.7507 67.3611 38.5532 66.9909C38.3365 66.5813 38.2286 66.1217 38.2401 65.6572C38.229 65.1917 38.3351 64.7311 38.5484 64.3186C38.7455 63.9499 39.0453 63.6481 39.4106 63.4506C39.804 63.2533 40.2371 63.1506 40.6762 63.1506C41.1152 63.1506 41.5483 63.2533 41.9418 63.4506C42.2985 63.6405 42.5924 63.9321 42.7871 64.2893C42.9926 64.6694 43.0964 65.0972 43.0881 65.5304C43.0858 65.6607 43.0713 65.7905 43.0448 65.9181V65.9181ZM41.3324 64.5624C41.1526 64.3998 40.9184 64.3126 40.6774 64.3186C40.4292 64.3085 40.1867 64.3958 40.0006 64.5624C39.8083 64.7563 39.6992 65.0191 39.6972 65.2939H41.5877C41.6013 65.1604 41.5854 65.0256 41.5412 64.8991C41.4971 64.7726 41.4258 64.6576 41.3324 64.5624V64.5624Z" fill="black"/>
<path d="M45.3405 61.5999V68.0953H43.8594V61.5999H45.3405Z" fill="black"/>
<path d="M49.9146 63.4383C50.2896 63.6356 50.5999 63.9388 50.8081 64.3112C51.0216 64.7225 51.1331 65.1802 51.1331 65.6449C51.1331 66.1096 51.0216 66.5673 50.8081 66.9786C50.6001 67.3517 50.2897 67.6557 49.9146 67.854C49.5167 68.0594 49.0751 68.1632 48.6285 68.1563C48.1796 68.1626 47.7359 68.0589 47.3352 67.854C46.9594 67.6558 46.6483 67.3518 46.4393 66.9786C46.2258 66.5673 46.1143 66.1096 46.1143 65.6449C46.1143 65.1802 46.2258 64.7225 46.4393 64.3112C46.6483 63.9387 46.9595 63.6355 47.3352 63.4383C47.7355 63.2322 48.1795 63.1284 48.6285 63.1359C49.0753 63.1278 49.5171 63.2317 49.9146 63.4383V63.4383ZM47.9084 64.7452C47.6988 64.995 47.5942 65.318 47.617 65.6449C47.5939 65.9704 47.6986 66.292 47.9084 66.5397C48.0003 66.6401 48.1123 66.7194 48.2369 66.7724C48.3615 66.8254 48.4958 66.8508 48.6309 66.847C48.7661 66.8516 48.9007 66.8265 49.0254 66.7735C49.1501 66.7205 49.262 66.6407 49.3534 66.5397C49.5597 66.2902 49.6624 65.9695 49.64 65.6449C49.6619 65.3189 49.5593 64.9968 49.3534 64.7452C49.2626 64.6432 49.1509 64.5624 49.0261 64.5085C48.9014 64.4546 48.7665 64.4289 48.6309 64.4331C48.4954 64.4296 48.3607 64.4556 48.2361 64.5094C48.1114 64.5633 47.9996 64.6437 47.9084 64.7452V64.7452Z" fill="black"/>
<path d="M55.9933 63.4382C56.3178 63.6506 56.5766 63.9515 56.7399 64.3062C56.9208 64.7295 57.0141 65.1859 57.0141 65.6472C57.0141 66.1085 56.9208 66.5649 56.7399 66.9882C56.5775 67.3455 56.3187 67.6489 55.9933 67.8636C55.672 68.0661 55.3 68.1711 54.9215 68.1659C54.5838 68.1813 54.249 68.0966 53.9582 67.9221C53.6962 67.7598 53.492 67.5173 53.3754 67.2296V70.4505H51.9062V63.1968H53.3874V64.0819C53.5053 63.795 53.7092 63.5528 53.9702 63.3894C54.2611 63.2149 54.5959 63.1302 54.9336 63.1456C55.3071 63.1388 55.6748 63.2403 55.9933 63.4382ZM53.6885 64.7719C53.4951 65.0198 53.3899 65.3264 53.3899 65.6423C53.3899 65.9582 53.4951 66.2649 53.6885 66.5128C53.7891 66.6149 53.9087 66.6959 54.0403 66.7512C54.1719 66.8064 54.313 66.8349 54.4555 66.8349C54.598 66.8349 54.7391 66.8064 54.8707 66.7512C55.0024 66.6959 55.1219 66.6149 55.2226 66.5128C55.4102 66.2596 55.5116 65.9516 55.5116 65.635C55.5116 65.3185 55.4102 65.0105 55.2226 64.7573C55.0183 64.5528 54.7427 64.4382 54.4555 64.4382C54.1683 64.4382 53.8927 64.5528 53.6885 64.7573V64.7719Z" fill="black"/>
<path d="M62.3338 65.9178H58.9862C58.9749 66.2089 59.074 66.4932 59.2631 66.7127C59.4373 66.8767 59.6684 66.9644 59.9062 66.9565C60.1019 66.964 60.2944 66.9048 60.4529 66.7883C60.5938 66.6829 60.6943 66.5312 60.7371 66.3592H62.3073C62.2439 66.7031 62.0956 67.0251 61.8762 67.2954C61.6583 67.5703 61.3794 67.7892 61.0622 67.9343C60.7177 68.097 60.3417 68.1803 59.9615 68.1781C59.5225 68.1859 59.0886 68.082 58.6996 67.8757C58.3339 67.6755 58.0342 67.3712 57.8374 67.0004C57.6206 66.5908 57.5128 66.1312 57.5243 65.6667C57.5132 65.2012 57.6192 64.7406 57.8326 64.3281C58.029 63.9589 58.329 63.6569 58.6947 63.4601C59.0882 63.2628 59.5213 63.1602 59.9603 63.1602C60.3994 63.1602 60.8325 63.2628 61.2259 63.4601C61.5817 63.6514 61.8752 63.9426 62.0713 64.2988C62.2761 64.6791 62.379 65.1069 62.3699 65.5399C62.3694 65.6667 62.3573 65.7932 62.3338 65.9178V65.9178ZM60.6214 64.5622C60.4429 64.3991 60.2092 64.3118 59.9688 64.3183C59.7206 64.3082 59.4781 64.3956 59.292 64.5622C59.1959 64.6575 59.1196 64.7713 59.0675 64.8969C59.0154 65.0225 58.9885 65.1574 58.9886 65.2936H60.8791C60.8929 65.16 60.8769 65.0249 60.8323 64.8983C60.7877 64.7717 60.7156 64.6569 60.6214 64.5622V64.5622Z" fill="black"/>
<path d="M65.3455 63.4065C65.6364 63.2303 65.9699 63.1392 66.3089 63.1432V64.75H65.8826C65.5594 64.7274 65.2378 64.8131 64.9674 64.9938C64.8507 65.1017 64.7605 65.2357 64.7041 65.3852C64.6476 65.5346 64.6265 65.6953 64.6423 65.8545V68.0855H63.1611V63.1968H64.6423V64.1258C64.8162 63.8323 65.0574 63.5856 65.3455 63.4065V63.4065Z" fill="black"/>
<path d="M70.1505 63.599C70.5157 63.9098 70.7598 64.3419 70.8393 64.8182H69.4521C69.4189 64.6344 69.3224 64.4686 69.1799 64.35C69.0266 64.2321 68.8376 64.1718 68.6453 64.1793C68.5097 64.1699 68.3751 64.2087 68.2647 64.2891C68.2194 64.3289 68.1842 64.3791 68.162 64.4355C68.1398 64.4919 68.1313 64.5529 68.1371 64.6133C68.1373 64.6888 68.1606 64.7623 68.2037 64.8239C68.2468 64.8854 68.3077 64.932 68.3779 64.9571C68.6192 65.0587 68.8702 65.1347 69.1269 65.1839C69.4357 65.2536 69.7398 65.3432 70.0373 65.4521C70.277 65.544 70.4894 65.6968 70.6539 65.8959C70.8372 66.1291 70.9297 66.4223 70.914 66.72C70.9192 66.9868 70.8399 67.2483 70.6876 67.4661C70.5234 67.6954 70.2977 67.8722 70.0373 67.9757C69.7186 68.1065 69.3768 68.1695 69.033 68.161C68.4766 68.1896 67.9259 68.0356 67.4627 67.7221C67.2651 67.5728 67.0992 67.3846 66.975 67.1689C66.8509 66.9531 66.771 66.7142 66.7402 66.4664H68.1708C68.177 66.5624 68.2039 66.6558 68.2496 66.7401C68.2954 66.8244 68.359 66.8974 68.4357 66.9541C68.6116 67.0719 68.82 67.13 69.0306 67.1199C69.1674 67.1297 69.3029 67.088 69.4111 67.0028C69.4539 66.9635 69.4877 66.9152 69.5102 66.8613C69.5326 66.8074 69.5432 66.7492 69.5412 66.6907C69.5439 66.6122 69.5221 66.5348 69.4789 66.4696C69.4356 66.4043 69.3732 66.3546 69.3003 66.3274C69.0497 66.2226 68.7901 66.141 68.5248 66.0836C68.2245 66.0252 67.929 65.9437 67.641 65.8398C67.4088 65.7521 67.2024 65.6061 67.0413 65.4155C66.8666 65.1861 66.7809 64.8999 66.8004 64.6109C66.7949 64.4066 66.8366 64.2038 66.9224 64.0188C67.0081 63.8338 67.1354 63.6717 67.2942 63.5454C67.6982 63.25 68.1912 63.1061 68.6886 63.1382C69.2144 63.1121 69.7323 63.2754 70.1505 63.599V63.599Z" fill="black"/>
<path d="M40.2152 76.8925C40.2152 76.5195 40.0538 76.3317 39.7335 76.3317C39.6568 76.3264 39.5801 76.3413 39.5108 76.3751C39.4416 76.4089 39.3822 76.4603 39.3385 76.5243C39.2415 76.706 39.1941 76.9105 39.2013 77.1168H38.0741C38.069 76.8715 38.1131 76.6277 38.2038 76.4001C38.2945 76.1725 38.4298 75.966 38.6016 75.7929C38.9393 75.492 39.3779 75.3333 39.8274 75.3491C40.0389 75.3328 40.2514 75.3596 40.4524 75.4279C40.6534 75.4961 40.8389 75.6045 40.9979 75.7465C41.1298 75.8816 41.2329 76.0425 41.3008 76.2195C41.3688 76.3965 41.4001 76.5857 41.3929 76.7755C41.3783 77.2832 41.1902 77.7701 40.8606 78.1531C40.5022 78.6026 40.0705 78.9869 39.5842 79.2893H41.4675V80.2305H38.0693V79.3576C39.4999 78.3238 40.2152 77.5021 40.2152 76.8925Z" fill="black"/>
<path d="M41.9398 77.8215C41.9074 77.1938 42.0654 76.571 42.3925 76.0367C42.6944 75.5946 43.1761 75.3744 43.8376 75.376C44.4991 75.3776 44.9807 75.5979 45.2826 76.0367C45.5811 76.5848 45.7377 77.2005 45.7377 77.8264C45.7377 78.4523 45.5811 79.068 45.2826 79.6161C44.9791 80.0582 44.4975 80.2793 43.8376 80.2793C43.1777 80.2793 42.696 80.0582 42.3925 79.6161C42.065 79.0784 41.9071 78.4524 41.9398 77.8215V77.8215ZM44.589 77.8215C44.6046 77.483 44.5531 77.1447 44.4373 76.8267C44.3856 76.7135 44.3003 76.6194 44.1931 76.5578C44.086 76.4961 43.9625 76.4699 43.84 76.4829C43.7156 76.4701 43.5903 76.4967 43.4815 76.5592C43.3728 76.6217 43.2859 76.7169 43.2331 76.8316C43.1156 77.1475 43.0631 77.4844 43.0789 77.8215C43.0632 78.1619 43.1156 78.5019 43.2331 78.8212C43.2853 78.9366 43.3719 79.0326 43.4808 79.0956C43.5896 79.1585 43.7153 79.1854 43.84 79.1723C43.9634 79.1851 44.0876 79.1581 44.1949 79.095C44.3022 79.0319 44.3871 78.9361 44.4373 78.8212C44.5509 78.5011 44.6008 78.1613 44.5842 77.8215H44.589Z" fill="black"/>
<path d="M48.3738 76.8925C48.3738 76.5195 48.2124 76.3317 47.8921 76.3317C47.8154 76.3264 47.7387 76.3413 47.6695 76.3751C47.6002 76.4089 47.5408 76.4603 47.4971 76.5243C47.4001 76.706 47.3528 76.9105 47.3599 77.1168H46.2327C46.2276 76.8715 46.2717 76.6277 46.3624 76.4001C46.4531 76.1725 46.5884 75.966 46.7602 75.7929C47.0979 75.492 47.5365 75.3333 47.9861 75.3491C48.1975 75.3328 48.41 75.3596 48.611 75.4279C48.8121 75.4961 48.9975 75.6045 49.1565 75.7465C49.2884 75.8816 49.3915 76.0425 49.4595 76.2195C49.5274 76.3965 49.5587 76.5857 49.5515 76.7755C49.5362 77.2835 49.3473 77.7704 49.0168 78.1531C48.6598 78.6031 48.2288 78.9875 47.7428 79.2893H49.6262V80.2305H46.2207V79.3576C47.6561 78.3238 48.3738 77.5021 48.3738 76.8925Z" fill="black"/>
<path d="M50.0989 77.8215C50.0665 77.1938 50.2245 76.571 50.5517 76.0367C50.8536 75.5946 51.3352 75.3744 51.9967 75.376C52.6582 75.3776 53.1399 75.5979 53.4418 76.0367C53.7403 76.5848 53.8969 77.2005 53.8969 77.8264C53.8969 78.4523 53.7403 79.068 53.4418 79.6161C53.1383 80.0582 52.6566 80.2793 51.9967 80.2793C51.3369 80.2793 50.8552 80.0582 50.5517 79.6161C50.2242 79.0784 50.0663 78.4524 50.0989 77.8215V77.8215ZM52.7482 77.8215C52.7638 77.483 52.7122 77.1447 52.5964 76.8267C52.5451 76.7132 52.4598 76.619 52.3526 76.5573C52.2454 76.4956 52.1218 76.4696 51.9992 76.4829C51.8748 76.4701 51.7495 76.4967 51.6407 76.5592C51.532 76.6217 51.4451 76.7169 51.3922 76.8316C51.2747 77.1475 51.2223 77.4844 51.2381 77.8215C51.2224 78.1619 51.2748 78.5019 51.3922 78.8212C51.4444 78.9366 51.5311 79.0326 51.6399 79.0956C51.7488 79.1585 51.8744 79.1854 51.9992 79.1723C52.1226 79.1855 52.247 79.1586 52.3544 79.0955C52.4618 79.0324 52.5465 78.9363 52.5964 78.8212C52.7101 78.5011 52.76 78.1613 52.7434 77.8215H52.7482Z" fill="black"/>
<path d="M30.0055 23.8508V24.3823H29.6852C29.4624 24.3979 29.242 24.3273 29.0686 24.1848C28.9889 24.0966 28.9283 23.9924 28.891 23.879C28.8536 23.7656 28.8403 23.6455 28.8519 23.5265V22.4731H28.5195V21.944H28.8519V21.3418H29.4636V21.944H30.0007V22.4658H29.4636V23.5289C29.4548 23.6163 29.4799 23.7037 29.5335 23.7727C29.5667 23.8006 29.6052 23.8212 29.6466 23.8333C29.6881 23.8455 29.7315 23.8489 29.7743 23.8434L30.0055 23.8508Z" fill="url(#paint4_radial_101_9956)"/>
<path d="M32.6829 23.2854H30.9224C30.9181 23.3742 30.9313 23.463 30.961 23.5467C30.9908 23.6304 31.0366 23.7073 31.0958 23.773C31.2037 23.8759 31.3475 23.9311 31.4956 23.9267C31.621 23.9316 31.7445 23.8948 31.8472 23.8218C31.9401 23.7526 32.0045 23.6509 32.0278 23.5365H32.6733C32.6437 23.703 32.5742 23.8595 32.471 23.9925C32.3638 24.1291 32.2259 24.2378 32.0688 24.3095C31.8977 24.3871 31.712 24.4262 31.5245 24.4241C31.307 24.4279 31.0922 24.375 30.9007 24.2704C30.7203 24.1723 30.5728 24.0221 30.4768 23.8389C30.3771 23.6324 30.3252 23.4055 30.3252 23.1757C30.3252 22.9458 30.3771 22.719 30.4768 22.5125C30.572 22.3281 30.7197 22.1769 30.9007 22.0785C31.0934 21.9777 31.3076 21.9266 31.5245 21.9297C31.7407 21.9251 31.9545 21.9763 32.1458 22.0785C32.3192 22.1732 32.4621 22.3162 32.5577 22.4905C32.6916 22.7355 32.736 23.0204 32.6829 23.2951V23.2854ZM31.9339 22.5539C31.8221 22.4512 31.6754 22.3961 31.5245 22.4003C31.3714 22.3962 31.2225 22.4511 31.1078 22.5539C30.9894 22.6735 30.9227 22.8357 30.9224 23.005H32.088C32.0968 22.9241 32.0875 22.8422 32.0608 22.7654C32.0342 22.6886 31.9908 22.6188 31.9339 22.5612V22.5539Z" fill="url(#paint5_radial_101_9956)"/>
<path d="M34.99 22.1881C35.2003 22.3616 35.3387 22.6087 35.3778 22.8805H34.7323C34.7127 22.7599 34.6491 22.6511 34.5541 22.5757C34.4543 22.4981 34.3307 22.4584 34.2049 22.4636C34.1279 22.4618 34.0515 22.4773 33.9812 22.5089C33.9108 22.5405 33.8482 22.5875 33.7979 22.6464C33.6928 22.8037 33.6366 22.9893 33.6366 23.1792C33.6366 23.3691 33.6928 23.5547 33.7979 23.712C33.8482 23.7709 33.9108 23.8179 33.9812 23.8495C34.0515 23.8811 34.1279 23.8966 34.2049 23.8948C34.3305 23.8988 34.4537 23.8592 34.5541 23.7827C34.6481 23.7063 34.7114 23.598 34.7323 23.4779H35.385C35.3459 23.7497 35.2076 23.9968 34.9972 24.1703C34.7758 24.341 34.5021 24.4273 34.2242 24.4142C34.0066 24.4184 33.7917 24.3654 33.6004 24.2606C33.4193 24.1626 33.2709 24.0124 33.1741 23.829C33.0743 23.6225 33.0225 23.3957 33.0225 23.1658C33.0225 22.9359 33.0743 22.7091 33.1741 22.5026C33.2702 22.318 33.4186 22.1669 33.6004 22.0686C33.7929 21.9675 34.0073 21.9164 34.2242 21.9198C34.5026 21.9153 34.7738 22.0103 34.99 22.1881Z" fill="url(#paint6_radial_101_9956)"/>
<path d="M37.9064 22.1881C38.0798 22.4069 38.1658 22.6836 38.1473 22.9634V24.3825H37.5524V23.039C37.5631 22.8758 37.5104 22.7148 37.4055 22.5904C37.3538 22.5359 37.2911 22.4934 37.2217 22.4656C37.1523 22.4378 37.0778 22.4255 37.0033 22.4295C36.9258 22.4258 36.8484 22.4391 36.7765 22.4686C36.7046 22.498 36.6398 22.5429 36.5866 22.6002C36.4756 22.7369 36.4197 22.9111 36.4301 23.0878V24.3825H35.8184V21.1348H36.4301V22.4319C36.4903 22.2717 36.6013 22.1363 36.7456 22.0467C36.8967 21.9523 37.0714 21.904 37.2489 21.9077C37.3721 21.9034 37.4946 21.9263 37.6081 21.9747C37.7217 22.0231 37.8234 22.0959 37.9064 22.1881V22.1881Z" fill="url(#paint7_radial_101_9956)"/>
<path d="M39.6565 22.0491C39.8026 21.9623 39.9688 21.9161 40.1382 21.915V22.5782H39.96C39.512 22.5782 39.288 22.7904 39.288 23.2097V24.3825H38.6787V21.9443H39.288V22.41C39.3782 22.2597 39.5051 22.1354 39.6565 22.0491V22.0491Z" fill="url(#paint8_radial_101_9956)"/>
<path d="M42.7249 23.2851H40.9644C40.9601 23.3739 40.9733 23.4627 41.003 23.5464C41.0328 23.6301 41.0786 23.707 41.1378 23.7727C41.2459 23.8751 41.3895 23.9303 41.5376 23.9263C41.6637 23.9317 41.7881 23.8948 41.8916 23.8215C41.9847 23.7528 42.0484 23.6508 42.0698 23.5362H42.7177C42.6862 23.7025 42.616 23.8588 42.513 23.9922C42.4066 24.1287 42.2695 24.2374 42.1132 24.3091C41.942 24.3865 41.7563 24.4256 41.5689 24.4237C41.3506 24.4277 41.135 24.3748 40.9427 24.2701C40.7628 24.1713 40.6154 24.0213 40.5188 23.8386C40.4191 23.6321 40.3672 23.4052 40.3672 23.1754C40.3672 22.9455 40.4191 22.7186 40.5188 22.5122C40.6146 22.3282 40.7621 22.1772 40.9427 22.0781C41.1362 21.9773 41.3513 21.9263 41.5689 21.9294C41.785 21.9254 41.9987 21.9766 42.1902 22.0781C42.3649 22.1691 42.5103 22.3087 42.6093 22.4805C42.7079 22.6626 42.7577 22.8677 42.7538 23.0754C42.7505 23.146 42.7408 23.2162 42.7249 23.2851V23.2851ZM41.9783 22.5536C41.8665 22.4508 41.7198 22.3958 41.5689 22.4C41.4157 22.3954 41.2666 22.4504 41.1522 22.5536C41.0927 22.6123 41.0455 22.6824 41.0132 22.7599C40.9809 22.8374 40.9643 22.9206 40.9644 23.0047H42.1276C42.1365 22.9242 42.1277 22.8426 42.1019 22.7659C42.0761 22.6892 42.0339 22.6192 41.9783 22.5609V22.5536Z" fill="url(#paint9_radial_101_9956)"/>
<path d="M44.2263 23.763L44.8332 21.9514H45.4835L44.5948 24.3897H43.8482L42.9619 21.9514H43.6146L44.2263 23.763Z" fill="url(#paint10_radial_101_9956)"/>
<path d="M45.8557 21.0103C45.9312 20.9447 46.0285 20.9106 46.1279 20.9152C46.228 20.9105 46.3261 20.9445 46.4024 21.0103C46.436 21.0412 46.4629 21.0788 46.4813 21.1208C46.4996 21.1628 46.5091 21.2082 46.5091 21.2541C46.5091 21.3001 46.4996 21.3455 46.4813 21.3875C46.4629 21.4295 46.436 21.4671 46.4024 21.498C46.3258 21.5629 46.2277 21.596 46.1279 21.5906C46.0288 21.5961 45.9314 21.563 45.8557 21.498C45.8221 21.4671 45.7953 21.4295 45.7769 21.3875C45.7585 21.3455 45.749 21.3001 45.749 21.2541C45.749 21.2082 45.7585 21.1628 45.7769 21.1208C45.7953 21.0788 45.8221 21.0412 45.8557 21.0103V21.0103ZM46.4313 21.9515V24.3897H45.8196V21.9442L46.4313 21.9515Z" fill="url(#paint11_radial_101_9956)"/>
<path d="M49.2253 23.2851H47.4648C47.4595 23.374 47.4721 23.4631 47.5019 23.547C47.5318 23.6308 47.5781 23.7076 47.6382 23.7727C47.6912 23.8236 47.7536 23.8633 47.8218 23.8897C47.89 23.916 47.9627 23.9285 48.0356 23.9263C48.1618 23.9317 48.2862 23.8948 48.3896 23.8215C48.4826 23.7522 48.5469 23.6506 48.5703 23.5362H49.2157C49.1863 23.7032 49.1159 23.86 49.011 23.9922C48.9052 24.1292 48.768 24.238 48.6112 24.3091C48.4401 24.3868 48.2544 24.4259 48.0669 24.4237C47.8494 24.4279 47.6345 24.375 47.4432 24.2701C47.262 24.1721 47.1137 24.0219 47.0169 23.8386C46.9171 23.6321 46.8652 23.4052 46.8652 23.1754C46.8652 22.9455 46.9171 22.7186 47.0169 22.5122C47.1129 22.3276 47.2614 22.1764 47.4432 22.0781C47.6357 21.9771 47.85 21.926 48.0669 21.9294C48.2831 21.9254 48.4968 21.9766 48.6883 22.0781C48.8648 22.1683 49.0119 22.308 49.1122 22.4805C49.2116 22.6624 49.2623 22.8675 49.2591 23.0754C49.2542 23.1462 49.2429 23.2164 49.2253 23.2851V23.2851ZM48.4763 22.5536C48.3646 22.4508 48.2179 22.3958 48.0669 22.4C47.9138 22.3959 47.7649 22.4508 47.6503 22.5536C47.5912 22.6125 47.5444 22.6827 47.5125 22.7602C47.4807 22.8376 47.4645 22.9208 47.4648 23.0047H48.6305C48.6392 22.9238 48.63 22.8419 48.6033 22.7651C48.5766 22.6882 48.5332 22.6185 48.4763 22.5609V22.5536Z" fill="url(#paint12_radial_101_9956)"/>
<path d="M53.116 21.9441L52.4826 24.3823H51.8058L51.2784 22.6146L50.7486 24.3823H50.0742L49.4336 21.9441H50.0453L50.4355 23.8215L50.9677 21.9441H51.6132L52.1526 23.8215L52.5452 21.9441H53.116Z" fill="url(#paint13_radial_101_9956)"/>
<path d="M55.657 23.2851H53.8965C53.8911 23.374 53.9038 23.4631 53.9336 23.547C53.9634 23.6308 54.0098 23.7076 54.0699 23.7727C54.1229 23.8236 54.1852 23.8633 54.2534 23.8897C54.3216 23.916 54.3943 23.9285 54.4673 23.9263C54.5934 23.9317 54.7178 23.8948 54.8213 23.8215C54.9142 23.7522 54.9786 23.6506 55.0019 23.5362H55.6474C55.6179 23.7032 55.5475 23.86 55.4426 23.9922C55.3369 24.1292 55.1996 24.238 55.0429 24.3091C54.8718 24.3868 54.686 24.4259 54.4986 24.4237C54.281 24.4279 54.0661 24.375 53.8748 24.2701C53.6937 24.1721 53.5453 24.0219 53.4485 23.8386C53.3487 23.6321 53.2969 23.4052 53.2969 23.1754C53.2969 22.9455 53.3487 22.7186 53.4485 22.5122C53.5446 22.3276 53.6931 22.1764 53.8748 22.0781C54.0674 21.9771 54.2817 21.926 54.4986 21.9294C54.7147 21.9254 54.9284 21.9766 55.1199 22.0781C55.2933 22.1728 55.4362 22.3158 55.5318 22.4902C55.6657 22.7351 55.7101 23.0201 55.657 23.2948V23.2851ZM54.908 22.5536C54.7962 22.4508 54.6495 22.3958 54.4986 22.4C54.3455 22.3959 54.1966 22.4508 54.0819 22.5536C54.0229 22.6125 53.976 22.6827 53.9442 22.7602C53.9123 22.8376 53.8961 22.9208 53.8965 23.0047H55.0621C55.0709 22.9238 55.0616 22.8419 55.0349 22.7651C55.0082 22.6882 54.9649 22.6185 54.908 22.5609V22.5536Z" fill="url(#paint14_radial_101_9956)"/>
<path d="M57.0784 22.0491C57.2245 21.9623 57.3906 21.9161 57.5601 21.915V22.5782H57.3818C56.9339 22.5782 56.7099 22.7904 56.7099 23.2097V24.3825H56.1006V21.9443H56.7099V22.41C56.8007 22.2602 56.9275 22.1361 57.0784 22.0491V22.0491Z" fill="url(#paint15_radial_101_9956)"/>
<path d="M58.4183 23.7363V24.3825H57.7607V23.7363H58.4183Z" fill="url(#paint16_radial_101_9956)"/>
<path d="M60.6728 22.1881C60.8824 22.3622 61.0205 22.609 61.0605 22.8805H60.4319C60.4106 22.7605 60.3474 22.6523 60.2537 22.5757C60.1531 22.4977 60.0287 22.458 59.9021 22.4636C59.8255 22.4622 59.7496 22.4778 59.6797 22.5094C59.6098 22.541 59.5476 22.5878 59.4975 22.6464C59.3908 22.8031 59.3337 22.9889 59.3337 23.1792C59.3337 23.3695 59.3908 23.5553 59.4975 23.712C59.5476 23.7706 59.6098 23.8173 59.6797 23.8489C59.7496 23.8805 59.8255 23.8962 59.9021 23.8948C60.0285 23.8992 60.1526 23.8596 60.2537 23.7827C60.3469 23.7056 60.41 23.5976 60.4319 23.4779H61.0774C61.0374 23.7494 60.8992 23.9962 60.6896 24.1703C60.4682 24.341 60.1945 24.4273 59.9165 24.4142C59.6982 24.4183 59.4826 24.3654 59.2904 24.2606C59.1105 24.1617 58.9631 24.0117 58.8665 23.829C58.7667 23.6225 58.7148 23.3957 58.7148 23.1658C58.7148 22.9359 58.7667 22.7091 58.8665 22.5026C58.9623 22.3186 59.1098 22.1676 59.2904 22.0686C59.4838 21.9675 59.6989 21.9164 59.9165 21.9198C60.1917 21.9176 60.4591 22.0125 60.6728 22.1881V22.1881Z" fill="url(#paint17_radial_101_9956)"/>
<path d="M63.2417 22.0685C63.4264 22.1668 63.5788 22.3177 63.68 22.5025C63.7859 22.7071 63.8413 22.9346 63.8413 23.1657C63.8413 23.3967 63.7859 23.6242 63.68 23.8289C63.578 24.0124 63.4258 24.1623 63.2417 24.2604C63.0463 24.3615 62.8301 24.4141 62.6107 24.4141C62.3913 24.4141 62.1751 24.3615 61.9797 24.2604C61.7955 24.1616 61.6426 24.012 61.539 23.8289C61.4344 23.6238 61.3799 23.3964 61.3799 23.1657C61.3799 22.9349 61.4344 22.7075 61.539 22.5025C61.6419 22.3181 61.7948 22.1675 61.9797 22.0685C62.176 21.9706 62.3919 21.9197 62.6107 21.9197C62.8295 21.9197 63.0454 21.9706 63.2417 22.0685V22.0685ZM62.1772 22.6366C62.0509 22.7821 61.9869 22.9724 61.999 23.1657C61.9869 23.359 62.0509 23.5492 62.1772 23.6948C62.2339 23.7529 62.3014 23.799 62.3758 23.8305C62.4502 23.8619 62.5301 23.8781 62.6107 23.8781C62.6914 23.8781 62.7712 23.8619 62.8456 23.8305C62.92 23.799 62.9875 23.7529 63.0442 23.6948C63.1705 23.5492 63.2346 23.359 63.2224 23.1657C63.2346 22.9724 63.1705 22.7821 63.0442 22.6366C62.9288 22.521 62.773 22.4562 62.6107 22.4562C62.4484 22.4562 62.2926 22.521 62.1772 22.6366V22.6366Z" fill="url(#paint18_radial_101_9956)"/>
</g>
<defs>
<radialGradient id="paint0_radial_101_9956" cx="0" cy="0" r="1" gradientUnits="userSpaceOnUse" gradientTransform="translate(45.9799 103.267) scale(28.3779 28.7298)">
<stop stop-color="#C60600"/>
<stop offset="1" stop-color="#930600"/>
</radialGradient>
<radialGradient id="paint1_radial_101_9956" cx="0" cy="0" r="1" gradientUnits="userSpaceOnUse" gradientTransform="translate(14813 8257.42) scale(9137.69 2469.04)">
<stop stop-color="#C60600"/>
<stop offset="1" stop-color="#930600"/>
</radialGradient>
<radialGradient id="paint2_radial_101_9956" cx="0" cy="0" r="1" gradientUnits="userSpaceOnUse" gradientTransform="translate(14813 7547.28) scale(9137.69 2469.04)">
<stop stop-color="#C60600"/>
<stop offset="1" stop-color="#930600"/>
</radialGradient>
<radialGradient id="paint3_radial_101_9956" cx="0" cy="0" r="1" gradientUnits="userSpaceOnUse" gradientTransform="translate(-1779.86 956.051) scale(292.108 281.225)">
<stop stop-color="#C60600"/>
<stop offset="1" stop-color="#930600"/>
</radialGradient>
<radialGradient id="paint4_radial_101_9956" cx="0" cy="0" r="1" gradientUnits="userSpaceOnUse" gradientTransform="translate(906.117 750.902) scale(7.2961 14.9393)">
<stop stop-color="#C60600"/>
<stop offset="1" stop-color="#930600"/>
</radialGradient>
<radialGradient id="paint5_radial_101_9956" cx="0" cy="0" r="1" gradientUnits="userSpaceOnUse" gradientTransform="translate(1457.89 623.203) scale(11.9692 12.5489)">
<stop stop-color="#C60600"/>
<stop offset="1" stop-color="#930600"/>
</radialGradient>
<radialGradient id="paint6_radial_101_9956" cx="0" cy="0" r="1" gradientUnits="userSpaceOnUse" gradientTransform="translate(1476.69 623.433) scale(11.8363 12.504)">
<stop stop-color="#C60600"/>
<stop offset="1" stop-color="#930600"/>
</radialGradient>
<radialGradient id="paint7_radial_101_9956" cx="0" cy="0" r="1" gradientUnits="userSpaceOnUse" gradientTransform="translate(1487.4 798.449) scale(13.5919 18.9343)">
<stop stop-color="#C60600"/>
<stop offset="1" stop-color="#930600"/>
</radialGradient>
<radialGradient id="paint8_radial_101_9956" cx="0" cy="0" r="1" gradientUnits="userSpaceOnUse" gradientTransform="translate(962.177 616.435) scale(6.08602 10.2895)">
<stop stop-color="#C60600"/>
<stop offset="1" stop-color="#930600"/>
</radialGradient>
<radialGradient id="paint9_radial_101_9956" cx="0" cy="0" r="1" gradientUnits="userSpaceOnUse" gradientTransform="translate(1571.82 623.189) scale(12.0057 12.5486)">
<stop stop-color="#C60600"/>
<stop offset="1" stop-color="#930600"/>
</radialGradient>
<radialGradient id="paint10_radial_101_9956" cx="0" cy="0" r="1" gradientUnits="userSpaceOnUse" gradientTransform="translate(1688.76 609.593) scale(12.8852 12.4594)">
<stop stop-color="#C60600"/>
<stop offset="1" stop-color="#930600"/>
</radialGradient>
<radialGradient id="paint11_radial_101_9956" cx="0" cy="0" r="1" gradientUnits="userSpaceOnUse" gradientTransform="translate(547.89 851.041) scale(3.9146 17.8959)">
<stop stop-color="#C60600"/>
<stop offset="1" stop-color="#930600"/>
</radialGradient>
<radialGradient id="paint12_radial_101_9956" cx="0" cy="0" r="1" gradientUnits="userSpaceOnUse" gradientTransform="translate(1647.5 623.194) scale(12.0417 12.5487)">
<stop stop-color="#C60600"/>
<stop offset="1" stop-color="#930600"/>
</radialGradient>
<radialGradient id="paint13_radial_101_9956" cx="0" cy="0" r="1" gradientUnits="userSpaceOnUse" gradientTransform="translate(2560.76 609.585) scale(23.7883 15.7511)">
<stop stop-color="#C60600"/>
<stop offset="1" stop-color="#930600"/>
</radialGradient>
<radialGradient id="paint14_radial_101_9956" cx="0" cy="0" r="1" gradientUnits="userSpaceOnUse" gradientTransform="translate(1709.54 623.194) scale(11.9812 12.5487)">
<stop stop-color="#C60600"/>
<stop offset="1" stop-color="#930600"/>
</radialGradient>
<radialGradient id="paint15_radial_101_9956" cx="0" cy="0" r="1" gradientUnits="userSpaceOnUse" gradientTransform="translate(1085.17 616.435) scale(6.086 10.2895)">
<stop stop-color="#C60600"/>
<stop offset="1" stop-color="#930600"/>
</radialGradient>
<radialGradient id="paint16_radial_101_9956" cx="0" cy="0" r="1" gradientUnits="userSpaceOnUse" gradientTransform="translate(524.77 181.833) scale(0.887637 0.872283)">
<stop stop-color="#C60600"/>
<stop offset="1" stop-color="#930600"/>
</radialGradient>
<radialGradient id="paint17_radial_101_9956" cx="0" cy="0" r="1" gradientUnits="userSpaceOnUse" gradientTransform="translate(1754.39 623.433) scale(11.8363 12.504)">
<stop stop-color="#C60600"/>
<stop offset="1" stop-color="#930600"/>
</radialGradient>
<radialGradient id="paint18_radial_101_9956" cx="0" cy="0" r="1" gradientUnits="userSpaceOnUse" gradientTransform="translate(1855.85 623.108) scale(12.5777 12.7467)">
<stop stop-color="#C60600"/>
<stop offset="1" stop-color="#930600"/>
</radialGradient>
<clipPath id="clip0_101_9956">
<rect width="92" height="122" fill="white"/>
</clipPath>
</defs>
</svg>
