<svg width="95" height="123" viewBox="0 0 95 123" fill="none" xmlns="http://www.w3.org/2000/svg">
<g clip-path="url(#clip0_101_4664)">
<path d="M93.7572 1.229H1.24414V103.983V104.091L47.5007 121.682L93.7572 104.091V103.983V1.229Z" fill="white"/>
<path d="M47.5 123L0 104.937V0H95V104.937L47.5 123ZM2.48691 103.246L47.5 120.362L92.5131 103.246V2.45823H2.48691V103.246Z" fill="#8D0200"/>
<path d="M7.44043 93.5503V99.3566V99.45L47.4797 114.676L87.519 99.45V99.3566V93.5503L47.4797 108.777L7.44043 93.5503Z" fill="url(#paint0_radial_101_4664)"/>
<path d="M7.44043 85.3154V91.1218V91.2152L47.4797 106.441L87.519 91.2152V91.1218V85.3154L47.4797 100.542L7.44043 85.3154Z" fill="url(#paint1_radial_101_4664)"/>
<path d="M7.44043 77.0803V82.8867V82.9801L47.4797 98.2064L87.519 82.9801V82.8867V77.0803L47.4797 92.3066L7.44043 77.0803Z" fill="url(#paint2_radial_101_4664)"/>
<path d="M45.3859 11.5781C45.3859 11.5781 41.1855 12.1189 41.1382 12.2615C41.091 12.4041 44.1698 15.2802 44.1698 15.2802C44.1698 15.2802 43.3914 19.3977 43.5132 19.4838C43.6351 19.5698 47.3555 17.5688 47.3555 17.5688C47.3555 17.5688 51.0859 19.5723 51.1953 19.4838C51.3047 19.3953 50.5412 15.2802 50.5412 15.2802C50.5412 15.2802 53.62 12.4041 53.5728 12.2615C53.5255 12.1189 49.3251 11.5781 49.3251 11.5781C49.3251 11.5781 47.5047 7.79736 47.3555 7.79736C47.2063 7.79736 45.3859 11.5781 45.3859 11.5781Z" fill="url(#paint3_radial_101_4664)"/>
<path d="M40.7082 34.9805V37.3207H37.3658V47.1536H34.3815V37.3207H31.0664V34.9805H40.7082Z" fill="black"/>
<path d="M50.9632 35.5904C51.8994 36.1123 52.6734 36.8774 53.2014 37.8028C53.7439 38.7923 54.0279 39.9 54.0279 41.0255C54.0279 42.151 53.7439 43.2587 53.2014 44.2483C52.6725 45.1768 51.8991 45.9465 50.9632 46.4754C50.0013 47.001 48.9201 47.2766 47.821 47.2766C46.7219 47.2766 45.6408 47.001 44.6788 46.4754C43.7415 45.9483 42.9676 45.1783 42.4406 44.2483C41.8971 43.2621 41.6123 42.1571 41.6123 41.0341C41.6123 39.9112 41.8971 38.8061 42.4406 37.82C42.9703 36.8959 43.7439 36.1312 44.6788 35.6076C45.6444 35.0834 46.7281 34.8086 47.8297 34.8086C48.9313 34.8086 50.0151 35.0834 50.9806 35.6076L50.9632 35.5904ZM45.492 38.464C44.9167 39.0901 44.6291 39.9423 44.6291 41.0206C44.6291 42.0989 44.9167 42.9479 45.492 43.5673C46.1081 44.1733 46.9419 44.5135 47.8111 44.5135C48.6802 44.5135 49.514 44.1733 50.1301 43.5673C50.7104 42.9347 51.0005 42.0858 51.0005 41.0206C51.0005 39.9554 50.7137 39.1065 50.1401 38.4739C49.5204 37.8708 48.6856 37.5328 47.816 37.5328C46.9464 37.5328 46.1117 37.8708 45.492 38.4739V38.464Z" fill="black"/>
<path d="M58.6698 42.8788V47.1463H55.6855V34.9805H60.5077C61.97 34.9805 63.0841 35.3386 63.8501 36.0547C64.6161 36.7709 64.999 37.7378 64.999 38.9554C65.012 39.6622 64.8344 40.3597 64.4842 40.9761C64.1299 41.5811 63.5996 42.0668 62.9623 42.3699C62.1963 42.729 61.3551 42.9034 60.5077 42.8788H58.6698ZM61.9774 38.9456C61.9774 37.8787 61.3798 37.3453 60.1844 37.3453H58.6698V40.5115H60.1844C61.3831 40.518 61.9816 39.9994 61.9799 38.9554L61.9774 38.9456Z" fill="black"/>
<path d="M14.0082 52.562L12.4937 58.8207H10.5962L9.58402 54.6417L8.56439 58.8207H6.66688L5.15234 52.562H6.81858L7.63428 57.095L8.74344 52.562H10.4246L11.5362 57.095L12.3594 52.562H14.0082Z" fill="black"/>
<path d="M19.5133 56.6254H16.049C16.0364 56.919 16.1388 57.2061 16.335 57.4268C16.4235 57.5088 16.5274 57.5728 16.641 57.615C16.7545 57.6572 16.8753 57.6768 16.9965 57.6726C17.1986 57.6802 17.3974 57.6205 17.5611 57.503C17.7065 57.3962 17.8109 57.2436 17.857 57.0704H19.476C19.4131 57.4117 19.2662 57.7325 19.0482 58.0045C18.8223 58.2817 18.5335 58.5023 18.2052 58.6485C17.8494 58.8127 17.4612 58.8966 17.0686 58.8944C16.6153 58.9021 16.1673 58.7973 15.7655 58.5895C15.3885 58.3869 15.0791 58.0803 14.8752 57.707C14.6625 57.2874 14.5518 56.8244 14.5518 56.355C14.5518 55.8856 14.6625 55.4227 14.8752 55.003C15.0788 54.6313 15.3884 54.327 15.7655 54.1279C16.1722 53.9289 16.6199 53.8254 17.0736 53.8254C17.5274 53.8254 17.975 53.9289 18.3817 54.1279C18.7491 54.3207 19.0522 54.6144 19.2547 54.9735C19.4649 55.3573 19.5712 55.7883 19.563 56.2247C19.5596 56.3596 19.5429 56.4938 19.5133 56.6254V56.6254ZM17.7451 55.2586C17.5597 55.0943 17.3176 55.0063 17.0686 55.0128C16.8126 55.0039 16.5626 55.0918 16.3698 55.2586C16.1712 55.4541 16.0586 55.7191 16.0565 55.9961H18.0087C18.0227 55.8616 18.0063 55.7256 17.9607 55.5981C17.9151 55.4706 17.8415 55.3546 17.7451 55.2586V55.2586Z" fill="black"/>
<path d="M24.575 54.1252C24.9101 54.3394 25.1773 54.6428 25.3459 55.0004C25.5327 55.4272 25.6291 55.8873 25.6291 56.3524C25.6291 56.8174 25.5327 57.2776 25.3459 57.7044C25.1783 58.0646 24.911 58.3705 24.575 58.5869C24.2441 58.7911 23.8608 58.8969 23.4708 58.8917C23.1221 58.9071 22.7764 58.8217 22.476 58.6459C22.2064 58.4819 21.9965 58.2374 21.8767 57.9478V58.8426H20.3447V52.2717H21.8767V54.7742C22 54.4849 22.2134 54.2421 22.486 54.081C22.7863 53.9052 23.132 53.8198 23.4807 53.8352C23.866 53.8262 24.2459 53.9269 24.575 54.1252V54.1252ZM22.185 55.4699C21.9853 55.7198 21.8767 56.029 21.8767 56.3475C21.8767 56.6659 21.9853 56.9751 22.185 57.2251C22.2857 57.3329 22.4086 57.4181 22.5455 57.4749C22.6824 57.5318 22.83 57.5589 22.9784 57.5545C23.1257 57.5607 23.2727 57.5354 23.4092 57.4803C23.5457 57.4251 23.6685 57.3414 23.7692 57.2349C23.9629 56.9796 24.0676 56.6691 24.0676 56.3499C24.0676 56.0308 23.9629 55.7203 23.7692 55.465C23.5583 55.2589 23.2737 55.1433 22.9771 55.1433C22.6805 55.1433 22.3959 55.2589 22.185 55.465V55.4699Z" fill="black"/>
<path d="M33.5114 57.3111C33.2477 57.7845 32.849 58.1709 32.365 58.4222C31.8218 58.6984 31.2173 58.8353 30.6067 58.8205H28.2168V52.5618H30.6067C31.2181 52.546 31.8239 52.6803 32.3699 52.9527C32.852 53.1982 33.2493 53.5798 33.5114 54.049C33.7729 54.5539 33.9093 55.1129 33.9093 55.6801C33.9093 56.2472 33.7729 56.8063 33.5114 57.3111V57.3111ZM31.8651 56.9965C32.1857 56.6301 32.3621 56.162 32.3621 55.6776C32.3621 55.1932 32.1857 54.7251 31.8651 54.3588C31.4814 54.0273 30.9811 53.8586 30.4724 53.8892H29.7463V57.466H30.4724C30.9811 57.4966 31.4814 57.3279 31.8651 56.9965V56.9965Z" fill="black"/>
<path d="M39.4811 56.6253H36.0143C36.0034 56.919 36.1066 57.2057 36.3028 57.4266C36.3912 57.5087 36.4952 57.5726 36.6087 57.6148C36.7223 57.657 36.8431 57.6766 36.9643 57.6725C37.1664 57.68 37.3652 57.6203 37.5288 57.5028C37.6743 57.396 37.7787 57.2434 37.8248 57.0702H39.4438C39.3863 57.4144 39.2427 57.7389 39.026 58.0142C38.8015 58.2918 38.5134 58.5126 38.1854 58.6582C37.8296 58.8223 37.4414 58.9063 37.0489 58.904C36.5955 58.912 36.1474 58.8071 35.7457 58.5992C35.3687 58.3966 35.0593 58.09 34.8554 57.7167C34.6316 57.3037 34.5202 56.8404 34.5321 56.3721C34.5206 55.9028 34.6302 55.4383 34.8504 55.0225C35.054 54.6508 35.3636 54.3465 35.7407 54.1474C36.147 53.9485 36.5943 53.845 37.0476 53.845C37.501 53.845 37.9482 53.9485 38.3545 54.1474C38.7228 54.3388 39.0263 54.6328 39.2274 54.993C39.4396 55.3761 39.5468 55.8075 39.5383 56.2442C39.5311 56.3727 39.512 56.5003 39.4811 56.6253V56.6253ZM37.7129 55.2585C37.5272 55.0946 37.2853 55.0067 37.0364 55.0127C36.7801 55.0025 36.5298 55.0905 36.3376 55.2585C36.139 55.4539 36.0264 55.7189 36.0243 55.9959H37.9765C37.9905 55.8614 37.9741 55.7255 37.9285 55.5979C37.8829 55.4704 37.8092 55.3545 37.7129 55.2585V55.2585Z" fill="black"/>
<path d="M42.6291 57.3406L43.7109 53.8818H45.3423L43.5691 58.8204H41.6716L39.8984 53.8818H41.5274L42.6291 57.3406Z" fill="black"/>
<path d="M50.6773 56.6253H47.213C47.2014 56.9187 47.3037 57.2054 47.499 57.4267C47.6788 57.5921 47.9175 57.6804 48.163 57.6725C48.3644 57.6801 48.5624 57.6203 48.7251 57.5029C48.8713 57.3968 48.9758 57.2439 49.021 57.0702H50.6425C50.581 57.415 50.434 57.7393 50.2147 58.0142C49.9888 58.2914 49.7 58.5121 49.3717 58.6583C49.016 58.8227 48.6278 58.9067 48.2351 58.9041C47.7826 58.9118 47.3354 58.807 46.9345 58.5993C46.5568 58.3967 46.2466 58.0901 46.0417 57.7168C45.8299 57.2968 45.7197 56.834 45.7197 56.3647C45.7197 55.8955 45.8299 55.4327 46.0417 55.0127C46.2445 54.6405 46.5543 54.336 46.932 54.1376C47.3383 53.9387 47.7855 53.8352 48.2389 53.8352C48.6923 53.8352 49.1395 53.9387 49.5458 54.1376C49.9131 54.3305 50.2162 54.6241 50.4187 54.9832C50.6301 55.3666 50.7364 55.7979 50.727 56.2345C50.723 56.366 50.7063 56.4969 50.6773 56.6253V56.6253ZM48.9091 55.2585C48.7237 55.0942 48.4816 55.0062 48.2327 55.0127C47.9772 55.0032 47.7279 55.0912 47.5363 55.2585C47.4371 55.3547 47.3583 55.4694 47.3045 55.5961C47.2507 55.7227 47.223 55.8587 47.223 55.996H49.1727C49.1872 55.8614 49.1711 55.7253 49.1255 55.5977C49.0798 55.4701 49.0059 55.3542 48.9091 55.2585V55.2585Z" fill="black"/>
<path d="M53.0519 52.2717V58.8205H51.5225V52.2717H53.0519Z" fill="black"/>
<path d="M57.7756 54.1252C58.1623 54.3249 58.4826 54.6304 58.6983 55.0053C58.9187 55.42 59.0339 55.8814 59.0339 56.3499C59.0339 56.8184 58.9187 57.2799 58.6983 57.6946C58.4828 58.0702 58.1625 58.3765 57.7756 58.5771C57.361 58.7777 56.9055 58.882 56.4439 58.882C55.9823 58.882 55.5268 58.7777 55.1121 58.5771C54.7279 58.3755 54.4103 58.0692 54.197 57.6946C53.9765 57.2799 53.8613 56.8184 53.8613 56.3499C53.8613 55.8814 53.9765 55.42 54.197 55.0053C54.4138 54.6296 54.736 54.324 55.1246 54.1252C55.5392 53.9246 55.9947 53.8203 56.4563 53.8203C56.9179 53.8203 57.3735 53.9246 57.7881 54.1252H57.7756ZM55.7065 55.4428C55.4921 55.6957 55.3852 56.0208 55.4081 56.3499C55.3846 56.6776 55.4917 57.0014 55.7065 57.2521C55.802 57.3525 55.9177 57.432 56.0463 57.4853C56.1748 57.5387 56.3132 57.5647 56.4526 57.5618C56.5921 57.566 56.731 57.5405 56.8597 57.4871C56.9884 57.4336 57.104 57.3535 57.1987 57.2521C57.4107 57.0001 57.5159 56.6768 57.4921 56.3499C57.5154 56.0216 57.4103 55.6969 57.1987 55.4428C57.1047 55.3403 56.9893 55.259 56.8605 55.2047C56.7317 55.1504 56.5926 55.1243 56.4526 55.1282C56.3128 55.1259 56.1742 55.1527 56.0456 55.2069C55.9171 55.2611 55.8015 55.3415 55.7065 55.4428V55.4428Z" fill="black"/>
<path d="M64.0521 54.1254C64.3865 54.3397 64.6528 54.6431 64.8205 55.0005C65.0089 55.4269 65.1062 55.8872 65.1062 56.3525C65.1062 56.8178 65.0089 57.2781 64.8205 57.7045C64.6538 58.0645 64.3874 58.3705 64.0521 58.587C63.7203 58.7913 63.3362 58.8971 62.9454 58.8919C62.5967 58.9072 62.251 58.8218 61.9506 58.646C61.681 58.4821 61.4711 58.2376 61.3513 57.9479V61.1952H59.8193V53.882H61.3513V54.7743C61.4721 54.4853 61.6818 54.2411 61.9506 54.0762C62.251 53.9004 62.5967 53.815 62.9454 53.8304C63.3353 53.8211 63.7197 53.9236 64.0521 54.1254V54.1254ZM61.6572 55.47C61.4575 55.7199 61.3489 56.0291 61.3489 56.3476C61.3489 56.6661 61.4575 56.9753 61.6572 57.2252C61.7613 57.3282 61.885 57.4099 62.0211 57.4657C62.1572 57.5214 62.3031 57.5501 62.4505 57.5501C62.5978 57.5501 62.7437 57.5214 62.8799 57.4657C63.016 57.4099 63.1397 57.3282 63.2438 57.2252C63.4375 56.9699 63.5422 56.6594 63.5422 56.3402C63.5422 56.0211 63.4375 55.7106 63.2438 55.4553C63.0325 55.249 62.7475 55.1333 62.4505 55.1333C62.1535 55.1333 61.8685 55.249 61.6572 55.4553V55.47Z" fill="black"/>
<path d="M73.8197 54.3908C74.192 54.8248 74.3808 55.3838 74.3469 55.9518V58.8205H72.8249V56.1288C72.8347 55.9957 72.8177 55.8621 72.775 55.7355C72.7323 55.609 72.6648 55.492 72.5762 55.3913C72.4851 55.3027 72.3764 55.2339 72.257 55.189C72.1376 55.1442 72.01 55.1243 71.8824 55.1307C71.7492 55.1241 71.616 55.1454 71.4917 55.1933C71.3674 55.2412 71.2548 55.3145 71.1612 55.4085C70.9739 55.6263 70.8794 55.9074 70.8976 56.1927V58.8132H69.3631V56.1288C69.373 55.9957 69.3561 55.862 69.3134 55.7355C69.2707 55.6089 69.2031 55.4919 69.1145 55.3913C69.0248 55.3023 68.917 55.233 68.7982 55.1881C68.6795 55.1432 68.5525 55.1236 68.4256 55.1307C68.2922 55.124 68.1588 55.1451 68.0342 55.1925C67.9095 55.2399 67.7963 55.3127 67.7019 55.4061C67.607 55.5133 67.5345 55.638 67.4884 55.7729C67.4423 55.9079 67.4236 56.0506 67.4333 56.1927V58.8132H65.9014V53.882H67.4333V54.7227C67.5607 54.447 67.772 54.2176 68.0376 54.0663C68.3263 53.8997 68.6558 53.8147 68.9901 53.8205C69.3453 53.8142 69.6953 53.9044 70.0023 54.0811C70.2954 54.258 70.5263 54.5197 70.6638 54.8308C70.8312 54.5275 71.0766 54.2731 71.3751 54.0934C71.7596 53.8719 72.2066 53.7801 72.6486 53.832C73.0905 53.8839 73.5033 54.0766 73.8247 54.381L73.8197 54.3908Z" fill="black"/>
<path d="M80.0699 56.6254H76.6057C76.593 56.919 76.6955 57.2061 76.8917 57.4268C76.9801 57.5088 77.0841 57.5728 77.1976 57.615C77.3111 57.6572 77.432 57.6768 77.5532 57.6726C77.7553 57.6802 77.9541 57.6205 78.1177 57.503C78.2639 57.3969 78.3685 57.244 78.4137 57.0704H80.0326C79.9698 57.4117 79.8228 57.7325 79.6049 58.0045C79.379 58.2817 79.0901 58.5023 78.7618 58.6485C78.4061 58.8126 78.0179 58.8966 77.6253 58.8944C77.1719 58.9023 76.7238 58.7975 76.3221 58.5895C75.9451 58.3869 75.6358 58.0803 75.4318 57.707C75.2192 57.2873 75.1084 56.8244 75.1084 56.355C75.1084 55.8856 75.2192 55.4227 75.4318 55.003C75.6354 54.6313 75.945 54.327 76.3221 54.1279C76.7288 53.9289 77.1765 53.8254 77.6303 53.8254C78.084 53.8254 78.5317 53.9289 78.9384 54.1279C79.3037 54.3191 79.6059 54.6101 79.8088 54.9661C80.0191 55.3499 80.1253 55.781 80.1172 56.2174C80.1151 56.3546 80.0992 56.4913 80.0699 56.6254V56.6254ZM78.3017 55.2586C78.1163 55.0943 77.8743 55.0063 77.6253 55.0128C77.3692 55.0039 77.1193 55.0918 76.9265 55.2586C76.7279 55.4541 76.6153 55.7191 76.6131 55.9961H78.5653C78.5793 55.8616 78.5629 55.7256 78.5173 55.5981C78.4718 55.4706 78.3981 55.3546 78.3017 55.2586V55.2586Z" fill="black"/>
<path d="M85.4495 54.3959C85.8046 54.8358 85.9818 55.3903 85.9469 55.9519V58.8207H84.4149V56.1289C84.4321 55.8468 84.3375 55.5691 84.1513 55.3546C84.0609 55.262 83.9516 55.1894 83.8307 55.1415C83.7099 55.0936 83.5801 55.0716 83.45 55.0768C83.3116 55.0686 83.173 55.0906 83.0441 55.1411C82.9152 55.1917 82.7991 55.2696 82.7039 55.3693C82.5076 55.601 82.4096 55.8987 82.4304 56.2002V58.8207H80.8984V53.8821H82.4304V54.7843C82.5682 54.4937 82.7908 54.2506 83.0695 54.0862C83.3715 53.9143 83.716 53.8292 84.0643 53.8403C84.3224 53.8254 84.5807 53.8676 84.8203 53.9637C85.0599 54.0598 85.2748 54.2074 85.4495 54.3959V54.3959Z" fill="black"/>
<path d="M89.7924 57.5227V58.8255H89.1035C88.6101 58.8548 88.1234 58.7014 87.7382 58.3953C87.4066 58.1102 87.2408 57.6366 87.2408 56.9745V55.1603H86.5693V53.887H87.2408V52.675H88.7727V53.887H89.7675V55.1603H88.7727V57.0015C88.7574 57.1477 88.8002 57.2941 88.8921 57.4096C89.009 57.4964 89.1545 57.5367 89.3 57.5227H89.7924Z" fill="black"/>
<path d="M26.2909 62.9628C26.825 63.3913 27.188 63.9932 27.3155 64.6614H25.694C25.5856 64.3842 25.3938 64.1465 25.1444 63.9805C24.8821 63.8122 24.5742 63.7265 24.2616 63.7346C24.0551 63.7285 23.85 63.7697 23.6623 63.855C23.4746 63.9403 23.3094 64.0674 23.1798 64.2263C22.9109 64.6074 22.7668 65.0608 22.7668 65.5255C22.7668 65.9901 22.9109 66.4435 23.1798 66.8246C23.3101 66.9829 23.4754 67.1095 23.6629 67.1947C23.8504 67.2799 24.0552 67.3215 24.2616 67.3163C24.5742 67.3245 24.8821 67.2387 25.1444 67.0705C25.3964 66.8996 25.5884 66.6557 25.694 66.3723H27.3155C27.1857 67.039 26.823 67.6393 26.2909 68.0685C25.7218 68.5006 25.0186 68.7239 24.3014 68.7003C23.7347 68.7131 23.1752 68.5738 22.6824 68.2971C22.2187 68.0334 21.8435 67.6411 21.6031 67.1688C21.3527 66.6524 21.2227 66.0871 21.2227 65.5144C21.2227 64.9418 21.3527 64.3764 21.6031 63.86C21.8435 63.3877 22.2187 62.9954 22.6824 62.7317C23.1756 62.4561 23.7349 62.3168 24.3014 62.3285C25.0189 62.3054 25.7222 62.5296 26.2909 62.9628V62.9628Z" fill="black"/>
<path d="M31.8428 63.9582C32.2294 64.1579 32.5498 64.4634 32.7654 64.8383C32.9858 65.253 33.101 65.7144 33.101 66.1829C33.101 66.6514 32.9858 67.1129 32.7654 67.5276C32.5499 67.9032 32.2296 68.2096 31.8428 68.4101C31.4281 68.6107 30.9726 68.715 30.511 68.715C30.0494 68.715 29.5939 68.6107 29.1793 68.4101C28.79 68.2111 28.4677 67.9045 28.2517 67.5276C28.0312 67.1129 27.916 66.6514 27.916 66.1829C27.916 65.7144 28.0312 65.253 28.2517 64.8383C28.4678 64.4621 28.7901 64.1563 29.1793 63.9582C29.5939 63.7576 30.0494 63.6533 30.511 63.6533C30.9726 63.6533 31.4281 63.7576 31.8428 63.9582V63.9582ZM29.7736 65.2758C29.5593 65.5287 29.4523 65.8538 29.4752 66.1829C29.4518 66.5106 29.5589 66.8344 29.7736 67.0851C29.8691 67.1855 29.9848 67.265 30.1134 67.3183C30.2419 67.3717 30.3803 67.3978 30.5197 67.3948C30.6593 67.3997 30.7984 67.3745 30.9272 67.321C31.056 67.2675 31.1715 67.187 31.2658 67.0851C31.4797 66.834 31.5859 66.5103 31.5617 66.1829C31.5856 65.8541 31.4795 65.5289 31.2658 65.2758C31.1722 65.1727 31.0569 65.0911 30.928 65.0368C30.7991 64.9824 30.6598 64.9566 30.5197 64.9612C30.38 64.9589 30.2413 64.9857 30.1128 65.0399C29.9842 65.0941 29.8687 65.1745 29.7736 65.2758Z" fill="black"/>
<path d="M41.8201 64.2238C42.1938 64.657 42.3828 65.2166 42.3474 65.7848V68.6535H40.8254V65.9618C40.8351 65.8287 40.8181 65.6951 40.7755 65.5685C40.7328 65.442 40.6652 65.325 40.5767 65.2243C40.4856 65.1358 40.3769 65.0669 40.2574 65.022C40.138 64.9772 40.0104 64.9573 39.8828 64.9637C39.7496 64.9571 39.6165 64.9784 39.4922 65.0263C39.3678 65.0742 39.2552 65.1475 39.1616 65.2415C38.9744 65.4593 38.8799 65.7404 38.898 66.0257V68.6462H37.3661V65.9618C37.376 65.8287 37.359 65.695 37.3164 65.5685C37.2737 65.4419 37.2061 65.3249 37.1174 65.2243C37.0277 65.1353 36.9199 65.066 36.8012 65.0211C36.6825 64.9762 36.5554 64.9566 36.4285 64.9637C36.2951 64.9571 36.1618 64.9781 36.0371 65.0255C35.9125 65.073 35.7993 65.1457 35.7048 65.2391C35.61 65.3463 35.5374 65.471 35.4913 65.606C35.4452 65.7409 35.4265 65.8836 35.4362 66.0257V68.6462H33.9043V63.715H35.4362V64.5557C35.5636 64.28 35.7749 64.0506 36.0406 63.8993C36.3293 63.7327 36.6588 63.6477 36.9931 63.6535C37.3482 63.6472 37.6983 63.7374 38.0052 63.9141C38.2983 64.091 38.5293 64.3527 38.6667 64.6638C38.8342 64.3605 39.0795 64.1062 39.378 63.9264C39.7625 63.7049 40.2095 63.6131 40.6515 63.665C41.0934 63.7169 41.5063 63.9096 41.8276 64.214L41.8201 64.2238Z" fill="black"/>
<path d="M47.5896 63.9583C47.9248 64.1726 48.192 64.4759 48.3605 64.8335C48.5474 65.2603 48.6438 65.7204 48.6438 66.1855C48.6438 66.6506 48.5474 67.1107 48.3605 67.5375C48.1929 67.8977 47.9256 68.2036 47.5896 68.42C47.2586 68.6239 46.8754 68.7297 46.4854 68.7248C46.1367 68.7402 45.791 68.6548 45.4907 68.479C45.2201 68.3154 45.0093 68.0709 44.8888 67.7809V71.0282H43.3594V63.715H44.8888V64.6073C45.0115 64.3199 45.2219 64.0775 45.4907 63.9141C45.791 63.7383 46.1367 63.6529 46.4854 63.6683C46.8741 63.6579 47.2575 63.7586 47.5896 63.9583V63.9583ZM45.1997 65.303C45 65.5529 44.8914 65.8621 44.8914 66.1806C44.8914 66.499 45 66.8082 45.1997 67.0582C45.3004 67.166 45.4233 67.2512 45.5602 67.308C45.697 67.3649 45.8446 67.392 45.993 67.3876C46.1404 67.3938 46.2873 67.3685 46.4238 67.3134C46.5603 67.2582 46.6832 67.1745 46.7839 67.068C46.9776 66.8127 47.0823 66.5022 47.0823 66.183C47.0823 65.8639 46.9776 65.5534 46.7839 65.2981C46.573 65.092 46.2883 64.9764 45.9918 64.9764C45.6952 64.9764 45.4106 65.092 45.1997 65.2981V65.303Z" fill="black"/>
<path d="M52.3208 63.914C52.5906 64.0805 52.803 64.3239 52.9301 64.6121V63.7198H54.4421V68.6584H52.9201V67.7636C52.7937 68.0522 52.5812 68.2958 52.3108 68.4617C52.0102 68.6369 51.6647 68.7222 51.3161 68.7076C50.9253 68.7127 50.5412 68.607 50.2094 68.4027C49.8847 68.185 49.6281 67.8819 49.4683 67.5276C49.2799 67.1012 49.1826 66.6409 49.1826 66.1756C49.1826 65.7103 49.2799 65.25 49.4683 64.8235C49.6352 64.4656 49.9017 64.1621 50.2368 63.9484C50.5681 63.7432 50.9525 63.6373 51.3434 63.6436C51.6887 63.6395 52.0279 63.7333 52.3208 63.914V63.914ZM51.0351 65.3029C50.8413 65.5582 50.7366 65.8687 50.7366 66.1879C50.7366 66.507 50.8413 66.8175 51.0351 67.0728C51.139 67.1758 51.2625 67.2574 51.3984 67.3132C51.5343 67.3689 51.68 67.3976 51.8271 67.3976C51.9743 67.3976 52.12 67.3689 52.2559 67.3132C52.3918 67.2574 52.5153 67.1758 52.6192 67.0728C52.8206 66.8236 52.9303 66.5142 52.9303 66.1952C52.9303 65.8763 52.8206 65.5668 52.6192 65.3176C52.4083 65.1115 52.1237 64.9959 51.8271 64.9959C51.5306 64.9959 51.246 65.1115 51.0351 65.3176V65.3029Z" fill="black"/>
<path d="M60.0426 64.2286C60.3977 64.6684 60.5749 65.2229 60.54 65.7846V68.6534H59.018V65.9616C59.0342 65.6792 58.9388 65.4015 58.7519 65.1873C58.6615 65.0947 58.5522 65.022 58.4313 64.9742C58.3105 64.9263 58.1807 64.9042 58.0506 64.9095C57.9122 64.9013 57.7736 64.9233 57.6447 64.9738C57.5158 65.0244 57.3996 65.1023 57.3045 65.202C57.1082 65.4337 57.0102 65.7314 57.031 66.0329V68.6534H55.499V63.7148H57.031V64.617C57.17 64.3244 57.3943 64.0796 57.6751 63.9139C57.9771 63.7421 58.3216 63.6569 58.6698 63.6681C58.9263 63.6556 59.1824 63.6994 59.4197 63.7963C59.6571 63.8932 59.8698 64.0408 60.0426 64.2286V64.2286Z" fill="black"/>
<path d="M61.666 61.7532C61.8552 61.6067 62.0885 61.5271 62.3288 61.5271C62.5691 61.5271 62.8024 61.6067 62.9916 61.7532C63.0728 61.825 63.1372 61.9134 63.1801 62.0124C63.2231 62.1113 63.2436 62.2184 63.2403 62.326C63.2418 62.4316 63.2204 62.5363 63.1775 62.633C63.1346 62.7296 63.0712 62.8161 62.9916 62.8865C62.8024 63.033 62.5691 63.1126 62.3288 63.1126C62.0885 63.1126 61.8552 63.033 61.666 62.8865C61.5864 62.8161 61.523 62.7296 61.4801 62.633C61.4372 62.5363 61.4158 62.4316 61.4173 62.326C61.414 62.2184 61.4345 62.1113 61.4775 62.0124C61.5204 61.9134 61.5848 61.825 61.666 61.7532V61.7532ZM63.091 63.7198V68.6584H61.5591V63.7149L63.091 63.7198Z" fill="black"/>
<path d="M68.8472 66.4584H65.3854C65.3738 66.7518 65.4761 67.0385 65.6714 67.2598C65.8513 67.4252 66.09 67.5135 66.3354 67.5056C66.5368 67.5132 66.7348 67.4534 66.8975 67.336C67.0437 67.2299 67.1483 67.077 67.1934 66.9033H68.8149C68.7511 67.2449 68.6033 67.5657 68.3847 67.8375C68.1591 68.114 67.8713 68.3346 67.5441 68.4815C67.1875 68.6457 66.7984 68.7296 66.4051 68.7274C65.9525 68.7351 65.5053 68.6303 65.1044 68.4225C64.7267 68.2199 64.4166 67.9134 64.2116 67.54C63.9999 67.1201 63.8896 66.6572 63.8896 66.188C63.8896 65.7188 63.9999 65.2559 64.2116 64.836C64.4145 64.4638 64.7243 64.1593 65.1019 63.9608C65.5082 63.7619 65.9554 63.6584 66.4088 63.6584C66.8622 63.6584 67.3094 63.7619 67.7157 63.9608C68.083 64.1537 68.3861 64.4473 68.5886 64.8065C68.8 65.1898 68.9064 65.6212 68.897 66.0577C68.8935 66.1925 68.8769 66.3267 68.8472 66.4584V66.4584ZM67.079 65.0916C66.8936 64.9273 66.6516 64.8393 66.4026 64.8458C66.1471 64.8363 65.8978 64.9243 65.7062 65.0916C65.607 65.1878 65.5282 65.3025 65.4744 65.4291C65.4206 65.5558 65.3929 65.6917 65.3929 65.8291H67.3426C67.3571 65.6945 67.341 65.5584 67.2954 65.4308C67.2498 65.3032 67.1758 65.1873 67.079 65.0916Z" fill="black"/>
<path d="M73.0269 64.1205C73.4039 64.4339 73.656 64.8695 73.7381 65.3496H72.3057C72.2714 65.1638 72.1708 64.9964 72.0222 64.8777C71.865 64.7584 71.6705 64.6975 71.4726 64.7056C71.3325 64.6956 71.1934 64.7348 71.0796 64.8162C71.0345 64.8546 70.9989 64.9027 70.9757 64.9568C70.9524 65.011 70.942 65.0697 70.9453 65.1284C70.9455 65.2045 70.9696 65.2786 71.0141 65.3407C71.0586 65.4027 71.1215 65.4497 71.194 65.475C71.4432 65.5774 71.7024 65.654 71.9675 65.7036C72.2863 65.7739 72.6003 65.8642 72.9075 65.974C73.1547 66.0673 73.3738 66.2212 73.5441 66.4214C73.7334 66.6566 73.829 66.9522 73.8127 67.2523C73.8169 67.5211 73.7351 67.7844 73.579 68.0045C73.4094 68.2357 73.1764 68.414 72.9075 68.5183C72.5775 68.6501 72.2238 68.7137 71.868 68.7051C71.2942 68.7337 70.7264 68.5786 70.249 68.2626C70.0449 68.1121 69.8736 67.9224 69.7454 67.7048C69.6172 67.4873 69.5347 67.2464 69.5029 66.9967H70.9802C70.9865 67.0934 71.0143 67.1876 71.0616 67.2726C71.1088 67.3575 71.1744 67.4312 71.2537 67.4883C71.4344 67.6071 71.6487 67.6657 71.8655 67.6555C72.0075 67.6657 72.1484 67.6237 72.2609 67.5375C72.3051 67.4978 72.34 67.4491 72.3632 67.3948C72.3864 67.3404 72.3973 67.2818 72.3952 67.2228C72.398 67.1437 72.3755 67.0656 72.3309 66.9999C72.2862 66.9341 72.2217 66.8839 72.1465 66.8565C71.8876 66.7509 71.6196 66.6686 71.3457 66.6107C71.0349 66.5514 70.729 66.4693 70.4306 66.3649C70.1919 66.2758 69.9797 66.1287 69.8138 65.9372C69.6334 65.7059 69.5449 65.4173 69.5651 65.1259C69.5594 64.92 69.6025 64.7155 69.691 64.529C69.7796 64.3425 69.911 64.179 70.0749 64.0517C70.4922 63.7539 71.0012 63.6088 71.5148 63.6412C72.0604 63.6185 72.5964 63.7884 73.0269 64.1205V64.1205Z" fill="black"/>
<path d="M41.5274 77.5229C41.5274 77.1468 41.3607 76.9575 41.03 76.9575C40.9508 76.9521 40.8715 76.9672 40.8 77.0012C40.7285 77.0353 40.6672 77.0871 40.6221 77.1517C40.522 77.3348 40.473 77.541 40.4804 77.749H39.3165C39.3112 77.5017 39.3568 77.2559 39.4504 77.0264C39.544 76.797 39.6837 76.5887 39.8611 76.4142C40.2099 76.1109 40.6627 75.9508 41.127 75.9668C41.3453 75.9504 41.5647 75.9774 41.7723 76.0462C41.9799 76.1151 42.1714 76.2243 42.3356 76.3675C42.4718 76.5036 42.5783 76.6659 42.6484 76.8444C42.7186 77.0228 42.7509 77.2136 42.7435 77.4049C42.7284 77.9168 42.5341 78.4076 42.1938 78.7938C41.8237 79.247 41.3779 79.6344 40.8758 79.9393H42.8205V80.8882H39.3115V80.0081C40.7887 78.9659 41.5274 78.1374 41.5274 77.5229Z" fill="black"/>
<path d="M43.3081 78.4593C43.2746 77.8264 43.4378 77.1985 43.7756 76.6598C44.0873 76.2141 44.5847 75.992 45.2678 75.9937C45.9508 75.9953 46.4482 76.2174 46.7599 76.6598C47.0682 77.2124 47.2299 77.8332 47.2299 78.4642C47.2299 79.0952 47.0682 79.7159 46.7599 80.2685C46.4465 80.7143 45.9492 80.9371 45.2678 80.9371C44.5863 80.9371 44.089 80.7143 43.7756 80.2685C43.4374 79.7264 43.2743 79.0953 43.3081 78.4593V78.4593ZM46.0437 78.4593C46.0598 78.1179 46.0066 77.7769 45.887 77.4563C45.8337 77.3421 45.7455 77.2473 45.6349 77.1851C45.5243 77.123 45.3968 77.0966 45.2702 77.1097C45.1418 77.0967 45.0124 77.1236 44.9001 77.1866C44.7878 77.2496 44.6981 77.3455 44.6435 77.4612C44.5222 77.7797 44.468 78.1193 44.4844 78.4593C44.4681 78.8024 44.5223 79.1452 44.6435 79.4671C44.6975 79.5835 44.7869 79.6802 44.8993 79.7437C45.0117 79.8072 45.1415 79.8343 45.2702 79.8211C45.3977 79.834 45.526 79.8067 45.6368 79.7431C45.7476 79.6796 45.8352 79.5829 45.887 79.4671C46.0044 79.1444 46.0559 78.8018 46.0387 78.4593H46.0437Z" fill="black"/>
<path d="M49.9518 77.5229C49.9518 77.1468 49.7852 76.9575 49.4544 76.9575C49.3752 76.9521 49.296 76.9672 49.2245 77.0012C49.153 77.0353 49.0917 77.0871 49.0466 77.1517C48.9464 77.3348 48.8975 77.541 48.9048 77.749H47.7409C47.7357 77.5017 47.7812 77.2559 47.8748 77.0264C47.9685 76.797 48.1082 76.5887 48.2856 76.4142C48.6343 76.1109 49.0872 75.9508 49.5514 75.9668C49.7697 75.9504 49.9892 75.9774 50.1968 76.0462C50.4044 76.1151 50.5959 76.2243 50.7601 76.3675C50.8962 76.5036 51.0027 76.6659 51.0729 76.8444C51.143 77.0228 51.1754 77.2136 51.1679 77.4049C51.1522 77.9171 50.957 78.408 50.6158 78.7938C50.2471 79.2475 49.8021 79.635 49.3002 79.9393H51.245V80.8882H47.7285V80.0081C49.2107 78.9659 49.9518 78.1374 49.9518 77.5229Z" fill="black"/>
<path d="M51.7309 78.4593C51.6975 77.8264 51.8606 77.1985 52.1985 76.6598C52.5101 76.2141 53.0075 75.992 53.6906 75.9937C54.3737 75.9953 54.8711 76.2174 55.1827 76.6598C55.491 77.2124 55.6527 77.8332 55.6527 78.4642C55.6527 79.0952 55.491 79.7159 55.1827 80.2685C54.8694 80.7143 54.372 80.9371 53.6906 80.9371C53.0092 80.9371 52.5118 80.7143 52.1985 80.2685C51.8603 79.7264 51.6972 79.0953 51.7309 78.4593V78.4593ZM54.4665 78.4593C54.4827 78.1179 54.4294 77.7769 54.3098 77.4563C54.2568 77.3419 54.1687 77.2468 54.0581 77.1846C53.9474 77.1224 53.8197 77.0962 53.6931 77.1097C53.5646 77.0967 53.4353 77.1236 53.323 77.1866C53.2107 77.2496 53.121 77.3455 53.0664 77.4612C52.945 77.7797 52.8909 78.1193 52.9072 78.4593C52.891 78.8024 52.9451 79.1452 53.0664 79.4671C53.1203 79.5835 53.2098 79.6802 53.3222 79.7437C53.4346 79.8072 53.5643 79.8343 53.6931 79.8211C53.8206 79.8344 53.9491 79.8073 54.0599 79.7436C54.1708 79.68 54.2583 79.5832 54.3098 79.4671C54.4272 79.1444 54.4788 78.8018 54.4616 78.4593H54.4665Z" fill="black"/>
<path d="M30.9846 24.0464V24.5823H30.6539C30.4238 24.598 30.1962 24.5268 30.0172 24.3831C29.9348 24.2943 29.8723 24.1892 29.8338 24.0749C29.7952 23.9605 29.7814 23.8394 29.7934 23.7194V22.6575H29.4502V22.124H29.7934V21.5168H30.4251V22.124H30.9796V22.6501H30.4251V23.7219C30.416 23.81 30.4418 23.8981 30.4972 23.9677C30.5315 23.9958 30.5713 24.0166 30.614 24.0288C30.6568 24.0411 30.7017 24.0445 30.7459 24.039L30.9846 24.0464Z" fill="url(#paint4_radial_101_4664)"/>
<path d="M33.7471 23.4762H31.9292C31.9248 23.5658 31.9383 23.6553 31.9691 23.7397C31.9998 23.824 32.0471 23.9016 32.1082 23.9678C32.2196 24.0715 32.3681 24.1272 32.521 24.1227C32.6505 24.1277 32.7781 24.0906 32.8841 24.017C32.9801 23.9472 33.0465 23.8447 33.0706 23.7294H33.7371C33.7066 23.8972 33.6349 24.055 33.5282 24.1891C33.4175 24.3268 33.2751 24.4364 33.1129 24.5086C32.9362 24.5869 32.7445 24.6263 32.5509 24.6242C32.3263 24.6281 32.1045 24.5747 31.9068 24.4693C31.7205 24.3704 31.5681 24.2189 31.4691 24.0342C31.3661 23.826 31.3125 23.5973 31.3125 23.3656C31.3125 23.1338 31.3661 22.9051 31.4691 22.6969C31.5674 22.511 31.7198 22.3586 31.9068 22.2594C32.1057 22.1577 32.327 22.1062 32.5509 22.1094C32.7742 22.1048 32.995 22.1564 33.1925 22.2594C33.3715 22.3548 33.5191 22.499 33.6178 22.6748C33.7561 22.9218 33.8019 23.209 33.7471 23.486V23.4762ZM32.9737 22.7387C32.8582 22.6351 32.7067 22.5796 32.5509 22.5839C32.3928 22.5797 32.239 22.6351 32.1207 22.7387C31.9984 22.8592 31.9295 23.0228 31.9292 23.1935H33.1328C33.1419 23.1119 33.1323 23.0293 33.1047 22.9519C33.0772 22.8745 33.0324 22.8041 32.9737 22.7461V22.7387Z" fill="url(#paint5_radial_101_4664)"/>
<path d="M36.1294 22.3699C36.3465 22.5449 36.4894 22.794 36.5297 23.0681H35.8633C35.843 22.9465 35.7774 22.8368 35.6792 22.7608C35.5762 22.6825 35.4485 22.6425 35.3186 22.6477C35.2392 22.646 35.1603 22.6616 35.0876 22.6934C35.015 22.7253 34.9503 22.7727 34.8983 22.8321C34.7898 22.9907 34.7318 23.1777 34.7318 23.3692C34.7318 23.5607 34.7898 23.7477 34.8983 23.9063C34.9503 23.9658 35.015 24.0131 35.0876 24.045C35.1603 24.0768 35.2392 24.0925 35.3186 24.0907C35.4483 24.0947 35.5756 24.0548 35.6792 23.9776C35.7763 23.9007 35.8417 23.7915 35.8633 23.6703H36.5372C36.4969 23.9444 36.354 24.1935 36.1368 24.3685C35.9082 24.5405 35.6256 24.6276 35.3385 24.6143C35.1139 24.6185 34.892 24.5652 34.6944 24.4594C34.5074 24.3606 34.3542 24.2092 34.2542 24.0243C34.1512 23.8161 34.0977 23.5874 34.0977 23.3557C34.0977 23.1239 34.1512 22.8952 34.2542 22.687C34.3534 22.501 34.5068 22.3486 34.6944 22.2495C34.8933 22.1476 35.1146 22.096 35.3385 22.0995C35.6261 22.095 35.9061 22.1907 36.1294 22.3699Z" fill="url(#paint6_radial_101_4664)"/>
<path d="M39.1435 22.3701C39.3225 22.5906 39.4113 22.8696 39.3921 23.1518V24.5825H38.7779V23.228C38.789 23.0634 38.7345 22.9011 38.6262 22.7757C38.5728 22.7208 38.508 22.6779 38.4364 22.6499C38.3647 22.6219 38.2878 22.6094 38.2109 22.6134C38.1308 22.6097 38.0509 22.6231 37.9767 22.6528C37.9024 22.6825 37.8355 22.7278 37.7806 22.7855C37.666 22.9234 37.6083 23.099 37.619 23.2771V24.5825H36.9873V21.3081H37.619V22.6159C37.6812 22.4544 37.7957 22.3178 37.9448 22.2275C38.1008 22.1323 38.2812 22.0837 38.4645 22.0874C38.5917 22.0831 38.7182 22.1061 38.8354 22.1549C38.9527 22.2037 39.0578 22.2771 39.1435 22.3701V22.3701Z" fill="url(#paint7_radial_101_4664)"/>
<path d="M40.9511 22.2299C41.102 22.1424 41.2735 22.0958 41.4485 22.0947V22.7634H41.2644C40.8019 22.7634 40.5706 22.9772 40.5706 23.4V24.5825H39.9414V22.1242H40.5706V22.5937C40.6637 22.4422 40.7948 22.3169 40.9511 22.2299V22.2299Z" fill="url(#paint8_radial_101_4664)"/>
<path d="M44.1172 23.4761H42.2993C42.2949 23.5657 42.3085 23.6552 42.3392 23.7396C42.3699 23.824 42.4172 23.9015 42.4783 23.9678C42.59 24.071 42.7383 24.1266 42.8912 24.1226C43.0215 24.128 43.1499 24.0909 43.2567 24.0169C43.3529 23.9477 43.4187 23.8448 43.4408 23.7293H44.1098C44.0772 23.897 44.0048 24.0546 43.8984 24.189C43.7886 24.3266 43.647 24.4362 43.4855 24.5086C43.3088 24.5866 43.1171 24.626 42.9235 24.6241C42.6981 24.6281 42.4755 24.5748 42.2769 24.4692C42.0911 24.3696 41.939 24.2183 41.8392 24.0341C41.7362 23.826 41.6826 23.5973 41.6826 23.3655C41.6826 23.1337 41.7362 22.905 41.8392 22.6969C41.9381 22.5114 42.0904 22.3591 42.2769 22.2593C42.4767 22.1577 42.6988 22.1062 42.9235 22.1093C43.1467 22.1053 43.3674 22.1569 43.5651 22.2593C43.7455 22.351 43.8956 22.4917 43.9978 22.6649C44.0997 22.8485 44.1511 23.0553 44.147 23.2647C44.1437 23.3359 44.1337 23.4067 44.1172 23.4761V23.4761ZM43.3463 22.7387C43.2308 22.6351 43.0794 22.5796 42.9235 22.5838C42.7653 22.5792 42.6114 22.6346 42.4933 22.7387C42.4318 22.7978 42.383 22.8685 42.3497 22.9466C42.3164 23.0247 42.2992 23.1087 42.2993 23.1934H43.5005C43.5096 23.1122 43.5005 23.03 43.4739 22.9527C43.4472 22.8754 43.4037 22.8048 43.3463 22.746V22.7387Z" fill="url(#paint9_radial_101_4664)"/>
<path d="M45.6679 23.9578L46.2946 22.1313H46.9661L46.0484 24.5896H45.2775L44.3623 22.1313H45.0362L45.6679 23.9578Z" fill="url(#paint10_radial_101_4664)"/>
<path d="M47.3494 21.1825C47.4273 21.1163 47.5278 21.082 47.6305 21.0866C47.7338 21.0819 47.8352 21.1161 47.914 21.1825C47.9487 21.2136 47.9764 21.2515 47.9954 21.2939C48.0144 21.3362 48.0242 21.382 48.0242 21.4283C48.0242 21.4746 48.0144 21.5204 47.9954 21.5627C47.9764 21.6051 47.9487 21.643 47.914 21.6741C47.8348 21.7396 47.7335 21.773 47.6305 21.7675C47.5281 21.7731 47.4276 21.7397 47.3494 21.6741C47.3147 21.643 47.287 21.6051 47.268 21.5627C47.2491 21.5204 47.2393 21.4746 47.2393 21.4283C47.2393 21.382 47.2491 21.3362 47.268 21.2939C47.287 21.2515 47.3147 21.2136 47.3494 21.1825V21.1825ZM47.9438 22.1314V24.5896H47.3121V22.124L47.9438 22.1314Z" fill="url(#paint11_radial_101_4664)"/>
<path d="M50.8287 23.4761H49.0108C49.0052 23.5658 49.0183 23.6556 49.0491 23.7402C49.0799 23.8247 49.1277 23.9021 49.1898 23.9678C49.2445 24.019 49.3089 24.0591 49.3793 24.0857C49.4498 24.1123 49.5248 24.1248 49.6002 24.1226C49.7305 24.128 49.8589 24.0909 49.9657 24.0169C50.0617 23.9471 50.1281 23.8447 50.1523 23.7293H50.8187C50.7884 23.8976 50.7157 24.0557 50.6074 24.189C50.4981 24.3272 50.3564 24.4369 50.1945 24.5086C50.0178 24.5868 49.8261 24.6263 49.6325 24.6241C49.4078 24.6284 49.1859 24.575 48.9884 24.4693C48.8013 24.3705 48.6481 24.219 48.5482 24.0341C48.4452 23.826 48.3916 23.5973 48.3916 23.3655C48.3916 23.1337 48.4452 22.9051 48.5482 22.6969C48.6474 22.5108 48.8007 22.3584 48.9884 22.2593C49.1872 22.1574 49.4085 22.1059 49.6325 22.1093C49.8557 22.1053 50.0763 22.1569 50.2741 22.2593C50.4563 22.3502 50.6083 22.491 50.7118 22.6649C50.8145 22.8483 50.8668 23.0551 50.8635 23.2647C50.8585 23.3361 50.8468 23.4069 50.8287 23.4761V23.4761ZM50.0553 22.7387C49.9398 22.6351 49.7883 22.5796 49.6325 22.5838C49.4744 22.5797 49.3206 22.635 49.2022 22.7387C49.1413 22.798 49.0929 22.8688 49.06 22.9469C49.0271 23.025 49.0104 23.1088 49.0108 23.1934H50.2144C50.2235 23.1118 50.2139 23.0293 50.1863 22.9518C50.1588 22.8744 50.114 22.8041 50.0553 22.746V22.7387Z" fill="url(#paint12_radial_101_4664)"/>
<path d="M54.8474 22.124L54.1934 24.5823H53.4945L52.9499 22.8L52.4028 24.5823H51.7064L51.0449 22.124H51.6766L52.0795 24.0169L52.6291 22.124H53.2956L53.8526 24.0169L54.258 22.124H54.8474Z" fill="url(#paint13_radial_101_4664)"/>
<path d="M57.4732 23.4761H55.6553C55.6498 23.5658 55.6628 23.6556 55.6936 23.7402C55.7244 23.8247 55.7723 23.9021 55.8343 23.9678C55.889 24.019 55.9534 24.0591 56.0239 24.0857C56.0943 24.1123 56.1693 24.1248 56.2447 24.1226C56.375 24.128 56.5034 24.0909 56.6103 24.0169C56.7062 23.9471 56.7727 23.8447 56.7968 23.7293H57.4633C57.4329 23.8976 57.3602 24.0557 57.2519 24.189C57.1426 24.3272 57.0009 24.4369 56.8391 24.5086C56.6624 24.5868 56.4706 24.6263 56.277 24.6241C56.0524 24.6284 55.8305 24.575 55.6329 24.4693C55.4459 24.3705 55.2927 24.219 55.1927 24.0341C55.0897 23.826 55.0361 23.5973 55.0361 23.3655C55.0361 23.1337 55.0897 22.9051 55.1927 22.6969C55.2919 22.5108 55.4452 22.3584 55.6329 22.2593C55.8317 22.1574 56.0531 22.1059 56.277 22.1093C56.5002 22.1053 56.7209 22.1569 56.9186 22.2593C57.0976 22.3548 57.2452 22.4989 57.3439 22.6747C57.4822 22.9217 57.528 23.2089 57.4732 23.486V23.4761ZM56.6998 22.7387C56.5844 22.6351 56.4329 22.5796 56.277 22.5838C56.1189 22.5797 55.9652 22.635 55.8468 22.7387C55.7858 22.798 55.7374 22.8688 55.7045 22.9469C55.6716 23.025 55.6549 23.1088 55.6553 23.1934H56.859C56.868 23.1118 56.8584 23.0293 56.8308 22.9518C56.8033 22.8744 56.7585 22.8041 56.6998 22.746V22.7387Z" fill="url(#paint14_radial_101_4664)"/>
<path d="M58.9413 22.2299C59.0922 22.1424 59.2638 22.0958 59.4387 22.0947V22.7634H59.2547C58.7921 22.7634 58.5608 22.9772 58.5608 23.4V24.5825H57.9316V22.1242H58.5608V22.5937C58.6546 22.4427 58.7855 22.3176 58.9413 22.2299V22.2299Z" fill="url(#paint15_radial_101_4664)"/>
<path d="M60.3215 23.9309V24.5823H59.6426V23.9309H60.3215Z" fill="url(#paint16_radial_101_4664)"/>
<path d="M62.6507 22.3699C62.8671 22.5455 63.0098 22.7943 63.051 23.0681H62.402C62.38 22.9471 62.3146 22.838 62.2179 22.7608C62.1141 22.6821 61.9856 22.6421 61.8548 22.6477C61.7758 22.6463 61.6974 22.6621 61.6252 22.694C61.553 22.7258 61.4888 22.773 61.4371 22.8321C61.3269 22.99 61.2679 23.1774 61.2679 23.3692C61.2679 23.5611 61.3269 23.7484 61.4371 23.9063C61.4888 23.9654 61.553 24.0126 61.6252 24.0444C61.6974 24.0763 61.7758 24.0921 61.8548 24.0907C61.9854 24.0951 62.1135 24.0552 62.2179 23.9776C62.3141 23.9 62.3793 23.7911 62.402 23.6703H63.0685C63.0272 23.9441 62.8845 24.1929 62.6681 24.3685C62.4394 24.5405 62.1568 24.6276 61.8698 24.6143C61.6444 24.6185 61.4217 24.5652 61.2232 24.4594C61.0374 24.3598 60.8853 24.2085 60.7855 24.0243C60.6825 23.8161 60.6289 23.5874 60.6289 23.3557C60.6289 23.1239 60.6825 22.8952 60.7855 22.687C60.8844 22.5016 61.0367 22.3493 61.2232 22.2495C61.4229 22.1476 61.645 22.096 61.8698 22.0995C62.1539 22.0973 62.43 22.1929 62.6507 22.3699V22.3699Z" fill="url(#paint17_radial_101_4664)"/>
<path d="M65.3034 22.2494C65.4942 22.3485 65.6515 22.5006 65.756 22.6869C65.8654 22.8932 65.9225 23.1227 65.9225 23.3556C65.9225 23.5885 65.8654 23.8179 65.756 24.0242C65.6506 24.2093 65.4935 24.3603 65.3034 24.4593C65.1017 24.5612 64.8784 24.6143 64.6518 24.6143C64.4253 24.6143 64.202 24.5612 64.0003 24.4593C63.81 24.3597 63.6522 24.2088 63.5451 24.0242C63.4372 23.8175 63.3809 23.5882 63.3809 23.3556C63.3809 23.1229 63.4372 22.8937 63.5451 22.6869C63.6514 22.501 63.8093 22.3492 64.0003 22.2494C64.203 22.1507 64.4259 22.0994 64.6518 22.0994C64.8778 22.0994 65.1007 22.1507 65.3034 22.2494V22.2494ZM64.2042 22.8221C64.0738 22.9688 64.0076 23.1607 64.0202 23.3556C64.0076 23.5504 64.0738 23.7423 64.2042 23.889C64.2627 23.9476 64.3324 23.9941 64.4093 24.0258C64.4861 24.0575 64.5685 24.0739 64.6518 24.0739C64.7351 24.0739 64.8176 24.0575 64.8944 24.0258C64.9712 23.9941 65.0409 23.9476 65.0995 23.889C65.2298 23.7423 65.296 23.5504 65.2835 23.3556C65.296 23.1607 65.2298 22.9688 65.0995 22.8221C64.9803 22.7056 64.8194 22.6403 64.6518 22.6403C64.4842 22.6403 64.3234 22.7056 64.2042 22.8221V22.8221Z" fill="url(#paint18_radial_101_4664)"/>
</g>
<defs>
<radialGradient id="paint0_radial_101_4664" cx="0" cy="0" r="1" gradientUnits="userSpaceOnUse" gradientTransform="translate(47.4797 104.113) scale(29.3033 28.9653)">
<stop stop-color="#C60600"/>
<stop offset="1" stop-color="#930600"/>
</radialGradient>
<radialGradient id="paint1_radial_101_4664" cx="0" cy="0" r="1" gradientUnits="userSpaceOnUse" gradientTransform="translate(15296 8325.1) scale(9435.65 2489.28)">
<stop stop-color="#C60600"/>
<stop offset="1" stop-color="#930600"/>
</radialGradient>
<radialGradient id="paint2_radial_101_4664" cx="0" cy="0" r="1" gradientUnits="userSpaceOnUse" gradientTransform="translate(15296 7609.15) scale(9435.65 2489.28)">
<stop stop-color="#C60600"/>
<stop offset="1" stop-color="#930600"/>
</radialGradient>
<radialGradient id="paint3_radial_101_4664" cx="0" cy="0" r="1" gradientUnits="userSpaceOnUse" gradientTransform="translate(-1837.9 963.887) scale(301.634 283.53)">
<stop stop-color="#C60600"/>
<stop offset="1" stop-color="#930600"/>
</radialGradient>
<radialGradient id="paint4_radial_101_4664" cx="0" cy="0" r="1" gradientUnits="userSpaceOnUse" gradientTransform="translate(935.661 757.057) scale(7.53398 15.0617)">
<stop stop-color="#C60600"/>
<stop offset="1" stop-color="#930600"/>
</radialGradient>
<radialGradient id="paint5_radial_101_4664" cx="0" cy="0" r="1" gradientUnits="userSpaceOnUse" gradientTransform="translate(1505.43 628.31) scale(12.3594 12.6517)">
<stop stop-color="#C60600"/>
<stop offset="1" stop-color="#930600"/>
</radialGradient>
<radialGradient id="paint6_radial_101_4664" cx="0" cy="0" r="1" gradientUnits="userSpaceOnUse" gradientTransform="translate(1524.84 628.542) scale(12.2222 12.6064)">
<stop stop-color="#C60600"/>
<stop offset="1" stop-color="#930600"/>
</radialGradient>
<radialGradient id="paint7_radial_101_4664" cx="0" cy="0" r="1" gradientUnits="userSpaceOnUse" gradientTransform="translate(1535.91 804.994) scale(14.0351 19.0895)">
<stop stop-color="#C60600"/>
<stop offset="1" stop-color="#930600"/>
</radialGradient>
<radialGradient id="paint8_radial_101_4664" cx="0" cy="0" r="1" gradientUnits="userSpaceOnUse" gradientTransform="translate(993.552 621.489) scale(6.28446 10.3738)">
<stop stop-color="#C60600"/>
<stop offset="1" stop-color="#930600"/>
</radialGradient>
<radialGradient id="paint9_radial_101_4664" cx="0" cy="0" r="1" gradientUnits="userSpaceOnUse" gradientTransform="translate(1623.08 628.296) scale(12.3972 12.6514)">
<stop stop-color="#C60600"/>
<stop offset="1" stop-color="#930600"/>
</radialGradient>
<radialGradient id="paint10_radial_101_4664" cx="0" cy="0" r="1" gradientUnits="userSpaceOnUse" gradientTransform="translate(1743.83 614.589) scale(13.3054 12.5616)">
<stop stop-color="#C60600"/>
<stop offset="1" stop-color="#930600"/>
</radialGradient>
<radialGradient id="paint11_radial_101_4664" cx="0" cy="0" r="1" gradientUnits="userSpaceOnUse" gradientTransform="translate(565.75 858.016) scale(4.04222 18.0426)">
<stop stop-color="#C60600"/>
<stop offset="1" stop-color="#930600"/>
</radialGradient>
<radialGradient id="paint12_radial_101_4664" cx="0" cy="0" r="1" gradientUnits="userSpaceOnUse" gradientTransform="translate(1701.23 628.303) scale(12.4344 12.6516)">
<stop stop-color="#C60600"/>
<stop offset="1" stop-color="#930600"/>
</radialGradient>
<radialGradient id="paint13_radial_101_4664" cx="0" cy="0" r="1" gradientUnits="userSpaceOnUse" gradientTransform="translate(2644.27 614.582) scale(24.5641 15.8802)">
<stop stop-color="#C60600"/>
<stop offset="1" stop-color="#930600"/>
</radialGradient>
<radialGradient id="paint14_radial_101_4664" cx="0" cy="0" r="1" gradientUnits="userSpaceOnUse" gradientTransform="translate(1765.29 628.303) scale(12.3719 12.6516)">
<stop stop-color="#C60600"/>
<stop offset="1" stop-color="#930600"/>
</radialGradient>
<radialGradient id="paint15_radial_101_4664" cx="0" cy="0" r="1" gradientUnits="userSpaceOnUse" gradientTransform="translate(1120.57 621.489) scale(6.28452 10.3738)">
<stop stop-color="#C60600"/>
<stop offset="1" stop-color="#930600"/>
</radialGradient>
<radialGradient id="paint16_radial_101_4664" cx="0" cy="0" r="1" gradientUnits="userSpaceOnUse" gradientTransform="translate(541.873 183.323) scale(0.916569 0.879431)">
<stop stop-color="#C60600"/>
<stop offset="1" stop-color="#930600"/>
</radialGradient>
<radialGradient id="paint17_radial_101_4664" cx="0" cy="0" r="1" gradientUnits="userSpaceOnUse" gradientTransform="translate(1811.59 628.542) scale(12.2221 12.6064)">
<stop stop-color="#C60600"/>
<stop offset="1" stop-color="#930600"/>
</radialGradient>
<radialGradient id="paint18_radial_101_4664" cx="0" cy="0" r="1" gradientUnits="userSpaceOnUse" gradientTransform="translate(1916.38 628.215) scale(12.9879 12.8511)">
<stop stop-color="#C60600"/>
<stop offset="1" stop-color="#930600"/>
</radialGradient>
<clipPath id="clip0_101_4664">
<rect width="95" height="123" fill="white"/>
</clipPath>
</defs>
</svg>
