<svg
  width="236"
  height="243"
  viewBox="0 0 236 243"
  fill="none"
  xmlns="http://www.w3.org/2000/svg"
>
<g opacity="0.3">
<mask
      id="mask0_2586_1803"
      style="mask-type:alpha"
      maskUnits="userSpaceOnUse"
      x="0"
      y="0"
      width="236"
      height="243"
    >
<path
        fill-rule="evenodd"
        clip-rule="evenodd"
        d="M0.00131027 112.746L123.609 0.00243579L131.546 9.14634L7.93835 121.89L0.00131027 112.746ZM17.388 132.776L140.996 20.0327L148.933 29.1766L25.3251 141.92L17.388 132.776ZM158.382 40.062L34.7747 152.806L42.7118 161.95L166.319 49.2059L158.382 40.062ZM52.1567 172.835L175.764 60.0911L183.701 69.235L60.0938 181.979L52.1567 172.835ZM193.155 80.1209L69.5474 192.865L77.4844 202.008L201.092 89.2648L193.155 80.1209ZM86.931 212.894L210.539 100.15L218.476 109.294L94.868 222.038L86.931 212.894ZM227.929 120.18L104.322 232.923L112.259 242.067L235.866 129.324L227.929 120.18Z"
        fill="#DEE0E8"
      />
</mask>
<g mask="url(#mask0_2586_1803)">
<ellipse
        rx="83.3636"
        ry="83.604"
        transform="matrix(0.738829 -0.673893 0.655511 0.755185 116.395 119.704)"
        fill="#DEE0E8"
      />
</g>
</g>
</svg>
