<svg width="256" height="142" viewBox="0 0 256 142" fill="none" xmlns="http://www.w3.org/2000/svg">
<circle r="31.1647" transform="matrix(-4.37114e-08 -1 -1 4.37114e-08 116.645 31.1641)" fill="#5876F7"/>
<circle r="31.1647" transform="matrix(-4.37114e-08 -1 -1 4.37114e-08 116.645 110.412)" fill="#3CCAE3"/>
<rect y="-0.000488281" width="62.3294" height="141.577" rx="31.1647" fill="url(#paint0_linear_740_10142)"/>
<path d="M169.376 29.5056C170.955 29.5056 172.123 29.815 172.88 30.4336C173.637 31.0416 174.016 31.8736 174.016 32.9296C174.016 33.6016 173.851 34.2096 173.52 34.7536C173.189 35.2976 172.693 35.7296 172.032 36.0496C171.371 36.3696 170.555 36.5296 169.584 36.5296C168.784 36.5296 168.011 36.4176 167.264 36.1936C166.517 35.959 165.888 35.639 165.376 35.2336L166.256 33.6176C166.672 33.959 167.168 34.231 167.744 34.4336C168.331 34.6256 168.933 34.7216 169.552 34.7216C170.288 34.7216 170.864 34.5723 171.28 34.2736C171.707 33.9643 171.92 33.543 171.92 33.0096C171.92 32.4336 171.691 32.0016 171.232 31.7136C170.784 31.415 170.011 31.2656 168.912 31.2656H166.208L166.784 25.1696H173.36V26.9136H168.544L168.304 29.5056H169.376ZM183.12 30.4816C183.706 30.7483 184.154 31.111 184.464 31.5696C184.784 32.0176 184.944 32.5456 184.944 33.1536C184.944 33.8363 184.752 34.4336 184.368 34.9456C183.994 35.4576 183.461 35.8523 182.768 36.1296C182.074 36.3963 181.269 36.5296 180.352 36.5296C179.434 36.5296 178.629 36.3963 177.936 36.1296C177.253 35.8523 176.725 35.4576 176.352 34.9456C175.978 34.4336 175.792 33.8363 175.792 33.1536C175.792 32.5456 175.946 32.0176 176.256 31.5696C176.565 31.111 177.008 30.7483 177.584 30.4816C177.136 30.2363 176.789 29.9163 176.544 29.5216C176.309 29.1163 176.192 28.6523 176.192 28.1296C176.192 27.5003 176.362 26.951 176.704 26.4816C177.056 26.0123 177.546 25.6496 178.176 25.3936C178.805 25.1376 179.53 25.0096 180.352 25.0096C181.184 25.0096 181.914 25.1376 182.544 25.3936C183.173 25.6496 183.664 26.0123 184.016 26.4816C184.368 26.951 184.544 27.5003 184.544 28.1296C184.544 28.6523 184.421 29.111 184.176 29.5056C183.93 29.9003 183.578 30.2256 183.12 30.4816ZM180.352 26.6416C179.701 26.6416 179.184 26.7803 178.8 27.0576C178.426 27.335 178.24 27.7243 178.24 28.2256C178.24 28.7056 178.426 29.0896 178.8 29.3776C179.184 29.655 179.701 29.7936 180.352 29.7936C181.013 29.7936 181.536 29.655 181.92 29.3776C182.304 29.0896 182.496 28.7056 182.496 28.2256C182.496 27.7243 182.298 27.335 181.904 27.0576C181.52 26.7803 181.002 26.6416 180.352 26.6416ZM180.352 34.8976C181.12 34.8976 181.728 34.7376 182.176 34.4176C182.624 34.0976 182.848 33.655 182.848 33.0896C182.848 32.535 182.624 32.0976 182.176 31.7776C181.728 31.4576 181.12 31.2976 180.352 31.2976C179.584 31.2976 178.981 31.4576 178.544 31.7776C178.106 32.0976 177.888 32.535 177.888 33.0896C177.888 33.655 178.106 34.0976 178.544 34.4176C178.981 34.7376 179.584 34.8976 180.352 34.8976ZM195.381 25.1696V26.5616L191.029 36.3696H188.805L193.013 26.9296H188.613V28.8336H186.677V25.1696H195.381ZM202.083 29.4576C202.819 29.4576 203.48 29.6016 204.067 29.8896C204.654 30.167 205.112 30.567 205.443 31.0896C205.774 31.6123 205.939 32.215 205.939 32.8976C205.939 33.623 205.758 34.263 205.395 34.8176C205.032 35.3616 204.542 35.783 203.923 36.0816C203.304 36.3803 202.611 36.5296 201.843 36.5296C200.307 36.5296 199.112 36.0496 198.259 35.0896C197.416 34.1296 196.995 32.7536 196.995 30.9616C196.995 29.703 197.224 28.631 197.683 27.7456C198.142 26.8496 198.782 26.1723 199.603 25.7136C200.435 25.2443 201.395 25.0096 202.483 25.0096C203.059 25.0096 203.598 25.0736 204.099 25.2016C204.611 25.319 205.054 25.495 205.427 25.7296L204.659 27.2976C204.104 26.935 203.395 26.7536 202.531 26.7536C201.454 26.7536 200.611 27.0843 200.003 27.7456C199.395 28.407 199.091 29.3616 199.091 30.6096V30.6256C199.422 30.2416 199.843 29.9536 200.355 29.7616C200.867 29.559 201.443 29.4576 202.083 29.4576ZM201.731 34.8976C202.382 34.8976 202.91 34.727 203.315 34.3856C203.72 34.0336 203.923 33.5696 203.923 32.9936C203.923 32.407 203.72 31.943 203.315 31.6016C202.91 31.2603 202.366 31.0896 201.683 31.0896C201.011 31.0896 200.462 31.271 200.035 31.6336C199.619 31.9963 199.411 32.455 199.411 33.0096C199.411 33.5536 199.614 34.007 200.019 34.3696C200.435 34.7216 201.006 34.8976 201.731 34.8976ZM210.546 26.9136V30.3216H215.954V32.0816H210.546V36.3696H208.466V25.1696H216.642V26.9136H210.546ZM227.098 25.1696V26.5616L222.746 36.3696H220.522L224.73 26.9296H220.33V28.8336H218.394V25.1696H227.098Z" fill="#67666F"/>
<path d="M170.64 109.041C171.675 109.169 172.464 109.521 173.008 110.097C173.552 110.673 173.824 111.393 173.824 112.257C173.824 112.908 173.659 113.5 173.328 114.033C172.997 114.567 172.496 114.993 171.824 115.313C171.163 115.623 170.352 115.777 169.392 115.777C168.592 115.777 167.819 115.665 167.072 115.441C166.336 115.207 165.707 114.887 165.184 114.481L166.08 112.865C166.485 113.207 166.976 113.479 167.552 113.681C168.139 113.873 168.741 113.969 169.36 113.969C170.096 113.969 170.672 113.82 171.088 113.521C171.515 113.212 171.728 112.796 171.728 112.273C171.728 111.751 171.525 111.345 171.12 111.057C170.725 110.759 170.117 110.609 169.296 110.609H168.272V109.185L170.816 106.161H165.728V104.417H173.36V105.809L170.64 109.041ZM181.808 115.777C180.678 115.777 179.654 115.532 178.736 115.041C177.83 114.54 177.115 113.852 176.592 112.977C176.08 112.103 175.824 111.116 175.824 110.017C175.824 108.919 176.086 107.932 176.608 107.057C177.131 106.183 177.846 105.5 178.752 105.009C179.67 104.508 180.694 104.257 181.824 104.257C182.742 104.257 183.579 104.417 184.336 104.737C185.094 105.057 185.734 105.521 186.256 106.129L184.912 107.393C184.102 106.519 183.104 106.081 181.92 106.081C181.152 106.081 180.464 106.252 179.856 106.593C179.248 106.924 178.774 107.388 178.432 107.985C178.091 108.583 177.92 109.26 177.92 110.017C177.92 110.775 178.091 111.452 178.432 112.049C178.774 112.647 179.248 113.116 179.856 113.457C180.464 113.788 181.152 113.953 181.92 113.953C183.104 113.953 184.102 113.511 184.912 112.625L186.256 113.905C185.734 114.513 185.088 114.977 184.32 115.297C183.563 115.617 182.726 115.777 181.808 115.777ZM193.839 115.777C192.708 115.777 191.684 115.532 190.767 115.041C189.86 114.54 189.146 113.852 188.623 112.977C188.111 112.103 187.855 111.116 187.855 110.017C187.855 108.919 188.116 107.932 188.639 107.057C189.162 106.183 189.876 105.5 190.783 105.009C191.7 104.508 192.724 104.257 193.855 104.257C194.772 104.257 195.61 104.417 196.367 104.737C197.124 105.057 197.764 105.521 198.287 106.129L196.943 107.393C196.132 106.519 195.135 106.081 193.951 106.081C193.183 106.081 192.495 106.252 191.887 106.593C191.279 106.924 190.804 107.388 190.463 107.985C190.122 108.583 189.951 109.26 189.951 110.017C189.951 110.775 190.122 111.452 190.463 112.049C190.804 112.647 191.279 113.116 191.887 113.457C192.495 113.788 193.183 113.953 193.951 113.953C195.135 113.953 196.132 113.511 196.943 112.625L198.287 113.905C197.764 114.513 197.119 114.977 196.351 115.297C195.594 115.617 194.756 115.777 193.839 115.777ZM207.95 113.025H202.35L201.246 115.617H199.102L204.142 104.417H206.19L211.246 115.617H209.07L207.95 113.025ZM207.262 111.393L205.15 106.497L203.054 111.393H207.262ZM221.71 113.873V115.617H213.31V104.417H221.486V106.161H215.39V109.073H220.798V110.785H215.39V113.873H221.71ZM228.481 109.041C229.515 109.169 230.305 109.521 230.849 110.097C231.393 110.673 231.665 111.393 231.665 112.257C231.665 112.908 231.499 113.5 231.169 114.033C230.838 114.567 230.337 114.993 229.665 115.313C229.003 115.623 228.193 115.777 227.233 115.777C226.433 115.777 225.659 115.665 224.913 115.441C224.177 115.207 223.547 114.887 223.025 114.481L223.921 112.865C224.326 113.207 224.817 113.479 225.393 113.681C225.979 113.873 226.582 113.969 227.201 113.969C227.937 113.969 228.513 113.82 228.929 113.521C229.355 113.212 229.569 112.796 229.569 112.273C229.569 111.751 229.366 111.345 228.961 111.057C228.566 110.759 227.958 110.609 227.137 110.609H226.113V109.185L228.657 106.161H223.569V104.417H231.201V105.809L228.481 109.041Z" fill="#67666F"/>
<defs>
<linearGradient id="paint0_linear_740_10142" x1="31.1647" y1="-0.000488281" x2="31.1647" y2="141.576" gradientUnits="userSpaceOnUse">
<stop stop-color="#5874F7"/>
<stop offset="1" stop-color="#3BCDE2"/>
</linearGradient>
</defs>
</svg>
