<svg width="257" height="142" viewBox="0 0 257 142" fill="none" xmlns="http://www.w3.org/2000/svg">
<circle r="31.1647" transform="matrix(-4.37114e-08 -1 -1 4.37114e-08 117.535 31.1641)" fill="#0E63C4"/>
<circle r="31.1647" transform="matrix(-4.37114e-08 -1 -1 4.37114e-08 117.535 110.412)" fill="#79F3FD"/>
<rect y="-0.000488281" width="63.2198" height="141.577" rx="31.6099" fill="url(#paint0_linear_740_10136)"/>
<path d="M170.263 29.5056C171.841 29.5056 173.009 29.815 173.767 30.4336C174.524 31.0416 174.903 31.8736 174.903 32.9296C174.903 33.6016 174.737 34.2096 174.407 34.7536C174.076 35.2976 173.58 35.7296 172.919 36.0496C172.257 36.3696 171.441 36.5296 170.471 36.5296C169.671 36.5296 168.897 36.4176 168.151 36.1936C167.404 35.959 166.775 35.639 166.263 35.2336L167.143 33.6176C167.559 33.959 168.055 34.231 168.631 34.4336C169.217 34.6256 169.82 34.7216 170.439 34.7216C171.175 34.7216 171.751 34.5723 172.167 34.2736C172.593 33.9643 172.807 33.543 172.807 33.0096C172.807 32.4336 172.577 32.0016 172.119 31.7136C171.671 31.415 170.897 31.2656 169.799 31.2656H167.095L167.671 25.1696H174.247V26.9136H169.431L169.191 29.5056H170.263ZM185.942 34.6256V36.3696H177.542V25.1696H185.718V26.9136H179.622V29.8256H185.03V31.5376H179.622V34.6256H185.942ZM194.038 36.5296C192.908 36.5296 191.884 36.2843 190.966 35.7936C190.06 35.2923 189.345 34.6043 188.822 33.7296C188.31 32.855 188.054 31.8683 188.054 30.7696C188.054 29.671 188.316 28.6843 188.838 27.8096C189.361 26.935 190.076 26.2523 190.982 25.7616C191.9 25.2603 192.924 25.0096 194.054 25.0096C194.972 25.0096 195.809 25.1696 196.566 25.4896C197.324 25.8096 197.964 26.2736 198.486 26.8816L197.142 28.1456C196.332 27.271 195.334 26.8336 194.15 26.8336C193.382 26.8336 192.694 27.0043 192.086 27.3456C191.478 27.6763 191.004 28.1403 190.662 28.7376C190.321 29.335 190.15 30.0123 190.15 30.7696C190.15 31.527 190.321 32.2043 190.662 32.8016C191.004 33.399 191.478 33.8683 192.086 34.2096C192.694 34.5403 193.382 34.7056 194.15 34.7056C195.334 34.7056 196.332 34.263 197.142 33.3776L198.486 34.6576C197.964 35.2656 197.318 35.7296 196.55 36.0496C195.793 36.3696 194.956 36.5296 194.038 36.5296ZM204.679 36.5296C203.783 36.5296 202.983 36.3056 202.279 35.8576C201.575 35.399 201.02 34.7376 200.615 33.8736C200.209 32.999 200.007 31.9643 200.007 30.7696C200.007 29.575 200.209 28.5456 200.615 27.6816C201.02 26.807 201.575 26.1456 202.279 25.6976C202.983 25.239 203.783 25.0096 204.679 25.0096C205.575 25.0096 206.375 25.239 207.079 25.6976C207.793 26.1456 208.353 26.807 208.759 27.6816C209.164 28.5456 209.367 29.575 209.367 30.7696C209.367 31.9643 209.164 32.999 208.759 33.8736C208.353 34.7376 207.793 35.399 207.079 35.8576C206.375 36.3056 205.575 36.5296 204.679 36.5296ZM204.679 34.7216C205.479 34.7216 206.108 34.391 206.567 33.7296C207.036 33.0683 207.271 32.0816 207.271 30.7696C207.271 29.4576 207.036 28.471 206.567 27.8096C206.108 27.1483 205.479 26.8176 204.679 26.8176C203.889 26.8176 203.26 27.1483 202.791 27.8096C202.332 28.471 202.103 29.4576 202.103 30.7696C202.103 32.0816 202.332 33.0683 202.791 33.7296C203.26 34.391 203.889 34.7216 204.679 34.7216ZM212.212 25.1696H217.108C218.303 25.1696 219.364 25.4043 220.292 25.8736C221.22 26.3323 221.94 26.9883 222.452 27.8416C222.964 28.6843 223.22 29.6603 223.22 30.7696C223.22 31.879 222.964 32.8603 222.452 33.7136C221.94 34.5563 221.22 35.2123 220.292 35.6816C219.364 36.1403 218.303 36.3696 217.108 36.3696H212.212V25.1696ZM217.012 34.6096C217.834 34.6096 218.554 34.455 219.172 34.1456C219.802 33.8256 220.282 33.3776 220.612 32.8016C220.954 32.215 221.124 31.5376 221.124 30.7696C221.124 30.0016 220.954 29.3296 220.612 28.7536C220.282 28.167 219.802 27.719 219.172 27.4096C218.554 27.0896 217.834 26.9296 217.012 26.9296H214.292V34.6096H217.012ZM228.151 26.9136V30.3216H233.559V32.0816H228.151V36.3696H226.071V25.1696H234.247V26.9136H228.151Z" fill="#67666F"/>
<path d="M175.207 104.417V105.809L170.855 115.617H168.631L172.839 106.177H168.439V108.081H166.503V104.417H175.207ZM180.909 104.257C182.445 104.257 183.634 104.737 184.477 105.697C185.33 106.657 185.757 108.033 185.757 109.825C185.757 111.084 185.528 112.161 185.069 113.057C184.61 113.943 183.965 114.62 183.133 115.089C182.312 115.548 181.357 115.777 180.269 115.777C179.693 115.777 179.149 115.719 178.637 115.601C178.136 115.473 177.698 115.292 177.325 115.057L178.093 113.489C178.648 113.852 179.357 114.033 180.221 114.033C181.298 114.033 182.141 113.703 182.749 113.041C183.357 112.38 183.661 111.425 183.661 110.177V110.161C183.33 110.545 182.909 110.839 182.397 111.041C181.885 111.233 181.309 111.329 180.669 111.329C179.933 111.329 179.272 111.191 178.685 110.913C178.098 110.625 177.64 110.22 177.309 109.697C176.978 109.175 176.813 108.572 176.813 107.889C176.813 107.164 176.994 106.529 177.357 105.985C177.72 105.431 178.21 105.004 178.829 104.705C179.448 104.407 180.141 104.257 180.909 104.257ZM181.069 109.697C181.741 109.697 182.285 109.516 182.701 109.153C183.128 108.791 183.341 108.332 183.341 107.777C183.341 107.233 183.133 106.785 182.717 106.433C182.312 106.071 181.746 105.889 181.021 105.889C180.37 105.889 179.842 106.065 179.437 106.417C179.032 106.759 178.829 107.217 178.829 107.793C178.829 108.38 179.032 108.844 179.437 109.185C179.842 109.527 180.386 109.697 181.069 109.697ZM190.684 106.161V109.569H196.092V111.329H190.684V115.617H188.604V104.417H196.78V106.161H190.684ZM203.4 109.041C204.434 109.169 205.224 109.521 205.768 110.097C206.312 110.673 206.584 111.393 206.584 112.257C206.584 112.908 206.418 113.5 206.088 114.033C205.757 114.567 205.256 114.993 204.584 115.313C203.922 115.623 203.112 115.777 202.152 115.777C201.352 115.777 200.578 115.665 199.832 115.441C199.096 115.207 198.466 114.887 197.944 114.481L198.84 112.865C199.245 113.207 199.736 113.479 200.312 113.681C200.898 113.873 201.501 113.969 202.12 113.969C202.856 113.969 203.432 113.82 203.848 113.521C204.274 113.212 204.488 112.796 204.488 112.273C204.488 111.751 204.285 111.345 203.88 111.057C203.485 110.759 202.877 110.609 202.056 110.609H201.032V109.185L203.576 106.161H198.488V104.417H206.12V105.809L203.4 109.041ZM211.464 106.161V109.569H216.872V111.329H211.464V115.617H209.384V104.417H217.56V106.161H211.464ZM220.212 104.417H225.108C226.302 104.417 227.364 104.652 228.292 105.121C229.22 105.58 229.94 106.236 230.452 107.089C230.964 107.932 231.22 108.908 231.22 110.017C231.22 111.127 230.964 112.108 230.452 112.961C229.94 113.804 229.22 114.46 228.292 114.929C227.364 115.388 226.302 115.617 225.108 115.617H220.212V104.417ZM225.012 113.857C225.833 113.857 226.553 113.703 227.172 113.393C227.801 113.073 228.281 112.625 228.612 112.049C228.953 111.463 229.124 110.785 229.124 110.017C229.124 109.249 228.953 108.577 228.612 108.001C228.281 107.415 227.801 106.967 227.172 106.657C226.553 106.337 225.833 106.177 225.012 106.177H222.292V113.857H225.012Z" fill="#67666F"/>
<defs>
<linearGradient id="paint0_linear_740_10136" x1="31.6099" y1="-0.000488281" x2="31.6099" y2="141.576" gradientUnits="userSpaceOnUse">
<stop stop-color="#0E63C4"/>
<stop offset="1" stop-color="#7AF4FE"/>
</linearGradient>
</defs>
</svg>
