<svg width="200" height="132" viewBox="0 0 200 132" fill="none" xmlns="http://www.w3.org/2000/svg">
<g opacity="0.3">
<circle cx="5.16893" cy="5.16893" r="5.16893" fill="#F5F6F8"/>
<circle cx="32.2051" cy="5.16893" r="5.16893" fill="#F5F6F8"/>
<circle cx="59.2412" cy="5.16893" r="5.16893" fill="#F5F6F8"/>
<circle cx="86.2764" cy="5.16893" r="5.16893" fill="#F5F6F8"/>
<circle cx="113.312" cy="5.16893" r="5.16893" fill="#F5F6F8"/>
<circle cx="140.349" cy="5.16893" r="5.16893" fill="#F5F6F8"/>
<circle cx="167.385" cy="5.16893" r="5.16893" fill="#F5F6F8"/>
<circle cx="194.42" cy="5.16893" r="5.16893" fill="#F5F6F8"/>
<circle cx="5.16893" cy="29.5014" r="5.16893" fill="#F5F6F8"/>
<circle cx="32.2051" cy="29.5014" r="5.16893" fill="#F5F6F8"/>
<circle cx="59.2412" cy="29.5014" r="5.16893" fill="#F5F6F8"/>
<circle cx="86.2764" cy="29.5014" r="5.16893" fill="#F5F6F8"/>
<circle cx="113.312" cy="29.5014" r="5.16893" fill="#F5F6F8"/>
<circle cx="140.349" cy="29.5014" r="5.16893" fill="#F5F6F8"/>
<circle cx="167.385" cy="29.5014" r="5.16893" fill="#F5F6F8"/>
<circle cx="194.42" cy="29.5014" r="5.16893" fill="#F5F6F8"/>
<circle cx="5.16893" cy="53.8339" r="5.16893" fill="#F5F6F8"/>
<circle cx="32.2051" cy="53.8339" r="5.16893" fill="#F5F6F8"/>
<circle cx="59.2412" cy="53.8339" r="5.16893" fill="#F5F6F8"/>
<circle cx="86.2764" cy="53.8339" r="5.16893" fill="#F5F6F8"/>
<circle cx="113.312" cy="53.8339" r="5.16893" fill="#F5F6F8"/>
<circle cx="140.349" cy="53.8339" r="5.16893" fill="#F5F6F8"/>
<circle cx="167.385" cy="53.8339" r="5.16893" fill="#F5F6F8"/>
<circle cx="194.42" cy="53.8339" r="5.16893" fill="#F5F6F8"/>
<circle cx="5.16893" cy="78.1663" r="5.16893" fill="#F5F6F8"/>
<circle cx="32.2051" cy="78.1663" r="5.16893" fill="#F5F6F8"/>
<circle cx="59.2412" cy="78.1663" r="5.16893" fill="#F5F6F8"/>
<circle cx="86.2764" cy="78.1663" r="5.16893" fill="#F5F6F8"/>
<circle cx="113.312" cy="78.1663" r="5.16893" fill="#F5F6F8"/>
<circle cx="140.349" cy="78.1663" r="5.16893" fill="#F5F6F8"/>
<circle cx="167.385" cy="78.1663" r="5.16893" fill="#F5F6F8"/>
<circle cx="194.42" cy="78.1663" r="5.16893" fill="#F5F6F8"/>
<circle cx="5.16893" cy="102.499" r="5.16893" fill="#F5F6F8"/>
<circle cx="32.2051" cy="102.499" r="5.16893" fill="#F5F6F8"/>
<circle cx="59.2412" cy="102.499" r="5.16893" fill="#F5F6F8"/>
<circle cx="86.2764" cy="102.499" r="5.16893" fill="#F5F6F8"/>
<circle cx="113.312" cy="102.499" r="5.16893" fill="#F5F6F8"/>
<circle cx="140.349" cy="102.499" r="5.16893" fill="#F5F6F8"/>
<circle cx="167.385" cy="102.499" r="5.16893" fill="#F5F6F8"/>
<circle cx="194.42" cy="102.499" r="5.16893" fill="#F5F6F8"/>
<circle cx="5.16893" cy="126.831" r="5.16893" fill="#F5F6F8"/>
<circle cx="32.2051" cy="126.831" r="5.16893" fill="#F5F6F8"/>
<circle cx="59.2412" cy="126.831" r="5.16893" fill="#F5F6F8"/>
<circle cx="86.2764" cy="126.831" r="5.16893" fill="#F5F6F8"/>
<circle cx="113.312" cy="126.831" r="5.16893" fill="#F5F6F8"/>
<circle cx="140.349" cy="126.831" r="5.16893" fill="#F5F6F8"/>
<circle cx="167.385" cy="126.831" r="5.16893" fill="#F5F6F8"/>
<circle cx="194.42" cy="126.831" r="5.16893" fill="#F5F6F8"/>
</g>
</svg>
