<svg width="766" height="766" viewBox="0 0 766 766" fill="none" xmlns="http://www.w3.org/2000/svg">
<g filter="url(#filter0_d_1316_144)">
<circle r="240.573" transform="matrix(0.352205 -0.935923 -0.935923 -0.352205 347.889 341.889)" fill="url(#paint0_linear_1316_144)"/>
</g>
<g opacity="0.18">
<path d="M230.084 466.834H219.334C217.433 466.834 215.61 466.079 214.266 464.735C212.922 463.391 212.167 461.568 212.167 459.667V434.584C212.167 432.683 212.922 430.86 214.266 429.516C215.61 428.172 217.433 427.417 219.334 427.417H230.084M255.167 420.25V405.917C255.167 403.066 254.034 400.332 252.018 398.316C250.002 396.3 247.268 395.167 244.417 395.167L230.084 427.417V466.834H270.504C272.232 466.853 273.909 466.247 275.226 465.128C276.543 464.009 277.411 462.451 277.67 460.742L282.615 428.492C282.771 427.465 282.702 426.416 282.412 425.418C282.123 424.421 281.62 423.498 280.938 422.714C280.256 421.93 279.412 421.304 278.464 420.878C277.516 420.453 276.487 420.239 275.449 420.25H255.167Z" stroke="white" stroke-width="6" stroke-linecap="round" stroke-linejoin="round"/>
</g>
<g opacity="0.18">
<path d="M470.5 413H463C461.674 413 460.402 412.473 459.464 411.536C458.527 410.598 458 409.326 458 408V390.5C458 389.174 458.527 387.902 459.464 386.965C460.402 386.027 461.674 385.5 463 385.5H470.5M488 380.5V370.5C488 368.511 487.21 366.603 485.803 365.197C484.397 363.79 482.489 363 480.5 363L470.5 385.5V413H498.7C499.906 413.014 501.076 412.591 501.995 411.81C502.914 411.029 503.519 409.943 503.7 408.75L507.15 386.25C507.259 385.534 507.21 384.802 507.008 384.106C506.806 383.41 506.455 382.766 505.98 382.219C505.504 381.672 504.915 381.235 504.254 380.938C503.593 380.642 502.875 380.492 502.15 380.5H488Z" stroke="white" stroke-width="6" stroke-linecap="round" stroke-linejoin="round"/>
</g>
<g opacity="0.18">
<path d="M331.541 332.334H314.166C311.094 332.334 308.148 331.104 305.976 328.917C303.803 326.729 302.583 323.761 302.583 320.667V279.834C302.583 276.739 303.803 273.772 305.976 271.584C308.148 269.396 311.094 268.167 314.166 268.167H331.541M372.083 256.5V233.167C372.083 228.526 370.252 224.075 366.994 220.793C363.736 217.511 359.316 215.667 354.708 215.667L331.541 268.167V332.334H396.871C399.665 332.365 402.376 331.379 404.504 329.557C406.633 327.735 408.036 325.199 408.455 322.417L416.447 269.917C416.699 268.245 416.587 266.538 416.119 264.913C415.651 263.289 414.838 261.787 413.736 260.511C412.634 259.235 411.27 258.215 409.738 257.522C408.206 256.83 406.543 256.481 404.864 256.5H372.083Z" stroke="white" stroke-width="6" stroke-linecap="round" stroke-linejoin="round"/>
</g>
<defs>
<filter id="filter0_d_1316_144" x="0.250977" y="0.250732" width="765.277" height="765.277" filterUnits="userSpaceOnUse" color-interpolation-filters="sRGB">
<feFlood flood-opacity="0" result="BackgroundImageFix"/>
<feColorMatrix in="SourceAlpha" type="matrix" values="0 0 0 0 0 0 0 0 0 0 0 0 0 0 0 0 0 0 127 0" result="hardAlpha"/>
<feOffset dx="35" dy="41"/>
<feGaussianBlur stdDeviation="71"/>
<feColorMatrix type="matrix" values="0 0 0 0 0.224888 0 0 0 0 0.191339 0 0 0 0 0.253275 0 0 0 0.3 0"/>
<feBlend mode="normal" in2="BackgroundImageFix" result="effect1_dropShadow_1316_144"/>
<feBlend mode="normal" in="SourceGraphic" in2="effect1_dropShadow_1316_144" result="shape"/>
</filter>
<linearGradient id="paint0_linear_1316_144" x1="74.7152" y1="8.65512" x2="362.795" y2="443.235" gradientUnits="userSpaceOnUse">
<stop stop-color="#F36518"/>
<stop offset="1" stop-color="#FFC060"/>
</linearGradient>
</defs>
</svg>
