<svg width="256" height="142" viewBox="0 0 256 142" fill="none" xmlns="http://www.w3.org/2000/svg">
<circle r="31.1647" transform="matrix(-4.37114e-08 -1 -1 4.37114e-08 116.645 31.1641)" fill="#FE7135"/>
<circle r="31.1647" transform="matrix(-4.37114e-08 -1 -1 4.37114e-08 116.645 110.412)" fill="#FEC850"/>
<rect y="-0.000488281" width="62.3294" height="141.577" rx="31.1647" fill="url(#paint0_linear_740_10130)"/>
<path d="M168.752 26.9136V30.3216H174.16V32.0816H168.752V36.3696H166.672V25.1696H174.848V26.9136H168.752ZM179.579 26.9136V30.3216H184.987V32.0816H179.579V36.3696H177.499V25.1696H185.675V26.9136H179.579ZM195.107 33.7776H189.507L188.403 36.3696H186.259L191.299 25.1696H193.347L198.403 36.3696H196.227L195.107 33.7776ZM194.419 32.1456L192.307 27.2496L190.211 32.1456H194.419ZM207.779 34.6096V36.3696H199.523V34.9776L203.971 30.7536C204.472 30.2736 204.808 29.8576 204.979 29.5056C205.16 29.143 205.251 28.7856 205.251 28.4336C205.251 27.911 205.075 27.511 204.723 27.2336C204.371 26.9563 203.854 26.8176 203.171 26.8176C202.03 26.8176 201.155 27.207 200.547 27.9856L199.091 26.8656C199.528 26.279 200.115 25.8256 200.851 25.5056C201.598 25.175 202.43 25.0096 203.347 25.0096C204.563 25.0096 205.534 25.2976 206.259 25.8736C206.984 26.4496 207.347 27.2336 207.347 28.2256C207.347 28.8336 207.219 29.4043 206.963 29.9376C206.707 30.471 206.216 31.079 205.491 31.7616L202.499 34.6096H207.779ZM214.245 36.5296C213.349 36.5296 212.549 36.3056 211.845 35.8576C211.141 35.399 210.586 34.7376 210.181 33.8736C209.775 32.999 209.573 31.9643 209.573 30.7696C209.573 29.575 209.775 28.5456 210.181 27.6816C210.586 26.807 211.141 26.1456 211.845 25.6976C212.549 25.239 213.349 25.0096 214.245 25.0096C215.141 25.0096 215.941 25.239 216.645 25.6976C217.359 26.1456 217.919 26.807 218.325 27.6816C218.73 28.5456 218.933 29.575 218.933 30.7696C218.933 31.9643 218.73 32.999 218.325 33.8736C217.919 34.7376 217.359 35.399 216.645 35.8576C215.941 36.3056 215.141 36.5296 214.245 36.5296ZM214.245 34.7216C215.045 34.7216 215.674 34.391 216.133 33.7296C216.602 33.0683 216.837 32.0816 216.837 30.7696C216.837 29.4576 216.602 28.471 216.133 27.8096C215.674 27.1483 215.045 26.8176 214.245 26.8176C213.455 26.8176 212.826 27.1483 212.357 27.8096C211.898 28.471 211.669 29.4576 211.669 30.7696C211.669 32.0816 211.898 33.0683 212.357 33.7296C212.826 34.391 213.455 34.7216 214.245 34.7216ZM229.714 30.5456C230.333 30.7483 230.824 31.0896 231.186 31.5696C231.549 32.039 231.73 32.6256 231.73 33.3296C231.73 34.3003 231.357 35.0523 230.61 35.5856C229.864 36.1083 228.776 36.3696 227.346 36.3696H221.778V25.1696H227.026C228.349 25.1696 229.368 25.431 230.082 25.9536C230.797 26.4656 231.154 27.175 231.154 28.0816C231.154 28.6363 231.026 29.127 230.77 29.5536C230.514 29.9803 230.162 30.311 229.714 30.5456ZM223.858 26.8016V29.8896H226.802C227.528 29.8896 228.082 29.7616 228.466 29.5056C228.861 29.239 229.058 28.855 229.058 28.3536C229.058 27.8416 228.861 27.4576 228.466 27.2016C228.082 26.935 227.528 26.8016 226.802 26.8016H223.858ZM227.218 34.7376C228.829 34.7376 229.634 34.199 229.634 33.1216C229.634 32.0443 228.829 31.5056 227.218 31.5056H223.858V34.7376H227.218Z" fill="#67666F"/>
<path d="M168.752 106.161V109.569H174.16V111.329H168.752V115.617H166.672V104.417H174.848V106.161H168.752ZM185.899 113.873V115.617H177.499V104.417H185.675V106.161H179.579V109.073H184.987V110.785H179.579V113.873H185.899ZM193.995 115.777C192.865 115.777 191.841 115.532 190.923 115.041C190.017 114.54 189.302 113.852 188.779 112.977C188.267 112.103 188.011 111.116 188.011 110.017C188.011 108.919 188.273 107.932 188.795 107.057C189.318 106.183 190.033 105.5 190.939 105.009C191.857 104.508 192.881 104.257 194.011 104.257C194.929 104.257 195.766 104.417 196.523 104.737C197.281 105.057 197.921 105.521 198.443 106.129L197.099 107.393C196.289 106.519 195.291 106.081 194.107 106.081C193.339 106.081 192.651 106.252 192.043 106.593C191.435 106.924 190.961 107.388 190.619 107.985C190.278 108.583 190.107 109.26 190.107 110.017C190.107 110.775 190.278 111.452 190.619 112.049C190.961 112.647 191.435 113.116 192.043 113.457C192.651 113.788 193.339 113.953 194.107 113.953C195.291 113.953 196.289 113.511 197.099 112.625L198.443 113.905C197.921 114.513 197.275 114.977 196.507 115.297C195.75 115.617 194.913 115.777 193.995 115.777ZM207.337 109.729C207.924 109.996 208.372 110.359 208.681 110.817C209.001 111.265 209.161 111.793 209.161 112.401C209.161 113.084 208.969 113.681 208.585 114.193C208.212 114.705 207.679 115.1 206.985 115.377C206.292 115.644 205.487 115.777 204.569 115.777C203.652 115.777 202.847 115.644 202.153 115.377C201.471 115.1 200.943 114.705 200.569 114.193C200.196 113.681 200.009 113.084 200.009 112.401C200.009 111.793 200.164 111.265 200.473 110.817C200.783 110.359 201.225 109.996 201.801 109.729C201.353 109.484 201.007 109.164 200.761 108.769C200.527 108.364 200.409 107.9 200.409 107.377C200.409 106.748 200.58 106.199 200.921 105.729C201.273 105.26 201.764 104.897 202.393 104.641C203.023 104.385 203.748 104.257 204.569 104.257C205.401 104.257 206.132 104.385 206.761 104.641C207.391 104.897 207.881 105.26 208.233 105.729C208.585 106.199 208.761 106.748 208.761 107.377C208.761 107.9 208.639 108.359 208.393 108.753C208.148 109.148 207.796 109.473 207.337 109.729ZM204.569 105.889C203.919 105.889 203.401 106.028 203.017 106.305C202.644 106.583 202.457 106.972 202.457 107.473C202.457 107.953 202.644 108.337 203.017 108.625C203.401 108.903 203.919 109.041 204.569 109.041C205.231 109.041 205.753 108.903 206.137 108.625C206.521 108.337 206.713 107.953 206.713 107.473C206.713 106.972 206.516 106.583 206.121 106.305C205.737 106.028 205.22 105.889 204.569 105.889ZM204.569 114.145C205.337 114.145 205.945 113.985 206.393 113.665C206.841 113.345 207.065 112.903 207.065 112.337C207.065 111.783 206.841 111.345 206.393 111.025C205.945 110.705 205.337 110.545 204.569 110.545C203.801 110.545 203.199 110.705 202.761 111.025C202.324 111.345 202.105 111.783 202.105 112.337C202.105 112.903 202.324 113.345 202.761 113.665C203.199 113.985 203.801 114.145 204.569 114.145ZM214.655 108.753C216.233 108.753 217.401 109.063 218.159 109.681C218.916 110.289 219.295 111.121 219.295 112.177C219.295 112.849 219.129 113.457 218.799 114.001C218.468 114.545 217.972 114.977 217.311 115.297C216.649 115.617 215.833 115.777 214.863 115.777C214.063 115.777 213.289 115.665 212.543 115.441C211.796 115.207 211.167 114.887 210.655 114.481L211.535 112.865C211.951 113.207 212.447 113.479 213.023 113.681C213.609 113.873 214.212 113.969 214.831 113.969C215.567 113.969 216.143 113.82 216.559 113.521C216.985 113.212 217.199 112.791 217.199 112.257C217.199 111.681 216.969 111.249 216.511 110.961C216.063 110.663 215.289 110.513 214.191 110.513H211.487L212.063 104.417H218.639V106.161H213.823L213.583 108.753H214.655ZM225.806 115.777C224.91 115.777 224.11 115.553 223.406 115.105C222.702 114.647 222.148 113.985 221.742 113.121C221.337 112.247 221.134 111.212 221.134 110.017C221.134 108.823 221.337 107.793 221.742 106.929C222.148 106.055 222.702 105.393 223.406 104.945C224.11 104.487 224.91 104.257 225.806 104.257C226.702 104.257 227.502 104.487 228.206 104.945C228.921 105.393 229.481 106.055 229.886 106.929C230.292 107.793 230.494 108.823 230.494 110.017C230.494 111.212 230.292 112.247 229.886 113.121C229.481 113.985 228.921 114.647 228.206 115.105C227.502 115.553 226.702 115.777 225.806 115.777ZM225.806 113.969C226.606 113.969 227.236 113.639 227.694 112.977C228.164 112.316 228.398 111.329 228.398 110.017C228.398 108.705 228.164 107.719 227.694 107.057C227.236 106.396 226.606 106.065 225.806 106.065C225.017 106.065 224.388 106.396 223.918 107.057C223.46 107.719 223.23 108.705 223.23 110.017C223.23 111.329 223.46 112.316 223.918 112.977C224.388 113.639 225.017 113.969 225.806 113.969Z" fill="#67666F"/>
<defs>
<linearGradient id="paint0_linear_740_10130" x1="31.1647" y1="-0.000488281" x2="31.1647" y2="141.576" gradientUnits="userSpaceOnUse">
<stop stop-color="#FE7135"/>
<stop offset="1" stop-color="#FECB56"/>
</linearGradient>
</defs>
</svg>
