<svg width="786" height="491" viewBox="0 0 786 491" fill="none" xmlns="http://www.w3.org/2000/svg">
<path fill-rule="evenodd" clip-rule="evenodd" d="M405.161 491L405.161 4.58605e-08L406.21 0L406.21 491L405.161 491Z" fill="#ACB3C6"/>
<path fill-rule="evenodd" clip-rule="evenodd" d="M474.404 305.301L474.404 33.5728L475.453 33.5728L475.453 305.301L474.404 305.301Z" fill="#ACB3C6"/>
<path fill-rule="evenodd" clip-rule="evenodd" d="M490.141 114.357L490.141 4.58598e-08L491.19 0L491.19 114.357L490.141 114.357Z" fill="#ACB3C6"/>
<path fill-rule="evenodd" clip-rule="evenodd" d="M494.338 114.357L494.338 33.5728L495.387 33.5728L495.387 114.357L494.338 114.357Z" fill="#ACB3C6"/>
<path fill-rule="evenodd" clip-rule="evenodd" d="M347.458 491L347.458 117.504L348.507 117.504L348.507 491L347.458 491Z" fill="#ACB3C6"/>
<path d="M188.568 202.12L188.483 166.458L170.992 195.837H164.794L147.388 167.222V202.12H134.481V142.684H145.859L168.105 179.619L190.012 142.684H201.304L201.474 202.12H188.568Z" fill="#2A2E43"/>
<path d="M236.378 202.799C231.567 202.799 227.236 201.809 223.387 199.827C219.595 197.79 216.623 194.988 214.472 191.421C212.321 187.855 211.245 183.808 211.245 179.279C211.245 174.751 212.321 170.704 214.472 167.138C216.623 163.571 219.595 160.798 223.387 158.816C227.236 156.779 231.567 155.76 236.378 155.76C241.19 155.76 245.492 156.779 249.284 158.816C253.077 160.798 256.049 163.571 258.2 167.138C260.351 170.704 261.426 174.751 261.426 179.279C261.426 183.808 260.351 187.855 258.2 191.421C256.049 194.988 253.077 197.79 249.284 199.827C245.492 201.809 241.19 202.799 236.378 202.799ZM236.378 191.931C239.775 191.931 242.548 190.799 244.699 188.535C246.907 186.214 248.011 183.129 248.011 179.279C248.011 175.43 246.907 172.374 244.699 170.109C242.548 167.788 239.775 166.628 236.378 166.628C232.982 166.628 230.18 167.788 227.972 170.109C225.765 172.374 224.661 175.43 224.661 179.279C224.661 183.129 225.765 186.214 227.972 188.535C230.18 190.799 232.982 191.931 236.378 191.931Z" fill="#2A2E43"/>
<path d="M298.045 155.76C303.706 155.76 308.262 157.458 311.715 160.854C315.225 164.251 316.98 169.289 316.98 175.968V202.12H303.734V178.006C303.734 174.383 302.941 171.694 301.356 169.94C299.771 168.128 297.479 167.222 294.479 167.222C291.139 167.222 288.479 168.27 286.497 170.364C284.516 172.402 283.526 175.459 283.526 179.534V202.12H270.28V156.439H282.931V161.788C284.686 159.864 286.865 158.392 289.469 157.373C292.073 156.298 294.932 155.76 298.045 155.76Z" fill="#2A2E43"/>
<path d="M358.449 199.912C357.147 200.875 355.534 201.61 353.61 202.12C351.742 202.573 349.76 202.799 347.666 202.799C342.232 202.799 338.015 201.412 335.015 198.639C332.071 195.865 330.599 191.789 330.599 186.412V167.647H323.552V157.458H330.599V146.335H343.845V157.458H355.223V167.647H343.845V186.242C343.845 188.167 344.326 189.667 345.289 190.742C346.307 191.761 347.723 192.27 349.534 192.27C351.628 192.27 353.411 191.704 354.883 190.572L358.449 199.912Z" fill="#2A2E43"/>
<path d="M381.253 202.799C377.461 202.799 373.753 202.346 370.13 201.441C366.508 200.478 363.621 199.29 361.47 197.874L365.885 188.365C367.923 189.667 370.385 190.742 373.272 191.591C376.159 192.384 378.989 192.78 381.763 192.78C387.367 192.78 390.169 191.393 390.169 188.619C390.169 187.317 389.404 186.383 387.876 185.817C386.348 185.251 383.999 184.77 380.829 184.374C377.093 183.808 374.008 183.157 371.574 182.421C369.14 181.685 367.017 180.383 365.206 178.515C363.451 176.647 362.573 173.987 362.573 170.534C362.573 167.647 363.394 165.1 365.036 162.892C366.734 160.628 369.168 158.873 372.338 157.628C375.564 156.382 379.357 155.76 383.716 155.76C386.942 155.76 390.14 156.128 393.31 156.864C396.537 157.543 399.197 158.505 401.292 159.75L396.876 169.175C392.857 166.911 388.471 165.779 383.716 165.779C380.885 165.779 378.763 166.175 377.347 166.968C375.932 167.76 375.225 168.779 375.225 170.024C375.225 171.44 375.989 172.43 377.517 172.996C379.046 173.562 381.48 174.1 384.819 174.609C388.555 175.232 391.612 175.911 393.99 176.647C396.367 177.327 398.433 178.6 400.188 180.468C401.943 182.336 402.82 184.94 402.82 188.28C402.82 191.11 401.971 193.629 400.273 195.837C398.575 198.044 396.084 199.771 392.801 201.016C389.574 202.205 385.725 202.799 381.253 202.799Z" fill="#2A2E43"/>
<path d="M455.739 179.449C455.739 179.619 455.654 180.808 455.484 183.015H420.927C421.549 185.846 423.021 188.082 425.342 189.723C427.663 191.365 430.55 192.186 434.003 192.186C436.38 192.186 438.474 191.846 440.286 191.167C442.154 190.431 443.88 189.299 445.465 187.77L452.513 195.412C448.211 200.337 441.927 202.799 433.663 202.799C428.512 202.799 423.955 201.809 419.993 199.827C416.03 197.79 412.974 194.988 410.823 191.421C408.672 187.855 407.596 183.808 407.596 179.279C407.596 174.808 408.643 170.789 410.738 167.222C412.889 163.6 415.804 160.798 419.483 158.816C423.219 156.779 427.38 155.76 431.965 155.76C436.437 155.76 440.484 156.722 444.107 158.647C447.73 160.571 450.56 163.345 452.598 166.968C454.692 170.534 455.739 174.694 455.739 179.449ZM432.05 165.779C429.05 165.779 426.531 166.628 424.493 168.326C422.455 170.024 421.21 172.345 420.757 175.289H443.258C442.805 172.402 441.56 170.109 439.522 168.411C437.484 166.656 434.993 165.779 432.05 165.779Z" fill="#2A2E43"/>
<path d="M477.209 162.468C478.794 160.26 480.917 158.59 483.577 157.458C486.294 156.326 489.408 155.76 492.917 155.76V167.987C491.445 167.873 490.455 167.817 489.945 167.817C486.153 167.817 483.181 168.892 481.03 171.043C478.879 173.138 477.803 176.308 477.803 180.553V202.12H464.558V156.439H477.209V162.468Z" fill="#2A2E43"/>
<path d="M513.444 162.468C515.029 160.26 517.152 158.59 519.813 157.458C522.53 156.326 525.643 155.76 529.153 155.76V167.987C527.681 167.873 526.69 167.817 526.181 167.817C522.388 167.817 519.416 168.892 517.265 171.043C515.114 173.138 514.039 176.308 514.039 180.553V202.12H500.793V156.439H513.444V162.468Z" fill="#2A2E43"/>
<path d="M555.205 155.76C562.281 155.76 567.715 157.458 571.507 160.854C575.3 164.194 577.196 169.26 577.196 176.053V202.12H564.799V196.431C562.309 200.676 557.667 202.799 550.874 202.799C547.365 202.799 544.308 202.205 541.704 201.016C539.157 199.827 537.204 198.186 535.846 196.091C534.487 193.997 533.808 191.62 533.808 188.959C533.808 184.714 535.393 181.374 538.563 178.94C541.789 176.506 546.742 175.289 553.422 175.289H563.95C563.95 172.402 563.073 170.194 561.318 168.666C559.563 167.081 556.931 166.288 553.422 166.288C550.988 166.288 548.582 166.685 546.205 167.477C543.884 168.213 541.902 169.232 540.261 170.534L535.506 161.279C537.997 159.524 540.969 158.166 544.421 157.203C547.931 156.241 551.525 155.76 555.205 155.76ZM554.186 193.884C556.45 193.884 558.46 193.374 560.214 192.355C561.969 191.28 563.215 189.723 563.95 187.685V183.015H554.865C549.431 183.015 546.714 184.799 546.714 188.365C546.714 190.063 547.365 191.421 548.667 192.44C550.025 193.403 551.865 193.884 554.186 193.884Z" fill="#2A2E43"/>
<path d="M618.647 199.912C617.345 200.875 615.732 201.61 613.808 202.12C611.94 202.573 609.958 202.799 607.864 202.799C602.43 202.799 598.213 201.412 595.213 198.639C592.269 195.865 590.797 191.789 590.797 186.412V167.647H583.75V157.458H590.797V146.335H604.043V157.458H615.421V167.647H604.043V186.242C604.043 188.167 604.524 189.667 605.487 190.742C606.505 191.761 607.921 192.27 609.732 192.27C611.826 192.27 613.609 191.704 615.081 190.572L618.647 199.912Z" fill="#2A2E43"/>
<path d="M397.839 319.989L390.605 313.406C384.863 317.795 378.146 319.989 370.452 319.989C366.088 319.989 362.156 319.314 358.653 317.964C355.151 316.557 352.395 314.616 350.385 312.14C348.433 309.665 347.457 306.88 347.457 303.785C347.457 300.128 348.491 296.921 350.557 294.164C352.682 291.351 356.069 288.678 360.72 286.146C358.538 283.952 356.959 281.87 355.983 279.901C355.007 277.875 354.519 275.793 354.519 273.655C354.519 270.786 355.294 268.254 356.845 266.059C358.395 263.865 360.577 262.177 363.39 260.996C366.261 259.758 369.562 259.139 373.294 259.139C378.519 259.139 382.71 260.377 385.868 262.852C389.026 265.272 390.605 268.563 390.605 272.727C390.605 275.765 389.658 278.466 387.763 280.829C385.926 283.192 382.94 285.471 378.806 287.665L389.83 297.708C391.151 295.008 392.155 291.941 392.844 288.509L403.61 291.801C402.461 297.033 400.624 301.506 398.098 305.22L405.16 311.634L397.839 319.989ZM373.294 268.085C371.285 268.085 369.677 268.591 368.471 269.604C367.323 270.617 366.749 271.911 366.749 273.486C366.749 274.668 367.065 275.793 367.696 276.862C368.328 277.875 369.562 279.254 371.399 280.998C374.328 279.479 376.366 278.128 377.514 276.947C378.663 275.709 379.237 274.387 379.237 272.98C379.237 271.517 378.72 270.336 377.687 269.435C376.653 268.535 375.189 268.085 373.294 268.085ZM371.399 309.693C375.591 309.693 379.352 308.539 382.682 306.233L368.127 292.898C365.428 294.417 363.505 295.908 362.356 297.371C361.208 298.834 360.634 300.494 360.634 302.35C360.634 304.545 361.61 306.317 363.562 307.667C365.514 309.018 368.127 309.693 371.399 309.693Z" fill="#2A2E43"/>
<path d="M202.676 402.894C202.929 410.647 209.36 415.321 219.021 415.321C229.16 415.321 235.367 410.248 235.367 402.21C235.367 395.967 231.632 392.461 223.066 390.723L218.769 389.839C213.994 388.87 212.028 387.302 212.028 384.766C212.028 381.744 214.837 379.749 219.021 379.749C223.29 379.749 226.295 381.858 226.576 385.364H234.58C234.44 377.811 228.486 372.794 219.021 372.794C210.006 372.794 203.546 377.782 203.546 385.307C203.546 391.435 207.506 395.369 215.595 396.994L219.864 397.849C224.947 398.903 226.857 400.442 226.857 403.15C226.857 406.172 223.768 408.395 219.246 408.395C214.64 408.395 211.214 406.343 210.68 402.894H202.676Z" fill="#2A2E43"/>
<path d="M249.044 414.637V398.447H265.53V391.635H249.044V380.604H267.103V373.507H240.563V414.637H249.044Z" fill="#2A2E43"/>
<path d="M283.533 373.507V414.637H292.015V401.668H299.597C308.135 401.668 314.061 396.024 314.061 387.587C314.061 379.122 308.332 373.507 300.019 373.507H283.533ZM292.015 380.319H297.772C302.631 380.319 305.439 382.941 305.439 387.616C305.439 392.319 302.603 394.941 297.744 394.941H292.015V380.319Z" fill="#2A2E43"/>
<path d="M318.386 414.637H326.587V397.564C326.587 393.26 328.946 390.751 332.991 390.751C334.17 390.751 335.294 390.951 335.968 391.236V383.91C335.406 383.739 334.592 383.597 333.637 383.597C330.098 383.597 327.542 385.706 326.475 389.583H326.306V384.081H318.386V414.637Z" fill="#2A2E43"/>
<path d="M352.145 415.293C361.244 415.293 367.058 409.393 367.058 399.331C367.058 389.412 361.16 383.426 352.145 383.426C343.129 383.426 337.232 389.44 337.232 399.331C337.232 409.364 343.045 415.293 352.145 415.293ZM352.145 408.936C348.1 408.936 345.545 405.488 345.545 399.359C345.545 393.288 348.157 389.782 352.145 389.782C356.133 389.782 358.717 393.288 358.717 399.359C358.717 405.488 356.161 408.936 352.145 408.936Z" fill="#2A2E43"/>
<path d="M383.403 373.507V414.637H398.878C411.039 414.637 418.201 406.97 418.201 393.915C418.201 380.861 411.039 373.507 398.878 373.507H383.403ZM391.885 380.604H397.867C405.338 380.604 409.551 385.336 409.551 393.944C409.551 402.837 405.45 407.511 397.867 407.511H391.885V380.604Z" fill="#2A2E43"/>
<path d="M427.188 379.948C429.575 379.948 431.457 378.01 431.457 375.673C431.457 373.307 429.575 371.397 427.188 371.397C424.801 371.397 422.919 373.307 422.919 375.673C422.919 378.01 424.801 379.948 427.188 379.948ZM423.116 414.637H431.317V384.081H423.116V414.637Z" fill="#2A2E43"/>
<path d="M436.288 393.06C436.288 397.649 439.237 400.613 445.05 401.868L450.19 402.951C453.139 403.635 454.178 404.547 454.178 406.172C454.178 408.167 452.268 409.45 449.179 409.45C445.921 409.45 444.039 408.024 443.534 405.345H435.529C436.063 411.359 440.866 415.293 449.179 415.293C456.93 415.293 462.351 411.331 462.351 405.317C462.351 400.842 459.767 398.333 453.476 396.994L448.336 395.882C445.303 395.226 444.18 394.172 444.18 392.604C444.18 390.58 446.061 389.269 448.898 389.269C451.931 389.269 453.757 390.951 454.009 393.431H461.564C461.396 387.445 456.621 383.426 448.898 383.426C441.231 383.426 436.288 387.245 436.288 393.06Z" fill="#2A2E43"/>
<path d="M483.976 383.597C479.623 383.597 476.281 385.82 474.652 389.412H474.483V384.081H466.395V424.613H474.596V409.507H474.764C476.365 412.955 479.735 415.122 484.117 415.122C491.643 415.122 496.306 409.193 496.306 399.359C496.306 389.497 491.615 383.597 483.976 383.597ZM481.224 408.423C477.208 408.423 474.568 404.889 474.568 399.359C474.568 393.887 477.208 390.267 481.224 390.267C485.324 390.267 487.908 393.83 487.908 399.359C487.908 404.917 485.324 408.423 481.224 408.423Z" fill="#2A2E43"/>
<path d="M500.743 414.637H508.944V373.507H500.743V414.637Z" fill="#2A2E43"/>
<path d="M523.408 415.122C527.171 415.122 530.906 413.212 532.592 409.963H532.76V414.637H540.68V393.63C540.68 387.473 535.653 383.426 527.929 383.426C519.953 383.426 514.982 387.502 514.673 393.431H522.172C522.565 391.179 524.503 389.64 527.564 389.64C530.654 389.64 532.62 391.293 532.62 394.143V396.167L525.037 396.623C517.538 397.079 513.325 400.3 513.325 405.858C513.325 411.359 517.678 415.122 523.408 415.122ZM526.104 409.107C523.323 409.107 521.47 407.682 521.47 405.402C521.47 403.236 523.211 401.839 526.272 401.611L532.62 401.212V403.435C532.62 406.742 529.671 409.107 526.104 409.107Z" fill="#2A2E43"/>
<path d="M549.695 425.953C557.363 425.953 561.154 423.131 563.71 415.293L574.073 384.081H565.423L559.048 407.967H558.879L552.476 384.081H543.489L553.964 414.637C553.992 414.78 553.683 415.977 553.683 416.119C553.122 418.542 551.633 419.511 548.656 419.511C548.347 419.511 546.859 419.483 546.578 419.426V425.868C546.859 425.925 549.386 425.953 549.695 425.953Z" fill="#2A2E43"/>
<path d="M665.052 364.905C665.052 360.764 663.004 358.197 659.732 358.197C657.272 358.197 655.43 360.132 655.236 362.767L655.133 362.767C654.837 360.711 653.137 359.124 651.101 359.124C648.254 359.124 646.464 361.41 646.464 365.053L646.464 373.496L665.052 373.496L665.052 364.905ZM649.362 369.436L649.362 366.102C649.362 364.206 650.212 363.117 651.707 363.117C653.278 363.117 654.193 364.354 654.193 366.518L654.193 369.436L649.362 369.436ZM662.154 369.436L656.756 369.436L656.756 366.034C656.756 363.641 657.684 362.337 659.423 362.337C661.201 362.337 662.154 363.601 662.154 365.94L662.154 369.436Z" fill="#2A2E43"/>
<path d="M665.348 349.606C665.348 345.25 662.682 342.467 658.135 342.467C653.652 342.467 650.947 345.29 650.947 349.606C650.947 353.921 653.665 356.745 658.135 356.745C662.669 356.745 665.348 353.962 665.348 349.606ZM662.476 349.606C662.476 351.542 660.917 352.765 658.148 352.765C655.404 352.765 653.819 351.515 653.819 349.606C653.819 347.697 655.404 346.46 658.148 346.46C660.917 346.46 662.476 347.683 662.476 349.606Z" fill="#2A2E43"/>
<path d="M665.052 340.343L665.052 336.418L646.464 336.418L646.464 340.343L665.052 340.343Z" fill="#2A2E43"/>
<path d="M665.271 328.418C665.271 326.294 664.202 324.627 662.682 323.928L662.682 323.861L665.052 323.861L665.052 319.989L646.464 319.989L646.464 323.915L653.613 323.915L653.613 323.995C652.08 324.695 651.024 326.308 651.024 328.392C651.024 332.008 653.742 334.293 658.122 334.293C662.54 334.293 665.271 332.021 665.271 328.418ZM654.038 327.088C654.038 325.138 655.636 323.888 658.148 323.888C660.672 323.888 662.244 325.138 662.244 327.088C662.244 329.064 660.685 330.274 658.148 330.274C655.623 330.274 654.038 329.064 654.038 327.088Z" fill="#2A2E43"/>
<path d="M576.495 455.255H581.138L585.296 462.764H588.136L583.641 454.887C586.077 454.138 587.544 452.086 587.544 449.443C587.544 446.024 585.094 443.789 581.353 443.789H574.073V462.764H576.495V455.255ZM576.495 445.893H581.03C583.533 445.893 585.041 447.247 585.041 449.522C585.041 451.85 583.628 453.165 581.138 453.165H576.495V445.893Z" fill="#2A2E43"/>
<path d="M599.52 458.845C599.13 460.134 597.825 461.015 596.048 461.015C593.532 461.015 591.957 459.292 591.957 456.676V456.544H601.996V455.676C601.996 451.534 599.668 448.851 595.887 448.851C592.025 448.851 589.549 451.731 589.549 455.979C589.549 460.279 591.984 463.001 595.995 463.001C599.049 463.001 601.418 461.239 601.821 458.845H599.52ZM595.846 450.837C598.053 450.837 599.52 452.468 599.574 454.756H591.971C592.119 452.481 593.653 450.837 595.846 450.837Z" fill="#2A2E43"/>
<path d="M610.138 467.919C614 467.919 616.462 465.749 616.462 462.488V449.088H614.229V451.389H614.188C613.26 449.798 611.618 448.851 609.64 448.851C606.02 448.851 603.678 451.587 603.678 455.873C603.678 460.121 606.02 462.869 609.586 462.869C611.551 462.869 613.206 461.896 614.067 460.41H614.121V462.567C614.121 464.605 612.654 465.973 610.232 465.973C608.483 465.973 607.096 465.144 606.639 463.895H604.23C604.62 466.223 607.056 467.919 610.138 467.919ZM610.057 460.857C607.648 460.857 606.074 458.937 606.074 455.873C606.074 452.81 607.648 450.863 610.057 450.863C612.493 450.863 614.121 452.862 614.121 455.873C614.121 458.885 612.493 460.857 610.057 460.857Z" fill="#2A2E43"/>
<path d="M631.009 449.088H628.668V457.123C628.668 459.45 627.295 460.976 625.021 460.976C622.854 460.976 621.791 459.779 621.791 457.557V449.088H619.45V457.964C619.45 461.068 621.24 463.001 624.294 463.001C626.447 463.001 627.901 462.12 628.735 460.542H628.789V462.764H631.009V449.088Z" fill="#2A2E43"/>
<path d="M634.172 462.764H636.513V443.789H634.172V462.764Z" fill="#2A2E43"/>
<path d="M643.766 463.001C645.65 463.001 647.427 461.975 648.261 460.41H648.315V462.764H650.535V453.309C650.535 450.587 648.463 448.851 645.179 448.851C641.869 448.851 639.797 450.666 639.635 453.033H641.896C642.192 451.692 643.322 450.863 645.126 450.863C647.063 450.863 648.194 451.863 648.194 453.533V454.677L644.184 454.9C640.954 455.084 639.11 456.557 639.11 458.898C639.11 461.357 640.981 463.001 643.766 463.001ZM644.291 461.055C642.609 461.055 641.492 460.2 641.492 458.898C641.492 457.609 642.569 456.794 644.453 456.676L648.194 456.452V457.57C648.194 459.542 646.498 461.055 644.291 461.055Z" fill="#2A2E43"/>
<path d="M653.509 462.764H655.851V454.243C655.851 452.31 657.035 451.034 658.852 451.034C659.417 451.034 659.915 451.1 660.103 451.166V448.943C659.915 448.917 659.565 448.851 659.161 448.851C657.519 448.851 656.228 449.811 655.77 451.324H655.716V449.088H653.509V462.764Z" fill="#2A2E43"/>
<path d="M361.052 461.2H351.376V443.789H349.556V462.837H361.052V461.2Z" fill="#2A2E43"/>
<path d="M364.358 446.257C365.013 446.257 365.549 445.742 365.549 445.095C365.549 444.449 365.013 443.934 364.358 443.934C363.715 443.934 363.18 444.449 363.18 445.095C363.18 445.742 363.715 446.257 364.358 446.257ZM363.474 462.837H365.241V449.108H363.474V462.837Z" fill="#2A2E43"/>
<path d="M374.087 467.919C377.808 467.919 380.177 465.807 380.177 462.612V449.108H378.49V452.012H378.45C377.634 450.138 375.854 448.884 373.632 448.884C370.072 448.884 367.717 451.669 367.717 455.933C367.717 460.183 370.072 462.969 373.592 462.969C375.814 462.969 377.607 461.688 378.357 459.919H378.397V462.678C378.397 464.922 376.777 466.414 374.168 466.414C372.147 466.414 370.661 465.45 370.206 464.104H368.373C368.761 466.269 371.049 467.919 374.087 467.919ZM373.913 461.424C371.29 461.424 369.537 459.259 369.537 455.946C369.537 452.606 371.29 450.428 373.913 450.428C376.59 450.428 378.397 452.646 378.397 455.933C378.397 459.22 376.59 461.424 373.913 461.424Z" fill="#2A2E43"/>
<path d="M383.362 462.837H385.142V454.758C385.142 452.171 386.761 450.442 389.264 450.442C391.619 450.442 392.971 451.88 392.971 454.256V462.837H394.751V453.966C394.751 450.89 392.824 448.884 389.772 448.884C387.551 448.884 385.891 449.953 385.182 451.643H385.142V443.789H383.362V462.837Z" fill="#2A2E43"/>
<path d="M398.485 445.676V449.108H396.411V450.56H398.485V459.457C398.485 461.939 399.422 462.916 401.751 462.916C402.125 462.916 402.875 462.876 403.062 462.837V461.345C402.955 461.372 402.286 461.398 402.098 461.398C400.814 461.398 400.252 460.791 400.252 459.378V450.56H402.995V449.108H400.252V445.676H398.485Z" fill="#2A2E43"/>
<path d="M143.924 468.518H145.887C145.958 469.121 146.275 469.605 146.837 469.971C147.4 470.337 148.105 470.519 148.951 470.519C149.757 470.519 150.42 470.342 150.941 469.988C151.468 469.633 151.732 469.183 151.732 468.637C151.732 468.164 151.545 467.778 151.172 467.48C150.799 467.176 150.198 466.928 149.369 466.737L147.708 466.357C146.529 466.086 145.659 465.684 145.096 465.149C144.54 464.614 144.261 463.922 144.261 463.072C144.261 462.025 144.694 461.172 145.558 460.514C146.429 459.855 147.551 459.526 148.925 459.526C150.275 459.526 151.376 459.855 152.229 460.514C153.082 461.167 153.523 462.019 153.552 463.072H151.616C151.557 462.47 151.281 461.994 150.79 461.645C150.304 461.296 149.674 461.122 148.898 461.122C148.128 461.122 147.5 461.29 147.015 461.628C146.535 461.966 146.295 462.405 146.295 462.945C146.295 463.373 146.476 463.725 146.837 464.001C147.198 464.271 147.794 464.505 148.623 464.702L150.035 465.031C151.35 465.324 152.297 465.737 152.877 466.272C153.464 466.801 153.757 467.513 153.757 468.409C153.757 469.546 153.313 470.449 152.424 471.119C151.536 471.783 150.331 472.115 148.809 472.115C147.382 472.115 146.224 471.792 145.336 471.144C144.454 470.491 143.983 469.616 143.924 468.518Z" fill="#2A2E43"/>
<path d="M160.845 464.98C160.424 464.553 159.883 464.339 159.219 464.339C158.556 464.339 158.005 464.555 157.567 464.989C157.129 465.417 156.886 465.971 156.839 466.652H161.511C161.487 465.965 161.265 465.408 160.845 464.98ZM161.502 469.304H163.323C163.187 470.12 162.749 470.787 162.009 471.305C161.268 471.823 160.365 472.082 159.299 472.082C157.931 472.082 156.854 471.673 156.066 470.857C155.284 470.035 154.894 468.921 154.894 467.513C154.894 466.117 155.284 464.994 156.066 464.144C156.854 463.294 157.905 462.869 159.219 462.869C160.51 462.869 161.535 463.272 162.293 464.077C163.051 464.876 163.43 465.951 163.43 467.302V467.927H156.83V468.037C156.83 468.814 157.058 469.436 157.514 469.903C157.97 470.37 158.58 470.604 159.344 470.604C159.883 470.604 160.345 470.486 160.729 470.249C161.114 470.013 161.372 469.698 161.502 469.304Z" fill="#2A2E43"/>
<path d="M164.922 471.913V463.03H166.752V464.524H166.796C167.009 464.023 167.35 463.624 167.818 463.325C168.285 463.027 168.83 462.878 169.452 462.878C170.097 462.878 170.645 463.03 171.095 463.334C171.551 463.638 171.874 464.066 172.063 464.617H172.108C172.351 464.077 172.73 463.652 173.245 463.342C173.766 463.033 174.358 462.878 175.021 462.878C175.945 462.878 176.685 463.145 177.242 463.68C177.799 464.215 178.077 464.924 178.077 465.808V471.913H176.149V466.247C176.149 465.673 175.992 465.228 175.679 464.913C175.371 464.598 174.932 464.44 174.364 464.44C173.796 464.44 173.331 464.62 172.969 464.98C172.614 465.341 172.437 465.802 172.437 466.365V471.913H170.553V466.112C170.553 465.6 170.394 465.194 170.074 464.896C169.754 464.592 169.325 464.44 168.786 464.44C168.217 464.44 167.75 464.629 167.382 465.006C167.021 465.377 166.841 465.85 166.841 466.424V471.913H164.922Z" fill="#2A2E43"/>
<path d="M179.995 471.913V463.03H181.914V471.913H179.995ZM181.745 461.425C181.526 461.628 181.263 461.729 180.955 461.729C180.647 461.729 180.383 461.628 180.164 461.425C179.951 461.223 179.844 460.978 179.844 460.691C179.844 460.398 179.951 460.15 180.164 459.948C180.383 459.745 180.647 459.644 180.955 459.644C181.269 459.644 181.532 459.745 181.745 459.948C181.964 460.15 182.074 460.398 182.074 460.691C182.074 460.978 181.964 461.223 181.745 461.425Z" fill="#2A2E43"/>
<path d="M189.251 471.913H184.108V459.728H189.224C190.361 459.728 191.273 460.007 191.96 460.564C192.647 461.116 192.991 461.851 192.991 462.768C192.991 463.415 192.768 463.995 192.324 464.507C191.886 465.014 191.347 465.318 190.708 465.419V465.487C191.584 465.583 192.289 465.904 192.822 466.45C193.355 466.99 193.621 467.663 193.621 468.468C193.621 469.543 193.233 470.387 192.458 471.001C191.682 471.609 190.613 471.913 189.251 471.913ZM186.098 461.274V464.913H188.327C189.186 464.913 189.846 464.75 190.308 464.423C190.77 464.097 191.001 463.632 191.001 463.03C191.001 462.467 190.805 462.033 190.415 461.729C190.024 461.425 189.467 461.274 188.745 461.274H186.098ZM186.098 470.368H188.842C189.737 470.368 190.418 470.196 190.885 469.852C191.353 469.509 191.587 469.008 191.587 468.349C191.587 467.021 190.634 466.357 188.727 466.357H186.098V470.368Z" fill="#2A2E43"/>
<path d="M202.344 470.849C201.538 471.671 200.464 472.082 199.119 472.082C197.775 472.082 196.7 471.671 195.895 470.849C195.09 470.021 194.687 468.895 194.687 467.471C194.687 466.053 195.09 464.932 195.895 464.111C196.7 463.283 197.775 462.869 199.119 462.869C200.464 462.869 201.538 463.283 202.344 464.111C203.149 464.932 203.552 466.053 203.552 467.471C203.552 468.895 203.149 470.021 202.344 470.849ZM199.119 470.579C199.883 470.579 200.487 470.306 200.931 469.76C201.376 469.214 201.598 468.451 201.598 467.471C201.598 466.497 201.373 465.737 200.923 465.191C200.478 464.645 199.877 464.372 199.119 464.372C198.361 464.372 197.757 464.645 197.307 465.191C196.863 465.737 196.641 466.497 196.641 467.471C196.641 468.451 196.863 469.214 197.307 469.76C197.757 470.306 198.361 470.579 199.119 470.579Z" fill="#2A2E43"/>
<path d="M205.097 471.913V463.03H207.016V471.913H205.097ZM206.847 461.425C206.628 461.628 206.365 461.729 206.057 461.729C205.749 461.729 205.485 461.628 205.266 461.425C205.053 461.223 204.946 460.978 204.946 460.691C204.946 460.398 205.053 460.15 205.266 459.948C205.485 459.745 205.749 459.644 206.057 459.644C206.37 459.644 206.634 459.745 206.847 459.948C207.066 460.15 207.176 460.398 207.176 460.691C207.176 460.978 207.066 461.223 206.847 461.425Z" fill="#2A2E43"/>
<path d="M212.488 472.065C211.303 472.065 210.353 471.648 209.636 470.815C208.92 469.982 208.561 468.867 208.561 467.471C208.561 466.075 208.917 464.963 209.627 464.136C210.344 463.303 211.291 462.886 212.47 462.886C213.127 462.886 213.713 463.033 214.228 463.325C214.744 463.612 215.134 464.006 215.401 464.507H215.437V459.728H217.364V471.913H215.499V470.401H215.463C215.185 470.919 214.785 471.327 214.264 471.626C213.749 471.918 213.157 472.065 212.488 472.065ZM212.994 464.423C212.236 464.423 211.635 464.699 211.191 465.251C210.747 465.797 210.525 466.537 210.525 467.471C210.525 468.411 210.747 469.154 211.191 469.7C211.635 470.246 212.236 470.519 212.994 470.519C213.734 470.519 214.329 470.244 214.779 469.692C215.229 469.135 215.454 468.394 215.454 467.471C215.454 466.554 215.229 465.816 214.779 465.259C214.329 464.702 213.734 464.423 212.994 464.423Z" fill="#2A2E43"/>
<path d="M709.962 414.412V396.483H716.777V395.528H702.068V396.483H708.896V414.412H709.962Z" fill="#2A2E43"/>
<path d="M718.747 414.412H719.786V406.298C719.786 403.472 721.688 401.509 724.441 401.509C727.045 401.509 728.759 403.118 728.759 405.736V414.412H729.798V405.605C729.798 402.569 727.747 400.593 724.671 400.593C722.309 400.593 720.447 401.875 719.826 403.76H719.786V395.528H718.747V414.412Z" fill="#2A2E43"/>
<path d="M733.482 397.452C733.941 397.452 734.305 397.098 734.305 396.653C734.305 396.208 733.941 395.855 733.482 395.855C733.037 395.855 732.645 396.208 732.645 396.653C732.645 397.098 733.037 397.452 733.482 397.452ZM732.956 414.412H734.008V400.802H732.956V414.412Z" fill="#2A2E43"/>
<path d="M737.233 414.412H738.286V406.285C738.286 403.459 740.148 401.509 742.86 401.509C745.465 401.509 747.178 403.092 747.178 405.723V414.412H748.231V405.592C748.231 402.529 746.193 400.593 743.103 400.593C740.715 400.593 738.88 401.888 738.245 403.76H738.218V400.802H737.233V414.412Z" fill="#2A2E43"/>
<path d="M45.8915 131.697C46.1573 130.842 46.6049 130.172 47.2344 129.687C47.8499 129.203 48.6123 128.96 49.5215 128.96C50.8085 128.96 51.8017 129.473 52.5011 130.5C53.1866 131.511 53.5293 132.993 53.5293 134.946L53.5293 142.684L38.8412 142.684L38.8412 135.373C38.8412 133.549 39.184 132.153 39.8694 131.184C40.5548 130.2 41.4851 129.709 42.6601 129.709C43.3736 129.709 44.01 129.887 44.5696 130.243C45.1291 130.585 45.5698 131.07 45.8915 131.697ZM41.4012 139.242L44.8633 139.242L44.8633 135.801C44.8633 134.946 44.7165 134.297 44.4227 133.856C44.1289 133.414 43.6953 133.193 43.1218 133.193C42.5482 133.193 42.1216 133.414 41.8418 133.856C41.548 134.297 41.4012 134.946 41.4012 135.801L41.4012 139.242ZM50.9694 135.202C50.9694 134.29 50.8225 133.606 50.5287 133.15C50.235 132.68 49.7803 132.445 49.1648 132.445C47.9478 132.445 47.3393 133.364 47.3393 135.202L47.3393 139.242L50.9694 139.242L50.9694 135.202Z" fill="#2A2E43"/>
<path d="M53.6971 121.102C53.6971 122.313 53.4523 123.403 52.9627 124.372C52.4592 125.327 51.7667 126.075 50.8854 126.617C50.0042 127.158 49.004 127.429 47.8849 127.429C46.7658 127.429 45.7656 127.158 44.8843 126.617C44.003 126.075 43.3176 125.327 42.828 124.372C42.3244 123.403 42.0726 122.313 42.0726 121.102C42.0726 119.89 42.3244 118.807 42.828 117.852C43.3176 116.898 44.003 116.149 44.8843 115.608C45.7656 115.066 46.7658 114.796 47.8849 114.796C49.004 114.796 50.0042 115.066 50.8854 115.608C51.7667 116.149 52.4592 116.898 52.9627 117.852C53.4523 118.807 53.6971 119.89 53.6971 121.102ZM51.0113 121.102C51.0113 120.247 50.7316 119.548 50.172 119.007C49.5985 118.451 48.8361 118.173 47.8849 118.173C46.9337 118.173 46.1783 118.451 45.6187 119.007C45.0452 119.548 44.7584 120.247 44.7584 121.102C44.7584 121.957 45.0452 122.662 45.6187 123.218C46.1783 123.774 46.9337 124.051 47.8849 124.051C48.8361 124.051 49.5985 123.774 50.172 123.218C50.7316 122.662 51.0113 121.957 51.0113 121.102Z" fill="#2A2E43"/>
<path d="M37.96 112.567L37.96 109.232L53.5293 109.232L53.5293 112.567L37.96 112.567Z" fill="#2A2E43"/>
<path d="M37.96 94.4232L53.5293 94.4232L53.5293 97.6082L52.2283 97.6082C53.2075 98.4347 53.6971 99.6318 53.6971 101.199C53.6971 102.282 53.4593 103.266 52.9837 104.149C52.5081 105.019 51.8297 105.703 50.9484 106.201C50.0671 106.7 49.0459 106.949 47.8849 106.949C46.7238 106.949 45.7027 106.7 44.8214 106.201C43.9401 105.703 43.2616 105.019 42.786 104.149C42.3104 103.266 42.0726 102.282 42.0726 101.199C42.0726 99.7315 42.5272 98.5844 43.4365 97.7578L37.96 97.7578L37.96 94.4232ZM51.0113 100.622C51.0113 99.7814 50.7316 99.0831 50.172 98.5273C49.5985 97.9716 48.8361 97.6937 47.8849 97.6937C46.9337 97.6937 46.1783 97.9716 45.6187 98.5273C45.0452 99.0831 44.7584 99.7814 44.7584 100.622C44.7584 101.477 45.0452 102.183 45.6187 102.738C46.1783 103.294 46.9337 103.572 47.8849 103.572C48.8361 103.572 49.5985 103.294 50.172 102.738C50.7316 102.183 51.0113 101.477 51.0113 100.622Z" fill="#2A2E43"/>
<path d="M149.2 95.3319L149.177 83.4105L143.439 93.345L142.396 93.345L136.659 83.4806L136.659 95.3319L134.481 95.3319L134.481 78.9691L136.341 78.9691L142.963 90.4698L149.494 78.9691L151.354 78.9691L151.377 95.3319L149.2 95.3319Z" fill="#2A2E43"/>
<path d="M166.686 89.2076C166.686 89.379 166.671 89.6049 166.641 89.8855L156.889 89.8854C157.025 90.9763 157.486 91.8568 158.273 92.5269C159.074 93.1814 160.064 93.5086 161.244 93.5086C162.68 93.5086 163.836 93.01 164.713 92.0126L165.915 93.4619C165.371 94.1164 164.691 94.6151 163.874 94.9579C163.073 95.3008 162.173 95.4722 161.175 95.4722C159.905 95.4722 158.779 95.2073 157.796 94.6774C156.814 94.132 156.05 93.3762 155.506 92.41C154.977 91.4438 154.712 90.353 154.712 89.1374C154.712 87.9375 154.969 86.8544 155.483 85.8883C156.012 84.9221 156.731 84.1741 157.638 83.6442C158.56 83.0988 159.596 82.8261 160.745 82.8261C161.894 82.8261 162.914 83.0988 163.806 83.6442C164.713 84.1741 165.416 84.9221 165.915 85.8883C166.429 86.8544 166.686 87.9609 166.686 89.2076ZM160.745 84.7195C159.701 84.7195 158.824 85.0467 158.114 85.7012C157.418 86.3558 157.01 87.2129 156.889 88.2725L164.6 88.2725C164.479 87.2284 164.063 86.3791 163.353 85.7246C162.657 85.0545 161.788 84.7195 160.745 84.7195Z" fill="#2A2E43"/>
<path d="M181.049 77.9874L181.049 95.3319L178.962 95.3319L178.962 93.3684C178.478 94.0541 177.866 94.5761 177.125 94.9345C176.384 95.293 175.568 95.4722 174.676 95.4722C173.512 95.4722 172.469 95.2073 171.546 94.6774C170.624 94.1476 169.898 93.4074 169.369 92.4567C168.855 91.4906 168.598 90.3841 168.598 89.1374C168.598 87.8907 168.855 86.7921 169.369 85.8415C169.898 84.8909 170.624 84.1507 171.546 83.6208C172.469 83.091 173.512 82.8261 174.676 82.8261C175.538 82.8261 176.331 82.9975 177.057 83.3403C177.783 83.6676 178.388 84.1585 178.871 84.813L178.871 77.9874L181.049 77.9874ZM174.857 93.5086C175.613 93.5086 176.301 93.3294 176.921 92.971C177.541 92.597 178.025 92.0827 178.372 91.4282C178.72 90.7581 178.894 89.9945 178.894 89.1374C178.894 88.2803 178.72 87.5245 178.372 86.87C178.025 86.1999 177.541 85.6857 176.921 85.3272C176.301 84.9688 175.613 84.7896 174.857 84.7896C174.086 84.7896 173.391 84.9688 172.771 85.3272C172.166 85.6857 171.682 86.1999 171.32 86.87C170.972 87.5245 170.798 88.2803 170.798 89.1374C170.798 89.9945 170.972 90.7581 171.32 91.4282C171.682 92.0827 172.166 92.597 172.771 92.971C173.391 93.3294 174.086 93.5086 174.857 93.5086Z" fill="#2A2E43"/>
<path d="M185.168 82.943L187.345 82.943L187.345 95.3319L185.168 95.3319L185.168 82.943ZM186.256 80.5587C185.833 80.5587 185.478 80.4184 185.19 80.1379C184.918 79.8574 184.782 79.5146 184.782 79.1094C184.782 78.7042 184.918 78.3614 185.19 78.0809C185.478 77.7848 185.833 77.6367 186.256 77.6367C186.68 77.6367 187.027 77.777 187.3 78.0575C187.587 78.3224 187.73 78.6575 187.73 79.0626C187.73 79.4834 187.587 79.8418 187.3 80.1379C187.027 80.4184 186.68 80.5587 186.256 80.5587Z" fill="#2A2E43"/>
<path d="M202.705 82.943L202.705 95.3319L200.641 95.3319L200.641 93.4619C200.203 94.1008 199.621 94.5995 198.895 94.9579C198.184 95.3008 197.406 95.4722 196.559 95.4722C194.956 95.4722 193.694 95.0203 192.772 94.1164C191.849 93.197 191.388 91.849 191.388 90.0725L191.388 82.943L193.565 82.943L193.565 89.8153C193.565 91.0153 193.845 91.9269 194.405 92.5503C194.964 93.158 195.765 93.4619 196.808 93.4619C197.957 93.4619 198.865 93.1035 199.53 92.3866C200.195 91.6698 200.528 90.6568 200.528 89.3478L200.528 82.943L202.705 82.943Z" fill="#2A2E43"/>
<path d="M221.885 82.8261C223.397 82.8261 224.591 83.278 225.468 84.1819C226.36 85.0857 226.806 86.4259 226.806 88.2024L226.806 95.3319L224.629 95.3319L224.629 88.4596C224.629 87.2596 224.357 86.3558 223.813 85.748C223.284 85.1402 222.52 84.8364 221.522 84.8364C220.419 84.8364 219.542 85.1948 218.892 85.9116C218.241 86.6129 217.916 87.6258 217.916 88.9504L217.916 95.3319L215.739 95.3319L215.739 88.4596C215.739 87.2596 215.467 86.3558 214.923 85.748C214.394 85.1402 213.63 84.8364 212.632 84.8364C211.529 84.8364 210.652 85.1948 210.002 85.9116C209.352 86.6129 209.027 87.6258 209.027 88.9504L209.027 95.3319L206.849 95.3319L206.849 82.943L208.936 82.943L208.936 84.7896C209.374 84.1507 209.949 83.6676 210.659 83.3403C211.37 82.9975 212.179 82.8261 213.086 82.8261C214.023 82.8261 214.855 83.0209 215.581 83.4105C216.306 83.8001 216.866 84.3689 217.259 85.1169C217.712 84.4 218.34 83.839 219.141 83.4338C219.957 83.0287 220.872 82.8261 221.885 82.8261Z" fill="#2A2E43"/>
<path d="M247.77 290.007L243.004 293.371C243.046 293.749 243.067 294.142 243.067 294.548L243.067 298.5L247.77 298.5L247.77 300.056L232.941 300.056L232.941 294.548C232.941 292.67 233.393 291.198 234.297 290.133C235.201 289.068 236.444 288.536 238.026 288.536C239.184 288.536 240.165 288.83 240.97 289.419C241.761 289.993 242.333 290.82 242.686 291.899L247.77 288.304L247.77 290.007ZM241.733 294.59C241.733 293.132 241.408 292.018 240.758 291.248C240.109 290.477 239.198 290.091 238.026 290.091C236.825 290.091 235.907 290.477 235.272 291.248C234.622 292.018 234.297 293.132 234.297 294.59L234.297 298.5L241.733 298.5L241.733 294.59Z" fill="#2A2E43"/>
<path d="M242.665 275.551L242.665 284.801C243.823 284.717 244.762 284.276 245.482 283.477C246.188 282.678 246.541 281.669 246.541 280.45C246.541 279.763 246.421 279.132 246.181 278.558C245.927 277.983 245.56 277.485 245.08 277.065L246.054 276.224C246.647 276.715 247.099 277.331 247.41 278.074C247.721 278.803 247.876 279.609 247.876 280.492C247.876 281.627 247.636 282.636 247.156 283.519C246.661 284.388 245.984 285.067 245.122 285.558C244.261 286.048 243.286 286.294 242.199 286.294C241.111 286.294 240.137 286.062 239.275 285.6C238.414 285.123 237.743 284.479 237.263 283.666C236.783 282.839 236.543 281.914 236.543 280.891C236.543 279.868 236.783 278.95 237.263 278.137C237.743 277.324 238.414 276.687 239.275 276.224C240.123 275.762 241.097 275.53 242.199 275.53L242.665 275.551ZM237.835 280.891C237.835 281.956 238.181 282.853 238.873 283.582C239.551 284.297 240.44 284.703 241.542 284.801L241.542 276.96C240.44 277.058 239.551 277.471 238.873 278.2C238.181 278.915 237.835 279.812 237.835 280.891Z" fill="#2A2E43"/>
<path d="M236.627 262.255L246.414 262.255C248.307 262.255 249.705 262.717 250.609 263.642C251.527 264.553 251.986 265.934 251.986 267.784C251.986 268.807 251.83 269.781 251.519 270.706C251.223 271.617 250.806 272.359 250.27 272.934L249.126 272.177C249.606 271.645 249.98 271 250.248 270.243C250.517 269.472 250.651 268.666 250.651 267.826C250.651 266.424 250.319 265.394 249.655 264.735C249.006 264.077 247.989 263.747 246.605 263.747L245.186 263.747C245.892 264.21 246.428 264.82 246.796 265.576C247.163 266.319 247.346 267.146 247.346 268.057C247.346 269.094 247.12 270.04 246.668 270.895C246.202 271.736 245.56 272.401 244.741 272.892C243.908 273.368 242.968 273.607 241.923 273.607C240.878 273.607 239.946 273.368 239.127 272.892C238.308 272.401 237.672 271.736 237.221 270.895C236.769 270.054 236.543 269.108 236.543 268.057C236.543 267.118 236.733 266.27 237.115 265.513C237.496 264.756 238.047 264.147 238.767 263.684L236.627 263.684L236.627 262.255ZM246.012 267.91C246.012 267.111 245.842 266.389 245.503 265.744C245.15 265.1 244.663 264.602 244.042 264.252C243.42 263.888 242.714 263.705 241.923 263.705C241.132 263.705 240.433 263.888 239.826 264.252C239.205 264.602 238.725 265.1 238.386 265.744C238.033 266.375 237.856 267.097 237.856 267.91C237.856 268.709 238.026 269.43 238.364 270.075C238.703 270.706 239.184 271.203 239.805 271.568C240.426 271.918 241.132 272.093 241.923 272.093C242.714 272.093 243.42 271.918 244.042 271.568C244.663 271.203 245.15 270.706 245.503 270.075C245.842 269.43 246.012 268.709 246.012 267.91Z" fill="#2A2E43"/>
<path d="M236.627 248.117L247.77 248.117L247.77 249.546L245.736 249.546C246.414 249.939 246.944 250.478 247.325 251.165C247.692 251.852 247.876 252.636 247.876 253.519C247.876 254.963 247.473 256.105 246.668 256.946C245.849 257.773 244.656 258.186 243.088 258.186L236.627 258.186L236.627 256.694L242.94 256.694C244.112 256.694 245.002 256.406 245.609 255.832C246.217 255.257 246.52 254.437 246.52 253.372C246.52 252.209 246.167 251.291 245.461 250.618C244.741 249.946 243.745 249.609 242.474 249.609L236.627 249.609L236.627 248.117Z" fill="#2A2E43"/>
<path d="M232.052 243.936L232.052 242.444L247.77 242.444L247.77 243.936L232.052 243.936Z" fill="#2A2E43"/>
<path d="M236.543 234.423C236.543 232.979 236.91 231.872 237.644 231.102C238.364 230.331 239.438 229.945 240.864 229.945L247.77 229.945L247.77 231.375L246.033 231.375C246.612 231.711 247.064 232.209 247.389 232.867C247.713 233.512 247.876 234.283 247.876 235.18C247.876 236.413 247.579 237.394 246.986 238.123C246.393 238.852 245.609 239.216 244.635 239.216C243.689 239.216 242.926 238.88 242.347 238.207C241.768 237.52 241.478 236.434 241.478 234.949L241.478 231.438L240.801 231.438C239.84 231.438 239.113 231.704 238.619 232.237C238.11 232.769 237.856 233.547 237.856 234.57C237.856 235.271 237.976 235.944 238.216 236.588C238.442 237.233 238.76 237.786 239.169 238.249L238.047 238.922C237.567 238.361 237.199 237.688 236.945 236.904C236.677 236.119 236.543 235.292 236.543 234.423ZM246.69 234.949C246.69 234.108 246.499 233.386 246.118 232.783C245.722 232.181 245.157 231.732 244.423 231.438L242.601 231.438L242.601 234.906C242.601 236.798 243.265 237.744 244.592 237.744C245.242 237.744 245.758 237.499 246.139 237.009C246.506 236.518 246.69 235.831 246.69 234.949Z" fill="#2A2E43"/>
<path d="M238.809 224.462C238.061 224.112 237.496 223.593 237.115 222.906C236.733 222.206 236.543 221.344 236.543 220.321L238.004 220.321L237.983 220.678C237.983 221.841 238.343 222.752 239.064 223.411C239.784 224.07 240.794 224.399 242.093 224.399L247.77 224.399L247.77 225.891L236.627 225.891L236.627 224.462L238.809 224.462Z" fill="#2A2E43"/>
<path d="M652.247 142.684C651.115 142.684 650.019 142.519 648.957 142.19C647.91 141.861 647.078 141.424 646.464 140.881L647.407 138.713C648.007 139.199 648.741 139.6 649.607 139.915C650.487 140.215 651.367 140.365 652.247 140.365C653.336 140.365 654.146 140.187 654.677 139.829C655.222 139.471 655.494 138.999 655.494 138.412C655.494 137.983 655.341 137.632 655.033 137.36C654.74 137.074 654.363 136.852 653.902 136.695C653.441 136.537 652.812 136.359 652.016 136.158C650.899 135.886 649.991 135.614 649.292 135.342C648.608 135.071 648.014 134.648 647.511 134.076C647.023 133.489 646.778 132.702 646.778 131.715C646.778 130.885 646.995 130.133 647.428 129.461C647.875 128.774 648.538 128.23 649.418 127.829C650.312 127.429 651.402 127.228 652.687 127.228C653.581 127.228 654.461 127.343 655.327 127.572C656.193 127.801 656.94 128.13 657.569 128.559L656.709 130.727C656.067 130.341 655.396 130.048 654.698 129.847C654 129.647 653.322 129.547 652.666 129.547C651.59 129.547 650.787 129.733 650.256 130.105C649.739 130.477 649.481 130.971 649.481 131.586C649.481 132.015 649.628 132.366 649.921 132.638C650.228 132.91 650.612 133.124 651.073 133.282C651.534 133.439 652.163 133.618 652.959 133.818C654.049 134.076 654.943 134.348 655.641 134.634C656.339 134.906 656.933 135.328 657.422 135.901C657.925 136.473 658.176 137.246 658.176 138.219C658.176 139.049 657.953 139.8 657.506 140.473C657.073 141.145 656.409 141.682 655.515 142.083C654.621 142.483 653.532 142.684 652.247 142.684Z" fill="#2A2E43"/>
<path d="M671.144 136.802C671.144 136.988 671.13 137.253 671.102 137.596H662.323C662.476 138.441 662.874 139.113 663.517 139.614C664.173 140.101 664.984 140.344 665.947 140.344C667.177 140.344 668.189 139.929 668.986 139.099L670.389 140.752C669.886 141.367 669.251 141.832 668.483 142.147C667.714 142.462 666.848 142.619 665.885 142.619C664.655 142.619 663.573 142.369 662.637 141.868C661.701 141.367 660.975 140.673 660.458 139.786C659.955 138.884 659.704 137.868 659.704 136.738C659.704 135.622 659.948 134.62 660.437 133.733C660.94 132.831 661.631 132.13 662.511 131.629C663.391 131.128 664.383 130.878 665.486 130.878C666.576 130.878 667.547 131.128 668.399 131.629C669.265 132.115 669.935 132.809 670.41 133.711C670.899 134.598 671.144 135.629 671.144 136.802ZM665.486 133.024C664.648 133.024 663.936 133.282 663.349 133.797C662.777 134.298 662.427 134.97 662.302 135.815H668.65C668.539 134.985 668.196 134.312 667.624 133.797C667.051 133.282 666.339 133.024 665.486 133.024Z" fill="#2A2E43"/>
<path d="M687.781 130.878C689.192 130.878 690.309 131.3 691.133 132.144C691.958 132.974 692.37 134.226 692.37 135.901V142.469H689.751V136.244C689.751 135.242 689.534 134.491 689.101 133.99C688.668 133.475 688.046 133.217 687.236 133.217C686.356 133.217 685.651 133.518 685.12 134.119C684.589 134.706 684.324 135.55 684.324 136.652V142.469H681.705V136.244C681.705 135.242 681.488 134.491 681.055 133.99C680.622 133.475 680.001 133.217 679.191 133.217C678.297 133.217 677.584 133.511 677.054 134.097C676.537 134.684 676.278 135.536 676.278 136.652V142.469H673.659V131.006H676.153V132.466C676.572 131.951 677.095 131.557 677.724 131.285C678.353 131.013 679.051 130.878 679.819 130.878C680.657 130.878 681.398 131.042 682.04 131.371C682.697 131.686 683.214 132.158 683.591 132.788C684.052 132.187 684.645 131.722 685.372 131.393C686.098 131.049 686.901 130.878 687.781 130.878Z" fill="#2A2E43"/>
<path d="M695.716 131.006H698.335V142.469H695.716V131.006ZM697.036 129.117C696.561 129.117 696.163 128.967 695.842 128.667C695.521 128.352 695.36 127.965 695.36 127.507C695.36 127.049 695.521 126.67 695.842 126.37C696.163 126.055 696.561 125.897 697.036 125.897C697.511 125.897 697.909 126.048 698.231 126.348C698.552 126.634 698.713 126.999 698.713 127.443C698.713 127.915 698.552 128.316 698.231 128.645C697.923 128.96 697.525 129.117 697.036 129.117Z" fill="#2A2E43"/>
<path d="M712.417 134.656C713.227 134.927 713.869 135.385 714.344 136.029C714.819 136.659 715.057 137.446 715.057 138.391C715.057 139.693 714.568 140.702 713.59 141.417C712.612 142.119 711.187 142.469 709.316 142.469H702.024V127.443H708.897C710.629 127.443 711.963 127.794 712.899 128.495C713.834 129.182 714.302 130.133 714.302 131.35C714.302 132.094 714.135 132.752 713.799 133.325C713.464 133.897 713.003 134.341 712.417 134.656ZM704.748 129.633V133.775H708.603C709.553 133.775 710.28 133.604 710.782 133.26C711.299 132.902 711.558 132.387 711.558 131.715C711.558 131.028 711.299 130.513 710.782 130.169C710.28 129.811 709.553 129.633 708.603 129.633H704.748ZM709.148 140.28C711.257 140.28 712.312 139.557 712.312 138.112C712.312 136.666 711.257 135.943 709.148 135.943H704.748V140.28H709.148Z" fill="#2A2E43"/>
<path d="M722.741 142.619C721.609 142.619 720.59 142.369 719.682 141.868C718.774 141.367 718.061 140.673 717.545 139.786C717.042 138.884 716.79 137.868 716.79 136.738C716.79 135.607 717.042 134.598 717.545 133.711C718.061 132.824 718.774 132.13 719.682 131.629C720.59 131.128 721.609 130.878 722.741 130.878C723.886 130.878 724.913 131.128 725.821 131.629C726.729 132.13 727.434 132.824 727.937 133.711C728.454 134.598 728.712 135.607 728.712 136.738C728.712 137.868 728.454 138.884 727.937 139.786C727.434 140.673 726.729 141.367 725.821 141.868C724.913 142.369 723.886 142.619 722.741 142.619ZM722.741 140.323C723.704 140.323 724.501 139.993 725.129 139.335C725.758 138.677 726.072 137.811 726.072 136.738C726.072 135.664 725.758 134.799 725.129 134.14C724.501 133.482 723.704 133.153 722.741 133.153C721.777 133.153 720.981 133.482 720.352 134.14C719.738 134.799 719.43 135.664 719.43 136.738C719.43 137.811 719.738 138.677 720.352 139.335C720.981 139.993 721.777 140.323 722.741 140.323Z" fill="#2A2E43"/>
<path d="M731.216 126.541H733.836V142.469H731.216V126.541Z" fill="#2A2E43"/>
<path d="M748.231 126.541V142.469L745.717 142.469V140.988C745.284 141.532 744.746 141.94 744.103 142.212C743.475 142.483 742.776 142.619 742.008 142.619C740.933 142.619 739.962 142.376 739.096 141.89C738.244 141.403 737.573 140.716 737.084 139.829C736.596 138.927 736.351 137.897 736.351 136.738C736.351 135.579 736.596 134.555 737.084 133.668C737.573 132.781 738.244 132.094 739.096 131.607C739.962 131.121 740.933 130.878 742.008 130.878C742.748 130.878 743.426 131.006 744.041 131.264C744.655 131.522 745.179 131.908 745.612 132.423V126.541H748.231ZM742.322 140.323C742.951 140.323 743.517 140.179 744.02 139.893C744.522 139.593 744.921 139.171 745.214 138.627C745.507 138.083 745.654 137.453 745.654 136.738C745.654 136.022 745.507 135.393 745.214 134.849C744.921 134.305 744.522 133.89 744.02 133.604C743.517 133.303 742.951 133.153 742.322 133.153C741.694 133.153 741.128 133.303 740.625 133.604C740.122 133.89 739.724 134.305 739.431 134.849C739.138 135.393 738.991 136.022 738.991 136.738C738.991 137.453 739.138 138.083 739.431 138.627C739.724 139.171 740.122 139.593 740.625 139.893C741.128 140.179 741.694 140.323 742.322 140.323Z" fill="#2A2E43"/>
<path d="M168.311 312.184C169.147 312.45 169.803 312.897 170.277 313.527C170.751 314.142 170.988 314.905 170.988 315.814C170.988 317.101 170.486 318.094 169.482 318.793C168.492 319.479 167.042 319.822 165.132 319.822H157.562V305.133H164.714C166.499 305.133 167.865 305.476 168.813 306.162C169.775 306.847 170.256 307.777 170.256 308.952C170.256 309.666 170.081 310.302 169.733 310.862C169.398 311.421 168.924 311.862 168.311 312.184ZM160.929 307.693V311.156H164.296C165.132 311.156 165.767 311.009 166.199 310.715C166.631 310.421 166.847 309.988 166.847 309.414C166.847 308.84 166.631 308.414 166.199 308.134C165.767 307.84 165.132 307.693 164.296 307.693H160.929ZM164.881 317.262C165.774 317.262 166.443 317.115 166.889 316.821C167.349 316.527 167.579 316.073 167.579 315.457C167.579 314.24 166.68 313.632 164.881 313.632H160.929V317.262H164.881Z" fill="#2A2E43"/>
<path d="M178.676 319.989C177.491 319.989 176.424 319.745 175.476 319.255C174.542 318.751 173.81 318.059 173.28 317.178C172.751 316.296 172.486 315.296 172.486 314.177C172.486 313.058 172.751 312.058 173.28 311.177C173.81 310.295 174.542 309.61 175.476 309.12C176.424 308.617 177.491 308.365 178.676 308.365C179.861 308.365 180.92 308.617 181.854 309.12C182.788 309.61 183.52 310.295 184.05 311.177C184.58 312.058 184.844 313.058 184.844 314.177C184.844 315.296 184.58 316.296 184.05 317.178C183.52 318.059 182.788 318.751 181.854 319.255C180.92 319.745 179.861 319.989 178.676 319.989ZM178.676 317.304C179.512 317.304 180.195 317.024 180.725 316.464C181.269 315.891 181.54 315.128 181.54 314.177C181.54 313.226 181.269 312.471 180.725 311.911C180.195 311.337 179.512 311.051 178.676 311.051C177.839 311.051 177.149 311.337 176.605 311.911C176.062 312.471 175.79 313.226 175.79 314.177C175.79 315.128 176.062 315.891 176.605 316.464C177.149 317.024 177.839 317.304 178.676 317.304Z" fill="#2A2E43"/>
<path d="M187.025 304.252H190.287V319.822H187.025V304.252Z" fill="#2A2E43"/>
<path d="M204.774 304.252V319.822H201.658V318.521C200.85 319.5 199.679 319.989 198.145 319.989C197.086 319.989 196.124 319.752 195.259 319.276C194.409 318.8 193.74 318.122 193.252 317.241C192.764 316.359 192.52 315.338 192.52 314.177C192.52 313.016 192.764 311.995 193.252 311.114C193.74 310.232 194.409 309.554 195.259 309.078C196.124 308.603 197.086 308.365 198.145 308.365C199.581 308.365 200.703 308.819 201.512 309.729V304.252H204.774ZM198.71 317.304C199.532 317.304 200.215 317.024 200.759 316.464C201.303 315.891 201.575 315.128 201.575 314.177C201.575 313.226 201.303 312.471 200.759 311.911C200.215 311.337 199.532 311.051 198.71 311.051C197.873 311.051 197.183 311.337 196.64 311.911C196.096 312.471 195.824 313.226 195.824 314.177C195.824 315.128 196.096 315.891 196.64 316.464C197.183 317.024 197.873 317.304 198.71 317.304Z" fill="#2A2E43"/>
<path d="M65.8433 224.498L62.4799 219.732C62.1015 219.774 61.7091 219.795 61.3026 219.795H57.3505V224.498H55.7949V209.669H61.3026C63.1806 209.669 64.6521 210.121 65.7172 211.025C66.7823 211.929 67.3149 213.172 67.3149 214.754C67.3149 215.912 67.0206 216.893 66.432 217.698C65.8574 218.489 65.0305 219.061 63.9514 219.414L67.5461 224.498H65.8433ZM61.2606 218.461C62.7181 218.461 63.8323 218.136 64.6031 217.486C65.3739 216.837 65.7593 215.926 65.7593 214.754C65.7593 213.553 65.3739 212.635 64.6031 212C63.8323 211.35 62.7181 211.025 61.2606 211.025H57.3505V218.461H61.2606Z" fill="#2A2E43"/>
<path d="M80.2991 219.393H71.0495C71.1336 220.551 71.5751 221.49 72.3739 222.21C73.1727 222.916 74.1818 223.269 75.401 223.269C76.0878 223.269 76.7184 223.149 77.293 222.909C77.8676 222.655 78.3651 222.288 78.7855 221.808L79.6264 222.782C79.1359 223.375 78.5193 223.827 77.7765 224.138C77.0477 224.449 76.2419 224.604 75.359 224.604C74.2238 224.604 73.2148 224.364 72.3319 223.884C71.463 223.389 70.7832 222.712 70.2927 221.85C69.8022 220.989 69.557 220.014 69.557 218.927C69.557 217.839 69.7882 216.865 70.2507 216.003C70.7272 215.142 71.3719 214.471 72.1847 213.991C73.0116 213.511 73.9365 213.271 74.9596 213.271C75.9826 213.271 76.9006 213.511 77.7134 213.991C78.5263 214.471 79.1639 215.142 79.6264 216.003C80.0889 216.851 80.3201 217.825 80.3201 218.927L80.2991 219.393ZM74.9596 214.563C73.8945 214.563 72.9975 214.909 72.2688 215.601C71.5541 216.279 71.1476 217.168 71.0495 218.27H78.8907C78.7926 217.168 78.3791 216.279 77.6504 215.601C76.9356 214.909 76.0387 214.563 74.9596 214.563Z" fill="#2A2E43"/>
<path d="M93.5957 213.355V223.142C93.5957 225.035 93.1333 226.433 92.2083 227.337C91.2974 228.255 89.9169 228.714 88.067 228.714C87.0439 228.714 86.0699 228.558 85.145 228.248C84.234 227.951 83.4913 227.534 82.9167 226.998L83.6735 225.854C84.206 226.334 84.8507 226.708 85.6075 226.976C86.3783 227.245 87.1841 227.379 88.025 227.379C89.4264 227.379 90.4565 227.047 91.1152 226.383C91.7738 225.734 92.1032 224.717 92.1032 223.333V221.914C91.6407 222.62 91.0311 223.156 90.2743 223.524C89.5315 223.891 88.7047 224.074 87.7937 224.074C86.7566 224.074 85.8107 223.848 84.9558 223.396C84.1149 222.93 83.4492 222.288 82.9587 221.469C82.4822 220.636 82.244 219.696 82.244 218.651C82.244 217.606 82.4822 216.674 82.9587 215.855C83.4492 215.036 84.1149 214.4 84.9558 213.949C85.7967 213.497 86.7426 213.271 87.7937 213.271C88.7327 213.271 89.5806 213.461 90.3374 213.843C91.0941 214.224 91.7038 214.775 92.1663 215.495V213.355H93.5957ZM87.9409 222.74C88.7397 222.74 89.4615 222.57 90.1061 222.231C90.7508 221.878 91.2483 221.391 91.5987 220.77C91.963 220.148 92.1452 219.442 92.1452 218.651C92.1452 217.86 91.963 217.161 91.5987 216.554C91.2483 215.933 90.7508 215.453 90.1061 215.114C89.4755 214.761 88.7537 214.584 87.9409 214.584C87.142 214.584 86.4203 214.754 85.7756 215.092C85.145 215.431 84.6475 215.912 84.2831 216.533C83.9327 217.154 83.7575 217.86 83.7575 218.651C83.7575 219.442 83.9327 220.148 84.2831 220.77C84.6475 221.391 85.145 221.878 85.7756 222.231C86.4203 222.57 87.142 222.74 87.9409 222.74Z" fill="#2A2E43"/>
<path d="M107.734 213.355V224.498H106.304V222.464C105.912 223.142 105.372 223.672 104.686 224.053C103.999 224.42 103.214 224.604 102.331 224.604C100.888 224.604 99.7456 224.201 98.9047 223.396C98.0779 222.577 97.6644 221.384 97.6644 219.816V213.355H99.157V219.668C99.157 220.84 99.4443 221.73 100.019 222.337C100.593 222.945 101.413 223.248 102.478 223.248C103.642 223.248 104.56 222.895 105.232 222.189C105.905 221.469 106.241 220.473 106.241 219.202V213.355H107.734Z" fill="#2A2E43"/>
<path d="M111.914 208.78H113.407V224.498H111.914V208.78Z" fill="#2A2E43"/>
<path d="M121.428 213.271C122.871 213.271 123.978 213.638 124.749 214.372C125.52 215.092 125.905 216.166 125.905 217.592V224.498H124.476V222.761C124.139 223.34 123.642 223.792 122.983 224.117C122.339 224.442 121.568 224.604 120.671 224.604C119.438 224.604 118.457 224.307 117.728 223.714C116.999 223.121 116.635 222.337 116.635 221.363C116.635 220.417 116.971 219.654 117.644 219.075C118.33 218.496 119.417 218.206 120.902 218.206H124.413V217.529C124.413 216.568 124.146 215.841 123.614 215.347C123.081 214.838 122.304 214.584 121.28 214.584C120.58 214.584 119.907 214.704 119.262 214.944C118.618 215.17 118.064 215.488 117.602 215.897L116.929 214.775C117.49 214.295 118.162 213.927 118.947 213.673C119.732 213.405 120.559 213.271 121.428 213.271ZM120.902 223.418C121.743 223.418 122.465 223.227 123.067 222.846C123.67 222.45 124.118 221.885 124.413 221.151V219.329H120.944C119.052 219.329 118.106 219.993 118.106 221.32C118.106 221.97 118.351 222.486 118.842 222.867C119.332 223.234 120.019 223.418 120.902 223.418Z" fill="#2A2E43"/>
<path d="M131.389 215.537C131.739 214.789 132.258 214.224 132.944 213.843C133.645 213.461 134.507 213.271 135.53 213.271V214.732L135.173 214.711C134.009 214.711 133.098 215.071 132.44 215.792C131.781 216.512 131.452 217.522 131.452 218.821V224.498H129.959V213.355H131.389V215.537Z" fill="#2A2E43"/>
<path fill-rule="evenodd" clip-rule="evenodd" d="M786 203.534H0.19043V202.485H786V203.534Z" fill="#ACB3C6"/>
<path fill-rule="evenodd" clip-rule="evenodd" d="M141.825 209.829L48.4512 209.829L48.4512 208.78L141.825 208.78L141.825 209.829Z" fill="#ACB3C6"/>
<path fill-rule="evenodd" clip-rule="evenodd" d="M247.788 207.731L247.788 330.481L246.739 330.481L246.739 207.731L247.788 207.731Z" fill="#ACB3C6"/>
<path fill-rule="evenodd" clip-rule="evenodd" d="M141.825 225.566L48.4512 225.566L48.4512 224.517L141.825 224.517L141.825 225.566Z" fill="#ACB3C6"/>
<path fill-rule="evenodd" clip-rule="evenodd" d="M505.879 45.1134L467.061 45.1134L467.061 44.0642L505.879 44.0642L505.879 45.1134Z" fill="#ACB3C6"/>
<path fill-rule="evenodd" clip-rule="evenodd" d="M760.821 126.947L629.678 126.947L629.678 125.897L760.821 125.897L760.821 126.947Z" fill="#ACB3C6"/>
<path fill-rule="evenodd" clip-rule="evenodd" d="M782.853 400.774L684.233 400.774L684.233 399.724L782.853 399.724L782.853 400.774Z" fill="#ACB3C6"/>
<path fill-rule="evenodd" clip-rule="evenodd" d="M772.362 395.528L684.233 395.528L684.233 394.479L772.362 394.479L772.362 395.528Z" fill="#ACB3C6"/>
<path fill-rule="evenodd" clip-rule="evenodd" d="M255.132 77.6368L105.104 77.6368L105.104 76.5876L255.132 76.5877L255.132 77.6368Z" fill="#ACB3C6"/>
<path fill-rule="evenodd" clip-rule="evenodd" d="M770.263 156.323H6.48535V155.273H770.263V156.323Z" fill="#ACB3C6"/>
<path fill-rule="evenodd" clip-rule="evenodd" d="M748.231 430.15L748.231 108.062L749.28 108.062L749.28 430.15L748.231 430.15Z" fill="#ACB3C6"/>
<path fill-rule="evenodd" clip-rule="evenodd" d="M574.073 483.656L574.073 303.203L575.122 303.203L575.122 483.656L574.073 483.656Z" fill="#ACB3C6"/>
<path fill-rule="evenodd" clip-rule="evenodd" d="M646.001 385L646.001 307L647.001 307L647.001 385L646.001 385Z" fill="#ACB3C6"/>
<path fill-rule="evenodd" clip-rule="evenodd" d="M665.001 385L665.001 307L666.001 307L666.001 385L665.001 385Z" fill="#ACB3C6"/>
<path fill-rule="evenodd" clip-rule="evenodd" d="M650.001 385L650.001 307L651.001 307L651.001 385L650.001 385Z" fill="#ACB3C6"/>
<path fill-rule="evenodd" clip-rule="evenodd" d="M144.973 318.94L696.823 318.94V319.989L144.973 319.989V318.94Z" fill="#ACB3C6"/>
<path fill-rule="evenodd" clip-rule="evenodd" d="M303.001 258H491.001V259H303.001V258Z" fill="#ACB3C6"/>
<path fill-rule="evenodd" clip-rule="evenodd" d="M144.972 307.4H214.216V308.449H144.972V307.4Z" fill="#ACB3C6"/>
<path fill-rule="evenodd" clip-rule="evenodd" d="M144.972 304H214.216V305.049H144.972V304Z" fill="#ACB3C6"/>
<path d="M494.496 45.1133L494.496 46.1864L480.627 46.1864L480.627 54.6661L479.652 54.6661L479.652 45.1133L494.496 45.1133Z" fill="#2A2E43"/>
<path d="M490.721 57.085L490.721 58.1371L479.652 58.1371L479.652 57.085L490.721 57.085ZM493.415 57.611C493.415 57.3726 493.492 57.1692 493.648 57.0008C493.817 56.8325 494.022 56.7483 494.263 56.7483C494.503 56.7483 494.708 56.8325 494.878 57.0008C495.047 57.1692 495.132 57.3726 495.132 57.611C495.132 57.8495 495.047 58.0529 494.878 58.2212C494.722 58.3895 494.524 58.4737 494.284 58.4737C494.044 58.4737 493.839 58.3895 493.669 58.2212C493.499 58.0529 493.415 57.8495 493.415 57.611Z" fill="#2A2E43"/>
<path d="M490.721 72.4608L480.839 72.4608C479.001 72.4608 477.644 72.0189 476.768 71.1352C475.891 70.2514 475.453 68.9188 475.453 67.1373C475.453 66.1273 475.608 65.1735 475.919 64.2757C476.231 63.3779 476.662 62.6555 477.213 62.1084L478.019 62.6766C477.51 63.2236 477.114 63.8829 476.831 64.6544C476.549 65.426 476.407 66.2466 476.407 67.1163C476.407 68.5752 476.761 69.6553 477.468 70.3567C478.16 71.058 479.242 71.4087 480.712 71.4087L482.578 71.4087C481.772 70.9598 481.15 70.3356 480.712 69.536C480.274 68.7365 480.055 67.8387 480.055 66.8427C480.055 65.8187 480.281 64.8859 480.733 64.0442C481.2 63.2166 481.843 62.5643 482.663 62.0874C483.483 61.6105 484.409 61.372 485.441 61.372C486.473 61.372 487.399 61.6105 488.219 62.0874C489.039 62.5643 489.675 63.2166 490.128 64.0442C490.58 64.8859 490.806 65.8187 490.806 66.8427C490.806 67.8527 490.58 68.7645 490.128 69.5781C489.675 70.3917 489.039 71.0159 488.219 71.4508L490.721 71.4508L490.721 72.4608ZM481.009 66.9269C481.009 67.7826 481.193 68.5541 481.56 69.2415C481.942 69.9288 482.465 70.4619 483.13 70.8406C483.808 71.2334 484.579 71.4298 485.441 71.4298C486.303 71.4298 487.067 71.2334 487.731 70.8406C488.396 70.4619 488.912 69.9288 489.279 69.2415C489.661 68.5541 489.852 67.7826 489.852 66.9269C489.852 66.0712 489.661 65.2997 489.279 64.6124C488.912 63.939 488.396 63.406 487.731 63.0132C487.067 62.6345 486.303 62.4451 485.441 62.4451C484.579 62.4451 483.808 62.6345 483.13 63.0132C482.465 63.406 481.942 63.939 481.56 64.6124C481.193 65.2997 481.009 66.0712 481.009 66.9269Z" fill="#2A2E43"/>
<path d="M490.806 82.2795C490.806 83.6542 490.403 84.7414 489.597 85.5409C488.792 86.3405 487.632 86.7403 486.12 86.7403L479.652 86.7403L479.652 85.6882L486.035 85.6882C487.279 85.6882 488.226 85.3726 488.876 84.7414C489.527 84.1242 489.852 83.2544 489.852 82.1322C489.852 80.8417 489.463 79.8247 488.686 79.0812C487.908 78.3378 486.862 77.9661 485.547 77.9661L479.652 77.9661L479.652 76.914L495.387 76.914L495.387 77.9661L488.41 77.9661C489.173 78.3448 489.76 78.9059 490.17 79.6494C490.594 80.3928 490.806 81.2696 490.806 82.2795Z" fill="#2A2E43"/>
<path d="M480.352 96.5214C480.097 96.2549 479.899 95.9182 479.758 95.5114C479.631 95.1186 479.567 94.7048 479.567 94.27C479.567 93.3161 479.828 92.5797 480.352 92.0606C480.889 91.5416 481.631 91.2821 482.578 91.2821L489.81 91.2821L489.81 89.2621L490.721 89.2621L490.721 91.2821L493.139 91.2821L493.139 92.3342L490.721 92.3342L490.721 95.827L489.81 95.827L489.81 92.3342L482.684 92.3342C481.963 92.3342 481.412 92.5025 481.03 92.8392C480.663 93.1899 480.479 93.7019 480.479 94.3752C480.479 95.0625 480.684 95.6307 481.094 96.0795L480.352 96.5214Z" fill="#2A2E43"/>
<path fill-rule="evenodd" clip-rule="evenodd" d="M134.481 251.795L134.481 63.9978L135.53 63.9978L135.53 251.795L134.481 251.795Z" fill="#ACB3C6"/>
<path fill-rule="evenodd" clip-rule="evenodd" d="M770.263 142.684H6.48535V141.635H770.263V142.684Z" fill="#ACB3C6"/>
<path fill-rule="evenodd" clip-rule="evenodd" d="M748.231 415.461H6.48535V414.412H748.231V415.461Z" fill="#ACB3C6"/>
<path fill-rule="evenodd" clip-rule="evenodd" d="M427.193 443.788L319.131 443.788L319.131 442.739L427.193 442.739L427.193 443.788Z" fill="#ACB3C6"/>
<path fill-rule="evenodd" clip-rule="evenodd" d="M428.242 463.722L128.187 463.722L128.187 462.673L428.242 462.673L428.242 463.722Z" fill="#ACB3C6"/>
<path fill-rule="evenodd" clip-rule="evenodd" d="M685.282 373.496H6.48535V372.447H685.282V373.496Z" fill="#ACB3C6"/>
</svg>
