<svg width="255" height="142" viewBox="0 0 255 142" fill="none" xmlns="http://www.w3.org/2000/svg">
<circle r="31.1647" transform="matrix(-4.37114e-08 -1 -1 4.37114e-08 115.754 31.1641)" fill="#412D62"/>
<circle r="31.1647" transform="matrix(-4.37114e-08 -1 -1 4.37114e-08 115.754 110.412)" fill="#4D5FB2"/>
<rect y="-0.000488281" width="62.3294" height="141.577" rx="31.1647" fill="url(#paint0_linear_740_10148)"/>
<path d="M174.965 33.8256H172.981V36.3696H170.965V33.8256H164.821V32.3856L170.341 25.1696H172.565L167.365 32.0656H171.029V29.8096H172.981V32.0656H174.965V33.8256ZM179.946 25.1696V36.3696H177.866V26.9136H175.498V25.1696H179.946ZM190.92 34.6096V36.3696H182.664V34.9776L187.112 30.7536C187.614 30.2736 187.95 29.8576 188.12 29.5056C188.302 29.143 188.392 28.7856 188.392 28.4336C188.392 27.911 188.216 27.511 187.864 27.2336C187.512 26.9563 186.995 26.8176 186.312 26.8176C185.171 26.8176 184.296 27.207 183.688 27.9856L182.232 26.8656C182.67 26.279 183.256 25.8256 183.992 25.5056C184.739 25.175 185.571 25.0096 186.488 25.0096C187.704 25.0096 188.675 25.2976 189.4 25.8736C190.126 26.4496 190.488 27.2336 190.488 28.2256C190.488 28.8336 190.36 29.4043 190.104 29.9376C189.848 30.471 189.358 31.079 188.632 31.7616L185.64 34.6096H190.92ZM193.561 25.1696H198.457C199.651 25.1696 200.713 25.4043 201.641 25.8736C202.569 26.3323 203.289 26.9883 203.801 27.8416C204.313 28.6843 204.569 29.6603 204.569 30.7696C204.569 31.879 204.313 32.8603 203.801 33.7136C203.289 34.5563 202.569 35.2123 201.641 35.6816C200.713 36.1403 199.651 36.3696 198.457 36.3696H193.561V25.1696ZM198.361 34.6096C199.182 34.6096 199.902 34.455 200.521 34.1456C201.15 33.8256 201.63 33.3776 201.961 32.8016C202.302 32.215 202.473 31.5376 202.473 30.7696C202.473 30.0016 202.302 29.3296 201.961 28.7536C201.63 28.167 201.15 27.719 200.521 27.4096C199.902 27.0896 199.182 26.9296 198.361 26.9296H195.641V34.6096H198.361ZM211.707 29.4576C212.443 29.4576 213.105 29.6016 213.691 29.8896C214.278 30.167 214.737 30.567 215.067 31.0896C215.398 31.6123 215.563 32.215 215.563 32.8976C215.563 33.623 215.382 34.263 215.019 34.8176C214.657 35.3616 214.166 35.783 213.547 36.0816C212.929 36.3803 212.235 36.5296 211.467 36.5296C209.931 36.5296 208.737 36.0496 207.883 35.0896C207.041 34.1296 206.619 32.7536 206.619 30.9616C206.619 29.703 206.849 28.631 207.307 27.7456C207.766 26.8496 208.406 26.1723 209.227 25.7136C210.059 25.2443 211.019 25.0096 212.107 25.0096C212.683 25.0096 213.222 25.0736 213.723 25.2016C214.235 25.319 214.678 25.495 215.051 25.7296L214.283 27.2976C213.729 26.935 213.019 26.7536 212.155 26.7536C211.078 26.7536 210.235 27.0843 209.627 27.7456C209.019 28.407 208.715 29.3616 208.715 30.6096V30.6256C209.046 30.2416 209.467 29.9536 209.979 29.7616C210.491 29.559 211.067 29.4576 211.707 29.4576ZM211.355 34.8976C212.006 34.8976 212.534 34.727 212.939 34.3856C213.345 34.0336 213.547 33.5696 213.547 32.9936C213.547 32.407 213.345 31.943 212.939 31.6016C212.534 31.2603 211.99 31.0896 211.307 31.0896C210.635 31.0896 210.086 31.271 209.659 31.6336C209.243 31.9963 209.035 32.455 209.035 33.0096C209.035 33.5536 209.238 34.007 209.643 34.3696C210.059 34.7216 210.63 34.8976 211.355 34.8976ZM225.403 34.6096V36.3696H217.147V34.9776L221.595 30.7536C222.096 30.2736 222.432 29.8576 222.603 29.5056C222.784 29.143 222.875 28.7856 222.875 28.4336C222.875 27.911 222.699 27.511 222.347 27.2336C221.995 26.9563 221.477 26.8176 220.795 26.8176C219.653 26.8176 218.779 27.207 218.171 27.9856L216.715 26.8656C217.152 26.279 217.739 25.8256 218.475 25.5056C219.221 25.175 220.053 25.0096 220.971 25.0096C222.187 25.0096 223.157 25.2976 223.883 25.8736C224.608 26.4496 224.971 27.2336 224.971 28.2256C224.971 28.8336 224.843 29.4043 224.587 29.9376C224.331 30.471 223.84 31.079 223.115 31.7616L220.123 34.6096H225.403Z" fill="#67666F"/>
<path d="M174.965 113.073H172.981V115.617H170.965V113.073H164.821V111.633L170.341 104.417H172.565L167.365 111.313H171.029V109.057H172.981V111.313H174.965V113.073ZM177.281 104.417H182.177C183.371 104.417 184.433 104.652 185.361 105.121C186.289 105.58 187.009 106.236 187.521 107.089C188.033 107.932 188.289 108.908 188.289 110.017C188.289 111.127 188.033 112.108 187.521 112.961C187.009 113.804 186.289 114.46 185.361 114.929C184.433 115.388 183.371 115.617 182.177 115.617H177.281V104.417ZM182.081 113.857C182.902 113.857 183.622 113.703 184.241 113.393C184.87 113.073 185.35 112.625 185.681 112.049C186.022 111.463 186.193 110.785 186.193 110.017C186.193 109.249 186.022 108.577 185.681 108.001C185.35 107.415 184.87 106.967 184.241 106.657C183.622 106.337 182.902 106.177 182.081 106.177H179.361V113.857H182.081ZM193.843 108.753C195.422 108.753 196.59 109.063 197.347 109.681C198.105 110.289 198.483 111.121 198.483 112.177C198.483 112.849 198.318 113.457 197.987 114.001C197.657 114.545 197.161 114.977 196.499 115.297C195.838 115.617 195.022 115.777 194.051 115.777C193.251 115.777 192.478 115.665 191.731 115.441C190.985 115.207 190.355 114.887 189.843 114.481L190.723 112.865C191.139 113.207 191.635 113.479 192.211 113.681C192.798 113.873 193.401 113.969 194.019 113.969C194.755 113.969 195.331 113.82 195.747 113.521C196.174 113.212 196.387 112.791 196.387 112.257C196.387 111.681 196.158 111.249 195.699 110.961C195.251 110.663 194.478 110.513 193.379 110.513H190.675L191.251 104.417H197.827V106.161H193.011L192.771 108.753H193.843ZM203.203 106.161V109.569H208.611V111.329H203.203V115.617H201.123V104.417H209.299V106.161H203.203ZM219.887 109.793C220.505 109.996 220.996 110.337 221.359 110.817C221.721 111.287 221.903 111.873 221.903 112.577C221.903 113.548 221.529 114.3 220.783 114.833C220.036 115.356 218.948 115.617 217.519 115.617H211.951V104.417H217.199C218.521 104.417 219.54 104.679 220.255 105.201C220.969 105.713 221.327 106.423 221.327 107.329C221.327 107.884 221.199 108.375 220.943 108.801C220.687 109.228 220.335 109.559 219.887 109.793ZM214.031 106.049V109.137H216.975C217.7 109.137 218.255 109.009 218.639 108.753C219.033 108.487 219.231 108.103 219.231 107.601C219.231 107.089 219.033 106.705 218.639 106.449C218.255 106.183 217.7 106.049 216.975 106.049H214.031ZM217.391 113.985C219.001 113.985 219.807 113.447 219.807 112.369C219.807 111.292 219.001 110.753 217.391 110.753H214.031V113.985H217.391ZM232.075 113.857V115.617H223.819V114.225L228.267 110.001C228.768 109.521 229.104 109.105 229.275 108.753C229.456 108.391 229.547 108.033 229.547 107.681C229.547 107.159 229.371 106.759 229.019 106.481C228.667 106.204 228.149 106.065 227.467 106.065C226.325 106.065 225.451 106.455 224.843 107.233L223.387 106.113C223.824 105.527 224.411 105.073 225.147 104.753C225.893 104.423 226.725 104.257 227.643 104.257C228.859 104.257 229.829 104.545 230.555 105.121C231.28 105.697 231.643 106.481 231.643 107.473C231.643 108.081 231.515 108.652 231.259 109.185C231.003 109.719 230.512 110.327 229.787 111.009L226.795 113.857H232.075Z" fill="#67666F"/>
<defs>
<linearGradient id="paint0_linear_740_10148" x1="31.1647" y1="-0.000488281" x2="31.1647" y2="141.576" gradientUnits="userSpaceOnUse">
<stop stop-color="#412C60"/>
<stop offset="1" stop-color="#4D60B4"/>
</linearGradient>
</defs>
</svg>
