<svg width="123" height="117" viewBox="0 0 123 117" fill="none" xmlns="http://www.w3.org/2000/svg">
<rect opacity="0.2" y="29" width="123" height="60" rx="30" fill="#817D90"/>
<circle cx="93" cy="59" r="26" fill="#817D90"/>
<path d="M17.3516 112H13.0938V100.727H17.3672C18.3307 100.727 19.1094 100.984 19.7031 101.5C20.3021 102.016 20.6016 102.695 20.6016 103.539C20.6016 104.128 20.4115 104.661 20.0312 105.141C19.6562 105.615 19.1979 105.901 18.6562 106V106.062C19.4219 106.161 20.0312 106.461 20.4844 106.961C20.9427 107.461 21.1719 108.086 21.1719 108.836C21.1719 109.831 20.8333 110.607 20.1562 111.164C19.4844 111.721 18.5495 112 17.3516 112ZM14.5 101.969V105.586H16.6094C17.4427 105.586 18.0781 105.424 18.5156 105.102C18.9583 104.779 19.1797 104.312 19.1797 103.703C19.1797 103.146 18.9948 102.719 18.625 102.422C18.2552 102.12 17.7292 101.969 17.0469 101.969H14.5ZM14.5 110.758H17.1406C17.9896 110.758 18.6328 110.589 19.0703 110.25C19.5078 109.911 19.7266 109.417 19.7266 108.766C19.7266 107.453 18.8203 106.797 17.0078 106.797H14.5V110.758ZM25.9219 112.141C24.7865 112.141 23.875 111.763 23.1875 111.008C22.5 110.247 22.1562 109.224 22.1562 107.938C22.1562 106.651 22.5 105.63 23.1875 104.875C23.875 104.115 24.7865 103.734 25.9219 103.734C27.0521 103.734 27.9609 104.115 28.6484 104.875C29.3359 105.63 29.6797 106.651 29.6797 107.938C29.6797 109.219 29.3359 110.24 28.6484 111C27.9609 111.76 27.0521 112.141 25.9219 112.141ZM24.1797 110.148C24.612 110.68 25.1927 110.945 25.9219 110.945C26.651 110.945 27.2292 110.682 27.6562 110.156C28.0833 109.625 28.2969 108.885 28.2969 107.938C28.2969 106.99 28.0833 106.253 27.6562 105.727C27.2292 105.195 26.651 104.93 25.9219 104.93C25.1927 104.93 24.612 105.195 24.1797 105.727C23.7526 106.258 23.5391 106.995 23.5391 107.938C23.5391 108.88 23.7526 109.617 24.1797 110.148ZM34.1328 112.141C33.0911 112.141 32.25 111.758 31.6094 110.992C30.974 110.227 30.6562 109.208 30.6562 107.938C30.6562 106.672 30.974 105.656 31.6094 104.891C32.2448 104.12 33.0755 103.734 34.1016 103.734C34.6745 103.734 35.1875 103.865 35.6406 104.125C36.0938 104.385 36.4427 104.742 36.6875 105.195H36.7188V100.727H38.0781V112H36.7812V110.625H36.7578C36.4922 111.099 36.1328 111.471 35.6797 111.742C35.2266 112.008 34.7109 112.141 34.1328 112.141ZM34.3906 104.93C33.6719 104.93 33.1016 105.203 32.6797 105.75C32.2578 106.292 32.0469 107.021 32.0469 107.938C32.0469 108.859 32.2578 109.591 32.6797 110.133C33.1016 110.674 33.6719 110.945 34.3906 110.945C35.0938 110.945 35.6589 110.672 36.0859 110.125C36.513 109.573 36.7266 108.844 36.7266 107.938C36.7266 107.031 36.5104 106.305 36.0781 105.758C35.651 105.206 35.0885 104.93 34.3906 104.93ZM40.5859 115.039C40.3464 115.039 40.151 115.023 40 114.992V113.852C40.125 113.878 40.3021 113.891 40.5312 113.891C40.9115 113.891 41.2161 113.789 41.4453 113.586C41.6745 113.388 41.8672 113.052 42.0234 112.578L42.2109 112.008L39.2109 103.875H40.6641L42.9141 110.641H42.9375L45.1875 103.875H46.6172L43.4219 112.57C43.0729 113.518 42.6953 114.167 42.2891 114.516C41.888 114.865 41.3203 115.039 40.5859 115.039ZM51.4141 101.914H52.7734V103.875H54.3516V104.992H52.7734V109.82C52.7734 110.19 52.8542 110.464 53.0156 110.641C53.1771 110.812 53.4323 110.898 53.7812 110.898C54 110.898 54.1875 110.885 54.3438 110.859V112C54.1667 112.042 53.8802 112.062 53.4844 112.062C52.7396 112.062 52.2083 111.896 51.8906 111.562C51.5729 111.229 51.4141 110.672 51.4141 109.891V104.992H50.2031V103.875H51.4141V101.914ZM58.8281 104.914C58.1979 104.914 57.6745 105.133 57.2578 105.57C56.8464 106.003 56.6198 106.56 56.5781 107.242H60.9922C60.9766 106.555 60.7708 105.995 60.375 105.562C59.9792 105.13 59.4635 104.914 58.8281 104.914ZM60.9609 109.672H62.2969C62.1771 110.391 61.8021 110.982 61.1719 111.445C60.5469 111.909 59.7943 112.141 58.9141 112.141C57.7526 112.141 56.8385 111.766 56.1719 111.016C55.5052 110.266 55.1719 109.25 55.1719 107.969C55.1719 106.698 55.5052 105.674 56.1719 104.898C56.8438 104.122 57.737 103.734 58.8516 103.734C59.9453 103.734 60.8099 104.102 61.4453 104.836C62.0807 105.57 62.3984 106.555 62.3984 107.789V108.305H56.5703V108.383C56.5703 109.164 56.7839 109.789 57.2109 110.258C57.638 110.727 58.2161 110.961 58.9453 110.961C59.4557 110.961 59.8906 110.844 60.25 110.609C60.6094 110.375 60.8464 110.062 60.9609 109.672ZM66.4922 108.906H66.4609L64.5 112H62.9922L65.7578 107.938L63.0391 103.875H64.5547L66.5078 106.922H66.5391L68.4688 103.875H69.9844L67.2422 107.883L69.9453 112H68.4375L66.4922 108.906ZM71.5703 101.914H72.9297V103.875H74.5078V104.992H72.9297V109.82C72.9297 110.19 73.0104 110.464 73.1719 110.641C73.3333 110.812 73.5885 110.898 73.9375 110.898C74.1562 110.898 74.3438 110.885 74.5 110.859V112C74.3229 112.042 74.0365 112.062 73.6406 112.062C72.8958 112.062 72.3646 111.896 72.0469 111.562C71.7292 111.229 71.5703 110.672 71.5703 109.891V104.992H70.3594V103.875H71.5703V101.914ZM85.9922 106.539H84.6641C84.5599 106.07 84.3281 105.685 83.9688 105.383C83.6146 105.081 83.1536 104.93 82.5859 104.93C81.8776 104.93 81.3073 105.203 80.875 105.75C80.4427 106.292 80.2266 107.021 80.2266 107.938C80.2266 108.87 80.4427 109.604 80.875 110.141C81.3125 110.677 81.888 110.945 82.6016 110.945C83.1484 110.945 83.599 110.81 83.9531 110.539C84.3125 110.263 84.5521 109.878 84.6719 109.383H86.0078C85.9036 110.195 85.5365 110.859 84.9062 111.375C84.2812 111.885 83.5104 112.141 82.5938 112.141C81.4583 112.141 80.5495 111.766 79.8672 111.016C79.1849 110.26 78.8438 109.234 78.8438 107.938C78.8438 106.661 79.1849 105.643 79.8672 104.883C80.5495 104.117 81.4531 103.734 82.5781 103.734C83.5469 103.734 84.3333 104.008 84.9375 104.555C85.5469 105.102 85.8984 105.763 85.9922 106.539ZM90.625 112.141C89.4896 112.141 88.5781 111.763 87.8906 111.008C87.2031 110.247 86.8594 109.224 86.8594 107.938C86.8594 106.651 87.2031 105.63 87.8906 104.875C88.5781 104.115 89.4896 103.734 90.625 103.734C91.7552 103.734 92.6641 104.115 93.3516 104.875C94.0391 105.63 94.3828 106.651 94.3828 107.938C94.3828 109.219 94.0391 110.24 93.3516 111C92.6641 111.76 91.7552 112.141 90.625 112.141ZM88.8828 110.148C89.3151 110.68 89.8958 110.945 90.625 110.945C91.3542 110.945 91.9323 110.682 92.3594 110.156C92.7865 109.625 93 108.885 93 107.938C93 106.99 92.7865 106.253 92.3594 105.727C91.9323 105.195 91.3542 104.93 90.625 104.93C89.8958 104.93 89.3151 105.195 88.8828 105.727C88.4557 106.258 88.2422 106.995 88.2422 107.938C88.2422 108.88 88.4557 109.617 88.8828 110.148ZM95.8281 112V100.727H97.1875V112H95.8281ZM102.391 112.141C101.255 112.141 100.344 111.763 99.6562 111.008C98.9688 110.247 98.625 109.224 98.625 107.938C98.625 106.651 98.9688 105.63 99.6562 104.875C100.344 104.115 101.255 103.734 102.391 103.734C103.521 103.734 104.43 104.115 105.117 104.875C105.805 105.63 106.148 106.651 106.148 107.938C106.148 109.219 105.805 110.24 105.117 111C104.43 111.76 103.521 112.141 102.391 112.141ZM100.648 110.148C101.081 110.68 101.661 110.945 102.391 110.945C103.12 110.945 103.698 110.682 104.125 110.156C104.552 109.625 104.766 108.885 104.766 107.938C104.766 106.99 104.552 106.253 104.125 105.727C103.698 105.195 103.12 104.93 102.391 104.93C101.661 104.93 101.081 105.195 100.648 105.727C100.221 106.258 100.008 106.995 100.008 107.938C100.008 108.88 100.221 109.617 100.648 110.148ZM107.523 112V103.875H108.805V105.203H108.836C108.971 104.75 109.214 104.393 109.562 104.133C109.917 103.867 110.331 103.734 110.805 103.734C110.914 103.734 111.096 103.753 111.352 103.789V105.109C111.206 105.057 110.964 105.031 110.625 105.031C110.099 105.031 109.677 105.206 109.359 105.555C109.042 105.904 108.883 106.365 108.883 106.938V112H107.523Z" fill="#817D90"/>
<path d="M26.4932 17L27.1963 13.5283H24.5332L23.8301 17H22.3359L23.0303 13.5283H21L21.29 12.043H23.3379L23.918 9.13379H21.7998L22.0986 7.65723H24.2168L24.9111 4.31738H26.4053L25.7373 7.65723H28.3916L29.0771 4.31738H30.5801L29.9033 7.65723H32.0479L31.7666 9.13379H29.5957L28.998 12.043H31.2305L30.9492 13.5283H28.708L28.0049 17H26.4932ZM24.7705 12.1133H27.5303L28.1543 9.07227H25.3857L24.7705 12.1133ZM41.2412 17.2373C39.9756 17.2373 38.9238 16.8887 38.0859 16.1914C37.248 15.4883 36.7998 14.583 36.7412 13.4756H38.6221C38.6924 14.1025 38.9707 14.6123 39.457 15.0049C39.9492 15.3975 40.5498 15.5938 41.2588 15.5938C42.0557 15.5938 42.7061 15.3418 43.21 14.8379C43.7139 14.334 43.9658 13.6836 43.9658 12.8867C43.9658 12.0898 43.7139 11.4365 43.21 10.9268C42.7119 10.4111 42.0674 10.1533 41.2764 10.1533C40.7256 10.1533 40.2246 10.2734 39.7734 10.5137C39.3281 10.748 38.9824 11.0732 38.7363 11.4893H36.9346L37.6025 4.31738H45.1523V5.97852H39.1846L38.833 9.87207H38.877C39.1582 9.46777 39.5449 9.1543 40.0371 8.93164C40.5352 8.70312 41.0918 8.58887 41.707 8.58887C42.9258 8.58887 43.9277 8.99023 44.7129 9.79297C45.498 10.5898 45.8906 11.6035 45.8906 12.834C45.8906 14.1348 45.457 15.1953 44.5898 16.0156C43.7285 16.8301 42.6123 17.2373 41.2412 17.2373ZM53.0273 17.2109C51.2461 17.2109 49.8311 16.6221 48.7822 15.4443C47.7393 14.2666 47.2178 12.6699 47.2178 10.6543C47.2178 8.65039 47.7422 7.05957 48.791 5.88184C49.8398 4.69824 51.252 4.10645 53.0273 4.10645C54.4688 4.10645 55.6846 4.51367 56.6748 5.32812C57.665 6.13672 58.2422 7.2002 58.4062 8.51855H56.4551C56.2793 7.7041 55.8779 7.05371 55.251 6.56738C54.6299 6.0752 53.8887 5.8291 53.0273 5.8291C51.873 5.8291 50.9502 6.26855 50.2588 7.14746C49.5732 8.02051 49.2305 9.18945 49.2305 10.6543C49.2305 12.1367 49.5732 13.3145 50.2588 14.1875C50.9443 15.0547 51.8701 15.4883 53.0361 15.4883C53.915 15.4883 54.6533 15.2744 55.251 14.8467C55.8545 14.4189 56.2559 13.8213 56.4551 13.0537H58.415C58.1748 14.3662 57.5801 15.3887 56.6309 16.1211C55.6875 16.8477 54.4863 17.2109 53.0273 17.2109ZM64.7783 17.2461C63.8408 17.2461 63.0088 17.0146 62.2822 16.5518C61.5615 16.0889 60.9932 15.4297 60.5771 14.5742C60.0557 13.5605 59.7949 12.3125 59.7949 10.8301C59.7949 8.70898 60.2432 7.05371 61.1396 5.86426C62.0361 4.66895 63.2783 4.07129 64.8662 4.07129C65.9854 4.07129 66.9434 4.37891 67.7402 4.99414C68.543 5.60938 69.041 6.42383 69.2344 7.4375H67.2656C67.1133 6.91602 66.8174 6.5 66.3779 6.18945C65.9385 5.87891 65.4287 5.72363 64.8486 5.72363C63.8467 5.72363 63.0703 6.16016 62.5195 7.0332C61.9688 7.90039 61.6904 9.13086 61.6846 10.7246H61.7197C62.001 10.1035 62.4551 9.60547 63.082 9.23047C63.709 8.85547 64.415 8.66797 65.2002 8.66797C66.4072 8.66797 67.4092 9.06641 68.2061 9.86328C69.0088 10.6602 69.4102 11.6592 69.4102 12.8604C69.4102 14.1318 68.9736 15.1807 68.1006 16.0068C67.2275 16.833 66.1201 17.2461 64.7783 17.2461ZM64.7607 15.585C65.5107 15.585 66.1465 15.3271 66.668 14.8115C67.1895 14.2959 67.4502 13.666 67.4502 12.9219C67.4502 12.1543 67.1982 11.5215 66.6943 11.0234C66.1963 10.5254 65.5576 10.2764 64.7783 10.2764C64.0049 10.2764 63.3604 10.5254 62.8447 11.0234C62.335 11.5156 62.0801 12.1367 62.0801 12.8867C62.0801 13.6426 62.3379 14.2812 62.8535 14.8027C63.3691 15.3242 64.0049 15.585 64.7607 15.585ZM79.4736 17L78.3135 13.5723H73.4795L72.3193 17H70.2715L74.8506 4.31738H76.9775L81.5566 17H79.4736ZM75.8701 6.42676L73.9805 11.9902H77.8125L75.9229 6.42676H75.8701ZM91.0049 15.2949V17H82.9541V4.31738H91.0049V6.01367H84.9229V9.72266H90.6797V11.3574H84.9229V15.2949H91.0049ZM98.1152 17H93.0264V4.31738H98.0889C99.2139 4.31738 100.116 4.60742 100.796 5.1875C101.476 5.76172 101.815 6.52637 101.815 7.48145C101.815 8.15527 101.596 8.75879 101.156 9.29199C100.723 9.81934 100.189 10.1357 99.5566 10.2412V10.3115C100.424 10.4111 101.121 10.7451 101.648 11.3135C102.176 11.876 102.439 12.5762 102.439 13.4141C102.439 14.5332 102.056 15.4121 101.288 16.0508C100.521 16.6836 99.4629 17 98.1152 17ZM94.9951 5.92578V9.71387H97.2012C98.0508 9.71387 98.7041 9.54395 99.1611 9.2041C99.6182 8.86426 99.8467 8.38086 99.8467 7.75391C99.8467 7.16797 99.6533 6.7168 99.2666 6.40039C98.8799 6.08398 98.3291 5.92578 97.6143 5.92578H94.9951ZM94.9951 15.3916H97.7109C98.5957 15.3916 99.2695 15.2129 99.7324 14.8555C100.195 14.498 100.427 13.9766 100.427 13.291C100.427 11.9082 99.4834 11.2168 97.5967 11.2168H94.9951V15.3916Z" fill="white"/>
</svg>
