<svg width="267" height="126" viewBox="0 0 267 126" fill="none" xmlns="http://www.w3.org/2000/svg">
<g opacity="0.48" filter="url(#filter0_f_4143_428)">
<path d="M255.794 106.625C255.662 114.077 160.144 115.567 92.2417 114.296C24.3397 113.025 11.0574 107.282 11.189 99.83C11.3205 92.3779 65.1949 88.2573 133.097 89.5286C200.999 90.7998 255.925 99.1725 255.794 106.625Z" fill="#7C838F" fill-opacity="0.86"/>
</g>
<path d="M46.0398 26.0108C46.0398 26.0108 37.7548 17.945 28.7684 23.293C19.782 28.641 21.667 40.652 21.667 40.652C21.667 40.652 15.0916 30.6136 8.77922 38.0657C2.46684 45.5178 21.0095 67.129 21.0095 67.129L46.0398 26.0108Z" fill="#FAAF5E" fill-opacity="0.86"/>
<path d="M21.0082 68.4003C20.6136 68.4003 20.2629 68.2249 19.9999 67.9619C18.0273 65.6386 0.931268 45.2549 7.76969 37.1891C9.56696 35.0849 11.6273 33.989 13.8191 33.989C16.3616 33.989 18.5972 35.4795 20.1753 36.9699C20.3506 32.7178 21.7095 25.967 28.0658 22.1971C30.3014 20.8821 32.7124 20.1807 35.211 20.1807C41.7864 20.1807 46.7399 24.915 46.9591 25.0903C47.3974 25.5287 47.4851 26.1862 47.1783 26.7122L22.1479 67.8304C21.9287 68.1811 21.5342 68.4441 21.1397 68.4441C21.0958 68.4003 21.052 68.4003 21.0082 68.4003ZM13.8191 36.5753C12.4163 36.5753 11.0574 37.3206 9.78614 38.8548C5.92858 43.3699 14.1259 56.6084 20.8328 64.8057L44.3289 26.2301C42.8385 25.0465 39.3316 22.7232 35.211 22.7232C33.1946 22.7232 31.2658 23.293 29.4247 24.3451C21.3588 29.167 22.8931 40.2576 22.9369 40.3452C23.0246 40.9589 22.6739 41.5288 22.1041 41.7918C21.5342 42.011 20.8767 41.7918 20.526 41.2658C19.6931 40.0384 16.7999 36.5753 13.8191 36.5753Z" fill="#9F6F67"/>
<path d="M138.226 31.9286C138.226 31.9286 145.809 21.5395 130.248 16.9367C114.73 12.3339 112.319 20.5751 117.36 26.9751L138.226 31.9286Z" fill="#FAAF5E" fill-opacity="0.86"/>
<path d="M132.001 17.5066C131.475 17.2874 130.905 17.1121 130.292 16.9367C114.774 12.3339 112.363 20.5751 117.404 26.9752L126.829 29.2108C128.494 26.4491 130.949 21.9779 132.001 17.5066Z" fill="white" fill-opacity="0.86"/>
<path d="M138.225 33.2437C138.137 33.2437 138.005 33.2437 137.918 33.1999L117.096 28.2464C116.789 28.1587 116.57 28.0272 116.35 27.7642C113.764 24.4765 112.975 20.8819 114.29 18.1641C114.992 16.7175 117.008 14.2627 122.356 14.2627C124.723 14.2627 127.485 14.7449 130.597 15.6655C136.252 17.3312 139.715 19.9614 140.899 23.5121C142.477 28.2026 139.364 32.4985 139.233 32.7177C139.058 33.0245 138.663 33.2437 138.225 33.2437ZM118.148 25.7916L137.611 30.3944C138.268 29.2108 139.277 26.756 138.444 24.3012C137.523 21.6272 134.674 19.5669 129.896 18.1641C127.003 17.3312 124.504 16.8929 122.4 16.8929C119.463 16.8929 117.446 17.7696 116.701 19.3038C115.868 21.0134 116.438 23.4683 118.148 25.7916Z" fill="#9F6F67"/>
<path d="M8.77922 38.0221C2.46684 45.4303 21.0095 67.0853 21.0095 67.0853L29.2506 53.5838L21.667 40.6522C21.667 40.6084 15.0916 30.5699 8.77922 38.0221Z" fill="white" fill-opacity="0.86"/>
<path d="M21.0082 68.4C20.6136 68.4 20.2629 68.2247 19.9999 67.9617C18.0273 65.6384 0.931268 45.2546 7.76969 37.1888C9.56696 35.0847 11.6273 33.9888 13.8191 33.9888C18.8164 33.9888 22.5863 39.6875 22.7616 39.9066L22.8054 39.9505L30.3891 52.8821C30.6521 53.3205 30.6083 53.8027 30.3891 54.241L22.1479 67.7425C21.9287 68.0932 21.5342 68.3562 21.1397 68.3562C21.0958 68.4001 21.052 68.4 21.0082 68.4ZM13.8191 36.5751C12.4163 36.5751 11.0574 37.3203 9.78614 38.8546C5.92858 43.3697 14.1259 56.6082 20.8328 64.8055L27.7151 53.5396L20.526 41.3094C19.6492 39.9943 16.7561 36.5751 13.8191 36.5751Z" fill="#9F6F67"/>
<path d="M135.422 28.0705C135.422 28.0705 126.83 21.1883 124.156 19.7417L122.841 22.2842C122.841 22.2842 114.074 15.928 103.772 14.4814V16.8485C103.772 16.8485 82.9501 9.44026 62.9609 14.3061C38.8511 20.1801 1.37128 49.8132 13.6015 95.6657C13.6015 95.6657 22.3687 107.063 38.588 107.063C54.8074 107.063 157.559 117.014 147.652 98.3835C137.745 79.7094 135.422 28.0705 135.422 28.0705Z" fill="#FAAF5E" fill-opacity="0.86"/>
<path d="M135.419 28.0705C135.419 28.0705 126.827 21.1883 124.153 19.7417L122.838 22.2842C122.838 22.2842 114.071 15.928 103.769 14.4814V16.8485C103.769 16.8485 82.9472 9.44026 62.958 14.3061C39.8564 19.9171 4.52459 47.3584 12.2836 89.967L16.7548 90.23L19.911 78.5258C19.911 78.5258 48.2291 61.1668 56.3826 72.0381C76.6348 98.9534 108.328 86.5478 112.931 88.5204C116.482 90.0547 135.857 90.23 144.318 90.23C137.216 67.8737 135.419 28.0705 135.419 28.0705Z" fill="white" fill-opacity="0.86"/>
<path d="M62.7827 82.5587C62.7827 82.5587 62.7827 69.89 53.358 66.6023C43.9333 63.3585 31.5277 65.6818 25.3906 74.5805" fill="#FAAF5E" fill-opacity="0.86"/>
<path d="M62.7826 83.8735C62.0374 83.8735 61.4675 83.3036 61.4675 82.5584C61.4675 82.4269 61.336 70.7665 52.9195 67.8734C44.5907 64.9802 32.4919 66.6459 26.4864 75.3693C26.0919 75.983 25.259 76.1145 24.6453 75.72C24.0316 75.3255 23.9001 74.4926 24.2946 73.8789C31.0453 64.1034 44.503 62.2185 53.7524 65.4185C63.9224 68.9254 64.0539 82.0324 64.0539 82.6023C64.0977 83.3036 63.484 83.8735 62.7826 83.8735Z" fill="#9F6F67"/>
<path d="M25.6547 81.5506C25.6547 81.5506 35.6493 63.7094 24.4272 60.2463C11.3203 56.2134 3.69281 104.608 21.2711 96.8494C21.2711 96.8494 23.682 95.622 24.0766 92.9918C24.4711 90.3617 22.8053 87.4247 24.0766 86.9863C25.3478 86.5479 28.1533 83.5232 25.6547 81.5506Z" fill="white" fill-opacity="0.86"/>
<path d="M17.7207 98.9972C15.3098 98.9972 13.7317 97.8137 12.6796 96.5863C7.28777 90.1862 9.65492 72.3888 15.3536 63.7531C18.0714 59.6325 21.4468 57.9229 24.8222 58.9749C27.54 59.8078 29.3811 61.4736 30.3455 63.8407C33.1072 70.7668 27.0578 81.682 26.7948 82.1642C26.4441 82.7779 25.6551 83.0409 24.9975 82.6464C24.3838 82.2957 24.1208 81.5067 24.5153 80.8491C24.5592 80.7614 30.214 70.5477 27.8907 64.8051C27.2331 63.1394 25.9619 62.0435 24.0331 61.4736C21.2715 60.6407 18.992 63.0517 17.5454 65.1997C12.0659 73.5285 10.4878 89.8793 14.6961 94.8766C16.0988 96.5424 18.0714 96.7616 20.7454 95.578C21.403 95.2712 22.192 95.578 22.4989 96.2355C22.8057 96.8931 22.4989 97.6821 21.8413 97.989C20.2632 98.6904 18.9043 98.9972 17.7207 98.9972Z" fill="#9F6F67"/>
<path d="M153.306 105.047C153.306 105.047 145.679 108.685 140.638 106.143C135.553 103.6 123.805 59.7642 135.027 26.9749C135.027 26.9749 140.813 27.1502 144.276 31.6653C144.232 31.6653 135.334 73.8794 153.306 105.047Z" fill="#C1272D" fill-opacity="0.86"/>
<path d="M144.889 108.379C143.048 108.379 141.382 108.028 140.023 107.327C136.297 105.486 132.22 91.0198 130.379 78.0882C128.801 67.0415 127.179 45.6934 133.755 26.537C133.93 26.011 134.456 25.6165 135.026 25.6603C135.289 25.6603 141.514 25.9233 145.284 30.8768C145.503 31.1837 145.59 31.5782 145.503 31.9289C145.415 32.3672 136.955 74.0114 154.401 104.39C154.577 104.697 154.621 105.091 154.533 105.442C154.445 105.793 154.182 106.099 153.832 106.231C153.656 106.362 149.36 108.379 144.889 108.379ZM135.903 28.3781C129.897 46.7454 131.475 67.1292 132.966 77.6937C135.289 94.0445 139.541 104.127 141.163 104.96C142.171 105.486 143.399 105.705 144.845 105.705C147.344 105.705 149.886 104.916 151.377 104.39C142.61 88.3458 140.681 69.6717 140.681 56.6524C140.681 44.0276 142.303 34.4714 142.785 31.9727C140.593 29.4302 137.437 28.6412 135.903 28.3781Z" fill="#9F6F67"/>
<path d="M226.028 71.3365C226.422 67.9611 226.554 64.3665 226.335 60.509C226.072 56.1254 225.326 52.1363 224.274 48.5856C243.518 30.2621 259.212 2.11941 241.502 1.41803C231.42 1.02351 200.91 14.7004 192.976 18.3387C190.828 17.2428 182.411 13.5168 163.562 11.8948L165.446 16.8483C165.446 16.8483 156.767 13.0346 149.666 16.1031L151.287 18.6456C151.287 18.6456 143.923 19.9607 138.663 24.695L141.293 28.0703C141.293 28.0703 132.964 48.0157 144.756 98.3833C144.756 98.3833 149.841 106.537 154.356 107.282L154.882 108.904C154.882 108.904 160.668 109.649 170.663 108.159L170.312 109.079C170.312 109.079 180.088 110.351 183.726 108.159C183.726 108.159 190.828 108.904 196.965 108.378C197.096 108.378 241.458 111.929 252.066 107.063C264.91 101.145 249.392 83.7859 226.028 71.3365Z" fill="#FAAF5E" fill-opacity="0.86"/>
<path d="M144.756 98.3837C132.964 48.0161 141.293 28.0707 141.293 28.0707L138.663 24.6954C143.923 20.0049 151.287 18.646 151.287 18.646C188.548 29.9995 170.093 57.3094 190.258 59.5012C210.422 61.693 225.502 53.8463 225.502 53.8463C225.896 55.9505 226.159 58.1422 226.291 60.5094C226.422 62.7889 226.422 64.9368 226.335 67.041C216.165 63.4902 198.543 66.0327 192.055 71.5561C185.567 77.1232 184.515 86.7672 184.515 86.7672C182.806 96.8056 177.151 105.003 170.575 107.633C162.904 110.702 154.4 107.239 154.4 107.239C149.841 106.537 144.756 98.3837 144.756 98.3837Z" fill="white" fill-opacity="0.86"/>
<path d="M129.02 103.908C129.02 103.908 147.256 100.532 141.645 85.0145C135.99 69.4527 103.683 62.0883 98.5978 77.6501C93.5128 93.168 112.625 94.2639 112.625 94.2639" fill="#FAAF5E" fill-opacity="0.86"/>
<path d="M98.5955 77.6057C94.3435 90.5373 106.924 93.4305 111.22 94.0442C111.527 93.1675 115.209 83.4797 118.979 85.4523C122.135 87.0743 127.834 79.1399 126.957 71.7755C115.648 67.1289 101.752 67.8741 98.5955 77.6057Z" fill="white" fill-opacity="0.86"/>
<path d="M129.021 105.222C128.407 105.222 127.837 104.784 127.75 104.126C127.618 103.425 128.1 102.724 128.802 102.592C128.933 102.548 136.999 101.014 140.155 95.4907C141.734 92.7291 141.821 89.3537 140.418 85.4523C137.087 76.2029 123.673 70.1974 113.24 70.3289C109.163 70.3727 102.018 71.4686 99.8701 78.0002C98.6427 81.7701 98.8619 84.8824 100.484 87.2496C103.947 92.3345 112.67 92.8606 112.758 92.8606C113.503 92.9044 114.029 93.5181 113.985 94.2633C113.941 95.0085 113.328 95.5346 112.583 95.4907C112.188 95.4469 102.5 94.877 98.292 88.74C96.1879 85.6276 95.8372 81.7262 97.3714 77.1673C99.3002 71.2494 105.087 67.7864 113.196 67.6549C124.506 67.4795 139.06 73.8796 142.917 84.4879C144.627 89.1345 144.451 93.2551 142.479 96.762C138.709 103.337 129.679 105.091 129.328 105.135C129.153 105.179 129.065 105.222 129.021 105.222Z" fill="#9F6F67"/>
<path d="M199.336 20.7505C199.336 20.7505 218.054 29.7369 222.92 44.7288C222.92 44.7288 249.704 16.9806 243.742 8.47642C237.736 -0.0277615 199.336 20.7505 199.336 20.7505Z" fill="#FCE9C8" fill-opacity="0.86"/>
<path d="M222.918 46.0434C222.831 46.0434 222.699 46.0434 222.612 45.9996C222.173 45.9119 221.779 45.5612 221.647 45.1229C217.044 30.8323 198.94 21.9774 198.765 21.8898C198.326 21.6706 198.02 21.2322 198.02 20.75C198.02 20.2678 198.283 19.7856 198.721 19.5665C199.817 18.9966 225.592 5.10059 238.217 5.10059C241.373 5.10059 243.609 5.97731 244.793 7.73075C247.686 11.8513 245.012 19.3035 236.595 30.6131C230.677 38.5913 223.927 45.605 223.839 45.6927C223.62 45.9119 223.269 46.0434 222.918 46.0434ZM202.184 20.75C207.137 23.5555 218.798 31.0515 223.444 42.3173C233.395 31.709 246.371 14.5253 242.645 9.26501C241.943 8.25678 240.453 7.77457 238.217 7.77457C228.31 7.73074 208.716 17.3747 202.184 20.75Z" fill="#9F6F67"/>
<path d="M225.108 76.7732C225.108 76.7732 256.056 93.4747 251.146 101.453C246.237 109.431 207.749 104.346 207.749 104.346C207.749 104.346 223.793 90.8884 225.108 76.7732Z" fill="#FCE9C8" fill-opacity="0.86"/>
<path d="M231.29 107.239C219.848 107.239 207.662 105.66 207.531 105.617C207.005 105.529 206.566 105.178 206.435 104.696C206.303 104.214 206.435 103.644 206.873 103.337C207.048 103.206 222.522 90.0548 223.794 76.641C223.838 76.2027 224.101 75.8081 224.495 75.5889C224.89 75.3698 225.372 75.3698 225.722 75.5889C228.221 76.9479 250.402 89.1343 252.769 97.9453C253.164 99.4796 253.032 100.882 252.287 102.11C250.139 105.573 243.301 107.239 231.29 107.239ZM210.774 103.381C215.027 103.863 223.355 104.608 231.29 104.608C245.536 104.608 249.131 102.197 250.008 100.751C250.358 100.181 250.446 99.4796 250.227 98.6467C248.605 92.5973 233.613 83.0411 226.161 78.8328C224.232 89.5288 215.027 99.3042 210.774 103.381Z" fill="#9F6F67"/>
<path d="M186.092 57.6599C181.621 58.186 177.764 62.5696 178.333 67.3477C178.903 72.1258 183.725 75.4574 188.197 74.9313C192.668 74.4053 192.229 70.5039 191.66 65.7696C191.046 60.9915 190.564 57.1339 186.092 57.6599Z" fill="#9F6F67"/>
<path d="M187.189 76.3338C182.147 76.3338 177.545 72.3886 176.975 67.5228C176.668 64.8926 177.457 62.2625 179.254 60.0707C180.964 58.0104 183.375 56.6515 185.874 56.3446C186.224 56.3008 186.531 56.3008 186.838 56.3008C191.748 56.3008 192.317 61.0351 192.887 65.594C193.194 68.0488 193.457 70.3283 193.019 72.2132C192.493 74.5804 190.871 75.8955 188.285 76.2023C187.934 76.29 187.583 76.3338 187.189 76.3338ZM186.882 58.9309C186.663 58.9309 186.487 58.9309 186.224 58.9748C184.383 59.1939 182.586 60.2022 181.315 61.7803C180 63.4022 179.386 65.331 179.605 67.216C180.043 70.7667 183.463 73.7037 187.189 73.7037C187.452 73.7037 187.715 73.7037 187.978 73.6598C189.731 73.4407 190.213 72.6954 190.476 71.6872C190.827 70.2406 190.564 68.1803 190.301 65.9447C189.731 60.9474 189.249 58.9309 186.882 58.9309Z" fill="#9F6F67"/>
<path d="M168.25 46.3501C168.25 46.3501 156.502 57.7475 172.809 67.3037C159.22 80.4983 173.335 88.7395 173.335 88.7395" fill="white" fill-opacity="0.86"/>
<path d="M173.38 90.0555C173.161 90.0555 172.942 90.0116 172.723 89.8801C172.46 89.7486 166.498 86.1541 165.709 79.7978C165.227 75.7649 166.936 71.6882 170.75 67.5676C166.06 64.4553 163.43 60.8607 162.947 56.8716C162.202 50.5154 167.156 45.6058 167.375 45.4304C167.901 44.9044 168.734 44.9482 169.216 45.4742C169.742 46.0003 169.698 46.8332 169.172 47.3154C169.084 47.403 164.92 51.5674 165.534 56.5648C165.972 60.1155 168.646 63.3155 173.468 66.1649C173.819 66.384 174.038 66.7347 174.126 67.1292C174.213 67.5238 174.038 67.9621 173.731 68.2251C169.698 72.1266 167.857 75.9403 168.295 79.4472C168.909 84.5321 173.994 87.5568 174.038 87.5568C174.652 87.9075 174.871 88.7404 174.52 89.3541C174.257 89.8363 173.819 90.0555 173.38 90.0555Z" fill="#9F6F67"/>
<path d="M193.548 96.6303C193.154 96.6303 192.803 96.4549 192.54 96.1481C190.129 93.2549 186.973 86.3288 192.058 80.8493C192.54 80.3233 193.373 80.2794 193.899 80.7616C194.425 81.2438 194.469 82.0767 193.987 82.6028C189.165 87.8192 194.338 94.1755 194.557 94.4385C195.039 95.0083 194.951 95.8412 194.381 96.2796C194.118 96.5426 193.812 96.6303 193.548 96.6303Z" fill="#9F6F67"/>
<path d="M191.707 50.7789C191.4 50.7789 191.049 50.6474 190.83 50.4282C185.307 45.3432 187.937 38.198 190.085 35.1294C190.523 34.5157 191.312 34.3842 191.926 34.8226C192.54 35.2609 192.671 36.05 192.233 36.6637C192.014 36.9705 187.411 43.7213 192.583 48.5432C193.109 49.0254 193.153 49.8583 192.671 50.3844C192.408 50.6474 192.057 50.7789 191.707 50.7789Z" fill="#9F6F67"/>
<path d="M172.813 68.6187C172.155 68.6187 171.586 68.1366 171.498 67.479C171.41 66.7776 171.936 66.1201 172.638 66.0324L181.01 65.0242C181.712 64.9365 182.369 65.4626 182.457 66.1639C182.545 66.8653 182.018 67.5228 181.317 67.6105L172.944 68.6187C172.944 68.6187 172.901 68.6187 172.813 68.6187Z" fill="#9F6F67"/>
<defs>
<filter id="filter0_f_4143_428" x="0.187988" y="78.3003" width="266.606" height="47.4016" filterUnits="userSpaceOnUse" color-interpolation-filters="sRGB">
<feFlood flood-opacity="0" result="BackgroundImageFix"/>
<feBlend mode="normal" in="SourceGraphic" in2="BackgroundImageFix" result="shape"/>
<feGaussianBlur stdDeviation="5.5" result="effect1_foregroundBlur_4143_428"/>
</filter>
</defs>
</svg>
