<svg width="152" height="188" viewBox="0 0 152 188" fill="none" xmlns="http://www.w3.org/2000/svg">
<g opacity="0.48" filter="url(#filter0_f_4143_486)">
<path d="M78.6802 176.585C107.334 176.585 130.563 174.004 130.563 170.82C130.563 167.636 107.334 165.055 78.6802 165.055C50.0261 165.055 26.7974 167.636 26.7974 170.82C26.7974 174.004 50.0261 176.585 78.6802 176.585Z" fill="#7C838F" fill-opacity="0.86"/>
</g>
<path d="M45.4056 141.826C45.4056 141.826 34.8086 165.988 15.5645 156.577C-3.63724 147.125 0.643931 129.195 3.39915 125.253C6.15436 121.268 25.2289 119.615 23.6606 132.883C22.1346 146.15 38.3268 131.95 38.3268 131.95" fill="#FAAF5E"/>
<path d="M85.0788 156.366L74.4819 164.589L47.1417 165.691L26.753 157.849C23.5316 119.827 53.627 94.1404 53.627 94.1404L77.2371 87.9518L135.648 79.7285L139.463 80.0252" fill="#FAAF5E"/>
<path d="M133.32 130.806C133.32 130.806 134.083 141.275 130.988 151.576C127.894 161.876 132.472 170.481 127.597 170.481C122.723 170.481 109.031 174.804 110.684 160.647C112.338 146.489 114.711 146.913 114.711 146.913" fill="#FAAF5E"/>
<path d="M127.595 170.438C131.326 170.438 129.503 165.352 129.884 158.315C128.062 159.545 126.197 160.308 124.628 159.757C121.958 158.824 115.769 159.333 110.64 160.943C109.241 174.677 122.763 170.438 127.595 170.438Z" fill="#FCE9C8"/>
<path d="M119.544 172.982C116.492 172.982 113.397 172.431 111.236 170.227C109.116 168.107 108.311 164.801 108.82 160.393C110.134 148.99 111.956 146.447 113.185 145.515C113.991 144.921 114.711 144.921 115.051 145.006C116.068 145.176 116.788 146.193 116.577 147.21C116.449 147.888 115.983 148.439 115.347 148.651C114.966 149.16 113.652 151.576 112.55 160.817C112.168 163.996 112.634 166.242 113.906 167.514C116.11 169.718 120.858 169.167 124.334 168.786C125.605 168.658 126.665 168.531 127.597 168.531C127.767 168.531 127.852 168.531 127.894 168.489C128.233 167.938 128.106 165.734 128.021 164.081C127.852 160.69 127.64 156.027 129.166 150.983C132.091 141.106 131.412 131.018 131.412 130.891C131.328 129.831 132.133 128.941 133.193 128.856C134.252 128.771 135.142 129.577 135.227 130.636C135.27 131.06 135.948 141.573 132.811 152.085C131.497 156.536 131.667 160.647 131.836 163.911C132.006 167.217 132.09 169.591 130.607 171.159C129.844 171.922 128.827 172.346 127.597 172.346C126.877 172.346 125.859 172.473 124.757 172.601C123.189 172.77 121.366 172.982 119.544 172.982Z" fill="#9F6F67"/>
<path d="M142.433 86.2561L142.984 85.917C142.984 85.917 143.026 86.129 143.069 86.4681C143.493 89.8591 145.188 108.128 137.77 123.812C129.505 141.191 121.79 159.29 108.862 165.691C98.0528 171.074 73.8069 167.81 73.8069 167.81C73.8069 167.81 49.6458 173.448 38.4978 165.691C37.862 165.225 37.2261 164.716 36.6751 164.207C26.5868 154.246 36.6751 154.797 36.6751 154.797" fill="#FAAF5E"/>
<path d="M137.769 123.812C129.503 141.191 121.789 159.29 108.86 165.691C98.0514 171.074 73.8055 167.81 73.8055 167.81C73.8055 167.81 49.6444 173.448 38.4963 165.691C52.3996 159.756 71.0503 165.988 71.0503 165.988C71.0503 165.988 77.8323 168.531 89.489 153.271C99.1534 140.64 91.4813 131.314 81.5625 125.719C79.5279 124.575 77.3661 123.557 75.289 122.709C62.9542 117.792 64.0139 99.0146 64.0139 99.0146L129.927 82.229L142.432 86.2559L143.067 86.4678C143.491 89.9012 145.187 108.128 137.769 123.812Z" fill="#FCE9C8"/>
<path d="M29.3829 134.578C29.3829 134.578 17.0905 151.364 27.2212 163.868C27.2212 163.868 25.6952 171.964 35.8683 171.964C46.0414 171.964 45.7447 170.057 46.1686 151.406" fill="#FAAF5E"/>
<path d="M35.8256 171.964C42.3533 171.964 44.5575 171.201 45.4476 165.691C44.2184 164.631 42.6076 163.699 40.4882 163.105C32.8584 160.859 27.1784 163.868 27.1784 163.868C27.1784 163.868 25.6525 171.964 35.8256 171.964Z" fill="#FCE9C8"/>
<path d="M35.8245 173.872C31.84 173.872 28.9153 172.77 27.0926 170.523C25.3123 168.361 25.1427 165.776 25.2275 164.419C15.1816 151.025 26.8806 134.197 27.3893 133.476C27.9827 132.628 29.1696 132.416 30.0597 133.01C30.9075 133.603 31.1194 134.79 30.526 135.68C30.3564 135.892 19.6323 151.449 28.7033 162.639C29.0424 163.063 29.212 163.656 29.0848 164.207C29.0848 164.207 28.7033 166.496 30.0597 168.107C31.1194 169.379 33.0693 170.014 35.8245 170.014C43.8358 170.014 43.8358 170.014 44.1749 152.932L44.2173 151.279C44.2597 150.219 45.1074 149.414 46.1671 149.414C47.2268 149.456 48.0746 150.304 48.0322 151.364L47.9898 153.017C47.6507 170.269 47.5659 173.872 35.8245 173.872Z" fill="#9F6F67"/>
<path d="M61.8521 144.327L66.8538 170.438C66.8538 170.438 67.2353 175.101 77.7899 175.101C88.3445 175.101 90.04 177.686 92.5833 144.327" fill="#FAAF5E"/>
<path d="M91.1846 159.46C87.1153 162.215 81.9016 163.911 77.1966 162.47C73.0002 161.198 68.719 161.876 65.3704 162.893L66.8115 170.438C66.8115 170.438 67.193 175.101 77.7476 175.101C86.3948 175.101 89.1076 176.839 91.1846 159.46Z" fill="#FCE9C8"/>
<path d="M81.4777 177.051C80.969 177.051 80.418 177.051 79.8669 177.051C79.2311 177.051 78.5105 177.009 77.7899 177.009C66.4723 177.009 65.1583 171.837 64.9888 170.735L59.987 144.709C59.7751 143.692 60.4533 142.675 61.5129 142.463C62.5303 142.251 63.5476 142.929 63.7595 143.989L68.7613 170.1C68.8037 170.227 68.8037 170.184 68.8037 170.269C68.9308 170.651 70.0753 173.236 77.8323 173.236C78.5953 173.236 79.3159 173.236 79.9941 173.279C84.4872 173.363 85.7164 173.279 86.9457 170.651C88.726 166.836 89.7009 158.061 90.7606 144.243C90.8454 143.183 91.7356 142.42 92.7953 142.505C93.8549 142.59 94.6179 143.522 94.5331 144.54C93.2191 161.368 92.2018 168.362 90.3791 172.261C88.3021 176.585 85.1654 177.051 81.4777 177.051Z" fill="#9F6F67"/>
<path d="M133.531 95.6662C152.394 85.9594 151.207 68.7075 151.207 68.7075C149.936 39.9261 120.222 26.4891 120.222 26.4891C120.222 26.4891 71.8994 6.90589 51.638 49.1243C51.638 49.1243 37.2261 64.5111 48.5013 90.4525C54.3084 105.415 67.2791 105.415 67.2791 105.415" fill="#FCE9C8"/>
<path d="M120.178 26.4891C120.178 26.4891 71.8554 6.90589 51.594 49.1243C51.594 49.1243 39.0048 62.5612 46.5498 85.4507C47.8214 83.1194 50.1528 80.4489 52.9928 79.5588C60.0716 77.3546 72.364 87.5701 83.5121 75.6591C93.1341 65.4012 111.615 63.7057 119.245 67.4782C125.434 70.4878 142.474 72.692 150.739 64.4263C146.967 38.6121 120.178 26.4891 120.178 26.4891Z" fill="#FAAF5E"/>
<path d="M104.876 24.1152C104.876 24.1152 117.465 2.20067 126.028 0.886649C134.59 -0.427377 142.432 26.2346 137.642 42.0453" fill="#FAAF5E"/>
<path d="M133.403 36.5354C133.403 36.5354 121.068 26.7438 113.184 25.9384C113.184 25.9384 118.355 12.0352 125.434 10.8059C132.47 9.57668 133.403 36.5354 133.403 36.5354Z" fill="#FBDA98"/>
<path d="M66.8961 32.2116C66.8961 32.2116 45.0663 19.4528 37.0126 22.5895C28.9589 25.7262 34.5965 52.2187 46.5923 63.5786" fill="#FAAF5E"/>
<path d="M93.3445 85.0267C93.3445 85.0267 93.3869 85.1963 93.4716 85.5354C94.0651 87.9515 97.0746 97.9974 104.62 95.9628C113.182 93.6315 114.326 87.1037 112.377 79.6011L102.076 81.4237L93.3445 85.0267Z" fill="#F78C8B"/>
<path d="M102.672 98.1248C95.2537 98.1248 92.3289 88.8419 91.6507 86.0019C91.5659 85.6204 91.5236 85.4085 91.5236 85.4085C91.354 84.5183 91.8202 83.6281 92.668 83.2467L101.442 79.6437C101.569 79.6013 101.697 79.5589 101.824 79.5165L112.124 77.6938C113.099 77.5243 114.032 78.1177 114.286 79.0926C117.55 91.5971 111.107 96.1326 105.172 97.7857C104.282 97.9976 103.477 98.1248 102.672 98.1248ZM95.6352 86.129C96.4405 88.7571 98.6023 94.3099 102.672 94.3099C103.138 94.3099 103.604 94.2251 104.113 94.098C107.928 93.0383 112.633 90.6646 110.937 81.8055L102.629 83.2891L95.6352 86.129Z" fill="#9F6F67"/>
<path d="M48.3303 57.1778C48.3303 57.1778 54.1798 42.554 60.6228 37.9337C60.6228 37.9337 49.2204 28.4388 42.4808 30.8973C35.7411 33.3134 48.3303 57.1778 48.3303 57.1778Z" fill="#FBDA98"/>
<path d="M84.5281 82.2297C84.5281 82.2297 92.0307 93.4201 102.712 82.2297C102.712 82.2297 117.421 86.8076 117.082 72.2686" fill="#FCE9C8"/>
<path d="M93.2598 89.0963C92.9631 89.0963 92.6664 89.0963 92.3273 89.0539C86.5201 88.5452 83.0443 83.5011 82.9172 83.2891C82.3237 82.399 82.5781 81.2121 83.4258 80.6611C84.316 80.0676 85.4605 80.322 86.0539 81.1697C86.0963 81.2121 88.6819 84.9422 92.6664 85.2813C95.4216 85.4933 98.3464 84.0521 101.314 80.9154C101.822 80.4067 102.585 80.1948 103.263 80.4067C103.306 80.4067 109.155 82.187 112.589 79.6014C114.369 78.245 115.259 75.7865 115.174 72.2683C115.132 71.2086 115.98 70.3608 117.039 70.3184C118.099 70.276 118.947 71.1238 118.989 72.1835C119.074 76.9733 117.718 80.4915 114.878 82.6533C111.02 85.5781 105.637 84.8575 103.306 84.3064C100.042 87.5279 96.6509 89.0963 93.2598 89.0963Z" fill="#9F6F67"/>
<path d="M110.981 59.8903C110.43 59.8903 109.879 59.636 109.497 59.1697C108.862 58.3643 108.989 57.1351 109.794 56.4993C110.006 56.3297 115.347 52.1333 120.646 51.2008C121.705 51.0312 122.68 51.7094 122.85 52.7267C123.019 53.744 122.341 54.7614 121.324 54.9309C116.915 55.7363 112.21 59.4664 112.168 59.4664C111.829 59.7631 111.405 59.8903 110.981 59.8903Z" fill="#9F6F67"/>
<path d="M108.904 68.0714C109.582 71.0385 106.996 77.1848 102.376 78.2021C97.7556 79.2194 92.8386 74.7687 92.1604 71.7591C91.4822 68.792 95.0852 67.2236 99.7054 66.1639C104.326 65.189 108.268 65.1042 108.904 68.0714Z" fill="#9F6F67"/>
<path d="M73.4227 66.0796C72.6173 66.0796 71.8543 65.5709 71.6 64.7655C71.2609 63.7482 71.8543 62.6885 72.8292 62.3494C77.9158 60.7387 85.2913 61.4593 85.6304 61.5017C86.6901 61.6288 87.4531 62.5614 87.3259 63.5787C87.1987 64.6384 86.2662 65.4014 85.2489 65.2742C85.1641 65.2742 78.3397 64.596 74.0161 65.9524C73.8042 66.0796 73.6346 66.0796 73.4227 66.0796Z" fill="#9F6F67"/>
<path d="M104.876 91.5122C104.833 91.5122 104.749 91.5122 104.706 91.5122C103.647 91.4275 102.884 90.4949 102.968 89.4352C103.265 85.8747 101.358 83.5857 101.273 83.5009C100.595 82.6956 100.679 81.5087 101.485 80.8305C102.29 80.1523 103.477 80.2371 104.155 81C104.282 81.1272 107.207 84.5182 106.783 89.7743C106.698 90.7493 105.851 91.5122 104.876 91.5122Z" fill="#9F6F67"/>
<path d="M102.842 84.3063C101.952 84.3063 101.147 83.6705 100.977 82.7379C100.384 79.4741 100.256 77.9481 100.256 77.9057C100.172 76.846 100.935 75.9135 101.952 75.8287C103.012 75.7439 103.944 76.5069 104.029 77.5242C104.029 77.5242 104.156 78.9654 104.75 82.0597C104.919 83.077 104.241 84.0944 103.224 84.2639C103.054 84.2639 102.969 84.3063 102.842 84.3063Z" fill="#9F6F67"/>
<path d="M110.981 49.3954C112.852 47.9111 113.448 45.5483 112.313 44.118C111.178 42.6877 108.741 42.7315 106.871 44.2158C105.001 45.7001 104.405 48.0628 105.54 49.4931C106.675 50.9234 109.111 50.8796 110.981 49.3954Z" fill="#FCE9C8"/>
<path d="M87.5734 53.575C87.7821 51.7611 86.0284 50.0693 83.6563 49.7964C81.2842 49.5235 79.1921 50.7727 78.9834 52.5867C78.7747 54.4006 80.5284 56.0923 82.9005 56.3653C85.2726 56.6382 87.3647 55.389 87.5734 53.575Z" fill="#FCE9C8"/>
<defs>
<filter id="filter0_f_4143_486" x="15.7974" y="154.055" width="125.766" height="33.5293" filterUnits="userSpaceOnUse" color-interpolation-filters="sRGB">
<feFlood flood-opacity="0" result="BackgroundImageFix"/>
<feBlend mode="normal" in="SourceGraphic" in2="BackgroundImageFix" result="shape"/>
<feGaussianBlur stdDeviation="5.5" result="effect1_foregroundBlur_4143_486"/>
</filter>
</defs>
</svg>
