<svg width="123" height="117" viewBox="0 0 123 117" fill="none" xmlns="http://www.w3.org/2000/svg">
<rect opacity="0.2" y="29" width="123" height="60" rx="30" fill="#30394B"/>
<circle cx="93" cy="59" r="26" fill="#30394B"/>
<path d="M14.0938 112H12.6875V106.867H6.5V112H5.09375V100.727H6.5V105.602H12.6875V100.727H14.0938V112ZM19.3281 104.914C18.6979 104.914 18.1745 105.133 17.7578 105.57C17.3464 106.003 17.1198 106.56 17.0781 107.242H21.4922C21.4766 106.555 21.2708 105.995 20.875 105.562C20.4792 105.13 19.9635 104.914 19.3281 104.914ZM21.4609 109.672H22.7969C22.6771 110.391 22.3021 110.982 21.6719 111.445C21.0469 111.909 20.2943 112.141 19.4141 112.141C18.2526 112.141 17.3385 111.766 16.6719 111.016C16.0052 110.266 15.6719 109.25 15.6719 107.969C15.6719 106.698 16.0052 105.674 16.6719 104.898C17.3438 104.122 18.237 103.734 19.3516 103.734C20.4453 103.734 21.3099 104.102 21.9453 104.836C22.5807 105.57 22.8984 106.555 22.8984 107.789V108.305H17.0703V108.383C17.0703 109.164 17.2839 109.789 17.7109 110.258C18.138 110.727 18.7161 110.961 19.4453 110.961C19.9557 110.961 20.3906 110.844 20.75 110.609C21.1094 110.375 21.3464 110.062 21.4609 109.672ZM26.9531 110.984C27.5938 110.984 28.1302 110.786 28.5625 110.391C29 109.99 29.2188 109.497 29.2188 108.914V108.25L27.0469 108.383C26.5 108.419 26.0755 108.552 25.7734 108.781C25.4766 109.01 25.3281 109.318 25.3281 109.703C25.3281 110.089 25.4766 110.398 25.7734 110.633C26.0703 110.867 26.4635 110.984 26.9531 110.984ZM26.6484 112.141C25.8411 112.141 25.1875 111.917 24.6875 111.469C24.1927 111.021 23.9453 110.432 23.9453 109.703C23.9453 109.005 24.2005 108.448 24.7109 108.031C25.2266 107.615 25.9531 107.38 26.8906 107.328L29.2188 107.195V106.516C29.2188 106.021 29.0625 105.633 28.75 105.352C28.4375 105.07 28 104.93 27.4375 104.93C26.9219 104.93 26.5026 105.044 26.1797 105.273C25.8568 105.497 25.651 105.812 25.5625 106.219H24.25C24.2969 105.495 24.6094 104.901 25.1875 104.438C25.7708 103.969 26.5312 103.734 27.4688 103.734C28.4219 103.734 29.1771 103.974 29.7344 104.453C30.2969 104.932 30.5781 105.576 30.5781 106.383V112H29.2891V110.602H29.2578C29.013 111.065 28.6536 111.438 28.1797 111.719C27.7057 112 27.1953 112.141 26.6484 112.141ZM35.3828 112.141C34.3411 112.141 33.5 111.758 32.8594 110.992C32.224 110.227 31.9062 109.208 31.9062 107.938C31.9062 106.672 32.224 105.656 32.8594 104.891C33.4948 104.12 34.3255 103.734 35.3516 103.734C35.9245 103.734 36.4375 103.865 36.8906 104.125C37.3438 104.385 37.6927 104.742 37.9375 105.195H37.9688V100.727H39.3281V112H38.0312V110.625H38.0078C37.7422 111.099 37.3828 111.471 36.9297 111.742C36.4766 112.008 35.9609 112.141 35.3828 112.141ZM35.6406 104.93C34.9219 104.93 34.3516 105.203 33.9297 105.75C33.5078 106.292 33.2969 107.021 33.2969 107.938C33.2969 108.859 33.5078 109.591 33.9297 110.133C34.3516 110.674 34.9219 110.945 35.6406 110.945C36.3438 110.945 36.9089 110.672 37.3359 110.125C37.763 109.573 37.9766 108.844 37.9766 107.938C37.9766 107.031 37.7604 106.305 37.3281 105.758C36.901 105.206 36.3385 104.93 35.6406 104.93ZM44.4219 104.914C43.7917 104.914 43.2682 105.133 42.8516 105.57C42.4401 106.003 42.2135 106.56 42.1719 107.242H46.5859C46.5703 106.555 46.3646 105.995 45.9688 105.562C45.5729 105.13 45.0573 104.914 44.4219 104.914ZM46.5547 109.672H47.8906C47.7708 110.391 47.3958 110.982 46.7656 111.445C46.1406 111.909 45.388 112.141 44.5078 112.141C43.3464 112.141 42.4323 111.766 41.7656 111.016C41.099 110.266 40.7656 109.25 40.7656 107.969C40.7656 106.698 41.099 105.674 41.7656 104.898C42.4375 104.122 43.3307 103.734 44.4453 103.734C45.5391 103.734 46.4036 104.102 47.0391 104.836C47.6745 105.57 47.9922 106.555 47.9922 107.789V108.305H42.1641V108.383C42.1641 109.164 42.3776 109.789 42.8047 110.258C43.2318 110.727 43.8099 110.961 44.5391 110.961C45.0495 110.961 45.4844 110.844 45.8438 110.609C46.2031 110.375 46.4401 110.062 46.5547 109.672ZM49.3672 112V103.875H50.6484V105.203H50.6797C50.8151 104.75 51.0573 104.393 51.4062 104.133C51.7604 103.867 52.1745 103.734 52.6484 103.734C52.7578 103.734 52.9401 103.753 53.1953 103.789V105.109C53.0495 105.057 52.8073 105.031 52.4688 105.031C51.9427 105.031 51.5208 105.206 51.2031 105.555C50.8854 105.904 50.7266 106.365 50.7266 106.938V112H49.3672ZM58.0234 101.914H59.3828V103.875H60.9609V104.992H59.3828V109.82C59.3828 110.19 59.4635 110.464 59.625 110.641C59.7865 110.812 60.0417 110.898 60.3906 110.898C60.6094 110.898 60.7969 110.885 60.9531 110.859V112C60.776 112.042 60.4896 112.062 60.0938 112.062C59.349 112.062 58.8177 111.896 58.5 111.562C58.1823 111.229 58.0234 110.672 58.0234 109.891V104.992H56.8125V103.875H58.0234V101.914ZM65.4375 104.914C64.8073 104.914 64.2839 105.133 63.8672 105.57C63.4557 106.003 63.2292 106.56 63.1875 107.242H67.6016C67.5859 106.555 67.3802 105.995 66.9844 105.562C66.5885 105.13 66.0729 104.914 65.4375 104.914ZM67.5703 109.672H68.9062C68.7865 110.391 68.4115 110.982 67.7812 111.445C67.1562 111.909 66.4036 112.141 65.5234 112.141C64.362 112.141 63.4479 111.766 62.7812 111.016C62.1146 110.266 61.7812 109.25 61.7812 107.969C61.7812 106.698 62.1146 105.674 62.7812 104.898C63.4531 104.122 64.3464 103.734 65.4609 103.734C66.5547 103.734 67.4193 104.102 68.0547 104.836C68.6901 105.57 69.0078 106.555 69.0078 107.789V108.305H63.1797V108.383C63.1797 109.164 63.3932 109.789 63.8203 110.258C64.2474 110.727 64.8255 110.961 65.5547 110.961C66.0651 110.961 66.5 110.844 66.8594 110.609C67.2188 110.375 67.4557 110.062 67.5703 109.672ZM73.1016 108.906H73.0703L71.1094 112H69.6016L72.3672 107.938L69.6484 103.875H71.1641L73.1172 106.922H73.1484L75.0781 103.875H76.5938L73.8516 107.883L76.5547 112H75.0469L73.1016 108.906ZM78.1797 101.914H79.5391V103.875H81.1172V104.992H79.5391V109.82C79.5391 110.19 79.6198 110.464 79.7812 110.641C79.9427 110.812 80.1979 110.898 80.5469 110.898C80.7656 110.898 80.9531 110.885 81.1094 110.859V112C80.9323 112.042 80.6458 112.062 80.25 112.062C79.5052 112.062 78.974 111.896 78.6562 111.562C78.3385 111.229 78.1797 110.672 78.1797 109.891V104.992H76.9688V103.875H78.1797V101.914ZM92.6016 106.539H91.2734C91.1693 106.07 90.9375 105.685 90.5781 105.383C90.224 105.081 89.763 104.93 89.1953 104.93C88.487 104.93 87.9167 105.203 87.4844 105.75C87.0521 106.292 86.8359 107.021 86.8359 107.938C86.8359 108.87 87.0521 109.604 87.4844 110.141C87.9219 110.677 88.4974 110.945 89.2109 110.945C89.7578 110.945 90.2083 110.81 90.5625 110.539C90.9219 110.263 91.1615 109.878 91.2812 109.383H92.6172C92.513 110.195 92.1458 110.859 91.5156 111.375C90.8906 111.885 90.1198 112.141 89.2031 112.141C88.0677 112.141 87.1589 111.766 86.4766 111.016C85.7943 110.26 85.4531 109.234 85.4531 107.938C85.4531 106.661 85.7943 105.643 86.4766 104.883C87.1589 104.117 88.0625 103.734 89.1875 103.734C90.1562 103.734 90.9427 104.008 91.5469 104.555C92.1562 105.102 92.5078 105.763 92.6016 106.539ZM97.2344 112.141C96.099 112.141 95.1875 111.763 94.5 111.008C93.8125 110.247 93.4688 109.224 93.4688 107.938C93.4688 106.651 93.8125 105.63 94.5 104.875C95.1875 104.115 96.099 103.734 97.2344 103.734C98.3646 103.734 99.2734 104.115 99.9609 104.875C100.648 105.63 100.992 106.651 100.992 107.938C100.992 109.219 100.648 110.24 99.9609 111C99.2734 111.76 98.3646 112.141 97.2344 112.141ZM95.4922 110.148C95.9245 110.68 96.5052 110.945 97.2344 110.945C97.9635 110.945 98.5417 110.682 98.9688 110.156C99.3958 109.625 99.6094 108.885 99.6094 107.938C99.6094 106.99 99.3958 106.253 98.9688 105.727C98.5417 105.195 97.9635 104.93 97.2344 104.93C96.5052 104.93 95.9245 105.195 95.4922 105.727C95.0651 106.258 94.8516 106.995 94.8516 107.938C94.8516 108.88 95.0651 109.617 95.4922 110.148ZM102.438 112V100.727H103.797V112H102.438ZM109 112.141C107.865 112.141 106.953 111.763 106.266 111.008C105.578 110.247 105.234 109.224 105.234 107.938C105.234 106.651 105.578 105.63 106.266 104.875C106.953 104.115 107.865 103.734 109 103.734C110.13 103.734 111.039 104.115 111.727 104.875C112.414 105.63 112.758 106.651 112.758 107.938C112.758 109.219 112.414 110.24 111.727 111C111.039 111.76 110.13 112.141 109 112.141ZM107.258 110.148C107.69 110.68 108.271 110.945 109 110.945C109.729 110.945 110.307 110.682 110.734 110.156C111.161 109.625 111.375 108.885 111.375 107.938C111.375 106.99 111.161 106.253 110.734 105.727C110.307 105.195 109.729 104.93 109 104.93C108.271 104.93 107.69 105.195 107.258 105.727C106.831 106.258 106.617 106.995 106.617 107.938C106.617 108.88 106.831 109.617 107.258 110.148ZM114.133 112V103.875H115.414V105.203H115.445C115.581 104.75 115.823 104.393 116.172 104.133C116.526 103.867 116.94 103.734 117.414 103.734C117.523 103.734 117.706 103.753 117.961 103.789V105.109C117.815 105.057 117.573 105.031 117.234 105.031C116.708 105.031 116.286 105.206 115.969 105.555C115.651 105.904 115.492 106.365 115.492 106.938V112H114.133Z" fill="#817D90"/>
<path d="M26.4932 17L27.1963 13.5283H24.5332L23.8301 17H22.3359L23.0303 13.5283H21L21.29 12.043H23.3379L23.918 9.13379H21.7998L22.0986 7.65723H24.2168L24.9111 4.31738H26.4053L25.7373 7.65723H28.3916L29.0771 4.31738H30.5801L29.9033 7.65723H32.0479L31.7666 9.13379H29.5957L28.998 12.043H31.2305L30.9492 13.5283H28.708L28.0049 17H26.4932ZM24.7705 12.1133H27.5303L28.1543 9.07227H25.3857L24.7705 12.1133ZM41.2412 17.2373C39.9756 17.2373 38.9238 16.8887 38.0859 16.1914C37.248 15.4883 36.7998 14.583 36.7412 13.4756H38.6221C38.6924 14.1025 38.9707 14.6123 39.457 15.0049C39.9492 15.3975 40.5498 15.5938 41.2588 15.5938C42.0557 15.5938 42.7061 15.3418 43.21 14.8379C43.7139 14.334 43.9658 13.6836 43.9658 12.8867C43.9658 12.0898 43.7139 11.4365 43.21 10.9268C42.7119 10.4111 42.0674 10.1533 41.2764 10.1533C40.7256 10.1533 40.2246 10.2734 39.7734 10.5137C39.3281 10.748 38.9824 11.0732 38.7363 11.4893H36.9346L37.6025 4.31738H45.1523V5.97852H39.1846L38.833 9.87207H38.877C39.1582 9.46777 39.5449 9.1543 40.0371 8.93164C40.5352 8.70312 41.0918 8.58887 41.707 8.58887C42.9258 8.58887 43.9277 8.99023 44.7129 9.79297C45.498 10.5898 45.8906 11.6035 45.8906 12.834C45.8906 14.1348 45.457 15.1953 44.5898 16.0156C43.7285 16.8301 42.6123 17.2373 41.2412 17.2373ZM53.0273 17.2109C51.2461 17.2109 49.8311 16.6221 48.7822 15.4443C47.7393 14.2666 47.2178 12.6699 47.2178 10.6543C47.2178 8.65039 47.7422 7.05957 48.791 5.88184C49.8398 4.69824 51.252 4.10645 53.0273 4.10645C54.4688 4.10645 55.6846 4.51367 56.6748 5.32812C57.665 6.13672 58.2422 7.2002 58.4062 8.51855H56.4551C56.2793 7.7041 55.8779 7.05371 55.251 6.56738C54.6299 6.0752 53.8887 5.8291 53.0273 5.8291C51.873 5.8291 50.9502 6.26855 50.2588 7.14746C49.5732 8.02051 49.2305 9.18945 49.2305 10.6543C49.2305 12.1367 49.5732 13.3145 50.2588 14.1875C50.9443 15.0547 51.8701 15.4883 53.0361 15.4883C53.915 15.4883 54.6533 15.2744 55.251 14.8467C55.8545 14.4189 56.2559 13.8213 56.4551 13.0537H58.415C58.1748 14.3662 57.5801 15.3887 56.6309 16.1211C55.6875 16.8477 54.4863 17.2109 53.0273 17.2109ZM64.7783 17.2461C63.8408 17.2461 63.0088 17.0146 62.2822 16.5518C61.5615 16.0889 60.9932 15.4297 60.5771 14.5742C60.0557 13.5605 59.7949 12.3125 59.7949 10.8301C59.7949 8.70898 60.2432 7.05371 61.1396 5.86426C62.0361 4.66895 63.2783 4.07129 64.8662 4.07129C65.9854 4.07129 66.9434 4.37891 67.7402 4.99414C68.543 5.60938 69.041 6.42383 69.2344 7.4375H67.2656C67.1133 6.91602 66.8174 6.5 66.3779 6.18945C65.9385 5.87891 65.4287 5.72363 64.8486 5.72363C63.8467 5.72363 63.0703 6.16016 62.5195 7.0332C61.9688 7.90039 61.6904 9.13086 61.6846 10.7246H61.7197C62.001 10.1035 62.4551 9.60547 63.082 9.23047C63.709 8.85547 64.415 8.66797 65.2002 8.66797C66.4072 8.66797 67.4092 9.06641 68.2061 9.86328C69.0088 10.6602 69.4102 11.6592 69.4102 12.8604C69.4102 14.1318 68.9736 15.1807 68.1006 16.0068C67.2275 16.833 66.1201 17.2461 64.7783 17.2461ZM64.7607 15.585C65.5107 15.585 66.1465 15.3271 66.668 14.8115C67.1895 14.2959 67.4502 13.666 67.4502 12.9219C67.4502 12.1543 67.1982 11.5215 66.6943 11.0234C66.1963 10.5254 65.5576 10.2764 64.7783 10.2764C64.0049 10.2764 63.3604 10.5254 62.8447 11.0234C62.335 11.5156 62.0801 12.1367 62.0801 12.8867C62.0801 13.6426 62.3379 14.2812 62.8535 14.8027C63.3691 15.3242 64.0049 15.585 64.7607 15.585ZM79.4736 17L78.3135 13.5723H73.4795L72.3193 17H70.2715L74.8506 4.31738H76.9775L81.5566 17H79.4736ZM75.8701 6.42676L73.9805 11.9902H77.8125L75.9229 6.42676H75.8701ZM91.0049 15.2949V17H82.9541V4.31738H91.0049V6.01367H84.9229V9.72266H90.6797V11.3574H84.9229V15.2949H91.0049ZM98.1152 17H93.0264V4.31738H98.0889C99.2139 4.31738 100.116 4.60742 100.796 5.1875C101.476 5.76172 101.815 6.52637 101.815 7.48145C101.815 8.15527 101.596 8.75879 101.156 9.29199C100.723 9.81934 100.189 10.1357 99.5566 10.2412V10.3115C100.424 10.4111 101.121 10.7451 101.648 11.3135C102.176 11.876 102.439 12.5762 102.439 13.4141C102.439 14.5332 102.056 15.4121 101.288 16.0508C100.521 16.6836 99.4629 17 98.1152 17ZM94.9951 5.92578V9.71387H97.2012C98.0508 9.71387 98.7041 9.54395 99.1611 9.2041C99.6182 8.86426 99.8467 8.38086 99.8467 7.75391C99.8467 7.16797 99.6533 6.7168 99.2666 6.40039C98.8799 6.08398 98.3291 5.92578 97.6143 5.92578H94.9951ZM94.9951 15.3916H97.7109C98.5957 15.3916 99.2695 15.2129 99.7324 14.8555C100.195 14.498 100.427 13.9766 100.427 13.291C100.427 11.9082 99.4834 11.2168 97.5967 11.2168H94.9951V15.3916Z" fill="white"/>
</svg>
