<svg width="139" height="176" viewBox="0 0 139 176" fill="none" xmlns="http://www.w3.org/2000/svg">
<path d="M43.6833 150.358C42.1242 150.358 41.3357 151.386 41.0877 152.927C40.6359 155.718 41.0965 160.156 37.7035 163.54C32.8931 168.351 20.269 169.52 16.3976 163.381C13.1464 158.216 13.2173 151.075 16.1407 147.629C22.404 140.241 33.1234 139.913 40.7776 143.696C43.5593 145.069 48.8836 150.358 48.8836 150.358H43.6833V150.358Z" fill="white"/>
<g opacity="0.3">
<g opacity="0.3">
<path opacity="0.3" d="M48.8929 150.358H43.6838C42.1246 150.358 41.3362 151.386 41.0881 152.927C40.6363 155.718 41.097 160.156 37.704 163.54C32.8935 168.35 20.2694 169.52 16.3981 163.372C15.2995 161.627 14.5731 159.651 14.2188 157.667C14.3162 157.826 14.4137 157.985 14.5111 158.145C18.3825 164.293 31.0066 163.124 35.817 158.313C39.2011 154.92 38.7405 150.491 39.2011 147.7C39.2011 147.682 39.2011 147.665 39.21 147.656C39.5201 145.831 41.726 145.069 43.1434 146.265L47.254 149.747C47.254 149.747 46.7756 148.905 46.0403 147.682C47.6438 149.126 48.8929 150.358 48.8929 150.358Z" fill="#1E1B24"/>
</g>
</g>
<path d="M26.1586 170.575C25.4144 170.575 24.6703 170.54 23.9438 170.451C19.9484 169.999 16.8478 168.316 15.2 165.711C11.6918 160.148 11.6298 152.334 15.0583 148.286C21.8443 140.277 33.4495 140.065 41.4049 143.998C44.355 145.46 49.6615 150.695 49.883 150.917L52.3281 153.344H43.6817C43.2919 153.344 42.7072 153.344 42.4857 154.726C42.3971 155.258 42.344 155.896 42.2908 156.578C42.0605 159.324 41.7504 163.08 38.7118 166.119C35.9566 168.865 31.0222 170.575 26.1586 170.575ZM30.5527 144.326C25.6359 144.326 20.6837 146.036 17.2199 150.12C14.6242 153.185 14.8013 159.758 17.5919 164.197C18.7702 166.066 21.1355 167.279 24.2539 167.634C28.8252 168.148 34.176 166.633 36.6919 164.117C38.9953 161.813 39.2433 158.908 39.4559 156.347C39.518 155.612 39.5711 154.921 39.6774 154.274C40.0672 151.883 41.5201 150.509 43.6728 150.509H45.3029C43.5488 148.932 41.4492 147.187 40.147 146.541C37.3121 145.141 33.9457 144.326 30.5527 144.326Z" fill="#9F6F67"/>
<path d="M101.567 151.927C103.127 151.927 103.915 152.955 104.163 154.496C104.615 157.287 104.154 161.725 107.547 165.109C112.358 169.92 124.982 171.089 128.853 164.95C132.104 159.785 132.034 152.645 129.11 149.199C122.847 141.81 112.127 141.482 104.473 145.265C101.691 146.638 96.3672 151.927 96.3672 151.927H101.567V151.927Z" fill="white"/>
<path d="M119.091 170.576C114.228 170.576 109.293 168.875 106.547 166.119C103.508 163.081 103.189 159.325 102.968 156.578C102.915 155.905 102.862 155.267 102.773 154.727C102.552 153.345 101.958 153.345 101.577 153.345H92.9219L95.367 150.917C95.5884 150.696 100.895 145.451 103.845 143.998C111.8 140.065 123.406 140.278 130.192 148.286C133.62 152.335 133.558 160.148 130.05 165.712C128.402 168.325 125.302 170.009 121.306 170.451C120.58 170.531 119.836 170.576 119.091 170.576ZM99.9382 150.51H101.568C103.721 150.51 105.174 151.883 105.564 154.275C105.67 154.922 105.723 155.613 105.785 156.348C105.998 158.908 106.237 161.814 108.549 164.117C111.065 166.633 116.416 168.148 120.987 167.634C124.106 167.289 126.471 166.066 127.649 164.197C130.449 159.759 130.617 153.176 128.021 150.12C122.174 143.219 112.057 143.095 105.094 146.541C103.801 147.188 101.692 148.933 99.9382 150.51Z" fill="#9F6F67"/>
<g opacity="0.3">
<g opacity="0.3">
<path opacity="0.3" d="M96.4922 150.358H101.701C103.26 150.358 104.049 151.386 104.297 152.927C104.749 155.718 104.288 160.156 107.681 163.54C112.492 168.35 125.116 169.52 128.987 163.372C130.086 161.627 130.812 159.651 131.166 157.667C131.069 157.826 130.971 157.985 130.874 158.145C127.003 164.293 114.379 163.124 109.568 158.313C106.184 154.92 106.645 150.491 106.184 147.7C106.184 147.682 106.184 147.665 106.175 147.656C105.865 145.831 103.659 145.069 102.242 146.265L98.1311 149.747C98.1311 149.747 98.6095 148.905 99.3448 147.682C97.7413 149.126 96.4922 150.358 96.4922 150.358Z" fill="#1E1B24"/>
</g>
</g>
<g opacity="0.3">
<g opacity="0.3">
<g opacity="0.3">
<path opacity="0.3" d="M42.7748 161.815H18.6783C18.6783 161.815 7.07297 155.268 9.27887 142.715C9.74839 140.066 10.6786 137.895 11.9011 136.124C11.91 136.292 11.9188 136.46 11.9366 136.637C12.9022 149.341 25.7743 152.814 25.7743 152.814L32.2768 151.148C34.4296 155.162 37.7428 158.953 42.7748 161.815Z" fill="#6B184E"/>
</g>
</g>
<g opacity="0.3">
<g opacity="0.3">
<path opacity="0.3" d="M34.831 162.624H9.83977L9.78662 162.598C9.67145 162.536 -1.93385 155.83 0.280905 143.268C0.723855 140.752 1.61861 138.501 2.93861 136.588L3.31068 136.039L3.33726 136.703C3.34612 136.871 3.35498 137.04 3.3727 137.208C4.28518 149.194 16.0854 152.906 16.989 153.172L23.5978 151.48L23.6775 151.63C26.0695 156.078 29.5776 159.639 34.0957 162.208L34.831 162.624ZM9.95493 162.181H33.1744C28.9664 159.639 25.6797 156.219 23.3763 151.994L16.989 153.624L16.9358 153.606C16.8029 153.571 3.99282 149.974 2.94746 137.376C1.86666 139.113 1.11365 141.115 0.723855 143.33C-1.37573 155.183 9.1399 161.694 9.95493 162.181Z" fill="#1E1B24"/>
</g>
</g>
</g>
<g opacity="0.3">
<g opacity="0.3">
<g opacity="0.3">
<path opacity="0.3" d="M45.3017 153.53C44.3184 154.026 43.7691 155.125 43.5565 156.56C43.025 160.166 43.5654 165.889 39.57 170.265C33.9002 176.475 19.0171 177.99 14.4547 170.052C11.5135 164.95 10.8845 158.341 12.2931 153.521H45.3017V153.53Z" fill="#6B184E"/>
</g>
</g>
<g opacity="0.3">
<g opacity="0.3">
<path opacity="0.3" d="M25.8826 175.706C25.165 175.706 24.4475 175.67 23.7476 175.59C19.3624 175.112 15.996 173.19 14.2596 170.178C11.4513 165.305 10.5831 158.59 12.0803 153.478L12.1246 153.319H46.2317L45.399 153.735C44.5397 154.169 43.9904 155.135 43.7778 156.606C43.6626 157.359 43.6006 158.209 43.5298 159.121C43.264 162.594 42.9362 166.917 39.7292 170.434C36.8058 173.633 31.2335 175.706 25.8826 175.706ZM12.4612 153.753C11.0527 158.741 11.9208 165.216 14.6405 169.947C16.2972 172.835 19.5484 174.678 23.7919 175.147C29.5945 175.785 36.1591 173.668 39.4015 170.124C42.5021 166.723 42.821 162.488 43.0868 159.077C43.1577 158.165 43.2197 157.297 43.3349 156.535C43.5209 155.277 43.9373 154.346 44.584 153.753H12.4612V153.753Z" fill="#1E1B24"/>
</g>
</g>
</g>
<g opacity="0.3">
<g opacity="0.3">
<g opacity="0.3">
<path opacity="0.3" d="M99.5195 153.531C100.503 154.027 101.052 155.126 101.265 156.561C101.796 160.167 101.256 165.89 105.251 170.266C110.921 176.476 125.804 177.991 130.367 170.053C133.308 164.951 133.937 158.342 132.528 153.522H99.5195V153.531Z" fill="#6B184E"/>
</g>
</g>
<g opacity="0.3">
<g opacity="0.3">
<path opacity="0.3" d="M118.927 175.706C113.585 175.706 108.013 173.642 105.081 170.426C101.874 166.918 101.546 162.595 101.28 159.113C101.209 158.21 101.147 157.35 101.032 156.597C100.819 155.127 100.27 154.161 99.4109 153.727L98.5781 153.311H132.685L132.73 153.47C134.236 158.582 133.359 165.297 130.55 170.169C128.814 173.181 125.447 175.104 121.062 175.582C120.362 175.671 119.645 175.706 118.927 175.706ZM100.226 153.753C100.873 154.338 101.298 155.268 101.475 156.535C101.59 157.306 101.652 158.165 101.723 159.078C101.98 162.488 102.308 166.723 105.408 170.125C108.651 173.669 115.206 175.786 121.018 175.148C125.261 174.687 128.513 172.836 130.169 169.948C132.889 165.217 133.757 158.732 132.349 153.753H100.226V153.753Z" fill="#1E1B24"/>
</g>
</g>
</g>
<g opacity="0.3">
<g opacity="0.3">
<g opacity="0.3">
<path opacity="0.3" d="M125.598 4.4271C124.252 4.05502 122.843 4.1259 121.382 4.71059C103.167 11.9661 91.3584 30.1802 86.291 39.5442C84.7496 42.3968 81.0908 43.3181 78.3711 41.5552C78.3711 41.5552 91.2964 10.9385 116.296 0.972092C119.751 -0.401053 122.95 1.06954 125.598 4.4271Z" fill="white"/>
</g>
</g>
<g opacity="0.3">
<g opacity="0.3">
<path opacity="0.3" d="M81.4109 42.6434C80.3035 42.6434 79.205 42.3245 78.266 41.7132C78.1862 41.6601 78.1597 41.5626 78.1951 41.474C78.328 41.164 91.4393 10.6624 116.236 0.78463C119.593 -0.55308 122.889 0.660605 125.759 4.30166C125.812 4.36367 125.812 4.46112 125.768 4.53199C125.724 4.60286 125.635 4.6383 125.555 4.61172C124.218 4.2485 122.844 4.33709 121.462 4.88635C103.514 12.0356 91.8379 29.727 86.4694 39.6314C85.7075 41.0399 84.3787 42.0676 82.8283 42.4662C82.3588 42.5903 81.8804 42.6434 81.4109 42.6434ZM78.6115 41.474C79.8429 42.2182 81.3312 42.4485 82.722 42.0942C84.1926 41.7221 85.3886 40.783 86.115 39.4542C91.5013 29.4967 103.239 11.7255 121.303 4.53199C122.579 4.02703 123.846 3.88528 125.086 4.11562C122.419 0.97067 119.407 -0.0569742 116.369 1.15671C92.6264 10.6093 79.648 39.1264 78.6115 41.474Z" fill="#1E1B24"/>
</g>
</g>
</g>
<path d="M114.394 55.5773C112.153 51.4667 105.836 46.9929 100.547 43.7771C95.7812 40.8713 94.5055 34.5372 97.7213 29.9748C103.382 21.9485 110.593 16.0927 115.519 12.6554C118.443 10.6179 122.491 12.1859 123.297 15.6586C124.546 21.036 125.539 29.3103 123.492 39.0375C121.286 49.5532 114.961 55.4001 114.961 55.4001" fill="#FF6C6C"/>
<path d="M114.392 55.7725C114.322 55.7725 114.26 55.737 114.224 55.675C111.974 51.5379 105.489 47.0198 100.448 43.9457C98.1097 42.5283 96.515 40.2604 95.9569 37.5849C95.3988 34.9184 95.9835 32.1012 97.5604 29.8688C103.212 21.8602 110.388 16.0044 115.411 12.5051C116.829 11.5129 118.645 11.2914 120.266 11.9204C121.887 12.5405 123.092 13.9314 123.491 15.6235C124.722 20.9034 125.75 29.2575 123.694 39.0821C121.497 49.5357 115.172 55.489 115.101 55.5421C115.021 55.613 114.897 55.613 114.827 55.5333C114.756 55.4536 114.756 55.3295 114.835 55.2586C114.897 55.1966 121.143 49.332 123.305 39.0024C125.351 29.2486 124.323 20.9566 123.11 15.7121C122.747 14.144 121.63 12.8595 120.124 12.2836C118.601 11.6989 116.97 11.9027 115.633 12.824C110.636 16.3056 103.496 22.1348 97.8793 30.0991C96.3644 32.243 95.8063 34.945 96.3379 37.5141C96.8694 40.092 98.402 42.2625 100.643 43.6268C105.728 46.7186 112.266 51.2898 114.561 55.4978C114.614 55.5953 114.579 55.7105 114.481 55.7636C114.455 55.7636 114.419 55.7725 114.392 55.7725Z" fill="#1E1B24"/>
<path d="M109.191 43.6095C108.81 45.4256 108.306 47.0999 107.73 48.6414C105.426 46.8696 102.884 45.2041 100.545 43.7778C95.77 40.872 94.5032 34.5379 97.719 29.9666C100.935 25.4042 104.656 21.5417 108.173 18.4233C108.554 18.946 108.837 19.5484 108.997 20.2306C110.246 25.608 111.229 33.8912 109.191 43.6095Z" fill="#FF6C6C"/>
<path d="M107.731 48.8361C107.686 48.8361 107.642 48.8184 107.615 48.7918C105.596 47.2415 103.186 45.6114 100.448 43.9459C98.1097 42.5285 96.515 40.2695 95.9569 37.5852C95.3988 34.9098 95.9835 32.1015 97.5604 29.8601C100.413 25.8204 103.939 21.9225 108.049 18.2814C108.094 18.246 108.147 18.2283 108.2 18.2371C108.253 18.246 108.306 18.2726 108.333 18.3169C108.74 18.875 109.024 19.5128 109.183 20.195C110.406 25.4749 111.442 33.8378 109.378 43.6536C109.024 45.3545 108.528 47.0555 107.908 48.7121C107.89 48.7741 107.837 48.8184 107.775 48.8273C107.766 48.8273 107.748 48.8361 107.731 48.8361ZM108.138 18.7244C104.125 22.3034 100.67 26.1216 97.8793 30.0816C96.3644 32.2343 95.8063 34.9363 96.3379 37.5054C96.8783 40.0834 98.402 42.2539 100.643 43.6182C103.301 45.2305 105.649 46.8163 107.633 48.3312C108.2 46.772 108.661 45.1685 108.997 43.5827C111.044 33.8378 110.025 25.5369 108.802 20.2924C108.678 19.7166 108.457 19.1939 108.138 18.7244Z" fill="#1E1B24"/>
<g opacity="0.3">
<g opacity="0.3">
<g opacity="0.3">
<path opacity="0.3" d="M11.9028 8.70489C13.2228 8.23537 14.6314 8.19993 16.1286 8.66946C34.8388 14.5341 47.9767 31.818 53.735 40.7656C55.4891 43.4942 59.201 44.1409 61.7879 42.1742C61.7879 42.1742 46.6035 12.6117 20.9213 4.55888C17.3688 3.44265 14.2948 5.15243 11.9028 8.70489Z" fill="white"/>
</g>
</g>
<g opacity="0.3">
<g opacity="0.3">
<path opacity="0.3" d="M58.4032 43.512C58.0755 43.512 57.7388 43.4855 57.411 43.4235C55.8341 43.1488 54.4344 42.2186 53.5751 40.8721C47.4801 31.3929 34.5105 14.6317 16.0749 8.85564C14.6575 8.41269 13.2755 8.42154 11.9732 8.89107C11.8935 8.91765 11.8049 8.89107 11.7517 8.82905C11.6986 8.75818 11.6986 8.66959 11.7429 8.59872C14.3386 4.75392 17.5278 3.29218 20.9828 4.37298C46.4525 12.3638 61.814 41.7934 61.9646 42.0857C62.0089 42.1655 61.9823 42.2718 61.9114 42.3338C60.8926 43.1045 59.6524 43.512 58.4032 43.512ZM14.0196 8.13805C14.7284 8.13805 15.4548 8.25322 16.1812 8.48356C34.732 14.3039 47.7724 31.1449 53.894 40.6595C54.709 41.9351 55.9847 42.7768 57.4731 43.0337C58.8905 43.2817 60.3611 42.9451 61.5305 42.1123C60.3256 39.8533 45.2388 12.3815 20.8499 4.7362C17.7227 3.75285 14.7992 5.00197 12.3807 8.34181C12.9211 8.20892 13.4704 8.13805 14.0196 8.13805Z" fill="#1E1B24"/>
</g>
</g>
</g>
<path d="M26.9202 58.8653C28.8427 54.5953 34.8136 49.6608 39.8367 46.0552C44.3725 42.804 45.1698 36.3812 41.6173 32.0757C35.3629 24.4924 27.7353 19.1947 22.5705 16.1472C19.5053 14.34 15.5896 16.2092 15.0403 19.7263C14.1987 25.1745 13.8355 33.5109 16.5995 43.052C19.5939 53.3728 26.3356 58.7236 26.3356 58.7236" fill="#FF6C6C"/>
<path d="M26.9209 59.0593C26.8943 59.0593 26.8677 59.0505 26.8411 59.0416C26.7437 58.9973 26.6994 58.8822 26.7437 58.7847C28.7104 54.4172 34.894 49.3676 39.731 45.9037C41.866 44.3711 43.2303 42.0943 43.5669 39.4898C43.9036 36.8941 43.1417 34.2364 41.4673 32.2166C35.266 24.6953 27.7093 19.4242 22.4648 16.3235C21.0651 15.4996 19.4173 15.4199 17.9467 16.1198C16.4938 16.8108 15.475 18.1662 15.227 19.7608C14.4031 25.0762 14.0044 33.4302 16.7773 42.998C19.7096 53.1327 26.3805 58.5189 26.4425 58.5721C26.5222 58.643 26.5399 58.7581 26.4779 58.8467C26.407 58.9264 26.2919 58.9442 26.2033 58.8822C26.1324 58.829 19.373 53.3719 16.4052 43.1131C13.6146 33.4745 14.0133 25.0673 14.846 19.7076C15.1118 17.989 16.2103 16.5184 17.7872 15.7743C19.3553 15.0301 21.1802 15.1187 22.6685 15.9957C27.9396 19.1141 35.5318 24.4118 41.7685 31.9685C43.5049 34.0769 44.3022 36.841 43.9479 39.543C43.5935 42.2627 42.1761 44.6369 39.9524 46.2226C35.1509 49.6599 29.0293 54.6564 27.098 58.953C27.0626 59.015 26.9917 59.0593 26.9209 59.0593Z" fill="#1E1B24"/>
<path d="M31.2068 46.5415C31.7206 48.3222 32.3496 49.9611 33.0406 51.4494C35.2022 49.5093 37.6207 47.6578 39.8355 46.0632C44.3713 42.8119 45.1686 36.3891 41.6161 32.0837C38.0637 27.7693 34.0594 24.1991 30.3209 21.3643C29.9843 21.9135 29.7451 22.5425 29.6387 23.2335C28.806 28.6729 28.4428 37.0004 31.2068 46.5415Z" fill="#FF6C6C"/>
<path d="M33.0392 51.6442C33.0303 51.6442 33.0126 51.6442 33.0037 51.6442C32.9417 51.6353 32.8886 51.591 32.862 51.5379C32.1178 49.9344 31.4977 48.2689 31.0193 46.6034C28.2287 36.9737 28.6274 28.5576 29.4513 23.1979C29.5576 22.4981 29.7968 21.8425 30.16 21.2578C30.1866 21.2135 30.2397 21.1781 30.2929 21.1692C30.346 21.1604 30.3992 21.1692 30.4435 21.2046C34.811 24.5268 38.6203 28.1412 41.7653 31.9595C43.5016 34.0679 44.2989 36.8319 43.9446 39.5428C43.5902 42.2625 42.1728 44.6278 39.9492 46.2225C37.3446 48.0917 35.059 49.899 33.172 51.5999C33.1277 51.6265 33.0835 51.6442 33.0392 51.6442ZM30.3815 21.6476C30.1068 22.1437 29.9208 22.6841 29.8322 23.2511C29.0083 28.5753 28.6185 36.9205 31.3914 46.4882C31.8432 48.0563 32.419 49.6066 33.1012 51.1215C34.9616 49.4649 37.1852 47.7108 39.7188 45.8947C41.8539 44.3621 43.2182 42.0853 43.5548 39.4808C43.8914 36.8851 43.1296 34.2274 41.4641 32.1987C38.3811 28.4602 34.6515 24.9077 30.3815 21.6476Z" fill="#1E1B24"/>
<path d="M135.878 92.6796C130.952 90.4117 126.602 82.4032 125.353 78.3635C124.636 76.0335 122.926 71.4269 121.615 67.9541C143.629 47.9859 133.273 -5.2035 117.504 1.07753C99.6976 8.17359 88.0126 25.741 82.768 35.2644C75.291 33.8558 69.9668 34.4494 69.9668 34.4494C69.9668 34.4494 64.4742 34.2456 56.9795 36.3009C51.044 27.2116 38.0655 10.5035 19.7274 4.75402C3.47112 -0.348767 -2.84535 53.8949 20.9145 71.9495C19.878 75.4843 18.5669 80.0644 18.0353 82.3943C17.0963 86.5137 13.3489 94.8323 8.60935 97.4635C5.8099 99.0138 5.7656 101.397 7.79431 103.107C9.09658 104.205 11.2582 105.029 14.0931 105.171C14.3145 105.189 14.5537 105.189 14.7841 105.197C14.7841 105.197 14.7841 105.197 14.7752 105.206C14.6069 105.321 13.216 106.296 9.64585 108.847C6.1554 111.354 9.1586 114.393 15.2979 117.325C21.4372 120.258 29.4723 127.309 31.1112 128.337C32.068 128.939 37.1973 132.749 46.7474 135.61C53.5333 137.648 62.5607 139.198 73.9002 138.773C101.177 137.745 114.235 126.308 115.786 125.157C117.336 124.014 124.822 116.369 130.731 112.993C136.64 109.609 139.404 106.349 135.727 104.117C131.723 101.68 130.323 100.865 130.323 100.865C130.554 100.848 130.775 100.821 130.988 100.794C133.814 100.44 135.922 99.4567 137.136 98.2608C139.014 96.3827 138.784 94.0173 135.878 92.6796Z" fill="#FAAF5E"/>
<g opacity="0.4">
<g opacity="0.4">
<g opacity="0.4">
<path opacity="0.4" d="M117.688 6.04673C102.655 12.0354 93.2553 26.9894 87.5323 37.2393C85.8757 40.1982 82.6333 41.908 79.258 41.5625C74.1464 41.0398 70.213 41.1727 70.213 41.1727C70.213 41.1727 66.1733 41.3321 60.9996 42.28C57.6509 42.8913 54.2491 41.4739 52.371 38.6301C45.9039 28.8321 35.3883 14.5779 19.9116 9.72321C11.2829 7.01236 5.4537 21.0273 5.43598 37.4696C4.00968 18.8303 10.1401 1.27173 19.7078 4.27493C38.046 10.0244 51.0244 26.7325 56.9599 35.8218C64.4546 33.7665 69.9472 33.9703 69.9472 33.9703C69.9472 33.9703 75.2715 33.3767 82.7485 34.7853C88.0019 25.253 99.6781 7.68564 117.485 0.589583C126.804 -3.12234 134.228 13.9224 134.21 32.6149C132.952 16.2346 126.096 2.70689 117.688 6.04673Z" fill="white"/>
</g>
</g>
</g>
<path d="M14.3828 105.18C14.5068 105.189 14.6397 105.189 14.7638 105.189C14.7638 105.189 14.7637 105.189 14.7549 105.197C14.7283 105.215 14.684 105.242 14.622 105.295C14.5423 105.259 14.4625 105.215 14.3828 105.18Z" fill="#982E20"/>
<path d="M14.6244 105.489C14.5978 105.489 14.5713 105.48 14.5447 105.472C14.4915 105.445 14.4472 105.427 14.3941 105.401L14.3055 105.356C14.2258 105.321 14.1815 105.224 14.1992 105.135C14.2258 105.046 14.3055 104.993 14.3941 104.984C14.5004 104.993 14.6156 104.993 14.7307 104.993C14.8105 104.993 14.899 105.046 14.9345 105.117C14.9611 105.188 14.9699 105.277 14.9168 105.33C14.9079 105.339 14.8902 105.356 14.8813 105.356C14.8725 105.365 14.8636 105.365 14.8548 105.374C14.8459 105.383 14.8282 105.392 14.8282 105.392L14.7396 105.454C14.7042 105.472 14.6599 105.489 14.6244 105.489Z" fill="#1E1B24"/>
<path d="M130.712 112.975C124.803 116.36 117.317 123.996 115.767 125.139C114.216 126.29 101.158 137.727 73.8812 138.755C62.5416 139.18 53.5143 137.63 46.7283 135.592C37.1872 132.74 32.049 128.922 31.0922 128.319C29.4621 127.292 21.427 120.24 15.2789 117.307C9.13072 114.375 6.12752 111.336 9.62683 108.829C13.197 106.278 14.5879 105.303 14.7562 105.188C14.765 105.179 14.7651 105.179 14.7651 105.179C14.5347 105.179 14.2955 105.171 14.074 105.153C14.9599 104.816 15.9522 104.497 17.0418 104.196C25.892 101.751 37.7984 113.666 53.3814 106.898C65.3411 101.707 59.2107 73.4376 62.143 65.9075C62.1696 65.8278 62.205 65.7569 62.2316 65.6772C65.3588 57.899 76.2642 57.4826 79.9673 65.0127C80.0027 65.0836 80.0382 65.1545 80.0736 65.2342C83.5641 72.5163 79.5775 101.166 91.8827 105.445C107.926 111.026 118.903 98.2517 127.912 100.024C129.028 100.245 130.038 100.493 130.951 100.759C130.738 100.785 130.508 100.812 130.286 100.83C130.286 100.83 131.677 101.645 135.69 104.081C139.385 106.331 136.621 109.591 130.712 112.975Z" fill="white"/>
<path d="M123.491 39.0289C121.285 49.5446 114.96 55.3915 114.96 55.3915L114.384 55.5864C113.135 53.2919 110.619 50.8911 107.722 48.6498C105.419 46.878 102.876 45.2125 100.538 43.7862C95.7627 40.8805 94.4959 34.5463 97.7117 29.975C100.927 25.4126 104.648 21.5501 108.165 18.4317C110.832 16.0664 113.392 14.1351 115.509 12.6557C118.433 10.6181 122.473 12.1861 123.279 15.65C124.546 21.0274 125.538 29.3106 123.491 39.0289Z" fill="#FBDA98"/>
<path d="M113.683 55.9593C113.045 54.9582 112.221 54.0457 111.344 53.1864C110.458 52.3359 109.519 51.512 108.536 50.7502C107.544 49.9883 106.534 49.2441 105.497 48.5354C104.452 47.8355 103.389 47.1445 102.326 46.4801C101.785 46.1523 101.245 45.8157 100.704 45.4968L99.8895 45.0184L99.482 44.7792C99.3402 44.6995 99.2162 44.6286 99.0479 44.5223C97.7545 43.7338 96.6382 42.6176 95.8763 41.2976C95.1233 39.9776 94.645 38.4716 94.6095 36.939C94.5652 35.4152 94.8841 33.8649 95.5663 32.4918L95.8409 31.9868L95.9827 31.7387L96.1156 31.535L96.6471 30.7022L97.719 29.0456L98.8796 27.451L99.4642 26.6537L100.084 25.8829L101.325 24.3503L102.645 22.8886C103.079 22.3925 103.531 21.923 104 21.4623C104.461 21.0016 104.904 20.5144 105.391 20.0714C107.287 18.2642 109.307 16.5898 111.424 15.0661C113.55 13.5424 115.747 12.1515 118.139 11.0441C118.36 10.9378 118.626 11.0353 118.724 11.2567C118.812 11.4516 118.75 11.682 118.582 11.806L118.564 11.8237C116.509 13.2854 114.525 14.9066 112.638 16.5898C111.681 17.4226 110.777 18.3085 109.865 19.1855L108.527 20.5232L107.234 21.9053C105.533 23.7568 103.894 25.6703 102.405 27.6902L101.838 28.4432L101.298 29.2139L100.217 30.7554L99.2073 32.3412L98.7024 33.1296L98.5783 33.3245L98.4809 33.5017L98.2949 33.8472C97.3735 35.7076 97.4532 38.0109 98.472 39.8359C98.977 40.7483 99.7212 41.5102 100.598 42.0861C100.696 42.1569 100.846 42.2455 100.979 42.3341L101.396 42.591L102.219 43.1137C102.769 43.4592 103.309 43.8313 103.849 44.1856C106.011 45.6474 108.111 47.2243 110.068 48.9961C111.043 49.882 111.991 50.821 112.85 51.8487C113.718 52.8675 114.516 53.9748 115.118 55.224C115.313 55.6226 115.136 56.101 114.737 56.2959C114.365 56.4731 113.931 56.3402 113.718 56.0035L113.683 55.9593Z" fill="#9F6F67"/>
<path d="M16.6002 43.0505C19.5857 53.3712 26.3363 58.7221 26.3363 58.7221L26.921 58.8727C27.9929 56.4896 30.3228 53.9116 33.0425 51.4577C35.2041 49.5176 37.6227 47.666 39.8374 46.0714C44.3732 42.8202 45.1705 36.3974 41.6181 32.0919C38.0656 27.7776 34.0613 24.2074 30.3228 21.3725C27.488 19.2198 24.7948 17.4834 22.5624 16.1634C19.4971 14.3562 15.5815 16.2166 15.0411 19.7336C14.1995 25.1819 13.8362 33.5093 16.6002 43.0505Z" fill="#FBDA98"/>
<path d="M26.1898 58.5359C26.6948 57.2425 27.4035 56.0819 28.1919 54.9923C28.9804 53.9026 29.8486 52.9016 30.7522 51.9448C32.5771 50.0401 34.5438 48.3037 36.5991 46.6825C37.1129 46.2839 37.6268 45.8764 38.1494 45.4866L38.929 44.9019L39.3188 44.6095C39.4517 44.5121 39.5935 44.4146 39.682 44.3349C40.5148 43.697 41.1969 42.8732 41.6399 41.9341C42.5169 40.0383 42.4283 37.7438 41.3653 35.9543L41.1526 35.6265L41.0463 35.4582L40.9046 35.2721L40.3376 34.5191L39.2125 33.022L38.0166 31.5691L37.423 30.8426L36.8029 30.1428C35.164 28.2381 33.3922 26.4574 31.5495 24.7299L30.1586 23.4542L28.7235 22.2228C27.749 21.4167 26.7833 20.6016 25.7646 19.8486C23.7624 18.3071 21.6628 16.8454 19.5012 15.5431L19.4835 15.5343C19.2709 15.4103 19.2089 15.1356 19.3329 14.923C19.4481 14.737 19.6696 14.6661 19.8645 14.737C22.3361 15.6583 24.6306 16.8897 26.8631 18.2451C29.0867 19.6094 31.2217 21.1243 33.2504 22.7898C33.7642 23.1973 34.2426 23.6491 34.7387 24.0744C35.2348 24.4996 35.7221 24.9337 36.1916 25.3943L37.6179 26.7498L38.9733 28.1849L39.6466 28.9025L40.2845 29.6555L41.5602 31.1616L42.7561 32.7296L43.3497 33.5181L43.5003 33.713L43.6597 33.9521L43.9698 34.4305C44.7583 35.7417 45.1835 37.2654 45.2632 38.798C45.3341 40.3306 44.9797 41.8632 44.3242 43.2364C43.6597 44.6095 42.6321 45.8055 41.4007 46.6914C41.2412 46.8154 41.1172 46.8951 40.9843 46.9837L40.5945 47.2495L39.8149 47.7899C39.2923 48.1531 38.7873 48.5252 38.2735 48.8884C37.2547 49.6414 36.2536 50.4033 35.2614 51.1829C34.2781 51.9625 33.3302 52.7864 32.3911 53.6191C31.4609 54.4607 30.5927 55.3466 29.7688 56.2591C28.9627 57.1893 28.2096 58.1549 27.6515 59.2003L27.6427 59.2092C27.4389 59.599 26.9517 59.7496 26.5619 59.5369C26.1898 59.342 26.0392 58.9079 26.1898 58.5359Z" fill="#9F6F67"/>
<path d="M80.8194 110.513C81.1383 118.982 77.8251 125.981 73.4133 126.149C69.0015 126.317 65.1744 119.584 64.8555 111.115" fill="#FF6C6C"/>
<path d="M73.2534 126.352C68.815 126.352 64.9791 119.584 64.6602 111.124C64.6602 111.017 64.7399 110.929 64.8462 110.92C64.9525 110.92 65.0411 111 65.05 111.106C65.36 119.451 69.1074 126.122 73.404 125.954C77.7006 125.794 80.9341 118.866 80.6241 110.521C80.6241 110.415 80.7038 110.326 80.8101 110.317C80.9164 110.317 81.005 110.397 81.0139 110.503C81.3328 119.07 77.9309 126.175 73.4217 126.343C73.3597 126.352 73.3065 126.352 73.2534 126.352Z" fill="#1E1B24"/>
<path d="M80.8253 112.434C80.7544 115.216 80.276 117.785 79.5141 119.929C78.1941 123.623 75.9882 126.059 73.4103 126.157C70.8323 126.254 68.4492 123.995 66.8546 120.398C65.9244 118.325 65.2688 115.801 64.9854 113.036L80.8253 112.434Z" fill="#F78C8B"/>
<path d="M73.2507 126.379C70.7171 126.379 68.3251 124.244 66.6596 120.478C65.7029 118.335 65.0473 115.765 64.7727 113.046L64.7461 112.807L81.0555 112.195L81.0467 112.435C80.9758 115.163 80.5151 117.776 79.7178 120C78.3092 123.951 76.0059 126.272 73.4191 126.37C73.357 126.379 73.3039 126.379 73.2507 126.379ZM65.2333 113.241C65.5168 115.827 66.1458 118.264 67.0583 120.301C68.6795 123.969 70.9917 126.033 73.4013 125.936C75.8021 125.847 77.9549 123.632 79.3014 119.858C80.0633 117.741 80.5062 115.261 80.5948 112.665L65.2333 113.241Z" fill="#1E1B24"/>
<path d="M72.5346 120.514L71.5512 111.744C71.4715 111.017 71.9942 110.362 72.7206 110.282C73.4471 110.202 74.1026 110.725 74.1824 111.451C74.1912 111.513 74.1912 111.584 74.1912 111.646L73.8634 120.47C73.8457 120.842 73.5357 121.125 73.1724 121.117C72.8358 121.09 72.57 120.833 72.5346 120.514Z" fill="#9F6F67"/>
<path d="M73.1995 127.477C68.1854 127.477 63.9419 122.029 63.685 115.172C63.6584 114.446 64.2254 113.826 64.9607 113.799C65.6871 113.764 66.3072 114.339 66.3338 115.075C66.5376 120.594 69.7091 124.979 73.3679 124.837C75.0599 124.775 76.6457 123.73 77.824 121.905C79.0997 119.938 79.7552 117.334 79.6489 114.579C79.6223 113.852 80.1893 113.232 80.9246 113.205C81.651 113.179 82.2712 113.746 82.2978 114.481C82.4218 117.777 81.6245 120.931 80.0476 123.349C78.3821 125.918 76.0433 127.38 73.4653 127.477C73.3767 127.477 73.2881 127.477 73.1995 127.477Z" fill="#9F6F67"/>
<g opacity="0.3">
<g opacity="0.3">
<path opacity="0.3" d="M87.8793 109.343C87.5958 113.887 84.7875 119.486 79.3658 119.15C74.635 118.848 73.0139 115.438 73.0139 115.438H72.9164C72.9164 115.438 71.5433 118.902 66.8568 119.619C61.9135 120.381 58.2725 115.119 57.6523 110.61" fill="#1E1B24"/>
</g>
</g>
<path d="M86.4254 108.688C86.142 113.232 83.3514 115.571 79.2142 115.261C74.4835 114.898 73.137 111.221 72.7915 109.848H72.694C72.4548 111.248 71.3829 115.013 66.6965 115.73C62.5947 116.359 59.6358 114.233 59.0068 109.724" fill="white"/>
<path d="M65.3508 116.032C63.8625 116.032 62.5425 115.634 61.4972 114.845C60.0709 113.782 59.1495 112.019 58.8306 109.742C58.8129 109.636 58.8926 109.539 58.9989 109.521C59.1052 109.503 59.2027 109.583 59.2204 109.689C59.5216 111.851 60.3898 113.525 61.7275 114.526C63.0121 115.483 64.7218 115.828 66.6797 115.527C71.1801 114.836 72.2608 111.302 72.5089 109.804C72.5266 109.716 72.5975 109.645 72.6949 109.645H72.7924C72.881 109.645 72.9696 109.707 72.9873 109.796C73.3505 111.266 74.6882 114.712 79.2329 115.058C81.2084 115.208 82.8916 114.739 84.0965 113.685C85.3633 112.586 86.0986 110.85 86.2404 108.67C86.2492 108.564 86.3378 108.484 86.4441 108.484C86.5504 108.493 86.6302 108.582 86.6302 108.688C86.4884 110.974 85.7 112.799 84.3534 113.977C83.0688 115.093 81.2882 115.607 79.2063 115.448C74.9363 115.12 73.3505 112.196 72.7747 110.46C72.3406 112.232 70.9763 115.262 66.7417 115.917C66.2544 115.997 65.7938 116.032 65.3508 116.032Z" fill="#1E1B24"/>
<g opacity="0.3">
<g opacity="0.3">
<path opacity="0.3" d="M86.4249 108.687C86.1414 113.232 83.3508 115.579 79.2137 115.252C74.483 114.888 73.1364 111.221 72.7909 109.839H72.6934C72.4542 111.238 71.3912 115.003 66.6959 115.712C62.5942 116.341 59.6353 114.215 59.0151 109.706L60.2288 109.662C61.5931 111.584 63.8167 112.39 66.5541 111.965C68.9284 111.602 70.3724 110.459 71.2494 109.245L74.1817 109.139C75.1474 110.29 76.6711 111.318 79.0631 111.495C81.8271 111.708 83.9887 110.733 85.2023 108.722L86.4249 108.687Z" fill="#1E1B24"/>
</g>
</g>
<path d="M65.3409 117.157C63.6045 117.157 62.063 116.678 60.8139 115.748C59.1396 114.499 58.0676 112.479 57.7044 109.901C57.607 109.175 58.1119 108.51 58.8295 108.413C59.5559 108.315 60.2204 108.82 60.3178 109.538C60.5747 111.398 61.2923 112.807 62.382 113.631C63.4185 114.401 64.8359 114.676 66.4925 114.419C70.1336 113.861 71.117 111.177 71.3827 109.626C71.489 109.006 72.0117 108.554 72.6318 108.528H72.7293C73.3583 108.51 73.9164 108.918 74.067 109.529C74.4479 111.053 75.635 113.657 79.3027 113.941C80.9682 114.074 82.3679 113.693 83.3424 112.842C84.37 111.947 84.9813 110.477 85.0965 108.608C85.1407 107.881 85.7786 107.332 86.4962 107.367C87.2226 107.412 87.7807 108.041 87.7364 108.767C87.577 111.363 86.6556 113.462 85.0787 114.835C83.5639 116.155 81.4909 116.758 79.1078 116.572C75.8742 116.324 73.9695 114.729 72.871 113.152C71.8877 114.809 70.1159 116.545 66.9089 117.033C66.3685 117.121 65.8458 117.157 65.3409 117.157Z" fill="#9F6F67"/>
<path d="M72.658 108.935C71.9493 108.935 71.3646 108.377 71.338 107.659L71.1608 103.026C71.1342 102.299 71.7012 101.679 72.4365 101.653C73.1629 101.626 73.7831 102.193 73.8097 102.928L73.9868 107.562C74.0134 108.288 73.4464 108.908 72.7111 108.935C72.6934 108.935 72.6757 108.935 72.658 108.935Z" fill="#9F6F67"/>
<path d="M80.8429 101.414C80.9492 104.151 77.1753 107.969 72.3471 108.146C67.5278 108.324 63.4793 104.807 63.373 102.069C63.2667 99.3317 67.1735 98.9596 71.9928 98.7736C76.8209 98.5964 80.7366 98.6761 80.8429 101.414Z" fill="#9F6F67"/>
<path d="M75.857 100.82C75.8836 101.423 74.2093 102.291 72.1185 102.371C70.0278 102.451 68.3003 101.706 68.2737 101.113C68.2472 100.51 69.9481 100.395 72.0388 100.316C74.1295 100.236 75.8393 100.218 75.857 100.82Z" fill="white"/>
<path d="M71.8088 102.547C70.9318 102.547 70.0725 102.415 69.3638 102.158C68.5753 101.874 68.1146 101.493 68.1058 101.112C68.0881 100.607 68.8057 100.43 69.3461 100.342C70.0016 100.235 70.8964 100.182 72.048 100.138C73.1909 100.093 74.0945 100.076 74.7589 100.138C75.3082 100.191 76.0346 100.306 76.0523 100.82C76.0789 101.635 74.1831 102.477 72.1455 102.547C72.0215 102.547 71.9152 102.547 71.8088 102.547ZM73.6781 100.448C73.2086 100.448 72.6682 100.466 72.0569 100.483C70.923 100.528 70.0459 100.572 69.3992 100.678C68.5399 100.82 68.4513 101.015 68.4602 101.086C68.469 101.263 68.7879 101.564 69.4878 101.812C70.2408 102.087 71.1799 102.211 72.1189 102.175C74.2096 102.096 75.698 101.227 75.6891 100.811C75.6891 100.731 75.5828 100.554 74.7235 100.474C74.4223 100.457 74.0768 100.448 73.6781 100.448Z" fill="#9F6F67"/>
<path d="M55.3288 90.1405C55.8776 84.5507 53.1291 79.7057 49.19 79.3189C45.2508 78.9322 41.6125 83.1502 41.0637 88.74C40.515 94.3299 43.2634 99.1748 47.2026 99.5616C51.1418 99.9483 54.78 95.7304 55.3288 90.1405Z" fill="#9F6F67"/>
<path d="M52.3232 88.2385C52.5072 86.3639 51.6933 84.7496 50.5052 84.633C49.3171 84.5163 48.2048 85.9415 48.0207 87.8161C47.8367 89.6907 48.6506 91.305 49.8387 91.4216C51.0268 91.5383 52.1391 90.1132 52.3232 88.2385Z" fill="white"/>
<path d="M49.9817 91.6511C49.9286 91.6511 49.8754 91.6511 49.8223 91.6422C49.1667 91.5802 48.5997 91.1284 48.2188 90.3754C47.8556 89.6578 47.705 88.7365 47.8024 87.7885C47.891 86.8406 48.2188 85.9636 48.7149 85.3346C49.2376 84.6702 49.8754 84.3424 50.531 84.4044C51.1866 84.4664 51.7535 84.9182 52.1345 85.6712C52.4977 86.3888 52.6483 87.3102 52.5509 88.2581C52.4623 89.206 52.1345 90.083 51.6384 90.712C51.1688 91.3233 50.5842 91.6511 49.9817 91.6511ZM50.3804 84.8385C49.9197 84.8385 49.4591 85.1043 49.0693 85.6092C48.6263 86.1762 48.334 86.9647 48.2454 87.8328C48.1568 88.701 48.2897 89.5338 48.6175 90.1805C48.9275 90.7917 49.3705 91.155 49.8666 91.2081C50.3627 91.2613 50.8676 90.9866 51.2929 90.4462C51.7358 89.8793 52.0282 89.0908 52.1168 88.2226C52.2054 87.3545 52.0725 86.5217 51.7447 85.875C51.4346 85.2637 50.9917 84.9005 50.4956 84.8473C50.4513 84.8385 50.4158 84.8385 50.3804 84.8385Z" fill="#9F6F67"/>
<path d="M96.7598 97.9975C100.699 97.6107 103.447 92.7658 102.899 87.1759C102.35 81.5861 98.7116 77.3681 94.7724 77.7548C90.8332 78.1416 88.0848 82.9866 88.6336 88.5764C89.1824 94.1663 92.8206 98.3842 96.7598 97.9975Z" fill="#9F6F67"/>
<path d="M94.1234 89.8529C95.3115 89.7362 96.1254 88.122 95.9414 86.2473C95.7573 84.3727 94.645 82.9475 93.4569 83.0642C92.2688 83.1808 91.4549 84.7951 91.6389 86.6697C91.823 88.5444 92.9353 89.9695 94.1234 89.8529Z" fill="white"/>
<path d="M93.9911 90.0926C93.3886 90.0926 92.8128 89.7649 92.3344 89.1536C91.8383 88.5157 91.5105 87.6475 91.4219 86.6996C91.227 84.7064 92.1306 82.9788 93.4418 82.846C94.7529 82.7131 95.9755 84.2368 96.1704 86.2301C96.2678 87.178 96.1172 88.0994 95.754 88.8169C95.3731 89.5699 94.8061 90.0218 94.1505 90.0838C94.0973 90.0838 94.0442 90.0926 93.9911 90.0926ZM91.856 86.6553C91.9446 87.5235 92.237 88.312 92.6799 88.8789C93.1052 89.4193 93.6101 89.6851 94.1062 89.6408C94.6023 89.5877 95.0453 89.2244 95.3553 88.6132C95.6831 87.9665 95.816 87.1337 95.7274 86.2655C95.5591 84.5115 94.5403 83.1737 93.4772 83.2801C92.4142 83.3952 91.6877 84.9013 91.856 86.6553Z" fill="#9F6F67"/>
</svg>


