<svg width="272" height="455" viewBox="0 0 272 455" fill="none" xmlns="http://www.w3.org/2000/svg">
<g opacity="0.35">
<g opacity="0.35">
<path opacity="0.35" d="M156.115 426.387C144.891 426.387 135.789 431.489 135.789 433.051V441.555H176.442V433.051C176.442 431.48 167.339 426.387 156.115 426.387Z" fill="#162872"/>
</g>
</g>
<g opacity="0.3">
<g opacity="0.3">
<path opacity="0.3" d="M164.812 454.795C224.01 454.795 271.999 450.698 271.999 445.644C271.999 440.59 224.01 436.493 164.812 436.493C105.614 436.493 57.625 440.59 57.625 445.644C57.625 450.698 105.614 454.795 164.812 454.795Z" fill="#000072"/>
</g>
</g>
<path d="M107.519 403.834C107.486 403.98 107.462 404.126 107.43 404.271C107.43 404.271 107.43 404.271 107.438 404.263L107.519 403.834Z" fill="#F6A428"/>
<path d="M107.121 404.83L107.315 403.793L107.72 403.866L107.623 404.368L107.121 404.83Z" fill="#000072"/>
<path d="M224.457 407.76C219.825 380.583 205.928 344.757 165.745 331.087V331.006C165.705 331.022 165.673 331.03 165.632 331.046C165.592 331.03 165.559 331.022 165.519 331.006V331.087C127.239 344.101 112.816 377.222 107.528 403.824C107.528 403.832 107.447 404.262 107.334 405.039C106.427 411.072 103.43 437.715 120.258 441.23C121.376 441.465 122.526 441.554 123.667 441.554H165.519H165.745H207.815C208.795 441.554 209.775 441.489 210.739 441.319C226.149 438.533 225.437 416.798 224.457 407.76Z" fill="#F6A428"/>
<path d="M224.457 407.76C219.825 380.583 205.928 344.757 165.745 331.087V331.006C165.705 331.022 165.673 331.03 165.632 331.046C165.592 331.03 165.559 331.022 165.519 331.006V331.087C127.239 344.101 112.816 377.222 107.528 403.824C107.528 403.832 107.447 404.262 107.334 405.039C106.427 411.072 103.43 437.715 120.258 441.23C121.376 441.465 122.526 441.554 123.667 441.554H165.519H165.745H207.815C208.795 441.554 209.775 441.489 210.739 441.319C226.149 438.533 225.437 416.798 224.457 407.76Z" fill="#F6A428"/>
<path d="M107.517 404.036H107.266L107.314 403.793L107.719 403.833V404.036H107.517Z" fill="#000072"/>
<path d="M122.907 395.129C122.907 395.129 98.912 391.29 95.6484 409.924C92.3849 428.558 104.921 441.555 118.291 441.555" fill="#F6A428"/>
<g opacity="0.5">
<g opacity="0.5">
<path opacity="0.5" d="M100.044 409.137C101.25 402.221 105.073 398.14 109.592 395.751C103.461 397.273 97.2013 401.047 95.6546 409.923C92.7474 426.548 102.417 438.687 114.037 441.101C104.295 436.064 97.3876 424.305 100.044 409.137Z" fill="white"/>
</g>
</g>
<path d="M118.289 443.393C111.292 443.393 104.554 440.154 99.8087 434.502C94.2938 427.942 92.1721 419.099 93.8322 409.6C95.6543 399.169 106.02 394.877 109.154 393.808C110.118 393.476 111.162 393.995 111.494 394.958C111.826 395.922 111.308 396.967 110.344 397.299C104.886 399.161 98.6344 403.534 97.4602 410.24C95.9863 418.645 97.8246 426.42 102.627 432.137C106.676 436.955 112.385 439.717 118.289 439.717C119.309 439.717 120.127 440.543 120.127 441.555C120.135 442.576 119.309 443.393 118.289 443.393Z" fill="#000072"/>
<path d="M118.29 446.147C127.955 446.147 135.79 440.864 135.79 434.348C135.79 427.831 127.955 422.549 118.29 422.549C108.625 422.549 100.79 427.831 100.79 434.348C100.79 440.864 108.625 446.147 118.29 446.147Z" fill="#FAFBFB"/>
<g opacity="0.3">
<g opacity="0.3">
<path opacity="0.3" d="M129.175 425.115C129.636 426.168 129.887 427.286 129.887 428.444C129.887 434.954 122.057 440.243 112.387 440.243C108.273 440.243 104.492 439.279 101.503 437.684C103.633 442.575 110.338 446.146 118.291 446.146C127.952 446.146 135.791 440.866 135.791 434.347C135.791 430.606 133.2 427.277 129.175 425.115Z" fill="#000072"/>
</g>
</g>
<path d="M125.044 423.464C125.433 423.48 125.813 423.521 126.21 423.553C126.599 423.602 126.979 423.674 127.368 423.739C128.138 423.885 128.907 424.096 129.66 424.363C131.158 424.905 132.64 425.667 133.944 426.76C135.248 427.837 136.398 429.238 137.135 430.938C137.305 431.368 137.467 431.805 137.588 432.258C137.693 432.72 137.823 433.174 137.847 433.651C137.977 434.591 137.936 435.562 137.766 436.502C137.434 438.397 136.543 440.114 135.426 441.539C134.3 442.964 132.948 444.13 131.498 445.062C128.591 446.94 125.327 447.969 122.04 448.414C120.396 448.609 118.736 448.69 117.092 448.592C115.448 448.487 113.796 448.26 112.192 447.847C110.581 447.442 109.01 446.868 107.495 446.131C105.997 445.369 104.556 444.438 103.276 443.28C101.989 442.13 100.863 440.721 100.086 439.085C99.3 437.457 98.9194 435.562 99.1705 433.749C99.4053 431.935 100.223 430.274 101.341 429.019C102.458 427.756 103.851 426.841 105.341 426.314C105.39 426.298 105.447 426.323 105.463 426.371C105.471 426.404 105.471 426.436 105.447 426.46C104.515 427.723 103.722 428.963 103.195 430.226C102.669 431.489 102.418 432.752 102.466 433.959C102.515 435.166 102.847 436.308 103.446 437.36C104.054 438.405 104.912 439.344 105.941 440.122C106.961 440.915 108.135 441.547 109.366 442.057C110.597 442.567 111.901 442.956 113.237 443.207C114.565 443.474 115.926 443.62 117.294 443.644C118.663 443.685 120.031 443.604 121.367 443.418C124.048 443.053 126.672 442.235 128.891 440.915C129.992 440.243 130.996 439.466 131.79 438.559C132.583 437.652 133.15 436.64 133.442 435.579C133.571 435.044 133.685 434.494 133.66 433.935C133.685 433.651 133.628 433.376 133.62 433.084C133.588 432.801 133.523 432.518 133.458 432.234C133.166 431.092 132.575 429.95 131.765 428.882C130.956 427.813 129.927 426.833 128.785 425.934C128.494 425.723 128.21 425.488 127.903 425.278C127.595 425.075 127.295 424.849 126.979 424.646L126.016 424.047C125.708 423.861 125.376 423.674 125.044 423.464Z" fill="#000072"/>
<path d="M132.138 441.555C117.262 419.779 122.906 399.51 122.906 399.51C122.906 399.51 131.879 434.421 158.06 441.11L132.138 441.555Z" fill="#F6A428"/>
<path d="M165.512 443.392H132.139C131.119 443.392 130.301 442.566 130.301 441.554C130.301 440.534 131.127 439.716 132.139 439.716H165.512C166.532 439.716 167.35 440.542 167.35 441.554C167.35 442.574 166.532 443.392 165.512 443.392Z" fill="#000072"/>
<path d="M165.811 428.209C187.445 428.209 204.982 402.438 204.982 370.648C204.982 338.857 187.445 313.086 165.811 313.086C144.178 313.086 126.641 338.857 126.641 370.648C126.641 402.438 144.178 428.209 165.811 428.209Z" fill="#FAFBFB"/>
<g opacity="0.3">
<g opacity="0.3">
<path opacity="0.3" d="M174.903 386.285C199.005 386.285 218.543 370.401 218.543 350.807C218.543 331.213 199.005 315.329 174.903 315.329C150.8 315.329 131.262 331.213 131.262 350.807C131.262 370.401 150.8 386.285 174.903 386.285Z" fill="#000072"/>
</g>
</g>
<path d="M208.883 395.129C208.883 395.129 232.376 391.29 235.567 409.924C238.757 428.558 226.489 441.555 213.402 441.555" fill="#F6A428"/>
<g opacity="0.5">
<g opacity="0.5">
<path opacity="0.5" d="M231.146 410.077C229.939 403.161 226.117 399.079 221.598 396.69C227.729 398.213 233.988 401.987 235.535 410.862C238.442 427.488 228.773 439.627 217.152 442.04C226.894 437.011 233.802 425.253 231.146 410.077Z" fill="white"/>
</g>
</g>
<path d="M213.405 443.393C212.384 443.393 211.566 442.567 211.566 441.555C211.566 440.534 212.392 439.716 213.405 439.716C219.073 439.716 224.58 437.036 228.516 432.363C233.35 426.622 235.213 418.766 233.755 410.231C232.152 400.878 224.475 397.825 221.244 396.95C220.264 396.683 219.681 395.671 219.948 394.691C220.215 393.711 221.227 393.128 222.207 393.395C230.346 395.606 236.023 401.671 237.383 409.607C239.027 419.228 236.881 428.152 231.334 434.736C226.694 440.243 220.159 443.393 213.405 443.393Z" fill="#000072"/>
<path d="M213.401 446.147C222.86 446.147 230.529 440.864 230.529 434.348C230.529 427.831 222.86 422.549 213.401 422.549C203.942 422.549 196.273 427.831 196.273 434.348C196.273 440.864 203.942 446.147 213.401 446.147Z" fill="#FAFBFB"/>
<path d="M207.15 425.237C205.83 425.675 204.567 426.225 203.409 426.898C202.25 427.57 201.182 428.363 200.323 429.295C199.457 430.21 198.801 431.246 198.428 432.315C198.347 432.582 198.274 432.858 198.218 433.125C198.185 433.4 198.12 433.668 198.12 433.943C198.064 434.494 198.129 435.044 198.242 435.579C198.485 436.656 199.036 437.692 199.813 438.632C200.598 439.563 201.578 440.397 202.688 441.094C204.907 442.495 207.571 443.329 210.276 443.734C212.997 444.122 215.823 444.049 218.512 443.474C221.184 442.9 223.792 441.863 225.824 440.219C226.845 439.409 227.687 438.437 228.278 437.377C228.861 436.308 229.161 435.166 229.193 433.967C229.233 432.769 228.974 431.522 228.456 430.266C227.938 429.003 227.16 427.764 226.253 426.468C226.221 426.428 226.229 426.363 226.278 426.339C226.302 426.323 226.334 426.315 226.367 426.323C227.881 426.825 229.282 427.732 230.416 428.995C231.55 430.25 232.367 431.935 232.578 433.757C232.813 435.571 232.4 437.474 231.59 439.077C230.788 440.697 229.638 442.074 228.351 443.191C227.063 444.325 225.622 445.224 224.124 445.952C222.625 446.665 221.054 447.232 219.459 447.596C216.26 448.35 212.964 448.503 209.709 448.115C208.081 447.912 206.462 447.556 204.882 447.021C203.303 446.495 201.765 445.799 200.315 444.892C198.874 443.985 197.497 442.875 196.363 441.474C195.229 440.081 194.322 438.381 193.934 436.502C193.739 435.563 193.658 434.599 193.756 433.643C193.764 433.166 193.877 432.696 193.958 432.226C194.063 431.765 194.209 431.311 194.363 430.866C195.027 429.1 196.104 427.586 197.351 426.355C199.886 423.909 203.004 422.484 206.162 421.699C207.15 421.456 208.146 422.055 208.397 423.035C208.632 423.974 208.097 424.922 207.198 425.229L207.15 425.237Z" fill="#000072"/>
<g opacity="0.3">
<g opacity="0.3">
<path opacity="0.3" d="M202.237 425.115C201.776 426.168 201.525 427.286 201.525 428.444C201.525 434.954 209.356 440.243 219.025 440.243C223.139 440.243 226.92 439.279 229.909 437.684C227.779 442.575 221.074 446.146 213.121 446.146C203.46 446.146 195.621 440.866 195.621 434.347C195.621 430.606 198.204 427.277 202.237 425.115Z" fill="#000072"/>
</g>
</g>
<path d="M238.117 314.019C238.117 314.019 258.783 280.128 250.572 269.406C242.36 258.684 215.11 273.188 215.11 273.188C202.736 262.247 190.557 259.745 190.557 259.745C190.557 259.745 178.847 255.574 162.586 258.522C162.586 258.522 146.794 232.001 134.218 236.916C121.641 241.832 121.763 281.529 121.763 281.529C115.892 287.619 110.102 295.182 104.587 304.544C100.036 312.286 98.7885 321.574 101.234 330.215C105.453 345.14 119.325 364.575 158.294 375.297C197.173 386.319 219.111 376.876 230.456 366.3C237.024 360.178 240.773 351.586 240.887 342.605C241.024 331.745 239.988 322.271 238.117 314.019Z" fill="#FAAF5E"/>
<g opacity="0.5">
<g opacity="0.5">
<path opacity="0.5" d="M250.321 270.434C242.109 259.712 214.859 274.216 214.859 274.216C202.485 263.276 190.306 260.773 190.306 260.773C190.306 260.773 178.596 256.603 162.335 259.55C162.335 259.55 146.543 233.029 133.967 237.945C129.375 239.742 126.476 246.18 124.638 253.631C126.476 247.841 129.116 243.176 132.914 241.686C145.49 236.77 161.282 263.292 161.282 263.292C170.473 261.624 178.207 262.239 183.195 263.081C182.718 263.429 182.394 263.851 182.256 264.345C181.584 266.766 185.617 270.005 191.269 271.584C196.922 273.163 202.048 272.483 202.728 270.062C202.728 270.062 202.728 270.062 202.728 270.054C206.162 271.997 209.976 274.572 213.806 277.958C213.806 277.958 241.057 263.454 249.268 274.176C251.754 277.415 251.592 282.776 250.159 288.679C252.467 281.359 253.317 274.354 250.321 270.434Z" fill="white"/>
</g>
</g>
<path d="M152.991 261.017C152.991 261.017 144.367 246.918 138.018 249.396C131.661 251.882 131.685 272.605 131.685 272.605C138.981 266.977 146.221 263.324 152.991 261.017Z" fill="#FBDA98"/>
<path d="M222.037 280.298C222.037 280.298 236.719 272.702 240.865 278.12C245.011 283.538 234.257 301.256 234.257 301.256C230.937 292.656 226.637 285.781 222.037 280.298Z" fill="#FBDA98"/>
<path d="M103.319 307.442C103.246 307.442 103.173 307.442 103.1 307.442C102.396 309.167 101.78 310.852 101.214 312.512C101.076 312.998 100.954 313.484 100.841 313.969C101.06 313.152 101.295 312.334 101.578 311.532C102.064 310.131 102.647 308.77 103.319 307.442Z" fill="#FAFBFB"/>
<path d="M100.839 313.969C100.304 316.301 100.029 318.682 100.013 321.071C100.337 318.018 100.855 314.836 101.576 311.523C101.3 312.333 101.057 313.151 100.839 313.969Z" fill="#FAFBFB"/>
<path d="M238.217 314.456C237.99 314.837 237.861 315.048 237.861 315.048C238.881 319.55 239.651 324.425 240.12 329.689C229.892 324.919 219.478 330.62 212.425 333.098C204.456 335.892 203.395 324.02 195.775 314.926C188.154 305.832 178.137 303.548 178.137 303.548C178.137 303.548 168.387 300.309 157.155 304.148C145.923 307.978 138.861 317.582 133.5 311.063C128.811 305.37 122.964 295.288 112.024 293.847C109.408 297.402 106.833 301.297 104.314 305.573C103.95 306.188 103.618 306.812 103.302 307.443C102.63 308.772 102.047 310.14 101.561 311.533C100.84 314.845 100.33 318.02 99.9981 321.081C99.9738 324.15 100.371 327.227 101.213 330.232C105.432 345.157 119.304 364.592 158.272 375.314C197.152 386.336 219.089 376.893 230.435 366.317C232.459 364.43 234.209 362.308 235.674 360.017C237.335 357.417 238.614 354.599 239.489 351.643C239.489 351.635 239.489 351.635 239.497 351.627C239.553 351.424 239.618 351.23 239.675 351.028C240.428 348.307 240.833 345.489 240.873 342.622C241.027 331.932 240.023 322.603 238.217 314.456Z" fill="#FAFBFB"/>
<path d="M172.263 276.446C173.054 273.616 169.696 270.204 164.763 268.827C159.831 267.449 155.191 268.627 154.401 271.457C153.611 274.288 156.968 277.699 161.901 279.076C166.833 280.454 171.473 279.276 172.263 276.446Z" fill="#FAFBFB"/>
<path d="M217.99 289.216C218.78 286.386 215.422 282.975 210.49 281.597C205.557 280.22 200.918 281.398 200.127 284.228C199.337 287.058 202.695 290.469 207.627 291.847C212.56 293.224 217.199 292.047 217.99 289.216Z" fill="#FAFBFB"/>
<path d="M176.587 313.939C176.587 313.947 176.595 313.947 176.587 313.939L176.62 313.873H176.612L176.587 313.939Z" fill="#E94653"/>
<path d="M176.38 313.883L176.397 313.817C176.397 313.817 176.388 313.817 176.388 313.809L176.364 313.883C176.38 313.883 176.38 313.883 176.38 313.883Z" fill="#E94653"/>
<path d="M183.101 326.513C179.772 335.527 173.27 341.43 168.573 339.697C163.884 337.964 162.782 329.251 166.111 320.237" fill="#FF6C6C"/>
<path d="M170.271 340.215C169.656 340.215 169.065 340.11 168.498 339.908C166.149 339.041 164.594 336.49 164.117 332.725C163.647 329.016 164.279 324.554 165.906 320.156C165.947 320.043 166.076 319.986 166.19 320.027C166.303 320.067 166.36 320.197 166.319 320.31C164.724 324.635 164.092 329.024 164.554 332.668C165.007 336.255 166.465 338.677 168.652 339.487C173.219 341.179 179.608 335.316 182.896 326.432C182.937 326.319 183.066 326.262 183.18 326.303C183.293 326.343 183.35 326.473 183.309 326.586C180.337 334.62 174.822 340.215 170.271 340.215Z" fill="#000072"/>
<path d="M182.28 328.521C181.001 331.404 179.389 333.899 177.656 335.81C174.668 339.114 171.315 340.709 168.57 339.697C165.825 338.685 164.31 335.283 164.197 330.821C164.124 328.246 164.521 325.315 165.428 322.294L182.28 328.521Z" fill="#F78C8B"/>
<path d="M170.304 340.248C169.672 340.248 169.065 340.143 168.482 339.924C165.72 338.904 164.068 335.583 163.947 330.822C163.874 328.165 164.295 325.185 165.186 322.213L165.258 321.954L182.613 328.368L182.507 328.611C181.252 331.437 179.641 333.98 177.843 335.964C175.324 338.766 172.668 340.248 170.304 340.248ZM165.59 322.626C164.773 325.461 164.376 328.287 164.449 330.813C164.562 335.365 166.101 338.515 168.66 339.454C171.219 340.402 174.426 339.009 177.47 335.64C179.179 333.753 180.718 331.348 181.941 328.667L165.59 322.626Z" fill="#000072"/>
<path d="M170.094 333.405L172.856 323.784C173.083 322.982 173.917 322.529 174.718 322.756C175.512 322.982 175.974 323.816 175.747 324.618C175.731 324.691 175.698 324.764 175.666 324.829L171.512 333.931C171.341 334.312 170.888 334.482 170.507 334.304C170.159 334.142 169.989 333.761 170.094 333.405Z" fill="#9F6F67"/>
<path d="M170.822 341.592C169.882 341.592 168.951 341.43 168.052 341.106C165.315 340.093 163.315 337.688 162.424 334.336C161.582 331.169 161.833 327.493 163.129 323.986C163.412 323.209 164.278 322.812 165.056 323.104C165.833 323.387 166.23 324.253 165.939 325.031C164.853 327.962 164.635 330.999 165.315 333.574C165.947 335.963 167.291 337.64 169.089 338.304C173 339.745 177.94 336.142 180.11 330.27C180.394 329.493 181.26 329.096 182.038 329.388C182.815 329.671 183.212 330.538 182.92 331.315C180.637 337.494 175.6 341.592 170.822 341.592Z" fill="#9F6F67"/>
<g opacity="0.3">
<g opacity="0.3">
<path opacity="0.3" d="M191.003 328.335C188.744 332.976 183.375 337.632 177.835 334.927C173.009 332.571 172.782 328.287 172.782 328.287L172.685 328.246C172.685 328.246 169.753 331.275 164.53 330.012C159.015 328.675 157.477 321.59 158.78 316.585" fill="#000072"/>
</g>
</g>
<path d="M189.762 327.025C187.503 331.665 183.567 332.912 179.364 330.79C174.57 328.369 174.74 323.931 174.983 322.344L174.886 322.304C174.036 323.664 171.282 327.146 166.059 325.867C161.484 324.749 159.305 321.243 160.609 316.246" fill="white"/>
<path d="M183.211 332.012C181.947 332.012 180.611 331.672 179.259 330.983C174.926 328.789 174.529 325.039 174.683 322.982C173.46 324.642 170.715 327.242 166.002 326.084C163.702 325.525 161.961 324.343 160.973 322.691C159.937 320.958 159.734 318.706 160.39 316.196C160.422 316.075 160.544 316.002 160.657 316.034C160.779 316.066 160.843 316.188 160.819 316.301C160.196 318.698 160.382 320.828 161.354 322.456C162.285 324.011 163.929 325.112 166.107 325.647C171.12 326.877 173.784 323.63 174.691 322.181C174.748 322.091 174.853 322.051 174.959 322.091L175.056 322.132C175.153 322.164 175.21 322.27 175.201 322.375C174.95 324.067 174.861 328.262 179.469 330.595C181.478 331.607 183.445 331.842 185.162 331.259C186.96 330.651 188.491 329.153 189.576 326.926C189.632 326.813 189.762 326.772 189.867 326.821C189.981 326.877 190.021 327.007 189.972 327.112C188.831 329.445 187.219 331.024 185.308 331.663C184.628 331.898 183.931 332.012 183.211 332.012Z" fill="#000072"/>
<g opacity="0.3">
<g opacity="0.3">
<path opacity="0.3" d="M189.763 327.023C187.495 331.663 183.567 332.91 179.365 330.788C174.57 328.367 174.74 323.929 174.975 322.342L174.878 322.302C174.028 323.662 171.274 327.144 166.051 325.865C161.476 324.747 159.297 321.241 160.601 316.244L161.897 316.722C162.496 319.321 164.48 321.135 167.525 321.872C170.165 322.52 172.173 321.945 173.623 321.054L176.741 322.204C177.259 323.824 178.409 325.565 180.838 326.788C183.64 328.205 186.321 328.124 188.467 326.537L189.763 327.023Z" fill="#000072"/>
</g>
</g>
<path d="M183.211 333.291C181.745 333.291 180.214 332.902 178.684 332.125C175.404 330.465 174.092 327.979 173.622 325.841C171.873 327.153 169.266 328.197 165.694 327.323C163.054 326.675 161.038 325.298 159.872 323.338C158.657 321.306 158.406 318.714 159.151 315.864C159.362 315.062 160.18 314.584 160.981 314.787C161.783 314.997 162.261 315.815 162.058 316.617C161.524 318.674 161.662 320.463 162.455 321.8C163.208 323.055 164.577 323.954 166.415 324.407C170.472 325.395 172.667 323.014 173.614 321.5C173.995 320.901 174.74 320.642 175.404 320.893L175.501 320.933C176.165 321.176 176.57 321.856 176.465 322.561C176.206 324.326 176.319 327.566 180.044 329.452C181.737 330.311 183.365 330.513 184.749 330.052C186.223 329.558 187.486 328.286 188.418 326.375C188.782 325.63 189.681 325.322 190.418 325.687C191.163 326.051 191.471 326.95 191.106 327.687C189.819 330.335 187.948 332.133 185.697 332.894C184.903 333.153 184.069 333.291 183.211 333.291Z" fill="#9F6F67"/>
<path d="M175.048 323.492C174.878 323.492 174.7 323.46 174.53 323.395C173.753 323.112 173.356 322.245 173.648 321.468L176.231 314.487C176.514 313.71 177.381 313.313 178.158 313.605C178.936 313.888 179.332 314.754 179.041 315.532L176.458 322.513C176.231 323.12 175.664 323.492 175.048 323.492Z" fill="#9F6F67"/>
<path d="M187.066 316.99C185.989 319.905 180.385 322.27 175.251 320.375C170.116 318.48 167.403 313.038 168.48 310.123C169.558 307.207 173.809 308.503 178.943 310.398C184.069 312.293 188.143 314.075 187.066 316.99Z" fill="#9F6F67"/>
<path d="M182.103 314.204C181.869 314.843 179.747 315.03 177.52 314.212C175.293 313.386 173.803 311.863 174.038 311.223C174.273 310.584 176.103 311.199 178.33 312.025C180.549 312.843 182.338 313.564 182.103 314.204Z" fill="white"/>
<path d="M180.378 314.957C179.463 314.957 178.427 314.763 177.439 314.398C175.268 313.597 173.519 312.017 173.835 311.151C174.135 310.333 175.835 310.892 178.386 311.831C179.601 312.285 180.548 312.649 181.221 313.005C181.771 313.289 182.476 313.734 182.281 314.277C182.128 314.682 181.504 314.933 180.557 314.957C180.5 314.957 180.443 314.957 180.378 314.957ZM174.588 311.151C174.394 311.151 174.256 311.191 174.224 311.297C174.062 311.742 175.366 313.2 177.585 314.026C178.589 314.398 179.641 314.584 180.548 314.56C181.391 314.536 181.844 314.325 181.909 314.139C181.941 314.058 181.917 313.823 181.042 313.362C180.395 313.022 179.455 312.657 178.257 312.212C177.252 311.839 175.382 311.151 174.588 311.151Z" fill="#9F6F67"/>
<path d="M195.1 305.191C195.367 304.705 195.634 304.3 195.966 303.912C196.29 303.523 196.638 303.158 197.027 302.826C197.788 302.154 198.663 301.596 199.619 301.15C200.582 300.721 201.635 300.438 202.728 300.308C203.004 300.292 203.279 300.267 203.554 300.267C203.83 300.251 204.105 300.267 204.388 300.284C204.664 300.3 204.939 300.332 205.222 300.365L206.04 300.527L206.445 300.616C206.575 300.648 206.696 300.697 206.826 300.737L207.571 300.988C207.822 301.061 208.057 301.183 208.3 301.296L209.02 301.636C209.952 302.171 210.867 302.778 211.604 303.596C212.357 304.389 212.964 305.329 213.353 306.325L213.491 306.697L213.604 307.086C213.685 307.337 213.725 307.604 213.774 307.864C213.815 308.131 213.839 308.39 213.847 308.657C213.847 308.787 213.847 308.924 213.839 309.062C213.839 309.2 213.823 309.321 213.806 309.499C213.766 309.904 213.41 310.204 213.005 310.163C212.802 310.147 212.624 310.042 212.503 309.896L212.3 309.645C212.203 309.524 212.106 309.321 211.984 309.167C211.879 308.997 211.75 308.835 211.636 308.681C211.393 308.366 211.15 308.074 210.875 307.807C210.349 307.264 209.765 306.835 209.166 306.454C209.004 306.365 208.85 306.276 208.705 306.187L208.219 305.952C208.065 305.863 207.895 305.798 207.725 305.734L207.223 305.531C206.866 305.426 206.534 305.296 206.17 305.207C205.814 305.126 205.425 304.997 205.101 304.956L204.599 304.859C204.429 304.843 204.259 304.843 204.089 304.819C203.749 304.754 203.408 304.811 203.06 304.778C202.364 304.819 201.651 304.859 200.906 304.997C200.169 305.134 199.4 305.313 198.606 305.539C197.821 305.758 196.987 306.05 196.161 306.292L196.039 306.333C195.618 306.454 195.181 306.22 195.051 305.798C194.978 305.588 195.003 305.369 195.1 305.191Z" fill="#9F6F67"/>
<path d="M165.729 297.028C165.252 296.307 164.798 295.546 164.337 294.874C163.875 294.194 163.397 293.562 162.919 292.979C162.442 292.396 161.915 291.902 161.413 291.424C161.122 291.23 160.895 290.963 160.595 290.793C160.449 290.704 160.32 290.59 160.182 290.493L159.737 290.242C159.461 290.064 159.089 289.91 158.757 289.748C158.417 289.578 158.077 289.473 157.737 289.319L157.226 289.149C157.056 289.084 156.878 289.035 156.708 289.003L156.19 288.865C156.02 288.841 155.842 288.809 155.663 288.776C154.959 288.679 154.23 288.639 153.485 288.711C153.104 288.744 152.732 288.809 152.343 288.89C152.157 288.938 151.954 288.979 151.768 289.035C151.574 289.084 151.371 289.173 151.218 289.197L150.902 289.262C150.505 289.343 150.116 289.076 150.035 288.679C149.995 288.477 150.043 288.274 150.149 288.12C150.246 287.974 150.311 287.869 150.4 287.764C150.481 287.659 150.57 287.553 150.651 287.456C150.821 287.254 151.015 287.067 151.209 286.889C151.412 286.719 151.614 286.541 151.841 286.403L152.173 286.177L152.521 285.982C153.461 285.464 154.53 285.14 155.615 285.019C156.708 284.873 157.793 284.994 158.854 285.181L159.623 285.383C159.883 285.448 160.142 285.513 160.377 285.618L161.105 285.901C161.227 285.95 161.348 285.99 161.47 286.055L161.842 286.25L162.571 286.646C162.806 286.8 163.033 286.954 163.259 287.124C163.486 287.286 163.705 287.456 163.907 287.642C164.118 287.821 164.312 288.015 164.515 288.209C165.268 289.011 165.891 289.91 166.353 290.857C166.806 291.813 167.106 292.801 167.268 293.805C167.349 294.307 167.381 294.809 167.381 295.319C167.381 295.83 167.333 296.316 167.219 296.858C167.13 297.287 166.717 297.563 166.288 297.482C166.07 297.441 165.899 297.312 165.786 297.142L165.729 297.028Z" fill="#9F6F67"/>
<g opacity="0.3">
<g opacity="0.3">
<g opacity="0.3">
<path opacity="0.3" d="M235.348 347.958C224.002 358.534 202.065 367.976 163.185 356.955C124.217 346.233 110.345 326.797 106.126 311.872C105.146 308.423 104.773 304.867 104.943 301.345C100.894 308.86 99.866 317.687 102.198 325.923C106.417 340.847 120.289 360.283 159.258 371.005C198.137 382.027 220.075 372.584 231.42 362.008C237.68 356.169 241.373 348.087 241.81 339.56C240.134 342.661 237.972 345.512 235.348 347.958Z" fill="#000072"/>
</g>
</g>
</g>
<path d="M174.248 327.842C174.119 328.441 173.908 329.024 173.673 329.599C173.43 330.174 173.179 330.741 172.88 331.3C172.596 331.858 172.288 332.417 171.956 332.96C171.624 333.51 171.276 334.053 170.871 334.579C170.798 333.923 170.782 333.276 170.782 332.636C170.782 331.996 170.807 331.364 170.855 330.741C170.896 330.109 170.968 329.494 171.058 328.878C171.163 328.271 171.276 327.664 171.479 327.081C171.738 326.336 172.556 325.931 173.301 326.19C174.013 326.417 174.402 327.137 174.248 327.842Z" fill="#9F6F67"/>
<path d="M213.037 391.735C213.037 391.735 206.923 444.543 190.394 446.544C173.558 448.576 174.279 444.584 175.631 414.451C175.623 414.443 192.492 381.443 213.037 391.735Z" fill="#F6A428"/>
<path d="M205.209 427.593C201.686 437.489 196.876 445.765 190.519 446.535C175.278 448.373 174.42 445.271 175.4 422.305C178.866 420.256 182.899 419.082 187.215 419.082C194.463 419.09 200.941 422.402 205.209 427.593Z" fill="#FAFBFB"/>
<g opacity="0.3">
<g opacity="0.3">
<path opacity="0.3" d="M185.018 440.882C194.477 440.526 201.409 433.205 205.839 426.387C202.284 436.817 197.344 445.741 190.728 446.543C180.37 447.798 176.661 446.762 175.649 438.769C177.754 440.178 180.759 441.044 185.018 440.882Z" fill="#000072"/>
</g>
</g>
<path d="M202.767 389.742C202.767 389.742 196.588 415.875 175.647 413.008C154.705 410.142 172.82 376.518 202.767 389.742Z" fill="#FAFBFB"/>
<path d="M213.337 391.768C213.734 400.854 212.106 409.754 209.952 418.524C208.826 422.906 207.474 427.238 205.724 431.473C204.842 433.587 203.878 435.676 202.752 437.717C201.635 439.758 200.347 441.742 198.736 443.572C197.934 444.487 197.027 445.345 195.999 446.107C194.978 446.868 193.82 447.532 192.533 447.961C192.209 448.058 191.877 448.147 191.553 448.237C191.221 448.293 190.864 448.366 190.549 448.407C189.982 448.471 189.423 448.544 188.856 448.609C187.722 448.731 186.572 448.836 185.398 448.901C184.216 448.949 183.001 448.957 181.722 448.803C180.458 448.65 179.065 448.309 177.786 447.524C176.498 446.746 175.47 445.548 174.846 444.325C174.684 444.017 174.522 443.71 174.409 443.402C174.296 443.094 174.142 442.778 174.061 442.479L173.785 441.564L173.583 440.657C173.089 438.243 173.032 435.927 173.016 433.636C173.032 431.344 173.146 429.084 173.364 426.841C173.567 424.598 173.834 422.363 174.174 420.144C174.498 417.925 174.895 415.714 175.381 413.504C175.421 413.334 175.583 413.228 175.753 413.269C175.891 413.301 175.988 413.415 175.996 413.544C176.344 418.039 176.401 422.509 176.506 426.938C176.571 429.157 176.612 431.36 176.733 433.53C176.757 434.073 176.79 434.615 176.838 435.15C176.871 435.693 176.928 436.219 176.992 436.745C177.041 437.28 177.122 437.79 177.195 438.308C177.227 438.567 177.284 438.81 177.324 439.069C177.373 439.32 177.413 439.58 177.478 439.814C177.697 440.794 177.996 441.701 178.385 442.446C178.79 443.191 179.26 443.742 179.883 444.139C180.499 444.536 181.317 444.795 182.256 444.932C183.195 445.07 184.216 445.094 185.26 445.078C186.313 445.054 187.39 444.973 188.475 444.868C189.018 444.819 189.569 444.754 190.111 444.698L190.759 444.592L191.391 444.422C192.225 444.155 193.043 443.718 193.804 443.151C194.565 442.576 195.286 441.888 195.942 441.118C197.27 439.58 198.412 437.79 199.416 435.911C200.42 434.024 201.279 432.04 202.072 430.016C203.635 425.959 204.915 421.756 206.073 417.504C206.656 415.382 207.198 413.244 207.741 411.098L209.288 404.644C210.34 400.336 211.418 396.02 212.737 391.703V391.695C212.786 391.533 212.964 391.436 213.126 391.493C213.248 391.525 213.337 391.647 213.337 391.768Z" fill="#000072"/>
<path d="M122.088 414.248C122.865 416.637 123.545 418.969 124.347 421.253C124.736 422.395 125.149 423.529 125.562 424.646L126.201 426.322C126.42 426.873 126.663 427.424 126.89 427.974C127.837 430.161 128.89 432.299 130.032 434.38C131.166 436.469 132.405 438.494 133.66 440.518L133.668 440.535C134.202 441.401 133.935 442.535 133.069 443.069C132.251 443.58 131.182 443.361 130.615 442.592C129.117 440.559 127.829 438.381 126.687 436.121C125.562 433.854 124.606 431.513 123.837 429.1C123.659 428.493 123.472 427.893 123.302 427.286C123.148 426.679 122.97 426.071 122.833 425.456C122.549 424.225 122.33 422.986 122.169 421.747C121.877 419.253 121.78 416.734 122.088 414.248Z" fill="#000072"/>
<path d="M136.891 367.53C128.922 363.659 122.8 359.756 123.747 349.423C124.695 339.09 129.691 324.027 112.596 326.537C101.137 328.222 95.007 350.961 95.9221 361.279C97.1773 375.329 109.146 385.111 120.986 390.958" fill="#FAAF5E"/>
<path d="M123.997 347.948C123.997 347.948 110.813 354.718 97.7185 345.308L103.598 335.388L108.999 328.327L119.964 327.622L122.904 329.428L124.766 333.113L123.997 347.948Z" fill="#FAFBFB"/>
<g opacity="0.5">
<g opacity="0.5">
<path opacity="0.5" d="M100.02 360.8C98.9428 347.965 107.049 328.642 118.508 326.958C118.686 326.934 118.864 326.909 119.034 326.885C117.423 326.594 115.439 326.602 113.017 326.958C101.558 328.642 95.4282 351.382 96.3433 361.699C97.5985 375.749 102.603 381.596 114.451 387.443C105.357 379.596 101.064 373.255 100.02 360.8Z" fill="white"/>
</g>
</g>
<path d="M127.353 381.605C131.135 376.665 133.402 372.446 136.982 367.49C132.747 365.773 129.459 363.773 127.191 361.052C126.835 364.178 126.649 367.385 126.649 370.656C126.641 374.398 126.892 378.058 127.353 381.605Z" fill="#FAFBFB"/>
<g opacity="0.3">
<g opacity="0.3">
<path opacity="0.3" d="M114.821 354.031C113.339 363.676 124.766 370.753 133.665 367.919C133.771 367.862 133.665 367.919 133.665 367.919C125.583 363.91 119.55 360.428 120.474 349.804C121.397 339.179 126.426 325.145 109.347 326.643C107.978 326.764 107.031 327.266 105.719 327.93C121.283 328.708 116.765 341.381 114.821 354.031Z" fill="#000072"/>
</g>
</g>
<path d="M112.482 387.84C112.118 387.84 111.753 387.735 111.43 387.508C104.125 382.414 95.1928 373.749 94.0914 361.448C93.1764 351.188 99.1204 326.667 112.328 324.723C117.762 323.921 121.601 324.723 124.063 327.161C128.087 331.161 127.067 338.457 126.168 344.895C125.933 346.556 125.715 348.127 125.577 349.6C124.727 358.84 130.063 362.177 137.692 365.878C138.607 366.323 138.988 367.424 138.542 368.34C138.097 369.255 136.995 369.635 136.08 369.19C128.006 365.27 120.848 360.792 121.909 349.26C122.054 347.697 122.281 346.094 122.516 344.385C123.301 338.806 124.184 332.473 121.463 329.776C119.908 328.229 117.009 327.752 112.863 328.367C103.129 329.801 96.8529 350.937 97.7599 361.124C98.7317 372.016 106.878 379.839 113.535 384.487C114.369 385.07 114.572 386.22 113.989 387.054C113.64 387.565 113.065 387.84 112.482 387.84Z" fill="#9F6F67"/>
<path d="M111.089 334.838C110.798 334.117 110.79 333.291 110.863 332.489C110.944 331.687 111.138 330.886 111.413 330.116C111.535 329.72 111.705 329.355 111.859 328.975C112.029 328.602 112.207 328.238 112.385 327.865C112.579 327.509 112.774 327.144 112.976 326.788L113.624 325.743C114.191 324.836 115.381 324.553 116.297 325.112C117.204 325.679 117.487 326.869 116.928 327.784C116.782 328.019 116.596 328.213 116.378 328.359L116.337 328.383L115.462 328.983C115.179 329.193 114.904 329.404 114.612 329.622C114.345 329.849 114.07 330.076 113.802 330.311C113.551 330.554 113.276 330.797 113.049 331.056C112.555 331.574 112.126 332.133 111.762 332.756C111.421 333.388 111.114 334.076 111.089 334.838Z" fill="#9F6F67"/>
<path d="M118.628 337.924C118.547 337.244 118.547 336.547 118.596 335.843C118.644 335.138 118.75 334.425 118.92 333.721C119.09 333.008 119.308 332.296 119.608 331.599C119.891 330.895 120.264 330.223 120.677 329.542L120.701 329.502C121.268 328.579 122.467 328.295 123.39 328.862C124.313 329.429 124.596 330.627 124.03 331.551C123.868 331.818 123.633 332.037 123.382 332.199C122.896 332.498 122.386 332.822 121.932 333.227C121.462 333.616 121.025 334.061 120.62 334.547C120.207 335.033 119.835 335.559 119.495 336.126C119.163 336.685 118.855 337.284 118.628 337.924Z" fill="#9F6F67"/>
<path d="M96.3182 271.947C99.2498 268.101 100.999 263.291 100.999 258.083C100.999 245.434 90.7386 235.174 78.0893 235.174C65.44 235.174 55.1797 245.434 55.1797 258.083C55.1797 270.733 65.44 280.993 78.0893 280.993C81.612 280.993 84.9404 280.199 87.9205 278.782L98.2213 282.232L96.3182 271.947Z" fill="#F78C8B"/>
<g opacity="0.5">
<g opacity="0.5">
<g opacity="0.5">
<path opacity="0.5" d="M78.0812 240.073C89.9045 240.073 99.6304 249.022 100.861 260.521C100.95 259.72 100.999 258.902 100.999 258.076C100.999 245.426 90.7386 235.166 78.0893 235.166C65.44 235.166 55.1797 245.426 55.1797 258.076C55.1797 258.902 55.2283 259.72 55.3093 260.529C56.5321 249.03 66.2579 240.073 78.0812 240.073Z" fill="white"/>
</g>
</g>
</g>
<g opacity="0.3">
<g opacity="0.3">
<path opacity="0.3" d="M96.4641 271.737C89.6779 276.377 80.8428 277.802 72.5179 274.806C63.286 271.477 57.0504 263.549 55.4389 254.536C55.2607 255.694 55.1636 256.876 55.1636 258.075C55.1636 270.724 65.4239 280.985 78.0732 280.985C81.5959 280.985 84.9242 280.191 87.9044 278.774L98.2052 282.224L96.3021 271.947C96.3669 271.874 96.4155 271.809 96.4641 271.737Z" fill="#9F6F67"/>
</g>
</g>
<path d="M182.653 437.003C182.297 437.675 182.224 438.42 182.216 439.133C182.216 439.853 182.313 440.558 182.483 441.246C182.548 441.586 182.669 441.935 182.766 442.267C182.88 442.607 183.001 442.939 183.123 443.263C183.26 443.595 183.398 443.919 183.544 444.243L184.005 445.198L184.022 445.231C184.491 446.194 184.086 447.352 183.123 447.822C182.159 448.292 181.001 447.887 180.531 446.923C180.41 446.672 180.345 446.405 180.337 446.138L180.296 444.915C180.296 444.502 180.305 444.089 180.313 443.692C180.337 443.279 180.369 442.874 180.41 442.469C180.466 442.056 180.507 441.659 180.596 441.254C180.742 440.453 180.977 439.659 181.301 438.922C181.616 438.201 182.046 437.489 182.653 437.003Z" fill="#000072"/>
<path d="M190.728 438.071C190.606 438.743 190.574 439.416 190.59 440.072C190.598 440.727 190.663 441.375 190.777 442.007C190.89 442.631 191.044 443.238 191.262 443.805C191.457 444.38 191.732 444.914 192.007 445.416C192.526 446.364 192.178 447.546 191.23 448.064C190.283 448.583 189.1 448.234 188.582 447.287C188.428 447.012 188.355 446.712 188.339 446.412V446.356C188.315 445.562 188.323 444.793 188.428 444.04C188.517 443.286 188.679 442.558 188.89 441.861C189.092 441.165 189.359 440.493 189.667 439.861C189.975 439.229 190.323 438.622 190.728 438.071Z" fill="#000072"/>
<path d="M111.277 434.938C110.84 435.562 110.662 436.291 110.565 436.995C110.476 437.708 110.476 438.421 110.549 439.125C110.573 439.473 110.646 439.83 110.694 440.178C110.759 440.526 110.84 440.874 110.913 441.215C111.01 441.563 111.099 441.903 111.196 442.235L111.528 443.247L111.537 443.28C111.869 444.3 111.318 445.393 110.306 445.733C109.285 446.065 108.192 445.515 107.852 444.502C107.763 444.235 107.738 443.96 107.763 443.701L107.884 442.478C107.933 442.073 108.006 441.668 108.062 441.263C108.143 440.858 108.224 440.461 108.322 440.065C108.435 439.668 108.524 439.271 108.67 438.882C108.921 438.105 109.253 437.352 109.674 436.663C110.095 435.983 110.613 435.327 111.277 434.938Z" fill="#000072"/>
<path d="M119.141 437.069C118.938 437.717 118.809 438.381 118.736 439.037C118.655 439.693 118.631 440.341 118.663 440.981C118.696 441.612 118.768 442.236 118.898 442.827C119.019 443.418 119.214 443.985 119.424 444.52C119.813 445.524 119.311 446.658 118.307 447.046C117.303 447.435 116.169 446.933 115.78 445.929C115.667 445.637 115.626 445.329 115.659 445.03L115.667 444.973C115.748 444.188 115.861 443.426 116.064 442.689C116.25 441.953 116.509 441.256 116.809 440.592C117.108 439.928 117.457 439.296 117.845 438.705C118.234 438.114 118.663 437.563 119.141 437.069Z" fill="#000072"/>
<g opacity="0.3">
<g opacity="0.3">
<path opacity="0.3" d="M128.615 427.391C124.46 423.002 122.525 417.754 122.525 417.754C120.946 424.143 131.481 440.574 131.481 440.574L132.575 440.502C132.243 441.149 132.129 441.546 132.129 441.546H174.515V432.428C161.339 431.318 151.184 430.776 144.544 432.193C138.745 433.44 132.696 431.691 128.615 427.391Z" fill="#000072"/>
</g>
</g>
<path d="M219.832 434.412C220.512 434.777 221.055 435.408 221.5 436.072C221.945 436.744 222.31 437.481 222.593 438.251C222.755 438.631 222.852 439.02 222.982 439.417C223.095 439.805 223.192 440.202 223.29 440.607C223.363 441.004 223.452 441.409 223.516 441.814L223.686 443.029C223.832 444.089 223.095 445.069 222.034 445.223C220.974 445.377 219.994 444.632 219.84 443.571C219.799 443.296 219.824 443.029 219.897 442.777L219.913 442.737L220.204 441.717C220.293 441.377 220.366 441.028 220.447 440.68C220.512 440.332 220.577 439.984 220.625 439.635C220.658 439.287 220.714 438.931 220.723 438.583C220.771 437.87 220.739 437.157 220.617 436.453C220.496 435.74 220.293 435.019 219.832 434.412Z" fill="#000072"/>
<path d="M212.058 436.857C212.552 437.327 213.006 437.862 213.419 438.437C213.832 439.012 214.204 439.627 214.528 440.275C214.852 440.931 215.144 441.619 215.354 442.34C215.589 443.061 215.735 443.822 215.848 444.607L215.856 444.656C216.01 445.725 215.273 446.713 214.204 446.867C213.135 447.021 212.147 446.284 211.993 445.215C211.945 444.899 211.985 444.583 212.074 444.308C212.261 443.765 212.439 443.19 212.528 442.591C212.641 441.992 212.69 441.368 212.69 440.736C212.698 440.097 212.649 439.449 212.544 438.801C212.439 438.153 212.293 437.505 212.058 436.857Z" fill="#000072"/>
<path d="M86.3589 251.442C84.1238 249.207 80.4959 249.604 78.2527 251.847L77.9045 252.196L77.5562 251.847C75.3212 249.612 71.6932 249.207 69.45 251.442C67.2149 253.678 67.2149 257.305 69.45 259.549L69.7982 259.897L76.8355 266.934C77.4267 267.525 78.3822 267.525 78.9734 266.934L86.0107 259.897L86.3589 259.549C88.594 257.305 88.594 253.678 86.3589 251.442Z" fill="#FAFBFB"/>
</svg>
