<svg width="164" height="225" viewBox="0 0 164 225" fill="none" xmlns="http://www.w3.org/2000/svg">
<path d="M138.911 180.715C140.988 185.798 142.67 191.687 143.223 198.145C146.983 194.983 159.942 183.025 155.458 171.709C153.216 166.036 145.981 181.186 138.911 180.715Z" fill="#F99B28"/>
<g opacity="0.6">
<g opacity="0.6">
<path opacity="0.6" d="M155.257 174.826C155.257 174.826 143.762 189.251 139.457 181.426C139.457 181.426 151.655 174.699 153.605 170.97C153.605 170.97 154.569 171.784 155.257 174.826Z" fill="white"/>
</g>
</g>
<path d="M143.644 199.125C143.188 199.125 142.739 198.915 142.448 198.527C141.955 197.862 142.089 196.927 142.754 196.434C142.919 196.314 158.816 184.244 154.07 172.286C154.04 172.211 154.018 172.151 153.988 172.099C153.308 172.6 152.097 174.102 151.252 175.148C148.263 178.863 143.756 184.468 138.412 181.404C137.695 180.993 137.448 180.081 137.859 179.363C138.27 178.646 139.182 178.399 139.899 178.81C142.799 180.47 145.58 177.428 148.928 173.272C151.065 170.619 152.605 168.706 154.541 168.997C155.557 169.154 156.335 169.886 156.85 171.187C162.433 185.275 145.273 198.288 144.541 198.833C144.264 199.027 143.95 199.125 143.644 199.125Z" fill="#390075"/>
<g opacity="0.3">
<path opacity="0.3" d="M152.544 186.381C152.544 186.381 143.403 181.388 145.929 178.795C145.929 178.795 141.505 182.704 138.179 179.804L143.44 196.822C143.433 196.822 150.443 191.575 152.544 186.381Z" fill="#390075"/>
</g>
<g opacity="0.3">
<path opacity="0.3" d="M81.5259 224.632C126.551 224.632 163.052 218.974 163.052 211.994C163.052 205.014 126.551 199.355 81.5259 199.355C36.5004 199.355 0 205.014 0 211.994C0 218.974 36.5004 224.632 81.5259 224.632Z" fill="#390075"/>
</g>
<path d="M112.546 212.621C112.3 212.569 112.06 212.524 111.821 212.472C106.56 211.336 102.568 209.557 97.8674 208.055C96.1409 207.502 94.3247 206.993 92.3142 206.56C91.1558 206.313 89.9375 206.096 88.6296 205.91C87.1497 205.7 85.5578 205.536 83.8388 205.439C75.0494 204.916 62.7697 205.962 43.3748 210.274C42.5452 210.461 41.7006 210.648 40.8486 210.85C40.8486 210.85 22.1487 217.95 17.8811 193.749C16.2817 184.646 17.5523 179.923 19.7795 177.576C23.4492 173.682 29.7049 176.313 29.7049 176.313C29.7049 176.313 29.9142 175.408 30.385 174.13C31.8948 170.087 36.1026 162.336 44.9443 168.174C44.9443 168.174 38.9876 149.07 45.4974 133.831C49.4511 124.586 57.9864 116.768 75.2288 115.505C75.2288 115.505 99.8181 114.6 119.729 129.563C128.847 136.417 136.986 146.596 141.328 161.724C143.152 168.062 144.288 173.674 144.856 178.63V178.637C148.623 211.328 127.546 215.626 112.546 212.621Z" fill="#F99B28"/>
<path d="M43.3759 210.276C42.5463 210.462 41.7017 210.649 40.8497 210.851C40.8497 210.851 22.1499 217.951 17.8822 193.751C13.6221 169.557 29.706 176.306 29.706 176.306C29.706 176.306 29.9153 175.402 30.3862 174.124C36.8661 181.135 45.3939 193.766 43.3759 210.276Z" fill="white"/>
<path d="M110.452 149.071C114.107 157.27 112.612 165.723 112.612 165.723C119.526 197.697 103.464 205.343 94.8168 207.159C91.8571 207.779 90.2801 206.426 90.2801 206.426C86.8944 205.829 83.2546 206.314 80.3398 205.32C51.3483 195.455 44.9431 168.167 44.9431 168.167C44.9431 168.167 29.5692 118.847 75.2351 115.498C75.2351 115.498 100.766 114.557 120.856 130.424C118.307 133.01 115.647 135.342 113.307 137.255C109.817 140.118 108.621 144.953 110.452 149.071Z" fill="white"/>
<path d="M29.9621 205.533C32.2754 205.428 34.0283 202.654 33.8772 199.339C33.7262 196.024 31.7284 193.421 29.415 193.527C27.1017 193.632 25.3488 196.405 25.4999 199.721C25.6509 203.036 27.6487 205.638 29.9621 205.533Z" fill="#FF92B1"/>
<path d="M22.7916 195.124C24.0121 195.069 24.937 193.606 24.8574 191.858C24.7777 190.11 23.7236 188.737 22.503 188.793C21.2825 188.848 20.3576 190.311 20.4372 192.059C20.5169 193.808 21.571 195.18 22.7916 195.124Z" fill="#FF92B1"/>
<path d="M31.522 191.216C32.7426 191.161 33.6675 189.698 33.5879 187.95C33.5082 186.201 32.4541 184.829 31.2335 184.885C30.0129 184.94 29.088 186.403 29.1677 188.151C29.2474 189.9 30.3014 191.272 31.522 191.216Z" fill="#FF92B1"/>
<path d="M25.7132 187.799C26.9338 187.744 27.8587 186.281 27.779 184.533C27.6993 182.784 26.6453 181.412 25.4247 181.468C24.2041 181.523 23.2792 182.986 23.3589 184.734C23.4385 186.483 24.4926 187.855 25.7132 187.799Z" fill="#FF92B1"/>
<g opacity="0.3">
<path opacity="0.3" d="M130.282 168.788C117.382 157.121 107.598 180.955 107.598 180.955C107.598 180.955 100.012 194.962 92.3142 206.569C83.1213 204.603 69.9073 204.386 43.3748 210.283C42.5452 210.47 41.7006 210.657 40.8486 210.859C40.8486 210.859 22.1487 217.959 17.8811 193.758C16.2817 184.655 17.5523 179.931 19.7795 177.585C19.7571 177.809 19.6001 178.145 19.3086 178.601C14.7421 185.634 20.497 213.019 40.7664 205.036C49.324 201.666 59.5858 199.663 68.5994 198.474C81.2154 196.808 86.5294 181.389 77.5606 172.36C69.6831 164.43 61.7383 161.994 61.7383 161.994C68.9955 159.894 74.5262 154.819 78.0763 150.589C80.2288 148.033 78.4874 144.139 75.1465 144.034C50.4676 143.279 45.4974 133.84 45.4974 133.84C49.4511 124.594 57.9864 116.777 75.2288 115.513C75.2288 115.513 99.8181 114.609 119.729 129.572C121.216 137.218 120.476 146.321 119.781 151.695C119.467 154.124 120.76 156.493 123.002 157.502C130.588 160.903 130.282 168.788 130.282 168.788Z" fill="#390075"/>
</g>
<path d="M120.398 214.662C117.08 214.662 114.187 214.229 112.296 213.855C108.335 213.063 105.054 211.897 101.885 210.768C91.2872 206.994 80.3229 203.093 41.2042 212.061C40.2924 212.39 33.1697 214.737 26.5777 210.985C21.4655 208.078 18.1321 202.353 16.6523 193.967C15.0529 184.901 16.0693 178.847 19.6717 175.97C22.766 173.503 26.7944 174.139 28.8572 174.707C29.642 172.248 31.7571 167.106 36.0472 165.379C38.1773 164.527 40.5017 164.624 42.9905 165.678C41.3612 158.787 38.409 141.014 47.1909 128.121C52.8113 119.863 62.221 115.199 75.1434 114.25C75.1584 114.25 75.1733 114.25 75.1883 114.25C75.7339 114.227 88.6788 113.824 103.544 119.384C112.296 122.658 119.868 127.337 126.049 133.286C133.777 140.73 139.33 150.177 142.544 161.373C148.747 182.98 147.798 198.392 139.718 207.159C134.165 213.19 126.542 214.662 120.398 214.662ZM79.5755 204.064C90.5547 204.064 96.6983 206.254 102.73 208.399C105.959 209.55 109.015 210.634 112.79 211.396C117.767 212.39 130.189 213.81 137.872 205.462C145.212 197.495 145.997 182.487 140.129 162.068C134.517 142.509 121.908 128.936 102.663 121.739C88.5368 116.455 75.8908 116.746 75.3004 116.761C63.1926 117.65 54.4331 121.948 49.2686 129.534C39.0741 144.497 46.0772 167.576 46.1445 167.801C46.3015 168.309 46.1221 168.855 45.7035 169.176C45.2775 169.497 44.702 169.512 44.2611 169.221C41.4957 167.397 39.0442 166.889 36.9889 167.711C32.6092 169.467 30.9499 176.515 30.935 176.59C30.8528 176.949 30.6136 177.255 30.2848 177.427C29.9559 177.599 29.5673 177.614 29.2309 177.472C29.1487 177.442 24.2981 175.484 21.2338 177.943C18.4535 180.178 17.7211 185.566 19.1262 193.541C20.464 201.142 23.3863 206.277 27.7959 208.803C33.663 212.151 40.3447 209.715 40.412 209.692C40.4643 209.67 40.5166 209.655 40.5764 209.64C58.4765 205.522 70.6292 204.064 79.5755 204.064Z" fill="#390075"/>
<path d="M45.6573 168.174C45.6573 168.174 41.6288 168.697 36.696 173.339C33.7512 176.104 29.7602 176.582 26.4492 175.282C23.5941 174.176 21.2399 171.754 20.4775 168.361C19.917 165.865 19.8123 163.002 20.4626 159.744C20.4626 159.744 24.1173 138.181 44.3867 132.987L45.8142 133.652L46.2103 133.831C46.2178 133.831 39.6706 147.098 45.6573 168.174Z" fill="#FFAC32"/>
<path d="M30.084 176.156C28.8508 176.156 27.6027 175.925 26.3919 175.454C23.2603 174.243 21.0406 171.672 20.3081 168.406C19.6952 165.67 19.6878 162.74 20.2932 159.713C20.3006 159.661 21.2498 154.228 24.6729 148.226C27.8344 142.68 33.8135 135.513 44.3518 132.815L44.4116 132.8L46.4669 133.749L46.3847 133.913C46.3175 134.048 39.9422 147.367 45.8391 168.122L45.8989 168.324L45.6897 168.353C45.6523 168.361 41.6537 168.929 36.833 173.466C34.9496 175.229 32.5504 176.156 30.084 176.156ZM44.3742 133.181C24.501 138.316 20.6818 159.564 20.6444 159.781C20.0465 162.763 20.054 165.64 20.6594 168.331C21.3694 171.478 23.4995 173.951 26.519 175.117C30.0168 176.485 33.8659 175.753 36.5789 173.211C40.9288 169.116 44.5387 168.204 45.4355 168.032C39.9497 148.503 45.2636 135.535 45.9811 133.928L44.3742 133.181Z" fill="#390075"/>
<path d="M30.0987 177.233C29 177.233 27.8938 177.068 26.7952 176.732C22.9536 175.551 20.1359 172.532 19.2689 168.638C18.6261 165.76 18.6112 162.696 19.239 159.519C19.3137 159.101 20.2928 153.742 23.7458 147.696C28.432 139.489 35.465 133.981 44.0899 131.776C44.3739 131.701 44.6654 131.731 44.927 131.851L46.7506 132.695C47.0571 132.837 47.2962 133.099 47.4083 133.413C47.5204 133.727 47.498 134.086 47.3485 134.385C47.2888 134.512 41.1078 147.524 46.8702 167.83C46.9674 168.182 46.9151 168.555 46.7133 168.862C46.5115 169.168 46.1901 169.37 45.8239 169.415C45.794 169.422 42.0869 169.99 37.5651 174.243C35.4874 176.201 32.8416 177.233 30.0987 177.233ZM44.2768 134.317C25.4349 139.437 21.7353 159.759 21.7054 159.96C21.7054 159.968 21.6979 159.983 21.6979 159.99C21.1374 162.823 21.1374 165.551 21.7054 168.085C22.3781 171.082 24.553 173.421 27.5201 174.325C30.4873 175.237 33.5965 174.52 35.8387 172.412C39.314 169.138 42.4083 167.793 44.1048 167.255C39.5158 149.96 43.1482 138.107 44.5757 134.444L44.2768 134.317Z" fill="#390075"/>
<g opacity="0.3">
<path opacity="0.3" d="M45.6612 168.175C45.6612 168.175 41.6327 168.698 36.6999 173.339C33.7552 176.105 29.7641 176.583 26.4531 175.282C26.6923 168.504 29.2035 160.544 38.404 156.179C38.404 156.179 37.5445 139.878 45.8181 133.645L46.2143 133.824C46.2217 133.832 39.6745 147.098 45.6612 168.175Z" fill="#000072"/>
<path opacity="0.3" d="M30.0854 176.156C28.8522 176.156 27.604 175.924 26.3933 175.453L26.2737 175.409L26.2812 175.282C26.4979 169.018 28.755 160.618 38.232 156.074C38.1797 154.556 37.8508 139.444 45.7284 133.51L45.8181 133.442L46.4833 133.749L46.401 133.913C46.3338 134.048 39.9585 147.366 45.8554 168.122L45.9152 168.323L45.706 168.353C45.6686 168.361 41.67 168.929 36.8493 173.465C34.9509 175.229 32.5518 176.156 30.0854 176.156ZM26.6399 175.155C30.1003 176.462 33.8971 175.715 36.5728 173.196C40.9226 169.101 44.5326 168.189 45.4294 168.017C39.9435 148.487 45.2575 135.52 45.975 133.913L45.848 133.853C37.8359 140.005 38.5833 156.006 38.5908 156.163L38.5982 156.283L38.4861 156.335C29.1512 160.767 26.8865 168.989 26.6399 175.155Z" fill="#390075"/>
</g>
<g opacity="0.3">
<g opacity="0.3">
<path opacity="0.3" d="M133.72 4.65962C132.367 4.23361 130.932 4.25603 129.422 4.78668C110.655 11.4534 97.9718 29.4956 92.471 38.8081C90.7893 41.6482 87.0449 42.4405 84.3542 40.5421C84.3542 40.5421 98.6444 9.95118 124.407 0.795589C127.972 -0.474983 131.156 1.14687 133.72 4.65962Z" fill="white"/>
</g>
<g opacity="0.3">
<path opacity="0.3" d="M87.6182 41.7596C86.4223 41.7596 85.234 41.3934 84.2474 40.6908L84.1204 40.6011L84.1876 40.4591C84.3296 40.1527 98.8067 9.69633 124.345 0.615481C127.798 -0.610247 131.094 0.75001 133.867 4.54678L134.196 5.00269L133.658 4.83079C132.312 4.40477 130.907 4.44962 129.48 4.95785C110.982 11.5349 98.4479 29.0464 92.6257 38.8971C91.8036 40.2947 90.4209 41.2887 88.8364 41.6251C88.4403 41.7147 88.0292 41.7596 87.6182 41.7596ZM84.5912 40.4741C85.817 41.2887 87.3267 41.5727 88.7692 41.2663C90.2789 40.9449 91.5345 40.0331 92.3193 38.7102C98.1714 28.8147 110.758 11.221 129.368 4.60657C130.691 4.13571 131.991 4.04602 133.254 4.33751C130.653 1.0116 127.626 -0.154338 124.472 0.959281C99.9651 9.67391 85.6899 38.2169 84.5912 40.4741Z" fill="#390075"/>
</g>
</g>
<path d="M120.387 56.1562C118.272 51.896 112.024 47.1127 106.785 43.6523C102.054 40.5281 101.008 34.0408 104.446 29.534C110.499 21.5966 118.041 15.9314 123.175 12.6353C126.217 10.6772 130.268 12.4261 130.956 15.9762C132.017 21.477 132.705 29.9226 130.268 39.7135C127.63 50.3041 120.985 55.9992 120.985 55.9992" fill="#FF6C6C"/>
<path d="M120.225 56.2376C118.095 51.955 111.69 47.1119 106.682 43.8009C104.365 42.2688 102.841 39.9219 102.377 37.179C101.914 34.451 102.616 31.6184 104.298 29.4136C110.337 21.4987 117.841 15.8334 123.073 12.4701C124.545 11.5209 126.391 11.3714 128.005 12.0591C129.627 12.7541 130.793 14.2041 131.129 15.9306C132.176 21.3342 132.901 29.8545 130.434 39.75C127.811 50.2734 121.159 56.0732 121.092 56.1255L120.853 55.8489C120.92 55.7891 127.482 50.0716 130.076 39.6604C132.527 29.8396 131.802 21.3716 130.763 16.0053C130.449 14.3909 129.366 13.0456 127.856 12.4029C126.331 11.7526 124.657 11.8872 123.267 12.784C118.058 16.1324 110.591 21.7752 104.582 29.6453C102.96 31.7679 102.287 34.4959 102.728 37.1267C103.177 39.765 104.649 42.0296 106.876 43.502C111.914 46.8354 118.379 51.7233 120.546 56.0806L120.225 56.2376Z" fill="#390075"/>
<path d="M115.564 43.8089C115.108 45.64 114.533 47.3216 113.89 48.8538C111.618 46.9629 109.099 45.1766 106.782 43.6445C102.051 40.5129 101.005 34.033 104.435 29.5187C107.881 25.0044 111.805 21.2301 115.489 18.2031C115.855 18.7487 116.117 19.3765 116.252 20.0716C117.32 25.5799 118.008 34.018 115.564 43.8089Z" fill="#FF6C6C"/>
<path d="M113.961 49.1601L113.767 49.0032C111.779 47.3514 109.395 45.6025 106.674 43.8013C104.357 42.2691 102.833 39.9223 102.369 37.1794C101.906 34.4514 102.609 31.6187 104.29 29.4139C107.34 25.4228 111.069 21.6036 115.374 18.0685L115.531 17.9414L115.643 18.1133C116.032 18.6963 116.301 19.3465 116.435 20.0491C117.482 25.4602 118.207 33.9805 115.74 43.8611C115.314 45.5651 114.746 47.2767 114.059 48.9359L113.961 49.1601ZM115.456 18.4795C111.241 21.9624 107.586 25.7143 104.589 29.6307C102.967 31.7607 102.295 34.4887 102.743 37.1121C103.191 39.7504 104.664 42.015 106.891 43.4874C109.537 45.2363 111.861 46.9403 113.819 48.5472C114.462 46.9777 114.993 45.3633 115.389 43.7564C117.84 33.9357 117.115 25.4752 116.084 20.1014C115.964 19.5259 115.755 18.9728 115.456 18.4795Z" fill="#390075"/>
<g opacity="0.3">
<g opacity="0.3">
<path opacity="0.3" d="M18.1318 4.6606C19.4846 4.23459 20.9196 4.25701 22.4294 4.78766C41.1965 11.4544 53.8798 29.4965 59.3806 38.8091C61.0622 41.6492 64.8067 42.4414 67.4973 40.5431C67.4973 40.5431 53.2071 9.95216 27.4444 0.796566C23.8793 -0.474006 20.6954 1.14784 18.1318 4.6606Z" fill="white"/>
</g>
<g opacity="0.3">
<path opacity="0.3" d="M64.2293 41.7599C63.8257 41.7599 63.4146 41.7151 63.011 41.6329C61.4266 41.2891 60.0439 40.295 59.2217 38.9049C53.3995 29.0542 40.8657 11.5353 22.3677 4.96566C20.9402 4.45743 19.5351 4.42006 18.1897 4.8386L17.6516 5.0105L17.9805 4.5546C20.7533 0.757827 24.0493 -0.602436 27.5023 0.623293C53.0483 9.70415 67.5178 40.1605 67.6598 40.4669L67.7271 40.6089L67.6 40.6986C66.606 41.3862 65.4251 41.7599 64.2293 41.7599ZM20.0582 4.17342C20.8579 4.17342 21.6726 4.31542 22.4873 4.60691C41.0974 11.2214 53.6835 28.8076 59.5357 38.7106C60.3204 40.0335 61.5835 40.9453 63.0858 41.2667C64.5208 41.5731 66.038 41.2891 67.2637 40.4744C66.1651 38.2098 51.8898 9.67425 27.3827 0.959621C24.2287 -0.161472 21.2017 1.00447 18.6008 4.33785C19.0791 4.23321 19.5649 4.17342 20.0582 4.17342Z" fill="#390075"/>
</g>
</g>
<path d="M31.4689 56.1552C33.584 51.8951 39.8323 47.1117 45.0715 43.6513C49.8025 40.5272 50.8489 34.0398 47.4109 29.533C41.357 21.5956 33.8157 15.9304 28.6811 12.6344C25.6392 10.6762 21.5883 12.4251 20.9007 15.9752C19.8394 21.4761 19.1518 29.9216 21.5883 39.7125C24.2267 50.3031 30.871 55.9982 30.871 55.9982" fill="#FF6C6C"/>
<path d="M31.631 56.2382L31.3022 56.0738C33.4621 51.7165 39.9271 46.8285 44.972 43.4951C47.1992 42.0228 48.6716 39.7582 49.1201 37.1199C49.561 34.489 48.8884 31.7685 47.2665 29.6384C41.2575 21.7684 33.791 16.1255 28.5816 12.7772C27.1915 11.8803 25.5173 11.7458 23.9926 12.396C22.4829 13.0388 21.3992 14.3916 21.0853 15.9985C20.0464 21.3648 19.3214 29.8327 21.7729 39.6535C24.3738 50.0647 30.9359 55.7823 30.9957 55.8421L30.7566 56.1186C30.6893 56.0589 24.0375 50.2665 21.4141 39.7432C18.9477 29.8552 19.6727 21.3349 20.719 15.9237C21.0554 14.1898 22.2213 12.7473 23.8432 12.0522C25.4575 11.3646 27.3036 11.5141 28.776 12.4633C34.0077 15.8266 41.5116 21.4918 47.5505 29.4067C49.2322 31.6116 49.9347 34.4442 49.4713 37.1722C49.008 39.9151 47.4758 42.2619 45.1663 43.7941C40.1663 47.1051 33.7536 51.9482 31.631 56.2382Z" fill="#390075"/>
<path d="M36.2897 43.8079C36.7457 45.639 37.3212 47.3207 37.9639 48.8528C40.236 46.9619 42.7547 45.1756 45.0716 43.6435C49.8027 40.5119 50.849 34.032 47.4185 29.5177C43.973 25.0034 40.0491 21.2291 36.3645 18.2021C35.9983 18.7477 35.7367 19.3756 35.6021 20.0706C34.5334 25.5789 33.8458 34.017 36.2897 43.8079Z" fill="#FF6C6C"/>
<path d="M37.8887 49.1598L37.7916 48.9281C37.0965 47.2689 36.5359 45.5573 36.1099 43.8533C33.6435 33.9727 34.3685 25.4449 35.4148 20.0412C35.5494 19.3387 35.8184 18.6885 36.2071 18.1055L36.3192 17.9336L36.4761 18.0606C40.7811 21.5958 44.5106 25.415 47.56 29.4061C49.2417 31.6109 49.9442 34.4436 49.4808 37.1716C49.0174 39.9145 47.4853 42.2613 45.1758 43.7935C42.4553 45.5872 40.0711 47.3361 38.083 48.9879L37.8887 49.1598ZM36.4014 18.4792C36.095 18.9725 35.8857 19.5255 35.7736 20.1085C34.7347 25.4823 34.0172 33.9428 36.4687 43.7636C36.8723 45.3779 37.3954 46.9848 38.0382 48.5544C39.9964 46.94 42.3282 45.2359 44.9665 43.4945C47.1938 42.0221 48.6662 39.7575 49.1146 37.1192C49.563 34.4884 48.8829 31.7604 47.2685 29.6378C44.2715 25.714 40.6167 21.9621 36.4014 18.4792Z" fill="#390075"/>
<path d="M140.779 94.6384C135.869 92.1496 131.751 83.8535 130.645 79.7054C130.002 77.3063 128.447 72.5753 127.244 68.9953C150.353 49.5705 141.87 -4.82497 125.622 0.944919C107.273 7.46968 94.7471 24.8541 89.052 34.3311C81.5182 32.6121 76.0847 33.0157 76.0847 33.0157C76.0847 33.0157 70.5091 32.6046 62.8259 34.3983C57.1531 24.9438 44.6119 7.48463 26.2185 0.944919C9.91029 -4.85487 1.42735 49.9666 24.8582 69.2045C23.6698 72.7547 22.1601 77.3512 21.5323 79.698C20.4187 83.846 16.3005 92.1421 11.3901 94.6309C8.49024 96.0958 8.35571 98.5099 10.3438 100.326C11.6218 101.485 13.7818 102.404 16.6518 102.658C16.876 102.68 17.1152 102.695 17.3543 102.71C17.3543 102.71 17.3543 102.71 17.3394 102.718C17.1675 102.83 15.7175 103.764 11.9955 106.216C8.35571 108.622 11.2855 111.828 17.4141 115.042C23.5353 118.249 31.4278 125.723 33.0422 126.821C33.9914 127.471 39.0587 131.537 48.6328 134.796C55.4491 137.12 64.5524 139.041 76.0772 139.041C103.806 139.041 117.498 127.927 119.112 126.814C120.734 125.708 128.619 118.241 134.748 115.035C140.869 111.821 143.806 108.622 140.159 106.208C136.183 103.577 134.8 102.695 134.8 102.695C135.032 102.688 135.256 102.665 135.48 102.65C138.365 102.396 140.54 101.477 141.818 100.311C143.821 98.5174 143.679 96.1033 140.779 94.6384Z" fill="#FAAF5E"/>
<g opacity="0.4">
<g opacity="0.4">
<path opacity="0.4" d="M125.621 6.00522C110.135 11.5135 100.023 26.3344 93.8198 36.5139C92.026 39.4586 88.6627 41.0655 85.2546 40.5872C80.0901 39.8622 76.0915 39.8398 76.0915 39.8398C76.0915 39.8398 71.9883 39.8473 66.6893 40.6096C63.2662 41.1029 59.8731 39.5334 58.0718 36.5812C51.8759 26.3942 41.7487 11.521 26.2179 5.99775C17.5555 2.91848 11.113 16.9172 10.4628 33.614C9.73031 14.6376 16.6213 -2.94857 26.2179 0.459548C44.6113 6.99178 57.1525 24.4509 62.8253 33.9055C70.5085 32.1117 76.0841 32.5228 76.0841 32.5228C76.0841 32.5228 81.5176 32.1192 89.0439 33.8382C94.739 24.3613 107.265 6.97684 125.614 0.452076C135.211 -2.96352 142.102 14.6302 141.369 33.6065C140.734 16.9247 134.284 2.92595 125.621 6.00522Z" fill="white"/>
</g>
</g>
<path d="M16.9719 102.688C17.099 102.695 17.2335 102.702 17.3606 102.71C17.3606 102.71 17.3606 102.71 17.3456 102.717C17.3232 102.732 17.2784 102.762 17.2036 102.807C17.1214 102.77 17.0467 102.732 16.9719 102.688Z" fill="#982E20"/>
<path d="M17.2216 103.025L17.1244 102.98C17.0721 102.958 17.0273 102.928 16.9749 102.898L16.093 102.435L16.9899 102.502C17.1169 102.509 17.244 102.517 17.3785 102.524L17.7896 102.547L17.401 102.905C17.401 102.905 17.401 102.905 17.3935 102.905L17.2216 103.025Z" fill="#390075"/>
<path d="M134.763 115.051C128.635 118.257 120.75 125.731 119.128 126.83C117.506 127.936 103.814 139.057 76.0927 139.057C64.5679 139.057 55.4646 137.136 48.6483 134.812C39.0667 131.546 33.9994 127.48 33.0577 126.837C31.4358 125.731 23.5508 118.265 17.4296 115.058C11.301 111.844 8.3712 108.646 12.011 106.232C15.7256 103.773 17.183 102.846 17.3549 102.734C17.3624 102.726 17.3699 102.726 17.3699 102.726C17.1307 102.711 16.899 102.696 16.6673 102.674C17.5791 102.368 18.5956 102.076 19.7167 101.814C28.7975 99.6694 40.427 112.218 56.5035 105.948C68.8355 101.134 63.7009 72.1952 66.967 64.6689C66.9969 64.5941 67.0343 64.5194 67.0642 64.4447C70.5321 56.6643 81.6234 56.6643 85.0913 64.4447C85.1287 64.5194 85.1586 64.5941 85.196 64.6689C88.4621 72.1952 83.32 101.127 95.652 105.948C111.729 112.226 123.358 99.6694 132.439 101.814C133.56 102.076 134.576 102.375 135.496 102.681C135.279 102.704 135.047 102.719 134.816 102.726C134.816 102.726 136.198 103.608 140.174 106.239C143.814 108.638 140.884 111.837 134.763 115.051Z" fill="white"/>
<path d="M84.5855 101.41C84.5855 104.19 80.6094 107.919 75.7065 107.919C70.8035 107.919 66.8274 104.19 66.8274 101.41C66.8274 98.6293 70.8035 98.3976 75.7065 98.3976C80.6094 98.3902 84.5855 98.6219 84.5855 101.41Z" fill="#9F6F67"/>
<path d="M130.263 39.6975C127.624 50.2881 120.98 55.9758 120.98 55.9758L120.39 56.1477C119.209 53.771 116.75 51.2373 113.895 48.8531C111.623 46.9622 109.104 45.1759 106.787 43.6438C102.056 40.5122 101.01 34.0323 104.44 29.518C107.886 25.0037 111.81 21.2294 115.494 18.2024C118.297 15.9079 120.965 14.0394 123.17 12.6194C126.212 10.6687 130.263 12.4101 130.943 15.9602C132.019 21.4685 132.699 29.9141 130.263 39.6975Z" fill="#FBDA98"/>
<path d="M119.658 56.5139C119.053 55.4676 118.246 54.5184 117.394 53.6065C116.527 52.7022 115.608 51.8352 114.636 51.0205C113.657 50.2134 112.663 49.4137 111.631 48.6588C110.6 47.9039 109.546 47.1715 108.485 46.4465C107.947 46.0877 107.416 45.7365 106.878 45.3852L106.063 44.8695L105.652 44.6154C105.518 44.5257 105.391 44.4509 105.219 44.3314C103.933 43.4793 102.85 42.3059 102.117 40.9307C101.4 39.5555 100.981 38.0159 100.996 36.4613C101.011 34.9067 101.392 33.3447 102.14 31.9844L102.438 31.4836L102.588 31.237L102.73 31.0277L103.305 30.2056C103.687 29.66 104.068 29.1069 104.456 28.5688L105.697 26.9993L106.317 26.2145L106.975 25.4596L108.291 23.9499L109.681 22.5149C109.912 22.2757 110.144 22.0366 110.383 21.8049L111.108 21.1173C111.594 20.6688 112.065 20.1905 112.573 19.757C114.569 17.9932 116.676 16.3713 118.889 14.8989C121.108 13.434 123.388 12.1037 125.862 11.0723C126.094 10.9751 126.355 11.0872 126.452 11.3114C126.534 11.5132 126.46 11.7449 126.28 11.8645L126.258 11.8795C124.113 13.2846 122.043 14.8541 120.062 16.4909C119.061 17.2981 118.104 18.1576 117.155 19.0171L115.742 20.325L114.374 21.6778C112.573 23.494 110.847 25.3774 109.247 27.3655L108.642 28.1054L108.066 28.8678L106.915 30.3924L105.824 31.962L105.279 32.7467L105.144 32.9411L105.039 33.113L104.838 33.4568C103.829 35.3103 103.821 37.6497 104.785 39.5406C105.264 40.4823 105.996 41.2895 106.863 41.9098C106.953 41.9845 107.102 42.0817 107.244 42.1789L107.655 42.4554L108.47 43.0234C109.016 43.3971 109.554 43.7932 110.084 44.1744C112.222 45.7365 114.292 47.4256 116.22 49.2941C117.177 50.2358 118.104 51.2223 118.941 52.2911C119.785 53.3599 120.555 54.5109 121.108 55.8114C121.288 56.2224 121.093 56.7008 120.682 56.8801C120.301 57.0446 119.86 56.8951 119.658 56.5438V56.5139Z" fill="#9F6F67"/>
<path d="M21.5891 39.6975C24.2274 50.2881 30.8718 55.9758 30.8718 55.9758L31.4622 56.1477C32.6431 53.771 35.102 51.2373 37.9571 48.8531C40.2292 46.9622 42.7479 45.1759 45.0648 43.6438C49.7958 40.5122 50.8422 34.0323 47.4116 29.518C43.9661 25.0037 40.0423 21.2294 36.3576 18.2024C33.5549 15.9079 30.8867 14.0394 28.6819 12.6194C25.64 10.6687 21.5891 12.4101 20.909 15.9602C19.8327 21.4685 19.1451 29.9141 21.5891 39.6975Z" fill="#FBDA98"/>
<path d="M30.7316 55.7883C31.2921 54.4953 32.0619 53.3368 32.899 52.2681C33.7361 51.1993 34.6629 50.2127 35.6195 49.271C37.5478 47.4025 39.6106 45.7209 41.7556 44.1513C42.2938 43.7627 42.8319 43.3741 43.37 43.0004L44.1847 42.4323L44.5957 42.1558C44.7303 42.0661 44.8798 41.969 44.9694 41.8867C45.8364 41.2664 46.5689 40.4667 47.0472 39.5175C48.0113 37.6266 48.0039 35.2872 46.9949 33.4337L46.7931 33.0899L46.6885 32.918L46.5539 32.7237L46.0083 31.9389L44.9171 30.3694L43.7661 28.8447L43.1906 28.0824L42.5853 27.3424C40.9858 25.3544 39.2593 23.4709 37.4581 21.6548L36.0904 20.302L34.6778 18.994C33.7211 18.1345 32.772 17.275 31.7704 16.4678C29.7973 14.831 27.7196 13.2615 25.5745 11.8564L25.5521 11.8415C25.3428 11.7069 25.283 11.4229 25.4251 11.2211C25.5446 11.0343 25.7763 10.967 25.9781 11.0492C28.452 12.0806 30.7316 13.4185 32.9513 14.8759C35.1561 16.3482 37.2713 17.9701 39.2668 19.7339C39.7751 20.1674 40.2384 20.6383 40.7317 21.0942L41.4567 21.7818C41.6959 22.0135 41.9201 22.2601 42.1592 22.4918L43.5494 23.9268L44.8648 25.4366L45.5225 26.1914L46.1429 26.9762L47.3835 28.5457C47.7797 29.0839 48.1534 29.6369 48.5345 30.1825L49.11 31.0047L49.252 31.2139L49.4015 31.4606L49.7005 31.9613C50.4479 33.3216 50.829 34.8836 50.844 36.4382C50.8589 37.9928 50.4329 39.5399 49.7229 40.9077C48.9904 42.2754 47.9067 43.4488 46.6212 44.3083C46.4493 44.4279 46.3222 44.5026 46.1877 44.5923L45.7766 44.8464L44.962 45.3621C44.4164 45.7059 43.8857 46.0647 43.3551 46.4234C42.2938 47.1484 41.2474 47.8808 40.2085 48.6357C39.1771 49.3906 38.1831 50.1903 37.204 50.9975C36.2324 51.8122 35.3131 52.6791 34.4461 53.5835C33.5941 54.4953 32.7869 55.4445 32.1815 56.4909L32.174 56.4983C31.9498 56.887 31.4491 57.0215 31.0604 56.7898C30.7091 56.6104 30.5671 56.162 30.7316 55.7883Z" fill="#9F6F67"/>
<g opacity="0.3">
<path opacity="0.3" d="M134.762 115.05C128.634 118.256 120.741 125.73 119.127 126.829C117.505 127.935 103.813 139.056 76.0919 139.056H76.0844C64.5521 139.056 55.4563 137.136 48.6401 134.804C39.0585 131.538 33.9911 127.479 33.0419 126.829C31.4276 125.723 23.5351 118.256 17.4139 115.05C11.2853 111.836 8.35546 108.63 12.0027 106.223C12.5782 105.842 13.0939 105.506 13.5648 105.199C26.7937 115.513 49.8509 130.073 76.0844 130.073C102.318 130.073 125.383 115.506 138.612 105.192C139.082 105.506 139.598 105.842 140.174 106.223C143.813 108.63 140.891 111.836 134.762 115.05Z" fill="#390075"/>
</g>
<path d="M79.8653 100.477C79.8653 101.134 78.0043 102.016 75.7023 102.016C73.4003 102.016 71.5393 101.134 71.5393 100.477C71.5393 99.8191 73.4003 99.7593 75.7023 99.7593C78.0043 99.7668 79.8653 99.8191 79.8653 100.477Z" fill="white"/>
<path d="M75.7013 102.203C73.5114 102.203 71.3589 101.351 71.3589 100.476C71.3589 99.6469 73.0779 99.5796 75.7013 99.5796C78.3246 99.5796 80.0436 99.6394 80.0436 100.476C80.0436 101.351 77.8911 102.203 75.7013 102.203ZM75.7013 99.9458C74.3111 99.9458 71.7176 99.9458 71.7176 100.476C71.7176 100.94 73.3993 101.837 75.7013 101.837C78.0032 101.837 79.6849 100.94 79.6849 100.476C79.6849 99.9458 77.0914 99.9458 75.7013 99.9458Z" fill="#9F6F67"/>
<path d="M82.4223 117.547C82.4223 117.547 81.9888 105.955 89.8289 105.91C97.6691 105.866 91.8693 113.332 91.8693 113.332C91.8693 113.332 87.0785 116.516 82.4223 117.547Z" fill="#F4408A"/>
<path d="M82.4196 118.668C82.1729 118.668 81.9337 118.585 81.7319 118.436C81.4704 118.234 81.3059 117.92 81.2985 117.591C81.291 117.307 81.0817 110.603 84.5197 107.008C85.9174 105.551 87.7036 104.804 89.8188 104.789C89.8412 104.789 89.8711 104.789 89.8935 104.789C92.3749 104.789 93.9967 105.506 94.6993 106.934C96.0446 109.654 93.0924 113.585 92.756 114.026C92.6813 114.124 92.5916 114.206 92.487 114.273C92.2852 114.408 87.4645 117.577 82.6587 118.645C82.5765 118.66 82.5018 118.668 82.4196 118.668ZM89.8935 107.031C89.8711 107.031 89.8486 107.031 89.8262 107.031C88.3165 107.038 87.1132 107.539 86.1341 108.555C84.1909 110.581 83.6901 114.109 83.5705 116.074C87.0459 114.998 90.3419 112.973 91.0819 112.502C91.904 111.388 93.2269 109.034 92.6738 107.928C92.3973 107.345 91.4107 107.031 89.8935 107.031Z" fill="#390075"/>
<path d="M67.4807 116.036C69.5435 116.746 71.6288 117.127 73.699 117.314C74.7379 117.388 75.7693 117.433 76.8007 117.388C77.8321 117.359 78.8561 117.269 79.865 117.082C80.874 116.903 81.883 116.693 82.8621 116.379C83.3554 116.23 83.8412 116.066 84.327 115.901C84.8053 115.714 85.2911 115.542 85.762 115.326C87.6604 114.526 89.4691 113.517 91.2329 112.403L92.511 114.249C90.7322 115.587 88.7665 116.701 86.6962 117.568C84.6185 118.427 82.4062 118.995 80.164 119.235C77.9218 119.451 75.6423 119.362 73.4599 118.846C72.3687 118.592 71.3074 118.233 70.2984 117.77C69.2819 117.306 68.3103 116.753 67.4807 116.036Z" fill="#390075"/>
<path d="M58.3889 90.2238C59.064 84.5135 56.3479 79.4986 52.3224 79.0227C48.297 78.5469 44.4864 82.7902 43.8114 88.5005C43.1363 94.2108 45.8524 99.2256 49.8779 99.7015C53.9034 100.177 57.7139 95.934 58.3889 90.2238Z" fill="#9F6F67"/>
<path d="M55.3547 88.2121C55.5815 86.2936 54.7784 84.6217 53.5609 84.4778C52.3434 84.3339 51.1726 85.7724 50.9458 87.6909C50.719 89.6093 51.5221 91.2812 52.7396 91.4252C53.9571 91.5691 55.1279 90.1305 55.3547 88.2121Z" fill="white"/>
<path d="M108.407 85.8654C107.271 86.2839 106.128 86.7697 105.074 87.3004C104.012 87.8385 103.011 88.4514 102.092 89.124C101.621 89.4529 101.202 89.8266 100.761 90.1853L100.156 90.7683C100.059 90.8655 99.9466 90.9551 99.8569 91.0598L99.5804 91.3737C98.8031 92.1809 98.2052 93.1301 97.6222 94.0867L95.3949 91.8819C95.4996 91.8296 95.5669 91.7997 95.6341 91.7698C95.7089 91.7399 95.7761 91.71 95.8434 91.6801C95.9779 91.6278 96.1199 91.568 96.2544 91.5232C96.5235 91.426 96.7926 91.3438 97.0616 91.2616C97.5998 91.1046 98.1454 91 98.691 90.9103C99.7822 90.7459 100.896 90.7234 101.994 90.8505C103.086 90.985 104.162 91.2317 105.148 91.6652C106.157 92.0538 107.062 92.6442 107.884 93.287C108.131 93.4813 108.175 93.8326 107.981 94.0792C107.839 94.2586 107.607 94.3334 107.398 94.281L107.331 94.2661C106.853 94.1465 106.412 93.9821 105.948 93.8849C105.485 93.7878 105.044 93.6757 104.58 93.6233C103.676 93.4813 102.772 93.4514 101.882 93.5038C100.993 93.5411 100.118 93.6831 99.2665 93.9074C99.0572 93.9597 98.8479 94.0269 98.6386 94.0867L98.0183 94.296C97.8165 94.3707 97.6147 94.4455 97.4279 94.5352C97.3307 94.5725 97.241 94.6174 97.1513 94.6622C97.1065 94.6846 97.0616 94.7071 97.0243 94.722L96.9346 94.7669L96.8972 94.7818C96.0975 95.2003 95.1109 94.8864 94.6924 94.0792C94.4383 93.586 94.4607 93.0105 94.6999 92.5546C95.3651 91.3139 96.1124 90.0882 97.1139 89.0717C97.5699 88.5261 98.1379 88.0926 98.6685 87.6292C99.244 87.2256 99.8046 86.7921 100.425 86.4708C101.643 85.7832 102.936 85.2824 104.267 84.976C105.604 84.6845 106.935 84.55 108.325 84.7069C108.639 84.7443 108.863 85.0208 108.826 85.3347C108.803 85.5515 108.654 85.7308 108.459 85.8056L108.407 85.8654Z" fill="#9F6F67"/>
<path d="M71.0849 173.093L70.2478 178.033L64.59 211.509C63.9697 215.186 60.7858 217.876 57.0638 217.876H41.6973C37.9454 217.876 34.7465 215.148 34.1561 211.441L28.4609 175.701V175.693C28.4609 175.686 28.4609 175.686 28.4609 175.686C28.4609 175.686 39.769 168.997 50.7632 177.069C61.7649 185.148 61.0997 173.093 71.0849 173.093Z" fill="#DBA877"/>
<g opacity="0.3">
<path opacity="0.3" d="M71.0849 173.093L70.2478 178.033L64.59 211.509C63.9697 215.186 60.7858 217.876 57.0638 217.876H41.6973C37.9454 217.876 34.7465 215.148 34.1561 211.441L28.4609 175.701V175.693C28.4609 175.686 28.4609 175.686 28.4609 175.686C28.4609 175.686 39.769 168.997 50.7632 177.069C61.7649 185.148 61.0997 173.093 71.0849 173.093Z" fill="#390075"/>
</g>
<path d="M46.418 116.276V211.315C46.418 212.951 47.6512 214.379 49.288 214.483C51.0742 214.596 52.5616 213.183 52.5616 211.419V116.276C52.5616 115.678 52.0757 115.185 51.4704 115.185H47.5017C46.9038 115.192 46.418 115.678 46.418 116.276Z" fill="#EC1C24"/>
<g opacity="0.6">
<g opacity="0.6">
<path opacity="0.6" d="M47.5391 211.688V116.649C47.5391 116.052 48.0249 115.558 48.6303 115.558H52.2925C52.0907 115.334 51.8067 115.185 51.4778 115.185H47.5092C46.9112 115.185 46.418 115.67 46.418 116.276V211.315C46.418 212.899 47.569 214.282 49.1235 214.469C48.1669 213.915 47.5391 212.854 47.5391 211.688Z" fill="white"/>
</g>
</g>
<path d="M51.4728 115.192C52.0707 115.192 52.5565 115.678 52.5565 116.283V211.427C52.5565 213.123 51.1813 214.498 49.4847 214.498C49.4175 214.498 49.3502 214.498 49.283 214.491C47.6536 214.386 46.413 212.959 46.413 211.322V116.276C46.413 115.678 46.8988 115.184 47.5041 115.184H51.4728V115.192ZM51.4728 112.681H47.5041C45.5236 112.681 43.9092 114.295 43.9092 116.276V211.314C43.9092 214.304 46.1962 216.8 49.1185 216.987C49.2381 216.995 49.3652 217.002 49.4847 217.002C52.564 217.002 55.0603 214.498 55.0603 211.427V116.283C55.0678 114.295 53.4534 112.681 51.4728 112.681Z" fill="#390075"/>
<path d="M70.2478 178.032L64.59 211.508C63.9697 215.185 60.7858 217.876 57.0638 217.876H41.6973C37.9454 217.876 34.7465 215.148 34.1561 211.441L28.4609 175.7C28.4609 175.7 38.5956 180.319 45.9724 177.823C53.3417 175.319 61.2342 170.08 70.2478 178.032Z" fill="#DBA877"/>
<path d="M54.6135 188.905C56.4833 188.905 57.9992 187.389 57.9992 185.519C57.9992 183.65 56.4833 182.134 54.6135 182.134C52.7436 182.134 51.2278 183.65 51.2278 185.519C51.2278 187.389 52.7436 188.905 54.6135 188.905Z" fill="#594E63"/>
<g opacity="0.55">
<path opacity="0.55" d="M55.724 182.979C55.1485 182.979 54.6029 183.121 54.1245 183.382C54.2964 183.412 54.4534 183.487 54.5655 183.614C54.8944 183.988 54.7598 184.645 54.2591 185.086C53.7583 185.527 53.0931 185.587 52.7568 185.213C52.697 185.146 52.6522 185.071 52.6223 184.989C52.4354 185.408 52.3308 185.878 52.3308 186.372C52.3308 187.284 52.6895 188.106 53.2725 188.719C52.2037 188.151 51.4788 187.022 51.4788 185.729C51.4788 183.86 52.996 182.343 54.8645 182.343C55.8286 182.343 56.6956 182.747 57.3084 183.39C56.8451 183.121 56.2995 182.979 55.724 182.979Z" fill="white"/>
</g>
<path d="M54.6107 189.578C52.376 189.578 50.5598 187.762 50.5598 185.527C50.5598 183.293 52.376 181.477 54.6107 181.477C56.8454 181.477 58.6616 183.293 58.6616 185.527C58.6616 187.762 56.8454 189.578 54.6107 189.578ZM54.6107 182.799C53.1084 182.799 51.8902 184.025 51.8902 185.52C51.8902 187.022 53.1084 188.24 54.6107 188.24C56.113 188.24 57.3312 187.015 57.3312 185.52C57.3312 184.025 56.113 182.799 54.6107 182.799Z" fill="#390075"/>
<path d="M46.3891 213.57C48.259 213.57 49.7748 212.054 49.7748 210.184C49.7748 208.314 48.259 206.798 46.3891 206.798C44.5192 206.798 43.0034 208.314 43.0034 210.184C43.0034 212.054 44.5192 213.57 46.3891 213.57Z" fill="#594E63"/>
<g opacity="0.55">
<path opacity="0.55" d="M47.5033 207.643C46.9278 207.643 46.3822 207.785 45.9038 208.047C46.0757 208.077 46.2327 208.151 46.3448 208.278C46.6736 208.652 46.5391 209.31 46.0384 209.751C45.5376 210.192 44.8724 210.252 44.5361 209.878C44.4763 209.811 44.4315 209.736 44.4016 209.654C44.2147 210.072 44.1101 210.543 44.1101 211.036C44.1101 211.948 44.4688 212.77 45.0518 213.383C43.983 212.815 43.2581 211.687 43.2581 210.394C43.2581 208.525 44.7753 207.008 46.6438 207.008C47.6079 207.008 48.4749 207.411 49.0877 208.054C48.6244 207.785 48.0788 207.643 47.5033 207.643Z" fill="white"/>
</g>
<path d="M46.3902 214.243C44.1555 214.243 42.3394 212.427 42.3394 210.192C42.3394 207.957 44.1555 206.141 46.3902 206.141C48.6249 206.141 50.4411 207.957 50.4411 210.192C50.4411 212.427 48.6249 214.243 46.3902 214.243ZM46.3902 207.464C44.888 207.464 43.6697 208.69 43.6697 210.185C43.6697 211.687 44.888 212.905 46.3902 212.905C47.8925 212.905 49.1108 211.679 49.1108 210.185C49.1108 208.69 47.8925 207.464 46.3902 207.464Z" fill="#390075"/>
<path d="M58.4016 212.45C59.8876 212.45 61.0922 211.245 61.0922 209.759C61.0922 208.273 59.8876 207.068 58.4016 207.068C56.9156 207.068 55.7109 208.273 55.7109 209.759C55.7109 211.245 56.9156 212.45 58.4016 212.45Z" fill="#594E63"/>
<g opacity="0.55">
<path opacity="0.55" d="M59.2893 207.741C58.8334 207.741 58.3999 207.853 58.0187 208.062C58.1607 208.085 58.2803 208.144 58.37 208.249C58.6316 208.541 58.527 209.071 58.1308 209.422C57.7347 209.774 57.2041 209.819 56.9425 209.527C56.8976 209.475 56.8603 209.415 56.8378 209.348C56.6884 209.684 56.6062 210.058 56.6062 210.446C56.6062 211.171 56.8902 211.829 57.3535 212.315C56.509 211.859 55.926 210.97 55.926 209.938C55.926 208.451 57.1293 207.248 58.6166 207.248C59.379 207.248 60.0666 207.569 60.5599 208.077C60.1787 207.853 59.7452 207.741 59.2893 207.741Z" fill="white"/>
</g>
<path d="M58.4005 212.987C56.6217 212.987 55.1792 211.545 55.1792 209.766C55.1792 207.987 56.6217 206.545 58.4005 206.545C60.1793 206.545 61.6217 207.987 61.6217 209.766C61.6217 211.538 60.1718 212.987 58.4005 212.987ZM58.4005 207.599C57.2046 207.599 56.233 208.57 56.233 209.766C56.233 210.962 57.2046 211.934 58.4005 211.934C59.5963 211.934 60.5679 210.962 60.5679 209.766C60.5604 208.57 59.5888 207.599 58.4005 207.599Z" fill="#390075"/>
<path d="M56.4789 203.106C58.5551 203.106 60.2383 201.423 60.2383 199.347C60.2383 197.271 58.5551 195.587 56.4789 195.587C54.4026 195.587 52.7195 197.271 52.7195 199.347C52.7195 201.423 54.4026 203.106 56.4789 203.106Z" fill="#594E63"/>
<g opacity="0.55">
<path opacity="0.55" d="M57.7203 196.522C57.0775 196.522 56.4722 196.686 55.949 196.963C56.1433 196.993 56.3152 197.083 56.4348 197.225C56.801 197.636 56.6515 198.368 56.0985 198.861C55.5454 199.355 54.798 199.414 54.4318 199.003C54.3645 198.929 54.3122 198.839 54.2823 198.749C54.073 199.213 53.9534 199.736 53.9534 200.281C53.9534 201.29 54.3496 202.21 54.9998 202.89C53.8189 202.255 53.0117 201.006 53.0117 199.571C53.0117 197.494 54.6934 195.812 56.7711 195.812C57.8399 195.812 58.804 196.253 59.4842 196.97C58.961 196.686 58.3556 196.522 57.7203 196.522Z" fill="white"/>
</g>
<path d="M56.4761 203.853C53.9948 203.853 51.9768 201.835 51.9768 199.354C51.9768 196.872 53.9948 194.854 56.4761 194.854C58.9575 194.854 60.9754 196.872 60.9754 199.354C60.9754 201.828 58.9575 203.853 56.4761 203.853ZM56.4761 196.327C54.8094 196.327 53.4492 197.687 53.4492 199.354C53.4492 201.02 54.8094 202.381 56.4761 202.381C58.1428 202.381 59.5031 201.02 59.5031 199.354C59.4956 197.68 58.1428 196.327 56.4761 196.327Z" fill="#390075"/>
<path d="M42.0106 198.473C44.3551 198.473 46.2558 196.572 46.2558 194.228C46.2558 191.883 44.3551 189.982 42.0106 189.982C39.666 189.982 37.7654 191.883 37.7654 194.228C37.7654 196.572 39.666 198.473 42.0106 198.473Z" fill="#594E63"/>
<g opacity="0.55">
<path opacity="0.55" d="M43.7797 191.036C43.0548 191.036 42.3746 191.215 41.7767 191.536C41.9935 191.574 42.1878 191.671 42.3298 191.828C42.7409 192.291 42.5764 193.121 41.9486 193.674C41.3208 194.227 40.4837 194.302 40.0727 193.838C39.9979 193.756 39.9381 193.659 39.9082 193.554C39.6691 194.078 39.542 194.668 39.542 195.281C39.542 196.424 39.9905 197.456 40.7229 198.218C39.3851 197.501 38.4807 196.096 38.4807 194.474C38.4807 192.127 40.3791 190.229 42.7259 190.229C43.9292 190.229 45.0129 190.729 45.7902 191.536C45.1848 191.215 44.5047 191.036 43.7797 191.036Z" fill="white"/>
</g>
<path d="M42.3837 199.302C39.5809 199.302 37.3088 197.023 37.3088 194.228C37.3088 191.425 39.5884 189.153 42.3837 189.153C45.1789 189.153 47.4585 191.432 47.4585 194.228C47.4659 197.03 45.1864 199.302 42.3837 199.302ZM42.3837 190.82C40.5002 190.82 38.9681 192.352 38.9681 194.235C38.9681 196.119 40.5002 197.643 42.3837 197.643C44.2671 197.643 45.7993 196.111 45.7993 194.235C45.7993 192.344 44.2671 190.82 42.3837 190.82Z" fill="#390075"/>
<mask id="mask0_4143_781" style="mask-type:alpha" maskUnits="userSpaceOnUse" x="31" y="161" width="14" height="40">
<path d="M44.7707 161.285L32.4461 200.747L31.0037 191.651L40.4806 161.285H44.7707Z" fill="url(#paint0_linear_4143_781)"/>
</mask>
<g mask="url(#mask0_4143_781)">
<path opacity="0.7" d="M44.7707 161.285L32.4461 200.747L31.0037 191.651L40.4806 161.285H44.7707Z" fill="url(#paint1_linear_4143_781)"/>
</g>
<mask id="mask1_4143_781" style="mask-type:alpha" maskUnits="userSpaceOnUse" x="34" y="161" width="21" height="56">
<path d="M54.732 161.284L37.4597 216.598C36.0471 215.657 34.9634 214.259 34.4253 212.585L50.442 161.284H54.732Z" fill="url(#paint2_linear_4143_781)"/>
</mask>
<g mask="url(#mask1_4143_781)">
<path opacity="0.7" d="M54.732 161.285L37.4597 216.599C36.0471 215.658 34.9634 214.26 34.4253 212.586L50.442 161.285H54.732Z" fill="url(#paint3_linear_4143_781)"/>
<g opacity="0.3">
<path opacity="0.3" d="M73.0773 161.283L71.0818 173.092L70.2447 178.032L64.5869 211.508C63.9666 215.185 60.7827 217.876 57.0606 217.876H41.6942C40.1396 217.876 38.6822 217.405 37.4639 216.598C36.7614 216.135 36.141 215.552 35.6328 214.879C46.0665 213.892 64.6243 205.746 68.4285 161.283H73.0773Z" fill="#390075"/>
</g>
<path d="M57.0529 219.132H41.6865C37.2918 219.132 33.5997 215.978 32.9046 211.636L24.9149 161.478C24.8551 161.12 24.9598 160.746 25.1989 160.469C25.4381 160.193 25.7894 160.028 26.1556 160.028H73.0696C73.4358 160.028 73.7871 160.193 74.0263 160.469C74.2654 160.753 74.3701 161.127 74.3028 161.486L65.8124 211.711C65.0949 216.016 61.4102 219.132 57.0529 219.132ZM27.628 162.54L35.3859 211.247C35.8792 214.364 38.5325 216.629 41.694 216.629H57.0604C60.1845 216.629 62.8378 214.394 63.3535 211.307L71.5972 162.54H27.628Z" fill="#390075"/>
<g opacity="0.3">
<path opacity="0.3" d="M74.2759 154.662H66.7795C66.7795 154.67 66.7795 154.685 66.7795 154.692V155.522C66.7795 157.121 65.4791 158.422 63.8796 158.422H21.8984C21.9134 160.006 23.2064 161.284 24.7983 161.284H74.2834C75.8828 161.284 77.1833 159.984 77.1833 158.384V157.555C77.1758 155.955 75.8753 154.662 74.2759 154.662Z" fill="#390075"/>
</g>
<path d="M74.3894 162.539H24.6801C22.4529 162.539 20.6367 160.73 20.6367 158.503V157.449C20.6367 155.222 22.4454 153.413 24.6801 153.413H74.3894C76.6166 153.413 78.4253 155.222 78.4253 157.449V158.503C78.4328 160.723 76.6166 162.539 74.3894 162.539ZM24.6801 155.917C23.8356 155.917 23.148 156.604 23.148 157.449V158.503C23.148 159.347 23.8356 160.035 24.6801 160.035H74.3894C75.234 160.035 75.9216 159.347 75.9216 158.503V157.449C75.9216 156.604 75.234 155.917 74.3894 155.917H24.6801Z" fill="#390075"/>
</g>
<path d="M115.19 155.081C108.418 176.456 84.5541 185.283 74.7483 188.489C71.5793 189.528 68.1413 189.453 65.0396 188.228C57.7301 185.35 54.9199 181.023 54.2697 176.748C54.1127 175.746 54.0753 174.752 54.1277 173.781C54.449 167.869 58.485 162.839 64.0904 160.94C81.004 155.193 87.5811 144.221 88.4182 142.704C88.4854 142.592 88.5153 142.532 88.5153 142.532C88.9712 141.381 89.5691 140.2 90.2792 139.012C90.2792 139.012 105.444 137.293 118.949 127.457C119.876 139.647 115.19 155.081 115.19 155.081Z" fill="#F99B28"/>
<path d="M82.6935 185.582C79.6067 186.86 76.8563 187.802 74.7561 188.489C71.5872 189.528 68.1492 189.453 65.0475 188.228C56.0264 184.677 53.859 178.93 54.1355 173.78C54.4569 167.869 58.4928 162.839 64.0983 160.94C66.1985 160.23 68.1342 159.43 69.9205 158.586C75.384 163.511 82.1554 172.256 82.6935 185.582Z" fill="white"/>
<g opacity="0.3">
<path opacity="0.3" d="M115.19 155.08C108.418 176.456 84.554 185.283 74.7482 188.489C71.5792 189.528 68.1412 189.453 65.0395 188.227C57.73 185.35 54.9198 181.023 54.2695 176.747C57.6328 179.453 64.0305 182.428 75.2863 181C75.2863 181 79.4119 166.777 92.7903 166.628C100.384 166.538 106.146 156.56 109.711 147.95C111.625 143.339 107.342 138.556 102.544 139.916C98.6947 141.007 93.9488 142.053 88.4255 142.696C88.4928 142.584 88.5227 142.524 88.5227 142.524C88.9786 141.373 89.5765 140.192 90.2865 139.004C90.2865 139.004 105.451 137.285 118.957 127.449C119.876 139.647 115.19 155.08 115.19 155.08Z" fill="#390075"/>
</g>
<path d="M70.2363 190.522C68.3006 190.522 66.3723 190.163 64.5711 189.453C54.3916 185.44 52.5679 178.683 52.837 173.713C53.1808 167.323 57.4409 161.822 63.6817 159.699C80.6177 153.952 86.9033 142.786 87.3368 141.979C87.8076 140.805 88.4205 139.579 89.1753 138.331C89.3846 137.98 89.7434 137.756 90.147 137.703C90.2964 137.688 105.14 135.895 118.197 126.388C118.578 126.111 119.086 126.059 119.512 126.261C119.946 126.463 120.23 126.874 120.267 127.352C121.194 139.647 116.635 154.819 116.44 155.462C111.567 170.835 97.6807 182.368 75.1542 189.737C73.5548 190.26 71.8956 190.522 70.2363 190.522ZM91.0961 140.222C90.5431 141.186 90.0946 142.121 89.7359 143.01C89.7209 143.047 89.706 143.085 89.6836 143.122C89.422 143.638 83.0019 155.902 64.5113 162.181C59.2795 163.959 55.7219 168.541 55.4304 173.855C55.1091 179.827 58.5022 184.259 65.5128 187.017C68.3006 188.115 71.4322 188.197 74.3321 187.248C96.014 180.155 109.333 169.199 113.929 154.684C113.966 154.557 117.958 141.254 117.748 129.878C106.134 137.644 94.0484 139.796 91.0961 140.222Z" fill="#390075"/>
<path d="M117.706 204.864C115.972 205.185 114.851 205.252 114.851 205.252C114.717 208.668 113.484 210.947 111.817 212.472C110.643 213.541 109.261 214.236 107.878 214.684C104.022 215.932 99.8212 215.267 96.3607 213.167C93.3263 211.328 90.7403 208.817 88.6327 205.917C85.3591 201.433 83.229 196.037 82.3396 190.827C80.8747 182.24 82.7806 174.161 88.5131 171.462C100.912 165.633 107.392 180.491 107.587 180.939C107.534 180.543 105.912 168.652 115.883 163.443C126.017 158.144 130.509 168.854 130.509 168.854C146.055 196.874 125.584 203.414 117.706 204.864Z" fill="#F99B28"/>
<path d="M115.848 199.034C115.698 203.174 114.846 205.252 114.846 205.252C114.323 209.438 112.38 211.994 110.227 213.548C109.988 213.72 109.741 213.885 109.495 214.034C106.311 215.97 102.35 216.157 98.8592 214.737C94.5617 212.988 91.0564 209.789 88.3808 205.888C85.1296 201.134 83.1116 195.342 82.424 189.826C81.4001 181.597 83.3284 174.011 88.5004 171.47C100.922 165.379 107.634 180.379 107.634 180.379C107.073 174.699 109.009 171.702 109.009 171.702C114.996 184.4 116.049 193.533 115.848 199.034Z" fill="white"/>
<path d="M130.51 168.862C129.457 167.599 128.403 166.448 127.244 165.469C126.093 164.49 124.778 163.803 123.433 163.504C122.76 163.354 122.072 163.324 121.4 163.354C121.063 163.362 120.727 163.421 120.391 163.459C120.054 163.533 119.718 163.586 119.389 163.698C118.717 163.862 118.066 164.154 117.409 164.43C116.766 164.752 116.116 165.088 115.518 165.484C114.307 166.269 113.238 167.226 112.341 168.339C111.885 168.885 111.489 169.483 111.123 170.103C110.749 170.716 110.443 171.381 110.166 172.046C109.621 173.399 109.232 174.834 109.008 176.321C108.888 177.061 108.814 177.809 108.769 178.564C108.746 178.937 108.739 179.318 108.731 179.692C108.724 180.058 108.731 180.462 108.746 180.776C108.821 181.419 108.358 182.002 107.707 182.076C107.192 182.136 106.721 181.845 106.512 181.404C106.332 181.015 106.093 180.567 105.861 180.148C105.622 179.73 105.376 179.311 105.106 178.907C104.583 178.093 104.008 177.315 103.395 176.583C102.169 175.111 100.757 173.825 99.1722 172.921C97.6026 171.994 95.8463 171.523 94.0824 171.538C93.8582 171.538 93.6414 171.568 93.4172 171.575L93.0884 171.598L92.7595 171.65C92.5428 171.688 92.3186 171.717 92.1018 171.762L91.4441 171.927C91.2274 171.972 91.0106 172.054 90.7939 172.129C90.5771 172.203 90.3604 172.271 90.1436 172.353L89.5084 172.629L89.187 172.764C89.0823 172.809 89.0001 172.868 88.903 172.921L88.3424 173.235C88.163 173.347 87.9986 173.489 87.8192 173.608C87.4605 173.84 87.169 174.169 86.8476 174.453C86.6907 174.595 86.5636 174.782 86.4216 174.946C86.2871 175.118 86.1301 175.268 86.0105 175.462C85.7714 175.836 85.5023 176.187 85.308 176.598C84.4485 178.175 83.9253 179.991 83.6338 181.86C83.0957 185.619 83.4619 189.573 84.4335 193.34C85.3977 197.114 86.9522 200.754 89.0823 203.997C90.1586 205.612 91.3768 207.122 92.7371 208.482C94.0899 209.85 95.5996 211.06 97.214 212.054C98.791 213.011 100.57 213.646 102.393 213.878C104.217 214.117 106.078 213.938 107.812 213.34C109.546 212.735 111.056 211.763 112.222 210.403C112.805 209.723 113.313 208.938 113.731 208.063C114.15 207.189 114.479 206.24 114.83 205.238C115.069 206.262 115.129 207.338 114.995 208.422C114.86 209.506 114.494 210.59 113.926 211.576C113.358 212.57 112.565 213.437 111.654 214.14C110.734 214.835 109.71 215.343 108.664 215.724C106.571 216.494 104.284 216.756 102.08 216.509C99.8672 216.27 97.7222 215.545 95.8014 214.439C93.9329 213.34 92.2363 212.017 90.6967 210.53C89.1645 209.035 87.8118 207.383 86.6159 205.627C84.2542 202.099 82.5277 198.183 81.4589 194.087C80.4125 189.991 79.9865 185.694 80.5994 181.396C80.9208 179.251 81.5561 177.106 82.6547 175.126C82.9088 174.617 83.2526 174.154 83.574 173.683C83.7235 173.444 83.9328 173.235 84.1196 173.01C84.3139 172.794 84.4859 172.562 84.7026 172.36C85.1361 171.964 85.5397 171.538 86.033 171.217C86.2721 171.045 86.5038 170.865 86.7579 170.716L87.5352 170.29C87.6623 170.223 87.7968 170.14 87.9239 170.088L88.305 169.924L89.0749 169.602C89.3364 169.505 89.6055 169.423 89.8671 169.333C90.1362 169.251 90.3977 169.154 90.6743 169.102L91.4964 168.907C91.773 168.847 92.057 168.818 92.341 168.78L92.767 168.72L93.193 168.698C93.477 168.691 93.761 168.661 94.0525 168.668C96.347 168.683 98.649 169.363 100.547 170.552C102.461 171.725 104.045 173.272 105.376 174.954C106.041 175.798 106.631 176.688 107.177 177.599C107.453 178.055 107.707 178.526 107.954 178.997C108.201 179.483 108.425 179.931 108.649 180.477L106.414 181.105V181.097C106.325 180.619 106.272 180.223 106.22 179.789C106.175 179.363 106.153 178.945 106.13 178.519C106.093 177.667 106.123 176.822 106.19 175.97C106.34 174.274 106.676 172.569 107.281 170.925C108.44 167.637 110.787 164.655 113.799 162.809C115.279 161.867 116.9 161.134 118.694 160.776C120.465 160.394 122.424 160.529 124.128 161.202C125.847 161.867 127.252 163.04 128.343 164.341C128.889 164.998 129.345 165.716 129.711 166.463C130.099 167.248 130.383 168.04 130.51 168.862Z" fill="#390075"/>
<path d="M103.375 201.365C105.85 198.561 105.585 194.282 102.781 191.807C99.978 189.332 95.6988 189.597 93.2234 192.401C90.7481 195.204 91.014 199.483 93.8173 201.959C96.6206 204.434 100.9 204.168 103.375 201.365Z" fill="#FF92B1"/>
<path d="M104.177 187.471C105.237 186.27 105.123 184.438 103.923 183.378C102.722 182.318 100.89 182.431 99.8296 183.632C98.7695 184.832 98.8834 186.665 100.084 187.725C101.284 188.785 103.117 188.671 104.177 187.471Z" fill="#FF92B1"/>
<path d="M96.5209 185.221C97.5809 184.02 97.4671 182.188 96.2665 181.128C95.066 180.068 93.2334 180.181 92.1733 181.382C91.1133 182.582 91.2271 184.415 92.4277 185.475C93.6282 186.535 95.4608 186.421 96.5209 185.221Z" fill="#FF92B1"/>
<path d="M91.1693 192.53C92.2294 191.33 92.1155 189.497 90.915 188.437C89.7145 187.377 87.8819 187.491 86.8218 188.691C85.7617 189.892 85.8756 191.725 87.0761 192.785C88.2766 193.845 90.1092 193.731 91.1693 192.53Z" fill="#FF92B1"/>
<g opacity="0.3">
<path opacity="0.3" d="M112.543 212.623C112.296 212.57 112.057 212.526 111.818 212.473C111.108 213.123 110.323 213.632 109.501 214.035C108.97 214.297 108.424 214.506 107.879 214.686C104.022 215.934 99.8219 215.269 96.3615 213.168C93.3271 211.33 90.7411 208.818 88.6334 205.919C88.5512 205.911 88.4765 205.896 88.3942 205.889C85.1431 201.135 83.1251 195.343 82.4375 189.827C83.7155 192.675 89.5153 204.685 98.0207 207.585C102.782 209.207 108.387 207.974 114.516 200.702C115.256 199.82 116.683 200.044 117.087 201.128C117.431 202.047 117.707 203.28 117.707 204.865C117.707 204.872 117.707 204.872 117.707 204.88C117.7 205.799 118.365 206.584 119.284 206.696C124.703 207.361 141.631 207.099 144.867 178.639C148.619 211.33 127.543 215.627 112.543 212.623Z" fill="#000072"/>
<path opacity="0.3" d="M103.858 215.492C101.265 215.492 98.6339 214.752 96.2647 213.317C93.3499 211.546 90.7489 209.117 88.5292 206.083L88.2825 206.053L88.2377 205.985C85.1061 201.411 82.9835 195.679 82.251 189.842L82.1016 188.631L82.6023 189.744C83.6935 192.188 89.5755 204.505 98.0809 207.405C103.514 209.259 109 206.957 114.382 200.582C114.778 200.111 115.376 199.894 115.974 199.999C116.564 200.103 117.05 200.499 117.259 201.06C117.685 202.189 117.894 203.467 117.887 204.864C117.879 205.716 118.492 206.419 119.307 206.516C122.438 206.905 128.507 206.897 134.046 202.532C139.823 197.981 143.403 189.931 144.688 178.616L144.868 177.031L145.047 178.616C146.579 191.987 144.128 201.74 137.753 207.607C129.501 215.201 117.349 213.766 112.506 212.802L111.87 212.667C111.213 213.257 110.435 213.773 109.576 214.192C109.083 214.438 108.544 214.655 107.932 214.857C106.616 215.283 105.241 215.492 103.858 215.492ZM88.4918 205.716L88.731 205.746L88.7758 205.806C90.9806 208.825 93.5591 211.247 96.4516 213.003C99.9867 215.148 104.135 215.694 107.819 214.506C108.41 214.311 108.933 214.102 109.411 213.863C110.271 213.444 111.033 212.929 111.683 212.331L111.751 212.271L112.565 212.443C117.349 213.399 129.367 214.82 137.491 207.338C143.523 201.785 145.989 192.674 144.83 180.238C143.388 190.821 139.83 198.414 134.247 202.816C128.612 207.263 122.424 207.263 119.24 206.875C118.238 206.755 117.498 205.888 117.506 204.872C117.513 203.504 117.304 202.271 116.9 201.187C116.736 200.746 116.362 200.44 115.891 200.357C115.413 200.275 114.95 200.447 114.636 200.813C109.15 207.323 103.537 209.655 97.9389 207.749C90.2706 205.133 84.8445 195.357 82.7667 191.008C83.6337 196.344 85.6367 201.523 88.4918 205.716Z" fill="#390075"/>
</g>
<path d="M35.8581 171.845C35.8581 178.041 31.4485 187.51 26.0074 187.51C20.5664 187.51 16.1567 180.499 16.1567 171.845C16.1567 163.19 20.5664 156.179 26.0074 156.179C31.4485 156.179 35.8581 165.544 35.8581 171.845Z" fill="white"/>
<path d="M26.0076 187.69C20.4769 187.69 15.9775 180.582 15.9775 171.845C15.9775 163.108 20.4769 156 26.0076 156C31.7326 156 36.0376 165.612 36.0376 171.845C36.0376 178.1 31.5458 187.69 26.0076 187.69ZM26.0076 156.366C20.6787 156.366 16.3438 163.31 16.3438 171.852C16.3438 180.395 20.6787 187.338 26.0076 187.338C31.344 187.338 35.6714 177.973 35.6714 171.852C35.6714 165.731 31.344 156.366 26.0076 156.366Z" fill="#390075"/>
<g opacity="0.3">
<path opacity="0.3" d="M28.5019 156.837C30.5946 160.081 31.9175 164.453 31.9175 167.906C31.9175 174.102 27.5079 183.572 22.0668 183.572C20.9756 183.572 19.9293 183.288 18.9502 182.765C20.7365 185.694 23.2402 187.511 26.0131 187.511C31.4541 187.511 35.8638 178.041 35.8638 171.845C35.8563 166.546 32.7322 159.072 28.5019 156.837Z" fill="#000072"/>
<path opacity="0.3" d="M26.0064 187.69C23.2634 187.69 20.6999 185.971 18.794 182.854L18.4502 182.286L19.0406 182.6C20.0197 183.123 21.0437 183.385 22.0751 183.385C27.4115 183.385 31.7389 174.02 31.7389 167.906C31.7389 164.438 30.4085 160.133 28.3532 156.935L27.9795 156.352L28.5923 156.673C32.987 158.99 36.0439 166.524 36.0439 171.845C36.0364 178.101 31.5446 187.69 26.0064 187.69ZM19.4517 183.205C21.2454 185.874 23.5549 187.331 26.0138 187.331C31.3502 187.331 35.6777 177.966 35.6777 171.845C35.6777 166.912 32.8824 159.947 29.0483 157.376C30.9167 160.544 32.1051 164.595 32.1051 167.906C32.1051 174.162 27.6133 183.751 22.0751 183.751C21.1782 183.751 20.3037 183.564 19.4517 183.205Z" fill="#390075"/>
</g>
<path d="M26.0021 188.766C19.7763 188.766 14.9033 181.337 14.9033 171.845C14.9033 162.36 19.7763 154.924 26.0021 154.924C32.4447 154.924 37.101 165.029 37.101 171.845C37.1084 178.504 32.3401 188.766 26.0021 188.766ZM26.0021 157.435C21.3459 157.435 17.4071 164.035 17.4071 171.845C17.4071 179.655 21.3459 186.255 26.0021 186.255C30.2623 186.255 34.5972 177.869 34.5972 171.845C34.5972 165.686 30.352 157.435 26.0021 157.435Z" fill="#390075"/>
<rect x="0.167969" y="107.902" width="162.997" height="113.172" fill="white"/>
<ellipse cx="89.4957" cy="108.97" rx="6.0501" ry="4.62655" fill="white"/>
<defs>
<linearGradient id="paint0_linear_4143_781" x1="58.4087" y1="202.2" x2="30.2438" y2="172.061" gradientUnits="userSpaceOnUse">
<stop stop-color="white"/>
<stop offset="0.0883761" stop-color="#F3F3F3"/>
<stop offset="0.2495" stop-color="#D2D2D2"/>
<stop offset="0.4654" stop-color="#9D9D9D"/>
<stop offset="0.7279" stop-color="#535353"/>
<stop offset="1"/>
</linearGradient>
<linearGradient id="paint1_linear_4143_781" x1="58.4087" y1="202.2" x2="30.2438" y2="172.061" gradientUnits="userSpaceOnUse">
<stop stop-color="white"/>
<stop offset="1" stop-color="white"/>
</linearGradient>
<linearGradient id="paint2_linear_4143_781" x1="55.6632" y1="210.698" x2="38.4221" y2="173.847" gradientUnits="userSpaceOnUse">
<stop offset="0.3219" stop-color="#8D8D8D"/>
<stop offset="0.4132" stop-color="#868686"/>
<stop offset="0.538" stop-color="#757575"/>
<stop offset="0.6821" stop-color="#585858"/>
<stop offset="0.8406" stop-color="#303030"/>
<stop offset="1"/>
</linearGradient>
<linearGradient id="paint3_linear_4143_781" x1="55.6632" y1="210.699" x2="38.4221" y2="173.848" gradientUnits="userSpaceOnUse">
<stop offset="0.3219" stop-color="white"/>
<stop offset="1" stop-color="white"/>
</linearGradient>
</defs>
</svg>
