<svg width="144" height="187" viewBox="0 0 144 187" fill="none" xmlns="http://www.w3.org/2000/svg">
<path d="M15.0304 162.036C15.0304 162.036 3.50193 155.538 5.70035 143.077C7.55582 132.542 16.8419 129.685 21.9335 128.911C23.5867 128.656 25.0464 130.019 24.9057 131.69C24.3429 138.294 24.6859 153.929 38.9492 162.028H15.0304V162.036Z" fill="#FAAF5E"/>
<g opacity="0.4">
<g opacity="0.4">
<g opacity="0.4">
<path opacity="0.4" d="M38.9515 162.036H32.497C22.0501 153.542 21.8214 140.281 22.3315 134.336C22.4722 132.666 21.0212 131.303 19.3592 131.558C16.4661 131.997 12.2187 133.105 8.75403 135.919C12.4298 131.118 18.2688 129.473 21.9445 128.919C23.5978 128.673 25.0575 130.036 24.9168 131.698C24.3452 138.302 24.6882 153.937 38.9515 162.036Z" fill="white"/>
</g>
</g>
</g>
<path d="M38.9506 162.037H15.0318C15.0318 162.037 3.51211 155.538 5.70174 143.077C6.51075 138.47 8.74435 135.33 11.4264 133.193C10.3536 135.875 9.94028 139.068 10.7845 142.796C13.5721 155.134 26.7098 156.681 26.7098 156.681L30.7813 154.975C32.795 157.613 35.4595 160.049 38.9506 162.037Z" fill="white"/>
<g opacity="0.3">
<g opacity="0.3">
<g opacity="0.3">
<path opacity="0.3" d="M38.9477 162.037H15.0289C15.0289 162.037 3.50918 155.538 5.69881 143.078C6.16487 140.448 7.0882 138.294 8.30173 136.535C8.31053 136.702 8.31932 136.869 8.33691 137.045C9.29542 149.655 22.0726 153.102 22.0726 153.102L28.5272 151.449C30.664 155.433 33.9529 159.196 38.9477 162.037Z" fill="#6B184E"/>
</g>
</g>
<g opacity="0.3">
<g opacity="0.3">
<path opacity="0.3" d="M39.7852 162.256H14.9783L14.9255 162.23C14.8112 162.168 3.29147 155.511 5.48989 143.042C5.92958 140.544 6.81774 138.311 8.128 136.411L8.49733 135.866L8.52371 136.526C8.53251 136.693 8.5413 136.86 8.55889 137.027C9.46464 148.925 21.1778 152.609 22.0748 152.873L28.6348 151.194L28.714 151.343C31.0883 155.757 34.5706 159.293 39.0553 161.843L39.7852 162.256ZM15.0926 161.816H38.1408C33.9638 159.293 30.7014 155.898 28.415 151.704L22.0748 153.322L22.022 153.304C21.8901 153.269 9.17444 149.699 8.13679 137.194C7.06396 138.918 6.3165 140.905 5.92958 143.103C3.84548 154.869 14.2836 161.333 15.0926 161.816Z" fill="#1E1B24"/>
</g>
</g>
</g>
<path d="M111.535 186.658H25.6476C25.6476 186.658 18.2345 189.639 23.2205 160.576C25.1815 149.127 30.9062 143.077 34.5468 134.758C35.0832 133.518 35.5844 132.234 36.0153 130.871C36.0153 130.871 36.0153 130.871 36.0153 130.862C36.8507 128.215 37.4399 125.287 37.6422 121.875C37.6861 121.145 37.7125 120.389 37.7213 119.606H99.4705C99.4793 120.292 99.4968 120.961 99.532 121.611C99.7255 125.243 100.35 128.339 101.256 131.117C101.669 132.384 102.135 133.588 102.645 134.749C106.286 143.068 112.01 149.118 113.971 160.567C118.94 189.639 111.535 186.658 111.535 186.658Z" fill="#FAAF5E"/>
<path d="M95.8693 144.809C88.4914 153.277 89.1949 167.725 89.1949 167.725H48.0405C48.0405 167.725 48.7528 153.277 41.3661 144.809C37.2858 140.122 36.0283 135.145 35.9932 130.871C35.9932 130.871 35.9932 130.871 35.9932 130.862C36.8286 128.215 37.4177 125.278 37.62 121.884C38.1564 120.451 38.6137 119.615 38.6137 119.615H98.6129C98.6129 119.615 99.0174 120.345 99.5099 121.62C99.7033 125.252 100.328 128.347 101.233 131.126C101.154 135.347 99.8792 140.219 95.8693 144.809Z" fill="white"/>
<g opacity="0.3">
<g opacity="0.3">
<path opacity="0.3" d="M102.637 134.759C81.559 148.679 55.6176 148.679 34.5392 134.759C35.0756 133.519 35.5768 132.235 36.0077 130.872C36.0077 130.872 36.0077 130.872 36.0077 130.863C36.2012 130.256 36.3771 129.632 36.5441 128.99C36.8255 127.9 37.063 126.756 37.2476 125.561C56.8223 136.386 80.3718 136.588 99.9993 126.018C100.175 127.055 100.386 128.04 100.632 128.99C100.817 129.72 101.028 130.432 101.248 131.118C101.661 132.393 102.127 133.598 102.637 134.759Z" fill="#1E1B24"/>
</g>
</g>
<g opacity="0.3">
<g opacity="0.3">
<g opacity="0.3">
<path opacity="0.3" d="M41.4605 153.814C40.4844 154.307 39.9392 155.397 39.7281 156.822C39.2005 160.401 39.7369 166.082 35.771 170.426C30.143 176.59 15.3697 178.094 10.8409 170.215C7.92141 165.15 7.29706 158.589 8.69525 153.806H41.4605V153.814Z" fill="#6B184E"/>
</g>
</g>
<g opacity="0.3">
<g opacity="0.3">
<path opacity="0.3" d="M22.1819 175.825C21.4696 175.825 20.7573 175.79 20.0626 175.711C15.7097 175.236 12.3681 173.328 10.6446 170.338C7.85697 165.501 6.99519 158.836 8.48132 153.762L8.52529 153.604H42.3809L41.5543 154.017C40.7013 154.448 40.1561 155.406 39.9451 156.866C39.8308 157.613 39.7692 158.458 39.6989 159.363C39.4351 162.81 39.1097 167.102 35.9264 170.593C33.0245 173.767 27.4932 175.825 22.1819 175.825ZM8.85945 154.034C7.46126 158.985 8.32304 165.413 11.0227 170.109C12.6671 172.976 15.8944 174.805 20.1066 175.271C25.8664 175.904 32.3825 173.803 35.601 170.285C38.6788 166.908 38.9954 162.705 39.2592 159.319C39.3295 158.414 39.3911 157.552 39.5054 156.796C39.6901 155.547 40.1034 154.624 40.7453 154.034H8.85945Z" fill="#1E1B24"/>
</g>
</g>
</g>
<g opacity="0.3">
<g opacity="0.3">
<g opacity="0.3">
<path opacity="0.3" d="M95.2775 153.815C96.2536 154.308 96.7988 155.398 97.0098 156.823C97.5374 160.402 97.001 166.083 100.967 170.427C106.595 176.591 121.368 178.095 125.897 170.216C128.817 165.15 129.441 158.59 128.043 153.807H95.2775V153.815Z" fill="#6B184E"/>
</g>
</g>
<g opacity="0.3">
<g opacity="0.3">
<path opacity="0.3" d="M114.547 175.824C109.244 175.824 103.713 173.775 100.802 170.583C97.619 167.101 97.2937 162.81 97.0298 159.354C96.9595 158.457 96.898 157.604 96.7836 156.856C96.5726 155.396 96.0274 154.438 95.1744 154.007L94.3478 153.594H128.203L128.247 153.752C129.742 158.826 128.872 165.492 126.084 170.328C124.361 173.318 121.019 175.226 116.666 175.701C115.971 175.789 115.259 175.824 114.547 175.824ZM95.9834 154.033C96.6253 154.614 97.0475 155.537 97.2233 156.795C97.3376 157.56 97.3992 158.413 97.4695 159.318C97.7245 162.704 98.0499 166.907 101.128 170.284C104.346 173.802 110.854 175.903 116.622 175.27C120.834 174.813 124.062 172.975 125.706 170.108C128.406 165.412 129.267 158.975 127.869 154.033H95.9834Z" fill="#1E1B24"/>
</g>
</g>
</g>
<g opacity="0.3">
<g opacity="0.3">
<path opacity="0.3" d="M45.02 153.779H39.8493C38.3016 153.779 37.519 154.799 37.2728 156.329C36.8243 159.099 37.2816 163.504 33.9136 166.864C29.1386 171.638 16.6076 172.799 12.7648 166.696C11.6744 164.964 10.9533 163.003 10.6016 161.033C10.6983 161.192 10.795 161.35 10.8918 161.508C14.7346 167.611 27.2656 166.45 32.0405 161.675C35.3997 158.307 34.9425 153.91 35.3997 151.14C35.3997 151.123 35.3997 151.105 35.4085 151.096C35.7163 149.285 37.9059 148.529 39.3129 149.716L43.3932 153.172C43.3932 153.172 42.9183 152.336 42.1884 151.123C43.7801 152.556 45.02 153.779 45.02 153.779Z" fill="#1E1B24"/>
</g>
</g>
<g opacity="0.3">
<g opacity="0.3">
<path opacity="0.3" d="M92.2666 153.78H97.4373C98.985 153.78 99.7676 154.8 100.014 156.33C100.462 159.1 100.005 163.505 103.373 166.864C108.148 171.639 120.679 172.8 124.522 166.697C125.612 164.965 126.333 163.004 126.685 161.034C126.588 161.193 126.492 161.351 126.395 161.509C122.552 167.612 110.021 166.451 105.246 161.676C101.887 158.308 102.344 153.911 101.887 151.141C101.887 151.124 101.887 151.106 101.878 151.097C101.57 149.286 99.3807 148.53 97.9737 149.717L93.8934 153.173C93.8934 153.173 94.3683 152.337 95.0982 151.124C93.5065 152.557 92.2666 153.78 92.2666 153.78Z" fill="#1E1B24"/>
</g>
</g>
<g opacity="0.4">
<g opacity="0.4">
<path opacity="0.4" d="M0.0477238 131.072C0.23113 132.944 3.11213 141.473 7.63614 141.259C11.4112 141.083 10.6241 138.508 9.10339 136.009C6.50514 131.737 5.13724 127.266 3.60121 126.838C2.37086 126.494 -0.395507 126.586 0.0477238 131.072Z" fill="white"/>
</g>
</g>
<g opacity="0.3">
<path opacity="0.3" d="M108.366 129.335C99.7611 136.74 87.4347 143.098 71.7153 143.465C58.1509 143.778 44.7699 139.315 34.2469 133.401C36.6618 126.569 39.5428 119.431 42.974 112.11C50.1116 112.225 53.9555 109.397 56.0417 105.103H81.772C84.6378 109.909 89.9642 112.446 100.181 110.131C103.33 116.688 106.035 123.122 108.366 129.335Z" fill="#390075"/>
</g>
<path d="M119.043 66.8098C117.621 62.4387 112.318 56.99 107.794 52.9398C103.705 49.2869 103.614 42.9365 107.542 39.1079C114.45 32.3677 122.451 28.0118 127.823 25.574C131.002 24.1297 134.632 26.3688 134.793 29.8612C135.037 35.2716 134.51 43.4408 130.804 52.4583C126.792 62.217 119.639 66.7258 119.639 66.7258" fill="#FF6C6C"/>
<path d="M119.721 66.8785L119.538 66.5881C119.607 66.5422 126.691 61.9877 130.634 52.4047C134.356 43.3566 134.852 35.1569 134.615 29.8763C134.547 28.2868 133.691 26.8501 132.338 26.0171C130.97 25.1765 129.35 25.0772 127.89 25.742C122.442 28.2103 114.509 32.5586 107.655 39.2376C105.805 41.0411 104.774 43.5553 104.835 46.1307C104.888 48.7213 105.981 51.0903 107.907 52.8173C112.263 56.7071 117.75 62.2933 119.209 66.7638L118.881 66.8708C117.452 62.4691 111.995 56.944 107.678 53.0772C105.683 51.289 104.544 48.8283 104.491 46.1459C104.43 43.4713 105.5 40.8654 107.418 39.0007C114.303 32.2835 122.274 27.9123 127.753 25.4363C129.297 24.7409 131.077 24.8479 132.521 25.7344C133.973 26.6208 134.883 28.1721 134.959 29.8686C135.204 35.1874 134.699 43.4331 130.955 52.5422C126.966 62.2245 119.798 66.8326 119.721 66.8785Z" fill="#390075"/>
<path d="M116.163 54.3304C115.467 56.0193 114.68 57.5477 113.855 58.9232C111.952 56.7988 109.789 54.7354 107.795 52.9472C103.706 49.2944 103.615 42.944 107.535 39.1154C111.463 35.2868 115.743 32.2223 119.693 29.8457C119.969 30.4112 120.129 31.0531 120.16 31.7409C120.404 37.1437 119.877 45.313 116.163 54.3304Z" fill="#FF6C6C"/>
<path d="M113.883 59.206L113.73 59.0303C112.064 57.1733 110.024 55.1635 107.678 53.0619C105.683 51.2737 104.552 48.813 104.491 46.1307C104.43 43.456 105.5 40.8501 107.418 38.9779C110.895 35.5848 114.999 32.4593 119.607 29.6853L119.767 29.5859L119.851 29.7541C120.142 30.3654 120.302 31.0226 120.333 31.718C120.569 37.0368 120.073 45.2824 116.321 54.384C115.679 55.9582 114.892 57.5095 113.997 58.9997L113.883 59.206ZM119.614 30.0827C115.09 32.8185 111.071 35.8982 107.655 39.2301C105.805 41.0335 104.774 43.5554 104.835 46.1307C104.888 48.7213 105.981 51.0903 107.907 52.8097C110.192 54.8501 112.179 56.8065 113.829 58.6252C114.662 57.2115 115.396 55.7442 116.007 54.2541C119.729 45.206 120.226 37.0139 119.989 31.7333C119.958 31.1602 119.836 30.6023 119.614 30.0827Z" fill="#390075"/>
<path d="M34.0081 54.3228C36.6293 50.5477 43.2701 46.849 48.7723 44.2737C53.7319 41.9505 55.65 35.8905 52.9906 31.099C48.3138 22.6623 41.8945 16.1819 37.4546 12.3075C34.8181 10.0149 30.6991 11.1153 29.5452 14.409C27.757 19.5215 25.9153 27.4996 26.8705 37.2049C27.9098 47.7049 33.4655 54.0782 33.4655 54.0782" fill="#FF6C6C"/>
<path d="M34.1559 54.4222L33.8732 54.2235C36.5555 50.3567 43.4179 46.5969 48.7061 44.1133C51.0446 43.0205 52.7717 41.0565 53.5664 38.5958C54.3612 36.1427 54.0937 33.4375 52.8404 31.1831C48.2018 22.8152 41.8513 16.3731 37.3426 12.4375C36.1352 11.3829 34.5533 11.0161 33.002 11.4288C31.466 11.8338 30.2356 12.9724 29.716 14.4702C27.966 19.4604 26.0861 27.4539 27.0566 37.1897C28.0806 47.5063 33.5522 53.9026 33.6057 53.9637L33.3459 54.193C33.2924 54.1318 27.7444 47.6515 26.7127 37.2203C25.7422 27.4157 27.6374 19.3764 29.395 14.3556C29.9605 12.7508 31.2749 11.5281 32.9256 11.0925C34.5609 10.6569 36.3033 11.0619 37.5795 12.1777C42.1112 16.1285 48.4922 22.6013 53.1538 31.015C54.4529 33.3611 54.728 36.158 53.9027 38.7028C53.0773 41.2552 51.2815 43.2879 48.859 44.4266C43.6013 46.8949 36.7924 50.6242 34.1559 54.4222Z" fill="#390075"/>
<path d="M133.138 106.472C128.79 103.4 126.016 94.8868 125.542 90.7678C125.267 88.3835 124.442 83.6379 123.8 80.0538C148.621 64.7241 148.154 11.521 131.801 14.7612C113.338 18.4217 98.9176 33.2929 92.1469 41.5462C85.1851 38.8409 79.9351 38.4665 79.9351 38.4665C79.9351 38.4665 74.6621 37.2896 67.0661 37.9315C62.97 28.0964 53.4252 9.64113 36.7582 0.807072C21.9787 -7.0259 6.17526 44.2055 25.8761 65.8857C24.2408 69.1106 22.1545 73.2983 21.2222 75.4534C19.5792 79.2667 14.4744 86.6182 9.43072 88.3147C6.45801 89.3158 5.98421 91.6007 7.63487 93.6106C8.69709 94.9021 10.6305 96.0789 13.3434 96.7285C13.5574 96.782 13.779 96.8278 14.0082 96.8737C14.0082 96.8737 14.0082 96.8737 13.9929 96.8813C13.8095 96.9654 12.2888 97.6531 8.39141 99.4796C4.57045 101.275 6.92417 104.745 12.3346 108.68C17.7375 112.608 24.2331 120.854 25.6239 122.138C26.4416 122.887 30.7135 127.487 39.4176 131.958C45.6076 135.137 54.0442 138.255 65.0639 139.875C91.5737 143.764 106.231 135.06 107.935 134.227C109.639 133.402 118.229 127.365 124.541 125.156C130.846 122.948 134.101 120.296 130.953 117.476C127.521 114.404 126.322 113.365 126.322 113.365C126.543 113.388 126.765 113.403 126.979 113.418C129.768 113.579 131.977 113.006 133.367 112.073C135.499 110.606 135.706 108.283 133.138 106.472Z" fill="#FAAF5E"/>
<path d="M124.517 125.14C118.204 127.349 109.615 133.386 107.911 134.211C106.207 135.044 91.5493 143.748 65.0395 139.859C54.0198 138.239 45.5832 135.128 39.3932 131.942C30.6891 127.479 26.4172 122.878 25.5995 122.122C24.2087 120.838 17.7131 112.592 12.3102 108.664C6.89975 104.736 4.54604 101.259 8.367 99.4635C12.2644 97.6371 13.7851 96.9493 13.9685 96.8652C13.9762 96.8576 13.9838 96.8576 13.9838 96.8576C13.7622 96.8117 13.5329 96.7659 13.319 96.7124C14.236 96.5443 15.2447 96.4143 16.3604 96.315C25.3473 95.5432 34.7087 109.176 50.9554 105.432C63.427 102.558 62.5712 74.1687 66.7513 67.4285C66.7971 67.3597 66.8353 67.291 66.8812 67.2222C71.2906 60.268 81.8976 61.827 84.1214 69.7517C84.1443 69.8281 84.1672 69.9045 84.1902 69.9809C86.2535 77.6381 77.2819 104.584 88.3932 110.919C102.882 119.172 115.767 108.81 124.15 112.134C125.189 112.546 126.114 112.967 126.954 113.387C126.74 113.372 126.519 113.356 126.297 113.334C126.297 113.334 127.497 114.373 130.928 117.445C134.077 120.28 130.821 122.932 124.517 125.14Z" fill="white"/>
<g opacity="0.3">
<path opacity="0.3" d="M124.516 125.149C118.204 127.358 109.614 133.387 107.91 134.22C106.206 135.053 91.5566 143.757 65.0467 139.868H65.0391C54.0118 138.247 45.5828 135.137 39.3928 131.951C30.6887 127.488 26.4168 122.887 25.5991 122.138C24.2083 120.854 17.7127 112.609 12.3098 108.681C6.907 104.753 4.55329 101.276 8.37425 99.48C8.97796 99.1973 9.52054 98.9451 10.0173 98.7158C21.2203 110.431 41.2192 127.595 66.3077 131.278C91.3961 134.961 115.491 124.27 129.583 116.262C129.988 116.621 130.439 117.026 130.928 117.469C134.069 120.281 130.821 122.933 124.516 125.149Z" fill="#390075"/>
</g>
<path d="M27.5846 40.3376C28.6086 51.3649 34.4012 58.0974 34.4012 58.0974L34.9667 58.3573C36.5104 56.1564 39.3761 53.9861 42.6086 52.0298C45.1763 50.4861 47.9809 49.0723 50.5333 47.8955C55.7604 45.4806 57.8084 39.1378 55.0497 34.0789C52.291 29.0276 48.9285 24.6335 45.696 21.0265C43.2353 18.2983 40.851 16.0134 38.8488 14.2481C36.0977 11.818 31.7648 12.949 30.5344 16.4031C28.6163 21.7754 26.637 30.1433 27.5846 40.3376Z" fill="#FBDA98"/>
<path d="M34.5294 57.4182C34.5905 57.2347 34.6517 57.0743 34.7434 56.9367L34.7816 56.8832L34.858 56.7915L35.0185 56.6081L35.3318 56.2489C35.5381 56.0044 35.7674 55.7904 35.989 55.5612C36.2106 55.3319 36.4322 55.1179 36.6691 54.9116C37.5862 54.0557 38.572 53.3068 39.5654 52.5885C41.5676 51.1594 43.6768 49.9291 45.8089 48.7904C46.8787 48.2173 47.9563 47.6747 49.049 47.1474L50.6844 46.3756C50.906 46.2533 51.1353 46.1463 51.3493 46.0164C51.5556 45.8712 51.7772 45.7489 51.9683 45.5885C53.5578 44.3734 54.5818 42.4247 54.62 40.4225C54.6506 39.4291 54.4595 38.428 54.0622 37.5186C53.9857 37.3046 53.8253 37.0142 53.703 36.762L53.3132 35.9749C53.0534 35.4476 52.8012 34.9203 52.5185 34.416L51.6855 32.8723L50.799 31.3592C50.5087 30.8472 50.1877 30.3658 49.8744 29.869C49.5611 29.3799 49.2477 28.8832 48.9115 28.4018C46.2903 24.5273 43.2794 20.9051 39.9169 17.6496C39.0763 16.8396 38.2128 16.0448 37.3263 15.2959C37.1047 15.1048 36.8831 14.9214 36.6615 14.738C36.608 14.6998 36.5392 14.6387 36.501 14.6081L36.3864 14.524C36.31 14.4706 36.2259 14.4247 36.1495 14.3789C35.8209 14.2107 35.4388 14.1114 35.0643 14.1267C34.8809 14.1343 34.6899 14.1649 34.5141 14.2107C34.4224 14.2337 34.3383 14.2719 34.2543 14.3024C34.1702 14.3406 34.0862 14.3789 33.9868 14.4476C33.5894 14.6769 33.2303 14.9826 32.894 15.3341C32.2292 16.0524 31.7095 16.9771 31.3198 17.9935C31.2204 18.2457 31.1287 18.5055 31.0447 18.7653L30.9224 19.1627L30.8078 19.583C30.6473 20.1485 30.4945 20.714 30.3569 21.2795C30.0665 22.4182 29.8143 23.5644 29.5927 24.7107C29.1418 27.0109 28.8056 29.3417 28.6069 31.6725C28.2248 36.3264 28.3318 41.0644 29.5239 45.512C29.6462 46.0775 29.8449 46.6125 30.0207 47.155L30.2958 47.9727L30.6167 48.7981C30.8231 49.3483 31.0447 49.8985 31.2739 50.4411C31.4956 50.9836 31.7324 51.5262 31.9693 52.0535C32.4508 53.1157 32.9552 54.1703 33.5359 55.1485C33.8263 55.6376 34.1244 56.1114 34.453 56.5317C34.6135 56.7457 34.7816 56.9367 34.9421 57.0972L35.0643 57.2118L35.1713 57.2959C35.2095 57.3265 35.2248 57.3264 35.2477 57.3494C35.2554 57.357 35.2248 57.3417 35.2095 57.3341L35.179 57.3264C35.2172 57.3341 34.7052 57.2806 34.5294 57.4182ZM35.4006 59.2981C35.2095 59.4356 34.6822 59.3821 34.6822 59.3592L34.5982 59.3363C34.5447 59.321 34.4835 59.2981 34.453 59.2828C34.3842 59.2522 34.3154 59.2216 34.2466 59.1834C34.1473 59.1223 34.0327 59.0535 33.9486 58.9924L33.7041 58.8013L33.4977 58.6103C33.2303 58.3505 33.0087 58.0983 32.81 57.8385C32.3973 57.3188 32.0534 56.7839 31.7248 56.2489C31.0752 55.1714 30.5327 54.0786 30.0207 52.9705C29.7608 52.4203 29.5163 51.8625 29.2794 51.3046C29.0349 50.7468 28.8056 50.1889 28.584 49.6234L28.2477 48.7828L27.9421 47.904C27.7434 47.3155 27.5294 46.7271 27.3842 46.1234C26.0469 41.3319 25.9017 36.3647 26.2456 31.512C26.429 29.0819 26.7499 26.6671 27.1931 24.2751C27.4148 23.083 27.6593 21.8909 27.9497 20.7064C28.0873 20.1103 28.2401 19.5219 28.4006 18.9334L28.5152 18.4902L28.6528 18.0241C28.7445 17.7184 28.8514 17.4051 28.9661 17.0994C29.4246 15.8767 30.0589 14.6692 31.0065 13.6147C31.4803 13.095 32.0381 12.6136 32.6724 12.2391C32.8252 12.1474 33.001 12.0481 33.1921 11.964C33.3831 11.8799 33.5742 11.8035 33.7652 11.7424C34.1549 11.6201 34.5676 11.5513 34.9726 11.5361C35.7903 11.4978 36.6156 11.6889 37.3493 12.0557C37.5327 12.1474 37.7084 12.2544 37.8766 12.369L38.1211 12.5524C38.2052 12.6136 38.2434 12.6518 38.3121 12.7053C38.549 12.8963 38.7936 13.0874 39.0228 13.2861C39.9704 14.0655 40.8722 14.8909 41.7587 15.7238C43.5239 17.4051 45.2052 19.178 46.7794 21.035C48.3613 22.892 49.8515 24.8177 51.2041 26.8505C51.5556 27.3472 51.8766 27.8668 52.2052 28.3789C52.5338 28.8985 52.87 29.4029 53.168 29.9378L54.0927 31.5197L54.9563 33.1321C55.2543 33.6671 55.5218 34.2173 55.7816 34.7675L56.179 35.5928C56.3089 35.8832 56.4464 36.1125 56.5687 36.4564C57.1036 37.7402 57.3558 39.1463 57.287 40.5371C57.1877 43.3264 55.7281 46.0011 53.5043 47.6518C53.2292 47.8657 52.9311 48.0339 52.6408 48.2249C52.3427 48.4007 52.0294 48.5459 51.7161 48.6987L50.096 49.4247C49.0185 49.9138 47.9639 50.4258 46.9093 50.9531C44.8078 52.0153 42.7674 53.1692 40.834 54.4607C39.8787 55.1103 38.9311 55.7904 38.0829 56.5393C37.8613 56.7227 37.6549 56.9138 37.4486 57.1048C37.2499 57.3035 37.0283 57.4869 36.8525 57.6933L36.5698 57.9989L36.4246 58.1518L36.3558 58.2282L36.2565 58.3505C36.0119 58.6943 35.7063 59.0153 35.4006 59.2981Z" fill="#9F6F67"/>
<path d="M132.277 52.4811C128.754 62.9811 121.578 68.2082 121.578 68.2082L120.967 68.3381C119.965 65.8392 117.68 63.0804 114.975 60.4287C112.828 58.3348 110.421 56.325 108.205 54.5826C103.665 51.0368 103.13 44.3883 106.967 40.1012C110.81 35.8141 115.09 32.3064 119.064 29.54C122.082 27.4461 124.933 25.7726 127.279 24.5117C130.511 22.7769 134.47 24.8708 134.875 28.516C135.517 34.1787 135.54 42.7758 132.277 52.4811Z" fill="#FBDA98"/>
<path d="M120.319 69.1468C120.089 68.7953 119.868 68.4208 119.677 68.0311L119.608 67.8859L119.554 67.7942L119.447 67.6108L119.241 67.2516C119.111 67.0071 118.943 66.7778 118.79 66.5409C118.637 66.304 118.485 66.0671 118.309 65.8455C117.652 64.9208 116.887 64.0497 116.1 63.1938C114.518 61.4973 112.791 59.9001 110.988 58.387C110.086 57.6304 109.169 56.8892 108.237 56.1708L106.831 55.0933C106.571 54.8717 106.296 54.6577 106.043 54.4208C105.807 54.1686 105.547 53.9394 105.333 53.6643C103.545 51.5475 102.742 48.613 103.277 45.8695C103.529 44.5016 104.095 43.1872 104.912 42.0562C105.119 41.7505 105.302 41.5518 105.493 41.2997L106.066 40.5889C106.448 40.1075 106.831 39.6414 107.243 39.1828L108.458 37.8073L109.719 36.4852C110.132 36.0344 110.575 35.6217 111.011 35.1938C111.446 34.7658 111.882 34.3379 112.333 33.9328C114.113 32.2669 116.009 30.7232 117.972 29.2789C119.936 27.8346 121.969 26.4896 124.078 25.2593C125.133 24.6479 126.203 24.0595 127.303 23.5093C127.578 23.3717 127.854 23.2418 128.129 23.1042C128.205 23.066 128.251 23.0431 128.35 22.9972L128.633 22.875C128.824 22.8062 129.023 22.7374 129.221 22.6916C130.016 22.5005 130.864 22.5005 131.652 22.7298C132.049 22.8368 132.431 23.0049 132.783 23.2112C132.958 23.3106 133.126 23.4328 133.295 23.5551C133.455 23.685 133.608 23.8226 133.738 23.9448C134.265 24.4569 134.701 25.0529 135.045 25.6643C135.725 26.9099 136.069 28.232 136.237 29.5235C136.275 29.8444 136.313 30.173 136.328 30.494L136.359 30.9754L136.374 31.4339C136.397 32.0453 136.405 32.649 136.405 33.2604C136.412 34.4754 136.382 35.6905 136.328 36.9055C136.214 39.3357 135.977 41.7582 135.595 44.1654C134.815 48.9645 133.539 53.7636 131.14 58.1272C130.864 58.685 130.521 59.2047 130.192 59.732L129.695 60.5191L129.176 61.2603C128.832 61.7571 128.48 62.2538 128.113 62.7352C127.762 63.2243 127.387 63.7058 127.013 64.1872C126.256 65.1425 125.477 66.09 124.598 66.9842C124.155 67.435 123.704 67.8706 123.184 68.2833C122.924 68.4896 122.649 68.6883 122.336 68.8794L122.091 69.0169L121.809 69.1468C121.717 69.1927 121.587 69.2309 121.48 69.2691C121.411 69.2844 121.335 69.3073 121.259 69.3149C121.228 69.3226 121.159 69.3302 121.106 69.3302L121.022 69.3379C120.999 69.3914 120.479 69.3226 120.319 69.1468ZM121.595 67.5191C121.457 67.3433 120.953 67.2745 120.968 67.2975H120.938C120.922 67.2975 120.892 67.3051 120.899 67.3051C120.93 67.2898 120.945 67.2898 120.991 67.2669L121.113 67.2058L121.259 67.1217C121.457 66.9994 121.664 66.8542 121.87 66.6785C122.283 66.3422 122.688 65.9525 123.077 65.5475C123.864 64.7298 124.598 63.8204 125.309 62.8957C125.668 62.4296 126.019 61.9634 126.356 61.482C126.7 61.0082 127.036 60.5267 127.372 60.0376L127.869 59.3117L128.32 58.578C128.618 58.089 128.931 57.6075 129.183 57.0879C131.361 53.03 132.553 48.4448 133.241 43.8291C133.585 41.5136 133.791 39.1752 133.875 36.8291C133.914 35.6599 133.936 34.4831 133.914 33.3138C133.906 32.7254 133.891 32.1446 133.868 31.5562L133.852 31.1206L133.822 30.7079C133.807 30.4328 133.768 30.1654 133.738 29.8979C133.593 28.828 133.295 27.804 132.813 26.9558C132.569 26.5355 132.286 26.1534 131.95 25.84C131.866 25.756 131.789 25.6948 131.72 25.6414C131.644 25.5879 131.567 25.5344 131.483 25.4885C131.323 25.3968 131.147 25.328 130.964 25.2745C130.605 25.1752 130.215 25.1828 129.848 25.2745C129.756 25.2975 129.672 25.328 129.581 25.3586L129.451 25.4197C129.412 25.435 129.328 25.4809 129.267 25.5114C129.007 25.6414 128.748 25.7636 128.488 25.9012C127.448 26.4285 126.432 27.0093 125.431 27.5977C121.411 29.9972 117.652 32.8324 114.213 36.0038C113.777 36.3935 113.357 36.8062 112.944 37.2112C112.524 37.6239 112.096 38.0213 111.698 38.4492L110.483 39.7178L109.322 41.0322C108.924 41.4601 108.558 41.9186 108.191 42.3695L107.633 43.042C107.457 43.2636 107.236 43.5082 107.113 43.6992C106.517 44.5016 106.105 45.4263 105.906 46.3968C105.486 48.3531 106.043 50.4852 107.304 52.0366C107.457 52.2352 107.648 52.4034 107.809 52.5944C107.992 52.7702 108.191 52.923 108.374 53.0911L109.788 54.2221C110.728 54.9787 111.653 55.7658 112.57 56.5606C114.388 58.1654 116.161 59.839 117.781 61.6883C118.584 62.6206 119.371 63.5682 120.074 64.6152C120.257 64.8673 120.426 65.1348 120.586 65.4023C120.746 65.6697 120.922 65.9296 121.067 66.22L121.297 66.6403L121.411 66.8542L121.465 66.9612L121.488 67.0224C121.557 67.1599 121.579 67.3204 121.595 67.5191Z" fill="#9F6F67"/>
<path d="M91.875 140.66C91.4929 140.66 91.1032 140.63 90.7211 140.576C86.5409 139.965 83.6064 136.243 83.9809 132.056L48.6141 126.89C47.8728 130.581 44.6403 133.248 40.8651 133.248C40.483 133.248 40.0933 133.217 39.7112 133.164C35.3935 132.529 32.3903 128.502 33.0169 124.184C33.3684 121.8 34.744 119.744 36.8149 118.522C35.1872 116.756 34.4536 114.395 34.7975 112.011C35.363 108.152 38.7254 105.232 42.6228 105.232C43.0049 105.232 43.3946 105.263 43.7767 105.316C47.9721 105.928 50.9066 109.672 50.5169 113.875L85.8761 119.041C86.6021 115.327 89.8423 112.653 93.6327 112.653C94.0147 112.653 94.4045 112.683 94.7866 112.737C99.1043 113.371 102.108 117.398 101.481 121.716C101.129 124.1 99.7538 126.156 97.6829 127.379C99.3106 129.144 100.052 131.505 99.7003 133.89C99.1425 137.749 95.7724 140.66 91.875 140.66Z" fill="white"/>
<path d="M42.6207 105.394C42.9951 105.394 43.3696 105.424 43.7517 105.478C47.9012 106.081 50.7975 109.872 50.3237 114.014L86.0115 119.226C86.6611 115.481 89.9165 112.814 93.6305 112.814C94.005 112.814 94.3794 112.845 94.7615 112.898C98.9951 113.517 101.93 117.453 101.311 121.686C100.944 124.17 99.446 126.203 97.4056 127.334C99.0333 129 99.8892 131.384 99.5301 133.86C98.9646 137.711 95.6556 140.485 91.8729 140.485C91.4984 140.485 91.124 140.455 90.7419 140.401C86.6076 139.798 83.7113 136.023 84.1622 131.904L48.4667 126.692C47.8019 130.413 44.5541 133.073 40.8554 133.073C40.4809 133.073 40.1065 133.042 39.7244 132.989C35.4908 132.37 32.5563 128.434 33.1753 124.2C33.5344 121.717 35.0399 119.684 37.0726 118.553C35.4449 116.887 34.589 114.503 34.9482 112.027C35.529 108.168 38.8379 105.394 42.6207 105.394ZM42.6207 105.05C38.6392 105.05 35.2004 108.03 34.6196 111.973C34.2757 114.342 34.9711 116.688 36.5377 118.477C34.5202 119.738 33.1829 121.786 32.839 124.155C32.1971 128.572 35.2615 132.691 39.6785 133.333C40.0683 133.386 40.4656 133.417 40.8554 133.417C44.6611 133.417 47.9242 130.773 48.7418 127.081L83.7877 132.202C83.4973 136.412 86.4777 140.134 90.6884 140.745C91.0781 140.799 91.4755 140.829 91.8652 140.829C95.8467 140.829 99.2855 137.849 99.8663 133.906C100.21 131.537 99.5148 129.191 97.9482 127.402C99.9657 126.142 101.303 124.093 101.647 121.724C102.289 117.307 99.2244 113.188 94.8074 112.547C94.4176 112.493 94.0202 112.462 93.6305 112.462C89.8095 112.462 86.5388 115.122 85.7364 118.836L50.6982 113.716C51.0039 109.49 48.0312 105.753 43.7975 105.134C43.4078 105.08 43.0104 105.05 42.6207 105.05Z" fill="#390075"/>
<path d="M91.8764 141.701C91.4485 141.701 91.0129 141.671 90.5773 141.609C86.1832 140.967 83.0042 137.276 82.9201 132.951L49.3874 128.053C48.0806 132.195 43.9769 134.839 39.5598 134.189C34.6767 133.478 31.276 128.916 31.9943 124.033C32.3306 121.733 33.5151 119.708 35.3033 118.294C33.9889 116.429 33.431 114.152 33.7673 111.852C34.478 106.969 39.0325 103.568 43.9234 104.286C48.3404 104.928 51.5195 108.634 51.5806 112.983L85.098 117.881C86.3895 113.716 90.5009 111.057 94.9332 111.707C99.8164 112.417 103.217 116.979 102.499 121.863C102.162 124.163 100.978 126.188 99.1821 127.602C100.497 129.466 101.054 131.744 100.718 134.044C100.076 138.484 96.24 141.701 91.8764 141.701ZM48.4703 125.485C48.5315 125.485 48.585 125.493 48.6461 125.5L84.3415 130.712C84.9834 130.804 85.4419 131.392 85.3655 132.042C84.9834 135.549 87.4212 138.705 90.9212 139.217C94.49 139.737 97.8142 137.261 98.3339 133.692C98.6319 131.66 97.9747 129.65 96.5456 128.183C96.2858 127.915 96.1635 127.541 96.217 127.166C96.2705 126.792 96.4998 126.471 96.8208 126.287C98.6166 125.286 99.8164 123.552 100.114 121.519C100.634 117.95 98.1581 114.626 94.5893 114.106C91.0588 113.594 87.8186 115.94 87.2072 119.448C87.0926 120.09 86.4889 120.533 85.8393 120.434L50.1515 115.222C49.5096 115.13 49.0511 114.542 49.1275 113.892C49.5249 110.369 47.0871 107.205 43.5795 106.686C40.0107 106.166 36.6865 108.642 36.1668 112.211C35.8688 114.244 36.526 116.253 37.955 117.721C38.2149 117.988 38.3371 118.363 38.2836 118.737C38.2302 119.112 38.0009 119.433 37.6799 119.616C35.8841 120.617 34.6843 122.352 34.3863 124.384C33.8666 127.953 36.3426 131.278 39.9114 131.797C43.419 132.309 46.6668 129.978 47.2935 126.486C47.3928 125.898 47.8972 125.485 48.4703 125.485Z" fill="#9F6F67"/>
<g opacity="0.3">
<path opacity="0.3" d="M99.0593 116.094C99.0593 116.094 99.2962 122.712 94.8868 125.096C93.901 125.631 93.4578 126.777 93.8322 127.832C94.329 129.23 94.5659 131.018 93.1521 132.081C92.0058 132.937 90.3857 132.86 89.27 131.958C88.5135 131.347 87.7034 130.308 87.1608 128.558C86.9392 127.832 86.3202 127.304 85.5713 127.205L49.104 122.299C47.0637 122.024 46.1313 124.339 45.3977 124.851C42.83 128.382 38.4665 128.52 37.7405 123.72C38.1532 122.032 38.9021 117.492 37.3049 116.804L36.9305 116.644L34.6455 120.702L33.1095 125.318L33.996 128.925L37.5265 132.325L41.3475 133.059L44.603 132.104L47.9501 128.428L49.0506 126.777L84.1499 131.53L84.746 135.787L87.9327 139.417L90.7678 140.342L94.413 140.258L96.782 138.477L99.579 133.731L99.5866 132.081L99.0669 128.818L97.6532 127.602L99.174 126.005C99.174 125.99 103.889 122.536 99.0593 116.094Z" fill="#390075"/>
</g>
<path d="M54.1331 111.637C55.1265 116.352 58.382 120.189 62.4628 120.066C67.1167 119.929 68.6145 116.39 69.0119 115.061L69.1036 115.068L69.0348 115.061L69.1265 115.076C69.2106 116.467 69.8525 120.25 74.3536 121.449C78.2968 122.496 82.3394 119.508 84.3874 115.145L82.4464 108.229L60.3612 104.049L54.1331 111.637Z" fill="white"/>
<path d="M54.3231 111.6C55.0338 112.356 55.5153 113.074 55.9891 113.778C56.2336 114.121 56.4399 114.473 56.6692 114.809C56.7685 114.985 56.8832 115.153 56.9978 115.314C57.1124 115.474 57.2194 115.65 57.357 115.795C58.3351 117.048 59.5655 118.011 60.9105 118.409C61.2467 118.523 61.583 118.577 61.9345 118.615L62.4618 118.638L63.0273 118.607C63.7762 118.538 64.4792 118.355 65.1135 118.034C65.7402 117.713 66.3057 117.255 66.7565 116.674C67.2074 116.093 67.5589 115.405 67.7806 114.687V114.679C67.964 114.083 68.5371 113.716 69.1255 113.77L69.2172 113.778L68.9574 116.353L68.8886 116.345L69.2249 113.778L69.3166 113.793C69.9279 113.885 70.3788 114.389 70.417 114.985V114.993C70.5164 116.498 71.1277 117.973 72.2052 118.905C72.7402 119.387 73.3897 119.746 74.1004 120.006L74.6507 120.174C74.8264 120.212 75.0022 120.243 75.1779 120.273C75.5295 120.311 75.8886 120.327 76.2478 120.281C76.9585 120.204 77.6539 119.99 78.3417 119.692C79.0295 119.402 79.7172 119.02 80.3821 118.546C81.0469 118.08 81.6965 117.553 82.3308 116.972C82.9651 116.383 83.5611 115.734 84.2107 115.054L84.2183 115.046C84.2948 114.962 84.4247 114.962 84.5087 115.038C84.5622 115.084 84.5775 115.153 84.5699 115.222C84.4323 116.169 84.1114 117.086 83.6911 117.965C83.2555 118.836 82.6823 119.654 81.9869 120.38C81.2991 121.114 80.4662 121.748 79.5186 122.214C78.571 122.673 77.4934 122.948 76.4006 122.978C75.8504 123.001 75.3079 122.948 74.7653 122.864C74.4978 122.803 74.2303 122.757 73.9705 122.688L73.2292 122.451C72.2511 122.1 71.2882 121.565 70.4782 120.839C69.6681 120.113 69.0109 119.203 68.583 118.225C68.1474 117.239 67.9028 116.215 67.834 115.153L68.9345 116.353L68.8428 116.338C68.1321 116.231 67.643 115.573 67.75 114.87C67.8493 114.175 68.4913 113.694 69.179 113.77L69.2478 113.778C69.9585 113.862 70.4705 114.504 70.3865 115.214C70.3024 115.91 69.6834 116.414 68.988 116.353L68.8963 116.345L70.2489 115.428C69.9432 116.445 69.4771 117.392 68.8275 118.256C68.2009 119.127 67.3603 119.868 66.3974 120.411C65.4421 120.953 64.3799 121.274 63.333 121.412L62.5458 121.488C62.2784 121.496 61.9956 121.481 61.7129 121.481C61.1626 121.435 60.6048 121.351 60.0775 121.19C59.0153 120.869 58.0447 120.342 57.2271 119.669C56.4017 119.005 55.7063 118.217 55.1561 117.369C54.6059 116.521 54.1168 115.635 53.8799 114.664C53.6583 113.693 53.6048 112.685 53.9257 111.676C53.964 111.554 54.0939 111.493 54.2161 111.531C54.262 111.546 54.2926 111.561 54.3231 111.6Z" fill="#9F6F67"/>
<path d="M69.1446 116.247C69.0911 116.247 69.0376 116.247 68.9841 116.24C68.3422 116.156 67.8989 115.559 67.983 114.925L68.9 108.239C68.9841 107.597 69.5802 107.146 70.2144 107.237C70.8564 107.321 71.2996 107.918 71.2155 108.552L70.2985 115.239C70.2221 115.827 69.7254 116.247 69.1446 116.247Z" fill="#9F6F67"/>
<path d="M78.4073 108.384C78.0176 111.043 73.6923 114.054 69.0078 113.366C64.3233 112.678 61.0449 108.552 61.4346 105.892C61.8243 103.233 65.6606 103.569 70.3451 104.257C75.0296 104.937 78.7971 105.724 78.4073 108.384Z" fill="#9F6F67"/>
<path d="M73.6959 106.908C73.6119 107.489 71.8466 108.031 69.8138 107.733C67.7811 107.435 66.245 106.411 66.3291 105.831C66.4132 105.25 68.0715 105.441 70.1042 105.739C72.137 106.037 73.78 106.327 73.6959 106.908Z" fill="white"/>
<path d="M70.9731 107.978C70.5833 107.978 70.1859 107.948 69.7886 107.894C67.8475 107.612 66.0593 106.58 66.1739 105.808C66.2809 105.074 67.8781 105.258 70.1324 105.586C72.3792 105.915 73.961 106.205 73.8541 106.939C73.8006 107.306 73.3191 107.619 72.5244 107.81C72.0506 107.917 71.5233 107.978 70.9731 107.978ZM67.3355 105.609C66.8464 105.609 66.5025 105.671 66.4796 105.854C66.4185 106.267 67.794 107.283 69.8344 107.581C70.7514 107.719 71.6838 107.688 72.4479 107.505C73.1663 107.329 73.5178 107.069 73.5407 106.893C73.6095 106.419 71.3169 106.076 70.0789 105.9C69.3148 105.778 68.1379 105.609 67.3355 105.609Z" fill="#9F6F67"/>
<g opacity="0.3">
<path opacity="0.3" d="M83.4006 116.507C82.3154 120.848 78.2881 122.498 74.3449 121.451C69.8438 120.259 69.2018 116.469 69.1178 115.078L69.0261 115.063C68.5446 116.37 66.8405 119.808 62.1865 119.663C58.1134 119.533 54.1625 116.782 54.3765 112.319L54.9267 112.419C55.8972 114.513 60.0009 115.934 62.7215 116.018C65.0752 116.094 66.6724 115.254 67.7422 114.23L70.5927 114.65C71.3186 115.934 72.6101 117.203 74.8874 117.799C77.5163 118.502 81.5054 118.15 83.0337 116.423L83.4006 116.507Z" fill="#9F6F67"/>
</g>
<path d="M55.8064 90.1426C57.1998 84.4052 55.0514 78.958 51.0078 77.9759C46.9641 76.9938 42.5564 80.8487 41.163 86.5861C39.7695 92.3235 41.9179 97.7708 45.9616 98.7529C50.0052 99.7349 54.4129 95.88 55.8064 90.1426Z" fill="#9F6F67"/>
<path d="M52.9608 87.7167C53.429 85.7892 52.8178 83.986 51.5956 83.6892C50.3735 83.3924 49.0033 84.7143 48.5351 86.6418C48.067 88.5693 48.6782 90.3725 49.9003 90.6693C51.1225 90.9661 52.4927 89.6442 52.9608 87.7167Z" fill="white"/>
<path d="M103.594 92.9302C102.478 93.1136 101.332 93.3505 100.269 93.6562C99.1919 93.9618 98.1679 94.3439 97.1974 94.7948C96.7083 95.0088 96.2498 95.2839 95.7836 95.5361L95.1188 95.964C95.0118 96.0404 94.8971 96.1016 94.7901 96.178L94.4768 96.4149C93.6209 97.0186 92.9026 97.7828 92.1842 98.5623L90.5259 96.1321C90.6329 96.1016 90.6941 96.0863 90.7705 96.071C90.8469 96.0557 90.9157 96.0404 90.9768 96.0252C91.1144 96.0022 91.2443 95.9717 91.3818 95.9564C91.6493 95.9105 91.9091 95.8876 92.169 95.8647C92.6886 95.8188 93.2159 95.8188 93.7279 95.8341C94.7672 95.88 95.7912 96.0557 96.777 96.369C97.7552 96.69 98.7028 97.1103 99.5358 97.6911C100.392 98.226 101.118 98.9367 101.76 99.6704C101.951 99.892 101.928 100.228 101.706 100.419C101.546 100.564 101.316 100.587 101.133 100.503L101.072 100.473C100.652 100.282 100.277 100.052 99.872 99.869C99.4594 99.7009 99.0773 99.5099 98.6646 99.38C97.8546 99.0896 97.0292 98.8985 96.2039 98.7839C95.3786 98.6616 94.5456 98.6387 93.7279 98.6845C93.3152 98.7075 92.9102 98.761 92.5128 98.8221C92.3142 98.8603 92.1155 98.8909 91.9244 98.9367C91.8251 98.9596 91.7334 98.9826 91.6417 99.0055C91.5958 99.0131 91.55 99.0284 91.5117 99.0361L91.42 99.0666L91.3818 99.0743C90.5718 99.3112 89.7159 98.845 89.479 98.035C89.3338 97.5383 89.4561 97.011 89.7618 96.6365C90.5947 95.6125 91.5041 94.619 92.6045 93.8625C93.1242 93.4422 93.7279 93.1518 94.2934 92.8155C94.8971 92.5481 95.4856 92.2501 96.1198 92.0666C97.3578 91.654 98.6493 91.4247 99.9255 91.3865C101.209 91.3559 102.463 91.4706 103.708 91.8679C103.991 91.9597 104.144 92.2577 104.06 92.5404C103.999 92.7391 103.831 92.8767 103.64 92.9073L103.594 92.9302Z" fill="#9F6F67"/>
</svg>
