<svg width="123" height="117" viewBox="0 0 123 117" fill="none" xmlns="http://www.w3.org/2000/svg">
<path d="M25.9932 17L26.6963 13.5283H24.0332L23.3301 17H21.8359L22.5303 13.5283H20.5L20.79 12.043H22.8379L23.418 9.13379H21.2998L21.5986 7.65723H23.7168L24.4111 4.31738H25.9053L25.2373 7.65723H27.8916L28.5771 4.31738H30.0801L29.4033 7.65723H31.5479L31.2666 9.13379H29.0957L28.498 12.043H30.7305L30.4492 13.5283H28.208L27.5049 17H25.9932ZM24.2705 12.1133H27.0303L27.6543 9.07227H24.8857L24.2705 12.1133ZM40.7412 17.2373C39.4756 17.2373 38.4238 16.8887 37.5859 16.1914C36.748 15.4883 36.2998 14.583 36.2412 13.4756H38.1221C38.1924 14.1025 38.4707 14.6123 38.957 15.0049C39.4492 15.3975 40.0498 15.5938 40.7588 15.5938C41.5557 15.5938 42.2061 15.3418 42.71 14.8379C43.2139 14.334 43.4658 13.6836 43.4658 12.8867C43.4658 12.0898 43.2139 11.4365 42.71 10.9268C42.2119 10.4111 41.5674 10.1533 40.7764 10.1533C40.2256 10.1533 39.7246 10.2734 39.2734 10.5137C38.8281 10.748 38.4824 11.0732 38.2363 11.4893H36.4346L37.1025 4.31738H44.6523V5.97852H38.6846L38.333 9.87207H38.377C38.6582 9.46777 39.0449 9.1543 39.5371 8.93164C40.0352 8.70312 40.5918 8.58887 41.207 8.58887C42.4258 8.58887 43.4277 8.99023 44.2129 9.79297C44.998 10.5898 45.3906 11.6035 45.3906 12.834C45.3906 14.1348 44.957 15.1953 44.0898 16.0156C43.2285 16.8301 42.1123 17.2373 40.7412 17.2373ZM52.5273 17.2109C50.7461 17.2109 49.3311 16.6221 48.2822 15.4443C47.2393 14.2666 46.7178 12.6699 46.7178 10.6543C46.7178 8.65039 47.2422 7.05957 48.291 5.88184C49.3398 4.69824 50.752 4.10645 52.5273 4.10645C53.9688 4.10645 55.1846 4.51367 56.1748 5.32812C57.165 6.13672 57.7422 7.2002 57.9062 8.51855H55.9551C55.7793 7.7041 55.3779 7.05371 54.751 6.56738C54.1299 6.0752 53.3887 5.8291 52.5273 5.8291C51.373 5.8291 50.4502 6.26855 49.7588 7.14746C49.0732 8.02051 48.7305 9.18945 48.7305 10.6543C48.7305 12.1367 49.0732 13.3145 49.7588 14.1875C50.4443 15.0547 51.3701 15.4883 52.5361 15.4883C53.415 15.4883 54.1533 15.2744 54.751 14.8467C55.3545 14.4189 55.7559 13.8213 55.9551 13.0537H57.915C57.6748 14.3662 57.0801 15.3887 56.1309 16.1211C55.1875 16.8477 53.9863 17.2109 52.5273 17.2109ZM64.2783 17.2461C63.3408 17.2461 62.5088 17.0146 61.7822 16.5518C61.0615 16.0889 60.4932 15.4297 60.0771 14.5742C59.5557 13.5605 59.2949 12.3125 59.2949 10.8301C59.2949 8.70898 59.7432 7.05371 60.6396 5.86426C61.5361 4.66895 62.7783 4.07129 64.3662 4.07129C65.4854 4.07129 66.4434 4.37891 67.2402 4.99414C68.043 5.60938 68.541 6.42383 68.7344 7.4375H66.7656C66.6133 6.91602 66.3174 6.5 65.8779 6.18945C65.4385 5.87891 64.9287 5.72363 64.3486 5.72363C63.3467 5.72363 62.5703 6.16016 62.0195 7.0332C61.4688 7.90039 61.1904 9.13086 61.1846 10.7246H61.2197C61.501 10.1035 61.9551 9.60547 62.582 9.23047C63.209 8.85547 63.915 8.66797 64.7002 8.66797C65.9072 8.66797 66.9092 9.06641 67.7061 9.86328C68.5088 10.6602 68.9102 11.6592 68.9102 12.8604C68.9102 14.1318 68.4736 15.1807 67.6006 16.0068C66.7275 16.833 65.6201 17.2461 64.2783 17.2461ZM64.2607 15.585C65.0107 15.585 65.6465 15.3271 66.168 14.8115C66.6895 14.2959 66.9502 13.666 66.9502 12.9219C66.9502 12.1543 66.6982 11.5215 66.1943 11.0234C65.6963 10.5254 65.0576 10.2764 64.2783 10.2764C63.5049 10.2764 62.8604 10.5254 62.3447 11.0234C61.835 11.5156 61.5801 12.1367 61.5801 12.8867C61.5801 13.6426 61.8379 14.2812 62.3535 14.8027C62.8691 15.3242 63.5049 15.585 64.2607 15.585ZM78.9736 17L77.8135 13.5723H72.9795L71.8193 17H69.7715L74.3506 4.31738H76.4775L81.0566 17H78.9736ZM75.3701 6.42676L73.4805 11.9902H77.3125L75.4229 6.42676H75.3701ZM90.5049 15.2949V17H82.4541V4.31738H90.5049V6.01367H84.4229V9.72266H90.1797V11.3574H84.4229V15.2949H90.5049ZM97.6152 17H92.5264V4.31738H97.5889C98.7139 4.31738 99.6162 4.60742 100.296 5.1875C100.976 5.76172 101.315 6.52637 101.315 7.48145C101.315 8.15527 101.096 8.75879 100.656 9.29199C100.223 9.81934 99.6895 10.1357 99.0566 10.2412V10.3115C99.9238 10.4111 100.621 10.7451 101.148 11.3135C101.676 11.876 101.939 12.5762 101.939 13.4141C101.939 14.5332 101.556 15.4121 100.788 16.0508C100.021 16.6836 98.9629 17 97.6152 17ZM94.4951 5.92578V9.71387H96.7012C97.5508 9.71387 98.2041 9.54395 98.6611 9.2041C99.1182 8.86426 99.3467 8.38086 99.3467 7.75391C99.3467 7.16797 99.1533 6.7168 98.7666 6.40039C98.3799 6.08398 97.8291 5.92578 97.1143 5.92578H94.4951ZM94.4951 15.3916H97.2109C98.0957 15.3916 98.7695 15.2129 99.2324 14.8555C99.6953 14.498 99.9268 13.9766 99.9268 13.291C99.9268 11.9082 98.9834 11.2168 97.0967 11.2168H94.4951V15.3916Z" fill="white"/>
<rect opacity="0.2" y="29" width="123" height="60" rx="30" fill="#5C6AEB"/>
<circle cx="93" cy="59" r="26" fill="#5C6AEB"/>
<path d="M18.5938 100.727H22.6172C23.6745 100.727 24.5391 101.065 25.2109 101.742C25.888 102.414 26.2266 103.281 26.2266 104.344C26.2266 105.411 25.888 106.284 25.2109 106.961C24.5339 107.638 23.6641 107.977 22.6016 107.977H20V112H18.5938V100.727ZM20 101.977V106.727H22.25C23.0521 106.727 23.6745 106.518 24.1172 106.102C24.5599 105.68 24.7812 105.094 24.7812 104.344C24.7812 103.594 24.5599 103.013 24.1172 102.602C23.6797 102.185 23.0573 101.977 22.25 101.977H20ZM27.6328 112V103.875H28.9141V105.203H28.9453C29.0807 104.75 29.3229 104.393 29.6719 104.133C30.026 103.867 30.4401 103.734 30.9141 103.734C31.0234 103.734 31.2057 103.753 31.4609 103.789V105.109C31.3151 105.057 31.0729 105.031 30.7344 105.031C30.2083 105.031 29.7865 105.206 29.4688 105.555C29.151 105.904 28.9922 106.365 28.9922 106.938V112H27.6328ZM32.6406 112V103.875H34V112H32.6406ZM33.3203 102.508C33.0911 102.508 32.8932 102.424 32.7266 102.258C32.5599 102.091 32.4766 101.893 32.4766 101.664C32.4766 101.43 32.5599 101.232 32.7266 101.07C32.8932 100.904 33.0911 100.82 33.3203 100.82C33.5547 100.82 33.7552 100.904 33.9219 101.07C34.0885 101.232 34.1719 101.43 34.1719 101.664C34.1719 101.893 34.0885 102.091 33.9219 102.258C33.7552 102.424 33.5547 102.508 33.3203 102.508ZM35.8359 112V103.875H37.1172V105.172H37.1484C37.3464 104.729 37.6458 104.38 38.0469 104.125C38.4479 103.865 38.9167 103.734 39.4531 103.734C40.0052 103.734 40.4792 103.87 40.875 104.141C41.2708 104.406 41.5573 104.786 41.7344 105.281H41.7656C41.9896 104.797 42.3255 104.419 42.7734 104.148C43.2266 103.872 43.7396 103.734 44.3125 103.734C45.1146 103.734 45.7552 103.977 46.2344 104.461C46.7188 104.94 46.9609 105.583 46.9609 106.391V112H45.6016V106.703C45.6016 106.146 45.4531 105.714 45.1562 105.406C44.8646 105.094 44.4505 104.938 43.9141 104.938C43.3776 104.938 42.9375 105.117 42.5938 105.477C42.25 105.831 42.0781 106.284 42.0781 106.836V112H40.7188V106.555C40.7188 106.065 40.5677 105.674 40.2656 105.383C39.9635 105.086 39.5599 104.938 39.0547 104.938C38.5182 104.938 38.0729 105.125 37.7188 105.5C37.3698 105.875 37.1953 106.344 37.1953 106.906V112H35.8359ZM51.375 110.984C52.0156 110.984 52.5521 110.786 52.9844 110.391C53.4219 109.99 53.6406 109.497 53.6406 108.914V108.25L51.4688 108.383C50.9219 108.419 50.4974 108.552 50.1953 108.781C49.8984 109.01 49.75 109.318 49.75 109.703C49.75 110.089 49.8984 110.398 50.1953 110.633C50.4922 110.867 50.8854 110.984 51.375 110.984ZM51.0703 112.141C50.263 112.141 49.6094 111.917 49.1094 111.469C48.6146 111.021 48.3672 110.432 48.3672 109.703C48.3672 109.005 48.6224 108.448 49.1328 108.031C49.6484 107.615 50.375 107.38 51.3125 107.328L53.6406 107.195V106.516C53.6406 106.021 53.4844 105.633 53.1719 105.352C52.8594 105.07 52.4219 104.93 51.8594 104.93C51.3438 104.93 50.9245 105.044 50.6016 105.273C50.2786 105.497 50.0729 105.812 49.9844 106.219H48.6719C48.7188 105.495 49.0312 104.901 49.6094 104.438C50.1927 103.969 50.9531 103.734 51.8906 103.734C52.8438 103.734 53.599 103.974 54.1562 104.453C54.7188 104.932 55 105.576 55 106.383V112H53.7109V110.602H53.6797C53.4349 111.065 53.0755 111.438 52.6016 111.719C52.1276 112 51.6172 112.141 51.0703 112.141ZM56.7266 112V103.875H58.0078V105.203H58.0391C58.1745 104.75 58.4167 104.393 58.7656 104.133C59.1198 103.867 59.5339 103.734 60.0078 103.734C60.1172 103.734 60.2995 103.753 60.5547 103.789V105.109C60.4089 105.057 60.1667 105.031 59.8281 105.031C59.3021 105.031 58.8802 105.206 58.5625 105.555C58.2448 105.904 58.0859 106.365 58.0859 106.938V112H56.7266ZM62.3359 115.039C62.0964 115.039 61.901 115.023 61.75 114.992V113.852C61.875 113.878 62.0521 113.891 62.2812 113.891C62.6615 113.891 62.9661 113.789 63.1953 113.586C63.4245 113.388 63.6172 113.052 63.7734 112.578L63.9609 112.008L60.9609 103.875H62.4141L64.6641 110.641H64.6875L66.9375 103.875H68.3672L65.1719 112.57C64.8229 113.518 64.4453 114.167 64.0391 114.516C63.638 114.865 63.0703 115.039 62.3359 115.039ZM79.4766 106.539H78.1484C78.0443 106.07 77.8125 105.685 77.4531 105.383C77.099 105.081 76.638 104.93 76.0703 104.93C75.362 104.93 74.7917 105.203 74.3594 105.75C73.9271 106.292 73.7109 107.021 73.7109 107.938C73.7109 108.87 73.9271 109.604 74.3594 110.141C74.7969 110.677 75.3724 110.945 76.0859 110.945C76.6328 110.945 77.0833 110.81 77.4375 110.539C77.7969 110.263 78.0365 109.878 78.1562 109.383H79.4922C79.388 110.195 79.0208 110.859 78.3906 111.375C77.7656 111.885 76.9948 112.141 76.0781 112.141C74.9427 112.141 74.0339 111.766 73.3516 111.016C72.6693 110.26 72.3281 109.234 72.3281 107.938C72.3281 106.661 72.6693 105.643 73.3516 104.883C74.0339 104.117 74.9375 103.734 76.0625 103.734C77.0312 103.734 77.8177 104.008 78.4219 104.555C79.0312 105.102 79.3828 105.763 79.4766 106.539ZM84.1094 112.141C82.974 112.141 82.0625 111.763 81.375 111.008C80.6875 110.247 80.3438 109.224 80.3438 107.938C80.3438 106.651 80.6875 105.63 81.375 104.875C82.0625 104.115 82.974 103.734 84.1094 103.734C85.2396 103.734 86.1484 104.115 86.8359 104.875C87.5234 105.63 87.8672 106.651 87.8672 107.938C87.8672 109.219 87.5234 110.24 86.8359 111C86.1484 111.76 85.2396 112.141 84.1094 112.141ZM82.3672 110.148C82.7995 110.68 83.3802 110.945 84.1094 110.945C84.8385 110.945 85.4167 110.682 85.8438 110.156C86.2708 109.625 86.4844 108.885 86.4844 107.938C86.4844 106.99 86.2708 106.253 85.8438 105.727C85.4167 105.195 84.8385 104.93 84.1094 104.93C83.3802 104.93 82.7995 105.195 82.3672 105.727C81.9401 106.258 81.7266 106.995 81.7266 107.938C81.7266 108.88 81.9401 109.617 82.3672 110.148ZM89.3125 112V100.727H90.6719V112H89.3125ZM95.875 112.141C94.7396 112.141 93.8281 111.763 93.1406 111.008C92.4531 110.247 92.1094 109.224 92.1094 107.938C92.1094 106.651 92.4531 105.63 93.1406 104.875C93.8281 104.115 94.7396 103.734 95.875 103.734C97.0052 103.734 97.9141 104.115 98.6016 104.875C99.2891 105.63 99.6328 106.651 99.6328 107.938C99.6328 109.219 99.2891 110.24 98.6016 111C97.9141 111.76 97.0052 112.141 95.875 112.141ZM94.1328 110.148C94.5651 110.68 95.1458 110.945 95.875 110.945C96.6042 110.945 97.1823 110.682 97.6094 110.156C98.0365 109.625 98.25 108.885 98.25 107.938C98.25 106.99 98.0365 106.253 97.6094 105.727C97.1823 105.195 96.6042 104.93 95.875 104.93C95.1458 104.93 94.5651 105.195 94.1328 105.727C93.7057 106.258 93.4922 106.995 93.4922 107.938C93.4922 108.88 93.7057 109.617 94.1328 110.148ZM101.008 112V103.875H102.289V105.203H102.32C102.456 104.75 102.698 104.393 103.047 104.133C103.401 103.867 103.815 103.734 104.289 103.734C104.398 103.734 104.581 103.753 104.836 103.789V105.109C104.69 105.057 104.448 105.031 104.109 105.031C103.583 105.031 103.161 105.206 102.844 105.555C102.526 105.904 102.367 106.365 102.367 106.938V112H101.008Z" fill="#817D90"/>
</svg>
