<svg width="355" height="290" viewBox="0 0 355 290" fill="none" xmlns="http://www.w3.org/2000/svg">
<path d="M92.5131 260.36C92.4766 256.96 92.795 253.565 93.463 250.231L83.7247 253.489C80.1687 243.688 89.8207 229.89 89.8207 229.89L77.8497 234.62C76.0336 220.096 85.4697 199.766 85.4697 199.766C27.7483 188.872 -17.2732 91.933 12.4981 88.664C42.2694 85.3951 107.984 119.162 107.984 119.162C115.246 109.002 142.838 106.462 142.838 106.462C142.838 106.462 156.998 91.2218 183.501 91.2218C183.501 91.2218 212.909 10.9834 229.983 3.72152C247.057 -3.54033 282.627 49.1062 267.379 134.064C267.379 134.064 282.99 134.427 292.431 142.779L282.629 149.677C282.629 149.677 303.315 156.208 302.233 168.908L295.697 171.087C295.697 171.087 302.68 181.978 302.274 187.424H295.697C295.697 187.424 307.044 205.362 302.301 230.175C300.996 236.987 295.098 248.376 285.03 260.365" fill="#FAAF5E"/>
<path d="M169.162 145.151C165.352 144.998 158.27 131.506 153.475 122.067C150.513 116.225 147.425 109.083 144.331 105.026C143.333 105.91 142.825 106.454 142.825 106.454C142.825 106.454 140.882 106.632 137.895 107.086C139.581 115.1 147.547 130.312 148.634 137.312C150.087 146.571 145.548 152.016 145.548 152.016L169.162 145.151Z" fill="#F1F0F3"/>
<path d="M285.006 260.362C295.083 248.371 300.981 236.994 302.278 230.172C307.031 205.359 295.674 187.421 295.674 187.421H295.928C288.075 182.849 277.681 176.245 264.085 166.725C228.161 141.549 203.125 158.559 199.823 158.374C193.305 158.011 181.329 135.125 152.665 145.151C124.001 155.176 131.583 181.61 131.583 181.61C131.583 181.61 102.358 202.057 108.347 240.426C109.521 247.944 109.239 254.523 107.89 260.36L285.006 260.362Z" fill="#F1F0F3"/>
<path d="M287.5 257.5C286.92 257.5 286.489 257.812 286 257.5C285.511 257.188 285.245 257.026 285 256.5C284.755 255.974 281.908 260.538 281.984 259.963C282.06 259.387 282.299 258.846 282.672 258.402C293.287 245.77 298.258 234.99 299.291 229.598C301.125 219.949 300.654 210.003 297.915 200.571C295.827 193.413 293.142 189.088 293.117 189.044C292.827 188.583 292.665 188.053 292.65 187.509C292.634 186.964 292.765 186.425 293.028 185.949C293.291 185.472 293.678 185.074 294.147 184.797C294.616 184.52 295.15 184.374 295.695 184.373H298.791C297.76 180.84 295.159 175.895 293.129 172.728C292.879 172.337 292.721 171.894 292.668 171.433C292.614 170.972 292.667 170.505 292.822 170.067C292.976 169.63 293.229 169.233 293.56 168.908C293.891 168.583 294.292 168.338 294.732 168.191L299.129 166.725C298.621 163.388 295.984 160.172 291.288 157.147C288.281 155.256 285.064 153.722 281.702 152.575C281.161 152.404 280.678 152.084 280.309 151.653C279.94 151.222 279.698 150.696 279.611 150.135C279.525 149.574 279.597 149 279.819 148.477C280.041 147.955 280.405 147.505 280.869 147.178L287.219 142.707C278.743 137.465 267.425 137.119 267.295 137.107C266.856 137.096 266.423 136.99 266.029 136.797C265.634 136.604 265.285 136.327 265.007 135.986C264.729 135.646 264.528 135.249 264.418 134.823C264.308 134.397 264.291 133.953 264.369 133.52C271.031 96.3981 267.359 68.4302 263.099 51.5062C258.296 32.3978 250.059 16.7083 241.062 9.53788C238.855 7.77767 234.631 5.04463 231.156 6.52291C227.582 8.04691 219.183 15.9031 203.104 51.4478C193.772 72.0751 186.424 92.0674 186.34 92.2681C186.125 92.8544 185.736 93.3605 185.224 93.718C184.712 94.0756 184.102 94.2672 183.478 94.2671C170.562 94.2671 160.816 98.1355 154.916 101.379C148.484 104.917 145.076 108.509 145.043 108.547C144.531 109.092 143.838 109.431 143.094 109.502C135.827 110.165 115.749 113.535 110.463 120.934C110.038 121.53 109.412 121.953 108.701 122.125C107.99 122.298 107.241 122.209 106.59 121.874C105.944 121.542 41.3498 88.5673 12.8307 91.6915C11.2559 91.8642 6.46043 92.39 6.11499 101.369C5.87369 107.607 7.92347 116.276 11.8859 125.773C16.0515 135.758 22.0306 146.093 29.1782 155.684C45.9193 178.13 66.6456 193.103 86.041 196.763C86.4972 196.849 86.9277 197.038 87.2997 197.316C87.6717 197.594 87.9754 197.953 88.1875 198.366C88.3997 198.778 88.5148 199.234 88.524 199.698C88.5332 200.162 88.4363 200.622 88.2407 201.043C88.1594 201.219 80.8239 217.208 80.669 230.228L88.7157 227.073C89.3234 226.837 89.9907 226.803 90.6196 226.974C91.2486 227.145 91.806 227.514 92.2101 228.025C92.6142 228.537 92.8437 229.164 92.8648 229.816C92.8859 230.467 92.6976 231.109 92.3275 231.645C90.2244 234.658 85.6245 242.938 86.0106 249.512L92.4926 247.337C93.0049 247.165 93.5538 247.133 94.0829 247.242C94.6121 247.352 95.1025 247.601 95.5039 247.963C95.9053 248.325 96.2033 248.787 96.3673 249.302C96.5313 249.817 96.5554 250.366 96.4372 250.893C95.8233 253.996 95.5289 257.154 95.5584 260.317C95.5642 260.717 95.4912 261.115 95.3434 261.487C95.1956 261.859 94.976 262.198 94.6971 262.485C94.4182 262.772 94.0855 263.002 93.7179 263.16C93.3503 263.319 92.9551 263.403 92.5549 263.409C92.1546 263.415 91.7571 263.342 91.3851 263.194C91.013 263.046 90.6737 262.827 90.3866 262.548C90.0994 262.269 89.87 261.936 89.7114 261.569C89.5529 261.201 89.4683 260.806 89.4624 260.406C89.4396 258.501 89.5244 256.596 89.7164 254.701L84.6948 256.387C83.9407 256.641 83.1174 256.589 82.4007 256.243C81.6841 255.898 81.131 255.286 80.8595 254.538C78.6192 248.376 80.6918 241.165 83.0718 235.836L78.9672 237.454C78.5346 237.625 78.0689 237.694 77.6054 237.657C77.142 237.62 76.6932 237.477 76.2934 237.24C75.8936 237.003 75.5534 236.677 75.2988 236.288C75.0441 235.899 74.8819 235.457 74.8244 234.996C73.3639 223.312 78.5506 208.58 81.2252 201.95C71.2075 199.443 61.1592 194.427 51.3295 187.005C41.7562 179.781 32.4065 170.213 24.2912 159.334C16.849 149.357 10.6133 138.565 6.25723 128.125C1.90114 117.686 -0.255319 108.346 0.0240807 101.138C0.18918 96.8578 1.22042 93.3628 3.08478 90.7517C5.17519 87.8256 8.31717 86.0578 12.1653 85.6336C25.0126 84.2239 45.3249 89.0093 72.5333 99.8576C88.3931 106.169 102.107 112.827 107.232 115.374C111.146 111.491 117.915 108.356 127.412 106.037C132.037 104.923 136.726 104.088 141.451 103.538C144.885 100.274 158.482 88.867 181.375 88.1914C183.473 82.6034 189.848 65.9766 197.562 48.9256C203.12 36.6422 208.281 26.5305 212.904 18.8698C219.03 8.70985 224.222 2.845 228.781 0.904439C233.511 -1.10724 239.226 0.261819 244.87 4.76269C249.614 8.54474 254.268 14.4731 258.349 21.9026C262.764 29.9569 266.355 39.4133 269.017 50.0127C273.29 67.0078 277.003 94.7166 270.943 131.275C276.396 131.895 287.021 133.916 294.443 140.482C294.788 140.786 295.06 141.165 295.238 141.589C295.416 142.013 295.496 142.472 295.472 142.931C295.447 143.391 295.319 143.839 295.097 144.242C294.875 144.644 294.564 144.992 294.189 145.257L288.969 148.93C295.702 152.087 306.17 158.725 305.276 169.164C305.225 169.757 305.002 170.322 304.633 170.79C304.265 171.257 303.768 171.607 303.203 171.795L300.267 172.773C302.522 176.786 305.649 183.233 305.321 187.645C305.264 188.413 304.918 189.132 304.353 189.655C303.787 190.179 303.044 190.469 302.273 190.467H300.709C306.316 203.109 307.912 217.166 305.281 230.744C303.716 238.917 299 246.694 289.5 258C289.214 258.341 289.218 256.196 289 257C289.3 255.892 287.945 257.5 287.5 257.5Z" fill="#683A32"/>
<path d="M122.55 177.294C128.342 177.294 133.038 172.599 133.038 166.806C133.038 161.014 128.342 156.319 122.55 156.319C116.758 156.319 112.062 161.014 112.062 166.806C112.062 172.599 116.758 177.294 122.55 177.294Z" fill="#683A32"/>
<path d="M124.669 165.931C126.364 165.931 127.737 164.557 127.737 162.863C127.737 161.168 126.364 159.794 124.669 159.794C122.975 159.794 121.601 161.168 121.601 162.863C121.601 164.557 122.975 165.931 124.669 165.931Z" fill="white"/>
<path d="M208.918 99.1945C208.918 99.1945 221.618 25.4914 233.97 20.0457C246.322 14.5999 268.098 69.06 255.751 124.965C255.751 124.965 250.305 137.31 223.074 110.805C223.074 110.805 229.609 104.996 236.508 107.538C236.508 107.538 232.515 101.729 221.984 101.729C221.984 101.729 223.437 95.5572 229.972 94.4675C229.975 94.4853 219.446 88.6637 208.918 99.1945Z" fill="#FBDA98"/>
<path d="M250.122 130.892C242.967 130.892 233.153 124.872 220.953 112.997C220.653 112.705 220.416 112.354 220.258 111.967C220.099 111.579 220.022 111.163 220.032 110.744C220.041 110.325 220.137 109.913 220.313 109.533C220.489 109.153 220.741 108.813 221.055 108.535C222.688 107.168 224.518 106.055 226.482 105.233C225.004 104.931 223.498 104.783 221.989 104.791C221.53 104.791 221.076 104.687 220.662 104.487C220.248 104.286 219.885 103.995 219.6 103.635C219.315 103.275 219.114 102.854 219.014 102.406C218.914 101.957 218.917 101.492 219.023 101.044C219.531 99.1928 220.421 97.4679 221.634 95.9794C217.885 96.2893 214.336 98.0953 211.075 101.357C210.617 101.814 210.026 102.114 209.387 102.213C208.747 102.312 208.093 102.205 207.518 101.907C206.944 101.61 206.479 101.137 206.191 100.558C205.903 99.9782 205.807 99.3222 205.916 98.6845C205.949 98.4991 209.165 79.9317 213.856 60.9402C222.639 25.3803 228.842 18.9871 232.741 17.265C233.689 16.8443 234.714 16.6271 235.751 16.6274C238.959 16.6274 242.18 18.6112 245.324 22.5279C251.717 30.4857 257.277 45.6418 260.196 63.0636C262.627 77.5746 264.346 100.209 258.733 125.636C258.689 125.834 258.626 126.026 258.545 126.21C257.783 127.945 255.136 130.892 250.122 130.892ZM227.956 111.25C240.602 122.967 247.222 124.801 250.12 124.801C251.832 124.801 252.604 124.151 252.886 123.815C258.156 99.5481 256.505 77.9506 254.179 64.0695C251.466 47.8745 246.249 33.4194 240.567 26.3429C237.867 22.9825 236.195 22.7209 235.741 22.7209C235.552 22.72 235.365 22.7599 235.192 22.8377C234.471 23.1552 231.794 25.0323 227.689 35.7917C225.149 42.4668 222.477 51.4152 219.767 62.388C216.947 73.8053 214.666 85.06 213.302 92.1771C216.234 90.6445 219.489 89.8371 222.797 89.8225C227.714 89.8225 231.075 91.6005 231.433 91.8011C231.987 92.107 232.432 92.5777 232.706 93.1478C232.98 93.718 233.071 94.3594 232.964 94.9831C232.857 95.6067 232.559 96.1817 232.111 96.6284C231.663 97.075 231.087 97.371 230.463 97.4755C229.174 97.6732 227.972 98.2436 227.003 99.1163C235.347 100.628 238.84 105.565 239.01 105.812C239.375 106.344 239.561 106.979 239.542 107.624C239.523 108.269 239.3 108.892 238.904 109.402C238.509 109.912 237.962 110.283 237.341 110.463C236.721 110.642 236.06 110.62 235.454 110.399C234.624 110.095 233.747 109.941 232.863 109.944C231.042 109.949 229.317 110.562 227.956 111.25Z" fill="#683A32"/>
<path d="M98.1973 137.012C98.1973 137.012 34.2174 98.2953 22.0101 104.036C9.80292 109.776 36.6431 161.948 86.9528 189.28C86.9528 189.28 99.8432 193.263 97.6868 155.323C97.6868 155.323 89.0152 156.448 86.4117 163.324C86.4117 163.324 84.6337 156.499 91.5476 148.549C91.5476 148.549 85.9342 145.598 80.8288 149.819C80.8288 149.819 83.346 138.061 98.1973 137.012Z" fill="#FBDA98"/>
<path d="M87.9696 192.446C87.3215 192.454 86.6755 192.369 86.0519 192.192C85.8592 192.132 85.6729 192.054 85.4957 191.958C66.2374 181.493 48.1222 166.075 34.49 148.542C22.8518 133.574 15.783 118.676 16.042 109.662C16.1995 104.206 19.0342 102.067 20.708 101.28C21.9552 100.693 23.4385 100.406 25.2419 100.406C33.0016 100.406 47.9571 106.169 69.6918 117.533C85.6405 125.872 99.6282 134.323 99.7679 134.407C100.322 134.742 100.755 135.244 101.004 135.842C101.253 136.44 101.306 137.101 101.154 137.73C101.002 138.36 100.653 138.924 100.159 139.343C99.6646 139.761 99.0499 140.01 98.4039 140.056C93.0699 140.431 89.6206 142.39 87.4286 144.506C89.3462 144.559 91.2309 145.017 92.9582 145.852C93.3651 146.066 93.7184 146.369 93.9916 146.738C94.2648 147.108 94.4509 147.535 94.5359 147.986C94.6209 148.438 94.6027 148.903 94.4825 149.347C94.3624 149.79 94.1434 150.201 93.8421 150.548C92.8484 151.68 91.9743 152.912 91.2335 154.224C93.1438 153.282 95.1852 152.634 97.2889 152.301C97.7043 152.247 98.1265 152.279 98.5289 152.395C98.9314 152.512 99.3055 152.71 99.628 152.977C99.9505 153.245 100.214 153.576 100.403 153.95C100.592 154.324 100.702 154.733 100.726 155.151C101.716 172.57 99.7095 184.058 94.7565 189.301C92.1733 192.039 89.3946 192.446 87.9696 192.446ZM87.9493 186.35C88.4878 186.35 89.3489 186.149 90.3268 185.113C92.3054 183.02 95.3839 176.911 94.8124 159.291C92.7499 160.139 90.2887 161.684 89.26 164.401C89.0304 165.007 88.6143 165.523 88.0717 165.876C87.5292 166.229 86.8884 166.399 86.2422 166.364C85.596 166.328 84.9779 166.088 84.4775 165.677C83.977 165.267 83.6202 164.708 83.4586 164.081C83.3849 163.792 81.9346 157.917 86.2729 150.619C84.9775 150.765 83.7556 151.296 82.7652 152.143C82.2773 152.547 81.6759 152.788 81.0445 152.834C80.4132 152.88 79.7832 152.728 79.242 152.4C78.7008 152.072 78.2753 151.583 78.0245 151.002C77.7738 150.42 77.7102 149.775 77.8427 149.156C77.9239 148.783 78.7063 145.402 81.5688 141.867C83.8118 139.116 86.7271 136.992 90.0321 135.699C71.5994 125.001 37.2637 106.5 25.2444 106.5C24.0989 106.5 23.5401 106.683 23.309 106.792C22.4022 107.219 22.1711 108.684 22.138 109.84C21.9602 116.025 27.2002 129.235 39.3059 144.803C52.3233 161.541 69.5826 176.273 87.9493 186.35Z" fill="#683A32"/>
<path d="M199.842 158.374L199.555 158.389C199.461 158.389 199.341 158.389 199.194 158.376C199.029 158.36 198.866 158.334 198.704 158.3C197.959 158.16 196.926 157.741 195.706 157.063C194.487 156.385 193.095 155.476 191.526 154.442C189.956 153.408 188.211 152.25 186.273 151.114C184.23 149.899 182.099 148.839 179.898 147.945C177.509 146.985 175.02 146.296 172.478 145.892C171.15 145.693 169.812 145.57 168.47 145.524C168.13 145.509 167.789 145.509 167.454 145.511C167.119 145.514 166.768 145.511 166.425 145.532C165.737 145.552 165.046 145.587 164.35 145.648C161.517 145.92 158.717 146.468 155.991 147.284L154.952 147.599L153.921 147.939L153.791 147.983L153.728 148.003H153.695L153.746 147.983L153.476 148.084L152.935 148.287L151.866 148.701C151.104 148.955 150.54 149.253 149.895 149.517C149.58 149.654 149.265 149.771 148.953 149.926L148.015 150.401L147.068 150.873C146.763 151.038 146.471 151.224 146.174 151.394L145.277 151.902C144.978 152.072 144.708 152.275 144.421 152.458L143.576 153.019C143.294 153.205 143.042 153.423 142.773 153.621C142.504 153.82 142.245 154.028 141.978 154.223C141.711 154.419 141.47 154.653 141.229 154.864C139.315 156.513 137.644 158.423 136.263 160.538C136.09 160.792 135.948 161.046 135.79 161.3C135.633 161.554 135.478 161.808 135.333 162.062L134.929 162.847C134.797 163.101 134.653 163.355 134.538 163.626C134.305 164.155 134.03 164.665 133.855 165.194L133.55 165.973C133.451 166.227 133.372 166.494 133.281 166.751C132.64 168.658 132.171 170.619 131.879 172.61C131.646 174.182 131.509 175.767 131.467 177.355C131.434 178.689 131.467 179.748 131.5 180.472C131.533 181.196 131.579 181.584 131.579 181.584C131.579 181.584 131.409 181.231 131.152 180.543C130.786 179.542 130.483 178.519 130.246 177.48C129.364 173.686 129.227 169.758 129.844 165.912C130.27 163.269 131.08 160.702 132.247 158.292C133.593 155.569 135.37 153.082 137.51 150.927C137.789 150.647 138.059 150.355 138.351 150.083C138.643 149.811 138.945 149.557 139.247 149.296C139.55 149.034 139.847 148.76 140.167 148.519L141.13 147.79C141.455 147.551 141.77 147.282 142.107 147.071L143.123 146.405C143.466 146.189 143.807 145.961 144.157 145.755L145.227 145.166L146.301 144.574C146.669 144.386 147.063 144.213 147.436 144.03C148.198 143.68 148.996 143.284 149.684 143.037L150.756 142.618L151.292 142.41L151.561 142.306L151.932 142.176L153.088 141.788L154.259 141.427C157.409 140.488 160.659 139.924 163.941 139.748C164.759 139.707 165.577 139.684 166.39 139.705C166.796 139.705 167.203 139.725 167.606 139.753C168.01 139.781 168.414 139.801 168.816 139.842C170.401 139.979 171.974 140.233 173.522 140.604C176.429 141.298 179.23 142.378 181.851 143.815C184.135 145.079 186.292 146.561 188.292 148.239C190.126 149.763 191.675 151.287 193.004 152.628C194.332 153.969 195.452 155.168 196.413 156.075C197.129 156.804 197.935 157.438 198.81 157.965C198.963 158.056 199.107 158.11 199.232 158.173C199.356 158.237 199.463 158.265 199.552 158.292L199.842 158.374Z" fill="#683A32"/>
<path d="M176.281 150.277C180.442 158.283 178.768 177.625 167.391 183.55C156.015 189.476 139.202 179.71 135.042 171.701C130.881 163.693 138.09 154.986 149.469 149.067C160.848 143.149 172.121 142.268 176.281 150.277Z" fill="#683A32"/>
<path d="M168.628 193.954C168.628 193.954 155.928 213.56 148.308 215.013C140.689 216.466 135.964 208.477 129.792 210.657C123.62 212.836 146.856 249.506 183.894 241.154C220.932 232.803 230.701 211.744 232.154 199.399C233.607 187.055 230.35 167.088 223.802 170.718C217.254 174.347 218.722 189.598 199.113 192.864C179.505 196.13 182.776 189.4 168.628 193.954Z" fill="#683A32"/>
<path d="M172.989 245.435C157.909 245.435 146.624 238.76 139.812 233.161C132.512 227.162 126.776 219.24 125.86 213.896C125.252 210.352 126.957 208.414 128.755 207.779C129.784 207.414 130.868 207.227 131.961 207.226C134.943 207.226 137.46 208.564 139.896 209.857C142.105 211.03 144.191 212.143 146.418 212.143C146.854 212.142 147.288 212.101 147.716 212.019C148.577 211.853 151.933 210.649 158.946 202.016C162.926 197.116 166.03 192.344 166.057 192.295C166.439 191.706 167.012 191.266 167.681 191.051C171.521 189.814 174.422 189.273 177.079 189.273C179.169 189.273 180.853 189.623 182.484 189.961C184.75 190.488 187.07 190.753 189.398 190.751C192.001 190.751 195.016 190.459 198.613 189.86C210.063 187.952 213.253 181.658 216.067 176.103C217.726 172.829 219.293 169.735 222.321 168.054C223.237 167.528 224.272 167.246 225.328 167.236C226.542 167.236 228.348 167.637 230.05 169.552C234.985 175.102 236.215 190.934 235.178 199.755C234.597 204.701 232.318 214.404 223.588 223.842C214.698 233.464 201.551 240.289 184.533 244.124C180.746 244.986 176.874 245.425 172.989 245.435ZM131.961 213.324C132.415 215.023 134.081 218.605 138.171 223.179C142.517 228.038 154.607 239.339 172.989 239.339C176.423 239.33 179.846 238.941 183.195 238.178C198.983 234.622 211.069 228.401 219.115 219.702C226.672 211.531 228.633 203.25 229.128 199.042C229.707 194.124 229.486 187.751 228.552 182.412C227.467 176.212 225.907 173.873 225.285 173.38C223.891 174.155 222.786 176.334 221.508 178.856C218.386 185.016 214.109 193.454 199.618 195.874C195.687 196.53 192.344 196.847 189.4 196.847C186.665 196.845 183.938 196.536 181.272 195.925C179.761 195.613 178.57 195.364 177.104 195.364C175.341 195.364 173.246 195.74 170.569 196.545C169.433 198.234 166.845 201.975 163.685 205.864C157.655 213.286 152.806 217.259 148.864 218.01C148.06 218.163 147.244 218.241 146.426 218.241C142.679 218.241 139.685 216.651 137.043 215.247C135.1 214.216 133.421 213.324 131.961 213.324Z" fill="#683A32"/>
<path d="M193.82 150.116C199.612 150.116 204.308 145.421 204.308 139.629C204.308 133.837 199.612 129.141 193.82 129.141C188.028 129.141 183.332 133.837 183.332 139.629C183.332 145.421 188.028 150.116 193.82 150.116Z" fill="#683A32"/>
<path d="M195.94 138.75C197.634 138.75 199.008 137.376 199.008 135.682C199.008 133.987 197.634 132.614 195.94 132.614C194.245 132.614 192.872 133.987 192.872 135.682C192.872 137.376 194.245 138.75 195.94 138.75Z" fill="white"/>
<path d="M264.945 260.433C271.283 251.231 260.868 225.009 260.868 225.009C260.868 225.009 231.627 163.506 268.798 169.668C268.798 169.668 268.291 135.503 293.286 149.472C293.286 149.472 318.612 130.972 324.243 166.29C324.243 166.29 343.744 163.78 344.484 187.644C345.224 211.508 337.892 212.627 343.84 231.989C346.17 239.571 345.5 242.831 352.411 260.172" fill="#F1F0F3"/>
<path d="M264.603 260.433C264.046 260.432 263.501 260.279 263.025 259.988C262.55 259.698 262.164 259.282 261.908 258.786C261.653 258.29 261.539 257.734 261.579 257.178C261.618 256.621 261.809 256.087 262.132 255.632C263.308 253.973 264.856 249.423 261.995 237.601C260.878 233.081 259.465 228.638 257.766 224.303C254.692 217.803 252.094 211.088 249.993 204.21C245.44 189.055 245.475 178.194 250.107 171.924C253.339 167.548 258.53 165.59 265.554 166.046C265.994 160.528 267.79 149.92 275.022 145.525C279.755 142.652 285.704 142.938 292.729 146.363C296.293 144.268 305.166 139.982 313.384 143.422C319.794 146.105 324.127 152.707 326.285 163.067C329.505 163.201 334.839 164.08 339.347 167.933C344.153 172.053 346.735 178.386 347.001 186.755C347.325 196.934 346.123 203.09 345.157 208.036C343.892 214.554 343.042 218.861 346.217 228.904C346.976 231.331 347.436 233.297 347.912 235.38C348.923 239.74 350.047 244.68 354.683 255.977C354.835 256.346 354.912 256.742 354.911 257.141C354.91 257.54 354.831 257.935 354.677 258.304C354.524 258.672 354.299 259.007 354.017 259.289C353.734 259.57 353.399 259.793 353.03 259.945C352.661 260.097 352.266 260.175 351.868 260.174C351.469 260.173 351.074 260.093 350.706 259.94C350.339 259.786 350.004 259.561 349.723 259.278C349.442 258.995 349.219 258.659 349.068 258.29C344.241 246.529 343.047 241.331 341.985 236.743C341.517 234.698 341.11 232.942 340.417 230.741C336.774 219.218 337.839 213.766 339.187 206.87C340.141 201.983 341.224 196.44 340.92 186.947C340.71 180.36 338.848 175.516 335.388 172.552C330.643 168.498 324.198 169.165 324.135 169.172C323.354 169.27 322.567 169.06 321.938 168.587C321.309 168.115 320.888 167.416 320.763 166.639C319.182 157.012 315.914 151.073 311.055 149.029C303.803 145.973 294.712 152.269 294.613 152.322C294.151 152.648 293.607 152.839 293.042 152.872C292.478 152.905 291.915 152.779 291.418 152.51C285.729 149.424 281.27 148.813 278.159 150.696C272.513 154.116 271.415 165.331 271.468 169.365C271.474 169.808 271.383 170.247 271.201 170.651C271.019 171.055 270.752 171.415 270.417 171.704C270.082 171.994 269.688 172.207 269.262 172.328C268.836 172.449 268.389 172.475 267.952 172.405C261.611 171.392 257.242 172.428 254.968 175.506C251.635 180.021 251.933 189.579 255.785 202.424C257.808 209.019 260.302 215.46 263.247 221.696C263.278 221.757 263.306 221.82 263.331 221.884C265.169 226.527 266.69 231.29 267.884 236.14C270.499 246.942 270.224 254.674 267.072 259.123C266.795 259.524 266.427 259.852 265.997 260.08C265.567 260.307 265.089 260.429 264.603 260.433Z" fill="#683A32"/>
<path d="M284.135 188.026C284.135 188.026 286.007 178.412 293.053 178.105C300.371 177.787 300.602 182.557 305.517 186.898C310.431 191.239 320.284 195.661 319.299 204.32C318.313 212.979 310.51 212.758 296.98 212.27C296.98 212.27 280.78 212.476 278.425 208.699C276.139 205.049 275.044 198.095 278.024 195.595C281.003 193.096 283.947 189.362 284.135 188.026Z" fill="#F78C8B"/>
<path d="M335.736 186.599C336.088 182.563 333.101 179.006 329.065 178.654C325.029 178.302 321.472 181.289 321.121 185.325C320.769 189.361 323.756 192.918 327.792 193.27C331.828 193.621 335.385 190.635 335.736 186.599Z" fill="#F78C8B"/>
<path d="M312.822 163.96C313.174 159.924 310.187 156.367 306.151 156.016C302.115 155.664 298.558 158.651 298.207 162.687C297.855 166.723 300.842 170.28 304.878 170.631C308.914 170.983 312.471 167.996 312.822 163.96Z" fill="#F78C8B"/>
<path d="M290.55 166.515C290.901 162.479 287.915 158.922 283.879 158.571C279.843 158.219 276.286 161.206 275.934 165.242C275.582 169.278 278.569 172.835 282.605 173.186C286.641 173.538 290.198 170.551 290.55 166.515Z" fill="#F78C8B"/>
<path d="M272.948 186.834C273.3 182.798 270.313 179.241 266.277 178.889C262.241 178.537 258.685 181.524 258.333 185.56C257.981 189.596 260.968 193.153 265.004 193.505C269.04 193.856 272.597 190.87 272.948 186.834Z" fill="#F78C8B"/>
<path d="M170.506 196.283C170.017 196.283 169.535 196.165 169.101 195.94C168.667 195.714 168.293 195.388 168.012 194.988C164.749 190.066 162.164 184.726 160.329 179.113C160.2 178.731 160.148 178.328 160.176 177.926C160.204 177.524 160.311 177.132 160.491 176.772C160.672 176.412 160.922 176.091 161.227 175.828C161.532 175.566 161.886 175.366 162.269 175.241C162.652 175.115 163.056 175.067 163.457 175.099C163.858 175.131 164.25 175.242 164.608 175.426C164.966 175.61 165.285 175.863 165.544 176.17C165.804 176.478 166.001 176.834 166.122 177.218C167.782 182.254 170.095 187.051 173.003 191.485C173.323 191.942 173.512 192.477 173.549 193.034C173.586 193.59 173.469 194.146 173.212 194.641C172.955 195.136 172.567 195.55 172.09 195.84C171.614 196.13 171.067 196.283 170.509 196.283H170.506Z" fill="#683A32"/>
<path d="M114.18 249.987C114.18 249.987 125.75 277.46 101.361 277.46C101.361 277.46 92.7246 292.827 74.9116 283.512C74.9116 283.512 63.187 291.427 51.2591 278.158C51.2591 278.158 23.4259 285.374 33.4969 246.261C43.568 207.147 110.032 224.376 114.18 249.987Z" fill="#F1F0F3"/>
<path d="M85.8626 289.557C82.3701 289.557 78.7201 288.681 74.9914 286.948C72.2943 288.235 69.3438 288.904 66.3554 288.904C62.2711 288.904 56.2564 287.576 50.1832 281.462C48.9552 281.641 47.7158 281.731 46.4748 281.731C40.3788 281.731 35.497 279.565 32.322 275.468C27.5925 269.372 26.988 259.283 30.544 245.496C32.7563 236.905 37.5417 230.324 44.768 225.938C50.9478 222.181 58.8472 220.195 67.6101 220.195C78.4026 220.195 89.9824 223.189 99.3804 228.414C109.429 234.002 115.715 241.35 117.127 249.151C118.062 251.521 122.939 264.919 117.211 273.535C114.377 277.804 109.604 280.139 103.015 280.459C100.864 283.398 95.2402 289.547 85.86 289.549L85.8626 289.557ZM74.905 280.464C75.3967 280.463 75.8813 280.582 76.3172 280.809C79.6827 282.567 82.8908 283.458 85.8524 283.458C94.2903 283.458 98.527 276.258 98.7022 275.95C98.9665 275.481 99.3513 275.09 99.8171 274.819C100.283 274.548 100.813 274.406 101.351 274.408C106.627 274.408 110.241 272.986 112.118 270.177C115.743 264.734 112.799 254.607 111.356 251.162C111.263 250.94 111.197 250.707 111.158 250.469C110.193 244.508 104.808 238.409 96.4061 233.736C87.8844 229.001 77.384 226.283 67.5974 226.283C57.9455 226.283 41.0824 228.976 36.4368 247.017C33.4243 258.701 33.6656 267.256 37.1302 271.729C39.1368 274.317 42.2788 275.63 46.4647 275.63C47.8149 275.637 49.1618 275.494 50.4804 275.204C51.0209 275.063 51.5897 275.074 52.1245 275.235C52.6593 275.395 53.1397 275.7 53.5132 276.115C57.501 280.553 61.8189 282.803 66.3452 282.803C68.7523 282.815 71.1192 282.187 73.2032 280.982C73.7063 280.644 74.2988 280.463 74.905 280.464Z" fill="#683A32"/>
<path d="M183.323 209.385C183.323 209.385 174.245 206.845 170.252 212.291C166.259 217.736 160.928 224.815 160.267 232.611C159.607 240.406 143.204 261.655 163.897 267.464C184.59 273.273 203.109 249.855 202.2 230.431C201.291 211.008 210.188 209.555 208.735 205.016C207.283 200.477 190.945 194.864 183.323 209.385Z" fill="#F78C8B"/>
<path d="M170.369 271.426C167.902 271.422 165.448 271.08 163.074 270.41C157.527 268.853 153.75 266.092 151.845 262.178C148.378 255.066 151.959 246.359 154.834 239.364C155.949 236.651 157.103 233.844 157.23 232.366C157.946 223.905 163.458 216.395 167.484 210.911L167.793 210.489C170.079 207.388 173.795 205.747 178.568 205.747C179.643 205.749 180.717 205.827 181.781 205.981C186.785 198.226 193.869 197.004 197.829 197.004C204.301 197.004 210.366 200.121 211.639 204.101C212.614 207.149 211.083 209.435 209.729 211.447C207.732 214.424 204.712 218.919 205.246 230.304C205.733 240.753 201.1 252.417 193.15 260.745C186.577 267.631 178.487 271.426 170.369 271.426ZM178.568 211.833C175.774 211.833 173.803 212.595 172.708 214.083L172.396 214.507C168.599 219.681 163.874 226.12 163.303 232.869C163.1 235.285 161.88 238.244 160.473 241.67C158.06 247.54 155.058 254.843 157.326 259.496C158.451 261.802 160.882 263.448 164.723 264.53C166.56 265.049 168.46 265.314 170.369 265.317C176.803 265.317 183.323 262.193 188.741 256.521C195.578 249.359 199.569 239.415 199.155 230.573C198.53 217.179 202.37 211.454 204.667 208.035C205.154 207.309 205.82 206.316 205.848 206.003V205.973C205.406 205.097 202.19 203.09 197.837 203.09C194.296 203.09 189.371 204.426 186.028 210.794C185.705 211.413 185.178 211.902 184.538 212.179C183.897 212.457 183.18 212.506 182.508 212.318C181.218 212.001 179.896 211.838 178.568 211.833Z" fill="#683A32"/>
<path d="M172.613 253.998C171.986 253.998 171.374 253.806 170.861 253.446C170.348 253.086 169.958 252.576 169.744 251.987C169.531 251.397 169.505 250.756 169.669 250.151C169.833 249.546 170.18 249.006 170.663 248.605C174.871 245.141 175.928 236.515 176.776 229.583C176.969 228.009 177.152 226.52 177.363 225.095C178.605 216.741 180.261 209.065 180.332 208.743C180.504 207.952 180.982 207.263 181.661 206.825C182.341 206.387 183.167 206.237 183.957 206.408C184.747 206.58 185.437 207.058 185.875 207.737C186.313 208.417 186.462 209.243 186.291 210.033C186.274 210.109 184.607 217.846 183.393 225.994C183.192 227.341 183.015 228.788 182.827 230.325C181.795 238.75 180.625 248.298 174.539 253.312C173.995 253.755 173.315 253.998 172.613 253.998Z" fill="#683A32"/>
</svg>
