<svg width="161" height="117" viewBox="0 0 161 117" fill="none" xmlns="http://www.w3.org/2000/svg">
<rect opacity="0.2" x="19" y="29" width="123" height="60" rx="30" fill="url(#paint0_linear_6464_5350)" fill-opacity="0.84"/>
<circle cx="112" cy="59" r="26" fill="url(#paint1_linear_6464_5350)" fill-opacity="0.84"/>
<path d="M26.5547 108.898H27.9688C28.0365 109.508 28.3333 109.997 28.8594 110.367C29.3906 110.737 30.0599 110.922 30.8672 110.922C31.6276 110.922 32.2552 110.742 32.75 110.383C33.25 110.018 33.5 109.56 33.5 109.008C33.5 108.534 33.3255 108.143 32.9766 107.836C32.6328 107.529 32.0807 107.276 31.3203 107.078L29.875 106.703C28.8333 106.438 28.0729 106.068 27.5938 105.594C27.1146 105.115 26.875 104.492 26.875 103.727C26.875 102.789 27.2448 102.023 27.9844 101.43C28.7292 100.836 29.6875 100.539 30.8594 100.539C31.9792 100.539 32.9062 100.841 33.6406 101.445C34.375 102.044 34.7578 102.815 34.7891 103.758H33.3828C33.3203 103.154 33.0599 102.677 32.6016 102.328C32.1432 101.979 31.5469 101.805 30.8125 101.805C30.0833 101.805 29.487 101.977 29.0234 102.32C28.5651 102.664 28.3359 103.112 28.3359 103.664C28.3359 104.091 28.5026 104.443 28.8359 104.719C29.1745 104.99 29.7266 105.224 30.4922 105.422L31.6719 105.734C32.8385 106.026 33.6771 106.414 34.1875 106.898C34.6979 107.383 34.9531 108.029 34.9531 108.836C34.9531 109.867 34.5729 110.685 33.8125 111.289C33.0573 111.888 32.0312 112.188 30.7344 112.188C29.5365 112.188 28.5573 111.888 27.7969 111.289C27.0365 110.69 26.6224 109.893 26.5547 108.898ZM39.6406 104.914C39.0104 104.914 38.487 105.133 38.0703 105.57C37.6589 106.003 37.4323 106.56 37.3906 107.242H41.8047C41.7891 106.555 41.5833 105.995 41.1875 105.562C40.7917 105.13 40.276 104.914 39.6406 104.914ZM41.7734 109.672H43.1094C42.9896 110.391 42.6146 110.982 41.9844 111.445C41.3594 111.909 40.6068 112.141 39.7266 112.141C38.5651 112.141 37.651 111.766 36.9844 111.016C36.3177 110.266 35.9844 109.25 35.9844 107.969C35.9844 106.698 36.3177 105.674 36.9844 104.898C37.6562 104.122 38.5495 103.734 39.6641 103.734C40.7578 103.734 41.6224 104.102 42.2578 104.836C42.8932 105.57 43.2109 106.555 43.2109 107.789V108.305H37.3828V108.383C37.3828 109.164 37.5964 109.789 38.0234 110.258C38.4505 110.727 39.0286 110.961 39.7578 110.961C40.2682 110.961 40.7031 110.844 41.0625 110.609C41.4219 110.375 41.6589 110.062 41.7734 109.672ZM51.3359 106.539H50.0078C49.9036 106.07 49.6719 105.685 49.3125 105.383C48.9583 105.081 48.4974 104.93 47.9297 104.93C47.2214 104.93 46.651 105.203 46.2188 105.75C45.7865 106.292 45.5703 107.021 45.5703 107.938C45.5703 108.87 45.7865 109.604 46.2188 110.141C46.6562 110.677 47.2318 110.945 47.9453 110.945C48.4922 110.945 48.9427 110.81 49.2969 110.539C49.6562 110.263 49.8958 109.878 50.0156 109.383H51.3516C51.2474 110.195 50.8802 110.859 50.25 111.375C49.625 111.885 48.8542 112.141 47.9375 112.141C46.8021 112.141 45.8932 111.766 45.2109 111.016C44.5286 110.26 44.1875 109.234 44.1875 107.938C44.1875 106.661 44.5286 105.643 45.2109 104.883C45.8932 104.117 46.7969 103.734 47.9219 103.734C48.8906 103.734 49.6771 104.008 50.2812 104.555C50.8906 105.102 51.2422 105.763 51.3359 106.539ZM55.9688 112.141C54.8333 112.141 53.9219 111.763 53.2344 111.008C52.5469 110.247 52.2031 109.224 52.2031 107.938C52.2031 106.651 52.5469 105.63 53.2344 104.875C53.9219 104.115 54.8333 103.734 55.9688 103.734C57.099 103.734 58.0078 104.115 58.6953 104.875C59.3828 105.63 59.7266 106.651 59.7266 107.938C59.7266 109.219 59.3828 110.24 58.6953 111C58.0078 111.76 57.099 112.141 55.9688 112.141ZM54.2266 110.148C54.6589 110.68 55.2396 110.945 55.9688 110.945C56.6979 110.945 57.276 110.682 57.7031 110.156C58.1302 109.625 58.3438 108.885 58.3438 107.938C58.3438 106.99 58.1302 106.253 57.7031 105.727C57.276 105.195 56.6979 104.93 55.9688 104.93C55.2396 104.93 54.6589 105.195 54.2266 105.727C53.7995 106.258 53.5859 106.995 53.5859 107.938C53.5859 108.88 53.7995 109.617 54.2266 110.148ZM61.1016 112V103.875H62.3828V105.172H62.4141C62.6484 104.719 62.9844 104.367 63.4219 104.117C63.8594 103.862 64.3828 103.734 64.9922 103.734C65.8776 103.734 66.5677 104.003 67.0625 104.539C67.5573 105.07 67.8047 105.799 67.8047 106.727V112H66.4453V106.969C66.4453 106.307 66.2891 105.805 65.9766 105.461C65.6641 105.112 65.1979 104.938 64.5781 104.938C63.9375 104.938 63.4245 105.146 63.0391 105.562C62.6536 105.979 62.4609 106.531 62.4609 107.219V112H61.1016ZM72.6172 112.141C71.5755 112.141 70.7344 111.758 70.0938 110.992C69.4583 110.227 69.1406 109.208 69.1406 107.938C69.1406 106.672 69.4583 105.656 70.0938 104.891C70.7292 104.12 71.5599 103.734 72.5859 103.734C73.1589 103.734 73.6719 103.865 74.125 104.125C74.5781 104.385 74.9271 104.742 75.1719 105.195H75.2031V100.727H76.5625V112H75.2656V110.625H75.2422C74.9766 111.099 74.6172 111.471 74.1641 111.742C73.7109 112.008 73.1953 112.141 72.6172 112.141ZM72.875 104.93C72.1562 104.93 71.5859 105.203 71.1641 105.75C70.7422 106.292 70.5312 107.021 70.5312 107.938C70.5312 108.859 70.7422 109.591 71.1641 110.133C71.5859 110.674 72.1562 110.945 72.875 110.945C73.5781 110.945 74.1432 110.672 74.5703 110.125C74.9974 109.573 75.2109 108.844 75.2109 107.938C75.2109 107.031 74.9948 106.305 74.5625 105.758C74.1354 105.206 73.5729 104.93 72.875 104.93ZM81.0781 110.984C81.7188 110.984 82.2552 110.786 82.6875 110.391C83.125 109.99 83.3438 109.497 83.3438 108.914V108.25L81.1719 108.383C80.625 108.419 80.2005 108.552 79.8984 108.781C79.6016 109.01 79.4531 109.318 79.4531 109.703C79.4531 110.089 79.6016 110.398 79.8984 110.633C80.1953 110.867 80.5885 110.984 81.0781 110.984ZM80.7734 112.141C79.9661 112.141 79.3125 111.917 78.8125 111.469C78.3177 111.021 78.0703 110.432 78.0703 109.703C78.0703 109.005 78.3255 108.448 78.8359 108.031C79.3516 107.615 80.0781 107.38 81.0156 107.328L83.3438 107.195V106.516C83.3438 106.021 83.1875 105.633 82.875 105.352C82.5625 105.07 82.125 104.93 81.5625 104.93C81.0469 104.93 80.6276 105.044 80.3047 105.273C79.9818 105.497 79.776 105.812 79.6875 106.219H78.375C78.4219 105.495 78.7344 104.901 79.3125 104.438C79.8958 103.969 80.6562 103.734 81.5938 103.734C82.5469 103.734 83.3021 103.974 83.8594 104.453C84.4219 104.932 84.7031 105.576 84.7031 106.383V112H83.4141V110.602H83.3828C83.138 111.065 82.7786 111.438 82.3047 111.719C81.8307 112 81.3203 112.141 80.7734 112.141ZM86.4297 112V103.875H87.7109V105.203H87.7422C87.8776 104.75 88.1198 104.393 88.4688 104.133C88.8229 103.867 89.237 103.734 89.7109 103.734C89.8203 103.734 90.0026 103.753 90.2578 103.789V105.109C90.112 105.057 89.8698 105.031 89.5312 105.031C89.0052 105.031 88.5833 105.206 88.2656 105.555C87.9479 105.904 87.7891 106.365 87.7891 106.938V112H86.4297ZM92.0391 115.039C91.7995 115.039 91.6042 115.023 91.4531 114.992V113.852C91.5781 113.878 91.7552 113.891 91.9844 113.891C92.3646 113.891 92.6693 113.789 92.8984 113.586C93.1276 113.388 93.3203 113.052 93.4766 112.578L93.6641 112.008L90.6641 103.875H92.1172L94.3672 110.641H94.3906L96.6406 103.875H98.0703L94.875 112.57C94.526 113.518 94.1484 114.167 93.7422 114.516C93.3411 114.865 92.7734 115.039 92.0391 115.039ZM109.18 106.539H107.852C107.747 106.07 107.516 105.685 107.156 105.383C106.802 105.081 106.341 104.93 105.773 104.93C105.065 104.93 104.495 105.203 104.062 105.75C103.63 106.292 103.414 107.021 103.414 107.938C103.414 108.87 103.63 109.604 104.062 110.141C104.5 110.677 105.076 110.945 105.789 110.945C106.336 110.945 106.786 110.81 107.141 110.539C107.5 110.263 107.74 109.878 107.859 109.383H109.195C109.091 110.195 108.724 110.859 108.094 111.375C107.469 111.885 106.698 112.141 105.781 112.141C104.646 112.141 103.737 111.766 103.055 111.016C102.372 110.26 102.031 109.234 102.031 107.938C102.031 106.661 102.372 105.643 103.055 104.883C103.737 104.117 104.641 103.734 105.766 103.734C106.734 103.734 107.521 104.008 108.125 104.555C108.734 105.102 109.086 105.763 109.18 106.539ZM113.812 112.141C112.677 112.141 111.766 111.763 111.078 111.008C110.391 110.247 110.047 109.224 110.047 107.938C110.047 106.651 110.391 105.63 111.078 104.875C111.766 104.115 112.677 103.734 113.812 103.734C114.943 103.734 115.852 104.115 116.539 104.875C117.227 105.63 117.57 106.651 117.57 107.938C117.57 109.219 117.227 110.24 116.539 111C115.852 111.76 114.943 112.141 113.812 112.141ZM112.07 110.148C112.503 110.68 113.083 110.945 113.812 110.945C114.542 110.945 115.12 110.682 115.547 110.156C115.974 109.625 116.188 108.885 116.188 107.938C116.188 106.99 115.974 106.253 115.547 105.727C115.12 105.195 114.542 104.93 113.812 104.93C113.083 104.93 112.503 105.195 112.07 105.727C111.643 106.258 111.43 106.995 111.43 107.938C111.43 108.88 111.643 109.617 112.07 110.148ZM119.016 112V100.727H120.375V112H119.016ZM125.578 112.141C124.443 112.141 123.531 111.763 122.844 111.008C122.156 110.247 121.812 109.224 121.812 107.938C121.812 106.651 122.156 105.63 122.844 104.875C123.531 104.115 124.443 103.734 125.578 103.734C126.708 103.734 127.617 104.115 128.305 104.875C128.992 105.63 129.336 106.651 129.336 107.938C129.336 109.219 128.992 110.24 128.305 111C127.617 111.76 126.708 112.141 125.578 112.141ZM123.836 110.148C124.268 110.68 124.849 110.945 125.578 110.945C126.307 110.945 126.885 110.682 127.312 110.156C127.74 109.625 127.953 108.885 127.953 107.938C127.953 106.99 127.74 106.253 127.312 105.727C126.885 105.195 126.307 104.93 125.578 104.93C124.849 104.93 124.268 105.195 123.836 105.727C123.409 106.258 123.195 106.995 123.195 107.938C123.195 108.88 123.409 109.617 123.836 110.148ZM130.711 112V103.875H131.992V105.203H132.023C132.159 104.75 132.401 104.393 132.75 104.133C133.104 103.867 133.518 103.734 133.992 103.734C134.102 103.734 134.284 103.753 134.539 103.789V105.109C134.393 105.057 134.151 105.031 133.812 105.031C133.286 105.031 132.865 105.206 132.547 105.555C132.229 105.904 132.07 106.365 132.07 106.938V112H130.711Z" fill="#817D90"/>
<path d="M5.49316 17L6.19629 13.5283H3.5332L2.83008 17H1.33594L2.03027 13.5283H0L0.290039 12.043H2.33789L2.91797 9.13379H0.799805L1.09863 7.65723H3.2168L3.91113 4.31738H5.40527L4.7373 7.65723H7.3916L8.07715 4.31738H9.58008L8.90332 7.65723H11.0479L10.7666 9.13379H8.5957L7.99805 12.043H10.2305L9.94922 13.5283H7.70801L7.00488 17H5.49316ZM3.77051 12.1133H6.53027L7.1543 9.07227H4.38574L3.77051 12.1133ZM17.8506 17H15.8818V4.31738H23.8008V6.01367H17.8506V10.0303H23.2998V11.6914H17.8506V17ZM27.4834 17H25.5146V4.31738H33.4336V6.01367H27.4834V10.0303H32.9326V11.6914H27.4834V17ZM39.7354 17.2461C38.7979 17.2461 37.9658 17.0146 37.2393 16.5518C36.5186 16.0889 35.9502 15.4297 35.5342 14.5742C35.0127 13.5605 34.752 12.3125 34.752 10.8301C34.752 8.70898 35.2002 7.05371 36.0967 5.86426C36.9932 4.66895 38.2354 4.07129 39.8232 4.07129C40.9424 4.07129 41.9004 4.37891 42.6973 4.99414C43.5 5.60938 43.998 6.42383 44.1914 7.4375H42.2227C42.0703 6.91602 41.7744 6.5 41.335 6.18945C40.8955 5.87891 40.3857 5.72363 39.8057 5.72363C38.8037 5.72363 38.0273 6.16016 37.4766 7.0332C36.9258 7.90039 36.6475 9.13086 36.6416 10.7246H36.6768C36.958 10.1035 37.4121 9.60547 38.0391 9.23047C38.666 8.85547 39.3721 8.66797 40.1572 8.66797C41.3643 8.66797 42.3662 9.06641 43.1631 9.86328C43.9658 10.6602 44.3672 11.6592 44.3672 12.8604C44.3672 14.1318 43.9307 15.1807 43.0576 16.0068C42.1846 16.833 41.0771 17.2461 39.7354 17.2461ZM39.7178 15.585C40.4678 15.585 41.1035 15.3271 41.625 14.8115C42.1465 14.2959 42.4072 13.666 42.4072 12.9219C42.4072 12.1543 42.1553 11.5215 41.6514 11.0234C41.1533 10.5254 40.5146 10.2764 39.7354 10.2764C38.9619 10.2764 38.3174 10.5254 37.8018 11.0234C37.292 11.5156 37.0371 12.1367 37.0371 12.8867C37.0371 13.6426 37.2949 14.2812 37.8105 14.8027C38.3262 15.3242 38.9619 15.585 39.7178 15.585ZM54.2725 15.2949V17H46.2217V4.31738H54.2725V6.01367H48.1904V9.72266H53.9473V11.3574H48.1904V15.2949H54.2725ZM60.6885 17.2373C59.2764 17.2373 58.1221 16.8945 57.2256 16.209C56.335 15.5234 55.8896 14.6445 55.8896 13.5723C55.8896 12.7695 56.1475 12.0693 56.6631 11.4717C57.1846 10.874 57.8672 10.4873 58.7109 10.3115V10.2676C58.0078 10.0742 57.4453 9.72266 57.0234 9.21289C56.6074 8.69727 56.3994 8.09961 56.3994 7.41992C56.3994 6.45898 56.8037 5.66211 57.6123 5.0293C58.4209 4.39648 59.4463 4.08008 60.6885 4.08008C61.9365 4.08008 62.9619 4.39648 63.7646 5.0293C64.5674 5.65625 64.9688 6.45605 64.9688 7.42871C64.9688 8.09668 64.7607 8.68555 64.3447 9.19531C63.9287 9.70508 63.3691 10.0625 62.666 10.2676V10.3115C63.5098 10.4873 64.1895 10.874 64.7051 11.4717C65.2266 12.0693 65.4873 12.7695 65.4873 13.5723C65.4873 14.6504 65.0391 15.5322 64.1426 16.2178C63.2461 16.8975 62.0947 17.2373 60.6885 17.2373ZM58.6934 15.0312C59.2148 15.4473 59.8799 15.6553 60.6885 15.6553C61.4971 15.6553 62.1592 15.4473 62.6748 15.0312C63.1904 14.6094 63.4482 14.0762 63.4482 13.4316C63.4482 12.7754 63.1904 12.2393 62.6748 11.8232C62.1592 11.4014 61.4971 11.1904 60.6885 11.1904C59.8799 11.1904 59.2148 11.4014 58.6934 11.8232C58.1777 12.2451 57.9199 12.7812 57.9199 13.4316C57.9199 14.0762 58.1777 14.6094 58.6934 15.0312ZM60.6885 9.6084C61.3682 9.6084 61.9277 9.42383 62.3672 9.05469C62.8066 8.67969 63.0264 8.20508 63.0264 7.63086C63.0264 7.05078 62.8066 6.57617 62.3672 6.20703C61.9336 5.83203 61.374 5.64453 60.6885 5.64453C60.0029 5.64453 59.4404 5.83203 59.001 6.20703C58.5674 6.57617 58.3506 7.05078 58.3506 7.63086C58.3506 8.21094 58.5674 8.68555 59.001 9.05469C59.4404 9.42383 60.0029 9.6084 60.6885 9.6084ZM75.4014 15.4619C74.5518 16.6455 73.3711 17.2373 71.8594 17.2373C70.3477 17.2373 69.1611 16.6484 68.2998 15.4707C67.4443 14.2871 67.0166 12.6787 67.0166 10.6455C67.0166 8.62988 67.4473 7.0332 68.3086 5.85547C69.1699 4.67187 70.3535 4.08008 71.8594 4.08008C73.3652 4.08008 74.5459 4.66895 75.4014 5.84668C76.2568 7.01855 76.6846 8.61523 76.6846 10.6367C76.6846 12.6699 76.2568 14.2783 75.4014 15.4619ZM69.7588 14.2754C70.2568 15.1484 70.957 15.585 71.8594 15.585C72.7617 15.585 73.459 15.1484 73.9512 14.2754C74.4492 13.3965 74.6982 12.1865 74.6982 10.6455C74.6982 9.12207 74.4463 7.92383 73.9424 7.05078C73.4443 6.17188 72.75 5.73242 71.8594 5.73242C70.9688 5.73242 70.2715 6.17188 69.7676 7.05078C69.2637 7.92969 69.0117 9.12793 69.0117 10.6455C69.0117 12.1865 69.2607 13.3965 69.7588 14.2754Z" fill="white"/>
<path d="M91.4932 17L92.1963 13.5283H89.5332L88.8301 17H87.3359L88.0303 13.5283H86L86.29 12.043H88.3379L88.918 9.13379H86.7998L87.0986 7.65723H89.2168L89.9111 4.31738H91.4053L90.7373 7.65723H93.3916L94.0771 4.31738H95.5801L94.9033 7.65723H97.0479L96.7666 9.13379H94.5957L93.998 12.043H96.2305L95.9492 13.5283H93.708L93.0049 17H91.4932ZM89.7705 12.1133H92.5303L93.1543 9.07227H90.3857L89.7705 12.1133ZM103.851 17H101.882V4.31738H109.801V6.01367H103.851V10.0303H109.3V11.6914H103.851V17ZM113.483 17H111.515V4.31738H119.434V6.01367H113.483V10.0303H118.933V11.6914H113.483V17ZM128.53 17L127.37 13.5723H122.536L121.376 17H119.328L123.907 4.31738H126.034L130.613 17H128.53ZM124.927 6.42676L123.037 11.9902H126.869L124.979 6.42676H124.927ZM134.313 17V6.26855H134.27L130.956 8.62402V6.69043L134.296 4.31738H136.238V17H134.313ZM143.911 17.2373C142.499 17.2373 141.345 16.8945 140.448 16.209C139.558 15.5234 139.112 14.6445 139.112 13.5723C139.112 12.7695 139.37 12.0693 139.886 11.4717C140.407 10.874 141.09 10.4873 141.934 10.3115V10.2676C141.23 10.0742 140.668 9.72266 140.246 9.21289C139.83 8.69727 139.622 8.09961 139.622 7.41992C139.622 6.45898 140.026 5.66211 140.835 5.0293C141.644 4.39648 142.669 4.08008 143.911 4.08008C145.159 4.08008 146.185 4.39648 146.987 5.0293C147.79 5.65625 148.191 6.45605 148.191 7.42871C148.191 8.09668 147.983 8.68555 147.567 9.19531C147.151 9.70508 146.592 10.0625 145.889 10.2676V10.3115C146.732 10.4873 147.412 10.874 147.928 11.4717C148.449 12.0693 148.71 12.7695 148.71 13.5723C148.71 14.6504 148.262 15.5322 147.365 16.2178C146.469 16.8975 145.317 17.2373 143.911 17.2373ZM141.916 15.0312C142.438 15.4473 143.103 15.6553 143.911 15.6553C144.72 15.6553 145.382 15.4473 145.897 15.0312C146.413 14.6094 146.671 14.0762 146.671 13.4316C146.671 12.7754 146.413 12.2393 145.897 11.8232C145.382 11.4014 144.72 11.1904 143.911 11.1904C143.103 11.1904 142.438 11.4014 141.916 11.8232C141.4 12.2451 141.143 12.7812 141.143 13.4316C141.143 14.0762 141.4 14.6094 141.916 15.0312ZM143.911 9.6084C144.591 9.6084 145.15 9.42383 145.59 9.05469C146.029 8.67969 146.249 8.20508 146.249 7.63086C146.249 7.05078 146.029 6.57617 145.59 6.20703C145.156 5.83203 144.597 5.64453 143.911 5.64453C143.226 5.64453 142.663 5.83203 142.224 6.20703C141.79 6.57617 141.573 7.05078 141.573 7.63086C141.573 8.21094 141.79 8.68555 142.224 9.05469C142.663 9.42383 143.226 9.6084 143.911 9.6084ZM153.219 11.2607V9.71387H154.748C155.428 9.71387 155.981 9.52051 156.409 9.13379C156.843 8.74707 157.06 8.25488 157.06 7.65723C157.06 7.05371 156.857 6.57617 156.453 6.22461C156.055 5.87305 155.486 5.69727 154.748 5.69727C154.062 5.69727 153.506 5.88184 153.078 6.25098C152.65 6.61426 152.407 7.10938 152.349 7.73633H150.494C150.57 6.62305 150.998 5.73535 151.777 5.07324C152.562 4.41113 153.582 4.08008 154.836 4.08008C156.043 4.08008 157.036 4.39062 157.815 5.01172C158.595 5.62695 158.984 6.4209 158.984 7.39355C158.984 8.17871 158.747 8.84082 158.272 9.37988C157.798 9.91309 157.165 10.25 156.374 10.3906V10.4258C157.335 10.4902 158.097 10.7979 158.659 11.3486C159.228 11.8994 159.512 12.6172 159.512 13.502C159.512 14.5977 159.069 15.4941 158.185 16.1914C157.3 16.8887 156.189 17.2373 154.854 17.2373C153.5 17.2373 152.407 16.9004 151.575 16.2266C150.749 15.5469 150.304 14.6533 150.239 13.5459H152.129C152.193 14.1611 152.466 14.6562 152.946 15.0312C153.433 15.4062 154.068 15.5938 154.854 15.5938C155.627 15.5938 156.263 15.3975 156.761 15.0049C157.259 14.6064 157.508 14.0967 157.508 13.4756C157.508 12.79 157.265 12.251 156.778 11.8584C156.298 11.46 155.639 11.2607 154.801 11.2607H153.219Z" fill="white"/>
<defs>
<linearGradient id="paint0_linear_6464_5350" x1="44.7442" y1="84.1163" x2="71.1224" y2="12.6596" gradientUnits="userSpaceOnUse">
<stop stop-color="#FF6E80"/>
<stop offset="1" stop-color="#FFA183"/>
</linearGradient>
<linearGradient id="paint1_linear_6464_5350" x1="96.8837" y1="80.7674" x2="130.744" y2="36.0233" gradientUnits="userSpaceOnUse">
<stop stop-color="#FF6E80"/>
<stop offset="1" stop-color="#FFA183"/>
</linearGradient>
</defs>
</svg>
