<svg width="59" height="58" viewBox="0 0 59 58" fill="none" xmlns="http://www.w3.org/2000/svg">
<path d="M27.7002 28.5884H3.3757C2.42388 28.5884 1.56733 28.0144 1.20465 27.1336C0.845316 26.2536 1.0559 25.2525 1.73028 24.5815L21.9767 4.68299H3.3757C2.08043 4.68299 1.03418 3.62422 1.03418 2.34149C1.03501 1.04289 2.08126 0 3.3757 0H27.7002C28.6503 0 29.5085 0.575763 29.867 1.45654C30.228 2.33648 30.0175 3.33842 29.3431 4.00778L9.09665 23.908H27.701C28.9921 23.908 30.0425 24.9617 30.0425 26.2495C30.0417 27.5456 28.9879 28.5884 27.7002 28.5884ZM54.9536 33.3984H43.4942L56.6041 20.5127C57.2826 19.8383 57.4823 18.8414 57.1305 17.9615C56.7712 17.0815 55.9055 16.5016 54.9545 16.5016H37.7666C36.4813 16.5016 35.425 17.5503 35.425 18.8423C35.425 20.125 36.4813 21.1837 37.7666 21.1837H49.2327L36.122 34.0661C35.4384 34.743 35.2378 35.7358 35.598 36.6182C35.9607 37.5057 36.8147 38.0814 37.7666 38.0814H54.9528C56.2472 38.0814 57.2943 37.0294 57.2943 35.7399C57.2943 34.4497 56.2472 33.3984 54.9536 33.3984ZM28.5241 53.3179H20.531L30.1662 43.8524C30.8464 43.1848 31.052 42.1736 30.6927 41.2928C30.3317 40.4137 29.4734 39.838 28.5233 39.838H14.8101C13.5173 39.838 12.4677 40.8892 12.4677 42.1795C12.4677 43.468 13.5173 44.521 14.8101 44.521H22.8032L13.1663 53.9847C12.4878 54.6616 12.2805 55.6543 12.6424 56.5368C13.0025 57.4192 13.8591 58 14.8109 58H28.525C29.8177 58 30.8657 56.9479 30.8657 55.6585C30.8657 54.3691 29.8269 53.3179 28.5241 53.3179Z" fill="#817D90"/>
</svg>
