<svg width="123" height="117" viewBox="0 0 123 117" fill="none" xmlns="http://www.w3.org/2000/svg">
<rect opacity="0.2" y="29" width="123" height="60" rx="30" fill="#A29FAD"/>
<circle cx="93" cy="59" r="26" fill="#A29FAD"/>
<path d="M4.55469 108.898H5.96875C6.03646 109.508 6.33333 109.997 6.85938 110.367C7.39062 110.737 8.0599 110.922 8.86719 110.922C9.6276 110.922 10.2552 110.742 10.75 110.383C11.25 110.018 11.5 109.56 11.5 109.008C11.5 108.534 11.3255 108.143 10.9766 107.836C10.6328 107.529 10.0807 107.276 9.32031 107.078L7.875 106.703C6.83333 106.438 6.07292 106.068 5.59375 105.594C5.11458 105.115 4.875 104.492 4.875 103.727C4.875 102.789 5.24479 102.023 5.98438 101.43C6.72917 100.836 7.6875 100.539 8.85938 100.539C9.97917 100.539 10.9062 100.841 11.6406 101.445C12.375 102.044 12.7578 102.815 12.7891 103.758H11.3828C11.3203 103.154 11.0599 102.677 10.6016 102.328C10.1432 101.979 9.54688 101.805 8.8125 101.805C8.08333 101.805 7.48698 101.977 7.02344 102.32C6.5651 102.664 6.33594 103.112 6.33594 103.664C6.33594 104.091 6.5026 104.443 6.83594 104.719C7.17448 104.99 7.72656 105.224 8.49219 105.422L9.67188 105.734C10.8385 106.026 11.6771 106.414 12.1875 106.898C12.6979 107.383 12.9531 108.029 12.9531 108.836C12.9531 109.867 12.5729 110.685 11.8125 111.289C11.0573 111.888 10.0312 112.188 8.73438 112.188C7.53646 112.188 6.55729 111.888 5.79688 111.289C5.03646 110.69 4.6224 109.893 4.55469 108.898ZM21.0547 103.875V112H19.7656V110.68H19.7344C19.2292 111.654 18.3698 112.141 17.1562 112.141C16.276 112.141 15.5859 111.875 15.0859 111.344C14.5911 110.807 14.3438 110.076 14.3438 109.148V103.875H15.7031V108.906C15.7031 110.26 16.3281 110.938 17.5781 110.938C18.2344 110.938 18.75 110.732 19.125 110.32C19.5052 109.904 19.6953 109.346 19.6953 108.648V103.875H21.0547ZM26.8594 112.141C26.276 112.141 25.7552 112.008 25.2969 111.742C24.8438 111.477 24.4844 111.104 24.2188 110.625H24.1875V112H22.8906V100.727H24.25V105.234H24.2812C24.5365 104.766 24.8906 104.398 25.3438 104.133C25.8021 103.867 26.3151 103.734 26.8828 103.734C27.9089 103.734 28.737 104.117 29.3672 104.883C29.9974 105.648 30.3125 106.667 30.3125 107.938C30.3125 109.214 29.9974 110.234 29.3672 111C28.737 111.76 27.901 112.141 26.8594 112.141ZM26.5938 104.93C25.901 104.93 25.3359 105.208 24.8984 105.766C24.4609 106.318 24.2422 107.042 24.2422 107.938C24.2422 108.839 24.4609 109.565 24.8984 110.117C25.3359 110.669 25.901 110.945 26.5938 110.945C27.3125 110.945 27.8802 110.677 28.2969 110.141C28.7135 109.599 28.9219 108.865 28.9219 107.938C28.9219 107.016 28.7135 106.284 28.2969 105.742C27.8802 105.201 27.3125 104.93 26.5938 104.93ZM32.1328 101.914H33.4922V103.875H35.0703V104.992H33.4922V109.82C33.4922 110.19 33.5729 110.464 33.7344 110.641C33.8958 110.812 34.151 110.898 34.5 110.898C34.7188 110.898 34.9062 110.885 35.0625 110.859V112C34.8854 112.042 34.599 112.062 34.2031 112.062C33.4583 112.062 32.9271 111.896 32.6094 111.562C32.2917 111.229 32.1328 110.672 32.1328 109.891V104.992H30.9219V103.875H32.1328V101.914ZM36.5938 112V103.875H37.9531V112H36.5938ZM37.2734 102.508C37.0443 102.508 36.8464 102.424 36.6797 102.258C36.513 102.091 36.4297 101.893 36.4297 101.664C36.4297 101.43 36.513 101.232 36.6797 101.07C36.8464 100.904 37.0443 100.82 37.2734 100.82C37.5078 100.82 37.7083 100.904 37.875 101.07C38.0417 101.232 38.125 101.43 38.125 101.664C38.125 101.893 38.0417 102.091 37.875 102.258C37.7083 102.424 37.5078 102.508 37.2734 102.508ZM40.2266 101.914H41.5859V103.875H43.1641V104.992H41.5859V109.82C41.5859 110.19 41.6667 110.464 41.8281 110.641C41.9896 110.812 42.2448 110.898 42.5938 110.898C42.8125 110.898 43 110.885 43.1562 110.859V112C42.9792 112.042 42.6927 112.062 42.2969 112.062C41.5521 112.062 41.0208 111.896 40.7031 111.562C40.3854 111.229 40.2266 110.672 40.2266 109.891V104.992H39.0156V103.875H40.2266V101.914ZM44.6875 112V100.727H46.0469V112H44.6875ZM51.1406 104.914C50.5104 104.914 49.987 105.133 49.5703 105.57C49.1589 106.003 48.9323 106.56 48.8906 107.242H53.3047C53.2891 106.555 53.0833 105.995 52.6875 105.562C52.2917 105.13 51.776 104.914 51.1406 104.914ZM53.2734 109.672H54.6094C54.4896 110.391 54.1146 110.982 53.4844 111.445C52.8594 111.909 52.1068 112.141 51.2266 112.141C50.0651 112.141 49.151 111.766 48.4844 111.016C47.8177 110.266 47.4844 109.25 47.4844 107.969C47.4844 106.698 47.8177 105.674 48.4844 104.898C49.1562 104.122 50.0495 103.734 51.1641 103.734C52.2578 103.734 53.1224 104.102 53.7578 104.836C54.3932 105.57 54.7109 106.555 54.7109 107.789V108.305H48.8828V108.383C48.8828 109.164 49.0964 109.789 49.5234 110.258C49.9505 110.727 50.5286 110.961 51.2578 110.961C51.7682 110.961 52.2031 110.844 52.5625 110.609C52.9219 110.375 53.1589 110.062 53.2734 109.672ZM59.8047 101.914H61.1641V103.875H62.7422V104.992H61.1641V109.82C61.1641 110.19 61.2448 110.464 61.4062 110.641C61.5677 110.812 61.8229 110.898 62.1719 110.898C62.3906 110.898 62.5781 110.885 62.7344 110.859V112C62.5573 112.042 62.2708 112.062 61.875 112.062C61.1302 112.062 60.599 111.896 60.2812 111.562C59.9635 111.229 59.8047 110.672 59.8047 109.891V104.992H58.5938V103.875H59.8047V101.914ZM67.2188 104.914C66.5885 104.914 66.0651 105.133 65.6484 105.57C65.237 106.003 65.0104 106.56 64.9688 107.242H69.3828C69.3672 106.555 69.1615 105.995 68.7656 105.562C68.3698 105.13 67.8542 104.914 67.2188 104.914ZM69.3516 109.672H70.6875C70.5677 110.391 70.1927 110.982 69.5625 111.445C68.9375 111.909 68.1849 112.141 67.3047 112.141C66.1432 112.141 65.2292 111.766 64.5625 111.016C63.8958 110.266 63.5625 109.25 63.5625 107.969C63.5625 106.698 63.8958 105.674 64.5625 104.898C65.2344 104.122 66.1276 103.734 67.2422 103.734C68.3359 103.734 69.2005 104.102 69.8359 104.836C70.4714 105.57 70.7891 106.555 70.7891 107.789V108.305H64.9609V108.383C64.9609 109.164 65.1745 109.789 65.6016 110.258C66.0286 110.727 66.6068 110.961 67.3359 110.961C67.8464 110.961 68.2812 110.844 68.6406 110.609C69 110.375 69.237 110.062 69.3516 109.672ZM74.8828 108.906H74.8516L72.8906 112H71.3828L74.1484 107.938L71.4297 103.875H72.9453L74.8984 106.922H74.9297L76.8594 103.875H78.375L75.6328 107.883L78.3359 112H76.8281L74.8828 108.906ZM79.9609 101.914H81.3203V103.875H82.8984V104.992H81.3203V109.82C81.3203 110.19 81.401 110.464 81.5625 110.641C81.724 110.812 81.9792 110.898 82.3281 110.898C82.5469 110.898 82.7344 110.885 82.8906 110.859V112C82.7135 112.042 82.4271 112.062 82.0312 112.062C81.2865 112.062 80.7552 111.896 80.4375 111.562C80.1198 111.229 79.9609 110.672 79.9609 109.891V104.992H78.75V103.875H79.9609V101.914ZM94.3828 106.539H93.0547C92.9505 106.07 92.7188 105.685 92.3594 105.383C92.0052 105.081 91.5443 104.93 90.9766 104.93C90.2682 104.93 89.6979 105.203 89.2656 105.75C88.8333 106.292 88.6172 107.021 88.6172 107.938C88.6172 108.87 88.8333 109.604 89.2656 110.141C89.7031 110.677 90.2786 110.945 90.9922 110.945C91.5391 110.945 91.9896 110.81 92.3438 110.539C92.7031 110.263 92.9427 109.878 93.0625 109.383H94.3984C94.2943 110.195 93.9271 110.859 93.2969 111.375C92.6719 111.885 91.901 112.141 90.9844 112.141C89.849 112.141 88.9401 111.766 88.2578 111.016C87.5755 110.26 87.2344 109.234 87.2344 107.938C87.2344 106.661 87.5755 105.643 88.2578 104.883C88.9401 104.117 89.8438 103.734 90.9688 103.734C91.9375 103.734 92.724 104.008 93.3281 104.555C93.9375 105.102 94.2891 105.763 94.3828 106.539ZM99.0156 112.141C97.8802 112.141 96.9688 111.763 96.2812 111.008C95.5938 110.247 95.25 109.224 95.25 107.938C95.25 106.651 95.5938 105.63 96.2812 104.875C96.9688 104.115 97.8802 103.734 99.0156 103.734C100.146 103.734 101.055 104.115 101.742 104.875C102.43 105.63 102.773 106.651 102.773 107.938C102.773 109.219 102.43 110.24 101.742 111C101.055 111.76 100.146 112.141 99.0156 112.141ZM97.2734 110.148C97.7057 110.68 98.2865 110.945 99.0156 110.945C99.7448 110.945 100.323 110.682 100.75 110.156C101.177 109.625 101.391 108.885 101.391 107.938C101.391 106.99 101.177 106.253 100.75 105.727C100.323 105.195 99.7448 104.93 99.0156 104.93C98.2865 104.93 97.7057 105.195 97.2734 105.727C96.8464 106.258 96.6328 106.995 96.6328 107.938C96.6328 108.88 96.8464 109.617 97.2734 110.148ZM104.219 112V100.727H105.578V112H104.219ZM110.781 112.141C109.646 112.141 108.734 111.763 108.047 111.008C107.359 110.247 107.016 109.224 107.016 107.938C107.016 106.651 107.359 105.63 108.047 104.875C108.734 104.115 109.646 103.734 110.781 103.734C111.911 103.734 112.82 104.115 113.508 104.875C114.195 105.63 114.539 106.651 114.539 107.938C114.539 109.219 114.195 110.24 113.508 111C112.82 111.76 111.911 112.141 110.781 112.141ZM109.039 110.148C109.471 110.68 110.052 110.945 110.781 110.945C111.51 110.945 112.089 110.682 112.516 110.156C112.943 109.625 113.156 108.885 113.156 107.938C113.156 106.99 112.943 106.253 112.516 105.727C112.089 105.195 111.51 104.93 110.781 104.93C110.052 104.93 109.471 105.195 109.039 105.727C108.612 106.258 108.398 106.995 108.398 107.938C108.398 108.88 108.612 109.617 109.039 110.148ZM115.914 112V103.875H117.195V105.203H117.227C117.362 104.75 117.604 104.393 117.953 104.133C118.307 103.867 118.721 103.734 119.195 103.734C119.305 103.734 119.487 103.753 119.742 103.789V105.109C119.596 105.057 119.354 105.031 119.016 105.031C118.49 105.031 118.068 105.206 117.75 105.555C117.432 105.904 117.273 106.365 117.273 106.938V112H115.914Z" fill="#817D90"/>
<path d="M26.4932 17L27.1963 13.5283H24.5332L23.8301 17H22.3359L23.0303 13.5283H21L21.29 12.043H23.3379L23.918 9.13379H21.7998L22.0986 7.65723H24.2168L24.9111 4.31738H26.4053L25.7373 7.65723H28.3916L29.0771 4.31738H30.5801L29.9033 7.65723H32.0479L31.7666 9.13379H29.5957L28.998 12.043H31.2305L30.9492 13.5283H28.708L28.0049 17H26.4932ZM24.7705 12.1133H27.5303L28.1543 9.07227H25.3857L24.7705 12.1133ZM41.2412 17.2373C39.9756 17.2373 38.9238 16.8887 38.0859 16.1914C37.248 15.4883 36.7998 14.583 36.7412 13.4756H38.6221C38.6924 14.1025 38.9707 14.6123 39.457 15.0049C39.9492 15.3975 40.5498 15.5938 41.2588 15.5938C42.0557 15.5938 42.7061 15.3418 43.21 14.8379C43.7139 14.334 43.9658 13.6836 43.9658 12.8867C43.9658 12.0898 43.7139 11.4365 43.21 10.9268C42.7119 10.4111 42.0674 10.1533 41.2764 10.1533C40.7256 10.1533 40.2246 10.2734 39.7734 10.5137C39.3281 10.748 38.9824 11.0732 38.7363 11.4893H36.9346L37.6025 4.31738H45.1523V5.97852H39.1846L38.833 9.87207H38.877C39.1582 9.46777 39.5449 9.1543 40.0371 8.93164C40.5352 8.70312 41.0918 8.58887 41.707 8.58887C42.9258 8.58887 43.9277 8.99023 44.7129 9.79297C45.498 10.5898 45.8906 11.6035 45.8906 12.834C45.8906 14.1348 45.457 15.1953 44.5898 16.0156C43.7285 16.8301 42.6123 17.2373 41.2412 17.2373ZM53.0273 17.2109C51.2461 17.2109 49.8311 16.6221 48.7822 15.4443C47.7393 14.2666 47.2178 12.6699 47.2178 10.6543C47.2178 8.65039 47.7422 7.05957 48.791 5.88184C49.8398 4.69824 51.252 4.10645 53.0273 4.10645C54.4688 4.10645 55.6846 4.51367 56.6748 5.32812C57.665 6.13672 58.2422 7.2002 58.4062 8.51855H56.4551C56.2793 7.7041 55.8779 7.05371 55.251 6.56738C54.6299 6.0752 53.8887 5.8291 53.0273 5.8291C51.873 5.8291 50.9502 6.26855 50.2588 7.14746C49.5732 8.02051 49.2305 9.18945 49.2305 10.6543C49.2305 12.1367 49.5732 13.3145 50.2588 14.1875C50.9443 15.0547 51.8701 15.4883 53.0361 15.4883C53.915 15.4883 54.6533 15.2744 55.251 14.8467C55.8545 14.4189 56.2559 13.8213 56.4551 13.0537H58.415C58.1748 14.3662 57.5801 15.3887 56.6309 16.1211C55.6875 16.8477 54.4863 17.2109 53.0273 17.2109ZM64.7783 17.2461C63.8408 17.2461 63.0088 17.0146 62.2822 16.5518C61.5615 16.0889 60.9932 15.4297 60.5771 14.5742C60.0557 13.5605 59.7949 12.3125 59.7949 10.8301C59.7949 8.70898 60.2432 7.05371 61.1396 5.86426C62.0361 4.66895 63.2783 4.07129 64.8662 4.07129C65.9854 4.07129 66.9434 4.37891 67.7402 4.99414C68.543 5.60938 69.041 6.42383 69.2344 7.4375H67.2656C67.1133 6.91602 66.8174 6.5 66.3779 6.18945C65.9385 5.87891 65.4287 5.72363 64.8486 5.72363C63.8467 5.72363 63.0703 6.16016 62.5195 7.0332C61.9688 7.90039 61.6904 9.13086 61.6846 10.7246H61.7197C62.001 10.1035 62.4551 9.60547 63.082 9.23047C63.709 8.85547 64.415 8.66797 65.2002 8.66797C66.4072 8.66797 67.4092 9.06641 68.2061 9.86328C69.0088 10.6602 69.4102 11.6592 69.4102 12.8604C69.4102 14.1318 68.9736 15.1807 68.1006 16.0068C67.2275 16.833 66.1201 17.2461 64.7783 17.2461ZM64.7607 15.585C65.5107 15.585 66.1465 15.3271 66.668 14.8115C67.1895 14.2959 67.4502 13.666 67.4502 12.9219C67.4502 12.1543 67.1982 11.5215 66.6943 11.0234C66.1963 10.5254 65.5576 10.2764 64.7783 10.2764C64.0049 10.2764 63.3604 10.5254 62.8447 11.0234C62.335 11.5156 62.0801 12.1367 62.0801 12.8867C62.0801 13.6426 62.3379 14.2812 62.8535 14.8027C63.3691 15.3242 64.0049 15.585 64.7607 15.585ZM79.4736 17L78.3135 13.5723H73.4795L72.3193 17H70.2715L74.8506 4.31738H76.9775L81.5566 17H79.4736ZM75.8701 6.42676L73.9805 11.9902H77.8125L75.9229 6.42676H75.8701ZM91.0049 15.2949V17H82.9541V4.31738H91.0049V6.01367H84.9229V9.72266H90.6797V11.3574H84.9229V15.2949H91.0049ZM98.1152 17H93.0264V4.31738H98.0889C99.2139 4.31738 100.116 4.60742 100.796 5.1875C101.476 5.76172 101.815 6.52637 101.815 7.48145C101.815 8.15527 101.596 8.75879 101.156 9.29199C100.723 9.81934 100.189 10.1357 99.5566 10.2412V10.3115C100.424 10.4111 101.121 10.7451 101.648 11.3135C102.176 11.876 102.439 12.5762 102.439 13.4141C102.439 14.5332 102.056 15.4121 101.288 16.0508C100.521 16.6836 99.4629 17 98.1152 17ZM94.9951 5.92578V9.71387H97.2012C98.0508 9.71387 98.7041 9.54395 99.1611 9.2041C99.6182 8.86426 99.8467 8.38086 99.8467 7.75391C99.8467 7.16797 99.6533 6.7168 99.2666 6.40039C98.8799 6.08398 98.3291 5.92578 97.6143 5.92578H94.9951ZM94.9951 15.3916H97.7109C98.5957 15.3916 99.2695 15.2129 99.7324 14.8555C100.195 14.498 100.427 13.9766 100.427 13.291C100.427 11.9082 99.4834 11.2168 97.5967 11.2168H94.9951V15.3916Z" fill="white"/>
</svg>
