<svg width="189" height="937" viewBox="0 0 189 937" fill="none" xmlns="http://www.w3.org/2000/svg">
<g opacity="0.8">
<mask id="path-1-outside-1_2290_2795" maskUnits="userSpaceOnUse" x="-4.09139e-05" y="-8.21774e-06" width="189" height="937" fill="black">
<rect fill="white" x="-4.09139e-05" y="-8.21774e-06" width="189" height="937"/>
<path d="M94.4372 771.493C107.666 771.493 119.89 773.775 131.109 778.337C142.244 782.817 151.915 789.163 160.12 797.376C168.241 805.589 174.604 815.503 179.209 827.117C183.73 838.648 185.991 851.465 185.991 865.568L185.991 936L3.00941 936L3.0094 865.568C3.0094 851.465 5.31184 838.648 9.91671 827.117C14.5216 815.503 20.8847 805.589 29.006 797.376C37.1274 789.163 46.7976 782.817 58.0168 778.337C69.1522 773.775 81.2924 771.493 94.4372 771.493ZM94.4372 814.549C85.3949 814.549 77.2317 815.71 69.9476 818.033C62.6635 820.356 56.5097 823.716 51.4862 828.112C46.379 832.426 42.4858 837.736 39.8066 844.04C37.0437 850.345 35.6622 857.521 35.6622 865.568L35.6622 893.691L153.338 893.691L153.338 865.568C153.338 857.521 151.998 850.345 149.319 844.04C146.556 837.736 142.663 832.426 137.639 828.112C132.532 823.716 126.336 820.356 119.052 818.033C111.768 815.71 103.563 814.549 94.4372 814.549Z"/>
<path d="M3.00939 619.992L35.6622 619.992L35.6622 694.406L78.362 694.406L78.362 637.414L109.759 637.414L109.759 694.406L153.338 694.406L153.338 619.992L185.991 619.992L185.991 736.715L3.0094 736.715L3.00939 619.992Z"/>
<path d="M40.1833 483.921C42.1927 485.166 43.6998 486.493 44.7045 487.904C45.7092 489.231 46.2115 490.973 46.2115 493.13C46.2115 495.038 45.6255 497.112 44.4533 499.352C43.1974 501.509 41.816 503.997 40.3089 506.818C38.8019 509.556 37.4623 512.708 36.2901 516.275C35.0342 519.843 34.4063 523.907 34.4063 528.47C34.4063 536.351 36.1227 542.241 39.5554 546.14C42.9044 549.956 47.4674 551.865 53.2445 551.865C56.9284 551.865 59.9843 550.703 62.4123 548.38C64.8404 546.057 66.9335 543.029 68.6917 539.296C70.45 535.48 72.0826 531.166 73.5897 526.355C75.013 521.46 76.6456 516.483 78.4876 511.422C80.2458 506.362 82.3389 501.426 84.7669 496.614C87.195 491.72 90.2928 487.406 94.0604 483.673C97.8281 479.857 102.433 476.787 107.875 474.464C113.233 472.141 119.722 470.98 127.341 470.98C135.797 470.98 143.709 472.432 151.077 475.335C158.445 478.239 164.892 482.47 170.418 488.028C175.86 493.503 180.172 500.306 183.353 508.436C186.451 516.483 188 525.65 188 535.937C188 541.578 187.414 547.343 186.242 553.233C185.07 559.04 183.437 564.682 181.344 570.157C179.167 575.632 176.613 580.776 173.683 585.587C170.753 590.399 167.487 594.588 163.887 598.155L144.044 585.712C142.621 584.716 141.449 583.43 140.528 581.854C139.523 580.195 139.021 578.411 139.021 576.503C139.021 574.014 139.816 571.526 141.407 569.037C142.998 566.465 144.756 563.603 146.682 560.451C148.607 557.215 150.366 553.524 151.956 549.376C153.547 545.228 154.343 540.333 154.343 534.692C154.343 527.06 152.668 521.128 149.319 516.898C145.886 512.667 140.486 510.551 133.118 510.551C128.848 510.551 125.374 511.713 122.694 514.035C120.015 516.358 117.797 519.428 116.038 523.244C114.28 526.977 112.731 531.249 111.392 536.061C110.052 540.873 108.587 545.809 106.996 550.869C105.321 555.929 103.312 560.866 100.968 565.677C98.5397 570.489 95.4 574.803 91.5487 578.619C87.6136 582.352 82.7576 585.38 76.9805 587.703C71.1198 590.025 63.9194 591.187 55.3794 591.187C48.514 591.187 41.816 589.818 35.2854 587.08C28.7548 584.343 22.936 580.319 17.8287 575.01C12.7215 569.701 8.66082 563.188 5.64672 555.473C2.54889 547.758 0.999983 538.923 0.999982 528.968C0.999982 523.41 1.46047 518.017 2.38145 512.791C3.2187 507.482 4.51644 502.463 6.27466 497.734C7.94917 493.005 10.0004 488.609 12.4285 484.544C14.7728 480.396 17.452 476.704 20.4661 473.469L40.1833 483.921Z"/>
<path d="M185.991 394.025L185.991 436.334L3.00938 436.334L3.00938 394.025L185.991 394.025Z"/>
<path d="M168.408 197.526C175.274 206.817 180.255 216.731 183.353 227.267C186.451 237.719 188 248.67 188 260.118C188 275.051 185.656 288.656 180.967 300.934C176.195 313.129 169.664 323.582 161.375 332.292C153.003 341.003 143.123 347.722 131.737 352.451C120.266 357.18 107.833 359.544 94.4372 359.544C80.79 359.544 68.2731 357.304 56.8865 352.824C45.4161 348.345 35.5366 341.957 27.2478 333.661C18.959 325.282 12.5122 315.203 7.90728 303.423C3.30241 291.56 0.999971 278.328 0.999971 263.727C0.99997 256.178 1.62791 249.085 2.88378 242.448C4.13966 235.811 5.85602 229.714 8.03287 224.156C10.2097 218.515 12.8052 213.371 15.8193 208.725C18.8334 204.08 22.0987 199.932 25.6151 196.282L44.3277 208.477C47.2581 210.385 49.0582 212.873 49.728 215.943C50.3978 218.929 49.6443 222.165 47.4674 225.649C45.458 228.967 43.7416 232.12 42.3183 235.106C40.8113 238.01 39.5972 240.996 38.6763 244.066C37.7553 247.135 37.0855 250.371 36.6669 253.772C36.2482 257.173 36.0389 260.989 36.0389 265.22C36.0389 273.101 37.4623 280.194 40.3089 286.499C43.0718 292.804 47.0069 298.196 52.1141 302.676C57.2214 307.073 63.3752 310.474 70.5755 312.88C77.6922 315.286 85.6461 316.489 94.4372 316.489C104.149 316.489 112.773 315.161 120.308 312.507C127.844 309.852 134.207 306.119 139.398 301.307C144.589 296.413 148.565 290.605 151.328 283.886C154.008 277.083 155.347 269.576 155.347 261.363C155.347 256.302 154.845 251.739 153.84 247.674C152.835 243.527 151.496 239.503 149.821 235.604L122.066 235.604L122.066 253.523C122.066 256.178 121.355 258.252 119.932 259.745C118.508 261.238 116.708 261.985 114.531 261.985L91.1719 261.985L91.1719 197.526L168.408 197.526Z"/>
<path d="M3.00937 137.135C3.00937 135.31 3.09309 133.775 3.26054 132.531C3.42799 131.286 3.76289 130.166 4.26524 129.171C4.68387 128.175 5.31181 127.221 6.14906 126.309C6.98631 125.396 8.1166 124.359 9.53992 123.198L119.429 37.0869C115.913 37.4187 112.522 37.6676 109.257 37.8335C105.908 37.9994 102.768 38.0824 99.8375 38.0824L3.00937 38.0824L3.00937 0.999965L185.991 0.999957L185.991 22.901C185.991 26.1363 185.488 28.874 184.484 31.1139C183.395 33.2708 181.553 35.4277 178.958 37.5846L69.9476 123.073C73.1291 122.824 76.2688 122.617 79.3667 122.451C82.3808 122.285 85.2274 122.202 87.9066 122.202L185.991 122.202L185.991 159.285L3.00937 159.285L3.00937 137.135Z"/>
</mask>
<path d="M94.4372 771.493C107.666 771.493 119.89 773.775 131.109 778.337C142.244 782.817 151.915 789.163 160.12 797.376C168.241 805.589 174.604 815.503 179.209 827.117C183.73 838.648 185.991 851.465 185.991 865.568L185.991 936L3.00941 936L3.0094 865.568C3.0094 851.465 5.31184 838.648 9.91671 827.117C14.5216 815.503 20.8847 805.589 29.006 797.376C37.1274 789.163 46.7976 782.817 58.0168 778.337C69.1522 773.775 81.2924 771.493 94.4372 771.493ZM94.4372 814.549C85.3949 814.549 77.2317 815.71 69.9476 818.033C62.6635 820.356 56.5097 823.716 51.4862 828.112C46.379 832.426 42.4858 837.736 39.8066 844.04C37.0437 850.345 35.6622 857.521 35.6622 865.568L35.6622 893.691L153.338 893.691L153.338 865.568C153.338 857.521 151.998 850.345 149.319 844.04C146.556 837.736 142.663 832.426 137.639 828.112C132.532 823.716 126.336 820.356 119.052 818.033C111.768 815.71 103.563 814.549 94.4372 814.549Z" fill="#C4C4C4" fill-opacity="0.08"/>
<path d="M3.00939 619.992L35.6622 619.992L35.6622 694.406L78.362 694.406L78.362 637.414L109.759 637.414L109.759 694.406L153.338 694.406L153.338 619.992L185.991 619.992L185.991 736.715L3.0094 736.715L3.00939 619.992Z" fill="#C4C4C4" fill-opacity="0.08"/>
<path d="M40.1833 483.921C42.1927 485.166 43.6998 486.493 44.7045 487.904C45.7092 489.231 46.2115 490.973 46.2115 493.13C46.2115 495.038 45.6255 497.112 44.4533 499.352C43.1974 501.509 41.816 503.997 40.3089 506.818C38.8019 509.556 37.4623 512.708 36.2901 516.275C35.0342 519.843 34.4063 523.907 34.4063 528.47C34.4063 536.351 36.1227 542.241 39.5554 546.14C42.9044 549.956 47.4674 551.865 53.2445 551.865C56.9284 551.865 59.9843 550.703 62.4123 548.38C64.8404 546.057 66.9335 543.029 68.6917 539.296C70.45 535.48 72.0826 531.166 73.5897 526.355C75.013 521.46 76.6456 516.483 78.4876 511.422C80.2458 506.362 82.3389 501.426 84.7669 496.614C87.195 491.72 90.2928 487.406 94.0604 483.673C97.8281 479.857 102.433 476.787 107.875 474.464C113.233 472.141 119.722 470.98 127.341 470.98C135.797 470.98 143.709 472.432 151.077 475.335C158.445 478.239 164.892 482.47 170.418 488.028C175.86 493.503 180.172 500.306 183.353 508.436C186.451 516.483 188 525.65 188 535.937C188 541.578 187.414 547.343 186.242 553.233C185.07 559.04 183.437 564.682 181.344 570.157C179.167 575.632 176.613 580.776 173.683 585.587C170.753 590.399 167.487 594.588 163.887 598.155L144.044 585.712C142.621 584.716 141.449 583.43 140.528 581.854C139.523 580.195 139.021 578.411 139.021 576.503C139.021 574.014 139.816 571.526 141.407 569.037C142.998 566.465 144.756 563.603 146.682 560.451C148.607 557.215 150.366 553.524 151.956 549.376C153.547 545.228 154.343 540.333 154.343 534.692C154.343 527.06 152.668 521.128 149.319 516.898C145.886 512.667 140.486 510.551 133.118 510.551C128.848 510.551 125.374 511.713 122.694 514.035C120.015 516.358 117.797 519.428 116.038 523.244C114.28 526.977 112.731 531.249 111.392 536.061C110.052 540.873 108.587 545.809 106.996 550.869C105.321 555.929 103.312 560.866 100.968 565.677C98.5397 570.489 95.4 574.803 91.5487 578.619C87.6136 582.352 82.7576 585.38 76.9805 587.703C71.1198 590.025 63.9194 591.187 55.3794 591.187C48.514 591.187 41.816 589.818 35.2854 587.08C28.7548 584.343 22.936 580.319 17.8287 575.01C12.7215 569.701 8.66082 563.188 5.64672 555.473C2.54889 547.758 0.999983 538.923 0.999982 528.968C0.999982 523.41 1.46047 518.017 2.38145 512.791C3.2187 507.482 4.51644 502.463 6.27466 497.734C7.94917 493.005 10.0004 488.609 12.4285 484.544C14.7728 480.396 17.452 476.704 20.4661 473.469L40.1833 483.921Z" fill="#C4C4C4" fill-opacity="0.08"/>
<path d="M185.991 394.025L185.991 436.334L3.00938 436.334L3.00938 394.025L185.991 394.025Z" fill="#C4C4C4" fill-opacity="0.08"/>
<path d="M168.408 197.526C175.274 206.817 180.255 216.731 183.353 227.267C186.451 237.719 188 248.67 188 260.118C188 275.051 185.656 288.656 180.967 300.934C176.195 313.129 169.664 323.582 161.375 332.292C153.003 341.003 143.123 347.722 131.737 352.451C120.266 357.18 107.833 359.544 94.4372 359.544C80.79 359.544 68.2731 357.304 56.8865 352.824C45.4161 348.345 35.5366 341.957 27.2478 333.661C18.959 325.282 12.5122 315.203 7.90728 303.423C3.30241 291.56 0.999971 278.328 0.999971 263.727C0.99997 256.178 1.62791 249.085 2.88378 242.448C4.13966 235.811 5.85602 229.714 8.03287 224.156C10.2097 218.515 12.8052 213.371 15.8193 208.725C18.8334 204.08 22.0987 199.932 25.6151 196.282L44.3277 208.477C47.2581 210.385 49.0582 212.873 49.728 215.943C50.3978 218.929 49.6443 222.165 47.4674 225.649C45.458 228.967 43.7416 232.12 42.3183 235.106C40.8113 238.01 39.5972 240.996 38.6763 244.066C37.7553 247.135 37.0855 250.371 36.6669 253.772C36.2482 257.173 36.0389 260.989 36.0389 265.22C36.0389 273.101 37.4623 280.194 40.3089 286.499C43.0718 292.804 47.0069 298.196 52.1141 302.676C57.2214 307.073 63.3752 310.474 70.5755 312.88C77.6922 315.286 85.6461 316.489 94.4372 316.489C104.149 316.489 112.773 315.161 120.308 312.507C127.844 309.852 134.207 306.119 139.398 301.307C144.589 296.413 148.565 290.605 151.328 283.886C154.008 277.083 155.347 269.576 155.347 261.363C155.347 256.302 154.845 251.739 153.84 247.674C152.835 243.527 151.496 239.503 149.821 235.604L122.066 235.604L122.066 253.523C122.066 256.178 121.355 258.252 119.932 259.745C118.508 261.238 116.708 261.985 114.531 261.985L91.1719 261.985L91.1719 197.526L168.408 197.526Z" fill="#C4C4C4" fill-opacity="0.08"/>
<path d="M3.00937 137.135C3.00937 135.31 3.09309 133.775 3.26054 132.531C3.42799 131.286 3.76289 130.166 4.26524 129.171C4.68387 128.175 5.31181 127.221 6.14906 126.309C6.98631 125.396 8.1166 124.359 9.53992 123.198L119.429 37.0869C115.913 37.4187 112.522 37.6676 109.257 37.8335C105.908 37.9994 102.768 38.0824 99.8375 38.0824L3.00937 38.0824L3.00937 0.999965L185.991 0.999957L185.991 22.901C185.991 26.1363 185.488 28.874 184.484 31.1139C183.395 33.2708 181.553 35.4277 178.958 37.5846L69.9476 123.073C73.1291 122.824 76.2688 122.617 79.3667 122.451C82.3808 122.285 85.2274 122.202 87.9066 122.202L185.991 122.202L185.991 159.285L3.00937 159.285L3.00937 137.135Z" fill="#C4C4C4" fill-opacity="0.08"/>
<path d="M94.4372 771.493C107.666 771.493 119.89 773.775 131.109 778.337C142.244 782.817 151.915 789.163 160.12 797.376C168.241 805.589 174.604 815.503 179.209 827.117C183.73 838.648 185.991 851.465 185.991 865.568L185.991 936L3.00941 936L3.0094 865.568C3.0094 851.465 5.31184 838.648 9.91671 827.117C14.5216 815.503 20.8847 805.589 29.006 797.376C37.1274 789.163 46.7976 782.817 58.0168 778.337C69.1522 773.775 81.2924 771.493 94.4372 771.493ZM94.4372 814.549C85.3949 814.549 77.2317 815.71 69.9476 818.033C62.6635 820.356 56.5097 823.716 51.4862 828.112C46.379 832.426 42.4858 837.736 39.8066 844.04C37.0437 850.345 35.6622 857.521 35.6622 865.568L35.6622 893.691L153.338 893.691L153.338 865.568C153.338 857.521 151.998 850.345 149.319 844.04C146.556 837.736 142.663 832.426 137.639 828.112C132.532 823.716 126.336 820.356 119.052 818.033C111.768 815.71 103.563 814.549 94.4372 814.549Z" stroke="#777777" stroke-width="2" mask="url(#path-1-outside-1_2290_2795)"/>
<path d="M3.00939 619.992L35.6622 619.992L35.6622 694.406L78.362 694.406L78.362 637.414L109.759 637.414L109.759 694.406L153.338 694.406L153.338 619.992L185.991 619.992L185.991 736.715L3.0094 736.715L3.00939 619.992Z" stroke="#777777" stroke-width="2" mask="url(#path-1-outside-1_2290_2795)"/>
<path d="M40.1833 483.921C42.1927 485.166 43.6998 486.493 44.7045 487.904C45.7092 489.231 46.2115 490.973 46.2115 493.13C46.2115 495.038 45.6255 497.112 44.4533 499.352C43.1974 501.509 41.816 503.997 40.3089 506.818C38.8019 509.556 37.4623 512.708 36.2901 516.275C35.0342 519.843 34.4063 523.907 34.4063 528.47C34.4063 536.351 36.1227 542.241 39.5554 546.14C42.9044 549.956 47.4674 551.865 53.2445 551.865C56.9284 551.865 59.9843 550.703 62.4123 548.38C64.8404 546.057 66.9335 543.029 68.6917 539.296C70.45 535.48 72.0826 531.166 73.5897 526.355C75.013 521.46 76.6456 516.483 78.4876 511.422C80.2458 506.362 82.3389 501.426 84.7669 496.614C87.195 491.72 90.2928 487.406 94.0604 483.673C97.8281 479.857 102.433 476.787 107.875 474.464C113.233 472.141 119.722 470.98 127.341 470.98C135.797 470.98 143.709 472.432 151.077 475.335C158.445 478.239 164.892 482.47 170.418 488.028C175.86 493.503 180.172 500.306 183.353 508.436C186.451 516.483 188 525.65 188 535.937C188 541.578 187.414 547.343 186.242 553.233C185.07 559.04 183.437 564.682 181.344 570.157C179.167 575.632 176.613 580.776 173.683 585.587C170.753 590.399 167.487 594.588 163.887 598.155L144.044 585.712C142.621 584.716 141.449 583.43 140.528 581.854C139.523 580.195 139.021 578.411 139.021 576.503C139.021 574.014 139.816 571.526 141.407 569.037C142.998 566.465 144.756 563.603 146.682 560.451C148.607 557.215 150.366 553.524 151.956 549.376C153.547 545.228 154.343 540.333 154.343 534.692C154.343 527.06 152.668 521.128 149.319 516.898C145.886 512.667 140.486 510.551 133.118 510.551C128.848 510.551 125.374 511.713 122.694 514.035C120.015 516.358 117.797 519.428 116.038 523.244C114.28 526.977 112.731 531.249 111.392 536.061C110.052 540.873 108.587 545.809 106.996 550.869C105.321 555.929 103.312 560.866 100.968 565.677C98.5397 570.489 95.4 574.803 91.5487 578.619C87.6136 582.352 82.7576 585.38 76.9805 587.703C71.1198 590.025 63.9194 591.187 55.3794 591.187C48.514 591.187 41.816 589.818 35.2854 587.08C28.7548 584.343 22.936 580.319 17.8287 575.01C12.7215 569.701 8.66082 563.188 5.64672 555.473C2.54889 547.758 0.999983 538.923 0.999982 528.968C0.999982 523.41 1.46047 518.017 2.38145 512.791C3.2187 507.482 4.51644 502.463 6.27466 497.734C7.94917 493.005 10.0004 488.609 12.4285 484.544C14.7728 480.396 17.452 476.704 20.4661 473.469L40.1833 483.921Z" stroke="#777777" stroke-width="2" mask="url(#path-1-outside-1_2290_2795)"/>
<path d="M185.991 394.025L185.991 436.334L3.00938 436.334L3.00938 394.025L185.991 394.025Z" stroke="#777777" stroke-width="2" mask="url(#path-1-outside-1_2290_2795)"/>
<path d="M168.408 197.526C175.274 206.817 180.255 216.731 183.353 227.267C186.451 237.719 188 248.67 188 260.118C188 275.051 185.656 288.656 180.967 300.934C176.195 313.129 169.664 323.582 161.375 332.292C153.003 341.003 143.123 347.722 131.737 352.451C120.266 357.18 107.833 359.544 94.4372 359.544C80.79 359.544 68.2731 357.304 56.8865 352.824C45.4161 348.345 35.5366 341.957 27.2478 333.661C18.959 325.282 12.5122 315.203 7.90728 303.423C3.30241 291.56 0.999971 278.328 0.999971 263.727C0.99997 256.178 1.62791 249.085 2.88378 242.448C4.13966 235.811 5.85602 229.714 8.03287 224.156C10.2097 218.515 12.8052 213.371 15.8193 208.725C18.8334 204.08 22.0987 199.932 25.6151 196.282L44.3277 208.477C47.2581 210.385 49.0582 212.873 49.728 215.943C50.3978 218.929 49.6443 222.165 47.4674 225.649C45.458 228.967 43.7416 232.12 42.3183 235.106C40.8113 238.01 39.5972 240.996 38.6763 244.066C37.7553 247.135 37.0855 250.371 36.6669 253.772C36.2482 257.173 36.0389 260.989 36.0389 265.22C36.0389 273.101 37.4623 280.194 40.3089 286.499C43.0718 292.804 47.0069 298.196 52.1141 302.676C57.2214 307.073 63.3752 310.474 70.5755 312.88C77.6922 315.286 85.6461 316.489 94.4372 316.489C104.149 316.489 112.773 315.161 120.308 312.507C127.844 309.852 134.207 306.119 139.398 301.307C144.589 296.413 148.565 290.605 151.328 283.886C154.008 277.083 155.347 269.576 155.347 261.363C155.347 256.302 154.845 251.739 153.84 247.674C152.835 243.527 151.496 239.503 149.821 235.604L122.066 235.604L122.066 253.523C122.066 256.178 121.355 258.252 119.932 259.745C118.508 261.238 116.708 261.985 114.531 261.985L91.1719 261.985L91.1719 197.526L168.408 197.526Z" stroke="#777777" stroke-width="2" mask="url(#path-1-outside-1_2290_2795)"/>
<path d="M3.00937 137.135C3.00937 135.31 3.09309 133.775 3.26054 132.531C3.42799 131.286 3.76289 130.166 4.26524 129.171C4.68387 128.175 5.31181 127.221 6.14906 126.309C6.98631 125.396 8.1166 124.359 9.53992 123.198L119.429 37.0869C115.913 37.4187 112.522 37.6676 109.257 37.8335C105.908 37.9994 102.768 38.0824 99.8375 38.0824L3.00937 38.0824L3.00937 0.999965L185.991 0.999957L185.991 22.901C185.991 26.1363 185.488 28.874 184.484 31.1139C183.395 33.2708 181.553 35.4277 178.958 37.5846L69.9476 123.073C73.1291 122.824 76.2688 122.617 79.3667 122.451C82.3808 122.285 85.2274 122.202 87.9066 122.202L185.991 122.202L185.991 159.285L3.00937 159.285L3.00937 137.135Z" stroke="#777777" stroke-width="2" mask="url(#path-1-outside-1_2290_2795)"/>
</g>
</svg>
