<svg width="142" height="1190" viewBox="0 0 142 1190" fill="none" xmlns="http://www.w3.org/2000/svg">
<mask id="path-1-outside-1_2586_3484" maskUnits="userSpaceOnUse" x="-5.19728e-05" y="-7.47465e-06" width="172" height="1190" fill="black">
<rect fill="white" x="-5.19728e-05" y="-7.47465e-06" width="172" height="1190"/>
<path d="M85.9429 979.98C97.9689 979.98 109.081 982.878 119.281 988.676C129.404 994.368 138.195 1002.43 145.654 1012.87C153.037 1023.3 158.822 1035.9 163.008 1050.65C167.118 1065.31 169.173 1081.59 169.173 1099.51L169.173 1189L2.82673 1189L2.82673 1099.51C2.82673 1081.59 4.91985 1065.31 9.1061 1050.65C13.2923 1035.9 19.077 1023.3 26.46 1012.87C33.8431 1002.43 42.6342 994.368 52.8334 988.676C62.9566 982.878 73.9931 979.98 85.9429 979.98ZM85.9429 1034.69C77.7226 1034.69 70.3015 1036.16 63.6796 1039.11C57.0577 1042.06 51.4634 1046.33 46.8966 1051.92C42.2536 1057.4 38.7143 1064.15 36.2787 1072.16C33.767 1080.17 32.5111 1089.29 32.5111 1099.51L32.5111 1135.24L139.489 1135.24L139.489 1099.51C139.489 1089.29 138.271 1080.17 135.835 1072.16C133.324 1064.15 129.784 1057.4 125.218 1051.92C120.575 1046.33 114.942 1042.06 108.32 1039.11C101.698 1036.16 94.2393 1034.69 85.9429 1034.69Z"/>
<path d="M2.82671 787.484L32.5111 787.484L32.5111 882.034L71.3291 882.034L71.3291 809.62L99.8717 809.62L99.8717 882.034L139.489 882.034L139.489 787.484L169.173 787.484L169.173 935.791L2.82672 935.791L2.82671 787.484Z"/>
<path d="M36.6212 614.594C38.4479 616.175 39.818 617.862 40.7313 619.654C41.6447 621.34 42.1014 623.554 42.1014 626.294C42.1014 628.719 41.5686 631.354 40.503 634.2C39.3613 636.94 38.1054 640.103 36.7354 643.686C35.3653 647.165 34.1475 651.17 33.0819 655.703C31.9402 660.235 31.3693 665.4 31.3693 671.197C31.3693 681.211 32.9297 688.695 36.0503 693.649C39.0949 698.498 43.2431 700.922 48.4949 700.922C51.8439 700.922 54.6221 699.446 56.8294 696.495C59.0367 693.544 60.9395 689.696 62.5379 684.953C64.1363 680.104 65.6205 674.623 66.9906 668.51C68.2845 662.291 69.7687 655.966 71.4432 649.537C73.0416 643.107 74.9444 636.835 77.1517 630.722C79.359 624.503 82.1753 619.021 85.6004 614.278C89.0255 609.43 93.2117 605.529 98.1591 602.578C103.03 599.627 108.929 598.151 115.856 598.151C123.543 598.151 130.736 599.996 137.434 603.685C144.132 607.374 149.993 612.75 155.016 619.812C159.963 626.769 163.883 635.412 166.776 645.742C169.592 655.966 171 667.614 171 680.684C171 687.852 170.467 695.177 169.402 702.661C168.336 710.04 166.852 717.207 164.949 724.164C162.97 731.121 160.649 737.656 157.985 743.77C155.321 749.883 152.352 755.206 149.079 759.739L131.04 743.928C129.746 742.663 128.681 741.029 127.843 739.026C126.93 736.918 126.473 734.652 126.473 732.228C126.473 729.065 127.197 725.903 128.643 722.741C130.089 719.473 131.687 715.837 133.438 711.832C135.188 707.721 136.787 703.03 138.233 697.76C139.679 692.49 140.402 686.271 140.402 679.103C140.402 669.406 138.88 661.869 135.835 656.493C132.715 651.118 127.805 648.43 121.107 648.43C117.226 648.43 114.067 649.905 111.631 652.857C109.196 655.808 107.179 659.708 105.58 664.557C103.982 669.3 102.574 674.729 101.356 680.842C100.138 686.956 98.8061 693.227 97.36 699.657C95.8377 706.087 94.0109 712.359 91.8798 718.472C89.6725 724.586 86.8182 730.067 83.317 734.915C79.7396 739.659 75.325 743.506 70.0732 746.457C64.7452 749.409 58.1994 750.884 50.4358 750.884C44.1945 750.884 38.1054 749.145 32.1685 745.667C26.2317 742.189 20.9418 737.076 16.2988 730.33C11.6559 723.584 7.96438 715.31 5.22428 705.507C2.40808 695.704 0.999978 684.479 0.999977 671.83C0.999977 664.768 1.4186 657.916 2.25585 651.276C3.01699 644.53 4.19675 638.153 5.79513 632.145C7.31741 626.136 9.1822 620.55 11.3895 615.385C13.5207 610.115 15.9563 605.424 18.6964 601.313L36.6212 614.594Z"/>
<path d="M169.173 500.373L169.173 554.13L2.8267 554.13L2.8267 500.373L169.173 500.373Z"/>
<path d="M153.189 250.704C159.431 262.509 163.959 275.105 166.776 288.492C169.592 301.773 171 315.687 171 330.233C171 349.206 168.869 366.492 164.606 382.092C160.268 397.587 154.331 410.868 146.796 421.936C139.184 433.004 130.203 441.541 119.852 447.55C109.424 453.558 98.1211 456.562 85.9429 456.562C73.5364 456.562 62.1573 453.716 51.8059 448.024C41.3783 442.332 32.3969 434.216 24.8616 423.675C17.3264 413.029 11.4656 400.222 7.27934 385.255C3.09309 370.182 0.999963 353.369 0.999963 334.818C0.999962 325.226 1.57081 316.214 2.71252 307.781C3.85422 299.349 5.41455 291.601 7.39351 284.539C9.37247 277.372 11.732 270.836 14.4721 264.934C17.2122 259.031 20.1806 253.76 23.3774 249.123L40.3888 264.617C43.0528 267.042 44.6892 270.204 45.2981 274.104C45.9071 277.899 45.222 282.009 43.2431 286.436C41.4163 290.653 39.856 294.658 38.5621 298.453C37.192 302.142 36.0884 305.936 35.2511 309.837C34.4139 313.737 33.805 317.847 33.4244 322.169C33.0438 326.491 32.8536 331.339 32.8536 336.715C32.8536 346.729 34.1475 355.741 36.7353 363.752C39.2471 371.763 42.8244 378.614 47.4674 384.306C52.1103 389.892 57.7047 394.214 64.2505 397.271C70.7201 400.328 77.9509 401.856 85.9429 401.856C94.7721 401.856 102.612 400.17 109.462 396.797C116.312 393.424 122.097 388.68 126.816 382.567C131.535 376.348 135.15 368.969 137.662 360.431C140.098 351.788 141.316 342.249 141.316 331.814C141.316 325.384 140.859 319.587 139.946 314.422C139.032 309.151 137.814 304.039 136.292 299.085L111.06 299.085L111.06 321.853C111.06 325.226 110.413 327.861 109.12 329.758C107.826 331.656 106.189 332.604 104.21 332.604L82.9744 332.604L82.9744 250.704L153.189 250.704Z"/>
<path d="M2.82669 173.971C2.82669 171.652 2.9028 169.702 3.05502 168.121C3.20725 166.54 3.5117 165.117 3.96839 163.852C4.34896 162.587 4.91981 161.375 5.68095 160.216C6.44208 159.056 7.46962 157.739 8.76355 156.263L108.663 46.8516C105.466 47.2732 102.383 47.5894 99.415 47.8002C96.3704 48.011 93.5162 48.1166 90.8522 48.1166L2.82668 48.1166L2.82668 1L169.173 0.999993L169.173 28.8271C169.173 32.938 168.717 36.4164 167.803 39.2623C166.814 42.0029 165.139 44.7434 162.78 47.484L63.6796 156.105C66.5719 155.789 69.4262 155.525 72.2424 155.314C74.9825 155.104 77.5704 154.998 80.006 154.998L169.173 154.998L169.173 202.115L2.82669 202.115L2.82669 173.971Z"/>
</mask>
<path d="M85.9429 979.98C97.9689 979.98 109.081 982.878 119.281 988.676C129.404 994.368 138.195 1002.43 145.654 1012.87C153.037 1023.3 158.822 1035.9 163.008 1050.65C167.118 1065.31 169.173 1081.59 169.173 1099.51L169.173 1189L2.82673 1189L2.82673 1099.51C2.82673 1081.59 4.91985 1065.31 9.1061 1050.65C13.2923 1035.9 19.077 1023.3 26.46 1012.87C33.8431 1002.43 42.6342 994.368 52.8334 988.676C62.9566 982.878 73.9931 979.98 85.9429 979.98ZM85.9429 1034.69C77.7226 1034.69 70.3015 1036.16 63.6796 1039.11C57.0577 1042.06 51.4634 1046.33 46.8966 1051.92C42.2536 1057.4 38.7143 1064.15 36.2787 1072.16C33.767 1080.17 32.5111 1089.29 32.5111 1099.51L32.5111 1135.24L139.489 1135.24L139.489 1099.51C139.489 1089.29 138.271 1080.17 135.835 1072.16C133.324 1064.15 129.784 1057.4 125.218 1051.92C120.575 1046.33 114.942 1042.06 108.32 1039.11C101.698 1036.16 94.2393 1034.69 85.9429 1034.69Z" fill="#C4C4C4" fill-opacity="0.08"/>
<path d="M2.82671 787.484L32.5111 787.484L32.5111 882.034L71.3291 882.034L71.3291 809.62L99.8717 809.62L99.8717 882.034L139.489 882.034L139.489 787.484L169.173 787.484L169.173 935.791L2.82672 935.791L2.82671 787.484Z" fill="#C4C4C4" fill-opacity="0.08"/>
<path d="M36.6212 614.594C38.4479 616.175 39.818 617.862 40.7313 619.654C41.6447 621.34 42.1014 623.554 42.1014 626.294C42.1014 628.719 41.5686 631.354 40.503 634.2C39.3613 636.94 38.1054 640.103 36.7354 643.686C35.3653 647.165 34.1475 651.17 33.0819 655.703C31.9402 660.235 31.3693 665.4 31.3693 671.197C31.3693 681.211 32.9297 688.695 36.0503 693.649C39.0949 698.498 43.2431 700.922 48.4949 700.922C51.8439 700.922 54.6221 699.446 56.8294 696.495C59.0367 693.544 60.9395 689.696 62.5379 684.953C64.1363 680.104 65.6205 674.623 66.9906 668.51C68.2845 662.291 69.7687 655.966 71.4432 649.537C73.0416 643.107 74.9444 636.835 77.1517 630.722C79.359 624.503 82.1753 619.021 85.6004 614.278C89.0255 609.43 93.2117 605.529 98.1591 602.578C103.03 599.627 108.929 598.151 115.856 598.151C123.543 598.151 130.736 599.996 137.434 603.685C144.132 607.374 149.993 612.75 155.016 619.812C159.963 626.769 163.883 635.412 166.776 645.742C169.592 655.966 171 667.614 171 680.684C171 687.852 170.467 695.177 169.402 702.661C168.336 710.04 166.852 717.207 164.949 724.164C162.97 731.121 160.649 737.656 157.985 743.77C155.321 749.883 152.352 755.206 149.079 759.739L131.04 743.928C129.746 742.663 128.681 741.029 127.843 739.026C126.93 736.918 126.473 734.652 126.473 732.228C126.473 729.065 127.197 725.903 128.643 722.741C130.089 719.473 131.687 715.837 133.438 711.832C135.188 707.721 136.787 703.03 138.233 697.76C139.679 692.49 140.402 686.271 140.402 679.103C140.402 669.406 138.88 661.869 135.835 656.493C132.715 651.118 127.805 648.43 121.107 648.43C117.226 648.43 114.067 649.905 111.631 652.857C109.196 655.808 107.179 659.708 105.58 664.557C103.982 669.3 102.574 674.729 101.356 680.842C100.138 686.956 98.8061 693.227 97.36 699.657C95.8377 706.087 94.0109 712.359 91.8798 718.472C89.6725 724.586 86.8182 730.067 83.317 734.915C79.7396 739.659 75.325 743.506 70.0732 746.457C64.7452 749.409 58.1994 750.884 50.4358 750.884C44.1945 750.884 38.1054 749.145 32.1685 745.667C26.2317 742.189 20.9418 737.076 16.2988 730.33C11.6559 723.584 7.96438 715.31 5.22428 705.507C2.40808 695.704 0.999978 684.479 0.999977 671.83C0.999977 664.768 1.4186 657.916 2.25585 651.276C3.01699 644.53 4.19675 638.153 5.79513 632.145C7.31741 626.136 9.1822 620.55 11.3895 615.385C13.5207 610.115 15.9563 605.424 18.6964 601.313L36.6212 614.594Z" fill="#C4C4C4" fill-opacity="0.08"/>
<path d="M169.173 500.373L169.173 554.13L2.8267 554.13L2.8267 500.373L169.173 500.373Z" fill="#C4C4C4" fill-opacity="0.08"/>
<path d="M153.189 250.704C159.431 262.509 163.959 275.105 166.776 288.492C169.592 301.773 171 315.687 171 330.233C171 349.206 168.869 366.492 164.606 382.092C160.268 397.587 154.331 410.868 146.796 421.936C139.184 433.004 130.203 441.541 119.852 447.55C109.424 453.558 98.1211 456.562 85.9429 456.562C73.5364 456.562 62.1573 453.716 51.8059 448.024C41.3783 442.332 32.3969 434.216 24.8616 423.675C17.3264 413.029 11.4656 400.222 7.27934 385.255C3.09309 370.182 0.999963 353.369 0.999963 334.818C0.999962 325.226 1.57081 316.214 2.71252 307.781C3.85422 299.349 5.41455 291.601 7.39351 284.539C9.37247 277.372 11.732 270.836 14.4721 264.934C17.2122 259.031 20.1806 253.76 23.3774 249.123L40.3888 264.617C43.0528 267.042 44.6892 270.204 45.2981 274.104C45.9071 277.899 45.222 282.009 43.2431 286.436C41.4163 290.653 39.856 294.658 38.5621 298.453C37.192 302.142 36.0884 305.936 35.2511 309.837C34.4139 313.737 33.805 317.847 33.4244 322.169C33.0438 326.491 32.8536 331.339 32.8536 336.715C32.8536 346.729 34.1475 355.741 36.7353 363.752C39.2471 371.763 42.8244 378.614 47.4674 384.306C52.1103 389.892 57.7047 394.214 64.2505 397.271C70.7201 400.328 77.9509 401.856 85.9429 401.856C94.7721 401.856 102.612 400.17 109.462 396.797C116.312 393.424 122.097 388.68 126.816 382.567C131.535 376.348 135.15 368.969 137.662 360.431C140.098 351.788 141.316 342.249 141.316 331.814C141.316 325.384 140.859 319.587 139.946 314.422C139.032 309.151 137.814 304.039 136.292 299.085L111.06 299.085L111.06 321.853C111.06 325.226 110.413 327.861 109.12 329.758C107.826 331.656 106.189 332.604 104.21 332.604L82.9744 332.604L82.9744 250.704L153.189 250.704Z" fill="#C4C4C4" fill-opacity="0.08"/>
<path d="M2.82669 173.971C2.82669 171.652 2.9028 169.702 3.05502 168.121C3.20725 166.54 3.5117 165.117 3.96839 163.852C4.34896 162.587 4.91981 161.375 5.68095 160.216C6.44208 159.056 7.46962 157.739 8.76355 156.263L108.663 46.8516C105.466 47.2732 102.383 47.5894 99.415 47.8002C96.3704 48.011 93.5162 48.1166 90.8522 48.1166L2.82668 48.1166L2.82668 1L169.173 0.999993L169.173 28.8271C169.173 32.938 168.717 36.4164 167.803 39.2623C166.814 42.0029 165.139 44.7434 162.78 47.484L63.6796 156.105C66.5719 155.789 69.4262 155.525 72.2424 155.314C74.9825 155.104 77.5704 154.998 80.006 154.998L169.173 154.998L169.173 202.115L2.82669 202.115L2.82669 173.971Z" fill="#C4C4C4" fill-opacity="0.08"/>
<path d="M85.9429 979.98C97.9689 979.98 109.081 982.878 119.281 988.676C129.404 994.368 138.195 1002.43 145.654 1012.87C153.037 1023.3 158.822 1035.9 163.008 1050.65C167.118 1065.31 169.173 1081.59 169.173 1099.51L169.173 1189L2.82673 1189L2.82673 1099.51C2.82673 1081.59 4.91985 1065.31 9.1061 1050.65C13.2923 1035.9 19.077 1023.3 26.46 1012.87C33.8431 1002.43 42.6342 994.368 52.8334 988.676C62.9566 982.878 73.9931 979.98 85.9429 979.98ZM85.9429 1034.69C77.7226 1034.69 70.3015 1036.16 63.6796 1039.11C57.0577 1042.06 51.4634 1046.33 46.8966 1051.92C42.2536 1057.4 38.7143 1064.15 36.2787 1072.16C33.767 1080.17 32.5111 1089.29 32.5111 1099.51L32.5111 1135.24L139.489 1135.24L139.489 1099.51C139.489 1089.29 138.271 1080.17 135.835 1072.16C133.324 1064.15 129.784 1057.4 125.218 1051.92C120.575 1046.33 114.942 1042.06 108.32 1039.11C101.698 1036.16 94.2393 1034.69 85.9429 1034.69Z" stroke="#777777" stroke-opacity="0.3" stroke-width="2" mask="url(#path-1-outside-1_2586_3484)"/>
<path d="M2.82671 787.484L32.5111 787.484L32.5111 882.034L71.3291 882.034L71.3291 809.62L99.8717 809.62L99.8717 882.034L139.489 882.034L139.489 787.484L169.173 787.484L169.173 935.791L2.82672 935.791L2.82671 787.484Z" stroke="#777777" stroke-opacity="0.3" stroke-width="2" mask="url(#path-1-outside-1_2586_3484)"/>
<path d="M36.6212 614.594C38.4479 616.175 39.818 617.862 40.7313 619.654C41.6447 621.34 42.1014 623.554 42.1014 626.294C42.1014 628.719 41.5686 631.354 40.503 634.2C39.3613 636.94 38.1054 640.103 36.7354 643.686C35.3653 647.165 34.1475 651.17 33.0819 655.703C31.9402 660.235 31.3693 665.4 31.3693 671.197C31.3693 681.211 32.9297 688.695 36.0503 693.649C39.0949 698.498 43.2431 700.922 48.4949 700.922C51.8439 700.922 54.6221 699.446 56.8294 696.495C59.0367 693.544 60.9395 689.696 62.5379 684.953C64.1363 680.104 65.6205 674.623 66.9906 668.51C68.2845 662.291 69.7687 655.966 71.4432 649.537C73.0416 643.107 74.9444 636.835 77.1517 630.722C79.359 624.503 82.1753 619.021 85.6004 614.278C89.0255 609.43 93.2117 605.529 98.1591 602.578C103.03 599.627 108.929 598.151 115.856 598.151C123.543 598.151 130.736 599.996 137.434 603.685C144.132 607.374 149.993 612.75 155.016 619.812C159.963 626.769 163.883 635.412 166.776 645.742C169.592 655.966 171 667.614 171 680.684C171 687.852 170.467 695.177 169.402 702.661C168.336 710.04 166.852 717.207 164.949 724.164C162.97 731.121 160.649 737.656 157.985 743.77C155.321 749.883 152.352 755.206 149.079 759.739L131.04 743.928C129.746 742.663 128.681 741.029 127.843 739.026C126.93 736.918 126.473 734.652 126.473 732.228C126.473 729.065 127.197 725.903 128.643 722.741C130.089 719.473 131.687 715.837 133.438 711.832C135.188 707.721 136.787 703.03 138.233 697.76C139.679 692.49 140.402 686.271 140.402 679.103C140.402 669.406 138.88 661.869 135.835 656.493C132.715 651.118 127.805 648.43 121.107 648.43C117.226 648.43 114.067 649.905 111.631 652.857C109.196 655.808 107.179 659.708 105.58 664.557C103.982 669.3 102.574 674.729 101.356 680.842C100.138 686.956 98.8061 693.227 97.36 699.657C95.8377 706.087 94.0109 712.359 91.8798 718.472C89.6725 724.586 86.8182 730.067 83.317 734.915C79.7396 739.659 75.325 743.506 70.0732 746.457C64.7452 749.409 58.1994 750.884 50.4358 750.884C44.1945 750.884 38.1054 749.145 32.1685 745.667C26.2317 742.189 20.9418 737.076 16.2988 730.33C11.6559 723.584 7.96438 715.31 5.22428 705.507C2.40808 695.704 0.999978 684.479 0.999977 671.83C0.999977 664.768 1.4186 657.916 2.25585 651.276C3.01699 644.53 4.19675 638.153 5.79513 632.145C7.31741 626.136 9.1822 620.55 11.3895 615.385C13.5207 610.115 15.9563 605.424 18.6964 601.313L36.6212 614.594Z" stroke="#777777" stroke-opacity="0.3" stroke-width="2" mask="url(#path-1-outside-1_2586_3484)"/>
<path d="M169.173 500.373L169.173 554.13L2.8267 554.13L2.8267 500.373L169.173 500.373Z" stroke="#777777" stroke-opacity="0.3" stroke-width="2" mask="url(#path-1-outside-1_2586_3484)"/>
<path d="M153.189 250.704C159.431 262.509 163.959 275.105 166.776 288.492C169.592 301.773 171 315.687 171 330.233C171 349.206 168.869 366.492 164.606 382.092C160.268 397.587 154.331 410.868 146.796 421.936C139.184 433.004 130.203 441.541 119.852 447.55C109.424 453.558 98.1211 456.562 85.9429 456.562C73.5364 456.562 62.1573 453.716 51.8059 448.024C41.3783 442.332 32.3969 434.216 24.8616 423.675C17.3264 413.029 11.4656 400.222 7.27934 385.255C3.09309 370.182 0.999963 353.369 0.999963 334.818C0.999962 325.226 1.57081 316.214 2.71252 307.781C3.85422 299.349 5.41455 291.601 7.39351 284.539C9.37247 277.372 11.732 270.836 14.4721 264.934C17.2122 259.031 20.1806 253.76 23.3774 249.123L40.3888 264.617C43.0528 267.042 44.6892 270.204 45.2981 274.104C45.9071 277.899 45.222 282.009 43.2431 286.436C41.4163 290.653 39.856 294.658 38.5621 298.453C37.192 302.142 36.0884 305.936 35.2511 309.837C34.4139 313.737 33.805 317.847 33.4244 322.169C33.0438 326.491 32.8536 331.339 32.8536 336.715C32.8536 346.729 34.1475 355.741 36.7353 363.752C39.2471 371.763 42.8244 378.614 47.4674 384.306C52.1103 389.892 57.7047 394.214 64.2505 397.271C70.7201 400.328 77.9509 401.856 85.9429 401.856C94.7721 401.856 102.612 400.17 109.462 396.797C116.312 393.424 122.097 388.68 126.816 382.567C131.535 376.348 135.15 368.969 137.662 360.431C140.098 351.788 141.316 342.249 141.316 331.814C141.316 325.384 140.859 319.587 139.946 314.422C139.032 309.151 137.814 304.039 136.292 299.085L111.06 299.085L111.06 321.853C111.06 325.226 110.413 327.861 109.12 329.758C107.826 331.656 106.189 332.604 104.21 332.604L82.9744 332.604L82.9744 250.704L153.189 250.704Z" stroke="#777777" stroke-opacity="0.3" stroke-width="2" mask="url(#path-1-outside-1_2586_3484)"/>
<path d="M2.82669 173.971C2.82669 171.652 2.9028 169.702 3.05502 168.121C3.20725 166.54 3.5117 165.117 3.96839 163.852C4.34896 162.587 4.91981 161.375 5.68095 160.216C6.44208 159.056 7.46962 157.739 8.76355 156.263L108.663 46.8516C105.466 47.2732 102.383 47.5894 99.415 47.8002C96.3704 48.011 93.5162 48.1166 90.8522 48.1166L2.82668 48.1166L2.82668 1L169.173 0.999993L169.173 28.8271C169.173 32.938 168.717 36.4164 167.803 39.2623C166.814 42.0029 165.139 44.7434 162.78 47.484L63.6796 156.105C66.5719 155.789 69.4262 155.525 72.2424 155.314C74.9825 155.104 77.5704 154.998 80.006 154.998L169.173 154.998L169.173 202.115L2.82669 202.115L2.82669 173.971Z" stroke="#777777" stroke-opacity="0.3" stroke-width="2" mask="url(#path-1-outside-1_2586_3484)"/>
</svg>
