<svg width="172" height="1482" viewBox="0 0 172 1482" fill="none" xmlns="http://www.w3.org/2000/svg">
<mask id="path-1-outside-1_2586_3483" maskUnits="userSpaceOnUse" x="-6.47366e-05" y="-7.47465e-06" width="172" height="1482" fill="black">
<rect fill="white" x="-6.47366e-05" y="-7.47465e-06" width="172" height="1482"/>
<path d="M3.81766 1330.6L168.182 1330.6L168.182 1368.55L100.793 1368.55L100.793 1443.05L168.182 1443.05L168.182 1481L3.81767 1481L3.81767 1443.05L68.6243 1443.05L68.6243 1368.55L3.81766 1368.55L3.81766 1330.6Z"/>
<path d="M171 1212.38C171 1229.4 167.321 1244.79 159.964 1258.53C152.607 1272.12 142.51 1282.82 129.674 1290.62C116.681 1298.28 102.123 1302.1 86 1302.1C69.8766 1302.1 55.3969 1298.28 42.5608 1290.62C29.5681 1282.82 19.3932 1272.12 12.0359 1258.53C4.67862 1244.79 0.999989 1229.4 0.999988 1212.38C0.999988 1195.35 4.67862 1180.05 12.0359 1166.46C19.3932 1152.87 29.5681 1142.17 42.5608 1134.36C55.3969 1126.56 69.8766 1122.65 86 1122.65C102.123 1122.65 116.681 1126.56 129.674 1134.36C142.51 1142.17 152.607 1152.87 159.964 1166.46C167.321 1180.05 171 1195.35 171 1212.38ZM138.597 1212.38C138.597 1202.69 136.405 1193.95 132.022 1186.14C127.483 1178.33 121.221 1172.24 113.238 1167.87C105.254 1163.34 96.175 1161.07 86 1161.07C75.8251 1161.07 66.7459 1163.34 58.7624 1167.87C50.779 1172.24 44.5958 1178.33 40.2127 1186.14C35.6731 1193.95 33.4033 1202.69 33.4033 1212.38C33.4033 1222.06 35.6731 1230.81 40.2127 1238.62C44.5958 1246.43 50.779 1252.59 58.7624 1257.12C66.7459 1261.5 75.8251 1263.68 86 1263.68C96.175 1263.68 105.254 1261.5 113.238 1257.12C121.221 1252.59 127.483 1246.43 132.022 1238.62C136.405 1230.81 138.597 1222.06 138.597 1212.38Z"/>
<path d="M168.182 944.895L69.5635 945.129L150.807 993.39L150.807 1010.49L71.6768 1058.52L168.182 1058.52L168.182 1094.13L3.81765 1094.13L3.81765 1062.73L105.959 1001.36L3.81765 940.913L3.81764 909.754L168.182 909.286L168.182 944.895Z"/>
<path d="M137.657 743.401L168.182 743.401L168.182 870.378L3.81764 870.378L3.81764 746.447L34.3425 746.447L34.3425 832.66L70.0331 832.66L70.0331 756.521L99.6188 756.521L99.6188 832.66L137.657 832.66L137.657 743.401Z"/>
<path d="M3.81763 575.872C3.81763 561.347 6.24397 548.774 11.0966 538.154C15.9493 527.377 22.837 519.099 31.7596 513.321C40.6823 507.542 51.2486 504.652 63.4585 504.652C75.512 504.652 86.0783 507.542 95.1574 513.321C104.08 519.099 110.968 527.377 115.82 538.154C120.517 548.774 122.865 561.347 122.865 575.872L122.865 608.904L168.182 608.904L168.182 646.857L3.81763 646.857L3.81763 575.872ZM91.8702 577.98C91.8702 566.579 89.4438 557.911 84.5911 551.976C79.5819 546.041 72.5377 543.073 63.4585 543.073C54.2228 543.073 47.1786 546.041 42.3259 551.976C37.3167 557.911 34.8121 566.579 34.8121 577.98L34.8121 608.904L91.8702 608.904L91.8702 577.98Z"/>
<path d="M132.961 377.793L132.961 453.932L168.182 468.457L168.182 507.347L3.81762 434.253L3.81762 396.769L168.182 323.441L168.182 363.268L132.961 377.793ZM104.08 389.741L41.1519 415.745L104.08 441.75L104.08 389.741Z"/>
<path d="M83.4171 197.904L83.4171 163.231L150.102 163.231C156.833 172.133 161.999 182.442 165.599 194.155C169.2 205.869 171 217.661 171 229.531C171 246.555 167.4 261.86 160.199 275.448C152.842 289.036 142.745 299.735 129.909 307.544C116.916 315.197 102.28 319.023 86 319.023C69.72 319.023 55.162 315.197 42.3259 307.544C29.3333 299.735 19.2366 288.958 12.0359 275.214C4.67858 261.47 0.999946 246.008 0.999945 228.828C0.999945 214.459 3.42627 201.418 8.27894 189.704C13.1316 177.99 20.1758 168.151 29.4115 160.185L51.953 184.55C39.5865 196.264 33.4033 210.398 33.4033 226.954C33.4033 237.418 35.5948 246.711 39.9779 254.832C44.3609 262.954 50.5442 269.279 58.5276 273.808C66.511 278.338 75.6685 280.602 86 280.602C96.1749 280.602 105.254 278.338 113.238 273.808C121.221 269.279 127.482 263.032 132.022 255.066C136.405 246.945 138.597 237.73 138.597 227.422C138.597 216.489 136.249 206.65 131.552 197.904L83.4171 197.904Z"/>
<path d="M137.657 1.00004L168.182 1.00004L168.182 127.976L3.81761 127.976L3.8176 4.04563L34.3425 4.04563L34.3425 90.2584L70.0331 90.2584L70.0331 14.1194L99.6188 14.1194L99.6188 90.2584L137.657 90.2584L137.657 1.00004Z"/>
</mask>
<path d="M3.81766 1330.6L168.182 1330.6L168.182 1368.55L100.793 1368.55L100.793 1443.05L168.182 1443.05L168.182 1481L3.81767 1481L3.81767 1443.05L68.6243 1443.05L68.6243 1368.55L3.81766 1368.55L3.81766 1330.6Z" fill="#FBFBFB"/>
<path d="M171 1212.38C171 1229.4 167.321 1244.79 159.964 1258.53C152.607 1272.12 142.51 1282.82 129.674 1290.62C116.681 1298.28 102.123 1302.1 86 1302.1C69.8766 1302.1 55.3969 1298.28 42.5608 1290.62C29.5681 1282.82 19.3932 1272.12 12.0359 1258.53C4.67862 1244.79 0.999989 1229.4 0.999988 1212.38C0.999988 1195.35 4.67862 1180.05 12.0359 1166.46C19.3932 1152.87 29.5681 1142.17 42.5608 1134.36C55.3969 1126.56 69.8766 1122.65 86 1122.65C102.123 1122.65 116.681 1126.56 129.674 1134.36C142.51 1142.17 152.607 1152.87 159.964 1166.46C167.321 1180.05 171 1195.35 171 1212.38ZM138.597 1212.38C138.597 1202.69 136.405 1193.95 132.022 1186.14C127.483 1178.33 121.221 1172.24 113.238 1167.87C105.254 1163.34 96.175 1161.07 86 1161.07C75.8251 1161.07 66.7459 1163.34 58.7624 1167.87C50.779 1172.24 44.5958 1178.33 40.2127 1186.14C35.6731 1193.95 33.4033 1202.69 33.4033 1212.38C33.4033 1222.06 35.6731 1230.81 40.2127 1238.62C44.5958 1246.43 50.779 1252.59 58.7624 1257.12C66.7459 1261.5 75.8251 1263.68 86 1263.68C96.175 1263.68 105.254 1261.5 113.238 1257.12C121.221 1252.59 127.483 1246.43 132.022 1238.62C136.405 1230.81 138.597 1222.06 138.597 1212.38Z" fill="#FBFBFB"/>
<path d="M168.182 944.895L69.5635 945.129L150.807 993.39L150.807 1010.49L71.6768 1058.52L168.182 1058.52L168.182 1094.13L3.81765 1094.13L3.81765 1062.73L105.959 1001.36L3.81765 940.913L3.81764 909.754L168.182 909.286L168.182 944.895Z" fill="#FBFBFB"/>
<path d="M137.657 743.401L168.182 743.401L168.182 870.378L3.81764 870.378L3.81764 746.447L34.3425 746.447L34.3425 832.66L70.0331 832.66L70.0331 756.521L99.6188 756.521L99.6188 832.66L137.657 832.66L137.657 743.401Z" fill="#FBFBFB"/>
<path d="M3.81763 575.872C3.81763 561.347 6.24397 548.774 11.0966 538.154C15.9493 527.377 22.837 519.099 31.7596 513.321C40.6823 507.542 51.2486 504.652 63.4585 504.652C75.512 504.652 86.0783 507.542 95.1574 513.321C104.08 519.099 110.968 527.377 115.82 538.154C120.517 548.774 122.865 561.347 122.865 575.872L122.865 608.904L168.182 608.904L168.182 646.857L3.81763 646.857L3.81763 575.872ZM91.8702 577.98C91.8702 566.579 89.4438 557.911 84.5911 551.976C79.5819 546.041 72.5377 543.073 63.4585 543.073C54.2228 543.073 47.1786 546.041 42.3259 551.976C37.3167 557.911 34.8121 566.579 34.8121 577.98L34.8121 608.904L91.8702 608.904L91.8702 577.98Z" fill="#FBFBFB"/>
<path d="M132.961 377.793L132.961 453.932L168.182 468.457L168.182 507.347L3.81762 434.253L3.81762 396.769L168.182 323.441L168.182 363.268L132.961 377.793ZM104.08 389.741L41.1519 415.745L104.08 441.75L104.08 389.741Z" fill="#FBFBFB"/>
<path d="M83.4171 197.904L83.4171 163.231L150.102 163.231C156.833 172.133 161.999 182.442 165.599 194.155C169.2 205.869 171 217.661 171 229.531C171 246.555 167.4 261.86 160.199 275.448C152.842 289.036 142.745 299.735 129.909 307.544C116.916 315.197 102.28 319.023 86 319.023C69.72 319.023 55.162 315.197 42.3259 307.544C29.3333 299.735 19.2366 288.958 12.0359 275.214C4.67858 261.47 0.999946 246.008 0.999945 228.828C0.999945 214.459 3.42627 201.418 8.27894 189.704C13.1316 177.99 20.1758 168.151 29.4115 160.185L51.953 184.55C39.5865 196.264 33.4033 210.398 33.4033 226.954C33.4033 237.418 35.5948 246.711 39.9779 254.832C44.3609 262.954 50.5442 269.279 58.5276 273.808C66.511 278.338 75.6685 280.602 86 280.602C96.1749 280.602 105.254 278.338 113.238 273.808C121.221 269.279 127.482 263.032 132.022 255.066C136.405 246.945 138.597 237.73 138.597 227.422C138.597 216.489 136.249 206.65 131.552 197.904L83.4171 197.904Z" fill="#FBFBFB"/>
<path d="M137.657 1.00004L168.182 1.00004L168.182 127.976L3.81761 127.976L3.8176 4.04563L34.3425 4.04563L34.3425 90.2584L70.0331 90.2584L70.0331 14.1194L99.6188 14.1194L99.6188 90.2584L137.657 90.2584L137.657 1.00004Z" fill="#FBFBFB"/>
<path d="M3.81766 1330.6L168.182 1330.6L168.182 1368.55L100.793 1368.55L100.793 1443.05L168.182 1443.05L168.182 1481L3.81767 1481L3.81767 1443.05L68.6243 1443.05L68.6243 1368.55L3.81766 1368.55L3.81766 1330.6Z" stroke="#D7D7D7" stroke-width="2" mask="url(#path-1-outside-1_2586_3483)"/>
<path d="M171 1212.38C171 1229.4 167.321 1244.79 159.964 1258.53C152.607 1272.12 142.51 1282.82 129.674 1290.62C116.681 1298.28 102.123 1302.1 86 1302.1C69.8766 1302.1 55.3969 1298.28 42.5608 1290.62C29.5681 1282.82 19.3932 1272.12 12.0359 1258.53C4.67862 1244.79 0.999989 1229.4 0.999988 1212.38C0.999988 1195.35 4.67862 1180.05 12.0359 1166.46C19.3932 1152.87 29.5681 1142.17 42.5608 1134.36C55.3969 1126.56 69.8766 1122.65 86 1122.65C102.123 1122.65 116.681 1126.56 129.674 1134.36C142.51 1142.17 152.607 1152.87 159.964 1166.46C167.321 1180.05 171 1195.35 171 1212.38ZM138.597 1212.38C138.597 1202.69 136.405 1193.95 132.022 1186.14C127.483 1178.33 121.221 1172.24 113.238 1167.87C105.254 1163.34 96.175 1161.07 86 1161.07C75.8251 1161.07 66.7459 1163.34 58.7624 1167.87C50.779 1172.24 44.5958 1178.33 40.2127 1186.14C35.6731 1193.95 33.4033 1202.69 33.4033 1212.38C33.4033 1222.06 35.6731 1230.81 40.2127 1238.62C44.5958 1246.43 50.779 1252.59 58.7624 1257.12C66.7459 1261.5 75.8251 1263.68 86 1263.68C96.175 1263.68 105.254 1261.5 113.238 1257.12C121.221 1252.59 127.483 1246.43 132.022 1238.62C136.405 1230.81 138.597 1222.06 138.597 1212.38Z" stroke="#D7D7D7" stroke-width="2" mask="url(#path-1-outside-1_2586_3483)"/>
<path d="M168.182 944.895L69.5635 945.129L150.807 993.39L150.807 1010.49L71.6768 1058.52L168.182 1058.52L168.182 1094.13L3.81765 1094.13L3.81765 1062.73L105.959 1001.36L3.81765 940.913L3.81764 909.754L168.182 909.286L168.182 944.895Z" stroke="#D7D7D7" stroke-width="2" mask="url(#path-1-outside-1_2586_3483)"/>
<path d="M137.657 743.401L168.182 743.401L168.182 870.378L3.81764 870.378L3.81764 746.447L34.3425 746.447L34.3425 832.66L70.0331 832.66L70.0331 756.521L99.6188 756.521L99.6188 832.66L137.657 832.66L137.657 743.401Z" stroke="#D7D7D7" stroke-width="2" mask="url(#path-1-outside-1_2586_3483)"/>
<path d="M3.81763 575.872C3.81763 561.347 6.24397 548.774 11.0966 538.154C15.9493 527.377 22.837 519.099 31.7596 513.321C40.6823 507.542 51.2486 504.652 63.4585 504.652C75.512 504.652 86.0783 507.542 95.1574 513.321C104.08 519.099 110.968 527.377 115.82 538.154C120.517 548.774 122.865 561.347 122.865 575.872L122.865 608.904L168.182 608.904L168.182 646.857L3.81763 646.857L3.81763 575.872ZM91.8702 577.98C91.8702 566.579 89.4438 557.911 84.5911 551.976C79.5819 546.041 72.5377 543.073 63.4585 543.073C54.2228 543.073 47.1786 546.041 42.3259 551.976C37.3167 557.911 34.8121 566.579 34.8121 577.98L34.8121 608.904L91.8702 608.904L91.8702 577.98Z" stroke="#D7D7D7" stroke-width="2" mask="url(#path-1-outside-1_2586_3483)"/>
<path d="M132.961 377.793L132.961 453.932L168.182 468.457L168.182 507.347L3.81762 434.253L3.81762 396.769L168.182 323.441L168.182 363.268L132.961 377.793ZM104.08 389.741L41.1519 415.745L104.08 441.75L104.08 389.741Z" stroke="#D7D7D7" stroke-width="2" mask="url(#path-1-outside-1_2586_3483)"/>
<path d="M83.4171 197.904L83.4171 163.231L150.102 163.231C156.833 172.133 161.999 182.442 165.599 194.155C169.2 205.869 171 217.661 171 229.531C171 246.555 167.4 261.86 160.199 275.448C152.842 289.036 142.745 299.735 129.909 307.544C116.916 315.197 102.28 319.023 86 319.023C69.72 319.023 55.162 315.197 42.3259 307.544C29.3333 299.735 19.2366 288.958 12.0359 275.214C4.67858 261.47 0.999946 246.008 0.999945 228.828C0.999945 214.459 3.42627 201.418 8.27894 189.704C13.1316 177.99 20.1758 168.151 29.4115 160.185L51.953 184.55C39.5865 196.264 33.4033 210.398 33.4033 226.954C33.4033 237.418 35.5948 246.711 39.9779 254.832C44.3609 262.954 50.5442 269.279 58.5276 273.808C66.511 278.338 75.6685 280.602 86 280.602C96.1749 280.602 105.254 278.338 113.238 273.808C121.221 269.279 127.482 263.032 132.022 255.066C136.405 246.945 138.597 237.73 138.597 227.422C138.597 216.489 136.249 206.65 131.552 197.904L83.4171 197.904Z" stroke="#D7D7D7" stroke-width="2" mask="url(#path-1-outside-1_2586_3483)"/>
<path d="M137.657 1.00004L168.182 1.00004L168.182 127.976L3.81761 127.976L3.8176 4.04563L34.3425 4.04563L34.3425 90.2584L70.0331 90.2584L70.0331 14.1194L99.6188 14.1194L99.6188 90.2584L137.657 90.2584L137.657 1.00004Z" stroke="#D7D7D7" stroke-width="2" mask="url(#path-1-outside-1_2586_3483)"/>
</svg>
