<svg width="354" height="93" viewBox="0 0 354 93" fill="none" xmlns="http://www.w3.org/2000/svg">
<path d="M74.52 92L74.404 43.28L50.508 83.416H42.04L18.26 44.324V92H0.628V10.8H16.172L46.564 61.26L76.492 10.8H91.92L92.152 92H74.52ZM139.837 92.928C133.264 92.928 127.348 91.5747 122.089 88.868C116.908 86.084 112.848 82.256 109.909 77.384C106.97 72.512 105.501 66.9827 105.501 60.796C105.501 54.6093 106.97 49.08 109.909 44.208C112.848 39.336 116.908 35.5467 122.089 32.84C127.348 30.056 133.264 28.664 139.837 28.664C146.41 28.664 152.288 30.056 157.469 32.84C162.65 35.5467 166.71 39.336 169.649 44.208C172.588 49.08 174.057 54.6093 174.057 60.796C174.057 66.9827 172.588 72.512 169.649 77.384C166.71 82.256 162.65 86.084 157.469 88.868C152.288 91.5747 146.41 92.928 139.837 92.928ZM139.837 78.08C144.477 78.08 148.266 76.5333 151.205 73.44C154.221 70.2693 155.729 66.0547 155.729 60.796C155.729 55.5373 154.221 51.3613 151.205 48.268C148.266 45.0973 144.477 43.512 139.837 43.512C135.197 43.512 131.369 45.0973 128.353 48.268C125.337 51.3613 123.829 55.5373 123.829 60.796C123.829 66.0547 125.337 70.2693 128.353 73.44C131.369 76.5333 135.197 78.08 139.837 78.08ZM223.041 28.664C228.841 28.664 234.099 30.0173 238.817 32.724C243.611 35.3533 247.362 39.104 250.069 43.976C252.775 48.7707 254.129 54.3773 254.129 60.796C254.129 67.2147 252.775 72.86 250.069 77.732C247.362 82.5267 243.611 86.2773 238.817 88.984C234.099 91.6133 228.841 92.928 223.041 92.928C214.457 92.928 207.922 90.2213 203.437 84.808V92H186.153V5.92799H204.249V36.204C208.811 31.1773 215.075 28.664 223.041 28.664ZM219.909 78.08C224.549 78.08 228.338 76.5333 231.277 73.44C234.293 70.2693 235.801 66.0547 235.801 60.796C235.801 55.5373 234.293 51.3613 231.277 48.268C228.338 45.0973 224.549 43.512 219.909 43.512C215.269 43.512 211.441 45.0973 208.425 48.268C205.486 51.3613 204.017 55.5373 204.017 60.796C204.017 66.0547 205.486 70.2693 208.425 73.44C211.441 76.5333 215.269 78.08 219.909 78.08ZM266.243 29.592H284.339V92H266.243V29.592ZM275.291 20.892C271.965 20.892 269.259 19.9253 267.171 17.992C265.083 16.0587 264.039 13.6613 264.039 10.8C264.039 7.93866 265.083 5.54133 267.171 3.608C269.259 1.67466 271.965 0.707993 275.291 0.707993C278.616 0.707993 281.323 1.63599 283.411 3.492C285.499 5.348 286.543 7.668 286.543 10.452C286.543 13.468 285.499 15.9813 283.411 17.992C281.323 19.9253 278.616 20.892 275.291 20.892ZM301.133 5.92799H319.229V92H301.133V5.92799ZM397.156 61.028C397.156 61.26 397.04 62.884 396.808 65.9H349.596C350.447 69.7667 352.457 72.8213 355.628 75.064C358.799 77.3067 362.743 78.428 367.46 78.428C370.708 78.428 373.569 77.964 376.044 77.036C378.596 76.0307 380.955 74.484 383.12 72.396L392.748 82.836C386.871 89.564 378.287 92.928 366.996 92.928C359.959 92.928 353.733 91.5747 348.32 88.868C342.907 86.084 338.731 82.256 335.792 77.384C332.853 72.512 331.384 66.9827 331.384 60.796C331.384 54.6867 332.815 49.196 335.676 44.324C338.615 39.3747 342.597 35.5467 347.624 32.84C352.728 30.056 358.412 28.664 364.676 28.664C370.785 28.664 376.315 29.9787 381.264 32.608C386.213 35.2373 390.08 39.0267 392.864 43.976C395.725 48.848 397.156 54.532 397.156 61.028ZM364.792 42.352C360.693 42.352 357.252 43.512 354.468 45.832C351.684 48.152 349.983 51.3227 349.364 55.344H380.104C379.485 51.4 377.784 48.268 375 45.948C372.216 43.5507 368.813 42.352 364.792 42.352Z" fill="#C4C4C4" fill-opacity="0.08"/>
<path d="M74.52 92L73.52 92.0024L73.5224 93H74.52V92ZM74.404 43.28L75.404 43.2776L75.3954 39.6601L73.5448 42.7684L74.404 43.28ZM50.508 83.416V84.416H51.0764L51.3672 83.9276L50.508 83.416ZM42.04 83.416L41.1857 83.9357L41.4778 84.416H42.04V83.416ZM18.26 44.324L19.1143 43.8043L17.26 40.7559V44.324H18.26ZM18.26 92V93H19.26V92H18.26ZM0.628 92H-0.372V93H0.628V92ZM0.628 10.8V9.8H-0.372V10.8H0.628ZM16.172 10.8L17.0286 10.2841L16.7371 9.8H16.172V10.8ZM46.564 61.26L45.7074 61.7759L46.5706 63.2092L47.4241 61.7701L46.564 61.26ZM76.492 10.8V9.8H75.9225L75.6319 10.2899L76.492 10.8ZM91.92 10.8L92.92 10.7971L92.9172 9.8H91.92V10.8ZM92.152 92V93H93.1549L93.152 91.9971L92.152 92ZM75.52 91.9976L75.404 43.2776L73.404 43.2824L73.52 92.0024L75.52 91.9976ZM73.5448 42.7684L49.6488 82.9044L51.3672 83.9276L75.2632 43.7916L73.5448 42.7684ZM50.508 82.416H42.04V84.416H50.508V82.416ZM42.8943 82.8963L19.1143 43.8043L17.4057 44.8437L41.1857 83.9357L42.8943 82.8963ZM17.26 44.324V92H19.26V44.324H17.26ZM18.26 91H0.628V93H18.26V91ZM1.628 92V10.8H-0.372V92H1.628ZM0.628 11.8H16.172V9.8H0.628V11.8ZM15.3154 11.3159L45.7074 61.7759L47.4206 60.7441L17.0286 10.2841L15.3154 11.3159ZM47.4241 61.7701L77.3521 11.3101L75.6319 10.2899L45.7039 60.7499L47.4241 61.7701ZM76.492 11.8H91.92V9.8H76.492V11.8ZM90.92 10.8029L91.152 92.0029L93.152 91.9971L92.92 10.7971L90.92 10.8029ZM92.152 91H74.52V93H92.152V91ZM122.089 88.868L121.616 89.7489L121.624 89.7531L121.631 89.7571L122.089 88.868ZM109.909 77.384L109.053 77.9005L109.909 77.384ZM109.909 44.208L109.053 43.6915L109.909 44.208ZM122.089 32.84L122.552 33.7264L122.557 33.7238L122.089 32.84ZM157.469 32.84L156.996 33.7209L157.006 33.7263L157.469 32.84ZM169.649 44.208L170.505 43.6915V43.6915L169.649 44.208ZM169.649 77.384L170.505 77.9005L169.649 77.384ZM157.469 88.868L157.932 89.7544L157.942 89.7489L157.469 88.868ZM151.205 73.44L150.481 72.7508L150.48 72.7513L151.205 73.44ZM151.205 48.268L150.472 48.9478L150.48 48.957L150.489 48.9661L151.205 48.268ZM128.353 48.268L129.069 48.9662L129.078 48.9572L128.353 48.268ZM128.353 73.44L127.628 74.1293L127.637 74.1381L128.353 73.44ZM139.837 91.928C133.405 91.928 127.649 90.6049 122.547 87.9789L121.631 89.7571C127.047 92.5445 133.123 93.928 139.837 93.928V91.928ZM122.562 87.9871C117.533 85.285 113.608 81.5805 110.765 76.8675L109.053 77.9005C112.087 82.9315 116.282 86.883 121.616 89.7489L122.562 87.9871ZM110.765 76.8675C107.929 72.1649 106.501 66.8171 106.501 60.796H104.501C104.501 67.1482 106.012 72.8591 109.053 77.9005L110.765 76.8675ZM106.501 60.796C106.501 54.7749 107.929 49.4271 110.765 44.7245L109.053 43.6915C106.012 48.7329 104.501 54.4437 104.501 60.796H106.501ZM110.765 44.7245C113.607 40.014 117.529 36.3506 122.552 33.7263L121.626 31.9536C116.287 34.7428 112.089 38.658 109.053 43.6915L110.765 44.7245ZM122.557 33.7238C127.657 31.0238 133.409 29.664 139.837 29.664V27.664C133.118 27.664 127.039 29.0881 121.621 31.9562L122.557 33.7238ZM139.837 29.664C146.265 29.664 151.976 31.0239 156.996 33.7209L157.942 31.9591C152.599 29.0881 146.556 27.664 139.837 27.664V29.664ZM157.006 33.7263C162.03 36.3506 165.952 40.014 168.793 44.7245L170.505 43.6915C167.469 38.658 163.271 34.7428 157.932 31.9536L157.006 33.7263ZM168.793 44.7245C171.629 49.4271 173.057 54.7749 173.057 60.796H175.057C175.057 54.4437 173.546 48.7329 170.505 43.6915L168.793 44.7245ZM173.057 60.796C173.057 66.8171 171.629 72.1649 168.793 76.8675L170.505 77.9005C173.546 72.8591 175.057 67.1482 175.057 60.796H173.057ZM168.793 76.8675C165.95 81.5805 162.025 85.285 156.996 87.9871L157.942 89.7489C163.276 86.883 167.471 82.9315 170.505 77.9005L168.793 76.8675ZM157.006 87.9817C151.985 90.6048 146.269 91.928 139.837 91.928V93.928C146.551 93.928 152.591 92.5445 157.932 89.7543L157.006 87.9817ZM139.837 79.08C144.725 79.08 148.785 77.4393 151.93 74.1287L150.48 72.7513C147.748 75.6273 144.23 77.08 139.837 77.08V79.08ZM151.93 74.1292C155.157 70.7363 156.729 66.2563 156.729 60.796H154.729C154.729 65.853 153.285 69.8023 150.481 72.7508L151.93 74.1292ZM156.729 60.796C156.729 55.3366 155.157 50.889 151.921 47.5699L150.489 48.9661C153.285 51.8336 154.729 55.738 154.729 60.796H156.729ZM151.938 47.5882C148.796 44.1972 144.733 42.512 139.837 42.512V44.512C144.222 44.512 147.737 45.9975 150.472 48.9478L151.938 47.5882ZM139.837 42.512C134.942 42.512 130.846 44.1967 127.629 47.5788L129.078 48.9572C131.892 45.998 135.452 44.512 139.837 44.512V42.512ZM127.637 47.5699C124.401 50.889 122.829 55.3366 122.829 60.796H124.829C124.829 55.738 126.273 51.8336 129.069 48.9661L127.637 47.5699ZM122.829 60.796C122.829 66.2563 124.401 70.7363 127.629 74.1292L129.078 72.7508C126.273 69.8023 124.829 65.853 124.829 60.796H122.829ZM127.637 74.1381C130.856 77.4398 134.95 79.08 139.837 79.08V77.08C135.445 77.08 131.882 75.6269 129.069 72.7419L127.637 74.1381ZM238.817 32.724L238.319 33.5914L238.327 33.5962L238.336 33.6008L238.817 32.724ZM250.069 43.976L249.195 44.4616L249.198 44.4676L250.069 43.976ZM250.069 77.732L250.94 78.2236L250.943 78.2176L250.069 77.732ZM238.817 88.984L239.304 89.8575L239.308 89.8548L238.817 88.984ZM203.437 84.808L204.207 84.17L202.437 82.0338V84.808H203.437ZM203.437 92V93H204.437V92H203.437ZM186.153 92H185.153V93H186.153V92ZM186.153 5.928V4.928H185.153V5.928H186.153ZM204.249 5.928H205.249V4.928H204.249V5.928ZM204.249 36.204H203.249V38.7936L204.989 36.8761L204.249 36.204ZM231.277 73.44L230.552 72.7508L230.552 72.7513L231.277 73.44ZM231.277 48.268L230.543 48.9478L230.552 48.957L230.561 48.9661L231.277 48.268ZM208.425 48.268L207.7 47.5788L207.7 47.5792L208.425 48.268ZM208.425 73.44L207.691 74.1198L207.7 74.129L207.709 74.1381L208.425 73.44ZM223.041 29.664C228.678 29.664 233.763 30.9774 238.319 33.5914L239.314 31.8566C234.436 29.0573 229.003 27.664 223.041 27.664V29.664ZM238.336 33.6008C242.962 36.1376 246.578 39.7512 249.195 44.4616L250.943 43.4904C248.147 38.4568 244.261 34.569 239.298 31.8472L238.336 33.6008ZM249.198 44.4676C251.807 49.089 253.129 54.5208 253.129 60.796H255.129C255.129 54.2339 253.744 48.4523 250.94 43.4844L249.198 44.4676ZM253.129 60.796C253.129 67.0708 251.807 72.5441 249.195 77.2464L250.943 78.2176C253.744 73.1759 255.129 67.3586 255.129 60.796H253.129ZM249.198 77.2404C246.581 81.8765 242.961 85.496 238.325 88.1132L239.308 89.8548C244.262 87.0586 248.143 83.1768 250.94 78.2236L249.198 77.2404ZM238.33 88.1105C233.772 90.6508 228.683 91.928 223.041 91.928V93.928C228.998 93.928 234.426 92.5759 239.304 89.8575L238.33 88.1105ZM223.041 91.928C214.682 91.928 208.46 89.3036 204.207 84.17L202.667 85.446C207.384 91.139 214.231 93.928 223.041 93.928V91.928ZM202.437 84.808V92H204.437V84.808H202.437ZM203.437 91H186.153V93H203.437V91ZM187.153 92V5.928H185.153V92H187.153ZM186.153 6.928H204.249V4.928H186.153V6.928ZM203.249 5.928V36.204H205.249V5.928H203.249ZM204.989 36.8761C209.329 32.0948 215.304 29.664 223.041 29.664V27.664C214.847 27.664 208.294 30.2598 203.508 35.5319L204.989 36.8761ZM219.909 79.08C224.796 79.08 228.857 77.4393 232.002 74.1287L230.552 72.7513C227.82 75.6273 224.301 77.08 219.909 77.08V79.08ZM232.001 74.1292C235.229 70.7363 236.801 66.2563 236.801 60.796H234.801C234.801 65.853 233.357 69.8023 230.552 72.7508L232.001 74.1292ZM236.801 60.796C236.801 55.3366 235.229 50.889 231.993 47.5699L230.561 48.9661C233.357 51.8336 234.801 55.738 234.801 60.796H236.801ZM232.01 47.5882C228.867 44.1972 224.804 42.512 219.909 42.512V44.512C224.293 44.512 227.809 45.9975 230.543 48.9478L232.01 47.5882ZM219.909 42.512C215.013 42.512 210.917 44.1967 207.7 47.5788L209.149 48.9572C211.964 45.998 215.524 44.512 219.909 44.512V42.512ZM207.7 47.5792C204.546 50.8994 203.017 55.3437 203.017 60.796H205.017C205.017 55.7309 206.427 51.8232 209.15 48.9567L207.7 47.5792ZM203.017 60.796C203.017 66.2493 204.546 70.726 207.691 74.1198L209.158 72.7602C206.426 69.8127 205.017 65.8601 205.017 60.796H203.017ZM207.709 74.1381C210.928 77.4398 215.021 79.08 219.909 79.08V77.08C215.516 77.08 211.954 75.6269 209.141 72.7419L207.709 74.1381ZM266.243 29.592V28.592H265.243V29.592H266.243ZM284.339 29.592H285.339V28.592H284.339V29.592ZM284.339 92V93H285.339V92H284.339ZM266.243 92H265.243V93H266.243V92ZM267.171 17.992L266.491 18.7258V18.7258L267.171 17.992ZM267.171 3.608L267.85 4.34176V4.34176L267.171 3.608ZM283.411 3.492L282.746 4.23941V4.23941L283.411 3.492ZM283.411 17.992L284.09 18.7258L284.097 18.7191L284.104 18.7123L283.411 17.992ZM266.243 30.592H284.339V28.592H266.243V30.592ZM283.339 29.592V92H285.339V29.592H283.339ZM284.339 91H266.243V93H284.339V91ZM267.243 92V29.592H265.243V92H267.243ZM275.291 19.892C272.172 19.892 269.722 18.9919 267.85 17.2582L266.491 18.7258C268.795 20.8587 271.759 21.892 275.291 21.892V19.892ZM267.85 17.2582C265.968 15.5154 265.039 13.3845 265.039 10.8H263.039C263.039 13.9381 264.198 16.602 266.491 18.7258L267.85 17.2582ZM265.039 10.8C265.039 8.21547 265.968 6.08464 267.85 4.34176L266.491 2.87424C264.198 4.99801 263.039 7.66185 263.039 10.8H265.039ZM267.85 4.34176C269.722 2.60805 272.172 1.70799 275.291 1.70799V-0.292007C271.759 -0.292007 268.795 0.74127 266.491 2.87424L267.85 4.34176ZM275.291 1.70799C278.42 1.70799 280.875 2.57605 282.746 4.23941L284.075 2.74459C281.77 0.695942 278.812 -0.292007 275.291 -0.292007V1.70799ZM282.746 4.23941C284.622 5.90639 285.543 7.95477 285.543 10.452H287.543C287.543 7.38123 286.376 4.7896 284.075 2.74459L282.746 4.23941ZM285.543 10.452C285.543 13.2086 284.601 15.4579 282.717 17.2717L284.104 18.7123C286.397 16.5048 287.543 13.7274 287.543 10.452H285.543ZM282.731 17.2582C280.859 18.9919 278.409 19.892 275.291 19.892V21.892C278.823 21.892 281.786 20.8587 284.09 18.7258L282.731 17.2582ZM301.133 5.928V4.928H300.133V5.928H301.133ZM319.229 5.928H320.229V4.928H319.229V5.928ZM319.229 92V93H320.229V92H319.229ZM301.133 92H300.133V93H301.133V92ZM301.133 6.928H319.229V4.928H301.133V6.928ZM318.229 5.928V92H320.229V5.928H318.229ZM319.229 91H301.133V93H319.229V91ZM302.133 92V5.928H300.133V92H302.133ZM396.808 65.9V66.9H397.734L397.805 65.9767L396.808 65.9ZM349.596 65.9V64.9H348.352L348.619 66.1149L349.596 65.9ZM355.628 75.064L356.205 74.2476L355.628 75.064ZM376.044 77.036L376.395 77.9723L376.403 77.9694L376.41 77.9664L376.044 77.036ZM383.12 72.396L383.855 71.7181L383.162 70.9664L382.426 71.6762L383.12 72.396ZM392.748 82.836L393.501 83.4939L394.092 82.8179L393.483 82.1581L392.748 82.836ZM348.32 88.868L347.862 89.7573L347.873 89.7624L348.32 88.868ZM335.792 77.384L334.936 77.9005L335.792 77.384ZM335.676 44.324L334.816 43.8135L334.814 43.8176L335.676 44.324ZM347.624 32.84L348.098 33.7205L348.103 33.7179L347.624 32.84ZM381.264 32.608L381.733 31.7249L381.264 32.608ZM392.864 43.976L391.992 44.4663L391.997 44.4744L392.002 44.4824L392.864 43.976ZM354.468 45.832L353.828 45.0638L354.468 45.832ZM349.364 55.344L348.376 55.1919L348.198 56.344H349.364V55.344ZM380.104 55.344V56.344H381.273L381.092 55.189L380.104 55.344ZM375 45.948L374.347 46.7058L374.353 46.711L374.36 46.7162L375 45.948ZM396.156 61.028C396.156 61.025 396.156 61.0313 396.155 61.0521C396.154 61.0712 396.153 61.097 396.152 61.1303C396.148 61.197 396.143 61.2866 396.136 61.4006C396.122 61.6283 396.1 61.9439 396.071 62.3488C396.014 63.158 395.927 64.3159 395.811 65.8233L397.805 65.9767C398.034 62.9977 398.156 61.3107 398.156 61.028H396.156ZM396.808 64.9H349.596V66.9H396.808V64.9ZM348.619 66.1149C349.522 70.2195 351.672 73.4909 355.05 75.8804L356.205 74.2476C353.242 72.1518 351.371 69.3138 350.573 65.6851L348.619 66.1149ZM355.05 75.8804C358.423 78.2662 362.581 79.428 367.46 79.428V77.428C362.904 77.428 359.174 76.3471 356.205 74.2476L355.05 75.8804ZM367.46 79.428C370.801 79.428 373.786 78.9508 376.395 77.9723L375.693 76.0997C373.353 76.9772 370.615 77.428 367.46 77.428V79.428ZM376.41 77.9664C379.096 76.9086 381.564 75.286 383.814 73.1158L382.426 71.6762C380.346 73.682 378.096 75.1528 375.677 76.1056L376.41 77.9664ZM382.385 73.0739L392.013 83.5139L393.483 82.1581L383.855 71.7181L382.385 73.0739ZM391.995 82.1781C386.355 88.6338 378.08 91.928 366.996 91.928V93.928C378.493 93.928 387.386 90.4942 393.501 83.4939L391.995 82.1781ZM366.996 91.928C360.089 91.928 354.021 90.6003 348.767 87.9736L347.873 89.7624C353.446 92.549 359.829 93.928 366.996 93.928V91.928ZM348.777 87.9787C343.517 85.2734 339.484 81.5695 336.648 76.8675L334.936 77.9005C337.977 82.9425 342.296 86.8946 347.863 89.7573L348.777 87.9787ZM336.648 76.8675C333.812 72.1649 332.384 66.8171 332.384 60.796H330.384C330.384 67.1482 331.895 72.8591 334.936 77.9005L336.648 76.8675ZM332.384 60.796C332.384 54.8498 333.774 49.5365 336.538 44.8304L334.814 43.8176C331.855 48.8555 330.384 54.5236 330.384 60.796H332.384ZM336.536 44.8345C339.383 40.0399 343.232 36.3404 348.098 33.7205L347.15 31.9595C341.962 34.753 337.847 38.7095 334.816 43.8135L336.536 44.8345ZM348.103 33.7179C353.049 31.0202 358.566 29.664 364.676 29.664V27.664C358.258 27.664 352.407 29.0918 347.145 31.9621L348.103 33.7179ZM364.676 29.664C370.637 29.664 376.003 30.9453 380.795 33.4911L381.733 31.7249C376.626 29.012 370.934 27.664 364.676 27.664V29.664ZM380.795 33.4911C385.573 36.0294 389.301 39.6813 391.992 44.4663L393.735 43.4857C390.859 38.372 386.854 34.4452 381.733 31.7249L380.795 33.4911ZM392.002 44.4824C394.76 49.1791 396.156 54.683 396.156 61.028H398.156C398.156 54.381 396.69 48.5169 393.726 43.4696L392.002 44.4824ZM364.792 41.352C360.492 41.352 356.815 42.5744 353.828 45.0638L355.108 46.6002C357.689 44.4496 360.895 43.352 364.792 43.352V41.352ZM353.828 45.0638C350.833 47.5592 349.026 50.9613 348.376 55.1919L350.352 55.4961C350.939 51.684 352.535 48.7448 355.108 46.6002L353.828 45.0638ZM349.364 56.344H380.104V54.344H349.364V56.344ZM381.092 55.189C380.44 51.0314 378.63 47.6714 375.64 45.1798L374.36 46.7162C376.938 48.8646 378.531 51.7686 379.116 55.499L381.092 55.189ZM375.652 45.1902C372.669 42.6214 369.028 41.352 364.792 41.352V43.352C368.598 43.352 371.762 44.4799 374.347 46.7058L375.652 45.1902Z" fill="#777777" fill-opacity="0.3"/>
</svg>
