<svg width="1019" height="240" viewBox="0 0 1019 240" fill="none" xmlns="http://www.w3.org/2000/svg">
<path d="M184 237L183.7 111L121.9 214.8H100L38.5 113.7V237H-7.1V27H33.1L111.7 157.5L189.1 27H229L229.6 237H184ZM352.923 239.4C335.923 239.4 320.623 235.9 307.023 228.9C293.623 221.7 283.123 211.8 275.523 199.2C267.923 186.6 264.123 172.3 264.123 156.3C264.123 140.3 267.923 126 275.523 113.4C283.123 100.8 293.623 91 307.023 84C320.623 76.8 335.923 73.2 352.923 73.2C369.923 73.2 385.123 76.8 398.523 84C411.923 91 422.423 100.8 430.023 113.4C437.623 126 441.423 140.3 441.423 156.3C441.423 172.3 437.623 186.6 430.023 199.2C422.423 211.8 411.923 221.7 398.523 228.9C385.123 235.9 369.923 239.4 352.923 239.4ZM352.923 201C364.923 201 374.723 197 382.323 189C390.123 180.8 394.023 169.9 394.023 156.3C394.023 142.7 390.123 131.9 382.323 123.9C374.723 115.7 364.923 111.6 352.923 111.6C340.923 111.6 331.023 115.7 323.223 123.9C315.423 131.9 311.523 142.7 311.523 156.3C311.523 169.9 315.423 180.8 323.223 189C331.023 197 340.923 201 352.923 201ZM568.105 73.2C583.105 73.2 596.705 76.7 608.905 83.7C621.305 90.5 631.005 100.2 638.005 112.8C645.005 125.2 648.505 139.7 648.505 156.3C648.505 172.9 645.005 187.5 638.005 200.1C631.005 212.5 621.305 222.2 608.905 229.2C596.705 236 583.105 239.4 568.105 239.4C545.905 239.4 529.005 232.4 517.405 218.4V237H472.705V14.4H519.505V92.7C531.305 79.7 547.505 73.2 568.105 73.2ZM560.005 201C572.005 201 581.805 197 589.405 189C597.205 180.8 601.105 169.9 601.105 156.3C601.105 142.7 597.205 131.9 589.405 123.9C581.805 115.7 572.005 111.6 560.005 111.6C548.005 111.6 538.105 115.7 530.305 123.9C522.705 131.9 518.905 142.7 518.905 156.3C518.905 169.9 522.705 180.8 530.305 189C538.105 197 548.005 201 560.005 201ZM679.834 75.6H726.634V237H679.834V75.6ZM703.234 53.1C694.634 53.1 687.634 50.6 682.234 45.6C676.834 40.6 674.134 34.4 674.134 27C674.134 19.6 676.834 13.4 682.234 8.39999C687.634 3.39999 694.634 0.899982 703.234 0.899982C711.834 0.899982 718.834 3.29999 724.234 8.1C729.634 12.9 732.334 18.9 732.334 26.1C732.334 33.9 729.634 40.4 724.234 45.6C718.834 50.6 711.834 53.1 703.234 53.1ZM770.069 14.4H816.869V237H770.069V14.4ZM1018.4 156.9C1018.4 157.5 1018.1 161.7 1017.5 169.5H895.403C897.603 179.5 902.803 187.4 911.003 193.2C919.203 199 929.403 201.9 941.603 201.9C950.003 201.9 957.403 200.7 963.803 198.3C970.403 195.7 976.503 191.7 982.103 186.3L1007 213.3C991.803 230.7 969.603 239.4 940.403 239.4C922.203 239.4 906.103 235.9 892.103 228.9C878.103 221.7 867.303 211.8 859.703 199.2C852.103 186.6 848.303 172.3 848.303 156.3C848.303 140.5 852.003 126.3 859.403 113.7C867.003 100.9 877.303 91 890.303 84C903.503 76.8 918.203 73.2 934.403 73.2C950.203 73.2 964.503 76.6 977.303 83.4C990.103 90.2 1000.1 100 1007.3 112.8C1014.7 125.4 1018.4 140.1 1018.4 156.9ZM934.703 108.6C924.103 108.6 915.203 111.6 908.003 117.6C900.803 123.6 896.403 131.8 894.803 142.2H974.303C972.703 132 968.303 123.9 961.103 117.9C953.903 111.7 945.103 108.6 934.703 108.6Z" fill="#C4C4C4" fill-opacity="0.08"/>
<path d="M184 237L183 237.002L183.002 238H184V237ZM183.7 111L184.7 110.998L184.691 107.38L182.841 110.488L183.7 111ZM121.9 214.8V215.8H122.468L122.759 215.312L121.9 214.8ZM100 214.8L99.1457 215.32L99.4378 215.8H100V214.8ZM38.5 113.7L39.3543 113.18L37.5 110.132V113.7H38.5ZM38.5 237V238H39.5V237H38.5ZM-7.1 237H-8.1V238H-7.1V237ZM-7.1 27V26H-8.1V27H-7.1ZM33.1 27L33.9566 26.484L33.6651 26H33.1V27ZM111.7 157.5L110.843 158.016L111.707 159.449L112.56 158.01L111.7 157.5ZM189.1 27V26H188.53L188.24 26.4899L189.1 27ZM229 27L230 26.9971L229.997 26H229V27ZM229.6 237V238H230.603L230.6 236.997L229.6 237ZM185 236.998L184.7 110.998L182.7 111.002L183 237.002L185 236.998ZM182.841 110.488L121.041 214.288L122.759 215.312L184.559 111.512L182.841 110.488ZM121.9 213.8H100V215.8H121.9V213.8ZM100.854 214.28L39.3543 113.18L37.6457 114.22L99.1457 215.32L100.854 214.28ZM37.5 113.7V237H39.5V113.7H37.5ZM38.5 236H-7.1V238H38.5V236ZM-6.1 237V27H-8.1V237H-6.1ZM-7.1 28H33.1V26H-7.1V28ZM32.2434 27.5159L110.843 158.016L112.557 156.984L33.9566 26.484L32.2434 27.5159ZM112.56 158.01L189.96 27.5101L188.24 26.4899L110.84 156.99L112.56 158.01ZM189.1 28H229V26H189.1V28ZM228 27.0028L228.6 237.003L230.6 236.997L230 26.9971L228 27.0028ZM229.6 236H184V238H229.6V236ZM307.023 228.9L306.55 229.781L306.558 229.785L306.566 229.789L307.023 228.9ZM275.523 199.2L274.667 199.716L275.523 199.2ZM275.523 113.4L274.667 112.883L275.523 113.4ZM307.023 84L307.486 84.8864L307.491 84.8838L307.023 84ZM398.523 84L398.05 84.8809L398.06 84.8863L398.523 84ZM430.023 113.4L430.88 112.883L430.023 113.4ZM430.023 199.2L430.88 199.716L430.023 199.2ZM398.523 228.9L398.986 229.786L398.997 229.781L398.523 228.9ZM382.323 189L381.599 188.311L381.598 188.311L382.323 189ZM382.323 123.9L381.59 124.58L381.599 124.589L381.607 124.598L382.323 123.9ZM323.223 123.9L323.939 124.598L323.948 124.589L323.223 123.9ZM323.223 189L322.499 189.689L322.507 189.698L323.223 189ZM352.923 238.4C336.065 238.4 320.924 234.93 307.481 228.011L306.566 229.789C320.323 236.87 335.782 240.4 352.923 240.4V238.4ZM307.497 228.019C294.249 220.901 283.884 211.125 276.38 198.684L274.667 199.716C282.363 212.475 292.998 222.499 306.55 229.781L307.497 228.019ZM276.38 198.684C268.882 186.253 265.123 172.134 265.123 156.3H263.123C263.123 172.466 266.965 186.947 274.667 199.716L276.38 198.684ZM265.123 156.3C265.123 140.466 268.882 126.347 276.38 113.916L274.667 112.883C266.965 125.653 263.123 140.134 263.123 156.3H265.123ZM276.38 113.916C283.882 101.478 294.244 91.8039 307.486 84.8863L306.56 83.1136C293.003 90.1961 282.365 100.122 274.667 112.883L276.38 113.916ZM307.491 84.8838C320.933 77.7678 336.069 74.2 352.923 74.2V72.2C335.778 72.2 320.314 75.8321 306.556 83.1162L307.491 84.8838ZM352.923 74.2C369.778 74.2 384.812 77.7679 398.05 84.8809L398.997 83.1191C385.435 75.8321 370.069 72.2 352.923 72.2V74.2ZM398.06 84.8863C411.303 91.8039 421.665 101.478 429.167 113.916L430.88 112.883C423.182 100.122 412.544 90.1961 398.986 83.1136L398.06 84.8863ZM429.167 113.916C436.665 126.347 440.423 140.466 440.423 156.3H442.423C442.423 140.134 438.582 125.653 430.88 112.883L429.167 113.916ZM440.423 156.3C440.423 172.134 436.665 186.253 429.167 198.684L430.88 199.716C438.582 186.947 442.423 172.466 442.423 156.3H440.423ZM429.167 198.684C421.663 211.125 411.298 220.901 398.05 228.019L398.997 229.781C412.549 222.499 423.184 212.475 430.88 199.716L429.167 198.684ZM398.06 228.014C384.82 234.93 369.783 238.4 352.923 238.4V240.4C370.064 240.4 385.427 236.87 398.986 229.786L398.06 228.014ZM352.923 202C365.171 202 375.242 197.906 383.048 189.689L381.598 188.311C374.205 196.094 364.676 200 352.923 200V202ZM383.048 189.689C391.059 181.267 395.023 170.102 395.023 156.3H393.023C393.023 169.698 389.188 180.333 381.599 188.311L383.048 189.689ZM395.023 156.3C395.023 142.499 391.06 131.428 383.039 123.202L381.607 124.598C389.187 132.372 393.023 142.901 393.023 156.3H395.023ZM383.057 123.22C375.253 114.8 365.179 110.6 352.923 110.6V112.6C364.668 112.6 374.194 116.6 381.59 124.58L383.057 123.22ZM352.923 110.6C340.668 110.6 330.5 114.799 322.499 123.211L323.948 124.589C331.547 116.601 341.179 112.6 352.923 112.6V110.6ZM322.507 123.202C314.487 131.428 310.523 142.499 310.523 156.3H312.523C312.523 142.901 316.36 132.372 323.939 124.598L322.507 123.202ZM310.523 156.3C310.523 170.102 314.488 181.267 322.499 189.689L323.948 188.311C316.359 180.333 312.523 169.698 312.523 156.3H310.523ZM322.507 189.698C330.511 197.906 340.676 202 352.923 202V200C341.171 200 331.536 196.094 323.939 188.302L322.507 189.698ZM608.905 83.7L608.408 84.5674L608.416 84.5722L608.425 84.5768L608.905 83.7ZM638.005 112.8L637.131 113.286L637.135 113.292L638.005 112.8ZM638.005 200.1L638.876 200.592L638.88 200.586L638.005 200.1ZM608.905 229.2L609.392 230.073L609.397 230.071L608.905 229.2ZM517.405 218.4L518.175 217.762L516.405 215.626V218.4H517.405ZM517.405 237V238H518.405V237H517.405ZM472.705 237H471.705V238H472.705V237ZM472.705 14.4V13.4H471.705V14.4H472.705ZM519.505 14.4H520.505V13.4H519.505V14.4ZM519.505 92.7H518.505V95.2896L520.246 93.3721L519.505 92.7ZM589.405 189L588.681 188.311L588.68 188.311L589.405 189ZM589.405 123.9L588.672 124.58L588.681 124.589L588.689 124.598L589.405 123.9ZM530.305 123.9L529.581 123.211L529.58 123.211L530.305 123.9ZM530.305 189L529.572 189.68L529.581 189.689L529.589 189.698L530.305 189ZM568.105 74.2C582.943 74.2 596.369 77.66 608.408 84.5674L609.403 82.8326C597.042 75.7399 583.268 72.2 568.105 72.2V74.2ZM608.425 84.5768C620.656 91.2843 630.221 100.847 637.131 113.286L638.88 112.314C631.79 99.5528 621.955 89.7157 609.386 82.8232L608.425 84.5768ZM637.135 113.292C644.037 125.518 647.505 139.843 647.505 156.3H649.505C649.505 139.557 645.974 124.882 638.876 112.308L637.135 113.292ZM647.505 156.3C647.505 172.756 644.037 187.184 637.131 199.614L638.88 200.586C645.974 187.816 649.505 173.044 649.505 156.3H647.505ZM637.135 199.608C630.224 211.85 620.655 221.419 608.414 228.329L609.397 230.071C621.956 222.981 631.787 213.15 638.876 200.592L637.135 199.608ZM608.419 228.327C596.378 235.037 582.948 238.4 568.105 238.4V240.4C583.263 240.4 597.033 236.963 609.392 230.073L608.419 228.327ZM568.105 238.4C546.131 238.4 529.544 231.482 518.175 217.762L516.635 219.038C528.467 233.318 545.68 240.4 568.105 240.4V238.4ZM516.405 218.4V237H518.405V218.4H516.405ZM517.405 236H472.705V238H517.405V236ZM473.705 237V14.4H471.705V237H473.705ZM472.705 15.4H519.505V13.4H472.705V15.4ZM518.505 14.4V92.7H520.505V14.4H518.505ZM520.246 93.3721C531.823 80.6175 547.734 74.2 568.105 74.2V72.2C547.277 72.2 530.788 78.7825 518.765 92.0279L520.246 93.3721ZM560.005 202C572.253 202 582.324 197.906 590.13 189.689L588.68 188.311C581.287 196.094 571.758 200 560.005 200V202ZM590.13 189.689C598.141 181.267 602.105 170.102 602.105 156.3H600.105C600.105 169.698 596.27 180.333 588.681 188.311L590.13 189.689ZM602.105 156.3C602.105 142.499 598.142 131.428 590.121 123.202L588.689 124.598C596.269 132.372 600.105 142.901 600.105 156.3H602.105ZM590.139 123.22C582.335 114.8 572.261 110.6 560.005 110.6V112.6C571.75 112.6 581.276 116.6 588.672 124.58L590.139 123.22ZM560.005 110.6C547.75 110.6 537.582 114.799 529.581 123.211L531.03 124.589C538.629 116.601 548.261 112.6 560.005 112.6V110.6ZM529.58 123.211C521.765 131.438 517.905 142.506 517.905 156.3H519.905C519.905 142.894 523.646 132.362 531.03 124.589L529.58 123.211ZM517.905 156.3C517.905 170.095 521.765 181.257 529.572 189.68L531.039 188.32C523.646 180.343 519.905 169.705 519.905 156.3H517.905ZM529.589 189.698C537.593 197.906 547.758 202 560.005 202V200C548.253 200 538.618 196.094 531.021 188.302L529.589 189.698ZM679.834 75.6V74.6H678.834V75.6H679.834ZM726.634 75.6H727.634V74.6H726.634V75.6ZM726.634 237V238H727.634V237H726.634ZM679.834 237H678.834V238H679.834V237ZM682.234 45.6L681.555 46.3338L682.234 45.6ZM682.234 8.39999L682.914 9.13375L682.234 8.39999ZM724.234 8.1L723.57 8.8474L724.234 8.1ZM724.234 45.6L724.914 46.3338L724.921 46.3271L724.928 46.3203L724.234 45.6ZM679.834 76.6H726.634V74.6H679.834V76.6ZM725.634 75.6V237H727.634V75.6H725.634ZM726.634 236H679.834V238H726.634V236ZM680.834 237V75.6H678.834V237H680.834ZM703.234 52.1C694.841 52.1 688.098 49.6666 682.914 44.8662L681.555 46.3338C687.171 51.5334 694.428 54.1 703.234 54.1V52.1ZM682.914 44.8662C677.719 40.0567 675.134 34.1232 675.134 27H673.134C673.134 34.6768 675.949 41.1433 681.555 46.3338L682.914 44.8662ZM675.134 27C675.134 19.8768 677.719 13.9433 682.914 9.13375L681.555 7.66623C675.949 12.8567 673.134 19.3232 673.134 27H675.134ZM682.914 9.13375C688.098 4.33338 694.841 1.89998 703.234 1.89998V-0.100018C694.428 -0.100018 687.171 2.46659 681.555 7.66623L682.914 9.13375ZM703.234 1.89998C711.639 1.89998 718.387 4.24004 723.57 8.8474L724.899 7.35259C719.282 2.35994 712.03 -0.100018 703.234 -0.100018V1.89998ZM723.57 8.8474C728.757 13.4584 731.334 19.1868 731.334 26.1H733.334C733.334 18.6132 730.511 12.3416 724.899 7.35259L723.57 8.8474ZM731.334 26.1C731.334 33.6406 728.736 39.8766 723.541 44.8797L724.928 46.3203C730.532 40.9234 733.334 34.1594 733.334 26.1H731.334ZM723.555 44.8662C718.371 49.6666 711.628 52.1 703.234 52.1V54.1C712.041 54.1 719.298 51.5334 724.914 46.3338L723.555 44.8662ZM770.069 14.4V13.4H769.069V14.4H770.069ZM816.869 14.4H817.869V13.4H816.869V14.4ZM816.869 237V238H817.869V237H816.869ZM770.069 237H769.069V238H770.069V237ZM770.069 15.4H816.869V13.4H770.069V15.4ZM815.869 14.4V237H817.869V14.4H815.869ZM816.869 236H770.069V238H816.869V236ZM771.069 237V14.4H769.069V237H771.069ZM1017.5 169.5V170.5H1018.43L1018.5 169.577L1017.5 169.5ZM895.403 169.5V168.5H894.159L894.427 169.715L895.403 169.5ZM911.003 193.2L911.581 192.384L911.003 193.2ZM963.803 198.3L964.154 199.236L964.162 199.233L964.17 199.23L963.803 198.3ZM982.103 186.3L982.838 185.622L982.145 184.87L981.409 185.58L982.103 186.3ZM1007 213.3L1007.76 213.958L1008.35 213.282L1007.74 212.622L1007 213.3ZM892.103 228.9L891.646 229.789L891.656 229.794L892.103 228.9ZM859.703 199.2L858.847 199.716L859.703 199.2ZM859.403 113.7L858.543 113.189L858.541 113.194L859.403 113.7ZM890.303 84L890.777 84.8805L890.782 84.8779L890.303 84ZM977.303 83.4L977.772 82.5169L977.303 83.4ZM1007.3 112.8L1006.43 113.29L1006.44 113.298L1006.44 113.306L1007.3 112.8ZM908.003 117.6L907.363 116.832L908.003 117.6ZM894.803 142.2L893.815 142.048L893.638 143.2H894.803V142.2ZM974.303 142.2V143.2H975.472L975.291 142.045L974.303 142.2ZM961.103 117.9L960.451 118.658L960.457 118.663L960.463 118.668L961.103 117.9ZM1017.4 156.9C1017.4 157.449 1017.11 161.586 1016.51 169.423L1018.5 169.577C1019.1 161.814 1019.4 157.551 1019.4 156.9H1017.4ZM1017.5 168.5H895.403V170.5H1017.5V168.5ZM894.427 169.715C896.679 179.953 902.018 188.07 910.426 194.016L911.581 192.384C903.588 186.73 898.527 179.047 896.38 169.285L894.427 169.715ZM910.426 194.016C918.828 199.96 929.241 202.9 941.603 202.9V200.9C929.565 200.9 919.578 198.04 911.581 192.384L910.426 194.016ZM941.603 202.9C950.096 202.9 957.62 201.687 964.154 199.236L963.452 197.364C957.187 199.713 949.91 200.9 941.603 200.9V202.9ZM964.17 199.23C970.903 196.578 977.112 192.502 982.797 187.02L981.409 185.58C975.894 190.898 969.903 194.822 963.437 197.37L964.17 199.23ZM981.368 186.978L1006.27 213.978L1007.74 212.622L982.838 185.622L981.368 186.978ZM1006.25 212.642C991.288 229.77 969.396 238.4 940.403 238.4V240.4C969.81 240.4 992.318 231.63 1007.76 213.958L1006.25 212.642ZM940.403 238.4C922.333 238.4 906.391 234.926 892.55 228.006L891.656 229.794C905.816 236.874 922.073 240.4 940.403 240.4V238.4ZM892.56 228.011C878.713 220.889 868.057 211.113 860.559 198.684L858.847 199.716C866.549 212.487 877.493 222.511 891.646 229.789L892.56 228.011ZM860.559 198.684C853.062 186.253 849.303 172.134 849.303 156.3H847.303C847.303 172.466 851.145 186.947 858.847 199.716L860.559 198.684ZM849.303 156.3C849.303 140.663 852.963 126.64 860.265 114.206L858.541 113.194C851.043 125.96 847.303 140.337 847.303 156.3H849.303ZM860.263 114.211C867.771 101.565 877.938 91.7937 890.777 84.8805L889.829 83.1195C876.668 90.2063 866.235 100.235 858.543 113.189L860.263 114.211ZM890.782 84.8779C903.824 77.7642 918.357 74.2 934.403 74.2V72.2C918.049 72.2 903.182 75.8358 889.824 83.1221L890.782 84.8779ZM934.403 74.2C950.055 74.2 964.191 77.5666 976.834 84.2831L977.772 82.5169C964.815 75.6334 950.352 72.2 934.403 72.2V74.2ZM976.834 84.2831C989.463 90.9921 999.324 100.655 1006.43 113.29L1008.17 112.31C1000.88 99.3453 990.744 89.4079 977.772 82.5169L976.834 84.2831ZM1006.44 113.306C1013.74 125.731 1017.4 140.251 1017.4 156.9H1019.4C1019.4 139.949 1015.67 125.069 1008.17 112.294L1006.44 113.306ZM934.703 107.6C923.902 107.6 914.766 110.662 907.363 116.832L908.643 118.368C915.64 112.538 924.305 109.6 934.703 109.6V107.6ZM907.363 116.832C899.952 123.007 895.447 131.439 893.815 142.048L895.792 142.352C897.359 132.161 901.654 124.193 908.643 118.368L907.363 116.832ZM894.803 143.2H974.303V141.2H894.803V143.2ZM975.291 142.045C973.658 131.631 969.149 123.303 961.743 117.132L960.463 118.668C967.457 124.497 971.749 132.369 973.315 142.355L975.291 142.045ZM961.756 117.142C954.357 110.771 945.318 107.6 934.703 107.6V109.6C944.888 109.6 953.45 112.629 960.451 118.658L961.756 117.142Z" fill="#777777" fill-opacity="0.3"/>
</svg>
