<svg width="564" height="129" viewBox="0 0 564 129" fill="none" xmlns="http://www.w3.org/2000/svg">
<path d="M42.1556 7.22567C57.1426 7.22567 68.8119 10.7812 77.1634 17.8921C85.6293 24.8884 89.8623 34.6373 89.8623 47.1389C89.8623 59.7552 85.6293 69.6188 77.1634 76.7298C68.8119 83.726 57.1426 87.2242 42.1556 87.2242H6.28971V127.654H0.455078V7.22567H42.1556ZM42.4988 81.8909C55.8841 81.8909 66.1805 78.9089 73.388 72.9449C80.5955 66.8661 84.1993 58.2641 84.1993 47.1389C84.1993 36.1284 80.5955 27.6411 73.388 21.677C66.1805 15.5983 55.8841 12.5589 42.4988 12.5589H6.28971V81.8909H42.4988Z" fill="#F1F1F1"/>
<path d="M146.367 37.6767C157.006 37.6767 165.129 40.4294 170.735 45.9346C176.455 51.4399 179.315 59.4111 179.315 69.8482V127.654H173.824V109.761C170.964 115.496 166.673 120.026 160.953 123.353C155.347 126.564 148.597 128.17 140.704 128.17C130.75 128.17 122.914 125.876 117.193 121.288C111.588 116.7 108.785 110.622 108.785 103.052C108.785 95.8262 111.359 89.9768 116.507 85.5038C121.655 80.916 129.892 78.6222 141.218 78.6222H173.652V69.8482C173.652 61.0168 171.307 54.3072 166.616 49.7195C162.04 45.1318 155.233 42.8379 146.195 42.8379C139.903 42.8379 134.011 43.9275 128.519 46.1067C123.028 48.2858 118.337 51.2105 114.448 54.8807L111.359 50.7517C115.706 46.6228 120.912 43.4114 126.975 41.1175C133.153 38.8236 139.617 37.6767 146.367 37.6767ZM141.047 123.353C157.063 123.353 167.932 116.184 173.652 101.848V83.2673H141.218C131.952 83.2673 125.145 85.045 120.797 88.6005C116.564 92.0413 114.448 96.7437 114.448 102.708C114.448 109.131 116.793 114.177 121.484 117.847C126.289 121.517 132.81 123.353 141.047 123.353Z" fill="#F1F1F1"/>
<path d="M216.404 0H222.067V127.654H216.404V0Z" fill="#F1F1F1"/>
<path d="M333.591 83.7834H255.51C255.624 91.3531 257.398 98.12 260.83 104.084C264.262 110.048 268.952 114.693 274.901 118.019C280.965 121.345 287.715 123.008 295.151 123.008C301.215 123.008 306.82 121.919 311.969 119.74C317.117 117.446 321.35 114.12 324.667 109.761L328.271 113.546C324.267 118.249 319.405 121.862 313.685 124.385C307.964 126.908 301.787 128.17 295.151 128.17C286.456 128.17 278.677 126.277 271.813 122.492C265.063 118.593 259.743 113.202 255.853 106.321C251.963 99.439 250.018 91.6399 250.018 82.9232C250.018 74.2065 251.792 66.4074 255.338 59.5258C258.999 52.6442 264.033 47.3109 270.44 43.5261C276.846 39.6265 283.997 37.6767 291.891 37.6767C299.67 37.6767 306.706 39.5692 312.998 43.354C319.405 47.1389 324.439 52.4148 328.1 59.1817C331.761 65.9486 333.591 73.633 333.591 82.235V83.7834ZM291.891 42.8379C285.255 42.8379 279.249 44.3863 273.872 47.483C268.495 50.5797 264.205 54.938 261.001 60.558C257.798 66.0633 256.025 72.2567 255.681 79.1383H328.271C327.814 72.2567 325.926 66.0633 322.608 60.558C319.405 54.938 315.115 50.5797 309.738 47.483C304.475 44.3863 298.526 42.8379 291.891 42.8379Z" fill="#F1F1F1"/>
<path d="M403.576 121.976C401.517 123.926 398.885 125.474 395.682 126.621C392.479 127.654 389.161 128.17 385.729 128.17C378.521 128.17 372.915 126.163 368.911 122.148C365.021 118.019 363.077 112.399 363.077 105.288V43.354H346.259V38.3649H363.077V18.7523H368.74V38.3649H398.084V43.354H368.74V104.428C368.74 110.507 370.227 115.152 373.201 118.363C376.176 121.575 380.523 123.18 386.244 123.18C391.964 123.18 396.769 121.403 400.659 117.847L403.576 121.976Z" fill="#F1F1F1"/>
<path d="M468.264 121.976C466.204 123.926 463.573 125.474 460.37 126.621C457.166 127.654 453.849 128.17 450.417 128.17C443.209 128.17 437.603 126.163 433.599 122.148C429.709 118.019 427.764 112.399 427.764 105.288V43.354H410.947V38.3649H427.764V18.7523H433.427V38.3649H462.772V43.354H433.427V104.428C433.427 110.507 434.915 115.152 437.889 118.363C440.864 121.575 445.211 123.18 450.931 123.18C456.652 123.18 461.457 121.403 465.346 117.847L468.264 121.976Z" fill="#F1F1F1"/>
<path d="M563.518 83.7834H485.436C485.551 91.3531 487.324 98.12 490.756 104.084C494.188 110.048 498.879 114.693 504.828 118.019C510.891 121.345 517.641 123.008 525.078 123.008C531.141 123.008 536.747 121.919 541.895 119.74C547.043 117.446 551.276 114.12 554.594 109.761L558.198 113.546C554.194 118.249 549.331 121.862 543.611 124.385C537.891 126.908 531.713 128.17 525.078 128.17C516.383 128.17 508.603 126.277 501.739 122.492C494.989 118.593 489.669 113.202 485.78 106.321C481.89 99.439 479.945 91.6399 479.945 82.9232C479.945 74.2065 481.718 66.4074 485.265 59.5258C488.926 52.6442 493.96 47.3109 500.366 43.5261C506.773 39.6265 513.923 37.6767 521.817 37.6767C529.597 37.6767 536.633 39.5692 542.925 43.354C549.331 47.1389 554.365 52.4148 558.026 59.1817C561.687 65.9486 563.518 73.633 563.518 82.235V83.7834ZM521.817 42.8379C515.182 42.8379 509.175 44.3863 503.798 47.483C498.421 50.5797 494.131 54.938 490.928 60.558C487.724 66.0633 485.951 72.2567 485.608 79.1383H558.198C557.74 72.2567 555.852 66.0633 552.535 60.558C549.331 54.938 545.041 50.5797 539.664 47.483C534.402 44.3863 528.453 42.8379 521.817 42.8379Z" fill="#F1F1F1"/>
</svg>
