<svg width="1069" height="185" viewBox="0 0 1069 185" fill="none" xmlns="http://www.w3.org/2000/svg">
<path d="M257.43 21L204.76 182H164.74L129.32 72.98L92.75 182H52.96L0.0600004 21H38.7L75.04 134.16L112.99 21H147.49L184.29 135.08L221.78 21H257.43ZM387.702 120.59C387.702 121.05 387.472 124.27 387.012 130.25H293.402C295.088 137.917 299.075 143.973 305.362 148.42C311.648 152.867 319.468 155.09 328.822 155.09C335.262 155.09 340.935 154.17 345.842 152.33C350.902 150.337 355.578 147.27 359.872 143.13L378.962 163.83C367.308 177.17 350.288 183.84 327.902 183.84C313.948 183.84 301.605 181.157 290.872 175.79C280.138 170.27 271.858 162.68 266.032 153.02C260.205 143.36 257.292 132.397 257.292 120.13C257.292 108.017 260.128 97.13 265.802 87.47C271.628 77.6567 279.525 70.0667 289.492 64.7C299.612 59.18 310.882 56.42 323.302 56.42C335.415 56.42 346.378 59.0267 356.192 64.24C366.005 69.4533 373.672 76.9667 379.192 86.78C384.865 96.44 387.702 107.71 387.702 120.59ZM323.532 83.56C315.405 83.56 308.582 85.86 303.062 90.46C297.542 95.06 294.168 101.347 292.942 109.32H353.892C352.665 101.5 349.292 95.29 343.772 90.69C338.252 85.9367 331.505 83.56 323.532 83.56ZM484.729 56.42C496.229 56.42 506.656 59.1033 516.009 64.47C525.516 69.6833 532.953 77.12 538.319 86.78C543.686 96.2867 546.369 107.403 546.369 120.13C546.369 132.857 543.686 144.05 538.319 153.71C532.953 163.217 525.516 170.653 516.009 176.02C506.656 181.233 496.229 183.84 484.729 183.84C467.709 183.84 454.753 178.473 445.859 167.74V182H411.589V11.34H447.469V71.37C456.516 61.4033 468.936 56.42 484.729 56.42ZM478.519 154.4C487.719 154.4 495.233 151.333 501.059 145.2C507.039 138.913 510.029 130.557 510.029 120.13C510.029 109.703 507.039 101.423 501.059 95.29C495.233 89.0033 487.719 85.86 478.519 85.86C469.319 85.86 461.729 89.0033 455.749 95.29C449.923 101.423 447.009 109.703 447.009 120.13C447.009 130.557 449.923 138.913 455.749 145.2C461.729 151.333 469.319 154.4 478.519 154.4ZM690.955 184.76C678.228 184.76 665.885 183.073 653.925 179.7C642.118 176.173 632.612 171.65 625.405 166.13L638.055 138.07C644.955 143.13 653.158 147.193 662.665 150.26C672.172 153.327 681.678 154.86 691.185 154.86C701.765 154.86 709.585 153.327 714.645 150.26C719.705 147.04 722.235 142.823 722.235 137.61C722.235 133.777 720.702 130.633 717.635 128.18C714.722 125.573 710.888 123.503 706.135 121.97C701.535 120.437 695.248 118.75 687.275 116.91C675.008 113.997 664.965 111.083 657.145 108.17C649.325 105.257 642.578 100.58 636.905 94.14C631.385 87.7 628.625 79.1133 628.625 68.38C628.625 59.0267 631.155 50.5933 636.215 43.08C641.275 35.4133 648.865 29.3567 658.985 24.91C669.258 20.4633 681.755 18.24 696.475 18.24C706.748 18.24 716.792 19.4667 726.605 21.92C736.418 24.3733 745.005 27.9 752.365 32.5L740.865 60.79C725.992 52.3567 711.118 48.14 696.245 48.14C685.818 48.14 678.075 49.8267 673.015 53.2C668.108 56.5733 665.655 61.02 665.655 66.54C665.655 72.06 668.492 76.2 674.165 78.96C679.992 81.5667 688.808 84.1733 700.615 86.78C712.882 89.6933 722.925 92.6067 730.745 95.52C738.565 98.4333 745.235 103.033 750.755 109.32C756.428 115.607 759.265 124.117 759.265 134.85C759.265 144.05 756.658 152.483 751.445 160.15C746.385 167.663 738.718 173.643 728.445 178.09C718.172 182.537 705.675 184.76 690.955 184.76ZM782.195 58.26H818.075V182H782.195V58.26ZM800.135 41.01C793.541 41.01 788.175 39.0933 784.035 35.26C779.895 31.4267 777.825 26.6733 777.825 21C777.825 15.3267 779.895 10.5733 784.035 6.73999C788.175 2.90666 793.541 0.989986 800.135 0.989986C806.728 0.989986 812.095 2.82999 816.235 6.51C820.375 10.19 822.445 14.79 822.445 20.31C822.445 26.29 820.375 31.2733 816.235 35.26C812.095 39.0933 806.728 41.01 800.135 41.01ZM931.184 176.02C927.658 178.627 923.288 180.62 918.074 182C913.014 183.227 907.648 183.84 901.974 183.84C887.254 183.84 875.831 180.083 867.704 172.57C859.731 165.057 855.744 154.017 855.744 139.45V88.62H836.654V61.02H855.744V30.89H891.624V61.02H922.444V88.62H891.624V138.99C891.624 144.203 892.928 148.267 895.534 151.18C898.294 153.94 902.128 155.32 907.034 155.32C912.708 155.32 917.538 153.787 921.524 150.72L931.184 176.02ZM1068.72 120.59C1068.72 121.05 1068.49 124.27 1068.03 130.25H974.417C976.104 137.917 980.091 143.973 986.377 148.42C992.664 152.867 1000.48 155.09 1009.84 155.09C1016.28 155.09 1021.95 154.17 1026.86 152.33C1031.92 150.337 1036.59 147.27 1040.89 143.13L1059.98 163.83C1048.32 177.17 1031.3 183.84 1008.92 183.84C994.964 183.84 982.621 181.157 971.887 175.79C961.154 170.27 952.874 162.68 947.047 153.02C941.221 143.36 938.307 132.397 938.307 120.13C938.307 108.017 941.144 97.13 946.817 87.47C952.644 77.6567 960.541 70.0667 970.507 64.7C980.627 59.18 991.897 56.42 1004.32 56.42C1016.43 56.42 1027.39 59.0267 1037.21 64.24C1047.02 69.4533 1054.69 76.9667 1060.21 86.78C1065.88 96.44 1068.72 107.71 1068.72 120.59ZM1004.55 83.56C996.421 83.56 989.597 85.86 984.077 90.46C978.557 95.06 975.184 101.347 973.957 109.32H1034.91C1033.68 101.5 1030.31 95.29 1024.79 90.69C1019.27 85.9367 1012.52 83.56 1004.55 83.56Z" fill="#C4C4C4" fill-opacity="0.08"/>
<path d="M257.43 21L258.38 21.3109L258.809 20H257.43V21ZM204.76 182V183H205.485L205.71 182.311L204.76 182ZM164.74 182L163.789 182.309L164.013 183H164.74V182ZM129.32 72.98L130.271 72.671L129.335 69.7904L128.372 72.662L129.32 72.98ZM92.75 182V183H93.4693L93.6981 182.318L92.75 182ZM52.96 182L52.01 182.312L52.236 183H52.96V182ZM0.0600004 21V20H-1.32117L-0.890031 21.3121L0.0600004 21ZM38.7 21L39.6521 20.6942L39.4292 20H38.7V21ZM75.04 134.16L74.0879 134.466L75.0194 137.366L75.9881 134.478L75.04 134.16ZM112.99 21V20H112.271L112.042 20.682L112.99 21ZM147.49 21L148.442 20.693L148.218 20H147.49V21ZM184.29 135.08L183.338 135.387L184.281 138.31L185.24 135.392L184.29 135.08ZM221.78 21V20H221.056L220.83 20.6878L221.78 21ZM256.48 20.6891L203.81 181.689L205.71 182.311L258.38 21.3109L256.48 20.6891ZM204.76 181H164.74V183H204.76V181ZM165.691 181.691L130.271 72.671L128.369 73.289L163.789 182.309L165.691 181.691ZM128.372 72.662L91.8019 181.682L93.6981 182.318L130.268 73.298L128.372 72.662ZM92.75 181H52.96V183H92.75V181ZM53.91 181.688L1.01003 20.6878L-0.890031 21.3121L52.01 182.312L53.91 181.688ZM0.0600004 22H38.7V20H0.0600004V22ZM37.7479 21.3057L74.0879 134.466L75.9921 133.854L39.6521 20.6942L37.7479 21.3057ZM75.9881 134.478L113.938 21.318L112.042 20.682L74.0919 133.842L75.9881 134.478ZM112.99 22H147.49V20H112.99V22ZM146.538 21.307L183.338 135.387L185.242 134.773L148.442 20.693L146.538 21.307ZM185.24 135.392L222.73 21.3122L220.83 20.6878L183.34 134.768L185.24 135.392ZM221.78 22H257.43V20H221.78V22ZM387.012 130.25V131.25H387.938L388.009 130.327L387.012 130.25ZM293.402 130.25V129.25H292.158L292.425 130.465L293.402 130.25ZM305.362 148.42L305.939 147.604L305.362 148.42ZM345.842 152.33L346.193 153.266L346.201 153.263L346.208 153.26L345.842 152.33ZM359.872 143.13L360.607 142.452L359.914 141.7L359.178 142.41L359.872 143.13ZM378.962 163.83L379.715 164.488L380.305 163.812L379.697 163.152L378.962 163.83ZM290.872 175.79L290.414 176.679L290.424 176.684L290.872 175.79ZM266.032 153.02L265.175 153.536L266.032 153.02ZM265.802 87.47L264.942 86.9594L264.939 86.9636L265.802 87.47ZM289.492 64.7L289.966 65.5805L289.97 65.5779L289.492 64.7ZM356.192 64.24L356.661 63.3569L356.192 64.24ZM379.192 86.78L378.32 87.2702L378.325 87.2784L378.329 87.2864L379.192 86.78ZM303.062 90.46L302.421 89.6918L303.062 90.46ZM292.942 109.32L291.953 109.168L291.776 110.32H292.942V109.32ZM353.892 109.32V110.32H355.061L354.88 109.165L353.892 109.32ZM343.772 90.69L343.119 91.4478L343.125 91.453L343.131 91.4582L343.772 90.69ZM386.702 120.59C386.702 120.999 386.477 124.156 386.015 130.173L388.009 130.327C388.466 124.384 388.702 121.101 388.702 120.59H386.702ZM387.012 129.25H293.402V131.25H387.012V129.25ZM292.425 130.465C294.164 138.37 298.29 144.643 304.784 149.236L305.939 147.604C299.86 143.304 296.013 137.464 294.378 130.035L292.425 130.465ZM304.784 149.236C311.273 153.826 319.307 156.09 328.822 156.09V154.09C319.63 154.09 312.023 151.907 305.939 147.604L304.784 149.236ZM328.822 156.09C335.355 156.09 341.151 155.157 346.193 153.266L345.491 151.394C340.719 153.183 335.168 154.09 328.822 154.09V156.09ZM346.208 153.26C351.401 151.215 356.187 148.072 360.566 143.85L359.178 142.41C354.969 146.468 350.402 149.459 345.475 151.4L346.208 153.26ZM359.137 143.808L378.227 164.508L379.697 163.152L360.607 142.452L359.137 143.808ZM378.209 163.172C366.793 176.24 350.082 182.84 327.902 182.84V184.84C350.495 184.84 367.824 178.1 379.715 164.488L378.209 163.172ZM327.902 182.84C314.078 182.84 301.892 180.182 291.319 174.896L290.424 176.684C301.318 182.131 313.818 184.84 327.902 184.84V182.84ZM291.329 174.901C280.749 169.459 272.612 161.993 266.888 152.504L265.175 153.536C271.105 163.367 279.528 171.081 290.414 176.679L291.329 174.901ZM266.888 152.504C261.163 143.013 258.292 132.231 258.292 120.13H256.292C256.292 132.562 259.247 143.707 265.175 153.536L266.888 152.504ZM258.292 120.13C258.292 108.18 261.088 97.4705 266.664 87.9764L264.939 86.9636C259.169 96.7895 256.292 107.854 256.292 120.13H258.292ZM266.661 87.9805C272.396 78.3219 280.16 70.8604 289.966 65.5805L289.018 63.8195C278.89 69.273 270.86 76.9915 264.942 86.9595L266.661 87.9805ZM289.97 65.5779C299.932 60.1442 311.036 57.42 323.302 57.42V55.42C310.728 55.42 299.291 58.2158 289.013 63.8221L289.97 65.5779ZM323.302 57.42C335.266 57.42 346.066 59.9933 355.722 65.1231L356.661 63.3569C346.69 58.06 335.564 55.42 323.302 55.42V57.42ZM355.722 65.1231C365.365 70.2454 372.893 77.6213 378.32 87.2702L380.063 86.2897C374.451 76.312 366.645 68.6612 356.661 63.3569L355.722 65.1231ZM378.329 87.2864C383.9 96.7711 386.702 107.861 386.702 120.59H388.702C388.702 107.559 385.83 96.1089 380.054 86.2736L378.329 87.2864ZM323.532 82.56C315.204 82.56 308.145 84.9224 302.421 89.6918L303.702 91.2282C309.019 86.7976 315.606 84.56 323.532 84.56V82.56ZM302.421 89.6918C296.691 94.4672 293.212 100.985 291.953 109.168L293.93 109.472C295.124 101.708 298.392 95.6528 303.702 91.2282L302.421 89.6918ZM292.942 110.32H353.892V108.32H292.942V110.32ZM354.88 109.165C353.619 101.131 350.138 94.6934 344.412 89.9218L343.131 91.4582C348.445 95.8866 351.711 101.869 352.904 109.475L354.88 109.165ZM344.424 89.9322C338.705 85.0074 331.72 82.56 323.532 82.56V84.56C331.29 84.56 337.798 86.8659 343.119 91.4478L344.424 89.9322ZM516.009 64.47L515.512 65.3374L515.52 65.3422L515.528 65.3468L516.009 64.47ZM538.319 86.78L537.445 87.2656L537.448 87.2716L538.319 86.78ZM538.319 153.71L539.19 154.202L539.193 154.196L538.319 153.71ZM516.009 176.02L516.496 176.893L516.501 176.891L516.009 176.02ZM445.859 167.74L446.629 167.102L444.859 164.966V167.74H445.859ZM445.859 182V183H446.859V182H445.859ZM411.589 182H410.589V183H411.589V182ZM411.589 11.34V10.34H410.589V11.34H411.589ZM447.469 11.34H448.469V10.34H447.469V11.34ZM447.469 71.37H446.469V73.9595L448.21 72.0421L447.469 71.37ZM501.059 145.2L500.335 144.511L500.334 144.511L501.059 145.2ZM501.059 95.29L500.326 95.9698L500.334 95.979L500.343 95.9881L501.059 95.29ZM455.749 95.29L455.025 94.6008L455.024 94.6012L455.749 95.29ZM455.749 145.2L455.016 145.88L455.024 145.889L455.033 145.898L455.749 145.2ZM484.729 57.42C496.067 57.42 506.32 60.0634 515.512 65.3374L516.507 63.6026C506.992 58.1433 496.392 55.42 484.729 55.42V57.42ZM515.528 65.3468C524.866 70.4676 532.168 77.7672 537.445 87.2656L539.193 86.2943C533.737 76.4728 526.166 68.899 516.49 63.5932L515.528 65.3468ZM537.448 87.2716C542.717 96.605 545.369 107.547 545.369 120.13H547.369C547.369 107.26 544.655 95.9683 539.19 86.2884L537.448 87.2716ZM545.369 120.13C545.369 132.713 542.717 143.734 537.445 153.224L539.193 154.196C544.654 144.366 547.369 133.001 547.369 120.13H545.369ZM537.448 153.218C532.171 162.566 524.866 169.872 515.518 175.149L516.501 176.891C526.166 171.435 533.734 163.867 539.19 154.202L537.448 153.218ZM515.522 175.147C506.329 180.271 496.072 182.84 484.729 182.84V184.84C496.387 184.84 506.983 182.196 516.496 176.893L515.522 175.147ZM484.729 182.84C467.935 182.84 455.291 177.556 446.629 167.102L445.089 168.378C454.214 179.391 467.484 184.84 484.729 184.84V182.84ZM444.859 167.74V182H446.859V167.74H444.859ZM445.859 181H411.589V183H445.859V181ZM412.589 182V11.34H410.589V182H412.589ZM411.589 12.34H447.469V10.34H411.589V12.34ZM446.469 11.34V71.37H448.469V11.34H446.469ZM448.21 72.0421C457.034 62.3208 469.164 57.42 484.729 57.42V55.42C468.707 55.42 455.998 60.4858 446.729 70.6979L448.21 72.0421ZM478.519 155.4C487.967 155.4 495.751 152.239 501.784 145.889L500.334 144.511C494.714 150.427 487.472 153.4 478.519 153.4V155.4ZM501.784 145.889C507.975 139.38 511.029 130.758 511.029 120.13H509.029C509.029 130.355 506.103 138.446 500.335 144.511L501.784 145.889ZM511.029 120.13C511.029 109.503 507.975 100.951 501.775 94.5919L500.343 95.9881C506.103 101.896 509.029 109.904 509.029 120.13H511.029ZM501.793 94.6102C495.762 88.1032 487.975 84.86 478.519 84.86V86.86C487.464 86.86 494.703 89.9035 500.326 95.9698L501.793 94.6102ZM478.519 84.86C469.064 84.86 461.206 88.1027 455.025 94.6008L456.474 95.9792C462.253 89.904 469.575 86.86 478.519 86.86V84.86ZM455.024 94.6012C448.982 100.961 446.009 109.51 446.009 120.13H448.009C448.009 109.897 450.863 101.885 456.474 95.9787L455.024 94.6012ZM446.009 120.13C446.009 130.751 448.982 139.37 455.016 145.88L456.483 144.52C450.863 138.457 448.009 130.362 448.009 120.13H446.009ZM455.033 145.898C461.216 152.24 469.072 155.4 478.519 155.4V153.4C469.567 153.4 462.242 150.427 456.465 144.502L455.033 145.898ZM653.925 179.7L653.639 180.658L653.646 180.66L653.653 180.662L653.925 179.7ZM625.405 166.13L624.493 165.719L624.167 166.442L624.797 166.924L625.405 166.13ZM638.055 138.07L638.646 137.264L637.651 136.533L637.143 137.659L638.055 138.07ZM662.665 150.26L662.972 149.308L662.665 150.26ZM714.645 150.26L715.163 151.115L715.172 151.11L715.182 151.104L714.645 150.26ZM717.635 128.18L716.968 128.925L716.989 128.944L717.01 128.961L717.635 128.18ZM706.135 121.97L705.819 122.919L705.828 122.922L706.135 121.97ZM687.275 116.91L687.044 117.883L687.05 117.884L687.275 116.91ZM657.145 108.17L657.494 107.233L657.145 108.17ZM636.905 94.14L636.146 94.7908L636.154 94.801L636.905 94.14ZM636.215 43.08L637.044 43.6386L637.049 43.6308L636.215 43.08ZM658.985 24.91L658.588 23.9923L658.583 23.9945L658.985 24.91ZM726.605 21.92L726.847 20.9498L726.605 21.92ZM752.365 32.5L753.291 32.8766L753.608 32.0976L752.895 31.652L752.365 32.5ZM740.865 60.79L740.372 61.6599L741.362 62.2216L741.791 61.1666L740.865 60.79ZM673.015 53.2L672.46 52.368L672.454 52.3719L672.448 52.376L673.015 53.2ZM674.165 78.96L673.727 79.8592L673.742 79.8663L673.756 79.8728L674.165 78.96ZM700.615 86.78L700.846 85.8071L700.838 85.8052L700.83 85.8035L700.615 86.78ZM730.745 95.52L731.094 94.5829L730.745 95.52ZM750.755 109.32L750.003 109.98L750.012 109.99L750.755 109.32ZM751.445 160.15L750.618 159.588L750.615 159.591L751.445 160.15ZM728.445 178.09L728.048 177.172L728.445 178.09ZM690.955 183.76C678.318 183.76 666.066 182.085 654.196 178.738L653.653 180.662C665.704 184.061 678.139 185.76 690.955 185.76V183.76ZM654.211 178.742C642.482 175.238 633.095 170.761 626.013 165.336L624.797 166.924C632.128 172.539 641.755 177.108 653.639 180.658L654.211 178.742ZM626.316 166.541L638.966 138.481L637.143 137.659L624.493 165.719L626.316 166.541ZM637.464 138.876C644.463 144.009 652.766 148.118 662.358 151.212L662.972 149.308C653.55 146.269 645.447 142.251 638.646 137.264L637.464 138.876ZM662.358 151.212C671.959 154.309 681.569 155.86 691.185 155.86V153.86C681.788 153.86 672.384 152.345 662.972 149.308L662.358 151.212ZM691.185 155.86C701.823 155.86 709.867 154.325 715.163 151.115L714.127 149.405C709.303 152.328 701.706 153.86 691.185 153.86V155.86ZM715.182 151.104C720.479 147.733 723.235 143.222 723.235 137.61H721.235C721.235 142.425 718.93 146.347 714.108 149.416L715.182 151.104ZM723.235 137.61C723.235 133.464 721.557 130.037 718.26 127.399L717.01 128.961C719.846 131.23 721.235 134.089 721.235 137.61H723.235ZM718.302 127.435C715.259 124.713 711.293 122.583 706.442 121.018L705.828 122.922C710.484 124.424 714.184 126.434 716.968 128.925L718.302 127.435ZM706.451 121.021C701.808 119.473 695.486 117.779 687.5 115.936L687.05 117.884C695.01 119.721 701.262 121.4 705.819 122.919L706.451 121.021ZM687.506 115.937C675.261 113.029 665.261 110.127 657.494 107.233L656.796 109.107C664.668 112.04 674.755 114.964 687.044 117.883L687.506 115.937ZM657.494 107.233C649.833 104.379 643.223 99.799 637.655 93.479L636.154 94.801C641.934 101.361 648.817 106.135 656.796 109.107L657.494 107.233ZM637.664 93.4892C632.337 87.2744 629.625 78.9398 629.625 68.38H627.625C627.625 79.2869 630.432 88.1255 636.146 94.7908L637.664 93.4892ZM629.625 68.38C629.625 59.2188 632.099 50.9812 637.044 43.6386L635.385 42.5214C630.21 50.2054 627.625 58.8345 627.625 68.38H629.625ZM637.049 43.6308C641.984 36.1549 649.407 30.2107 659.387 25.8255L658.583 23.9945C648.323 28.5026 640.566 34.6718 635.38 42.5292L637.049 43.6308ZM659.382 25.8277C669.497 21.4495 681.851 19.24 696.475 19.24V17.24C681.659 17.24 669.019 19.4771 658.588 23.9923L659.382 25.8277ZM696.475 19.24C706.668 19.24 716.63 20.4569 726.362 22.8901L726.847 20.9498C716.953 18.4764 706.829 17.24 696.475 17.24V19.24ZM726.362 22.8901C736.09 25.3222 744.577 28.8118 751.835 33.348L752.895 31.652C745.433 26.9882 736.746 23.4245 726.847 20.9498L726.362 22.8901ZM751.438 32.1234L739.938 60.4134L741.791 61.1666L753.291 32.8766L751.438 32.1234ZM741.358 59.9201C726.357 51.4144 711.315 47.14 696.245 47.14V49.14C710.921 49.14 725.626 53.2989 740.372 61.6599L741.358 59.9201ZM696.245 47.14C685.746 47.14 677.764 48.8318 672.46 52.368L673.57 54.0321C678.385 50.8215 685.89 49.14 696.245 49.14V47.14ZM672.448 52.376C667.295 55.9185 664.655 60.6613 664.655 66.54H666.655C666.655 61.3787 668.921 57.2281 673.581 54.024L672.448 52.376ZM664.655 66.54C664.655 69.4807 665.414 72.0972 666.957 74.3502C668.496 76.5956 670.774 78.4226 673.727 79.8592L674.602 78.0608C671.882 76.7374 669.905 75.1144 668.607 73.2198C667.314 71.3328 666.655 69.1193 666.655 66.54H664.655ZM673.756 79.8728C679.678 82.5218 688.574 85.1457 700.399 87.7565L700.83 85.8035C689.042 83.201 680.305 80.6116 674.573 78.0472L673.756 79.8728ZM700.384 87.7529C712.628 90.661 722.628 93.5634 730.396 96.4571L731.094 94.5829C723.221 91.6499 713.135 88.7256 700.846 85.8071L700.384 87.7529ZM730.396 96.4571C738.06 99.3125 744.592 103.817 750.003 109.98L751.506 108.66C745.877 102.25 739.069 97.5541 731.094 94.5829L730.396 96.4571ZM750.012 109.99C755.479 116.048 758.265 124.296 758.265 134.85H760.265C760.265 123.938 757.377 115.166 751.497 108.65L750.012 109.99ZM758.265 134.85C758.265 143.848 755.719 152.085 750.618 159.588L752.272 160.712C757.597 152.881 760.265 144.252 760.265 134.85H758.265ZM750.615 159.591C745.685 166.912 738.187 172.784 728.048 177.172L728.842 179.008C739.249 174.503 747.085 168.414 752.274 160.709L750.615 159.591ZM728.048 177.172C717.932 181.55 705.579 183.76 690.955 183.76V185.76C705.771 185.76 718.411 183.523 728.842 179.008L728.048 177.172ZM782.195 58.26V57.26H781.195V58.26H782.195ZM818.075 58.26H819.075V57.26H818.075V58.26ZM818.075 182V183H819.075V182H818.075ZM782.195 182H781.195V183H782.195V182ZM784.035 35.26L783.355 35.9938L784.035 35.26ZM784.035 6.73999L784.714 7.47375L784.035 6.73999ZM816.235 6.51L815.57 7.2574V7.25741L816.235 6.51ZM816.235 35.26L816.914 35.9938L816.921 35.9871L816.928 35.9803L816.235 35.26ZM782.195 59.26H818.075V57.26H782.195V59.26ZM817.075 58.26V182H819.075V58.26H817.075ZM818.075 181H782.195V183H818.075V181ZM783.195 182V58.26H781.195V182H783.195ZM800.135 40.01C793.748 40.01 788.639 38.1599 784.714 34.5262L783.355 35.9938C787.711 40.0267 793.335 42.01 800.135 42.01V40.01ZM784.714 34.5262C780.78 30.8833 778.825 26.3965 778.825 21H776.825C776.825 26.9501 779.01 31.97 783.355 35.9938L784.714 34.5262ZM778.825 21C778.825 15.6035 780.78 11.1166 784.714 7.47375L783.355 6.00623C779.01 10.03 776.825 15.0498 776.825 21H778.825ZM784.714 7.47375C788.639 3.84005 793.748 1.98999 800.135 1.98999V-0.0100136C793.335 -0.0100136 787.711 1.97326 783.355 6.00623L784.714 7.47375ZM800.135 1.98999C806.532 1.98999 811.647 3.77004 815.57 7.2574L816.899 5.76259C812.542 1.88994 806.924 -0.0100136 800.135 -0.0100136V1.98999ZM815.57 7.25741C819.498 10.7484 821.445 15.0768 821.445 20.31H823.445C823.445 14.5032 821.252 9.6316 816.899 5.76259L815.57 7.25741ZM821.445 20.31C821.445 26.0306 819.477 30.7499 815.541 34.5397L816.928 35.9803C821.273 31.7968 823.445 26.5494 823.445 20.31H821.445ZM815.555 34.5262C811.631 38.1599 806.521 40.01 800.135 40.01V42.01C806.935 42.01 812.559 40.0267 816.914 35.9938L815.555 34.5262ZM931.184 176.02L931.779 176.824L932.39 176.373L932.119 175.663L931.184 176.02ZM918.074 182L918.31 182.972L918.32 182.969L918.33 182.967L918.074 182ZM867.704 172.57L867.019 173.298L867.026 173.304L867.704 172.57ZM855.744 88.62H856.744V87.62H855.744V88.62ZM836.654 88.62H835.654V89.62H836.654V88.62ZM836.654 61.02V60.02H835.654V61.02H836.654ZM855.744 61.02V62.02H856.744V61.02H855.744ZM855.744 30.89V29.89H854.744V30.89H855.744ZM891.624 30.89H892.624V29.89H891.624V30.89ZM891.624 61.02H890.624V62.02H891.624V61.02ZM922.444 61.02H923.444V60.02H922.444V61.02ZM922.444 88.62V89.62H923.444V88.62H922.444ZM891.624 88.62V87.62H890.624V88.62H891.624ZM895.534 151.18L894.789 151.847L894.808 151.867L894.827 151.887L895.534 151.18ZM921.524 150.72L922.459 150.363L921.979 149.108L920.915 149.927L921.524 150.72ZM930.59 175.216C927.185 177.732 922.937 179.678 917.819 181.033L918.33 182.967C923.639 181.562 928.13 179.521 931.779 176.824L930.59 175.216ZM917.839 181.028C912.863 182.235 907.575 182.84 901.974 182.84V184.84C907.72 184.84 913.166 184.219 918.31 182.972L917.839 181.028ZM901.974 182.84C887.421 182.84 876.271 179.128 868.383 171.836L867.026 173.304C875.391 181.038 887.088 184.84 901.974 184.84V182.84ZM868.39 171.842C860.677 164.574 856.744 153.836 856.744 139.45H854.744C854.744 154.197 858.785 165.539 867.019 173.298L868.39 171.842ZM856.744 139.45V88.62H854.744V139.45H856.744ZM855.744 87.62H836.654V89.62H855.744V87.62ZM837.654 88.62V61.02H835.654V88.62H837.654ZM836.654 62.02H855.744V60.02H836.654V62.02ZM856.744 61.02V30.89H854.744V61.02H856.744ZM855.744 31.89H891.624V29.89H855.744V31.89ZM890.624 30.89V61.02H892.624V30.89H890.624ZM891.624 62.02H922.444V60.02H891.624V62.02ZM921.444 61.02V88.62H923.444V61.02H921.444ZM922.444 87.62H891.624V89.62H922.444V87.62ZM890.624 88.62V138.99H892.624V88.62H890.624ZM890.624 138.99C890.624 144.366 891.97 148.696 894.789 151.847L896.28 150.513C893.885 147.837 892.624 144.041 892.624 138.99H890.624ZM894.827 151.887C897.82 154.88 901.934 156.32 907.034 156.32V154.32C902.321 154.32 898.769 153 896.242 150.473L894.827 151.887ZM907.034 156.32C912.899 156.32 917.951 154.731 922.134 151.513L920.915 149.927C917.125 152.843 912.517 154.32 907.034 154.32V156.32ZM920.59 151.077L930.25 176.377L932.119 175.663L922.459 150.363L920.59 151.077ZM1068.03 130.25V131.25H1068.95L1069.02 130.327L1068.03 130.25ZM974.417 130.25V129.25H973.173L973.441 130.465L974.417 130.25ZM986.377 148.42L986.955 147.604L986.377 148.42ZM1026.86 152.33L1027.21 153.266L1027.22 153.263L1027.22 153.26L1026.86 152.33ZM1040.89 143.13L1041.62 142.452L1040.93 141.7L1040.19 142.41L1040.89 143.13ZM1059.98 163.83L1060.73 164.488L1061.32 163.812L1060.71 163.152L1059.98 163.83ZM971.887 175.79L971.43 176.679L971.44 176.684L971.887 175.79ZM947.047 153.02L946.191 153.536L947.047 153.02ZM946.817 87.47L945.957 86.9594L945.955 86.9636L946.817 87.47ZM970.507 64.7L970.981 65.5805L970.986 65.5779L970.507 64.7ZM1037.21 64.24L1037.68 63.3569L1037.21 64.24ZM1060.21 86.78L1059.34 87.2702L1059.34 87.2784L1059.34 87.2864L1060.21 86.78ZM984.077 90.46L983.437 89.6918L984.077 90.46ZM973.957 109.32L972.969 109.168L972.792 110.32H973.957V109.32ZM1034.91 109.32V110.32H1036.08L1035.9 109.165L1034.91 109.32ZM1024.79 90.69L1024.13 91.4478L1024.14 91.453L1024.15 91.4582L1024.79 90.69ZM1067.72 120.59C1067.72 120.999 1067.49 124.156 1067.03 130.173L1069.02 130.327C1069.48 124.384 1069.72 121.101 1069.72 120.59H1067.72ZM1068.03 129.25H974.417V131.25H1068.03V129.25ZM973.441 130.465C975.18 138.37 979.305 144.643 985.8 149.236L986.955 147.604C980.876 143.304 977.028 137.464 975.394 130.035L973.441 130.465ZM985.8 149.236C992.289 153.826 1000.32 156.09 1009.84 156.09V154.09C1000.65 154.09 993.039 151.907 986.955 147.604L985.8 149.236ZM1009.84 156.09C1016.37 156.09 1022.17 155.157 1027.21 153.266L1026.51 151.394C1021.73 153.183 1016.18 154.09 1009.84 154.09V156.09ZM1027.22 153.26C1032.42 151.215 1037.2 148.072 1041.58 143.85L1040.19 142.41C1035.98 146.468 1031.42 149.459 1026.49 151.4L1027.22 153.26ZM1040.15 143.808L1059.24 164.508L1060.71 163.152L1041.62 142.452L1040.15 143.808ZM1059.22 163.172C1047.81 176.24 1031.1 182.84 1008.92 182.84V184.84C1031.51 184.84 1048.84 178.1 1060.73 164.488L1059.22 163.172ZM1008.92 182.84C995.094 182.84 982.908 180.182 972.334 174.896L971.44 176.684C982.333 182.131 994.834 184.84 1008.92 184.84V182.84ZM972.345 174.901C961.764 169.459 953.628 161.993 947.904 152.504L946.191 153.536C952.12 163.367 960.544 171.081 971.43 176.679L972.345 174.901ZM947.904 152.504C942.179 143.013 939.307 132.231 939.307 120.13H937.307C937.307 132.562 940.262 143.707 946.191 153.536L947.904 152.504ZM939.307 120.13C939.307 108.18 942.104 97.4705 947.68 87.9764L945.955 86.9636C940.184 96.7895 937.307 107.854 937.307 120.13H939.307ZM947.677 87.9805C953.412 78.3219 961.176 70.8604 970.981 65.5805L970.033 63.8195C959.905 69.273 951.876 76.9915 945.957 86.9595L947.677 87.9805ZM970.986 65.5779C980.948 60.1442 992.051 57.42 1004.32 57.42V55.42C991.743 55.42 980.307 58.2158 970.028 63.8221L970.986 65.5779ZM1004.32 57.42C1016.28 57.42 1027.08 59.9933 1036.74 65.1231L1037.68 63.3569C1027.71 58.06 1016.58 55.42 1004.32 55.42V57.42ZM1036.74 65.1231C1046.38 70.2454 1053.91 77.6213 1059.34 87.2702L1061.08 86.2897C1055.47 76.312 1047.66 68.6612 1037.68 63.3569L1036.74 65.1231ZM1059.34 87.2864C1064.92 96.7711 1067.72 107.861 1067.72 120.59H1069.72C1069.72 107.559 1066.85 96.1089 1061.07 86.2736L1059.34 87.2864ZM1004.55 82.56C996.219 82.56 989.16 84.9224 983.437 89.6918L984.717 91.2282C990.034 86.7976 996.622 84.56 1004.55 84.56V82.56ZM983.437 89.6918C977.707 94.4672 974.228 100.985 972.969 109.168L974.946 109.472C976.14 101.708 979.408 95.6528 984.717 91.2282L983.437 89.6918ZM973.957 110.32H1034.91V108.32H973.957V110.32ZM1035.9 109.165C1034.64 101.131 1031.15 94.6934 1025.43 89.9218L1024.15 91.4582C1029.46 95.8866 1032.73 101.869 1033.92 109.475L1035.9 109.165ZM1025.44 89.9322C1019.72 85.0074 1012.74 82.56 1004.55 82.56V84.56C1012.31 84.56 1018.81 86.8659 1024.13 91.4478L1025.44 89.9322Z" fill="#777777" fill-opacity="0.3"/>
</svg>
