<svg width="607" height="901" viewBox="0 0 607 901" fill="none" xmlns="http://www.w3.org/2000/svg">
<path d="M605.998 124.5C543.165 84.6666 410.224 61.4999 395.998 172C381.772 282.5 453.083 329.134 351.498 435.5C266.498 524.5 118.498 513 100.998 621C77.7455 764.5 256.498 769 351.498 789C427.498 805 476.498 876 496.498 900" stroke="#616161"/>
<path d="M125.498 1C210.498 83 188.316 135.22 77.9984 232.5C-87.0017 378 396.11 422.058 322.498 503C201.998 635.5 250.498 698.503 345.498 718.503C421.498 734.503 586.563 694.503 606.563 718.503" stroke="#616161"/>
<path d="M605.864 65.0025C543.031 25.1691 272.224 11.5001 257.998 122C243.772 232.5 359.584 294.634 257.998 401C172.999 490 39.4986 452 7.49845 589C-29.4378 747.133 111.916 828 208.998 828C332.998 828 545.498 773.5 587.498 900" stroke="#616161"/>
</svg>
