<svg width="76" height="39" viewBox="0 0 76 39" fill="none" xmlns="http://www.w3.org/2000/svg">
<path d="M1.09766 38V11.5938H5.51562V38H1.09766ZM3.30664 7.15039C2.56185 7.15039 1.91862 6.87956 1.37695 6.33789C0.835286 5.79622 0.564453 5.15299 0.564453 4.4082C0.564453 3.64648 0.835286 3.00326 1.37695 2.47852C1.91862 1.93685 2.56185 1.66602 3.30664 1.66602C4.06836 1.66602 4.72005 1.93685 5.26172 2.47852C5.80339 3.00326 6.07422 3.64648 6.07422 4.4082C6.07422 5.15299 5.80339 5.79622 5.26172 6.33789C4.72005 6.87956 4.06836 7.15039 3.30664 7.15039ZM15.291 5.85547C18.321 2.45312 22.4342 0.751953 27.6309 0.751953C32.8275 0.751953 36.9408 2.45312 39.9707 5.85547C43.0007 9.25781 44.5156 13.8704 44.5156 19.6934C44.5156 25.5163 43.0007 30.1289 39.9707 33.5312C36.9408 36.9167 32.8275 38.6094 27.6309 38.6094C22.4342 38.6094 18.321 36.9167 15.291 33.5312C12.2611 30.1289 10.7461 25.5163 10.7461 19.6934C10.7461 13.8704 12.2611 9.25781 15.291 5.85547ZM36.5176 8.95312C34.334 6.29557 31.3717 4.9668 27.6309 4.9668C23.89 4.9668 20.9193 6.29557 18.7188 8.95312C16.5352 11.5938 15.4434 15.1738 15.4434 19.6934C15.4434 24.196 16.5352 27.776 18.7188 30.4336C20.9193 33.0742 23.89 34.3945 27.6309 34.3945C31.3717 34.3945 34.334 33.0742 36.5176 30.4336C38.7181 27.776 39.8184 24.196 39.8184 19.6934C39.8184 15.1738 38.7181 11.5938 36.5176 8.95312ZM48.4512 27.9199H53.0469C53.2669 29.9004 54.2318 31.4915 55.9414 32.6934C57.668 33.8952 59.8431 34.4961 62.4668 34.4961C64.9382 34.4961 66.9779 33.9121 68.5859 32.7441C70.2109 31.5592 71.0234 30.0697 71.0234 28.2754C71.0234 26.735 70.4564 25.4655 69.3223 24.4668C68.2051 23.4681 66.4108 22.6471 63.9395 22.0039L59.2422 20.7852C55.8568 19.9219 53.3854 18.7201 51.8281 17.1797C50.2708 15.6224 49.4922 13.5996 49.4922 11.1113C49.4922 8.06445 50.694 5.57617 53.0977 3.64648C55.5182 1.7168 58.6328 0.751953 62.4414 0.751953C66.0807 0.751953 69.0938 1.73372 71.4805 3.69727C73.8672 5.64388 75.1113 8.14909 75.2129 11.2129H70.6426C70.4395 9.24935 69.5931 7.70052 68.1035 6.56641C66.6139 5.43229 64.6758 4.86523 62.2891 4.86523C59.9193 4.86523 57.9811 5.42383 56.4746 6.54102C54.985 7.6582 54.2402 9.11393 54.2402 10.9082C54.2402 12.2962 54.7819 13.4388 55.8652 14.3359C56.9655 15.2161 58.7598 15.9779 61.248 16.6211L65.082 17.6367C68.8737 18.5846 71.599 19.8457 73.2578 21.4199C74.9167 22.9941 75.7461 25.0931 75.7461 27.7168C75.7461 31.0684 74.5104 33.7259 72.0391 35.6895C69.5846 37.6361 66.25 38.6094 62.0352 38.6094C58.1419 38.6094 54.9596 37.6361 52.4883 35.6895C50.0169 33.7428 48.6712 31.153 48.4512 27.9199Z" fill="url(#paint0_linear_101_2667)"/>
<defs>
<linearGradient id="paint0_linear_101_2667" x1="38" y1="-19" x2="38" y2="59" gradientUnits="userSpaceOnUse">
<stop stop-color="#363B8D"/>
<stop offset="1" stop-color="#AA3D80"/>
</linearGradient>
</defs>
</svg>
