<svg width="95" height="74" viewBox="0 0 95 74" fill="none" xmlns="http://www.w3.org/2000/svg">
<g clip-path="url(#clip0_101_2738)">
<path d="M0.349609 36.9808C0.349609 43.9796 7.27662 50.513 18.1971 54.1958C16.0163 65.0272 17.8065 73.7576 23.7851 77.1592C29.9302 80.6559 39.0852 78.2355 47.7747 70.7413C56.2449 77.9329 64.8052 80.763 70.7786 77.3515C76.9181 73.845 78.7851 64.5227 76.5442 53.353C87.9187 49.6428 94.2813 44.0718 94.2813 36.9808C94.2813 30.1444 87.3417 24.2303 76.5682 20.5711C78.9808 8.93991 76.9366 0.421466 70.7103 -3.12075C64.7077 -6.53585 56.0478 -3.5593 47.4531 3.82017C38.5115 -4.01241 29.9372 -6.40363 23.7175 -2.85158C17.7205 0.573353 16.0093 9.46259 18.1971 20.4943C7.64507 24.1239 0.349609 30.1721 0.349609 36.9808Z" fill="white"/>
<path d="M74.2871 24.2048C73.3992 23.9043 72.5037 23.6259 71.6016 23.37C71.7512 22.7702 71.8896 22.1678 72.0166 21.563C74.0493 11.8276 72.7203 3.98483 68.1815 1.4031C63.8299 -1.07299 56.7128 1.50873 49.5248 7.68003C48.8165 8.28952 48.1239 8.91658 47.4477 9.56059C46.9949 9.13236 46.5341 8.71244 46.0655 8.30105C38.5323 1.70178 30.9813 -1.07882 26.4474 1.51056C22.0999 3.99357 20.8122 11.3668 22.6422 20.593C22.8243 21.5067 23.0299 22.4156 23.2587 23.319C22.1903 23.6184 21.1585 23.9374 20.1713 24.2769C11.3396 27.3147 5.69922 32.076 5.69922 37.0143C5.69922 42.1151 11.7538 47.2312 20.9532 50.3331C21.6991 50.5834 22.4513 50.8154 23.2089 51.0288C22.9628 52.002 22.7443 52.9818 22.5536 53.9671C20.8088 63.033 22.1715 70.2314 26.5076 72.6991C30.9862 75.247 38.5027 72.6281 45.8222 66.3159C46.4007 65.8169 46.9814 65.2876 47.5629 64.7329C48.2953 65.4301 49.0473 66.1069 49.8179 66.7628C56.9077 72.7818 63.9097 75.2124 68.242 72.7381C72.7166 70.1826 74.1704 62.4495 72.2824 53.0408C72.1384 52.3222 71.9704 51.5882 71.7822 50.8408C72.3101 50.6871 72.8281 50.5283 73.3335 50.3629C82.8968 47.2371 89.1187 42.1832 89.1187 37.0143C89.1187 32.0581 83.2967 27.2648 74.2871 24.2048Z" fill="#53C1DE"/>
<path d="M72.2137 47.026C71.7578 47.1749 71.2896 47.3188 70.8126 47.4583C69.7568 44.1609 68.3317 40.6543 66.5884 37.032C68.2524 33.4952 69.622 30.0339 70.6484 26.7575C71.5015 27.0016 72.33 27.2584 73.1282 27.5297C80.8478 30.1511 85.5564 34.0277 85.5564 37.0145C85.5564 40.1961 80.4709 44.3266 72.2141 47.026H72.2137ZM68.7877 53.7239C69.6224 57.8843 69.7416 61.6458 69.1886 64.5863C68.6917 67.2284 67.6927 68.9899 66.4574 69.6954C63.8284 71.1968 58.2061 69.2452 52.1434 64.0978C51.4482 63.5077 50.7478 62.8776 50.0456 62.2111C52.3962 59.6745 54.7454 56.7256 57.038 53.4511C61.071 53.0982 64.881 52.5209 68.3362 51.733C68.506 52.4105 68.6573 53.0745 68.7877 53.7239ZM34.1397 69.4361C31.5713 70.331 29.5256 70.3565 28.2892 69.6532C25.6577 68.1562 24.5642 62.3757 26.056 54.6229C26.2334 53.7067 26.4366 52.7955 26.6652 51.8904C30.082 52.636 33.8643 53.1725 37.9069 53.4959C40.2146 56.7001 42.6317 59.6454 45.0676 62.2245C44.5499 62.7186 44.0199 63.2 43.4782 63.6684C40.2416 66.4599 36.9983 68.4399 34.1401 69.4361H34.1397ZM22.1069 47.0063C18.0392 45.6346 14.68 43.852 12.3774 41.9069C10.3085 40.1586 9.26367 38.423 9.26367 37.0145C9.26367 34.0179 13.7925 30.1952 21.3456 27.5971C22.2936 27.2724 23.2511 26.9752 24.2168 26.7058C25.2608 30.0557 26.6301 33.5582 28.2826 37.1001C26.6087 40.6948 25.2198 44.253 24.1662 47.6422C23.4746 47.4469 22.7879 47.2349 22.1069 47.0063ZM26.1406 19.9179C24.5726 12.0128 25.6137 6.04985 28.2339 4.55356C31.0249 2.95965 37.1958 5.2325 43.7001 10.9303C44.1158 11.2945 44.5333 11.6759 44.9516 12.0703C42.5283 14.6379 40.1334 17.5609 37.8456 20.7465C33.9223 21.1053 30.1665 21.6815 26.7139 22.4533C26.5012 21.6129 26.3101 20.7674 26.1406 19.9175V19.9179ZM62.1239 28.684C61.3084 27.2942 60.4626 25.9219 59.5872 24.5681C62.249 24.8996 64.799 25.3403 67.1935 25.8797C66.4747 28.1529 65.5787 30.53 64.5236 32.9667C63.7527 31.5235 62.9526 30.0957 62.1239 28.684ZM47.4499 14.5829C49.0935 16.3396 50.7397 18.3014 52.359 20.4296C49.0743 20.2765 45.7842 20.2758 42.4995 20.4274C44.1202 18.3189 45.7805 16.36 47.4499 14.5829ZM32.6818 28.708C31.8634 30.1085 31.0783 31.5276 30.3271 32.9642C29.2894 30.5358 28.4015 28.1482 27.6764 25.8426C30.0565 25.317 32.5947 24.8875 35.2391 24.5615C34.3539 25.9238 33.5012 27.3063 32.6818 28.708ZM35.3152 49.7184C32.5832 49.4175 30.0067 49.01 27.6273 48.4989C28.3638 46.1525 29.2713 43.7136 30.3312 41.2331C31.0856 42.6708 31.8741 44.0907 32.6962 45.4918C33.535 46.921 34.4083 48.3303 35.3152 49.7184ZM47.5485 59.6945C45.8595 57.8963 44.1749 55.9075 42.5294 53.7684C44.1265 53.8303 45.755 53.8616 47.41 53.8616C49.1105 53.8616 50.7914 53.8241 52.4457 53.7513C50.8213 55.9294 49.181 57.9211 47.5485 59.6945ZM64.5576 41.1067C65.6725 43.6141 66.6124 46.04 67.3589 48.3467C64.94 48.8912 62.3288 49.3298 59.5773 49.6554C60.459 48.2763 61.3128 46.88 62.1383 45.4674C62.9774 44.0317 63.784 42.5778 64.5576 41.1067ZM59.0512 43.711C57.7875 45.8768 56.4528 48.0014 55.0492 50.0815C52.5742 50.256 50.0165 50.346 47.41 50.346C44.8143 50.346 42.2891 50.2662 39.8573 50.1107C38.4172 48.0354 37.0573 45.9071 35.7804 43.7303C34.5094 41.5651 33.3222 39.3531 32.2214 37.099C33.3194 34.8442 34.503 32.631 35.7696 30.464V30.4648C37.0359 28.2973 38.3851 26.1781 39.8144 24.1117C42.2954 23.9267 44.839 23.8298 47.4104 23.8298C49.9932 23.8298 52.5402 23.9274 55.0204 24.1139C56.4353 26.1771 57.7759 28.2889 59.0397 30.4454C60.3107 32.6076 61.5101 34.81 62.6359 37.0491C61.5217 39.311 60.3261 41.5331 59.0515 43.711H59.0512ZM66.4027 4.44902C69.196 6.03856 70.2825 12.4481 68.5274 20.8536C68.4124 21.4012 68.2873 21.9466 68.1523 22.4898C64.6916 21.7019 60.9333 21.1155 56.9985 20.7512C54.7062 17.531 52.3313 14.6029 49.9471 12.0685C50.5718 11.4743 51.2115 10.8955 51.8654 10.3326C58.0241 5.04455 63.7801 2.95674 66.4027 4.44902Z" fill="white"/>
<path d="M47.408 29.665C51.5222 29.665 54.8571 32.9556 54.8571 37.0143C54.8571 41.0734 51.5222 44.3639 47.408 44.3639C43.2942 44.3639 39.959 41.0734 39.959 37.0143C39.959 32.9556 43.2942 29.665 47.408 29.665Z" fill="#53C1DE"/>
</g>
<defs>
<clipPath id="clip0_101_2738">
<rect width="95" height="74" fill="white"/>
</clipPath>
</defs>
</svg>
