<svg width="74" height="74" viewBox="0 0 74 74" fill="none" xmlns="http://www.w3.org/2000/svg">
<g clip-path="url(#clip0_101_2678)">
<path d="M16.4477 -0.000976562H57.4368C59.4313 -0.000976562 61.368 0.316992 63.2469 0.981836C65.9641 1.96465 68.4211 3.69902 70.2711 5.95371C72.15 8.2084 73.393 10.9834 73.8266 13.874C74 14.9436 74.029 16.0131 74.029 17.0826V57.06C74.029 58.3318 73.9711 59.6326 73.711 60.8756C73.1329 63.7373 71.7743 66.4256 69.8086 68.5936C67.8719 70.7615 65.3282 72.3803 62.5821 73.2475C60.9055 73.7678 59.1711 73.999 57.4079 73.999C56.6274 73.999 16.3321 73.999 15.725 73.9701C12.7766 73.8256 9.85708 72.8717 7.40004 71.224C5.00082 69.6053 3.0352 67.3506 1.76332 64.749C0.664887 62.5232 0.115668 60.0373 0.115668 57.5514V16.4467C0.0578552 13.9896 0.578168 11.5615 1.6477 9.36465C2.89067 6.76309 4.82739 4.47949 7.22661 2.86074C9.68364 1.18418 12.5743 0.201367 15.5227 0.0568359C15.8118 -0.000976562 16.1297 -0.000976562 16.4477 -0.000976562Z" fill="url(#paint0_linear_101_2678)"/>
<path d="M62.4375 60.5287C62.1773 60.124 61.8883 59.7193 61.5703 59.3436C60.8477 58.4764 60.0094 57.7248 59.0844 57.0889C57.9281 56.3084 56.5695 55.817 55.182 55.7592C54.1992 55.7014 53.2164 55.8748 52.2914 56.2217C51.3664 56.5396 50.4703 57.0021 49.6031 57.4646C48.5914 57.985 47.5797 58.5053 46.5102 58.9389C45.2383 59.4592 43.9086 59.8639 42.55 60.1529C40.8445 60.4709 39.1102 60.5865 37.4047 60.5576C34.3117 60.4998 31.2188 60.0373 28.2703 59.1701C25.6688 58.3896 23.1828 57.3201 20.8414 55.9615C18.7891 54.7764 16.8813 53.4178 15.0891 51.8857C13.6148 50.6139 12.2563 49.2553 10.9844 47.81C10.1172 46.7982 9.27891 45.7287 8.49844 44.6303C8.18047 44.1967 7.89141 43.7342 7.63125 43.2717L0 35.0334V16.3889C0 7.34121 7.31328 -0.000976562 16.3609 -0.000976562H30.9586L41.7695 10.9834C66.1664 27.5756 58.275 45.8732 58.275 45.8732C58.275 45.8732 65.2125 53.6779 62.4375 60.5287Z" fill="url(#paint1_linear_101_2678)"/>
<path d="M41.8269 10.9834C66.2238 27.5756 58.3324 45.8732 58.3324 45.8732C58.3324 45.8732 65.2699 53.7068 62.466 60.5576C62.466 60.5576 59.6043 55.7592 54.8058 55.7592C50.1808 55.7592 47.4636 60.5576 38.1558 60.5576C17.4301 60.5576 7.63086 43.2428 7.63086 43.2428C26.3043 55.5279 39.0519 46.8271 39.0519 46.8271C30.6402 41.942 12.7473 18.5857 12.7473 18.5857C28.3277 31.8537 35.0629 35.3514 35.0629 35.3514C31.0449 32.0271 19.7715 15.7818 19.7715 15.7818C28.7902 24.9162 46.7121 37.6639 46.7121 37.6639C51.7996 23.5576 41.8269 10.9834 41.8269 10.9834Z" fill="white"/>
</g>
<defs>
<linearGradient id="paint0_linear_101_2678" x1="44.0217" y1="-2.64156" x2="30.0406" y2="76.6486" gradientUnits="userSpaceOnUse">
<stop stop-color="#FAAE42"/>
<stop offset="1" stop-color="#EF3E31"/>
</linearGradient>
<linearGradient id="paint1_linear_101_2678" x1="37.755" y1="1.19459" x2="27.5225" y2="59.2259" gradientUnits="userSpaceOnUse">
<stop stop-color="#E39F3A"/>
<stop offset="1" stop-color="#D33929"/>
</linearGradient>
<clipPath id="clip0_101_2678">
<rect width="74" height="74" fill="white" transform="translate(0 -0.000976562)"/>
</clipPath>
</defs>
</svg>
