<svg width="47" height="47" viewBox="0 0 47 47" fill="none" xmlns="http://www.w3.org/2000/svg">
<path d="M18.5698 35.6132C28.1805 35.6132 35.9716 27.8221 35.9716 18.2114C35.9716 8.60063 28.1805 0.80957 18.5698 0.80957C8.95903 0.80957 1.16797 8.60063 1.16797 18.2114C1.16797 27.8221 8.95903 35.6132 18.5698 35.6132Z" fill="white"/>
<path d="M33.3002 30.0412L42.8745 39.6765C43.8155 40.6235 43.8106 42.1539 42.8637 43.0949C41.9167 44.0358 40.3863 44.031 39.4453 43.084L29.871 33.4487L33.3002 30.0412Z" fill="#5C63AB" stroke="#0D0B49" stroke-width="2"/>
<mask id="path-3-inside-1_101_3195" fill="white">
<path d="M26.547 2.86622C26.792 2.37288 27.3928 2.17025 27.8713 2.44308C31.6343 4.5888 34.5485 7.98885 36.0973 12.0706C37.7649 16.4652 37.7279 21.3291 35.9938 25.6976C34.2597 30.0662 30.9551 33.6204 26.7353 35.6554C22.5154 37.6905 17.6886 38.0577 13.2119 36.6844C8.73519 35.311 4.9356 32.2974 2.5666 28.241C0.197593 24.1847 -0.567819 19.3818 0.422146 14.785C1.41211 10.1882 4.08515 6.133 7.9112 3.42368C11.4657 0.906672 15.7741 -0.278003 20.0892 0.0549893C20.6369 0.0972531 21.0207 0.599211 20.9499 1.14394C20.879 1.68962 20.3787 2.07108 19.8298 2.03232C16.009 1.76247 12.2001 2.82248 9.05269 5.05125C5.63293 7.47287 3.24374 11.0974 2.3589 15.2061C1.47406 19.3148 2.15819 23.6076 4.27563 27.2333C6.39308 30.8589 9.78918 33.5525 13.7905 34.78C17.7918 36.0076 22.1061 35.6793 25.8778 33.8603C29.6496 32.0414 32.6033 28.8646 34.1533 24.9599C35.7032 21.0553 35.7362 16.7079 34.2457 12.7799C32.8731 9.16257 30.3008 6.14419 26.9786 4.22378C26.5043 3.94962 26.3034 3.35689 26.547 2.86622Z"/>
</mask>
<path d="M26.547 2.86622C26.792 2.37288 27.3928 2.17025 27.8713 2.44308C31.6343 4.5888 34.5485 7.98885 36.0973 12.0706C37.7649 16.4652 37.7279 21.3291 35.9938 25.6976C34.2597 30.0662 30.9551 33.6204 26.7353 35.6554C22.5154 37.6905 17.6886 38.0577 13.2119 36.6844C8.73519 35.311 4.9356 32.2974 2.5666 28.241C0.197593 24.1847 -0.567819 19.3818 0.422146 14.785C1.41211 10.1882 4.08515 6.133 7.9112 3.42368C11.4657 0.906672 15.7741 -0.278003 20.0892 0.0549893C20.6369 0.0972531 21.0207 0.599211 20.9499 1.14394C20.879 1.68962 20.3787 2.07108 19.8298 2.03232C16.009 1.76247 12.2001 2.82248 9.05269 5.05125C5.63293 7.47287 3.24374 11.0974 2.3589 15.2061C1.47406 19.3148 2.15819 23.6076 4.27563 27.2333C6.39308 30.8589 9.78918 33.5525 13.7905 34.78C17.7918 36.0076 22.1061 35.6793 25.8778 33.8603C29.6496 32.0414 32.6033 28.8646 34.1533 24.9599C35.7032 21.0553 35.7362 16.7079 34.2457 12.7799C32.8731 9.16257 30.3008 6.14419 26.9786 4.22378C26.5043 3.94962 26.3034 3.35689 26.547 2.86622Z" stroke="#0D0B49" stroke-width="4" stroke-linecap="round" mask="url(#path-3-inside-1_101_3195)"/>
<path d="M2.11719 16.5474H10.0762L17.7653 24.1017L27.2981 15.0186L37.955 4.04688H45.869" stroke="#0D0B49" stroke-width="2" stroke-linecap="round"/>
<circle cx="27.2492" cy="14.839" r="2.14762" fill="#FF9B21" stroke="#0D0B49" stroke-width="2"/>
<circle cx="38.132" cy="3.95719" r="2.14762" fill="#FF9B21" stroke="#0D0B49" stroke-width="2"/>
</svg>
