<svg width="380" height="201" viewBox="0 0 380 201" fill="none" xmlns="http://www.w3.org/2000/svg">
<path d="M361.398 199.683C362.458 200.568 364.034 200.426 364.919 199.366L379.338 182.093C380.223 181.033 380.081 179.456 379.021 178.572C377.961 177.687 376.384 177.829 375.499 178.889L362.683 194.242L347.329 181.426C346.269 180.541 344.693 180.683 343.808 181.743C342.923 182.803 343.065 184.379 344.125 185.264L361.398 199.683ZM365.49 197.539C365.39 196.428 365.283 195.32 365.17 194.216L360.196 194.726C360.307 195.809 360.412 196.897 360.51 197.988L365.49 197.539ZM364.414 187.641C364.136 185.466 363.833 183.306 363.504 181.162L358.562 181.92C358.884 184.022 359.181 186.14 359.454 188.275L364.414 187.641ZM362.418 174.631C362.026 172.454 361.609 170.294 361.165 168.152L356.269 169.165C356.703 171.264 357.113 173.381 357.496 175.516L362.418 174.631ZM359.755 161.764C359.246 159.595 358.71 157.445 358.148 155.314L353.314 156.59C353.864 158.676 354.389 160.782 354.887 162.907L359.755 161.764ZM356.383 148.978C355.761 146.859 355.113 144.759 354.438 142.679L349.682 144.221C350.342 146.257 350.977 148.312 351.586 150.387L356.383 148.978ZM352.307 136.414C351.571 134.346 350.808 132.299 350.02 130.273L345.36 132.085C346.131 134.067 346.877 136.069 347.597 138.092L352.307 136.414ZM347.522 124.119C346.661 122.087 345.775 120.078 344.863 118.091L340.319 120.176C341.21 122.118 342.076 124.082 342.917 126.068L347.522 124.119ZM342.021 112.135C341.037 110.151 340.027 108.19 338.991 106.253L334.582 108.61C335.593 110.502 336.58 112.418 337.541 114.356L342.021 112.135ZM335.805 100.507C334.698 98.581 333.565 96.6804 332.408 94.805L328.153 97.4313C329.283 99.2622 330.389 101.118 331.47 102.998L335.805 100.507ZM328.86 89.2547C327.639 87.4083 326.393 85.5881 325.122 83.7942L321.042 86.6842C322.282 88.4347 323.498 90.2112 324.69 92.0134L328.86 89.2547ZM321.218 78.4652C319.885 76.7062 318.529 74.9743 317.149 73.27L313.263 76.4162C314.609 78.0788 315.932 79.7683 317.232 81.4845L321.218 78.4652ZM312.9 68.1935C311.459 66.528 309.995 64.8908 308.509 63.2822L304.837 66.675C306.286 68.2437 307.713 69.8403 309.119 71.4647L312.9 68.1935ZM303.931 58.4877C302.383 56.9191 300.813 55.38 299.221 53.8707L295.781 57.4986C297.332 58.97 298.863 60.4706 300.373 62.0001L303.931 58.4877ZM294.342 49.3951C292.691 47.9308 291.019 46.4973 289.328 45.0949L286.136 48.9442C287.785 50.3111 289.415 51.7084 291.024 53.1357L294.342 49.3951ZM284.167 40.961C282.421 39.6095 280.655 38.2899 278.87 37.0026L275.945 41.0577C277.684 42.3122 279.405 43.5981 281.107 44.9153L284.167 40.961ZM273.447 33.2286C271.613 31.9975 269.761 30.7994 267.891 29.6346L265.247 33.8783C267.069 35.0132 268.874 36.1806 270.661 37.3801L273.447 33.2286ZM262.228 26.2378C260.314 25.134 258.384 24.0642 256.438 23.0286L254.089 27.4423C255.985 28.4512 257.865 29.4935 259.729 30.5688L262.228 26.2378ZM250.555 20.0248C248.572 19.0546 246.573 18.1192 244.561 17.219L242.519 21.783C244.479 22.66 246.426 23.5711 248.358 24.5162L250.555 20.0248ZM238.482 14.6232C236.439 13.792 234.382 12.9962 232.313 12.2364L230.589 16.9298C232.604 17.6699 234.607 18.4449 236.598 19.2546L238.482 14.6232ZM226.067 10.0636C223.973 9.37523 221.867 8.72308 219.751 8.10745L218.354 12.9085C220.416 13.508 222.466 14.1432 224.506 14.8136L226.067 10.0636ZM213.369 6.3701C211.233 5.82799 209.087 5.32268 206.932 4.85448L205.871 9.74048C207.969 10.1964 210.059 10.6885 212.139 11.2165L213.369 6.3701ZM200.447 3.56242C198.278 3.16925 196.101 2.8134 193.918 2.49518L193.197 7.44292C195.323 7.75281 197.443 8.09933 199.555 8.48222L200.447 3.56242ZM187.362 1.65543C185.17 1.41318 182.972 1.20869 180.769 1.04227L180.392 6.02808C182.538 6.19014 184.678 6.38927 186.812 6.62515L187.362 1.65543ZM174.176 0.658768C171.973 0.568832 169.766 0.516907 167.556 0.503296L167.525 5.5032C169.678 5.51646 171.827 5.56703 173.972 5.6546L174.176 0.658768ZM160.952 0.576614C158.75 0.639053 156.546 0.739578 154.34 0.878479L154.654 5.86859C156.803 5.73331 158.949 5.63541 161.093 5.5746L160.952 0.576614ZM147.753 1.4072C145.564 1.62085 143.374 1.87247 141.183 2.16237L141.839 7.11914C143.973 6.83675 146.106 6.59164 148.238 6.38356L147.753 1.4072ZM134.64 3.14278C132.474 3.50514 130.31 3.90521 128.147 4.34326L129.139 9.24379C131.247 8.81699 133.356 8.42722 135.465 8.0742L134.64 3.14278ZM121.672 5.76952C119.542 6.27679 117.414 6.82129 115.289 7.40327L116.61 12.2257C118.681 11.6585 120.754 11.1278 122.83 10.6335L121.672 5.76952ZM108.924 9.2619C106.833 9.91066 104.746 10.5962 102.664 11.3187L104.302 16.0425C106.333 15.338 108.368 14.6697 110.406 14.0373L108.924 9.2619ZM96.449 13.5903C94.4008 14.3773 92.3577 15.2008 90.3203 16.0608L92.2649 20.6672C94.2523 19.8282 96.2451 19.0251 98.2425 18.2575L96.449 13.5903ZM84.2853 18.7239C82.2844 19.6455 80.2899 20.6031 78.3023 21.5969L80.5384 26.069C82.4783 25.0991 84.4247 24.1646 86.3771 23.2653L84.2853 18.7239ZM72.4735 24.6265C70.5378 25.6713 68.6096 26.7512 66.6894 27.8663L69.2003 32.1901C71.0757 31.101 72.9586 30.0465 74.8485 29.0264L72.4735 24.6265ZM61.047 31.2594C59.1888 32.4157 57.3388 33.6058 55.4978 34.8299L58.2662 38.9936C60.0655 37.7972 61.8732 36.6343 63.6887 35.5045L61.047 31.2594ZM50.0314 38.5835C48.2571 39.841 46.4918 41.1308 44.7361 42.4532L47.7443 46.4471C49.4615 45.1536 51.1878 43.8923 52.9225 42.6628L50.0314 38.5835ZM39.4982 46.5182C37.7952 47.8795 36.1019 49.2722 34.4188 50.6966L37.6489 54.5132C39.2964 53.1189 40.9537 51.7558 42.6201 50.4238L39.4982 46.5182ZM29.4528 55.0185C27.809 56.4891 26.1758 57.9908 24.5536 59.5238L27.9878 63.1579C29.5771 61.656 31.1769 60.185 32.7867 58.7448L29.4528 55.0185ZM19.8695 64.0684C18.3188 65.6127 16.7789 67.1864 15.2502 68.7899L18.8692 72.24C20.3681 70.6677 21.8777 69.1249 23.3977 67.6112L19.8695 64.0684ZM10.7463 73.6365C9.29178 75.242 7.84821 76.8753 6.41595 78.5365L10.2028 81.8015C11.6084 80.1711 13.0249 78.5685 14.4518 76.9935L10.7463 73.6365ZM2.15363 83.604C1.44894 84.4627 0.747192 85.3284 0.0484314 86.2012L3.95157 89.3262C4.63779 88.4691 5.32687 87.619 6.01877 86.7759L2.15363 83.604Z" fill="#EFEFF0"/>
</svg>
