<svg width="369" height="199" viewBox="0 0 369 199" fill="none" xmlns="http://www.w3.org/2000/svg">
<path d="M366.485 110.725C366.333 109.353 365.097 108.363 363.725 108.515L341.362 110.991C339.989 111.143 339 112.379 339.152 113.751C339.304 115.123 340.539 116.113 341.912 115.961L361.79 113.76L363.991 133.638C364.143 135.011 365.379 136 366.751 135.848C368.123 135.696 369.113 134.461 368.961 133.088L366.485 110.725ZM0.510078 1.22425C0.610197 2.33591 0.716856 3.44363 0.830001 4.54739L5.80394 4.03752C5.69289 2.95425 5.5882 1.86699 5.48992 0.77575L0.510078 1.22425ZM1.58628 11.1223C1.86404 13.298 2.16732 15.4577 2.49568 17.6012L7.43803 16.8441C7.116 14.742 6.81852 12.6236 6.54603 10.4891L1.58628 11.1223ZM3.58246 24.1327C3.9738 26.3099 4.39138 28.4698 4.83473 30.6122L9.73098 29.5989C9.29652 27.4995 8.88723 25.3826 8.50361 23.2481L3.58246 24.1327ZM6.24479 36.9997C6.75385 39.1684 7.28971 41.3184 7.85187 43.4494L12.6865 42.174C12.136 40.0873 11.6112 37.9816 11.1125 35.8571L6.24479 36.9997ZM9.61673 49.7852C10.2388 51.9048 10.8874 54.0047 11.5618 56.0847L16.318 54.5425C15.6581 52.5071 15.0233 50.4519 14.4144 48.3771L9.61673 49.7852ZM13.6926 62.3499C14.4292 64.4177 15.1918 66.4648 15.9799 68.4911L20.6398 66.6786C19.8691 64.6971 19.1232 62.6949 18.4028 60.6722L13.6926 62.3499ZM18.4784 74.6447C19.3386 76.6764 20.2249 78.6859 21.1369 80.6731L25.6812 78.5877C24.79 76.6456 23.9236 74.6814 23.0827 72.6953L18.4784 74.6447ZM23.9791 86.6288C24.9632 88.6131 25.9733 90.5738 27.0088 92.5107L31.4182 90.1533C30.4067 88.2614 29.42 86.346 28.4586 84.4074L23.9791 86.6288ZM30.1951 98.257C31.302 100.183 32.4346 102.083 33.5922 103.959L37.8469 101.332C36.7167 99.5015 35.6109 97.6457 34.5301 95.7653L30.1951 98.257ZM37.1396 109.509C38.3611 111.355 39.6074 113.176 40.8781 114.97L44.9582 112.079C43.7183 110.329 42.5019 108.552 41.3097 106.75L37.1396 109.509ZM44.7821 120.298C46.1147 122.058 47.4714 123.789 48.8513 125.494L52.7373 122.347C51.3912 120.685 50.0678 118.995 48.7676 117.279L44.7821 120.298ZM53.1 130.57C54.5408 132.236 56.0046 133.873 57.4906 135.481L61.1633 132.089C59.7141 130.52 58.2866 128.923 56.8814 127.299L53.1 130.57ZM62.0687 140.276C63.6169 141.845 65.1872 143.384 66.7786 144.893L70.2193 141.265C68.6678 139.794 67.1369 138.293 65.6273 136.764L62.0687 140.276ZM71.6581 149.369C73.309 150.833 74.9807 152.266 76.6725 153.669L79.8635 149.819C78.2146 148.453 76.5852 147.055 74.9759 145.628L71.6581 149.369ZM81.8329 157.803C83.5793 159.154 85.3453 160.474 87.13 161.761L90.0551 157.706C88.316 156.451 86.595 155.166 84.8929 153.848L81.8329 157.803ZM92.5526 165.535C94.3867 166.766 96.239 167.964 98.1086 169.129L100.753 164.885C98.9311 163.75 97.1263 162.583 95.3391 161.384L92.5526 165.535ZM103.772 172.526C105.686 173.63 107.616 174.699 109.562 175.735L111.911 171.321C110.015 170.312 108.135 169.27 106.271 168.195L103.772 172.526ZM115.445 178.739C117.428 179.709 119.427 180.644 121.439 181.545L123.481 176.981C121.521 176.104 119.574 175.193 117.642 174.247L115.445 178.739ZM127.518 184.14C129.561 184.972 131.618 185.767 133.687 186.527L135.411 181.834C133.396 181.094 131.393 180.319 129.402 179.509L127.518 184.14ZM139.933 188.7C142.027 189.388 144.133 190.041 146.249 190.656L147.646 185.855C145.584 185.256 143.534 184.62 141.494 183.95L139.933 188.7ZM152.631 192.394C154.767 192.936 156.913 193.441 159.068 193.909L160.129 189.023C158.031 188.567 155.941 188.075 153.861 187.547L152.631 192.394ZM165.553 195.201C167.722 195.594 169.899 195.95 172.082 196.268L172.803 191.321C170.677 191.011 168.557 190.664 166.445 190.281L165.553 195.201ZM178.638 197.108C180.83 197.35 183.028 197.555 185.231 197.721L185.608 192.736C183.462 192.574 181.322 192.374 179.188 192.139L178.638 197.108ZM191.824 198.105C194.027 198.195 196.234 198.247 198.444 198.26L198.475 193.26C196.322 193.247 194.173 193.197 192.028 193.109L191.824 198.105ZM205.048 198.187C207.25 198.125 209.454 198.024 211.66 197.885L211.346 192.895C209.197 193.03 207.051 193.128 204.907 193.189L205.048 198.187ZM218.247 197.356C220.436 197.143 222.626 196.891 224.817 196.601L224.161 191.645C222.027 191.927 219.894 192.172 217.762 192.38L218.247 197.356ZM231.36 195.621C233.526 195.259 235.69 194.858 237.853 194.42L236.861 189.52C234.753 189.947 232.644 190.336 230.535 190.689L231.36 195.621ZM244.328 192.994C246.458 192.487 248.586 191.942 250.711 191.36L249.39 186.538C247.319 187.105 245.246 187.636 243.17 188.13L244.328 192.994ZM257.076 189.502C259.167 188.853 261.254 188.167 263.336 187.445L261.698 182.721C259.667 183.426 257.632 184.094 255.594 184.726L257.076 189.502ZM269.551 185.173C271.599 184.386 273.642 183.563 275.68 182.703L273.735 178.096C271.748 178.935 269.755 179.739 267.757 180.506L269.551 185.173ZM281.715 180.04C283.716 179.118 285.71 178.161 287.698 177.167L285.462 172.695C283.522 173.665 281.575 174.599 279.623 175.498L281.715 180.04ZM293.526 174.137C295.462 173.092 297.39 172.013 299.311 170.897L296.8 166.574C294.924 167.663 293.041 168.717 291.152 169.737L293.526 174.137ZM304.953 167.504C306.811 166.348 308.661 165.158 310.502 163.934L307.734 159.77C305.934 160.966 304.127 162.129 302.311 163.259L304.953 167.504ZM315.969 160.18C317.743 158.923 319.508 157.633 321.264 156.31L318.256 152.317C316.538 153.61 314.812 154.871 313.077 156.101L315.969 160.18ZM326.502 152.245C328.205 150.884 329.898 149.491 331.581 148.067L328.351 144.25C326.704 145.645 325.046 147.008 323.38 148.34L326.502 152.245ZM336.547 143.745C338.191 142.275 339.824 140.773 341.446 139.24L338.012 135.606C336.423 137.108 334.823 138.579 333.213 140.019L336.547 143.745ZM346.131 134.695C347.681 133.151 349.221 131.577 350.75 129.974L347.131 126.524C345.632 128.096 344.122 129.639 342.602 131.152L346.131 134.695ZM355.254 125.127C356.708 123.522 358.152 121.888 359.584 120.227L355.797 116.962C354.392 118.593 352.975 120.195 351.548 121.77L355.254 125.127ZM363.846 115.16C364.551 114.301 365.253 113.435 365.952 112.562L362.048 109.438C361.362 110.295 360.673 111.145 359.981 111.988L363.846 115.16Z" fill="#EFEFF0"/>
</svg>
