<svg width="28" height="28" viewBox="0 0 28 28" fill="none" xmlns="http://www.w3.org/2000/svg">
<path d="M25.9583 1.1665H23.0417C21.9158 1.1665 21 2.08234 21 3.20817V16.6248C21 17.7507 21.9158 18.6665 23.0417 18.6665H25.9583C27.0842 18.6665 28 17.7507 28 16.6248V3.20817C28 2.08234 27.0842 1.1665 25.9583 1.1665Z" fill="#DC313B"/>
<path d="M5.9728 0.875C3.6978 0.875 1.76113 2.50833 1.37613 4.74833L0.0694633 12.3317C-0.420537 15.19 1.7728 17.7917 4.66613 17.7917H10.1728C10.1728 17.7917 9.2978 19.5417 9.2978 22.4583C9.2978 25.9583 11.9228 27.125 13.0895 27.125C14.2561 27.125 14.8395 26.5417 14.8395 23.625C14.8395 20.853 17.524 18.6223 19.2506 17.4732V3.0205C17.3828 2.156 13.6436 0.875 7.83946 0.875H5.9728Z" fill="#DC313B"/>
</svg>
