<svg width="28" height="28" viewBox="0 0 28 28" fill="none" xmlns="http://www.w3.org/2000/svg">
<path d="M25.9583 26.8337H23.0417C21.9158 26.8337 21 25.9179 21 24.7921L21 11.3754C21 10.2496 21.9158 9.33374 23.0417 9.33374H25.9583C27.0842 9.33374 28 10.2496 28 11.3754V24.7921C28 25.9179 27.0842 26.8337 25.9583 26.8337Z" fill="#43D137"/>
<path d="M5.9728 27.125C3.6978 27.125 1.76113 25.4917 1.37613 23.2517L0.0694633 15.6683C-0.420537 12.81 1.7728 10.2083 4.66613 10.2083H10.1728C10.1728 10.2083 9.2978 8.45833 9.2978 5.54167C9.2978 2.04167 11.9228 0.875 13.0895 0.875C14.2561 0.875 14.8395 1.45833 14.8395 4.375C14.8395 7.147 17.524 9.37767 19.2506 10.5268L19.2506 24.9795C17.3828 25.844 13.6436 27.125 7.83946 27.125H5.9728Z" fill="#43D137"/>
</svg>
