<svg width="51" height="46" viewBox="0 0 51 46" fill="none" xmlns="http://www.w3.org/2000/svg">
<path d="M18.7794 14.9712L8.32035 25.894C3.96014 26.0607 4.11896 23.4333 5.55522 20.8124L9.98431 15.9873L18.7794 14.9712Z" fill="#5C63AB"/>
<path d="M35.6806 31.1994C34.9383 26.6838 31.9141 24.3664 27.9399 27.3135C26.7805 28.1732 25.3419 28.6669 23.9399 28.3234L14.3211 25.9665C14.0096 25.8901 13.69 25.8516 13.3692 25.8516H5.74609C3.53695 25.8516 1.74609 27.6424 1.74609 29.8516V40.4902C1.74609 42.6994 3.53696 44.4902 5.7461 44.4902H46.1416C48.2874 44.4902 50.2093 42.7571 49.7167 40.6686C49.0354 37.7804 47.1651 37.0617 44.4621 37.4123C44.6503 31.5139 40.4791 28.4861 35.6806 31.1994Z" fill="white"/>
<path d="M34.454 31.1994C33.7444 26.721 30.8716 24.4048 27.0878 27.2416C25.9026 28.1301 24.4269 28.6517 22.9911 28.2876L13.8682 25.9743C13.5469 25.8928 13.2166 25.8516 12.8851 25.8516H5.74609C3.53695 25.8516 1.74609 27.6424 1.74609 29.8516V40.4902C1.74609 42.6994 3.53695 44.4902 5.74609 44.4902H35.771M34.454 31.1994C33.6131 32.0294 33.2008 32.6649 32.61 34.2272M34.454 31.1994C39.0791 28.4861 43.0996 31.5139 42.9182 37.4123M42.9182 37.4123C41.7826 38.313 41.2106 38.9398 40.3789 40.4007M42.9182 37.4123C45.5214 37.062 47.3233 37.7792 47.9812 40.6615C48.4592 42.7558 46.5405 44.4902 44.3924 44.4902H38.6666" stroke="#0D0B49" stroke-width="1.2" stroke-linecap="round"/>
<path d="M34.7987 12.2768L30.158 7.48082C28.908 6.18902 29.0717 4.08511 30.6764 3.27509C33.5176 1.84096 36.6596 1.0711 39.0616 1.0238C40.3586 0.998267 41.2998 2.10663 41.2505 3.4029C41.1431 6.22903 40.4573 9.00207 39.2575 11.667C38.4606 13.4368 36.1484 13.6716 34.7987 12.2768Z" fill="#5C63AB"/>
<path d="M26.7594 33.9028L22.2637 38.4757C20.3851 40.3864 17.1346 39.0634 17.1244 36.3839L17.117 34.4362C17.1146 33.8026 17.3128 33.1845 17.6834 32.6705L22.7653 25.6207C24.5873 23.0932 28.5777 24.6747 28.1736 27.7641L27.5948 32.1887C27.5102 32.8357 27.2169 33.4375 26.7594 33.9028Z" fill="#5C63AB"/>
<path d="M19.9643 30.9995L12.3285 23.2691C11.9494 22.8853 11.9431 22.2699 12.3143 21.8784L27.7957 5.54958C28.0492 5.28227 28.4146 5.18609 28.7485 5.26356C28.9216 5.30374 29.0863 5.39063 29.2226 5.52459L37.0938 13.2648C37.2299 13.3985 37.3196 13.5617 37.3628 13.7344C37.4432 14.0561 37.3618 14.4106 37.1164 14.6679L29.3479 22.815L21.3926 30.9939C21.002 31.3955 20.3579 31.3979 19.9643 30.9995Z" fill="#FF9B21"/>
<path d="M10.1327 35.9747C10.6897 36.5501 10.6837 37.2772 10.0338 37.7453C9.96705 37.7934 9.90965 37.8391 9.86715 37.8818C8.65481 39.1462 5.07214 38.6915 5.07214 38.6915C5.07214 38.6915 4.07841 35.7413 5.94398 33.2493C6.1914 32.9844 6.42324 32.6218 6.74591 32.4761L10.1327 35.9747Z" fill="#783C85"/>
<path d="M17.0065 35.1589L11.1228 36.9992L10.9434 36.8075L6.84566 32.4755L6.70996 32.3304L6.78747 31.9988L8.28852 26.2261L14.7821 32.8586L17.0065 35.1589Z" fill="#5C63AB"/>
<path d="M14.7538 32.8898C14.8562 32.9967 14.8058 33.1743 14.6625 33.2114L9.3195 34.6037C9.20477 34.6336 9.08277 34.6008 8.99859 34.5173L8.29641 33.7834C7.35584 32.8003 6.97945 31.4066 7.29728 30.0837L8.16099 26.4886C8.16969 26.4524 8.18764 26.4191 8.21308 26.3919C8.29738 26.3018 8.44004 26.301 8.52541 26.3901L14.7538 32.8898Z" fill="#5C63AB"/>
<path d="M12.021 22.3154L8.39746 26.1109L17.0795 35.0821L20.6313 31.555L12.021 22.3154Z" fill="#5C63AB"/>
<path d="M28.5935 23.6714L27.1485 32.9362C27.0152 33.7909 26.6085 34.5793 25.9892 35.1833L23.3073 37.7992C20.9833 40.0659 17.0772 38.4193 17.0772 35.1729V35.1729M28.5935 23.6714L37.742 13.8951M28.5935 23.6714L20.6856 31.5691M37.742 13.8951C39.9053 10.6258 40.8314 8.2047 41.1366 4.80776C41.3256 2.70338 39.6054 0.891339 37.5012 1.08234C34.4049 1.36341 31.9088 2.40394 28.5935 4.80888M37.742 13.8951L36.6066 12.6848M28.5935 4.80888L19.6603 14.4318M28.5935 4.80888L34.2295 10.6527M19.6603 14.4318L11.1089 15.5494C10.1894 15.6696 9.34019 16.1055 8.70658 16.7826L5.68709 20.0093C3.52852 22.316 5.16416 26.0867 8.32332 26.0867V26.0867M19.6603 14.4318L12.0186 22.2878M8.32332 26.0867L17.0772 35.1729M8.32332 26.0867L12.0186 22.2878M8.32332 26.0867L6.67301 32.4126M17.0772 35.1729L20.6856 31.5691M17.0772 35.1729L11.0858 37.0132M12.0186 22.2878L20.6856 31.5691M11.0858 37.0132L6.67301 32.4126M11.0858 37.0132C10.339 37.5833 9.65968 38.0411 8.96272 38.4246C6.54635 39.7542 3.84753 37.2274 5.12916 34.7853C5.5321 34.0175 6.03409 33.2623 6.67301 32.4126" stroke="#0D0B49" stroke-width="1.2" stroke-linecap="round"/>
<path d="M28.9299 16.1053C28.9299 17.8024 27.6518 19.1091 26.1575 19.1091C24.6633 19.1091 23.3852 17.8024 23.3852 16.1053C23.3852 14.4082 24.6633 13.1015 26.1575 13.1015C27.6518 13.1015 28.9299 14.4082 28.9299 16.1053Z" fill="white" stroke="#0D0B49" stroke-width="1.2"/>
</svg>
