<svg width="48" height="49" viewBox="0 0 48 49" fill="none" xmlns="http://www.w3.org/2000/svg">
<path fill-rule="evenodd" clip-rule="evenodd" d="M26.4239 1C25.7675 1 25.2028 1.46442 25.076 2.10851L24.6696 4.08387C24.4029 5.3801 23.4598 6.42314 22.3161 7.08893C21.1901 7.74437 19.8603 8.00621 18.6248 7.59283L16.5248 6.89022L16.5102 6.8857C15.8775 6.68946 15.1932 6.95653 14.8607 7.52946L12.0526 12.2274L12.0392 12.2504C11.7169 12.8059 11.8331 13.5118 12.3164 13.9347L13.8315 15.2244C14.8499 16.0913 15.2108 17.4194 15.2108 18.7568C15.2108 20.0943 14.8498 21.4225 13.8314 22.2895L12.3164 23.5791C11.8331 24.002 11.717 24.7079 12.0393 25.2633L12.0526 25.2863L14.8607 29.9843C15.193 30.5583 15.8786 30.8255 16.5116 30.6277L16.5248 30.6235L18.6248 29.9209C19.8603 29.5076 21.1901 29.7694 22.3161 30.4248C23.4598 31.0905 24.4029 32.1335 24.6696 33.4297L25.076 35.4051C25.2028 36.0493 25.7676 36.5138 26.4241 36.5138H32.0554C32.7126 36.5138 33.2782 36.0496 33.4065 35.4051L33.8115 33.4307C34.0775 32.134 35.0206 31.0904 36.1646 30.4244C37.2901 29.7692 38.6195 29.5075 39.8545 29.9207L41.9552 30.6235L41.9672 30.6273C42.6012 30.8254 43.2879 30.5585 43.6218 29.9843L46.4274 25.2863L46.4404 25.2639C46.7641 24.7086 46.648 24.0016 46.1636 23.5791L44.6487 22.2895C43.6307 21.423 43.2692 20.0937 43.2692 18.7568C43.2692 17.42 43.6307 16.0908 44.6486 15.2243L46.1636 13.9347C46.648 13.5121 46.7642 12.8052 46.4405 12.2498L46.4274 12.2274L43.6218 7.52946C43.2877 6.95628 42.6022 6.68953 41.9686 6.88608L41.9552 6.89022L39.8545 7.59307C38.6195 8.0063 37.2901 7.74457 36.1646 7.0893C35.0206 6.42328 34.0775 5.37961 33.8115 4.08289L33.4065 2.10851C33.2782 1.46409 32.7126 1 32.0556 1H26.4239Z" fill="white"/>
<path fill-rule="evenodd" clip-rule="evenodd" d="M34.3137 18.7568C34.3137 21.5573 32.0408 23.8302 29.2403 23.8302C26.4398 23.8302 24.1669 21.5573 24.1669 18.7568C24.1669 15.9563 26.4398 13.6835 29.2403 13.6835C32.0408 13.6835 34.3137 15.9563 34.3137 18.7568Z" fill="white"/>
<path d="M36.2719 17.6828C36.2719 21.6315 33.0708 24.8325 29.1222 24.8325C25.1735 24.8325 22.4491 21.6315 22.4491 17.6828C22.4491 13.7342 25.1735 11.0098 29.1222 11.0098C33.0708 11.0098 36.2719 13.7342 36.2719 17.6828Z" fill="#FF9B21"/>
<path d="M33.4029 23.3893C34.2918 22.6721 34.9833 21.7403 35.412 20.6817C35.8407 19.6231 35.9926 18.4726 35.8532 17.339C35.7138 16.2055 35.2877 15.1261 34.6153 14.2029C33.9429 13.2797 33.0462 12.5432 32.01 12.0628C30.9738 11.5824 29.8323 11.374 28.6932 11.4574C27.5541 11.5407 26.4551 11.913 25.4999 12.5391C24.5447 13.1653 23.7648 14.0245 23.2339 15.0358C22.703 16.047 22.4387 17.1769 22.4658 18.3187" stroke="#0D0B49" stroke-width="2" stroke-linecap="round"/>
<path fill-rule="evenodd" clip-rule="evenodd" d="M13.6822 17.5635C13.1249 17.5635 12.6456 17.9577 12.5379 18.5045L12.1929 20.1814C11.9665 21.2817 11.1659 22.1672 10.195 22.7324C9.23923 23.2888 8.11029 23.5111 7.06148 23.1601L5.27882 22.5637L5.26644 22.5599C4.72937 22.3933 4.14844 22.62 3.8662 23.1063L1.48236 27.0944L1.47101 27.1139C1.19741 27.5855 1.29604 28.1847 1.70632 28.5437L2.99245 29.6386C3.85698 30.3745 4.16337 31.5019 4.16337 32.6372C4.16337 33.7727 3.85694 34.9002 2.99236 35.6362L1.70632 36.7309C1.29605 37.0899 1.19744 37.6891 1.47107 38.1607L1.48236 38.1801L3.8662 42.1683C4.14824 42.6555 4.73023 42.8823 5.26759 42.7144L5.27882 42.7109L7.06151 42.1145C8.1103 41.7636 9.23922 41.9858 10.195 42.5422C11.1659 43.1073 11.9665 43.9927 12.1929 45.0931L12.5379 46.77C12.6456 47.3168 13.125 47.7112 13.6823 47.7112H18.4628C19.0206 47.7112 19.5008 47.3171 19.6097 46.77L19.9535 45.0939C20.1793 43.9932 20.9799 43.1072 21.9511 42.5419C22.9065 41.9857 24.035 41.7635 25.0834 42.1143L26.8667 42.7109L26.8769 42.7141C27.4151 42.8823 27.9981 42.6557 28.2815 42.1683L30.6632 38.1801L30.6742 38.1611C30.949 37.6897 30.8504 37.0896 30.4392 36.7309L29.1532 35.6362C28.2891 34.9006 27.9822 33.7721 27.9822 32.6372C27.9822 31.5025 28.289 30.3741 29.1531 29.6385L30.4392 28.5437C30.8504 28.185 30.9491 27.5849 30.6743 27.1135L30.6632 27.0944L28.2815 23.1063C27.9979 22.6198 27.416 22.3933 26.8781 22.5602L26.8667 22.5637L25.0835 23.1603C24.035 23.5111 22.9065 23.289 21.9511 22.7327C20.9799 22.1673 20.1793 21.2813 19.9535 20.1805L19.6097 18.5045C19.5008 17.9574 19.0207 17.5635 18.4629 17.5635H13.6822Z" fill="white" stroke="#0D0B49" stroke-width="2" stroke-linecap="square" stroke-linejoin="round"/>
<path d="M13.9723 15.3421L12.3164 13.9347V13.9347C11.8331 13.5118 11.7169 12.8059 12.0392 12.2504L12.0526 12.2273L14.8607 7.52946V7.52946C15.1932 6.95653 15.8775 6.68945 16.5102 6.8857L16.5248 6.89022L18.6248 7.59283C19.8603 8.00621 21.1901 7.74437 22.3161 7.08893V7.08893C23.4598 6.42314 24.4029 5.3801 24.6696 4.08387L25.076 2.10851V2.10851C25.2028 1.46442 25.7675 1 26.4239 1H32.0556C32.7126 1 33.2782 1.46409 33.4065 2.10851V2.10851L33.8115 4.08289C34.0775 5.37961 35.0206 6.42328 36.1646 7.0893V7.0893C37.2901 7.74457 38.6195 8.0063 39.8545 7.59307L41.9552 6.89022L41.9686 6.88608C42.6022 6.68953 43.2877 6.95628 43.6218 7.52946V7.52946L46.4274 12.2273L46.4405 12.2498C46.7642 12.8052 46.648 13.5121 46.1636 13.9347V13.9347L44.6486 15.2243C43.6307 16.0908 43.2692 17.42 43.2692 18.7568V18.7568V18.7568C43.2692 20.0937 43.6307 21.423 44.6487 22.2895L46.1636 23.5791V23.5791C46.648 24.0016 46.7641 24.7086 46.4404 25.2639L46.4274 25.2863L43.6218 29.9843V29.9843C43.2879 30.5585 42.6012 30.8254 41.9672 30.6273L41.9552 30.6235L39.8545 29.9207C38.6195 29.5075 37.2901 29.7692 36.1646 30.4244V30.4244C35.0206 31.0903 34.0775 32.134 33.8115 33.4307L33.4065 35.4051" stroke="#0D0B49" stroke-width="2" stroke-linecap="round" stroke-linejoin="round"/>
<circle cx="16.2546" cy="32.4587" r="4.81318" fill="#5C63AB" stroke="#0D0B49" stroke-width="2"/>
</svg>
