 <svg width="27" height="27" viewBox="0 0 27 27" fill="none" xmlns="http://www.w3.org/2000/svg">
<path d="M2.4 0C1.074 0 0 1.074 0 2.4V24C0 25.326 1.074 26.4 2.4 26.4H24C25.326 26.4 26.4 25.326 26.4 24V2.4C26.4 1.074 25.326 0 24 0H2.4ZM16.2 8.4H19.268C19.5992 8.4 19.868 8.6688 19.868 9C19.868 9.3312 19.5992 9.6 19.268 9.6H16.2C15.8688 9.6 15.6 9.3312 15.6 9C15.6 8.6688 15.8688 8.4 16.2 8.4ZM5.90391 8.86172H9.24609C11.2189 8.86172 12.3961 9.82685 12.3961 11.3977C12.3961 12.4753 11.599 13.4155 10.5562 13.5703V13.6969C11.9026 13.7953 12.8812 14.8099 12.8812 16.1203C12.8824 17.9023 11.5364 19.0312 9.36563 19.0312H5.90391C5.29431 19.0312 4.8 18.5369 4.8 17.9273V9.96562C4.8 9.35602 5.29431 8.86172 5.90391 8.86172ZM6.92812 10.4883V13.0758H8.52656C9.67616 13.077 10.3031 12.6039 10.3031 11.7867C10.3031 10.9767 9.71989 10.4883 8.70469 10.4883H6.92812ZM17.9555 11.0883C20.2463 11.0883 21.5977 12.5481 21.5977 15.0141V15.6398H16.2656V15.7453C16.2932 16.9009 16.9706 17.6203 18.0422 17.6203C18.8522 17.6203 19.4082 17.3323 19.6266 16.8187H21.5367C21.2271 18.2851 19.8868 19.2 17.9836 19.2C15.616 19.2 14.2219 17.7052 14.2219 15.1828C14.2219 12.6532 15.6443 11.0883 17.9555 11.0883ZM17.9648 12.6609C17.0132 12.6609 16.3423 13.3217 16.2727 14.3297H19.5844C19.5412 13.3013 18.9224 12.6609 17.9648 12.6609ZM6.92812 14.5148V17.4047H8.82422C10.0506 17.4047 10.7133 16.8879 10.7133 15.9375C10.7133 15.0063 10.029 14.5148 8.775 14.5148H6.92812Z" fill="#67677B"/>
</svg>
