<svg width="27" height="27" viewBox="0 0 27 27" fill="none" xmlns="http://www.w3.org/2000/svg">
<rect x="0.195312" y="0.200195" width="26" height="26" rx="2" fill="#67677B"/>
<path d="M20.0429 18.0967C20.2261 18.2513 20.2494 18.5251 20.0843 18.6986C19.065 19.7698 17.7655 20.5422 16.3278 20.9263C14.7498 21.3478 13.0802 21.2816 11.541 20.7364C10.0018 20.1912 8.66598 19.1929 7.71132 17.8743C6.75667 16.5557 6.22841 14.9794 6.19682 13.3549C6.16522 11.7304 6.63179 10.1349 7.53446 8.7806C8.43713 7.42628 9.73309 6.37738 11.25 5.77343C12.7668 5.16948 14.4326 5.03911 16.0258 5.39967C17.4774 5.72818 18.806 6.45002 19.8661 7.48125C20.0378 7.64825 20.0252 7.92274 19.8482 8.08419L18.0217 9.75059C17.8447 9.91205 17.5708 9.89854 17.3928 9.73824C16.7971 9.20191 16.071 8.82482 15.2827 8.64643C14.3527 8.43594 13.3802 8.51205 12.4947 8.86462C11.6092 9.2172 10.8526 9.82952 10.3257 10.6201C9.7987 11.4108 9.52633 12.3422 9.54478 13.2905C9.56322 14.2388 9.8716 15.1591 10.4289 15.9288C10.9862 16.6986 11.766 17.2814 12.6646 17.5996C13.5631 17.9179 14.5378 17.9566 15.459 17.7105C16.2398 17.5019 16.9507 17.0972 17.5251 16.5383C17.6967 16.3713 17.9698 16.3473 18.153 16.5018L20.0429 18.0967Z" fill="white"/>
<path d="M14.1953 16.2002C15.8522 16.2002 17.1953 14.857 17.1953 13.2002C17.1953 11.5433 15.8522 10.2002 14.1953 10.2002C12.5385 10.2002 11.1953 11.5433 11.1953 13.2002C11.1953 14.857 12.5385 16.2002 14.1953 16.2002Z" fill="white"/>
</svg>
