<svg width="27" height="27" viewBox="0 0 27 27" fill="none" xmlns="http://www.w3.org/2000/svg">
<path d="M24.3984 0H2.79844C1.47244 0 0.398438 1.074 0.398438 2.4V24C0.398438 25.326 1.47244 26.4 2.79844 26.4H14.7984V15.6H11.1984V12H14.7984V10.0668C14.7984 6.4068 16.5816 4.8 19.6236 4.8C21.0804 4.8 21.8508 4.908 22.2156 4.9572V8.4H20.1408C18.8496 8.4 18.3984 9.0816 18.3984 10.4616V12H22.1832L21.6696 15.6H18.3984V26.4H24.3984C25.7244 26.4 26.7984 25.326 26.7984 24V2.4C26.7984 1.074 25.7232 0 24.3984 0Z" fill="#67677B"/>
</svg>
