<svg width="28" height="27" viewBox="0 0 28 27" fill="none" xmlns="http://www.w3.org/2000/svg">
<path d="M24.7969 0H3.19687C1.87087 0 0.796875 1.074 0.796875 2.4V24C0.796875 25.326 1.87087 26.4 3.19687 26.4H24.7969C26.1229 26.4 27.1969 25.326 27.1969 24V2.4C27.1969 1.074 26.1229 0 24.7969 0ZM9.14167 21.6H5.60167V10.2096H9.14167V21.6ZM7.33568 8.5812C6.19448 8.5812 5.27167 7.656 5.27167 6.5172C5.27167 5.3784 6.19567 4.4544 7.33568 4.4544C8.47328 4.4544 9.39847 5.3796 9.39847 6.5172C9.39847 7.656 8.47328 8.5812 7.33568 8.5812ZM22.4017 21.6H18.8641V16.0608C18.8641 14.7396 18.8401 13.0404 17.0245 13.0404C15.1825 13.0404 14.8993 14.4792 14.8993 15.9648V21.6H11.3617V10.2096H14.7577V11.766H14.8057C15.2785 10.8708 16.4329 9.9264 18.1549 9.9264C21.7393 9.9264 22.4017 12.2856 22.4017 15.3528V21.6Z" fill="#67677B"/>
</svg>
