<svg width="27" height="27" viewBox="0 0 27 27" fill="none" xmlns="http://www.w3.org/2000/svg">
<path d="M24.3202 0.200195H2.07045C1.03479 0.200195 0.195312 1.03967 0.195312 2.07533V24.3251C0.195312 25.3607 1.03479 26.2002 2.07045 26.2002H24.3202C25.3558 26.2002 26.1953 25.3607 26.1953 24.3251V2.07533C26.1953 1.03967 25.3558 0.200195 24.3202 0.200195V0.200195ZM19.131 10.3362C19.1367 10.4642 19.1395 10.5927 19.1395 10.7218C19.1395 14.6647 16.1382 19.2114 10.6497 19.2116H10.6499H10.6497C8.9646 19.2116 7.39653 18.7177 6.07602 17.8713C6.30949 17.8988 6.54713 17.9125 6.78775 17.9125C8.18582 17.9125 9.47241 17.4357 10.4938 16.6353C9.18756 16.6111 8.08624 15.7484 7.70618 14.5628C7.88808 14.5977 8.07513 14.6167 8.26695 14.6167C8.53931 14.6167 8.80313 14.58 9.05386 14.5116C7.68852 14.2382 6.66 13.0316 6.66 11.5867C6.66 11.5732 6.66 11.5611 6.6604 11.5486C7.06248 11.7722 7.52229 11.9067 8.01186 11.9217C7.21066 11.3871 6.68401 10.4733 6.68401 9.43802C6.68401 8.89133 6.83179 8.37915 7.08807 7.93819C8.55954 9.7437 10.7586 10.9311 13.2386 11.0559C13.1874 10.8373 13.161 10.6096 13.161 10.3755C13.161 8.72827 14.4974 7.39189 16.1452 7.39189C17.0035 7.39189 17.7787 7.7547 18.3232 8.33472C19.003 8.20062 19.6414 7.95227 20.218 7.61049C19.9948 8.30695 19.5219 8.89133 18.9058 9.26088C19.5094 9.18867 20.0847 9.02859 20.6193 8.79095C20.22 9.38942 19.7136 9.91508 19.131 10.3362Z" fill="#67677B"/>
</svg>
