<svg width="194" height="38" viewBox="0 0 194 38" fill="none" xmlns="http://www.w3.org/2000/svg">
<path d="M37.9632 9.60415C37.9632 11.688 36.2739 13.3772 34.1901 13.3772C32.1063 13.3772 30.417 11.688 30.417 9.60415C30.417 7.52032 32.1063 5.83105 34.1901 5.83105C36.2739 5.83105 37.9632 7.52032 37.9632 9.60415Z" fill="url(#paint0_radial_6485_1995)"/>
<path d="M37.9632 9.60415C37.9632 11.688 36.2739 13.3772 34.1901 13.3772C32.1063 13.3772 30.417 11.688 30.417 9.60415C30.417 7.52032 32.1063 5.83105 34.1901 5.83105C36.2739 5.83105 37.9632 7.52032 37.9632 9.60415Z" fill="url(#paint1_linear_6485_1995)"/>
<path fill-rule="evenodd" clip-rule="evenodd" d="M48.1374 0C46.8301 7.43209 41.44 20.5285 35.2166 25.9559C28.4862 31.8256 22.0768 32.4886 14.5625 31.8256C21.4138 31.3836 25.171 29.3945 25.4973 24.8123C26.0256 17.3952 21.4953 11.4341 17.3791 7.43209C18.1516 7.92565 18.9724 8.49573 19.8371 9.09623C23.5796 11.6955 28.1427 14.8646 33.1585 14.8646C41.1625 14.8646 46.6091 3.53618 48.1374 0ZM0 29.5001C4.11636 31.5582 12.5778 35.0326 21.1535 34.4168C30.0245 33.7798 35.5597 30.0575 40.2488 24.2403C35.5597 33.1516 28.5858 35.7889 22.983 36.2463C15.7794 36.8344 7.31797 34.4168 0 29.5001Z" fill="url(#paint2_linear_6485_1995)"/>
<path fill-rule="evenodd" clip-rule="evenodd" d="M48.1374 0C46.8301 7.43209 41.44 20.5285 35.2166 25.9559C28.4862 31.8256 22.0768 32.4886 14.5625 31.8256C21.4138 31.3836 25.171 29.3945 25.4973 24.8123C26.0256 17.3952 21.4953 11.4341 17.3791 7.43209C18.1516 7.92565 18.9724 8.49573 19.8371 9.09623C23.5796 11.6955 28.1427 14.8646 33.1585 14.8646C41.1625 14.8646 46.6091 3.53618 48.1374 0ZM0 29.5001C4.11636 31.5582 12.5778 35.0326 21.1535 34.4168C30.0245 33.7798 35.5597 30.0575 40.2488 24.2403C35.5597 33.1516 28.5858 35.7889 22.983 36.2463C15.7794 36.8344 7.31797 34.4168 0 29.5001Z" fill="url(#paint3_linear_6485_1995)"/>
<path d="M67.2398 17.9203C66.1152 17.9203 65.1542 17.6808 64.3568 17.2019C63.5696 16.7129 62.9716 16.0302 62.5626 15.1539C62.1537 14.2777 61.9492 13.2486 61.9492 12.0666C61.9492 10.9255 62.1895 9.91674 62.67 9.04048C63.1505 8.16422 63.8099 7.48665 64.6482 7.00776C65.4865 6.51869 66.427 6.27415 67.4698 6.27415C68.257 6.27415 69.2027 6.39642 70.3068 6.64096L70.8128 6.73266L70.6595 9.48371H69.632L69.2487 7.54269C69.1055 7.42042 68.8551 7.31853 68.4973 7.23702C68.1497 7.14532 67.7203 7.09946 67.2091 7.09946C66.5548 7.09946 65.9721 7.28796 65.4609 7.66496C64.9498 8.03176 64.5459 8.57688 64.2495 9.3003C63.9632 10.0237 63.8201 10.8898 63.8201 11.8985C63.8201 12.8563 63.9479 13.7275 64.2035 14.512C64.459 15.2966 64.8475 15.9232 65.3689 16.3919C65.8903 16.8504 66.5344 17.0797 67.3011 17.0797C67.843 17.0797 68.257 17.0338 68.5433 16.9421C68.8397 16.8504 69.0902 16.718 69.2947 16.5447L69.9387 15.0469L70.9049 15.1692L70.5368 17.3395C70.3221 17.3497 70.0052 17.421 69.586 17.5535C69.218 17.6655 68.8602 17.7521 68.5126 17.8133C68.1752 17.8846 67.751 17.9203 67.2398 17.9203Z" fill="url(#paint4_linear_6485_1995)"/>
<path d="M72.7653 15.4596C72.7653 14.5018 73.2458 13.7988 74.2068 13.3505C75.1678 12.892 76.3844 12.6474 77.8565 12.6168V12.1889C77.8565 11.71 77.8054 11.333 77.7032 11.0579C77.6009 10.7828 77.422 10.5841 77.1664 10.4619C76.9211 10.3294 76.5684 10.2632 76.1083 10.2632C75.5869 10.2632 75.1167 10.3396 74.6975 10.4924C74.2886 10.6351 73.8796 10.8134 73.4707 11.0274L73.0873 10.2326C73.2202 10.1205 73.4656 9.97278 73.8234 9.78938C74.1812 9.60598 74.5953 9.44295 75.0655 9.3003C75.5358 9.15766 76.0061 9.08633 76.4764 9.08633C77.2022 9.08633 77.7747 9.18822 78.1939 9.39201C78.6233 9.5856 78.93 9.90146 79.114 10.3396C79.298 10.7777 79.39 11.3636 79.39 12.0972V17.0032H80.2948V17.6757C80.0903 17.7267 79.8296 17.7776 79.5127 17.8286C79.206 17.8795 78.9351 17.905 78.6999 17.905C78.4137 17.905 78.2194 17.8591 78.1172 17.7674C78.015 17.6859 77.9639 17.4974 77.9639 17.2019V16.6976C77.6572 17.0032 77.2789 17.2834 76.8291 17.5382C76.3895 17.7929 75.8885 17.9203 75.3262 17.9203C74.5902 17.9203 73.9768 17.7114 73.486 17.2936C73.0055 16.8657 72.7653 16.2543 72.7653 15.4596ZM75.9856 16.881C76.2515 16.881 76.5582 16.7995 76.9057 16.6364C77.2533 16.4734 77.5703 16.2798 77.8565 16.0557V13.4269C76.7422 13.4269 75.8987 13.6001 75.3262 13.9465C74.764 14.2828 74.4828 14.726 74.4828 15.2762C74.4828 15.8264 74.6157 16.234 74.8815 16.4989C75.1576 16.7536 75.5256 16.881 75.9856 16.881Z" fill="url(#paint5_linear_6485_1995)"/>
<path d="M82.8948 10.4466L81.7907 10.1715V9.34616L83.9836 9.07105H84.0296L84.3516 9.34616V9.98807L84.3363 10.3549C84.7043 10.0288 85.1899 9.73334 85.7931 9.46842C86.3963 9.20351 86.9739 9.07105 87.5259 9.07105C88.17 9.07105 88.6658 9.19332 89.0134 9.43786C89.3713 9.68239 89.6217 10.0594 89.7649 10.5688C89.908 11.0681 89.9795 11.7457 89.9795 12.6016V16.881L91.053 16.988V17.7521H87.4186V17.0032L88.3694 16.881V12.5863C88.3694 11.9851 88.3285 11.5164 88.2467 11.1802C88.1649 10.8338 88.0116 10.579 87.7866 10.416C87.5617 10.2428 87.2346 10.1562 86.8052 10.1562C86.4372 10.1562 86.0436 10.2479 85.6244 10.4313C85.2052 10.6147 84.8321 10.8287 84.505 11.0732V16.8657L85.5477 17.0032V17.7521H81.9287V17.0032L82.8948 16.8657V10.4466Z" fill="url(#paint6_linear_6485_1995)"/>
<path d="M92.7715 15.4596C92.7715 14.5018 93.252 13.7988 94.213 13.3505C95.1739 12.892 96.3905 12.6474 97.8627 12.6168V12.1889C97.8627 11.71 97.8116 11.333 97.7093 11.0579C97.6071 10.7828 97.4282 10.5841 97.1726 10.4619C96.9272 10.3294 96.5745 10.2632 96.1145 10.2632C95.5931 10.2632 95.1228 10.3396 94.7037 10.4924C94.2947 10.6351 93.8858 10.8134 93.4769 11.0274L93.0935 10.2326C93.2264 10.1205 93.4718 9.97278 93.8296 9.78938C94.1874 9.60598 94.6014 9.44295 95.0717 9.3003C95.542 9.15766 96.0123 9.08633 96.4825 9.08633C97.2084 9.08633 97.7809 9.18822 98.2001 9.39201C98.6294 9.5856 98.9361 9.90146 99.1202 10.3396C99.3042 10.7777 99.3962 11.3636 99.3962 12.0972V17.0032H100.301V17.6757C100.096 17.7267 99.8358 17.7776 99.5189 17.8286C99.2122 17.8795 98.9412 17.905 98.7061 17.905C98.4199 17.905 98.2256 17.8591 98.1234 17.7674C98.0211 17.6859 97.97 17.4974 97.97 17.2019V16.6976C97.6633 17.0032 97.2851 17.2834 96.8352 17.5382C96.3956 17.7929 95.8947 17.9203 95.3324 17.9203C94.5963 17.9203 93.9829 17.7114 93.4922 17.2936C93.0117 16.8657 92.7715 16.2543 92.7715 15.4596ZM95.9918 16.881C96.2576 16.881 96.5643 16.7995 96.9119 16.6364C97.2595 16.4734 97.5764 16.2798 97.8627 16.0557V13.4269C96.7483 13.4269 95.9049 13.6001 95.3324 13.9465C94.7701 14.2828 94.489 14.726 94.489 15.2762C94.489 15.8264 94.6219 16.234 94.8877 16.4989C95.1637 16.7536 95.5318 16.881 95.9918 16.881Z" fill="url(#paint7_linear_6485_1995)"/>
<path d="M105.293 17.9203C104.68 17.9203 104.118 17.7674 103.606 17.4618C103.095 17.1561 102.686 16.6874 102.38 16.0557C102.083 15.4239 101.935 14.6445 101.935 13.7173C101.935 12.8512 102.114 12.0615 102.472 11.3483C102.829 10.6351 103.341 10.0747 104.005 9.66711C104.68 9.24936 105.472 9.04048 106.382 9.04048C106.903 9.04048 107.379 9.09652 107.808 9.2086V6.35057L106.244 6.16716V5.50997L109.004 5.23486H109.05L109.388 5.4794V16.9727H110.277V17.6757C109.95 17.747 109.664 17.8031 109.418 17.8438C109.183 17.8846 108.933 17.905 108.667 17.905C108.401 17.905 108.212 17.8591 108.1 17.7674C107.987 17.6757 107.931 17.4821 107.931 17.1866V16.6976C107.645 17.044 107.266 17.3344 106.796 17.5687C106.336 17.8031 105.835 17.9203 105.293 17.9203ZM105.907 16.8351C106.305 16.8351 106.678 16.7485 107.026 16.5753C107.374 16.3919 107.634 16.183 107.808 15.9487V10.3549C107.726 10.2326 107.532 10.1256 107.225 10.0339C106.929 9.93203 106.612 9.88108 106.275 9.88108C105.477 9.88108 104.838 10.1868 104.358 10.7981C103.888 11.3993 103.652 12.3316 103.652 13.595C103.652 14.6954 103.862 15.5105 104.281 16.0404C104.7 16.5702 105.242 16.8351 105.907 16.8351Z" fill="url(#paint8_linear_6485_1995)"/>
<path d="M113.928 7.74138C113.601 7.74138 113.356 7.64967 113.192 7.46627C113.029 7.28287 112.947 7.04852 112.947 6.76322C112.947 6.43717 113.044 6.16716 113.238 5.95319C113.443 5.73922 113.719 5.63224 114.066 5.63224C114.414 5.63224 114.669 5.72394 114.833 5.90734C114.997 6.09075 115.078 6.32509 115.078 6.61039C115.078 6.95682 114.976 7.23192 114.772 7.4357C114.577 7.63949 114.301 7.74138 113.944 7.74138H113.928ZM113.315 10.4466L112.149 10.1715V9.36144L114.526 9.07105H114.557L114.91 9.34616V16.881L116.136 17.0032V17.7521H112.073V17.0032L113.315 16.8657V10.4466Z" fill="url(#paint9_linear_6485_1995)"/>
<path d="M117.839 15.4596C117.839 14.5018 118.319 13.7988 119.28 13.3505C120.241 12.892 121.458 12.6474 122.93 12.6168V12.1889C122.93 11.71 122.879 11.333 122.777 11.0579C122.674 10.7828 122.496 10.5841 122.24 10.4619C121.995 10.3294 121.642 10.2632 121.182 10.2632C120.66 10.2632 120.19 10.3396 119.771 10.4924C119.362 10.6351 118.953 10.8134 118.544 11.0274L118.161 10.2326C118.294 10.1205 118.539 9.97278 118.897 9.78938C119.255 9.60598 119.669 9.44295 120.139 9.3003C120.609 9.15766 121.08 9.08633 121.55 9.08633C122.276 9.08633 122.848 9.18822 123.267 9.39201C123.697 9.5856 124.003 9.90146 124.187 10.3396C124.371 10.7777 124.463 11.3636 124.463 12.0972V17.0032H125.368V17.6757C125.164 17.7267 124.903 17.7776 124.586 17.8286C124.279 17.8795 124.009 17.905 123.773 17.905C123.487 17.905 123.293 17.8591 123.191 17.7674C123.088 17.6859 123.037 17.4974 123.037 17.2019V16.6976C122.731 17.0032 122.352 17.2834 121.903 17.5382C121.463 17.7929 120.962 17.9203 120.4 17.9203C119.664 17.9203 119.05 17.7114 118.56 17.2936C118.079 16.8657 117.839 16.2543 117.839 15.4596ZM121.059 16.881C121.325 16.881 121.632 16.7995 121.979 16.6364C122.327 16.4734 122.644 16.2798 122.93 16.0557V13.4269C121.816 13.4269 120.972 13.6001 120.4 13.9465C119.837 14.2828 119.556 14.726 119.556 15.2762C119.556 15.8264 119.689 16.234 119.955 16.4989C120.231 16.7536 120.599 16.881 121.059 16.881Z" fill="url(#paint10_linear_6485_1995)"/>
<path d="M127.968 10.4466L126.864 10.1715V9.34616L129.057 9.07105H129.103L129.425 9.34616V9.98807L129.41 10.3549C129.778 10.0288 130.263 9.73334 130.867 9.46842C131.47 9.20351 132.047 9.07105 132.599 9.07105C133.243 9.07105 133.739 9.19332 134.087 9.43786C134.445 9.68239 134.695 10.0594 134.838 10.5688C134.981 11.0681 135.053 11.7457 135.053 12.6016V16.881L136.126 16.988V17.7521H132.492V17.0032L133.443 16.881V12.5863C133.443 11.9851 133.402 11.5164 133.32 11.1802C133.238 10.8338 133.085 10.579 132.86 10.416C132.635 10.2428 132.308 10.1562 131.879 10.1562C131.511 10.1562 131.117 10.2479 130.698 10.4313C130.279 10.6147 129.906 10.8287 129.578 11.0732V16.8657L130.621 17.0032V17.7521H127.002V17.0032L127.968 16.8657V10.4466Z" fill="url(#paint11_linear_6485_1995)"/>
<path d="M147.204 17.9203C146.079 17.9203 145.118 17.6808 144.321 17.2019C143.534 16.7129 142.936 16.0302 142.527 15.1539C142.118 14.2777 141.913 13.2486 141.913 12.0666C141.913 10.9255 142.154 9.91674 142.634 9.04048C143.115 8.16422 143.774 7.48665 144.612 7.00776C145.451 6.51869 146.391 6.27415 147.434 6.27415C148.221 6.27415 149.167 6.39642 150.271 6.64096L150.777 6.73266L150.624 9.48371H149.596L149.213 7.54269C149.07 7.42042 148.819 7.31853 148.461 7.23702C148.114 7.14532 147.684 7.09946 147.173 7.09946C146.519 7.09946 145.936 7.28796 145.425 7.66496C144.914 8.03176 144.51 8.57688 144.214 9.3003C143.927 10.0237 143.784 10.8898 143.784 11.8985C143.784 12.8563 143.912 13.7275 144.168 14.512C144.423 15.2966 144.812 15.9232 145.333 16.3919C145.854 16.8504 146.499 17.0797 147.265 17.0797C147.807 17.0797 148.221 17.0338 148.507 16.9421C148.804 16.8504 149.054 16.718 149.259 16.5447L149.903 15.0469L150.869 15.1692L150.501 17.3395C150.286 17.3497 149.969 17.421 149.55 17.5535C149.182 17.6655 148.824 17.7521 148.477 17.8133C148.139 17.8846 147.715 17.9203 147.204 17.9203Z" fill="url(#paint12_linear_6485_1995)"/>
<path d="M156.502 17.9203C155.265 17.9203 154.319 17.5178 153.665 16.7129C153.021 15.9079 152.699 14.833 152.699 13.488C152.699 12.6016 152.867 11.8221 153.205 11.1496C153.542 10.4771 154.012 9.9575 154.616 9.59069C155.229 9.22389 155.924 9.04048 156.701 9.04048C157.652 9.04048 158.388 9.3054 158.909 9.83523C159.441 10.3549 159.722 11.1038 159.753 12.0819C159.753 12.7035 159.717 13.1772 159.646 13.5033H154.37C154.391 14.512 154.626 15.3271 155.076 15.9487C155.526 16.56 156.165 16.8657 156.993 16.8657C157.402 16.8657 157.826 16.7944 158.265 16.6517C158.715 16.4989 159.063 16.3206 159.308 16.1168L159.6 16.7893C159.303 17.0949 158.863 17.3599 158.281 17.584C157.698 17.8082 157.105 17.9203 156.502 17.9203ZM158.066 12.6933C158.097 12.4793 158.112 12.2602 158.112 12.0361C158.102 11.3738 157.959 10.8541 157.683 10.4771C157.417 10.09 156.993 9.89637 156.41 9.89637C155.817 9.89637 155.342 10.1103 154.984 10.5383C154.636 10.9662 154.437 11.6845 154.386 12.6933H158.066Z" fill="url(#paint13_linear_6485_1995)"/>
<path d="M162.604 10.4466L161.5 10.1715V9.34616L163.693 9.07105H163.739L164.061 9.34616V9.98807L164.046 10.3549C164.414 10.0288 164.9 9.73334 165.503 9.46842C166.106 9.20351 166.683 9.07105 167.236 9.07105C167.88 9.07105 168.375 9.19332 168.723 9.43786C169.081 9.68239 169.331 10.0594 169.474 10.5688C169.618 11.0681 169.689 11.7457 169.689 12.6016V16.881L170.763 16.988V17.7521H167.128V17.0032L168.079 16.881V12.5863C168.079 11.9851 168.038 11.5164 167.956 11.1802C167.874 10.8338 167.721 10.579 167.496 10.416C167.271 10.2428 166.944 10.1562 166.515 10.1562C166.147 10.1562 165.753 10.2479 165.334 10.4313C164.915 10.6147 164.542 10.8287 164.215 11.0732V16.8657L165.257 17.0032V17.7521H161.638V17.0032L162.604 16.8657V10.4466Z" fill="url(#paint14_linear_6485_1995)"/>
<path d="M175.103 17.905C174.521 17.905 174.086 17.7725 173.8 17.5076C173.514 17.2427 173.37 16.7893 173.37 16.1474V10.2785H172.266V9.59069C172.317 9.5805 172.461 9.54484 172.696 9.48371C172.931 9.42257 173.089 9.36653 173.171 9.31559C173.335 9.22389 173.462 9.04048 173.554 8.76538C173.636 8.57179 173.733 8.26102 173.846 7.83308C173.958 7.40514 174.025 7.15041 174.045 7.0689H174.95L174.981 9.26974H177.542V10.2785H174.981V14.9705C174.981 15.5513 174.996 15.9589 175.027 16.1932C175.068 16.4276 175.144 16.5804 175.257 16.6517C175.379 16.723 175.584 16.7587 175.87 16.7587C176.146 16.7587 176.448 16.723 176.775 16.6517C177.112 16.5804 177.373 16.504 177.557 16.4225L177.787 17.1102C177.542 17.2936 177.143 17.4719 176.591 17.6452C176.049 17.8184 175.553 17.905 175.103 17.905Z" fill="url(#paint15_linear_6485_1995)"/>
<path d="M179.37 17.0032L180.52 16.9115V10.4466L179.416 10.1715V9.34616L181.532 9.07105H181.563L181.9 9.34616V9.62126L181.854 10.8134H181.9C182.002 10.6402 182.186 10.416 182.452 10.1409C182.718 9.8658 183.061 9.61617 183.48 9.39201C183.899 9.15766 184.354 9.04048 184.845 9.04048C185.049 9.04048 185.218 9.06596 185.351 9.1169V10.8287C185.279 10.7777 185.161 10.7319 184.998 10.6911C184.845 10.6402 184.671 10.6147 184.476 10.6147C183.628 10.6147 182.841 10.8745 182.115 11.3942V16.8963L184.062 17.0185V17.7521H179.37V17.0032Z" fill="url(#paint16_linear_6485_1995)"/>
<path d="M190.749 17.9203C189.512 17.9203 188.566 17.5178 187.912 16.7129C187.268 15.9079 186.946 14.833 186.946 13.488C186.946 12.6016 187.114 11.8221 187.452 11.1496C187.789 10.4771 188.259 9.9575 188.862 9.59069C189.476 9.22389 190.171 9.04048 190.948 9.04048C191.899 9.04048 192.635 9.3054 193.156 9.83523C193.688 10.3549 193.969 11.1038 194 12.0819C194 12.7035 193.964 13.1772 193.892 13.5033H188.617C188.637 14.512 188.873 15.3271 189.322 15.9487C189.772 16.56 190.411 16.8657 191.239 16.8657C191.648 16.8657 192.073 16.7944 192.512 16.6517C192.962 16.4989 193.31 16.3206 193.555 16.1168L193.846 16.7893C193.55 17.0949 193.11 17.3599 192.527 17.584C191.945 17.8082 191.352 17.9203 190.749 17.9203ZM192.313 12.6933C192.343 12.4793 192.359 12.2602 192.359 12.0361C192.349 11.3738 192.205 10.8541 191.929 10.4771C191.664 10.09 191.239 9.89637 190.657 9.89637C190.064 9.89637 189.588 10.1103 189.23 10.5383C188.883 10.9662 188.684 11.6845 188.632 12.6933H192.313Z" fill="url(#paint17_linear_6485_1995)"/>
<path d="M74.4039 29.383H72.9624V28.6799L74.4039 28.3895V27.6712C74.4039 27.0395 74.5675 26.4587 74.8946 25.9289C75.232 25.399 75.6665 24.9813 76.1981 24.6756C76.74 24.3598 77.3125 24.2018 77.9156 24.2018C78.2632 24.2018 78.5648 24.2477 78.8204 24.3394V25.8677C78.7284 25.7862 78.5444 25.7098 78.2683 25.6385C78.0025 25.557 77.7061 25.5162 77.3789 25.5162C76.8984 25.5162 76.5457 25.6436 76.3208 25.8983C76.1061 26.1428 75.9988 26.5708 75.9988 27.1821V28.3895H78.115V29.383H75.9988V35.9855L77.7009 36.1078V36.8567H73.1004V36.1078L74.4039 35.9702V29.383Z" fill="url(#paint18_linear_6485_1995)"/>
<path d="M79.9305 32.5925C79.9305 31.6755 80.1196 30.8808 80.4979 30.2083C80.8762 29.5358 81.372 29.0264 81.9854 28.6799C82.609 28.3233 83.2735 28.145 83.9789 28.145C85.2671 28.145 86.2332 28.5526 86.8773 29.3677C87.5316 30.1828 87.8587 31.2527 87.8587 32.5772C87.8587 33.5044 87.6696 34.3043 87.2913 34.9768C86.913 35.6493 86.4121 36.1587 85.7885 36.5051C85.1751 36.8516 84.5157 37.0248 83.8103 37.0248C82.5221 37.0248 81.5509 36.6172 80.8966 35.8021C80.2525 34.987 79.9305 33.9171 79.9305 32.5925ZM83.9023 36.1536C84.6077 36.1536 85.1495 35.8632 85.5278 35.2824C85.906 34.7017 86.0952 33.8407 86.0952 32.6995C86.0952 31.5685 85.9214 30.6719 85.5738 30.0096C85.2262 29.3473 84.669 29.0162 83.9023 29.0162C83.1969 29.0162 82.6499 29.3066 82.2614 29.8873C81.8832 30.4681 81.694 31.3291 81.694 32.4703C81.694 33.6012 81.8729 34.4979 82.2308 35.1602C82.5886 35.8225 83.1457 36.1536 83.9023 36.1536Z" fill="url(#paint19_linear_6485_1995)"/>
<path d="M89.9044 36.1078L91.0545 36.0161V29.5511L89.9504 29.276V28.4507L92.0666 28.1756H92.0973L92.4346 28.4507V28.7258L92.3886 29.9179H92.4346C92.5369 29.7447 92.7209 29.5205 92.9867 29.2454C93.2525 28.9703 93.595 28.7207 94.0141 28.4965C94.4333 28.2622 94.8882 28.145 95.379 28.145C95.5834 28.145 95.7521 28.1705 95.885 28.2214V29.9332C95.8134 29.8822 95.6959 29.8364 95.5323 29.7956C95.379 29.7447 95.2052 29.7192 95.0109 29.7192C94.1624 29.7192 93.3752 29.979 92.6493 30.4987V36.0008L94.5969 36.123V36.8567H89.9044V36.1078Z" fill="url(#paint20_linear_6485_1995)"/>
<path d="M105.52 25.4092H107.207L110.933 35.9549L111.884 36.1078V36.8567H107.836V36.1078L109.109 35.9549L108.388 33.6929H103.91L103.189 35.9549L104.508 36.1078V36.8567H100.874V36.1078L101.824 35.9549L105.52 25.4092ZM106.486 27.8546L106.103 26.5097L105.735 27.8852L104.186 32.7912H108.096L106.486 27.8546Z" fill="url(#paint21_linear_6485_1995)"/>
<path d="M116.307 37.0248C115.693 37.0248 115.131 36.8719 114.62 36.5663C114.109 36.2606 113.7 35.7919 113.393 35.1602C113.096 34.5285 112.948 33.749 112.948 32.8218C112.948 31.9557 113.127 31.1661 113.485 30.4528C113.843 29.7396 114.354 29.1792 115.018 28.7716C115.693 28.3539 116.485 28.145 117.395 28.145C117.917 28.145 118.392 28.201 118.821 28.3131V25.4551L117.257 25.2717V24.6145L120.018 24.3394H120.064L120.401 24.5839V36.0772H121.29V36.7802C120.963 36.8516 120.677 36.9076 120.432 36.9484C120.197 36.9891 119.946 37.0095 119.68 37.0095C119.414 37.0095 119.225 36.9636 119.113 36.8719C119 36.7802 118.944 36.5866 118.944 36.2912V35.8021C118.658 36.1485 118.28 36.4389 117.809 36.6733C117.349 36.9076 116.848 37.0248 116.307 37.0248ZM116.92 35.9396C117.319 35.9396 117.692 35.853 118.039 35.6798C118.387 35.4964 118.648 35.2875 118.821 35.0532V29.4594C118.74 29.3371 118.545 29.2301 118.239 29.1384C117.942 29.0365 117.625 28.9856 117.288 28.9856C116.491 28.9856 115.852 29.2913 115.371 29.9026C114.901 30.5038 114.666 31.4361 114.666 32.6995C114.666 33.7999 114.875 34.6151 115.294 35.1449C115.714 35.6747 116.255 35.9396 116.92 35.9396Z" fill="url(#paint22_linear_6485_1995)"/>
<path d="M126.444 37.0248C125.831 37.0248 125.269 36.8719 124.758 36.5663C124.246 36.2606 123.837 35.7919 123.531 35.1602C123.234 34.5285 123.086 33.749 123.086 32.8218C123.086 31.9557 123.265 31.1661 123.623 30.4528C123.981 29.7396 124.492 29.1792 125.156 28.7716C125.831 28.3539 126.623 28.145 127.533 28.145C128.055 28.145 128.53 28.201 128.959 28.3131V25.4551L127.395 25.2717V24.6145L130.155 24.3394H130.201L130.539 24.5839V36.0772H131.428V36.7802C131.101 36.8516 130.815 36.9076 130.57 36.9484C130.334 36.9891 130.084 37.0095 129.818 37.0095C129.552 37.0095 129.363 36.9636 129.251 36.8719C129.138 36.7802 129.082 36.5866 129.082 36.2912V35.8021C128.796 36.1485 128.418 36.4389 127.947 36.6733C127.487 36.9076 126.986 37.0248 126.444 37.0248ZM127.058 35.9396C127.457 35.9396 127.83 35.853 128.177 35.6798C128.525 35.4964 128.786 35.2875 128.959 35.0532V29.4594C128.878 29.3371 128.683 29.2301 128.377 29.1384C128.08 29.0365 127.763 28.9856 127.426 28.9856C126.628 28.9856 125.989 29.2913 125.509 29.9026C125.039 30.5038 124.804 31.4361 124.804 32.6995C124.804 33.7999 125.013 34.6151 125.432 35.1449C125.851 35.6747 126.393 35.9396 127.058 35.9396Z" fill="url(#paint23_linear_6485_1995)"/>
<path d="M135.079 26.8459C134.752 26.8459 134.507 26.7542 134.343 26.5708C134.18 26.3874 134.098 26.153 134.098 25.8677C134.098 25.5417 134.195 25.2717 134.389 25.0577C134.594 24.8437 134.87 24.7368 135.217 24.7368C135.565 24.7368 135.821 24.8285 135.984 25.0119C136.148 25.1953 136.23 25.4296 136.23 25.7149C136.23 26.0613 136.127 26.3364 135.923 26.5402C135.729 26.744 135.453 26.8459 135.095 26.8459H135.079ZM134.466 29.5511L133.301 29.276V28.466L135.678 28.1756H135.708L136.061 28.4507V35.9855L137.288 36.1078V36.8567H133.224V36.1078L134.466 35.9702V29.5511Z" fill="url(#paint24_linear_6485_1995)"/>
<path d="M138.806 32.6689C138.806 31.8233 138.97 31.0591 139.297 30.3764C139.634 29.6937 140.125 29.1537 140.769 28.7563C141.423 28.3488 142.205 28.145 143.115 28.145C143.555 28.145 143.933 28.1858 144.25 28.2673C144.567 28.3488 144.945 28.4609 145.385 28.6035L145.323 30.9572H144.327L143.989 29.3983C143.928 29.113 143.539 28.9703 142.824 28.9703C142.108 28.9703 141.541 29.2607 141.122 29.8415C140.713 30.4121 140.508 31.2272 140.508 32.2869C140.508 33.4892 140.738 34.4062 141.198 35.0379C141.668 35.6594 142.277 35.9702 143.023 35.9702C143.452 35.9702 143.856 35.904 144.235 35.7715C144.623 35.6391 144.955 35.4811 145.231 35.2977L145.523 35.9091C145.247 36.1944 144.838 36.4542 144.296 36.6885C143.764 36.9127 143.222 37.0248 142.67 37.0248C141.832 37.0248 141.122 36.8363 140.539 36.4593C139.966 36.0823 139.532 35.5677 139.235 34.9156C138.949 34.2533 138.806 33.5045 138.806 32.6689Z" fill="url(#paint25_linear_6485_1995)"/>
<path d="M150.088 37.0095C149.505 37.0095 149.071 36.877 148.784 36.6121C148.498 36.3472 148.355 35.8938 148.355 35.2519V29.383H147.251V28.6952C147.302 28.685 147.445 28.6494 147.68 28.5882C147.915 28.5271 148.074 28.471 148.156 28.4201C148.319 28.3284 148.447 28.145 148.539 27.8699C148.621 27.6763 148.718 27.3655 148.83 26.9376C148.943 26.5097 149.009 26.2549 149.03 26.1734H149.934L149.965 28.3743H152.526V29.383H149.965V34.075C149.965 34.6558 149.98 35.0634 150.011 35.2977C150.052 35.5321 150.129 35.6849 150.241 35.7562C150.364 35.8276 150.568 35.8632 150.855 35.8632C151.131 35.8632 151.432 35.8276 151.759 35.7562C152.097 35.6849 152.357 35.6085 152.541 35.527L152.771 36.2147C152.526 36.3981 152.127 36.5765 151.575 36.7497C151.033 36.9229 150.538 37.0095 150.088 37.0095Z" fill="url(#paint26_linear_6485_1995)"/>
<path d="M156.133 26.8459C155.806 26.8459 155.561 26.7542 155.397 26.5708C155.234 26.3874 155.152 26.153 155.152 25.8677C155.152 25.5417 155.249 25.2717 155.443 25.0577C155.648 24.8437 155.924 24.7368 156.271 24.7368C156.619 24.7368 156.874 24.8285 157.038 25.0119C157.202 25.1953 157.283 25.4296 157.283 25.7149C157.283 26.0613 157.181 26.3364 156.977 26.5402C156.782 26.744 156.506 26.8459 156.149 26.8459H156.133ZM155.52 29.5511L154.354 29.276V28.466L156.731 28.1756H156.762L157.115 28.4507V35.9855L158.342 36.1078V36.8567H154.278V36.1078L155.52 35.9702V29.5511Z" fill="url(#paint27_linear_6485_1995)"/>
<path d="M160.044 32.5925C160.044 31.6755 160.233 30.8808 160.611 30.2083C160.99 29.5358 161.485 29.0264 162.099 28.6799C162.722 28.3233 163.387 28.145 164.092 28.145C165.38 28.145 166.347 28.5526 166.991 29.3677C167.645 30.1828 167.972 31.2527 167.972 32.5772C167.972 33.5044 167.783 34.3043 167.405 34.9768C167.026 35.6493 166.525 36.1587 165.902 36.5051C165.288 36.8516 164.629 37.0248 163.924 37.0248C162.635 37.0248 161.664 36.6172 161.01 35.8021C160.366 34.987 160.044 33.9171 160.044 32.5925ZM164.016 36.1536C164.721 36.1536 165.263 35.8632 165.641 35.2824C166.019 34.7017 166.209 33.8407 166.209 32.6995C166.209 31.5685 166.035 30.6719 165.687 30.0096C165.34 29.3473 164.782 29.0162 164.016 29.0162C163.31 29.0162 162.763 29.3066 162.375 29.8873C161.996 30.4681 161.807 31.3291 161.807 32.4703C161.807 33.6012 161.986 34.4979 162.344 35.1602C162.702 35.8225 163.259 36.1536 164.016 36.1536Z" fill="url(#paint28_linear_6485_1995)"/>
<path d="M170.907 29.5511L169.803 29.276V28.4507L171.996 28.1756H172.042L172.364 28.4507V29.0926L172.349 29.4594C172.717 29.1333 173.202 28.8379 173.805 28.5729C174.409 28.308 174.986 28.1756 175.538 28.1756C176.182 28.1756 176.678 28.2978 177.026 28.5424C177.384 28.7869 177.634 29.1639 177.777 29.6734C177.92 30.1726 177.992 30.8502 177.992 31.7061V35.9855L179.065 36.0925V36.8567H175.431V36.1078L176.382 35.9855V31.6908C176.382 31.0896 176.341 30.6209 176.259 30.2847C176.177 29.9383 176.024 29.6835 175.799 29.5205C175.574 29.3473 175.247 29.2607 174.818 29.2607C174.45 29.2607 174.056 29.3524 173.637 29.5358C173.218 29.7192 172.844 29.9332 172.517 30.1777V35.9702L173.56 36.1078V36.8567H169.941V36.1078L170.907 35.9702V29.5511Z" fill="url(#paint29_linear_6485_1995)"/>
<path d="M182.21 35.634C182.312 35.7868 182.527 35.9244 182.854 36.0466C183.191 36.1689 183.544 36.23 183.912 36.23C184.495 36.23 184.924 36.118 185.2 35.8938C185.476 35.6696 185.614 35.3589 185.614 34.9615C185.614 34.6864 185.527 34.4469 185.354 34.2432C185.18 34.0394 184.934 33.8611 184.618 33.7082C184.311 33.5452 183.866 33.3516 183.283 33.1275C182.496 32.832 181.919 32.4804 181.551 32.0729C181.193 31.6551 181.014 31.11 181.014 30.4375C181.014 29.9892 181.147 29.5969 181.413 29.2607C181.689 28.9245 182.062 28.6646 182.532 28.4812C183.013 28.2876 183.544 28.1908 184.127 28.1908C184.597 28.1908 185.006 28.2265 185.354 28.2978C185.711 28.3692 185.998 28.4405 186.212 28.5118C186.427 28.5831 186.57 28.629 186.642 28.6494V30.5445H185.706L185.4 29.4135C185.338 29.2913 185.175 29.1894 184.909 29.1079C184.643 29.0162 184.347 28.9703 184.02 28.9703C183.559 28.9703 183.186 29.0722 182.9 29.276C182.624 29.4798 182.486 29.7549 182.486 30.1013C182.486 30.407 182.558 30.6617 182.701 30.8655C182.854 31.0591 183.043 31.217 183.268 31.3393C183.493 31.4615 183.8 31.6042 184.188 31.7672L184.495 31.8895C185.067 32.1136 185.533 32.3276 185.89 32.5314C186.248 32.7352 186.545 33.0052 186.78 33.3414C187.025 33.6675 187.148 34.0699 187.148 34.5488C187.148 35.3028 186.851 35.904 186.258 36.3523C185.676 36.8006 184.873 37.0248 183.851 37.0248C183.35 37.0248 182.823 36.9585 182.271 36.8261C181.729 36.6834 181.285 36.5408 180.937 36.3981V34.4418H181.934L182.21 35.634Z" fill="url(#paint30_linear_6485_1995)"/>
<defs>
<radialGradient id="paint0_radial_6485_1995" cx="0" cy="0" r="1" gradientUnits="userSpaceOnUse" gradientTransform="translate(34.1901 9.60415) rotate(87.8657) scale(3.55124)">
<stop stop-color="#CFC3A8"/>
<stop offset="1" stop-color="#A89267"/>
</radialGradient>
<linearGradient id="paint1_linear_6485_1995" x1="38.3339" y1="3.79263" x2="32.0937" y2="12.7072" gradientUnits="userSpaceOnUse">
<stop offset="0.179193" stop-color="white" stop-opacity="0.27"/>
<stop offset="1" stop-color="#A89267"/>
</linearGradient>
<linearGradient id="paint2_linear_6485_1995" x1="33.8746" y1="32.7652" x2="15.5998" y2="11.3707" gradientUnits="userSpaceOnUse">
<stop stop-color="#B4A07B"/>
<stop offset="1" stop-color="#F1EAD7"/>
</linearGradient>
<linearGradient id="paint3_linear_6485_1995" x1="48.1375" y1="5.1302" x2="6.23963" y2="32.3188" gradientUnits="userSpaceOnUse">
<stop offset="0.138407" stop-color="#A89167"/>
<stop offset="1" stop-color="#E0D9C5" stop-opacity="0"/>
</linearGradient>
<linearGradient id="paint4_linear_6485_1995" x1="52.1677" y1="34.5641" x2="202.558" y2="34.5641" gradientUnits="userSpaceOnUse">
<stop stop-color="#B3A07A"/>
<stop offset="0.515625" stop-color="#E4DECC"/>
<stop offset="1" stop-color="#B3A07A"/>
</linearGradient>
<linearGradient id="paint5_linear_6485_1995" x1="52.1677" y1="34.5641" x2="202.558" y2="34.5641" gradientUnits="userSpaceOnUse">
<stop stop-color="#B3A07A"/>
<stop offset="0.515625" stop-color="#E4DECC"/>
<stop offset="1" stop-color="#B3A07A"/>
</linearGradient>
<linearGradient id="paint6_linear_6485_1995" x1="52.1677" y1="34.5641" x2="202.558" y2="34.5641" gradientUnits="userSpaceOnUse">
<stop stop-color="#B3A07A"/>
<stop offset="0.515625" stop-color="#E4DECC"/>
<stop offset="1" stop-color="#B3A07A"/>
</linearGradient>
<linearGradient id="paint7_linear_6485_1995" x1="52.1677" y1="34.5641" x2="202.558" y2="34.5641" gradientUnits="userSpaceOnUse">
<stop stop-color="#B3A07A"/>
<stop offset="0.515625" stop-color="#E4DECC"/>
<stop offset="1" stop-color="#B3A07A"/>
</linearGradient>
<linearGradient id="paint8_linear_6485_1995" x1="52.1677" y1="34.5641" x2="202.558" y2="34.5641" gradientUnits="userSpaceOnUse">
<stop stop-color="#B3A07A"/>
<stop offset="0.515625" stop-color="#E4DECC"/>
<stop offset="1" stop-color="#B3A07A"/>
</linearGradient>
<linearGradient id="paint9_linear_6485_1995" x1="52.1677" y1="34.5641" x2="202.558" y2="34.5641" gradientUnits="userSpaceOnUse">
<stop stop-color="#B3A07A"/>
<stop offset="0.515625" stop-color="#E4DECC"/>
<stop offset="1" stop-color="#B3A07A"/>
</linearGradient>
<linearGradient id="paint10_linear_6485_1995" x1="52.1677" y1="34.5641" x2="202.558" y2="34.5641" gradientUnits="userSpaceOnUse">
<stop stop-color="#B3A07A"/>
<stop offset="0.515625" stop-color="#E4DECC"/>
<stop offset="1" stop-color="#B3A07A"/>
</linearGradient>
<linearGradient id="paint11_linear_6485_1995" x1="52.1677" y1="34.5641" x2="202.558" y2="34.5641" gradientUnits="userSpaceOnUse">
<stop stop-color="#B3A07A"/>
<stop offset="0.515625" stop-color="#E4DECC"/>
<stop offset="1" stop-color="#B3A07A"/>
</linearGradient>
<linearGradient id="paint12_linear_6485_1995" x1="52.1677" y1="34.5641" x2="202.558" y2="34.5641" gradientUnits="userSpaceOnUse">
<stop stop-color="#B3A07A"/>
<stop offset="0.515625" stop-color="#E4DECC"/>
<stop offset="1" stop-color="#B3A07A"/>
</linearGradient>
<linearGradient id="paint13_linear_6485_1995" x1="52.1677" y1="34.5641" x2="202.558" y2="34.5641" gradientUnits="userSpaceOnUse">
<stop stop-color="#B3A07A"/>
<stop offset="0.515625" stop-color="#E4DECC"/>
<stop offset="1" stop-color="#B3A07A"/>
</linearGradient>
<linearGradient id="paint14_linear_6485_1995" x1="52.1677" y1="34.5641" x2="202.558" y2="34.5641" gradientUnits="userSpaceOnUse">
<stop stop-color="#B3A07A"/>
<stop offset="0.515625" stop-color="#E4DECC"/>
<stop offset="1" stop-color="#B3A07A"/>
</linearGradient>
<linearGradient id="paint15_linear_6485_1995" x1="52.1677" y1="34.5641" x2="202.558" y2="34.5641" gradientUnits="userSpaceOnUse">
<stop stop-color="#B3A07A"/>
<stop offset="0.515625" stop-color="#E4DECC"/>
<stop offset="1" stop-color="#B3A07A"/>
</linearGradient>
<linearGradient id="paint16_linear_6485_1995" x1="52.1677" y1="34.5641" x2="202.558" y2="34.5641" gradientUnits="userSpaceOnUse">
<stop stop-color="#B3A07A"/>
<stop offset="0.515625" stop-color="#E4DECC"/>
<stop offset="1" stop-color="#B3A07A"/>
</linearGradient>
<linearGradient id="paint17_linear_6485_1995" x1="52.1677" y1="34.5641" x2="202.558" y2="34.5641" gradientUnits="userSpaceOnUse">
<stop stop-color="#B3A07A"/>
<stop offset="0.515625" stop-color="#E4DECC"/>
<stop offset="1" stop-color="#B3A07A"/>
</linearGradient>
<linearGradient id="paint18_linear_6485_1995" x1="52.1677" y1="34.5641" x2="202.558" y2="34.5641" gradientUnits="userSpaceOnUse">
<stop stop-color="#B3A07A"/>
<stop offset="0.515625" stop-color="#E4DECC"/>
<stop offset="1" stop-color="#B3A07A"/>
</linearGradient>
<linearGradient id="paint19_linear_6485_1995" x1="52.1677" y1="34.5641" x2="202.558" y2="34.5641" gradientUnits="userSpaceOnUse">
<stop stop-color="#B3A07A"/>
<stop offset="0.515625" stop-color="#E4DECC"/>
<stop offset="1" stop-color="#B3A07A"/>
</linearGradient>
<linearGradient id="paint20_linear_6485_1995" x1="52.1677" y1="34.5641" x2="202.558" y2="34.5641" gradientUnits="userSpaceOnUse">
<stop stop-color="#B3A07A"/>
<stop offset="0.515625" stop-color="#E4DECC"/>
<stop offset="1" stop-color="#B3A07A"/>
</linearGradient>
<linearGradient id="paint21_linear_6485_1995" x1="52.1677" y1="34.5641" x2="202.558" y2="34.5641" gradientUnits="userSpaceOnUse">
<stop stop-color="#B3A07A"/>
<stop offset="0.515625" stop-color="#E4DECC"/>
<stop offset="1" stop-color="#B3A07A"/>
</linearGradient>
<linearGradient id="paint22_linear_6485_1995" x1="52.1677" y1="34.5641" x2="202.558" y2="34.5641" gradientUnits="userSpaceOnUse">
<stop stop-color="#B3A07A"/>
<stop offset="0.515625" stop-color="#E4DECC"/>
<stop offset="1" stop-color="#B3A07A"/>
</linearGradient>
<linearGradient id="paint23_linear_6485_1995" x1="52.1677" y1="34.5641" x2="202.558" y2="34.5641" gradientUnits="userSpaceOnUse">
<stop stop-color="#B3A07A"/>
<stop offset="0.515625" stop-color="#E4DECC"/>
<stop offset="1" stop-color="#B3A07A"/>
</linearGradient>
<linearGradient id="paint24_linear_6485_1995" x1="52.1677" y1="34.5641" x2="202.558" y2="34.5641" gradientUnits="userSpaceOnUse">
<stop stop-color="#B3A07A"/>
<stop offset="0.515625" stop-color="#E4DECC"/>
<stop offset="1" stop-color="#B3A07A"/>
</linearGradient>
<linearGradient id="paint25_linear_6485_1995" x1="52.1677" y1="34.5641" x2="202.558" y2="34.5641" gradientUnits="userSpaceOnUse">
<stop stop-color="#B3A07A"/>
<stop offset="0.515625" stop-color="#E4DECC"/>
<stop offset="1" stop-color="#B3A07A"/>
</linearGradient>
<linearGradient id="paint26_linear_6485_1995" x1="52.1677" y1="34.5641" x2="202.558" y2="34.5641" gradientUnits="userSpaceOnUse">
<stop stop-color="#B3A07A"/>
<stop offset="0.515625" stop-color="#E4DECC"/>
<stop offset="1" stop-color="#B3A07A"/>
</linearGradient>
<linearGradient id="paint27_linear_6485_1995" x1="52.1677" y1="34.5641" x2="202.558" y2="34.5641" gradientUnits="userSpaceOnUse">
<stop stop-color="#B3A07A"/>
<stop offset="0.515625" stop-color="#E4DECC"/>
<stop offset="1" stop-color="#B3A07A"/>
</linearGradient>
<linearGradient id="paint28_linear_6485_1995" x1="52.1677" y1="34.5641" x2="202.558" y2="34.5641" gradientUnits="userSpaceOnUse">
<stop stop-color="#B3A07A"/>
<stop offset="0.515625" stop-color="#E4DECC"/>
<stop offset="1" stop-color="#B3A07A"/>
</linearGradient>
<linearGradient id="paint29_linear_6485_1995" x1="52.1677" y1="34.5641" x2="202.558" y2="34.5641" gradientUnits="userSpaceOnUse">
<stop stop-color="#B3A07A"/>
<stop offset="0.515625" stop-color="#E4DECC"/>
<stop offset="1" stop-color="#B3A07A"/>
</linearGradient>
<linearGradient id="paint30_linear_6485_1995" x1="52.1677" y1="34.5641" x2="202.558" y2="34.5641" gradientUnits="userSpaceOnUse">
<stop stop-color="#B3A07A"/>
<stop offset="0.515625" stop-color="#E4DECC"/>
<stop offset="1" stop-color="#B3A07A"/>
</linearGradient>
</defs>
</svg>
