<svg width="1440" height="1220" viewBox="0 0 1440 1220" fill="none" xmlns="http://www.w3.org/2000/svg">
<mask id="mask0_6498_4716" style="mask-type:alpha" maskUnits="userSpaceOnUse" x="0" y="0" width="1440" height="1220">
<rect width="1440" height="1219.91" fill="#D9D9D9"/>
</mask>
<g mask="url(#mask0_6498_4716)">
<g opacity="0.57">
<line opacity="0.42" y1="-0.5" x2="1514.45" y2="-0.5" transform="matrix(-0.732001 0.681303 -0.722333 -0.691545 1625.14 152.106)" stroke="#A89167" stroke-dasharray="2.2 2.2"/>
<line opacity="0.42" y1="-0.5" x2="1514.45" y2="-0.5" transform="matrix(-0.732001 0.681303 -0.722333 -0.691545 1608.98 147.902)" stroke="#A89167" stroke-dasharray="2.2 2.2"/>
<line opacity="0.42" y1="-0.5" x2="1514.45" y2="-0.5" transform="matrix(-0.732001 0.681303 -0.722333 -0.691545 1592.82 143.699)" stroke="#A89167" stroke-dasharray="2.2 2.2"/>
<line opacity="0.42" y1="-0.5" x2="1514.45" y2="-0.5" transform="matrix(-0.732001 0.681303 -0.722333 -0.691545 1576.66 139.498)" stroke="#A89167" stroke-dasharray="2.2 2.2"/>
<line opacity="0.42" y1="-0.5" x2="1514.45" y2="-0.5" transform="matrix(-0.732001 0.681303 -0.722333 -0.691545 1560.5 135.295)" stroke="#A89167" stroke-dasharray="2.2 2.2"/>
<line opacity="0.42" y1="-0.5" x2="1514.45" y2="-0.5" transform="matrix(-0.732001 0.681303 -0.722333 -0.691545 1544.33 131.092)" stroke="#A89167" stroke-dasharray="2.2 2.2"/>
<line opacity="0.42" y1="-0.5" x2="1514.45" y2="-0.5" transform="matrix(-0.732001 0.681303 -0.722333 -0.691545 1528.17 126.889)" stroke="#A89167" stroke-dasharray="2.2 2.2"/>
<line opacity="0.42" y1="-0.5" x2="1514.45" y2="-0.5" transform="matrix(-0.732001 0.681303 -0.722333 -0.691545 1512.01 122.686)" stroke="#A89167" stroke-dasharray="2.2 2.2"/>
<line opacity="0.42" y1="-0.5" x2="1514.45" y2="-0.5" transform="matrix(-0.732001 0.681303 -0.722333 -0.691545 1495.85 118.485)" stroke="#A89167" stroke-dasharray="2.2 2.2"/>
<line opacity="0.42" y1="-0.5" x2="1514.45" y2="-0.5" transform="matrix(-0.732001 0.681303 -0.722333 -0.691545 1479.69 114.282)" stroke="#A89167" stroke-dasharray="2.2 2.2"/>
<line opacity="0.42" y1="-0.5" x2="1514.45" y2="-0.5" transform="matrix(-0.732001 0.681303 -0.722333 -0.691545 1463.52 110.08)" stroke="#A89167" stroke-dasharray="2.2 2.2"/>
<line opacity="0.42" y1="-0.5" x2="1514.45" y2="-0.5" transform="matrix(-0.732001 0.681303 -0.722333 -0.691545 1447.36 105.877)" stroke="#A89167" stroke-dasharray="2.2 2.2"/>
<line opacity="0.42" y1="-0.5" x2="1514.45" y2="-0.5" transform="matrix(-0.732001 0.681303 -0.722333 -0.691545 1431.2 101.675)" stroke="#A89167" stroke-dasharray="2.2 2.2"/>
<line opacity="0.42" y1="-0.5" x2="1514.45" y2="-0.5" transform="matrix(-0.732001 0.681303 -0.722333 -0.691545 1415.04 97.4716)" stroke="#A89167" stroke-dasharray="2.2 2.2"/>
<line opacity="0.42" y1="-0.5" x2="1514.45" y2="-0.5" transform="matrix(-0.732001 0.681303 -0.722333 -0.691545 1398.87 93.2704)" stroke="#A89167" stroke-dasharray="2.2 2.2"/>
<line opacity="0.42" y1="-0.5" x2="1514.45" y2="-0.5" transform="matrix(-0.732001 0.681303 -0.722333 -0.691545 1382.71 89.0668)" stroke="#A89167" stroke-dasharray="2.2 2.2"/>
<line opacity="0.42" y1="-0.5" x2="1514.45" y2="-0.5" transform="matrix(-0.732001 0.681303 -0.722333 -0.691545 1366.55 84.8656)" stroke="#A89167" stroke-dasharray="2.2 2.2"/>
<line opacity="0.42" y1="-0.5" x2="1514.45" y2="-0.5" transform="matrix(-0.732001 0.681303 -0.722333 -0.691545 1350.39 80.6627)" stroke="#A89167" stroke-dasharray="2.2 2.2"/>
<line opacity="0.42" y1="-0.5" x2="1514.45" y2="-0.5" transform="matrix(-0.732001 0.681303 -0.722333 -0.691545 1334.22 76.4596)" stroke="#A89167" stroke-dasharray="2.2 2.2"/>
<line opacity="0.42" y1="-0.5" x2="1514.45" y2="-0.5" transform="matrix(-0.732001 0.681303 -0.722333 -0.691545 1318.06 72.2573)" stroke="#A89167" stroke-dasharray="2.2 2.2"/>
<line opacity="0.42" y1="-0.5" x2="1514.45" y2="-0.5" transform="matrix(-0.732001 0.681303 -0.722333 -0.691545 1301.9 68.0548)" stroke="#A89167" stroke-dasharray="2.2 2.2"/>
<line opacity="0.42" y1="-0.5" x2="1514.45" y2="-0.5" transform="matrix(-0.732001 0.681303 -0.722333 -0.691545 1285.74 63.8521)" stroke="#A89167" stroke-dasharray="2.2 2.2"/>
<line opacity="0.42" y1="-0.5" x2="1514.45" y2="-0.5" transform="matrix(-0.732001 0.681303 -0.722333 -0.691545 1269.58 59.6509)" stroke="#A89167" stroke-dasharray="2.2 2.2"/>
<line opacity="0.42" y1="-0.5" x2="1514.45" y2="-0.5" transform="matrix(-0.732001 0.681303 -0.722333 -0.691545 1253.41 55.4473)" stroke="#A89167" stroke-dasharray="2.2 2.2"/>
<line opacity="0.42" y1="-0.5" x2="1514.45" y2="-0.5" transform="matrix(-0.732001 0.681303 -0.722333 -0.691545 1237.25 51.2456)" stroke="#A89167" stroke-dasharray="2.2 2.2"/>
<line opacity="0.42" y1="-0.5" x2="1514.45" y2="-0.5" transform="matrix(-0.732001 0.681303 -0.722333 -0.691545 1221.09 47.0431)" stroke="#A89167" stroke-dasharray="2.2 2.2"/>
<line opacity="0.42" y1="-0.5" x2="1514.45" y2="-0.5" transform="matrix(-0.732001 0.681303 -0.722333 -0.691545 1204.93 42.8401)" stroke="#A89167" stroke-dasharray="2.2 2.2"/>
<line opacity="0.42" y1="-0.5" x2="1514.45" y2="-0.5" transform="matrix(-0.732001 0.681303 -0.722333 -0.691545 1188.76 38.6384)" stroke="#A89167" stroke-dasharray="2.2 2.2"/>
<line opacity="0.42" y1="-0.5" x2="1514.45" y2="-0.5" transform="matrix(-0.732001 0.681303 -0.722333 -0.691545 1172.6 34.4366)" stroke="#A89167" stroke-dasharray="2.2 2.2"/>
<line opacity="0.42" y1="-0.5" x2="1514.45" y2="-0.5" transform="matrix(-0.732001 0.681303 -0.722333 -0.691545 1156.44 30.2332)" stroke="#A89167" stroke-dasharray="2.2 2.2"/>
<line opacity="0.42" y1="-0.5" x2="1514.45" y2="-0.5" transform="matrix(-0.732001 0.681303 -0.722333 -0.691545 1140.28 26.0311)" stroke="#A89167" stroke-dasharray="2.2 2.2"/>
<line opacity="0.42" y1="-0.5" x2="1514.45" y2="-0.5" transform="matrix(-0.732001 0.681303 -0.722333 -0.691545 1124.12 21.8284)" stroke="#A89167" stroke-dasharray="2.2 2.2"/>
<line opacity="0.42" y1="-0.5" x2="1514.45" y2="-0.5" transform="matrix(-0.732001 0.681303 -0.722333 -0.691545 1107.95 17.6259)" stroke="#A89167" stroke-dasharray="2.2 2.2"/>
<line opacity="0.42" y1="-0.5" x2="1514.45" y2="-0.5" transform="matrix(-0.732001 0.681303 -0.722333 -0.691545 1091.79 13.4235)" stroke="#A89167" stroke-dasharray="2.2 2.2"/>
<line opacity="0.42" y1="-0.5" x2="1514.45" y2="-0.5" transform="matrix(-0.732001 0.681303 -0.722333 -0.691545 1075.63 9.22119)" stroke="#A89167" stroke-dasharray="2.2 2.2"/>
<line opacity="0.42" y1="-0.5" x2="1514.45" y2="-0.5" transform="matrix(-0.732001 0.681303 -0.722333 -0.691545 1059.46 5.01672)" stroke="#A89167" stroke-dasharray="2.2 2.2"/>
</g>
<rect x="27.4619" y="837.135" width="625.53" height="207.149" transform="rotate(24.5716 27.4619 837.135)" fill="url(#paint0_linear_6498_4716)"/>
<rect x="1277.79" y="482.35" width="625.53" height="378.78" transform="rotate(-130.735 1277.79 482.35)" fill="url(#paint1_linear_6498_4716)"/>
</g>
<defs>
<linearGradient id="paint0_linear_6498_4716" x1="340.227" y1="837.135" x2="340.227" y2="1044.28" gradientUnits="userSpaceOnUse">
<stop stop-color="#2F2E2E" stop-opacity="0"/>
<stop offset="0.911458" stop-color="#2F2E2E"/>
</linearGradient>
<linearGradient id="paint1_linear_6498_4716" x1="1590.56" y1="482.35" x2="1590.56" y2="861.13" gradientUnits="userSpaceOnUse">
<stop stop-color="#2F2E2E" stop-opacity="0"/>
<stop offset="0.776042" stop-color="#2F2E2E"/>
</linearGradient>
</defs>
</svg>
