<svg width="999" height="847" viewBox="0 0 999 847" fill="none" xmlns="http://www.w3.org/2000/svg">
<mask id="mask0_6493_4706" style="mask-type:alpha" maskUnits="userSpaceOnUse" x="0" y="0" width="999" height="847">
<rect width="999" height="846.31" fill="#D9D9D9"/>
</mask>
<g mask="url(#mask0_6493_4706)">
<g opacity="0.57">
<line opacity="0.42" y1="-0.5" x2="1050.65" y2="-0.5" transform="matrix(-0.732001 0.681303 -0.722333 -0.691545 1127.44 105.523)" stroke="#A89167" stroke-dasharray="2.2 2.2"/>
<line opacity="0.42" y1="-0.5" x2="1050.65" y2="-0.5" transform="matrix(-0.732001 0.681303 -0.722333 -0.691545 1116.23 102.607)" stroke="#A89167" stroke-dasharray="2.2 2.2"/>
<line opacity="0.42" y1="-0.5" x2="1050.65" y2="-0.5" transform="matrix(-0.732001 0.681303 -0.722333 -0.691545 1105.02 99.6904)" stroke="#A89167" stroke-dasharray="2.2 2.2"/>
<line opacity="0.42" y1="-0.5" x2="1050.65" y2="-0.5" transform="matrix(-0.732001 0.681303 -0.722333 -0.691545 1093.8 96.7769)" stroke="#A89167" stroke-dasharray="2.2 2.2"/>
<line opacity="0.42" y1="-0.5" x2="1050.65" y2="-0.5" transform="matrix(-0.732001 0.681303 -0.722333 -0.691545 1082.59 93.8604)" stroke="#A89167" stroke-dasharray="2.2 2.2"/>
<line opacity="0.42" y1="-0.5" x2="1050.65" y2="-0.5" transform="matrix(-0.732001 0.681303 -0.722333 -0.691545 1071.38 90.9448)" stroke="#A89167" stroke-dasharray="2.2 2.2"/>
<line opacity="0.42" y1="-0.5" x2="1050.65" y2="-0.5" transform="matrix(-0.732001 0.681303 -0.722333 -0.691545 1060.17 88.0293)" stroke="#A89167" stroke-dasharray="2.2 2.2"/>
<line opacity="0.42" y1="-0.5" x2="1050.65" y2="-0.5" transform="matrix(-0.732001 0.681303 -0.722333 -0.691545 1048.96 85.1128)" stroke="#A89167" stroke-dasharray="2.2 2.2"/>
<line opacity="0.42" y1="-0.5" x2="1050.65" y2="-0.5" transform="matrix(-0.732001 0.681303 -0.722333 -0.691545 1037.74 82.1987)" stroke="#A89167" stroke-dasharray="2.2 2.2"/>
<line opacity="0.42" y1="-0.5" x2="1050.65" y2="-0.5" transform="matrix(-0.732001 0.681303 -0.722333 -0.691545 1026.53 79.2827)" stroke="#A89167" stroke-dasharray="2.2 2.2"/>
<line opacity="0.42" y1="-0.5" x2="1050.65" y2="-0.5" transform="matrix(-0.732001 0.681303 -0.722333 -0.691545 1015.32 76.3677)" stroke="#A89167" stroke-dasharray="2.2 2.2"/>
<line opacity="0.42" y1="-0.5" x2="1050.65" y2="-0.5" transform="matrix(-0.732001 0.681303 -0.722333 -0.691545 1004.11 73.4517)" stroke="#A89167" stroke-dasharray="2.2 2.2"/>
<line opacity="0.42" y1="-0.5" x2="1050.65" y2="-0.5" transform="matrix(-0.732001 0.681303 -0.722333 -0.691545 992.893 70.5361)" stroke="#A89167" stroke-dasharray="2.2 2.2"/>
<line opacity="0.42" y1="-0.5" x2="1050.65" y2="-0.5" transform="matrix(-0.732001 0.681303 -0.722333 -0.691545 981.682 67.6206)" stroke="#A89167" stroke-dasharray="2.2 2.2"/>
<line opacity="0.42" y1="-0.5" x2="1050.65" y2="-0.5" transform="matrix(-0.732001 0.681303 -0.722333 -0.691545 970.467 64.7061)" stroke="#A89167" stroke-dasharray="2.2 2.2"/>
<line opacity="0.42" y1="-0.5" x2="1050.65" y2="-0.5" transform="matrix(-0.732001 0.681303 -0.722333 -0.691545 959.254 61.7896)" stroke="#A89167" stroke-dasharray="2.2 2.2"/>
<line opacity="0.42" y1="-0.5" x2="1050.65" y2="-0.5" transform="matrix(-0.732001 0.681303 -0.722333 -0.691545 948.041 58.875)" stroke="#A89167" stroke-dasharray="2.2 2.2"/>
<line opacity="0.42" y1="-0.5" x2="1050.65" y2="-0.5" transform="matrix(-0.732001 0.681303 -0.722333 -0.691545 936.83 55.9595)" stroke="#A89167" stroke-dasharray="2.2 2.2"/>
<line opacity="0.42" y1="-0.5" x2="1050.65" y2="-0.5" transform="matrix(-0.732001 0.681303 -0.722333 -0.691545 925.617 53.0435)" stroke="#A89167" stroke-dasharray="2.2 2.2"/>
<line opacity="0.42" y1="-0.5" x2="1050.65" y2="-0.5" transform="matrix(-0.732001 0.681303 -0.722333 -0.691545 914.404 50.1279)" stroke="#A89167" stroke-dasharray="2.2 2.2"/>
<line opacity="0.42" y1="-0.5" x2="1050.65" y2="-0.5" transform="matrix(-0.732001 0.681303 -0.722333 -0.691545 903.191 47.2129)" stroke="#A89167" stroke-dasharray="2.2 2.2"/>
<line opacity="0.42" y1="-0.5" x2="1050.65" y2="-0.5" transform="matrix(-0.732001 0.681303 -0.722333 -0.691545 891.98 44.2969)" stroke="#A89167" stroke-dasharray="2.2 2.2"/>
<line opacity="0.42" y1="-0.5" x2="1050.65" y2="-0.5" transform="matrix(-0.732001 0.681303 -0.722333 -0.691545 880.768 41.3823)" stroke="#A89167" stroke-dasharray="2.2 2.2"/>
<line opacity="0.42" y1="-0.5" x2="1050.65" y2="-0.5" transform="matrix(-0.732001 0.681303 -0.722333 -0.691545 869.555 38.4658)" stroke="#A89167" stroke-dasharray="2.2 2.2"/>
<line opacity="0.42" y1="-0.5" x2="1050.65" y2="-0.5" transform="matrix(-0.732001 0.681303 -0.722333 -0.691545 858.342 35.5513)" stroke="#A89167" stroke-dasharray="2.2 2.2"/>
<line opacity="0.42" y1="-0.5" x2="1050.65" y2="-0.5" transform="matrix(-0.732001 0.681303 -0.722333 -0.691545 847.13 32.6357)" stroke="#A89167" stroke-dasharray="2.2 2.2"/>
<line opacity="0.42" y1="-0.5" x2="1050.65" y2="-0.5" transform="matrix(-0.732001 0.681303 -0.722333 -0.691545 835.917 29.7197)" stroke="#A89167" stroke-dasharray="2.2 2.2"/>
<line opacity="0.42" y1="-0.5" x2="1050.65" y2="-0.5" transform="matrix(-0.732001 0.681303 -0.722333 -0.691545 824.704 26.8052)" stroke="#A89167" stroke-dasharray="2.2 2.2"/>
<line opacity="0.42" y1="-0.5" x2="1050.65" y2="-0.5" transform="matrix(-0.732001 0.681303 -0.722333 -0.691545 813.491 23.8901)" stroke="#A89167" stroke-dasharray="2.2 2.2"/>
<line opacity="0.42" y1="-0.5" x2="1050.65" y2="-0.5" transform="matrix(-0.732001 0.681303 -0.722333 -0.691545 802.28 20.9736)" stroke="#A89167" stroke-dasharray="2.2 2.2"/>
<line opacity="0.42" y1="-0.5" x2="1050.65" y2="-0.5" transform="matrix(-0.732001 0.681303 -0.722333 -0.691545 791.067 18.0586)" stroke="#A89167" stroke-dasharray="2.2 2.2"/>
<line opacity="0.42" y1="-0.5" x2="1050.65" y2="-0.5" transform="matrix(-0.732001 0.681303 -0.722333 -0.691545 779.854 15.1431)" stroke="#A89167" stroke-dasharray="2.2 2.2"/>
<line opacity="0.42" y1="-0.5" x2="1050.65" y2="-0.5" transform="matrix(-0.732001 0.681303 -0.722333 -0.691545 768.642 12.2275)" stroke="#A89167" stroke-dasharray="2.2 2.2"/>
<line opacity="0.42" y1="-0.5" x2="1050.65" y2="-0.5" transform="matrix(-0.732001 0.681303 -0.722333 -0.691545 757.431 9.31201)" stroke="#A89167" stroke-dasharray="2.2 2.2"/>
<line opacity="0.42" y1="-0.5" x2="1050.65" y2="-0.5" transform="matrix(-0.732001 0.681303 -0.722333 -0.691545 746.218 6.39697)" stroke="#A89167" stroke-dasharray="2.2 2.2"/>
<line opacity="0.42" y1="-0.5" x2="1050.65" y2="-0.5" transform="matrix(-0.732001 0.681303 -0.722333 -0.691545 735.003 3.47998)" stroke="#A89167" stroke-dasharray="2.2 2.2"/>
</g>
<rect x="19.0498" y="580.763" width="433.961" height="143.71" transform="rotate(24.5716 19.0498 580.763)" fill="url(#paint0_linear_6493_4706)"/>
<rect x="886.469" y="334.63" width="433.961" height="262.778" transform="rotate(-130.735 886.469 334.63)" fill="url(#paint1_linear_6493_4706)"/>
</g>
<defs>
<linearGradient id="paint0_linear_6493_4706" x1="236.031" y1="580.763" x2="236.031" y2="724.472" gradientUnits="userSpaceOnUse">
<stop stop-color="white" stop-opacity="0"/>
<stop offset="0.911458" stop-color="white"/>
</linearGradient>
<linearGradient id="paint1_linear_6493_4706" x1="1103.45" y1="334.63" x2="1103.45" y2="597.409" gradientUnits="userSpaceOnUse">
<stop stop-color="white" stop-opacity="0"/>
<stop offset="0.776042" stop-color="white"/>
</linearGradient>
</defs>
</svg>
