<svg width="199" height="131" viewBox="0 0 199 131" fill="none" xmlns="http://www.w3.org/2000/svg">
<ellipse cx="4.88" cy="4.87804" rx="4.88" ry="4.87804" fill="#F5F6F8"/>
<ellipse cx="31.821" cy="4.87804" rx="4.88" ry="4.87804" fill="#F5F6F8"/>
<ellipse cx="58.7675" cy="4.87804" rx="4.88" ry="4.87804" fill="#F5F6F8"/>
<ellipse cx="85.7085" cy="4.87804" rx="4.88" ry="4.87804" fill="#F5F6F8"/>
<ellipse cx="112.65" cy="4.87804" rx="4.88" ry="4.87804" fill="#F5F6F8"/>
<ellipse cx="139.595" cy="4.87804" rx="4.88" ry="4.87804" fill="#F5F6F8"/>
<ellipse cx="166.537" cy="4.87804" rx="4.88" ry="4.87804" fill="#F5F6F8"/>
<ellipse cx="193.478" cy="4.87804" rx="4.88" ry="4.87804" fill="#F5F6F8"/>
<ellipse cx="4.88" cy="29.1266" rx="4.88" ry="4.87804" fill="#F5F6F8"/>
<ellipse cx="31.821" cy="29.1266" rx="4.88" ry="4.87804" fill="#F5F6F8"/>
<ellipse cx="58.7675" cy="29.1266" rx="4.88" ry="4.87804" fill="#F5F6F8"/>
<ellipse cx="85.7085" cy="29.1266" rx="4.88" ry="4.87804" fill="#F5F6F8"/>
<ellipse cx="112.65" cy="29.1266" rx="4.88" ry="4.87804" fill="#F5F6F8"/>
<ellipse cx="139.595" cy="29.1266" rx="4.88" ry="4.87804" fill="#F5F6F8"/>
<ellipse cx="166.537" cy="29.1266" rx="4.88" ry="4.87804" fill="#F5F6F8"/>
<ellipse cx="193.478" cy="29.1266" rx="4.88" ry="4.87804" fill="#F5F6F8"/>
<ellipse cx="4.88" cy="53.3751" rx="4.88" ry="4.87804" fill="#F5F6F8"/>
<ellipse cx="31.821" cy="53.3751" rx="4.88" ry="4.87804" fill="#F5F6F8"/>
<ellipse cx="58.7675" cy="53.3751" rx="4.88" ry="4.87804" fill="#F5F6F8"/>
<ellipse cx="85.7085" cy="53.3751" rx="4.88" ry="4.87804" fill="#F5F6F8"/>
<ellipse cx="112.65" cy="53.3751" rx="4.88" ry="4.87804" fill="#F5F6F8"/>
<ellipse cx="139.595" cy="53.3751" rx="4.88" ry="4.87804" fill="#F5F6F8"/>
<ellipse cx="166.537" cy="53.3751" rx="4.88" ry="4.87804" fill="#F5F6F8"/>
<ellipse cx="193.478" cy="53.3751" rx="4.88" ry="4.87804" fill="#F5F6F8"/>
<ellipse cx="4.88" cy="77.6244" rx="4.88" ry="4.87804" fill="#F5F6F8"/>
<ellipse cx="31.821" cy="77.6244" rx="4.88" ry="4.87804" fill="#F5F6F8"/>
<ellipse cx="58.7675" cy="77.6244" rx="4.88" ry="4.87804" fill="#F5F6F8"/>
<ellipse cx="85.7085" cy="77.6244" rx="4.88" ry="4.87804" fill="#F5F6F8"/>
<ellipse cx="112.65" cy="77.6244" rx="4.88" ry="4.87804" fill="#F5F6F8"/>
<ellipse cx="139.595" cy="77.6241" rx="4.88" ry="4.87804" fill="#F5F6F8"/>
<ellipse cx="166.537" cy="77.6244" rx="4.88" ry="4.87804" fill="#F5F6F8"/>
<ellipse cx="193.478" cy="77.6244" rx="4.88" ry="4.87804" fill="#F5F6F8"/>
<ellipse cx="4.88" cy="101.873" rx="4.88" ry="4.87804" fill="#F5F6F8"/>
<ellipse cx="31.821" cy="101.873" rx="4.88" ry="4.87804" fill="#F5F6F8"/>
<ellipse cx="58.7675" cy="101.873" rx="4.88" ry="4.87804" fill="#F5F6F8"/>
<ellipse cx="85.7085" cy="101.873" rx="4.88" ry="4.87804" fill="#F5F6F8"/>
<ellipse cx="112.65" cy="101.873" rx="4.88" ry="4.87804" fill="#F5F6F8"/>
<ellipse cx="139.595" cy="101.873" rx="4.88" ry="4.87804" fill="#F5F6F8"/>
<ellipse cx="166.537" cy="101.873" rx="4.88" ry="4.87804" fill="#F5F6F8"/>
<ellipse cx="193.478" cy="101.873" rx="4.88" ry="4.87804" fill="#F5F6F8"/>
<ellipse cx="4.88" cy="126.121" rx="4.88" ry="4.87804" fill="#F5F6F8"/>
<ellipse cx="31.821" cy="126.121" rx="4.88" ry="4.87804" fill="#F5F6F8"/>
<ellipse cx="58.7675" cy="126.121" rx="4.88" ry="4.87804" fill="#F5F6F8"/>
<ellipse cx="85.7085" cy="126.121" rx="4.88" ry="4.87804" fill="#F5F6F8"/>
<ellipse cx="112.65" cy="126.121" rx="4.88" ry="4.87804" fill="#F5F6F8"/>
<ellipse cx="139.595" cy="126.121" rx="4.88" ry="4.87804" fill="#F5F6F8"/>
<ellipse cx="166.537" cy="126.121" rx="4.88" ry="4.87804" fill="#F5F6F8"/>
<ellipse cx="193.478" cy="126.121" rx="4.88" ry="4.87804" fill="#F5F6F8"/>
</svg>
