<svg width="1440" height="1220" viewBox="0 0 1440 1220" fill="none" xmlns="http://www.w3.org/2000/svg">
<mask id="mask0_6511_4946" style="mask-type:alpha" maskUnits="userSpaceOnUse" x="0" y="0" width="1440" height="1220">
<rect width="1440" height="1219.91" fill="#D9D9D9"/>
</mask>
<g mask="url(#mask0_6511_4946)">
<g opacity="0.57">
<line opacity="0.42" y1="-0.5" x2="1801.27" y2="-0.5" transform="matrix(-0.732001 0.681303 -0.722333 -0.691545 1783.69 81.7835)" stroke="#A89167" stroke-dasharray="2.2 2.2"/>
<line opacity="0.42" y1="-0.5" x2="1801.27" y2="-0.5" transform="matrix(-0.732001 0.681303 -0.722333 -0.691545 1764.47 76.7836)" stroke="#A89167" stroke-dasharray="2.2 2.2"/>
<line opacity="0.42" y1="-0.5" x2="1801.27" y2="-0.5" transform="matrix(-0.732001 0.681303 -0.722333 -0.691545 1745.25 71.7839)" stroke="#A89167" stroke-dasharray="2.2 2.2"/>
<line opacity="0.42" y1="-0.5" x2="1801.27" y2="-0.5" transform="matrix(-0.732001 0.681303 -0.722333 -0.691545 1726.02 66.7878)" stroke="#A89167" stroke-dasharray="2.2 2.2"/>
<line opacity="0.42" y1="-0.5" x2="1801.27" y2="-0.5" transform="matrix(-0.732001 0.681303 -0.722333 -0.691545 1706.8 61.7881)" stroke="#A89167" stroke-dasharray="2.2 2.2"/>
<line opacity="0.42" y1="-0.5" x2="1801.27" y2="-0.5" transform="matrix(-0.732001 0.681303 -0.722333 -0.691545 1687.57 56.7897)" stroke="#A89167" stroke-dasharray="2.2 2.2"/>
<line opacity="0.42" y1="-0.5" x2="1801.27" y2="-0.5" transform="matrix(-0.732001 0.681303 -0.722333 -0.691545 1668.35 51.7906)" stroke="#A89167" stroke-dasharray="2.2 2.2"/>
<line opacity="0.42" y1="-0.5" x2="1801.27" y2="-0.5" transform="matrix(-0.732001 0.681303 -0.722333 -0.691545 1649.12 46.7909)" stroke="#A89167" stroke-dasharray="2.2 2.2"/>
<line opacity="0.42" y1="-0.5" x2="1801.27" y2="-0.5" transform="matrix(-0.732001 0.681303 -0.722333 -0.691545 1629.9 41.795)" stroke="#A89167" stroke-dasharray="2.2 2.2"/>
<line opacity="0.42" y1="-0.5" x2="1801.27" y2="-0.5" transform="matrix(-0.732001 0.681303 -0.722333 -0.691545 1610.68 36.7961)" stroke="#A89167" stroke-dasharray="2.2 2.2"/>
<line opacity="0.42" y1="-0.5" x2="1801.27" y2="-0.5" transform="matrix(-0.732001 0.681303 -0.722333 -0.691545 1591.46 31.7979)" stroke="#A89167" stroke-dasharray="2.2 2.2"/>
<line opacity="0.42" y1="-0.5" x2="1801.27" y2="-0.5" transform="matrix(-0.732001 0.681303 -0.722333 -0.691545 1572.24 26.7986)" stroke="#A89167" stroke-dasharray="2.2 2.2"/>
<line opacity="0.42" y1="-0.5" x2="1801.27" y2="-0.5" transform="matrix(-0.732001 0.681303 -0.722333 -0.691545 1553.01 21.8004)" stroke="#A89167" stroke-dasharray="2.2 2.2"/>
<line opacity="0.42" y1="-0.5" x2="1801.27" y2="-0.5" transform="matrix(-0.732001 0.681303 -0.722333 -0.691545 1533.79 16.8015)" stroke="#A89167" stroke-dasharray="2.2 2.2"/>
<line opacity="0.42" y1="-0.5" x2="1801.27" y2="-0.5" transform="matrix(-0.732001 0.681303 -0.722333 -0.691545 1514.56 11.8046)" stroke="#A89167" stroke-dasharray="2.2 2.2"/>
<line opacity="0.42" y1="-0.5" x2="1801.27" y2="-0.5" transform="matrix(-0.732001 0.681303 -0.722333 -0.691545 1495.34 6.80487)" stroke="#A89167" stroke-dasharray="2.2 2.2"/>
<line opacity="0.42" y1="-0.5" x2="1801.27" y2="-0.5" transform="matrix(-0.732001 0.681303 -0.722333 -0.691545 1476.12 1.80811)" stroke="#A89167" stroke-dasharray="2.2 2.2"/>
<line opacity="0.42" y1="-0.5" x2="1801.27" y2="-0.5" transform="matrix(-0.732001 0.681303 -0.722333 -0.691545 1456.89 -3.19092)" stroke="#A89167" stroke-dasharray="2.2 2.2"/>
<line opacity="0.42" y1="-0.5" x2="1801.27" y2="-0.5" transform="matrix(-0.732001 0.681303 -0.722333 -0.691545 1437.67 -8.19)" stroke="#A89167" stroke-dasharray="2.2 2.2"/>
<line opacity="0.42" y1="-0.5" x2="1801.27" y2="-0.5" transform="matrix(-0.732001 0.681303 -0.722333 -0.691545 1418.45 -13.1882)" stroke="#A89167" stroke-dasharray="2.2 2.2"/>
<line opacity="0.42" y1="-0.5" x2="1801.27" y2="-0.5" transform="matrix(-0.732001 0.681303 -0.722333 -0.691545 1399.22 -18.1866)" stroke="#A89167" stroke-dasharray="2.2 2.2"/>
<line opacity="0.42" y1="-0.5" x2="1801.27" y2="-0.5" transform="matrix(-0.732001 0.681303 -0.722333 -0.691545 1380 -23.1854)" stroke="#A89167" stroke-dasharray="2.2 2.2"/>
<line opacity="0.42" y1="-0.5" x2="1801.27" y2="-0.5" transform="matrix(-0.732001 0.681303 -0.722333 -0.691545 1360.78 -28.1823)" stroke="#A89167" stroke-dasharray="2.2 2.2"/>
<line opacity="0.42" y1="-0.5" x2="1801.27" y2="-0.5" transform="matrix(-0.732001 0.681303 -0.722333 -0.691545 1341.56 -33.1819)" stroke="#A89167" stroke-dasharray="2.2 2.2"/>
<line opacity="0.42" y1="-0.5" x2="1801.27" y2="-0.5" transform="matrix(-0.732001 0.681303 -0.722333 -0.691545 1322.33 -38.1794)" stroke="#A89167" stroke-dasharray="2.2 2.2"/>
<line opacity="0.42" y1="-0.5" x2="1801.27" y2="-0.5" transform="matrix(-0.732001 0.681303 -0.722333 -0.691545 1303.11 -43.1777)" stroke="#A89167" stroke-dasharray="2.2 2.2"/>
<line opacity="0.42" y1="-0.5" x2="1801.27" y2="-0.5" transform="matrix(-0.732001 0.681303 -0.722333 -0.691545 1283.88 -48.1769)" stroke="#A89167" stroke-dasharray="2.2 2.2"/>
<line opacity="0.42" y1="-0.5" x2="1801.27" y2="-0.5" transform="matrix(-0.732001 0.681303 -0.722333 -0.691545 1264.66 -53.1743)" stroke="#A89167" stroke-dasharray="2.2 2.2"/>
<line opacity="0.42" y1="-0.5" x2="1801.27" y2="-0.5" transform="matrix(-0.732001 0.681303 -0.722333 -0.691545 1245.44 -58.1717)" stroke="#A89167" stroke-dasharray="2.2 2.2"/>
<line opacity="0.42" y1="-0.5" x2="1801.27" y2="-0.5" transform="matrix(-0.732001 0.681303 -0.722333 -0.691545 1226.21 -63.1714)" stroke="#A89167" stroke-dasharray="2.2 2.2"/>
<line opacity="0.42" y1="-0.5" x2="1801.27" y2="-0.5" transform="matrix(-0.732001 0.681303 -0.722333 -0.691545 1206.99 -68.1692)" stroke="#A89167" stroke-dasharray="2.2 2.2"/>
<line opacity="0.42" y1="-0.5" x2="1801.27" y2="-0.5" transform="matrix(-0.732001 0.681303 -0.722333 -0.691545 1187.77 -73.168)" stroke="#A89167" stroke-dasharray="2.2 2.2"/>
<line opacity="0.42" y1="-0.5" x2="1801.27" y2="-0.5" transform="matrix(-0.732001 0.681303 -0.722333 -0.691545 1168.54 -78.1663)" stroke="#A89167" stroke-dasharray="2.2 2.2"/>
<line opacity="0.42" y1="-0.5" x2="1801.27" y2="-0.5" transform="matrix(-0.732001 0.681303 -0.722333 -0.691545 1149.33 -83.1647)" stroke="#A89167" stroke-dasharray="2.2 2.2"/>
<line opacity="0.42" y1="-0.5" x2="1801.27" y2="-0.5" transform="matrix(-0.732001 0.681303 -0.722333 -0.691545 1130.1 -88.1629)" stroke="#A89167" stroke-dasharray="2.2 2.2"/>
<line opacity="0.42" y1="-0.5" x2="1801.27" y2="-0.5" transform="matrix(-0.732001 0.681303 -0.722333 -0.691545 1110.88 -93.1635)" stroke="#A89167" stroke-dasharray="2.2 2.2"/>
</g>
<rect x="-116.582" y="896.552" width="744" height="246.381" transform="rotate(24.5716 -116.582 896.552)" fill="url(#paint0_linear_6511_4946)"/>
<rect x="1370.55" y="474.573" width="744" height="450.518" transform="rotate(-130.735 1370.55 474.573)" fill="url(#paint1_linear_6511_4946)"/>
</g>
<defs>
<linearGradient id="paint0_linear_6511_4946" x1="255.418" y1="896.552" x2="255.418" y2="1142.93" gradientUnits="userSpaceOnUse">
<stop stop-color="#2F2E2E" stop-opacity="0"/>
<stop offset="0.911458" stop-color="#2F2E2E"/>
</linearGradient>
<linearGradient id="paint1_linear_6511_4946" x1="1742.55" y1="474.573" x2="1742.55" y2="925.091" gradientUnits="userSpaceOnUse">
<stop stop-color="#2F2E2E" stop-opacity="0"/>
<stop offset="0.776042" stop-color="#2F2E2E"/>
</linearGradient>
</defs>
</svg>
