<svg width="20" height="20" viewBox="0 0 20 20" fill="none" xmlns="http://www.w3.org/2000/svg">
<path d="M18.9027 2.87608C18.1994 2.17229 17.2452 1.77702 16.2503 1.77735C15.2557 1.77501 14.3015 2.17016 13.5998 2.87487L8.75782 7.71687C7.79981 8.67638 7.43357 10.0779 7.79973 11.3834C7.90694 11.7635 8.30196 11.9847 8.68203 11.8775C9.0621 11.7703 9.2833 11.3752 9.17609 10.9952C8.95036 10.1878 9.17685 9.32147 9.76882 8.72791L14.6108 3.88662C15.516 2.98115 16.9839 2.98098 17.8894 3.88628C18.7949 4.79154 18.795 6.25944 17.8898 7.16491L13.0478 12.0069C12.7305 12.3246 12.3275 12.543 11.8881 12.6354C11.5015 12.7159 11.2533 13.0945 11.3338 13.4811C11.403 13.8135 11.6965 14.0514 12.0361 14.0504C12.086 14.0504 12.1359 14.0451 12.1848 14.0347C12.8949 13.8849 13.5461 13.5316 14.0588 13.0179L18.9008 8.17666C20.365 6.71345 20.3659 4.34034 18.9027 2.87608Z" fill="#666E77"/>
<path d="M12.1789 8.63603C12.0717 8.25596 11.6766 8.03476 11.2966 8.14197C10.9165 8.24918 10.6953 8.6442 10.8025 9.02427C11.0282 9.83162 10.8017 10.698 10.2098 11.2915L5.36777 16.1335C4.46251 17.039 2.99461 17.0392 2.08915 16.1339C1.18368 15.2286 1.18351 13.7607 2.08877 12.8552L6.93077 8.01251C7.24758 7.69487 7.6501 7.47647 8.08907 7.38401C8.47631 7.30655 8.72742 6.92987 8.64996 6.54269C8.57249 6.1555 8.19582 5.90434 7.80863 5.9818C7.8039 5.98276 7.79921 5.98373 7.79451 5.98478C7.08423 6.13472 6.43286 6.48797 5.91977 7.00151L1.07777 11.8435C-0.374966 13.3187 -0.356784 15.6922 1.11837 17.1449C2.57743 18.5818 4.9195 18.5819 6.37877 17.1452L11.2207 12.3025C12.1788 11.343 12.545 9.94151 12.1789 8.63603Z" fill="#666E77"/>
</svg>
