<svg width="20" height="20" viewBox="0 0 20 20" fill="none" xmlns="http://www.w3.org/2000/svg">
<path d="M18.5289 3.33328C18.5289 4.8291 17.3164 6.04172 15.8206 6.04172C14.3248 6.04172 13.1123 4.8291 13.1123 3.33328C13.1123 1.83762 14.3248 0.625 15.8206 0.625C17.3164 0.625 18.5289 1.83762 18.5289 3.33328Z" fill="#666E77"/>
<path d="M15.8206 6.66672C13.9822 6.66672 12.4873 5.17166 12.4873 3.33328C12.4873 1.49506 13.9822 0 15.8206 0C17.659 0 19.1539 1.49506 19.1539 3.33328C19.1539 5.17166 17.659 6.66672 15.8206 6.66672ZM15.8206 1.25C14.6714 1.25 13.7373 2.18506 13.7373 3.33328C13.7373 4.48166 14.6714 5.41672 15.8206 5.41672C16.9697 5.41672 17.9039 4.48166 17.9039 3.33328C17.9039 2.18506 16.9697 1.25 15.8206 1.25Z" fill="#666E77"/>
<path d="M18.5289 16.6664C18.5289 18.1621 17.3164 19.3747 15.8206 19.3747C14.3248 19.3747 13.1123 18.1621 13.1123 16.6664C13.1123 15.1706 14.3248 13.958 15.8206 13.958C17.3164 13.958 18.5289 15.1706 18.5289 16.6664Z" fill="#666E77"/>
<path d="M15.8206 19.9997C13.9822 19.9997 12.4873 18.5047 12.4873 16.6664C12.4873 14.8281 13.9822 13.333 15.8206 13.333C17.659 13.333 19.1539 14.8281 19.1539 16.6664C19.1539 18.5047 17.659 19.9997 15.8206 19.9997ZM15.8206 14.583C14.6714 14.583 13.7373 15.5181 13.7373 16.6664C13.7373 17.8147 14.6714 18.7497 15.8206 18.7497C16.9697 18.7497 17.9039 17.8147 17.9039 16.6664C17.9039 15.5181 16.9697 14.583 15.8206 14.583Z" fill="#666E77"/>
<path d="M6.86203 10.0003C6.86203 11.4961 5.64941 12.7086 4.15359 12.7086C2.65793 12.7086 1.44531 11.4961 1.44531 10.0003C1.44531 8.50446 2.65793 7.29199 4.15359 7.29199C5.64941 7.29199 6.86203 8.50446 6.86203 10.0003Z" fill="#666E77"/>
<path d="M4.15359 13.3336C2.31537 13.3336 0.820312 11.8387 0.820312 10.0003C0.820312 8.1619 2.31537 6.66699 4.15359 6.66699C5.99197 6.66699 7.48703 8.1619 7.48703 10.0003C7.48703 11.8387 5.99197 13.3336 4.15359 13.3336ZM4.15359 7.91699C3.00446 7.91699 2.07031 8.8519 2.07031 10.0003C2.07031 11.1487 3.00446 12.0836 4.15359 12.0836C5.30289 12.0836 6.23703 11.1487 6.23703 10.0003C6.23703 8.8519 5.30289 7.91699 4.15359 7.91699Z" fill="#666E77"/>
<path d="M6.12225 9.60047C5.83218 9.60047 5.5505 9.44956 5.39715 9.17964C5.16964 8.78047 5.30972 8.27128 5.70889 8.04286L13.4413 3.63459C13.8405 3.4054 14.3496 3.54548 14.5781 3.94618C14.8056 4.34535 14.6655 4.85453 14.2663 5.08296L6.53378 9.49122C6.40378 9.56538 6.26217 9.60047 6.12225 9.60047Z" fill="#666E77"/>
<path d="M13.853 16.4753C13.7129 16.4753 13.5713 16.4402 13.4413 16.3661L5.70877 11.9578C5.30961 11.7303 5.16968 11.2211 5.39719 10.821C5.62378 10.4211 6.13373 10.2802 6.53382 10.5094L14.2664 14.9177C14.6655 15.1452 14.8054 15.6544 14.5779 16.0545C14.4238 16.3244 14.1421 16.4753 13.853 16.4753Z" fill="#666E77"/>
</svg>
