<svg width="1182" height="874" viewBox="0 0 1182 874" fill="none" xmlns="http://www.w3.org/2000/svg">
<path d="M821.985 311.482C835.775 275.424 845.101 126.017 850.249 105.969C877.426 220.968 856.522 290.698 839.597 324.37C859.274 298.849 876.632 271.186 890.158 240.857C861.333 167.218 928.324 81.8839 976.371 41.2523C966.686 58.6003 908.539 188.129 900.08 219.645C898.064 227.193 945.854 126.252 960.187 98.6452C973.493 73.007 986.553 47.1467 1001.81 22.8009L1001.86 22.7682C990.491 175.249 919.602 228.636 898.022 241.47C883.291 275.49 863.71 306.247 841.507 334.38C894.64 273.13 998.03 259.57 1051.54 265.655C1044.68 268.613 1037.7 271.296 1030.74 273.94C1016.4 279.322 864.508 327.218 863.938 330.249C863.281 333.735 1036.3 286.212 1056.16 277.776C953.452 377.139 838.846 342.224 835.953 341.355C834.309 343.359 832.665 345.364 830.991 347.345C818.066 362.731 804.43 377.405 790.265 391.532C847.582 363.163 945.889 389.441 991.704 411.224C984.151 410.933 976.581 410.268 969.028 409.848C951.662 408.903 783.293 406.358 782.63 409.834C782.047 412.888 884.115 421.45 919.038 422.178C937.088 422.56 955.009 421.166 973.134 422.593C977.441 422.929 981.828 423.342 986.219 423.61C847.453 485.555 756.843 423.133 756.843 423.133C756.893 423.054 756.939 422.971 756.98 422.887C734.318 443.195 710.751 462.408 686.923 480.941C684.985 482.456 683.035 483.951 681.091 485.456C677.707 488.064 673.708 481.33 677.062 478.742C728.592 439.032 778.596 396.375 821.629 346.381C763.188 274.932 809.196 145.284 839.971 96.571C826.886 143.644 819.223 318.696 821.985 311.482Z" fill="#2D3129" fill-opacity="0.05"/>
<path opacity="0.08" d="M480.375 813.582C426.308 795.436 376.618 766.22 334.473 727.798C324.137 718.361 314.183 708.434 304.504 698.23C279.96 705.764 146.294 742.237 55.5284 670.465C113.047 678.783 230.296 691.938 265.082 686.99C265.082 686.99 70.2139 658.651 44.4845 652.412C132.196 587.012 249.013 655.211 291.857 684.731C273.469 664.753 255.612 644.086 237.142 624.219C87.3328 599.669 24.3271 384.523 14.2347 346.13C36.4452 378.49 177.356 562.752 215.027 589.005C236.781 604.209 56.1953 380.533 37.4922 353.677C93.1278 386.219 225.04 477.245 247.975 619.38C271.596 644.925 294.257 671.597 318.422 696.411C295.364 651.787 240.949 529.109 277.187 424.956C279.705 454.179 301.41 601.801 320.608 675.615C323.22 685.649 304.47 506.84 291.577 423.128C377.079 511.649 338.806 674.196 329.716 707.543C330.682 708.487 331.633 709.453 332.616 710.374C348.728 725.898 366.106 740.051 384.571 752.687C376.249 714.666 357.275 600.832 406.995 524.93C404.804 543.005 392.042 715.414 392.042 715.414C401.234 713.794 418.778 542.106 421.969 520.215C471.743 611.968 410.472 727.456 392.378 757.917C418.978 775.182 447.522 789.25 477.417 799.83C479.641 800.61 481.844 801.373 484.063 802.113C490.813 804.559 487.04 815.862 480.375 813.582Z" fill="#DAA132"/>
</svg>
