<svg width="24" height="24" viewBox="0 0 24 24" fill="none" xmlns="http://www.w3.org/2000/svg">
<g clip-path="url(#clip0_101_658)">
<path d="M21.3161 14.4235L13.0525 22.6871C12.6132 23.1264 11.901 23.1264 11.4618 22.6871C11.0238 22.2491 11.0213 21.5368 11.4618 21.0964L19.7254 12.8328C21.9217 10.6365 21.9217 7.07555 19.7254 4.87928C17.5352 2.68912 13.9742 2.67693 11.7718 4.87928L3.60899 13.0421C2.2912 14.3599 2.2912 16.4964 3.60899 17.8142C4.92308 19.1283 7.05968 19.1356 8.38109 17.8142L16.5439 9.65133C16.9832 9.21205 16.9832 8.49987 16.5439 8.06063C16.1059 7.62262 15.3937 7.62018 14.9532 8.06063L6.79039 16.2235C6.35111 16.6628 5.63892 16.6628 5.19969 16.2235C4.76168 15.7855 4.75924 15.0732 5.19969 14.6328L13.3625 6.46994C14.6803 5.15214 16.8169 5.15214 18.1346 6.46994C19.4487 7.78403 19.456 9.92063 18.1346 11.242L9.97179 19.4049C7.77548 21.6012 4.21456 21.6012 2.01829 19.4049C-0.171876 17.2148 -0.184061 13.6537 2.01829 11.4514L10.1811 3.28854C13.256 0.213716 18.2413 0.213716 21.3161 3.28854C24.3823 6.35478 24.3993 11.3402 21.3161 14.4235Z" fill="#3D4697"/>
<path d="M21.5822 14.6881L13.3186 22.9517C13.0263 23.244 12.6422 23.3902 12.2582 23.3902C10.9321 23.3902 10.2511 21.7774 11.1977 20.8308L19.4614 12.5671C21.5079 10.5205 21.5079 7.19047 19.4614 5.14386C17.41 3.09251 14.0897 3.09223 12.0381 5.14386L3.87513 13.3067C3.3086 13.8732 2.99661 14.6265 2.99661 15.4276C2.99661 17.0853 4.33812 18.4271 5.99607 18.4271C6.79726 18.4271 7.5505 18.1151 8.11702 17.5485L16.2799 9.3857C16.5729 9.09274 16.573 8.61831 16.2799 8.32521C15.9875 8.0329 15.5118 8.03285 15.2194 8.32525L7.05657 16.4881C6.47046 17.0742 5.52183 17.0743 4.93567 16.4881C4.34961 15.9021 4.34951 14.9533 4.93567 14.3672L13.0985 6.20431C13.8067 5.4962 14.7482 5.10613 15.7497 5.10613C17.8217 5.10613 19.499 6.78302 19.499 8.85546C19.499 9.85695 19.109 10.7985 18.4008 11.5067L10.238 19.6695C7.89361 22.0139 4.09887 22.0142 1.75423 19.6695C-0.584742 17.3305 -0.584742 13.5247 1.75423 11.1857L9.91707 3.02286C13.1332 -0.193168 18.3661 -0.193168 21.5822 3.02286C24.8057 6.24635 24.8062 11.4641 21.5822 14.6881ZM19.9915 4.61361C22.3305 6.95258 22.3305 10.7584 19.9915 13.0974L11.7279 21.361C11.4356 21.6534 11.4356 22.1291 11.7279 22.4215C12.0203 22.7139 12.496 22.7139 12.7884 22.4215C21.2988 13.911 21.0472 14.1578 21.052 14.1578C23.9825 11.2274 23.9829 6.48401 21.052 3.55321C18.1282 0.629387 13.371 0.629387 10.4473 3.55321L2.28448 11.716C0.237907 13.7626 0.237907 17.0927 2.28448 19.1393C4.33583 21.1906 7.65614 21.1909 9.70777 19.1393L17.8706 10.9764C18.4371 10.4099 18.7491 9.65669 18.7491 8.8555C18.7491 7.19783 17.4076 5.85604 15.7497 5.85604C14.9485 5.85604 14.1952 6.16803 13.6287 6.7346L5.46587 14.8974C5.17286 15.1904 5.17277 15.6648 5.46587 15.9579C5.75898 16.251 6.23317 16.251 6.52632 15.9579L14.6892 7.79501C15.2739 7.21035 16.2254 7.21025 16.8101 7.79501C17.3962 8.38117 17.3963 9.32979 16.8101 9.916L8.64727 18.0788C7.93912 18.7869 6.99757 19.177 5.99612 19.177C3.9241 19.177 2.2468 17.5001 2.2468 15.4276C2.2468 14.4262 2.63677 13.4846 3.34497 12.7765L11.5078 4.61361C13.8521 2.26925 17.6469 2.26897 19.9915 4.61361Z" fill="#0D0B49"/>
</g>
<defs>
<clipPath id="clip0_101_658">
<rect width="24" height="24" fill="white"/>
</clipPath>
</defs>
</svg>
