<svg width="28" height="28" viewBox="0 0 28 28" fill="none" xmlns="http://www.w3.org/2000/svg">
<path d="M15.0939 6.34375C15.8053 7.33963 16.1877 8.53289 16.1877 9.75674V10.9375C16.5625 10.9375 16.9267 10.8122 17.2222 10.5815C17.5177 10.3508 17.7276 10.0279 17.8185 9.66421L17.9377 9.1875L18.261 9.57551C18.7822 10.201 19.0651 10.9909 19.0595 11.8051C19.0538 12.6193 18.76 13.4052 18.2301 14.0234C18.0315 14.2551 17.9277 14.5531 17.9394 14.858C17.9511 15.1629 18.0774 15.4522 18.2931 15.668C18.4136 15.7884 18.5581 15.8821 18.7172 15.9429C18.8763 16.0037 19.0465 16.0303 19.2166 16.0209C19.3866 16.0114 19.5528 15.9662 19.7042 15.8882C19.8557 15.8102 19.9889 15.7011 20.0954 15.5681L21.0002 14.4375L21.8752 16.625C22.2719 17.9476 22.3032 19.353 21.9656 20.6919C21.6281 22.0308 20.9343 23.2534 19.9579 24.2298L19.8475 24.3401C18.3446 25.8431 16.3061 26.6875 14.1806 26.6875H13.2878C11.9039 26.6875 10.5435 26.3291 9.33916 25.6472C8.13482 24.9654 7.12759 23.9832 6.41554 22.7965C5.56292 21.3754 5.17179 19.725 5.29598 18.0725C5.42018 16.4199 6.0536 14.8465 7.10904 13.5688L10.6508 9.28134C10.9998 8.85887 11.2241 8.34745 11.2985 7.80452C11.3729 7.2616 11.2944 6.70869 11.0719 6.20791C10.7896 5.57267 10.7409 4.85807 10.9345 4.19041C11.1281 3.52275 11.5515 2.94504 12.1298 2.55937L14.0002 1.3125V2.93076C14.0001 4.15461 14.3825 5.34787 15.0939 6.34375Z" fill="#FE646F"/>
<path d="M17.2308 23.7022L17.2347 23.6983C17.9152 23.0126 18.4007 22.1579 18.6412 21.2223C18.8817 20.2867 18.8686 19.3039 18.6033 18.375L17.3305 19.6478C17.2104 19.7679 17.0678 19.8632 16.9109 19.9282C16.7539 19.9932 16.5857 20.0267 16.4158 20.0267C16.246 20.0267 16.0777 19.9932 15.9208 19.9282C15.7639 19.8632 15.6213 19.7679 15.5012 19.6478C15.2729 19.4196 15.1382 19.1142 15.1235 18.7918C15.1088 18.4693 15.2153 18.153 15.4219 17.905C15.8474 17.3944 16.1148 16.7709 16.1914 16.1107C16.2681 15.4505 16.1506 14.7823 15.8533 14.1879L13.7907 10.0625L13.4736 13.5516C13.4355 13.97 13.3134 14.3765 13.1144 14.7466C12.9154 15.1167 12.6437 15.4427 12.3157 15.7053L10.5124 17.1479C10.0338 17.5308 9.64742 18.0164 9.3819 18.5689C9.11637 19.1214 8.97851 19.7265 8.97852 20.3394V20.8359C8.97852 21.4351 9.11025 22.0269 9.36439 22.5695C9.61852 23.1121 9.98884 23.5922 10.4491 23.9758C11.1943 24.5968 12.1361 24.9325 13.1061 24.923L14.3703 24.9104C15.4456 24.8997 16.4734 24.4656 17.2308 23.7022Z" fill="#FF9B21"/>
<path d="M22.2942 16.4992C22.2905 16.4868 22.2863 16.4745 22.2813 16.4625L21.4063 14.275C21.3779 14.2039 21.3314 14.1416 21.2714 14.0941C21.2114 14.0467 21.14 14.0158 21.0643 14.0046C20.9886 13.9934 20.9113 14.0022 20.8401 14.0302C20.7689 14.0582 20.7063 14.1043 20.6585 14.1641L19.7538 15.295C19.6859 15.38 19.6007 15.4496 19.504 15.4995C19.4073 15.5493 19.3011 15.5782 19.1925 15.5842C19.0838 15.5902 18.9751 15.5732 18.8735 15.5344C18.7718 15.4956 18.6795 15.4357 18.6026 15.3588C18.4655 15.2205 18.3853 15.0358 18.3778 14.8413C18.3704 14.6467 18.4362 14.4565 18.5623 14.3081C19.1614 13.6123 19.4938 12.7263 19.5002 11.8081C19.5066 10.89 19.1865 9.99941 18.597 9.29539L18.2737 8.90711C18.222 8.84505 18.1541 8.79852 18.0776 8.77268C18.001 8.74684 17.9188 8.7427 17.8401 8.76072C17.7613 8.77874 17.6891 8.81821 17.6314 8.87477C17.5737 8.93132 17.5328 9.00274 17.5132 9.08112L17.394 9.55778C17.3455 9.75321 17.2501 9.9339 17.1161 10.0843C16.9822 10.2346 16.8137 10.3502 16.6251 10.4209V9.75673C16.6275 8.44133 16.2164 7.15846 15.4499 6.08945C14.7897 5.1687 14.4356 4.06373 14.4376 2.93075V1.31249C14.4376 1.2333 14.4161 1.1556 14.3754 1.08767C14.3347 1.01974 14.2764 0.964123 14.2065 0.926759C14.1367 0.889396 14.0581 0.871684 13.979 0.875511C13.8999 0.879339 13.8233 0.904563 13.7574 0.948493L11.8871 2.19537C11.2216 2.63718 10.7342 3.30065 10.5117 4.06786C10.2892 4.83508 10.3459 5.65634 10.6718 6.38569C10.863 6.81176 10.9307 7.28293 10.8674 7.7456C10.804 8.20828 10.612 8.64388 10.3134 9.00287L6.77158 13.2904C5.7505 14.5265 5.10208 16.0276 4.90201 17.6183C4.70193 19.2091 4.95846 20.824 5.64165 22.2745C6.32484 23.725 7.4065 24.9512 8.76038 25.8101C10.1143 26.6689 11.6845 27.125 13.2878 27.125H14.1806C15.2909 27.128 16.3909 26.9108 17.4167 26.4858C18.4425 26.0609 19.3739 25.4367 20.1568 24.6495L20.2672 24.5391C21.3004 23.5075 22.0345 22.215 22.3915 20.7992C22.7484 19.3835 22.7148 17.8974 22.2942 16.4992ZM19.6485 23.9203L19.5382 24.0307C18.8362 24.7364 18.0013 25.296 17.0817 25.6769C16.162 26.0579 15.176 26.2527 14.1806 26.25H13.2878C11.8505 26.25 10.4428 25.8411 9.22903 25.0712C8.0153 24.3012 7.04561 23.2019 6.43316 21.9016C5.8207 20.6012 5.59074 19.1535 5.77013 17.7274C5.94952 16.3013 6.53085 14.9556 7.44626 13.8475L10.988 9.55997C11.3909 9.07582 11.6498 8.48831 11.7353 7.8643C11.8207 7.24028 11.7293 6.60481 11.4715 6.03016C11.2299 5.48938 11.1878 4.88046 11.3528 4.3116C11.5178 3.74275 11.8791 3.25081 12.3726 2.9232L13.5626 2.12996V2.93075C13.5603 4.24615 13.9714 5.52902 14.7379 6.59804C15.3981 7.51879 15.7522 8.62375 15.7501 9.75673V10.9375C15.7501 11.0535 15.7962 11.1648 15.8783 11.2469C15.9603 11.3289 16.0716 11.375 16.1876 11.375C16.5969 11.3755 16.9976 11.2572 17.341 11.0345C17.6844 10.8118 17.9558 10.4942 18.1224 10.1204C18.485 10.6653 18.6594 11.3139 18.619 11.9672C18.5785 12.6206 18.3253 13.2427 17.8981 13.7387C17.7557 13.9049 17.6478 14.0977 17.5807 14.3061C17.5135 14.5144 17.4886 14.734 17.5072 14.952C17.5258 15.1701 17.5877 15.3823 17.6892 15.5762C17.7907 15.7701 17.9298 15.9419 18.0983 16.0815C18.2669 16.2211 18.4616 16.3257 18.671 16.3893C18.8804 16.4529 19.1004 16.4741 19.3181 16.4518C19.5359 16.4294 19.747 16.364 19.9391 16.2592C20.1313 16.1545 20.3007 16.0125 20.4374 15.8416L20.873 15.2971L21.4618 16.7691C21.8326 18.0139 21.8598 19.3357 21.5405 20.5946C21.2213 21.8535 20.5675 23.0027 19.6485 23.9203Z" fill="#0D0B49"/>
<path d="M18.7131 17.9516C18.6394 17.9324 18.5619 17.9329 18.4884 17.9529C18.4149 17.9729 18.3479 18.0118 18.294 18.0657L17.0212 19.3385C16.8656 19.4951 16.6555 19.5856 16.4348 19.5909C16.2141 19.5963 15.9998 19.5162 15.8368 19.3673C15.6737 19.2185 15.5745 19.0124 15.5598 18.7921C15.5451 18.5718 15.6161 18.3543 15.758 18.1851C16.2379 17.6092 16.5396 16.9059 16.626 16.1612C16.7125 15.4165 16.5799 14.6628 16.2447 13.9922L14.182 9.86688C14.1395 9.78176 14.0703 9.71283 13.9851 9.67055C13.8998 9.62827 13.8031 9.61494 13.7096 9.63259C13.6161 9.65024 13.5308 9.6979 13.4669 9.76834C13.4029 9.83879 13.3636 9.92818 13.355 10.023L13.0378 13.512C13.0044 13.8716 12.8991 14.2208 12.7281 14.5389C12.5571 14.857 12.3239 15.1375 12.0424 15.3637L10.2392 16.8062C9.7081 17.2291 9.27949 17.7665 8.98542 18.3783C8.69135 18.9902 8.53943 19.6606 8.54103 20.3394V20.836C8.54104 21.4302 8.65808 22.0186 8.88548 22.5675C9.11288 23.1165 9.44618 23.6153 9.86635 24.0355C10.2865 24.4556 10.7853 24.7889 11.3343 25.0163C11.8833 25.2437 12.4717 25.3607 13.0659 25.3607C13.0807 25.3607 13.0955 25.3607 13.1104 25.3607L14.3747 25.3482C15.5656 25.3394 16.7043 24.8586 17.5411 24.0113L17.5454 24.007C18.2802 23.2657 18.8044 22.3422 19.0643 21.3313C19.3241 20.3204 19.3103 19.2585 19.0241 18.2547C19.0031 18.1815 18.9634 18.115 18.9089 18.0618C18.8543 18.0087 18.7869 17.9706 18.7131 17.9516ZM16.9255 23.389L16.9216 23.3929L16.9204 23.3941C16.2453 24.0777 15.3266 24.4656 14.3659 24.4727L13.1016 24.4852C12.6194 24.4899 12.1409 24.3991 11.694 24.2178C11.2471 24.0366 10.8405 23.7685 10.4978 23.4292C10.155 23.0899 9.88296 22.686 9.69726 22.2409C9.51156 21.7958 9.41592 21.3183 9.41586 20.836V20.3394C9.41458 19.7919 9.53712 19.2511 9.77432 18.7576C10.0115 18.2641 10.3572 17.8306 10.7856 17.4896L12.5888 16.047C12.9623 15.7469 13.2716 15.3749 13.4984 14.9531C13.7253 14.5312 13.8651 14.068 13.9094 13.591L14.0874 11.6338L15.4623 14.3836C15.7214 14.902 15.8239 15.4846 15.7571 16.0603C15.6902 16.636 15.457 17.1797 15.086 17.625C14.8008 17.9672 14.6586 18.4063 14.6889 18.8508C14.7191 19.2952 14.9196 19.7109 15.2486 20.0114C15.5776 20.3118 16.0097 20.4738 16.4551 20.4637C16.9005 20.4537 17.3249 20.2722 17.6399 19.9572L18.3377 19.2595C18.4294 20.0097 18.35 20.7711 18.1055 21.4863C17.8609 22.2015 17.4575 22.852 16.9255 23.389Z" fill="#0D0B49"/>
</svg>
