<svg width="24" height="24" viewBox="0 0 24 24" fill="none" xmlns="http://www.w3.org/2000/svg">
<g clip-path="url(#clip0_101_420)">
<path d="M14.7773 22.3328H1.95312V1.19664C1.95312 0.732063 2.32972 0.355469 2.7943 0.355469H13.9361C14.4007 0.355469 14.7773 0.732063 14.7773 1.19664V22.3328H14.7773Z" fill="#5C63AB"/>
<path d="M3.71191 4.28558V2.84314C3.71191 2.65255 3.86641 2.49805 4.05701 2.49805H5.49945C5.69004 2.49805 5.84454 2.65255 5.84454 2.84314V4.28558C5.84454 4.47617 5.69004 4.63067 5.49945 4.63067H4.05701C3.86641 4.63072 3.71191 4.47617 3.71191 4.28558Z" fill="white"/>
<path d="M7.29785 4.28558V2.84314C7.29785 2.65255 7.45235 2.49805 7.64295 2.49805H9.08538C9.27598 2.49805 9.43048 2.65255 9.43048 2.84314V4.28558C9.43048 4.47617 9.27598 4.63067 9.08538 4.63067H7.64295C7.45235 4.63072 7.29785 4.47617 7.29785 4.28558Z" fill="white"/>
<path d="M10.8848 4.28558V2.84314C10.8848 2.65255 11.0393 2.49805 11.2299 2.49805H12.6723C12.8629 2.49805 13.0174 2.65255 13.0174 2.84314V4.28558C13.0174 4.47617 12.8629 4.63067 12.6723 4.63067H11.2299C11.0393 4.63072 10.8848 4.47617 10.8848 4.28558Z" fill="white"/>
<path d="M3.71191 8.67425V7.23181C3.71191 7.04122 3.86641 6.88672 4.05701 6.88672H5.49945C5.69004 6.88672 5.84454 7.04122 5.84454 7.23181V8.67425C5.84454 8.86484 5.69004 9.01934 5.49945 9.01934H4.05701C3.86641 9.01934 3.71191 8.86484 3.71191 8.67425Z" fill="white"/>
<path d="M7.29785 8.67425V7.23181C7.29785 7.04122 7.45235 6.88672 7.64295 6.88672H9.08538C9.27598 6.88672 9.43048 7.04122 9.43048 7.23181V8.67425C9.43048 8.86484 9.27598 9.01934 9.08538 9.01934H7.64295C7.45235 9.01934 7.29785 8.86484 7.29785 8.67425Z" fill="white"/>
<path d="M10.8848 8.67425V7.23181C10.8848 7.04122 11.0393 6.88672 11.2299 6.88672H12.6723C12.8629 6.88672 13.0174 7.04122 13.0174 7.23181V8.67425C13.0174 8.86484 12.8629 9.01934 12.6723 9.01934H11.2299C11.0393 9.01934 10.8848 8.86484 10.8848 8.67425Z" fill="white"/>
<path d="M3.71191 13.0629V11.6205C3.71191 11.4299 3.86641 11.2754 4.05701 11.2754H5.49945C5.69004 11.2754 5.84454 11.4299 5.84454 11.6205V13.0629C5.84454 13.2535 5.69004 13.408 5.49945 13.408H4.05701C3.86641 13.4081 3.71191 13.2535 3.71191 13.0629Z" fill="white"/>
<path d="M7.29785 13.0629V11.6205C7.29785 11.4299 7.45235 11.2754 7.64295 11.2754H9.08538C9.27598 11.2754 9.43048 11.4299 9.43048 11.6205V13.0629C9.43048 13.2535 9.27598 13.408 9.08538 13.408H7.64295C7.45235 13.4081 7.29785 13.2535 7.29785 13.0629Z" fill="white"/>
<path d="M3.71191 17.4516V16.0092C3.71191 15.8186 3.86641 15.6641 4.05701 15.6641H5.49945C5.69004 15.6641 5.84454 15.8186 5.84454 16.0092V17.4516C5.84454 17.6422 5.69004 17.7967 5.49945 17.7967H4.05701C3.86641 17.7967 3.71191 17.6422 3.71191 17.4516Z" fill="white"/>
<path d="M7.29785 17.4516V16.0092C7.29785 15.8186 7.45235 15.6641 7.64295 15.6641H9.08538C9.27598 15.6641 9.43048 15.8186 9.43048 16.0092V17.4516C9.43048 17.6422 9.27598 17.7967 9.08538 17.7967H7.64295C7.45235 17.7967 7.29785 17.6422 7.29785 17.4516Z" fill="white"/>
<path d="M22.0485 22.3326H10.8857V10.6866C10.8857 10.3886 11.1273 10.147 11.4254 10.147H21.5088C21.8068 10.147 22.0485 10.3886 22.0485 10.6866V22.3326Z" fill="#5C63AB"/>
<path d="M14.0303 13.8463H12.6642C12.5266 13.8463 12.415 13.7347 12.415 13.5971V12.2658C12.415 12.1282 12.5266 12.0166 12.6642 12.0166H14.0303C14.1679 12.0166 14.2794 12.1282 14.2794 12.2658V13.5971C14.2794 13.7347 14.1679 13.8463 14.0303 13.8463Z" fill="white"/>
<path d="M14.0303 16.7203H12.6642C12.5266 16.7203 12.415 16.6087 12.415 16.4711V15.1398C12.415 15.0022 12.5266 14.8906 12.6642 14.8906H14.0303C14.1679 14.8906 14.2794 15.0022 14.2794 15.1398V16.4711C14.2794 16.6087 14.1679 16.7203 14.0303 16.7203Z" fill="white"/>
<path d="M14.0303 19.5938H12.6642C12.5266 19.5938 12.415 19.4823 12.415 19.3446V18.0133C12.415 17.8757 12.5266 17.7642 12.6642 17.7642H14.0303C14.1679 17.7642 14.2794 17.8757 14.2794 18.0133V19.3446C14.2794 19.4822 14.1679 19.5938 14.0303 19.5938Z" fill="white"/>
<path d="M17.1494 13.8463H15.7834C15.6457 13.8463 15.5342 13.7347 15.5342 13.5971V12.2658C15.5342 12.1282 15.6457 12.0166 15.7834 12.0166H17.1494C17.287 12.0166 17.3986 12.1282 17.3986 12.2658V13.5971C17.3986 13.7347 17.287 13.8463 17.1494 13.8463Z" fill="white"/>
<path d="M17.1494 16.7203H15.7834C15.6457 16.7203 15.5342 16.6087 15.5342 16.4711V15.1398C15.5342 15.0022 15.6457 14.8906 15.7834 14.8906H17.1494C17.287 14.8906 17.3986 15.0022 17.3986 15.1398V16.4711C17.3986 16.6087 17.287 16.7203 17.1494 16.7203Z" fill="white"/>
<path d="M17.1494 19.5938H15.7834C15.6457 19.5938 15.5342 19.4823 15.5342 19.3446V18.0133C15.5342 17.8757 15.6457 17.7642 15.7834 17.7642H17.1494C17.287 17.7642 17.3986 17.8757 17.3986 18.0133V19.3446C17.3986 19.4822 17.287 19.5938 17.1494 19.5938Z" fill="white"/>
<path d="M20.2685 13.8463H18.9025C18.7649 13.8463 18.6533 13.7347 18.6533 13.5971V12.2658C18.6533 12.1282 18.7649 12.0166 18.9025 12.0166H20.2685C20.4062 12.0166 20.5177 12.1282 20.5177 12.2658V13.5971C20.5177 13.7347 20.4062 13.8463 20.2685 13.8463Z" fill="white"/>
<path d="M20.2685 16.7203H18.9025C18.7649 16.7203 18.6533 16.6087 18.6533 16.4711V15.1398C18.6533 15.0022 18.7649 14.8906 18.9025 14.8906H20.2685C20.4062 14.8906 20.5177 15.0022 20.5177 15.1398V16.4711C20.5177 16.6087 20.4062 16.7203 20.2685 16.7203Z" fill="white"/>
<path d="M20.2685 19.5938H18.9025C18.7649 19.5938 18.6533 19.4823 18.6533 19.3446V18.0133C18.6533 17.8757 18.7649 17.7642 18.9025 17.7642H20.2685C20.4062 17.7642 20.5177 17.8757 20.5177 18.0133V19.3446C20.5177 19.4822 20.4062 19.5938 20.2685 19.5938Z" fill="white"/>
<path d="M19.5857 1.23291C18.1286 1.23291 16.9473 2.41421 16.9473 3.87136C16.9473 5.9086 18.7791 7.41619 19.3901 7.8624C19.5066 7.94752 19.6648 7.94752 19.7814 7.8624C20.3923 7.41619 22.2242 5.9086 22.2242 3.87136C22.2242 2.41421 21.0429 1.23291 19.5857 1.23291ZM19.5857 5.18269C18.8615 5.18269 18.2744 4.59558 18.2744 3.87136C18.2744 3.14714 18.8615 2.56004 19.5857 2.56004C20.3099 2.56004 20.897 3.14714 20.897 3.87136C20.897 4.59558 20.3099 5.18269 19.5857 5.18269Z" fill="#5C63AB"/>
<path d="M22.7505 23.6446H1.24955C0.753609 23.6446 0.351562 23.2426 0.351562 22.7466C0.351562 22.2507 0.753609 21.8486 1.24955 21.8486H22.7505C23.2464 21.8486 23.6485 22.2507 23.6485 22.7466C23.6484 23.2426 23.2464 23.6446 22.7505 23.6446Z" fill="white"/>
<path d="M22.7505 21.4976H22.3989V10.6873C22.3989 10.1959 21.9991 9.79607 21.5077 9.79607H15.1284V1.19713C15.1284 0.539473 14.5934 0.00439453 13.9357 0.00439453H2.79389C2.13623 0.00439453 1.60116 0.539473 1.60116 1.19713V21.4975H1.24955C0.560531 21.4976 0 22.0581 0 22.7471C0 23.4361 0.560531 23.9966 1.2495 23.9966H22.7505C23.4395 23.9966 24 23.4361 24 22.7471C24 22.0581 23.4395 21.4976 22.7505 21.4976ZM2.30423 1.19713C2.30423 0.927129 2.52389 0.70752 2.79384 0.70752H13.9357C14.2057 0.70752 14.4253 0.927176 14.4253 1.19713V9.79607H11.4243C10.9328 9.79607 10.533 10.1958 10.533 10.6873V18.7724C10.533 18.9666 10.6904 19.124 10.8846 19.124C11.0788 19.124 11.2361 18.9666 11.2361 18.7724V10.6873C11.2361 10.5836 11.3205 10.4992 11.4243 10.4992H21.5077C21.6114 10.4992 21.6958 10.5836 21.6958 10.6873V21.4975H11.2362V20.416C11.2362 20.2218 11.0788 20.0644 10.8846 20.0644C10.6904 20.0644 10.533 20.2218 10.533 20.416V21.4975H2.30423V1.19713ZM22.7505 23.2935H1.2495C0.948188 23.2935 0.703125 23.0484 0.703125 22.7471C0.703125 22.4458 0.948234 22.2007 1.2495 22.2007H22.7505C23.0518 22.2007 23.2969 22.4458 23.2969 22.7471C23.2969 23.0484 23.0518 23.2935 22.7505 23.2935Z" fill="#0D0B49"/>
<path d="M5.4994 2.14648H4.05701C3.67287 2.14648 3.36035 2.459 3.36035 2.84314V4.28553C3.36035 4.66967 3.67287 4.98219 4.05701 4.98219H5.4994C5.88354 4.98219 6.19605 4.66967 6.19605 4.28553V2.84314C6.19605 2.459 5.88354 2.14648 5.4994 2.14648ZM5.49293 4.27911H4.06343V2.84961H5.49293V4.27911Z" fill="#0D0B49"/>
<path d="M9.08632 2.14648H7.64388C7.25978 2.14648 6.94727 2.459 6.94727 2.84314V4.28553C6.94727 4.66967 7.25978 4.98219 7.64388 4.98219H9.08632C9.47046 4.98219 9.78297 4.66967 9.78297 4.28553V2.84314C9.78297 2.459 9.47046 2.14648 9.08632 2.14648ZM9.07985 4.27911H7.65034V2.84961H9.07985V4.27911Z" fill="#0D0B49"/>
<path d="M11.2299 4.98223H12.6723C13.0564 4.98223 13.369 4.66972 13.369 4.28558V2.84314C13.369 2.459 13.0564 2.14648 12.6723 2.14648H11.2299C10.8457 2.14648 10.5332 2.459 10.5332 2.84314V4.28553C10.5332 4.66972 10.8457 4.98223 11.2299 4.98223ZM11.2363 2.84961H12.6659V4.27911H11.2363V2.84961Z" fill="#0D0B49"/>
<path d="M5.4994 6.53516H4.05701C3.67287 6.53516 3.36035 6.84767 3.36035 7.23181V8.6742C3.36035 9.05834 3.67287 9.37086 4.05701 9.37086H5.4994C5.88354 9.37086 6.19605 9.05834 6.19605 8.6742V7.23181C6.19605 6.84767 5.88354 6.53516 5.4994 6.53516ZM5.49293 8.66778H4.06343V7.23828H5.49293V8.66778Z" fill="#0D0B49"/>
<path d="M9.08632 6.53516H7.64388C7.25978 6.53516 6.94727 6.84767 6.94727 7.23181V8.6742C6.94727 9.05834 7.25978 9.37086 7.64388 9.37086H9.08632C9.47046 9.37086 9.78297 9.05834 9.78297 8.6742V7.23181C9.78297 6.84767 9.47046 6.53516 9.08632 6.53516ZM9.07985 8.66778H7.65034V7.23828H9.07985V8.66778Z" fill="#0D0B49"/>
<path d="M11.2299 9.37135H12.6723C13.0564 9.37135 13.369 9.05883 13.369 8.67469V7.2323C13.369 6.84816 13.0564 6.53564 12.6723 6.53564H11.2299C10.8457 6.53564 10.5332 6.84816 10.5332 7.2323V8.67469C10.5332 9.05883 10.8457 9.37135 11.2299 9.37135ZM11.2363 7.23872H12.6659V8.66822H11.2363V7.23872Z" fill="#0D0B49"/>
<path d="M5.4994 10.9233H4.05701C3.67287 10.9233 3.36035 11.2359 3.36035 11.62V13.0624C3.36035 13.4465 3.67287 13.759 4.05701 13.759H5.4994C5.88354 13.759 6.19605 13.4465 6.19605 13.0624V11.62C6.19605 11.2359 5.88354 10.9233 5.4994 10.9233ZM5.49293 13.056H4.06343V11.6265H5.49293V13.056Z" fill="#0D0B49"/>
<path d="M9.08632 10.9233H7.64388C7.25978 10.9233 6.94727 11.2359 6.94727 11.62V13.0624C6.94727 13.4465 7.25978 13.759 7.64388 13.759H9.08632C9.47046 13.759 9.78297 13.4465 9.78297 13.0624V11.62C9.78297 11.2359 9.47046 10.9233 9.08632 10.9233ZM9.07985 13.056H7.65034V11.6265H9.07985V13.056Z" fill="#0D0B49"/>
<path d="M5.4994 15.3125H4.05701C3.67287 15.3125 3.36035 15.625 3.36035 16.0091V17.4515C3.36035 17.8357 3.67287 18.1482 4.05701 18.1482H5.4994C5.88354 18.1482 6.19605 17.8357 6.19605 17.4515V16.0091C6.19605 15.625 5.88354 15.3125 5.4994 15.3125ZM5.49293 17.4451H4.06343V16.0156H5.49293V17.4451Z" fill="#0D0B49"/>
<path d="M9.08632 15.3125H7.64388C7.25978 15.3125 6.94727 15.625 6.94727 16.0091V17.4515C6.94727 17.8357 7.25978 18.1482 7.64388 18.1482H9.08632C9.47046 18.1482 9.78297 17.8357 9.78297 17.4515V16.0091C9.78297 15.625 9.47046 15.3125 9.08632 15.3125ZM9.07985 17.4451H7.65034V16.0156H9.07985V17.4451Z" fill="#0D0B49"/>
<path d="M12.6633 14.1983H14.0292C14.3605 14.1983 14.63 13.9288 14.63 13.5976V12.2663C14.63 11.935 14.3605 11.6655 14.0292 11.6655H12.6633C12.332 11.6655 12.0625 11.935 12.0625 12.2663V13.5976C12.0625 13.9288 12.332 14.1983 12.6633 14.1983ZM12.7656 12.3686H13.9269V13.4952H12.7656V12.3686Z" fill="#0D0B49"/>
<path d="M12.6633 17.0713H14.0292C14.3605 17.0713 14.63 16.8018 14.63 16.4706V15.1393C14.63 14.8081 14.3605 14.5386 14.0292 14.5386H12.6633C12.332 14.5386 12.0625 14.8081 12.0625 15.1393V16.4706C12.0625 16.8018 12.332 17.0713 12.6633 17.0713ZM12.7656 15.2417H13.9269V16.3682H12.7656V15.2417Z" fill="#0D0B49"/>
<path d="M12.6633 19.9454H14.0292C14.3605 19.9454 14.63 19.6759 14.63 19.3446V18.0133C14.63 17.6821 14.3605 17.4126 14.0292 17.4126H12.6633C12.332 17.4126 12.0625 17.6821 12.0625 18.0133V19.3446C12.0625 19.6759 12.332 19.9454 12.6633 19.9454ZM12.7656 18.1157H13.9269V19.2423H12.7656V18.1157Z" fill="#0D0B49"/>
<path d="M15.7824 14.1983H17.1484C17.4797 14.1983 17.7492 13.9288 17.7492 13.5976V12.2663C17.7492 11.935 17.4797 11.6655 17.1484 11.6655H15.7824C15.4511 11.6655 15.1816 11.935 15.1816 12.2663V13.5976C15.1816 13.9288 15.4511 14.1983 15.7824 14.1983ZM15.8848 12.3686H17.046V13.4952H15.8848V12.3686Z" fill="#0D0B49"/>
<path d="M15.7824 17.0713H17.1484C17.4797 17.0713 17.7492 16.8018 17.7492 16.4706V15.1393C17.7492 14.8081 17.4797 14.5386 17.1484 14.5386H15.7824C15.4511 14.5386 15.1816 14.8081 15.1816 15.1393V16.4706C15.1816 16.8018 15.4511 17.0713 15.7824 17.0713ZM15.8848 15.2417H17.046V16.3682H15.8848V15.2417Z" fill="#0D0B49"/>
<path d="M15.7824 19.9454H17.1484C17.4797 19.9454 17.7492 19.6759 17.7492 19.3446V18.0133C17.7492 17.6821 17.4797 17.4126 17.1484 17.4126H15.7824C15.4511 17.4126 15.1816 17.6821 15.1816 18.0133V19.3446C15.1816 19.6759 15.4511 19.9454 15.7824 19.9454ZM15.8848 18.1157H17.046V19.2423H15.8848V18.1157Z" fill="#0D0B49"/>
<path d="M18.9025 14.1983H20.2685C20.5998 14.1983 20.8693 13.9288 20.8693 13.5976V12.2663C20.8693 11.935 20.5998 11.6655 20.2685 11.6655H18.9025C18.5712 11.6655 18.3018 11.935 18.3018 12.2663V13.5976C18.3018 13.9288 18.5712 14.1983 18.9025 14.1983ZM19.0049 12.3686H20.1662V13.4952H19.0049V12.3686Z" fill="#0D0B49"/>
<path d="M18.9025 17.0713H20.2685C20.5998 17.0713 20.8693 16.8018 20.8693 16.4706V15.1393C20.8693 14.8081 20.5998 14.5386 20.2685 14.5386H18.9025C18.5712 14.5386 18.3018 14.8081 18.3018 15.1393V16.4706C18.3018 16.8018 18.5712 17.0713 18.9025 17.0713ZM19.0049 15.2417H20.1662V16.3682H19.0049V15.2417Z" fill="#0D0B49"/>
<path d="M18.9025 19.9454H20.2685C20.5998 19.9454 20.8693 19.6759 20.8693 19.3446V18.0133C20.8693 17.6821 20.5998 17.4126 20.2685 17.4126H18.9025C18.5712 17.4126 18.3018 17.6821 18.3018 18.0133V19.3446C18.3018 19.6759 18.5712 19.9454 18.9025 19.9454ZM19.0049 18.1157H20.1662V19.2423H19.0049V18.1157Z" fill="#0D0B49"/>
<path d="M19.1827 8.14636C19.4237 8.32233 19.7477 8.32243 19.9888 8.14636C20.5967 7.70232 22.0553 6.48502 22.4669 4.77549C22.5124 4.58672 22.3962 4.39683 22.2074 4.35136C22.0186 4.30613 21.8288 4.42214 21.7833 4.61086C21.4195 6.12179 20.0248 7.24749 19.5857 7.56999C19.0333 7.16442 17.2988 5.74022 17.2988 3.87141C17.2988 2.61043 18.3247 1.58452 19.5857 1.58452C20.5762 1.58452 21.4495 2.21621 21.7586 3.15633C21.8193 3.34079 22.018 3.44119 22.2024 3.38049C22.3869 3.31983 22.4872 3.12113 22.4266 2.93668C22.0223 1.70729 20.8806 0.881348 19.5857 0.881348C17.937 0.881348 16.5957 2.22268 16.5957 3.87136C16.5957 6.08494 18.5758 7.70311 19.1827 8.14636Z" fill="#0D0B49"/>
<path d="M19.5848 2.2085C18.6678 2.2085 17.9219 2.95446 17.9219 3.87143C17.9219 4.7884 18.6678 5.53437 19.5848 5.53437C20.5017 5.53437 21.2477 4.7884 21.2477 3.87143C21.2477 2.95446 20.5017 2.2085 19.5848 2.2085ZM19.5848 4.8312C19.0555 4.8312 18.625 4.40061 18.625 3.87139C18.625 3.34217 19.0555 2.91157 19.5848 2.91157C20.114 2.91157 20.5446 3.34217 20.5446 3.87139C20.5446 4.40061 20.114 4.8312 19.5848 4.8312Z" fill="#0D0B49"/>
</g>
<defs>
<clipPath id="clip0_101_420">
<rect width="24" height="24" fill="white"/>
</clipPath>
</defs>
</svg>
