<svg width="46" height="46" viewBox="0 0 46 46" fill="none" xmlns="http://www.w3.org/2000/svg">
<g clip-path="url(#clip0_101_287)">
<path d="M14.0537 27.2075H7.61085C6.56424 27.2075 5.71582 28.0559 5.71582 29.1025V43.4312C5.71582 44.4779 6.56424 45.3263 7.61085 45.3263H14.0537C15.1003 45.3263 15.9487 44.4779 15.9487 43.4312V29.1025C15.9486 28.0559 15.1002 27.2075 14.0537 27.2075Z" fill="#FED402"/>
<path d="M27.9472 20.6357H21.5044C20.4578 20.6357 19.6094 21.4842 19.6094 22.5308V43.4311C19.6094 44.4777 20.4578 45.3261 21.5044 45.3261H27.9472C28.9939 45.3261 29.8423 44.4777 29.8423 43.4311V22.5308C29.8423 21.4842 28.9939 20.6357 27.9472 20.6357Z" fill="#FE646F"/>
<path d="M41.8418 14.0645H35.3989C34.3523 14.0645 33.5039 14.9129 33.5039 15.9595V43.4314C33.5039 44.478 34.3523 45.3264 35.3989 45.3264H41.8418C42.8884 45.3264 43.7368 44.478 43.7368 43.4314V15.9595C43.7368 14.9129 42.8884 14.0645 41.8418 14.0645Z" fill="#5C63AB"/>
<path d="M43.6348 0.681102L37.1261 1.52934L38.6994 3.63362L33.1255 7.80094L30.1936 5.21598C29.6936 4.77511 28.9531 4.74537 28.4191 5.14447L15.9534 14.4646L13.0373 12.2801C12.5372 11.9055 11.8502 11.9052 11.3498 12.2793L1.30469 19.7897L2.99109 22.0454L12.1922 15.1661L15.1083 17.3506C15.6083 17.7252 16.2955 17.7255 16.7958 17.3514L29.1893 8.08521L32.1212 10.6702C32.6212 11.111 33.3619 11.1409 33.8957 10.7417L40.3859 5.8892L41.9607 7.99537L44.6143 1.9907C44.9099 1.32161 44.3602 0.586584 43.6348 0.681102Z" fill="white"/>
<path d="M5.71974 39.7403C5.3476 39.7403 5.0459 40.042 5.0459 40.4141V43.4308C5.0459 44.8473 6.19826 45.9997 7.61477 45.9997H14.0576C15.4741 45.9997 16.6265 44.8473 16.6265 43.4308V29.1021C16.6265 27.6856 15.4741 26.5332 14.0576 26.5332H7.61477C6.19826 26.5332 5.0459 27.6856 5.0459 29.1021V37.7187C5.0459 38.0909 5.3476 38.3926 5.71974 38.3926C6.09188 38.3926 6.39359 38.0909 6.39359 37.7187V29.1021C6.39359 28.4287 6.94138 27.8809 7.61477 27.8809H14.0576C14.731 27.8809 15.2788 28.4287 15.2788 29.1021V43.4308C15.2788 44.1042 14.731 44.652 14.0576 44.652H7.61477C6.94138 44.652 6.39359 44.1042 6.39359 43.4308V40.4141C6.39359 40.042 6.09197 39.7403 5.71974 39.7403Z" fill="#0D0B49"/>
<path d="M21.5093 19.9615C20.0928 19.9615 18.9404 21.1139 18.9404 22.5304V43.4308C18.9404 44.8473 20.0928 45.9997 21.5093 45.9997H27.9521C29.3687 45.9997 30.521 44.8473 30.521 43.4308V22.5303C30.521 21.1138 29.3687 19.9614 27.9521 19.9614H21.5093V19.9615ZM29.1733 22.5303V43.4307C29.1733 44.1041 28.6255 44.6519 27.9521 44.6519H21.5093C20.8359 44.6519 20.2881 44.1041 20.2881 43.4307V22.5303C20.2881 21.8569 20.8359 21.3091 21.5093 21.3091H27.9521C28.6255 21.3092 29.1733 21.857 29.1733 22.5303Z" fill="#0D0B49"/>
<path d="M43.7417 22.3097C44.1138 22.3097 44.4155 22.008 44.4155 21.6359V15.9585C44.4155 14.542 43.2632 13.3896 41.8467 13.3896H35.4038C33.9873 13.3896 32.835 14.542 32.835 15.9585V43.4304C32.835 44.8469 33.9873 45.9993 35.4038 45.9993H41.8467C43.2632 45.9993 44.4155 44.8469 44.4155 43.4304V24.3313C44.4155 23.9591 44.1138 23.6574 43.7417 23.6574C43.3696 23.6574 43.0679 23.9591 43.0679 24.3313V43.4303C43.0679 44.1037 42.5201 44.6515 41.8467 44.6515H35.4038C34.7304 44.6515 34.1826 44.1037 34.1826 43.4303V15.9585C34.1826 15.2851 34.7304 14.7373 35.4038 14.7373H41.8467C42.5201 14.7373 43.0679 15.2851 43.0679 15.9585V21.6359C43.0679 22.008 43.3695 22.3097 43.7417 22.3097Z" fill="#0D0B49"/>
<path d="M30.6442 4.70999C29.9131 4.06544 28.8003 4.0215 28.0205 4.60416L15.9587 13.6224C15.9587 13.6224 13.4481 11.7416 13.4463 11.7403C12.715 11.1925 11.6823 11.1925 10.9512 11.739L0.90612 19.2494C0.608102 19.4722 0.547096 19.8945 0.769914 20.1926C0.769914 20.1926 2.45336 22.4443 2.45632 22.4483C2.67599 22.7421 3.10618 22.8037 3.39952 22.5845L12.1967 16.007C12.1967 16.007 14.7066 17.8872 14.7091 17.8891C15.441 18.4374 16.4724 18.4375 17.2042 17.8904L29.1592 8.95207C29.1592 8.95207 31.6787 11.1734 31.6804 11.1749C32.4116 11.8196 33.5242 11.8638 34.3041 11.2808L40.2546 6.83179C40.2546 6.83179 41.423 8.39475 41.4258 8.39835C41.7297 8.80481 42.3775 8.72943 42.5818 8.26726C42.5818 8.26726 45.2276 2.28038 45.2354 2.26259C45.7252 1.15434 44.7508 -0.14357 43.5526 0.0123131C43.5526 0.0123131 37.0606 0.858391 37.044 0.860548C36.5413 0.926045 36.2876 1.52586 36.5914 1.93223L37.7612 3.4968L33.1654 6.93287C33.1654 6.93287 30.6456 4.71134 30.6442 4.70999ZM39.1078 4.17272C39.4018 3.95286 39.4638 3.52367 39.244 3.22951L38.3606 2.04804C38.3606 2.04804 43.7189 1.34976 43.7267 1.34868C43.9286 1.32236 44.0844 1.53313 44.0028 1.71777L41.8149 6.66827C41.8149 6.66827 40.9315 5.48662 40.9304 5.48518C40.7104 5.19103 40.2812 5.12912 39.9872 5.34898C39.9872 5.34898 33.5107 10.1911 33.497 10.2015C33.2221 10.407 32.8284 10.3907 32.5715 10.1642L29.6397 7.57922C29.4006 7.36826 29.0461 7.35407 28.7906 7.54499C28.7906 7.54499 16.4116 16.8004 16.3972 16.8112C16.1386 17.0045 15.7751 17.004 15.5171 16.8107L12.601 14.6262C12.3617 14.4469 12.0329 14.4468 11.7935 14.6258L3.13223 21.1017L2.25273 19.9253C2.25273 19.9253 11.7457 12.8278 11.7582 12.8185C12.0168 12.6251 12.3797 12.6252 12.6382 12.8189L15.5543 15.0035C15.7936 15.1827 16.1223 15.1829 16.3619 15.0038C16.3619 15.0038 28.811 5.69596 28.8273 5.68365C29.1028 5.47764 29.4946 5.49309 29.7529 5.72085L32.6848 8.3058C32.924 8.51685 33.2785 8.53105 33.5339 8.34004C33.5338 8.34013 39.1045 4.17514 39.1078 4.17272Z" fill="#0D0B49"/>
</g>
<defs>
<clipPath id="clip0_101_287">
<rect width="46" height="46" fill="white"/>
</clipPath>
</defs>
</svg>
