<svg width="24" height="24" viewBox="0 0 24 24" fill="none" xmlns="http://www.w3.org/2000/svg">
<g clip-path="url(#clip0_101_407)">
<path d="M20.2151 6.39223L20.2149 6.39148C19.42 3.82112 17.3216 1.7227 14.7513 0.927731L20.2151 6.39223ZM20.2151 6.39223C21.0826 9.18151 20.6015 12.0639 18.917 14.3217L12.0019 23.187M20.2151 6.39223L12.0019 23.187M12.0019 23.187L5.08644 14.321C3.95828 12.8197 3.36133 11.0281 3.36133 9.14062C3.36133 6.40336 4.67734 3.81056 6.88403 2.18889L6.88404 2.18891L6.88794 2.18598C8.37349 1.07178 10.1518 0.5 12.0019 0.5C12.905 0.5 13.8396 0.646155 14.7511 0.927678L12.0019 23.187ZM6.58008 9.14062C6.58008 12.1308 9.01174 14.5625 12.0019 14.5625C14.9922 14.5625 17.4238 12.1308 17.4238 9.14062C17.4238 6.15042 14.9922 3.71875 12.0019 3.71875C9.01174 3.71875 6.58008 6.15042 6.58008 9.14062Z" fill="#5C63AB" stroke="#0D0B49"/>
</g>
<defs>
<clipPath id="clip0_101_407">
<rect width="24" height="24" fill="white"/>
</clipPath>
</defs>
</svg>
