<svg width="46" height="46" viewBox="0 0 46 46" fill="none" xmlns="http://www.w3.org/2000/svg">
<g clip-path="url(#clip0_101_318)">
<path d="M17.4989 35.3112C16.4402 37.0316 14.343 39.6174 10.8411 40.442L11.6454 37.7951C11.6454 37.7951 8.54035 39.8617 5.55762 40.442C6.13792 37.449 8.20451 34.3542 8.20451 34.3542L5.55762 35.1585C6.38221 31.6566 8.96801 29.5594 10.6884 28.5007L18.0192 26.9614L17.4989 35.3112Z" fill="#FE646F"/>
<path d="M29.0805 42.3507C25.2555 46.1757 19.1313 46.2968 15.1614 42.7158C16.7284 42.5496 18.418 41.3031 18.6543 39.1096C18.7528 38.1985 18.5995 37.1234 18.0826 35.8943L10.1048 27.9165C8.87562 27.3995 7.80055 27.2462 6.88944 27.3448C4.6959 27.5811 3.4494 29.2705 3.28328 30.8376C-0.297726 26.8677 -0.176706 20.7435 3.64832 16.9185C5.91014 14.6566 8.97796 13.6903 11.9281 14.0199C13.2808 14.1712 14.6084 14.5936 15.8226 15.2902L30.7087 30.1763C31.4054 31.3906 31.8284 32.7187 31.979 34.0709C32.3086 37.021 31.3422 40.0889 29.0805 42.3507Z" fill="#5C63AB"/>
<path d="M18.0831 35.8943C24.2927 34.4682 30.1899 31.3374 35.0273 26.5C42.132 19.3953 45.5568 10.0048 45.304 0.695653C35.9949 0.442831 26.6045 3.86751 19.4998 10.9722C14.6624 15.8097 11.5316 21.7069 10.1055 27.9164L18.0831 35.8943Z" fill="#FF9B21"/>
<path d="M43.2273 13.6131C41.1472 12.3634 39.0843 10.7603 37.1617 8.83782C36.2333 7.90946 35.3802 6.94947 34.605 5.97089C33.7738 4.92079 33.0315 3.84887 32.3838 2.77235C36.5256 1.27546 40.8927 0.583301 45.2425 0.694079C45.263 0.695337 45.2837 0.695337 45.3036 0.695966L45.303 0.696595C45.4215 5.06553 44.7307 9.45199 43.2273 13.6131Z" fill="#5C63AB"/>
<path d="M43.9394 30.6667C43.9385 30.6658 43.9394 30.6649 43.9385 30.6641L43.9394 30.6667Z" fill="#E30E08"/>
<path d="M29.701 22.8589C33.3241 22.8589 36.2613 19.9218 36.2613 16.2986C36.2613 12.6754 33.3241 9.73828 29.701 9.73828C26.0778 9.73828 23.1406 12.6754 23.1406 16.2986C23.1406 19.9218 26.0778 22.8589 29.701 22.8589Z" fill="#5C63AB"/>
<path d="M29.701 20.717C32.1409 20.717 34.1188 18.7391 34.1188 16.2992C34.1188 13.8593 32.1409 11.8813 29.701 11.8813C27.2611 11.8813 25.2832 13.8593 25.2832 16.2992C25.2832 18.7391 27.2611 20.717 29.701 20.717Z" fill="white"/>
<path d="M45.9864 0.678214C45.9766 0.315693 45.6848 0.0237895 45.3223 0.0140864C39.5394 -0.142512 33.7751 1.10623 28.6077 3.6313C28.264 3.79922 28.1257 4.21726 28.3003 4.5575L28.3004 4.55768C28.47 4.88813 28.8725 5.02209 29.2064 4.85911C30.1507 4.39785 31.116 3.98124 32.0979 3.60938C33.3619 5.62431 34.9003 7.54392 36.6783 9.32194C38.4576 11.1013 40.3775 12.6397 42.3918 13.9023C42.357 13.9941 42.3239 14.0863 42.2883 14.1778C40.5556 18.6288 37.9501 22.6126 34.5444 26.0183C30.0511 30.5116 24.4402 33.6615 18.2969 35.1438L10.8572 27.704C12.3393 21.5606 15.4893 15.9496 19.9826 11.4565C21.9126 9.52651 24.0561 7.83493 26.3618 6.42159C26.679 6.22717 26.7828 5.81541 26.5946 5.49449C26.4013 5.16467 25.9743 5.05704 25.6485 5.25685C23.2512 6.72634 21.0228 8.48468 19.0169 10.4906C17.7868 11.7207 16.6545 13.0319 15.6243 14.412C11.5018 12.3506 6.45966 13.1431 3.16606 16.4368C-0.900191 20.503 -1.07107 27.03 2.7774 31.2961C2.90902 31.4422 3.09437 31.5216 3.28457 31.5216C3.39202 31.5216 3.501 31.4962 3.60271 31.4431C3.80818 31.3359 3.93962 31.1249 3.96541 30.8946C4.07475 29.9172 4.67859 28.9942 5.54469 28.4829C6.60817 27.8551 7.98916 27.8393 9.55317 28.4325C7.70454 29.7366 5.64405 31.8366 4.89709 34.9874C4.85235 35.1759 4.88191 35.3785 4.99035 35.5389C5.16267 35.794 5.47443 35.8985 5.75672 35.8125L6.7247 35.5184C6.06713 36.7365 5.23787 38.5202 4.89062 40.2984C4.86061 40.4523 4.87723 40.6143 4.94956 40.7534C5.09457 41.0323 5.39716 41.1694 5.68862 41.1129C7.46753 40.7669 9.2601 39.9335 10.4831 39.274L10.1947 40.2227C10.1366 40.414 10.1528 40.6243 10.2566 40.7952C10.3851 41.0066 10.6092 41.1255 10.8417 41.1255C10.8938 41.1255 10.9462 41.1196 10.9982 41.1073C14.1575 40.3634 16.2622 38.2993 17.5683 36.4478C18.1615 38.0118 18.1457 39.3928 17.5179 40.4562C17.006 41.3232 16.0815 41.9275 15.1028 42.0358C14.8921 42.0591 14.6967 42.1712 14.5845 42.3511C14.4037 42.6413 14.4633 43.0057 14.7047 43.2234C16.7625 45.0796 19.346 46.0007 21.926 46.0007C24.6947 46.0007 27.4593 44.9396 29.5641 42.8347C29.8234 42.5754 30.0701 42.3024 30.3019 42.0185C30.553 41.711 30.4941 41.2557 30.1701 41.026H30.1701C29.8755 40.8172 29.4718 40.8758 29.2434 41.1554C29.0409 41.4035 28.8252 41.642 28.5983 41.8688C25.3562 45.1109 20.3231 45.5179 16.6366 43.0082C17.4817 42.6199 18.2073 41.9747 18.6941 41.1504C19.2573 40.1964 19.727 38.6236 18.9922 36.3774C23.1075 35.3373 26.9858 33.5751 30.4638 31.1825C31.5816 33.5517 31.6629 36.282 30.6833 38.7178C30.5488 39.0522 30.6933 39.4335 31.0179 39.5904L31.0183 39.5906C31.3718 39.7614 31.7997 39.601 31.9466 39.2368C33.1035 36.3685 32.9748 33.1422 31.5902 30.3754C32.97 29.3454 34.2808 28.2134 35.5105 26.9837C39.0508 23.4434 41.7595 19.3015 43.5613 14.6731C45.3012 10.203 46.1173 5.4944 45.9864 0.678214ZM4.84992 27.3067C4.02542 27.7934 3.38034 28.519 2.99203 29.3642C0.48233 25.6775 0.889414 20.6445 4.13153 17.4024C6.95668 14.5772 11.2544 13.8573 14.8179 15.537C12.4252 19.0149 10.663 22.8932 9.62289 27.0086C7.37679 26.2738 5.80389 26.7435 4.84992 27.3067ZM11.8692 39.4091L12.2991 37.9942C12.3828 37.7183 12.2844 37.4196 12.0531 37.2476C11.8216 37.0757 11.5073 37.0675 11.2673 37.2272C11.2412 37.2446 8.95265 38.756 6.49703 39.5029C7.2431 37.0461 8.75553 34.7599 8.77278 34.734C8.93298 34.4941 8.92507 34.1794 8.7532 33.9478C8.58133 33.716 8.28215 33.6177 8.00632 33.7013L6.59146 34.1313C7.46753 31.891 9.1336 30.3543 10.595 29.3731L16.6273 35.4055C15.6463 36.8669 14.1097 38.5329 11.8692 39.4091ZM42.8638 12.5842C41.0287 11.4069 39.2758 9.98768 37.6441 8.35602C36.0141 6.72607 34.5953 4.97429 33.4171 3.1394C37.016 1.9416 40.8138 1.33812 44.6328 1.36777C44.6663 5.20636 44.0721 8.96921 42.8638 12.5842Z" fill="#0D0B49"/>
<path d="M24.5789 21.4208C25.947 22.7888 27.766 23.5422 29.7006 23.5422C31.6352 23.5422 33.4542 22.7888 34.8221 21.4208C37.6462 18.5967 37.6462 14.0016 34.8221 11.1776C33.4542 9.80949 31.6352 9.05615 29.7006 9.05615C27.7659 9.05615 25.947 9.80949 24.5789 11.1776C21.7549 14.0017 21.7549 18.5967 24.5789 21.4208ZM25.5447 12.1434C26.6547 11.0334 28.1305 10.422 29.7006 10.422C31.2704 10.422 32.7464 11.0333 33.8564 12.1434C36.148 14.4348 36.148 18.1636 33.8564 20.455C32.7465 21.5651 31.2705 22.1764 29.7006 22.1764C28.1306 22.1764 26.6548 21.5651 25.5447 20.455C23.2532 18.1635 23.2532 14.4349 25.5447 12.1434Z" fill="#0D0B49"/>
<path d="M26.0939 19.9056C27.0883 20.9 28.3943 21.3971 29.7004 21.3971C31.0065 21.3971 32.3125 20.9 33.3069 19.9056C35.2955 17.917 35.2955 14.6814 33.3069 12.6927C31.3181 10.704 28.0826 10.704 26.0939 12.6927C24.1054 14.6813 24.1054 17.917 26.0939 19.9056ZM27.0598 13.6584C27.7879 12.9302 28.744 12.5664 29.7005 12.5664C30.6567 12.5664 31.6132 12.9305 32.3412 13.6584C33.7973 15.1145 33.7973 17.4838 32.3412 18.9399C30.8852 20.396 28.5157 20.396 27.0598 18.9399C25.6037 17.4838 25.6037 15.1145 27.0598 13.6584Z" fill="#0D0B49"/>
</g>
<defs>
<clipPath id="clip0_101_318">
<rect width="46" height="46" fill="white"/>
</clipPath>
</defs>
</svg>
