<svg width="64" height="64" viewBox="0 0 64 64" fill="none" xmlns="http://www.w3.org/2000/svg">
<path d="M0.947266 27.5824L32.0002 41.468L63.0531 27.5824L32.0002 13.6973L0.947266 27.5824Z" fill="#5C63AB"/>
<path d="M31.9993 50.3044C38.3528 46.6858 50.9342 46.139 50.9342 46.139V31.8744C42.4768 25.605 31.9993 25.3105 31.9993 25.3105C31.9993 25.3105 21.5219 25.605 13.0645 31.8744V46.1385C13.0645 46.139 25.6459 46.6858 31.9993 50.3044Z" fill="#5C63AB"/>
<path d="M46.5161 41.3423C46.5161 42.6665 45.4424 43.7402 44.1177 43.7402C42.7935 43.7402 41.7197 42.6665 41.7197 41.3423C41.7197 40.0176 42.7935 38.9438 44.1177 38.9438C45.4424 38.9438 46.5161 40.0176 46.5161 41.3423Z" fill="#FF9B21"/>
<path d="M46.5156 50.0522L44.1172 43.7402L41.7188 50.0522H46.5156Z" fill="#FF9B21"/>
<path d="M63.4393 26.7184L32.3864 12.8333C32.1403 12.7229 31.8596 12.7229 31.6135 12.8333L19.0237 18.4626C18.5467 18.676 18.3328 19.2355 18.5462 19.7131C18.7596 20.1906 19.3196 20.4045 19.7972 20.1911L31.9997 14.7346L43.171 19.7297V26.7032C37.2423 24.5353 32.2507 24.3707 32.0261 24.3644C32.0085 24.3639 31.9909 24.3639 31.9733 24.3644C31.7326 24.3707 26.0071 24.5597 19.5237 27.2076C16.9373 28.2633 14.5746 29.5777 12.5013 31.1138C12.3461 31.2291 12.2328 31.3873 12.1713 31.565L3.26608 27.5826L15.7503 22.0002C16.2279 21.7868 16.4417 21.2272 16.2279 20.7497C16.0145 20.2721 15.4544 20.0583 14.9774 20.2717L0.560053 26.7184C0.219236 26.8707 0 27.2096 0 27.5826C0 27.9561 0.219236 28.2945 0.560053 28.4469L12.118 33.6158V38.1494C12.118 38.6724 12.5424 39.0962 13.0648 39.0962C13.5878 39.0962 14.0116 38.6724 14.0116 38.1494V33.022C14.0116 33.0215 14.0116 33.0206 14.0116 33.0201V32.3565C15.8651 31.0333 17.9578 29.8917 20.2395 28.9605C26.1731 26.5372 31.5778 26.275 32.0002 26.2579C32.4137 26.274 37.4615 26.5152 43.171 28.7262V38.1343C41.7867 38.5434 40.773 39.8266 40.773 41.3422C40.773 42.7348 41.6285 43.9311 42.8419 44.4335L42.1798 46.1762C37.8595 46.9198 34.4386 47.9433 31.9997 49.2255C26.3821 46.2743 16.9749 45.4404 14.0121 45.2446V42.5888C14.0121 42.0659 13.5878 41.642 13.0653 41.642C12.5424 41.642 12.1185 42.0659 12.1185 42.5888V46.1391C12.1185 46.6454 12.5175 47.0624 13.0238 47.0849C13.1473 47.0902 25.4519 47.6649 31.5314 51.1273C31.6764 51.2098 31.8381 51.2513 32.0002 51.2513C32.1618 51.2513 32.3234 51.2098 32.4689 51.1268C34.5128 49.9618 37.5778 48.9735 41.3946 48.2421L40.835 49.7157C40.7242 50.0067 40.7638 50.3334 40.9405 50.5897C41.1173 50.8456 41.4088 50.9989 41.7198 50.9989H46.5166C46.8282 50.9989 47.1192 50.8456 47.2959 50.5897C47.4727 50.3334 47.5122 50.0067 47.4019 49.7157L46.5459 47.4633C49.1221 47.1684 50.9551 47.0854 50.9761 47.0844C51.4824 47.0624 51.8818 46.6454 51.8818 46.1386V42.5883C51.8818 42.0659 51.4575 41.6416 50.935 41.6416C50.4121 41.6416 49.9883 42.0659 49.9883 42.5883V45.2455C49.1045 45.3051 47.6358 45.4228 45.8521 45.6381L45.3946 44.4335C46.6075 43.9311 47.4634 42.7348 47.4634 41.3422C47.4634 39.8261 46.4497 38.5434 45.065 38.1343V29.5284C46.8433 30.3443 48.4946 31.2901 49.9883 32.3565V33.0201V33.022V38.1494C49.9883 38.6724 50.4121 39.0962 50.935 39.0962C51.458 39.0962 51.8818 38.6724 51.8818 38.1494V33.6158L63.4398 28.4469C63.7806 28.2945 63.9999 27.9561 63.9999 27.5826C63.9999 27.2096 63.7801 26.8707 63.4393 26.7184ZM43.0919 49.1054L44.1177 46.4057L45.1436 49.1054H43.0919ZM45.5694 41.3422C45.5694 42.1425 44.9185 42.7934 44.1177 42.7934C43.3174 42.7934 42.6666 42.1425 42.6666 41.3422C42.6666 40.5415 43.3174 39.8906 44.1177 39.8906C44.9185 39.8906 45.5694 40.5415 45.5694 41.3422ZM51.8281 31.565C51.7666 31.3873 51.6533 31.2291 51.498 31.1138C49.584 29.6954 47.4204 28.4688 45.0645 27.4576V20.5763L60.7333 27.5826L51.8281 31.565Z" fill="#0D0B49"/>
</svg>
