<svg width="46" height="46" viewBox="0 0 46 46" fill="none" xmlns="http://www.w3.org/2000/svg">
<g clip-path="url(#clip0_101_337)">
<path d="M32.5352 40.585L42.1065 31.0136L44.9683 33.8754L35.397 43.4468L32.5352 40.585Z" fill="#5C63AB"/>
<path d="M10.1729 42.7939L0.908211 33.5293L3.77002 30.6675L13.0347 39.9321L10.1729 42.7939Z" fill="#FF9B21"/>
<path fill-rule="evenodd" clip-rule="evenodd" d="M4.85867 29.6351L9.15976 25.334C9.15976 25.334 4.6727 21.6343 7.22129 19.4882C8.37228 18.519 10.3714 18.9127 10.3714 18.9127C10.3714 18.9127 7.94831 15.9444 9.40216 14.3693C10.856 12.7943 12.007 13.0971 12.007 13.0971C12.007 13.0971 11.2801 10.3711 12.6734 9.64416C14.0667 8.91723 15.0965 8.79603 15.0965 8.79603C15.0965 8.79603 14.4906 5.94888 16.2474 5.0402C18.0043 4.13152 20.9725 6.73636 20.9725 6.73636C20.9725 6.73636 20.851 6.14366 20.9011 5.38619C21.0705 2.82915 24.2497 1.74087 25.9894 3.62256L27.636 5.40362C27.636 5.40362 30.1803 4.58577 30.8467 7.22098C31.3257 9.11498 29.8169 10.4922 29.8169 10.4922C29.8169 10.4922 32.761 8.83906 34.118 11.7037C34.6632 12.8547 32.967 14.7932 32.967 14.7932C32.967 14.7932 35.6325 13.6422 36.6017 15.5807C37.571 17.5191 36.9792 19.4593 35.5253 20.4286C35.5253 20.4286 38.8998 19.1249 38.9079 22.2463C38.9111 23.4625 38.3255 24.6057 37.3654 25.3524L36.844 25.7579L41.9326 30.8465L32.368 40.4112L27.2492 35.2923C27.2492 35.2923 23.2744 35.8141 20.9119 35.5718C18.5493 35.3295 17.0954 35.8141 13.2185 39.5699L3.77246 30.6616L4.85867 29.6351Z" fill="#FFDCD4"/>
<path d="M45.7343 33.0631L38.2644 25.6221C38.2627 25.6205 38.2609 25.619 38.2592 25.6174L39.0218 24.8548C39.6862 24.1904 40.0522 23.307 40.0522 22.3674C40.0522 21.4278 39.6862 20.5443 39.0218 19.88C38.6323 19.4904 38.1762 19.2249 37.6904 19.0797C38.0478 18.3559 38.1404 17.7039 38.1345 17.208C38.1228 16.1955 37.7115 15.2332 36.9765 14.4983C36.4247 13.9465 35.7336 13.6171 35.0153 13.5093C35.0857 13.2176 35.1204 12.9133 35.1162 12.6018C35.1033 11.6456 34.7309 10.7535 34.0675 10.0901C33.4867 9.50925 32.7384 9.15662 31.9315 9.07702C31.9847 8.82249 32.0122 8.55934 32.0106 8.29043C32.005 7.33557 31.6263 6.41288 30.9726 5.75998C30.3093 5.09514 29.5444 4.73693 28.2593 4.73693C28.2481 4.72543 26.0687 2.54546 26.0687 2.54546C25.4043 1.88107 24.5209 1.51514 23.5813 1.51514C22.6417 1.51514 21.7584 1.88107 21.0943 2.54511C20.4595 3.17922 20.0978 4.01351 20.0664 4.90584C20.0664 4.90584 17.5705 2.12293 14.9395 4.75382C14.0414 5.6519 13.7315 6.9187 14.0095 8.07139C13.2187 8.14336 12.4478 8.48108 11.8437 9.0851C10.9208 10.0081 10.6199 11.3203 10.9391 12.4982C10.2054 12.5991 9.49756 12.9305 8.93469 13.4933C7.72342 14.7046 7.58263 16.5863 8.51072 17.9544C7.91622 18.1044 7.35353 18.4109 6.8894 18.875C6.225 19.5395 5.85907 20.4228 5.85907 21.3625C5.85907 22.3021 6.225 23.1855 6.8894 23.8499L8.09429 25.0548L0.266117 32.883C-0.0883161 33.2375 -0.0887653 33.8121 0.265129 34.1671L9.51248 43.4433C9.86143 43.7934 10.4461 43.7946 10.7966 43.4462L17.0744 37.1973C17.5777 36.6941 18.2737 36.4215 18.9854 36.4463L25.2225 36.6739C25.7617 36.6938 26.2964 36.6119 26.7997 36.4397L34.5821 44.2223C34.932 44.572 35.5173 44.572 35.8672 44.2223L37.9852 42.1043C38.3351 41.7544 38.3351 41.1691 37.9852 40.8192C37.6353 40.4692 37.0499 40.4693 36.7001 40.8192L35.2247 42.2947L33.573 40.6429L42.1459 32.07L43.8066 33.7127L42.5004 35.0189C42.1707 35.3486 42.1479 35.8936 42.4498 36.2491C42.7885 36.6479 43.4152 36.6741 43.7855 36.3039L45.7378 34.3516C46.0888 34.0008 46.0872 33.4122 45.7343 33.0631ZM22.3791 3.83059C22.7002 3.5094 23.1272 3.33259 23.5814 3.33259C24.0355 3.33259 24.4626 3.5094 24.7838 3.83077L26.3806 5.42675C26.2463 5.52756 23.9499 7.806 23.9499 7.806L22.3791 6.23508C22.0577 5.9138 21.8808 5.48659 21.8808 5.03234C21.8807 4.57827 22.0575 4.1516 22.3791 3.83059ZM16.2247 6.03895C16.5458 5.71776 16.9729 5.54086 17.4271 5.54086C17.8812 5.54086 18.3084 5.71776 18.6296 6.03895L23.8223 11.2317C24.1435 11.5528 24.3204 11.98 24.3204 12.4341C24.3204 12.8883 24.1435 13.3154 23.8223 13.6365C23.5012 13.9577 23.0741 14.1346 22.62 14.1346C22.1658 14.1346 21.7387 13.9577 21.4176 13.6365L16.2248 8.44371C15.9036 8.12261 15.7267 7.69549 15.7267 7.24133C15.7267 6.78717 15.9035 6.36014 16.2247 6.03895ZM13.129 10.3702C13.4604 10.0387 13.896 9.87294 14.3313 9.87294C14.7668 9.87294 15.2023 10.0387 15.5337 10.3702L20.1088 14.9453C20.4299 15.2664 20.6068 15.6934 20.6068 16.1476C20.6068 16.6018 20.4299 17.0289 20.1087 17.35C19.5208 17.938 18.6064 18.0034 17.9444 17.5484C17.8784 17.4697 13.129 12.7749 13.129 12.7749C12.4659 12.112 12.4659 11.0333 13.129 10.3702ZM10.2199 14.7784C10.5514 14.4469 10.9868 14.2811 11.4223 14.2811C11.7365 14.2811 12.05 14.3688 12.3251 14.5413C12.3251 14.5413 16.5711 18.7795 16.6507 18.8461C16.8436 19.1268 16.9483 19.4584 16.9483 19.8063C16.9483 20.2605 16.7714 20.6875 16.4502 21.0087C16.1291 21.3299 15.702 21.5068 15.2478 21.5068C14.7937 21.5068 14.3666 21.3299 14.0455 21.0087L10.22 17.1833C9.55686 16.5201 9.55686 15.4415 10.2199 14.7784ZM8.17461 20.1601C8.49572 19.8389 8.92283 19.662 9.37699 19.662C9.83115 19.662 10.2583 19.8389 10.5794 20.1601L12.7366 22.3174C13.0578 22.6385 13.2347 23.0656 13.2347 23.5198C13.2347 23.9739 13.0578 24.401 12.7366 24.7221C12.4155 25.0433 11.9884 25.2202 11.5342 25.2202C11.0801 25.2202 10.653 25.0433 10.3319 24.7221L8.17461 22.5649C7.85342 22.2438 7.67652 21.8167 7.67652 21.3625C7.67652 20.9084 7.85342 20.4812 8.17461 20.1601ZM10.1589 41.5177L2.19273 33.5266L3.76329 31.9561L11.7466 39.9394L10.1589 41.5177ZM25.2888 34.8579L19.0517 34.6303C17.8371 34.5846 16.6485 35.0533 15.7895 35.9124L13.0355 38.6582L5.04841 30.6711L9.40242 26.317C10.0296 26.7956 10.7817 27.036 11.5343 27.036C12.4352 27.036 13.336 26.6931 14.0218 26.0074C14.6862 25.3429 15.0458 24.5581 15.0458 23.3161C16.3574 23.3161 17.0495 22.9796 17.7352 22.2938C18.458 21.571 18.7995 20.6093 18.7605 19.6604C19.9429 19.6604 20.7081 19.321 21.3939 18.6352C22.0583 17.9708 22.4178 17.0879 22.4178 15.944C23.6532 15.944 24.4215 15.6075 25.1073 14.9217C27.6701 12.3589 24.7431 9.58266 24.7431 9.58266L27.283 7.04367C27.603 6.72302 28.0297 6.54639 28.4846 6.54639C28.9395 6.54639 29.3662 6.72293 29.6873 7.04475C30.006 7.36316 30.1905 7.82109 30.1932 8.30113C30.1961 8.77927 29.9318 9.339 29.6047 9.66612C29.423 9.78993 29.2513 9.93116 29.0924 10.0901C28.7376 10.445 28.7376 11.0203 29.0924 11.3752C29.4473 11.7301 30.0226 11.7301 30.3775 11.3752C30.6986 11.054 31.1257 10.8771 31.5799 10.8771C32.0341 10.8771 32.4612 11.054 32.7823 11.3752C33.1043 11.6971 33.2926 12.1532 33.299 12.6263C33.3053 13.1016 33.1935 13.4865 32.7536 13.9264C32.4844 14.0791 32.2307 14.269 32.0014 14.4983C31.6466 14.8532 31.6466 15.4285 32.0014 15.7834C32.3563 16.1383 32.9317 16.1383 33.2866 15.7834C33.9495 15.1204 35.0284 15.1204 35.6913 15.7834C35.952 16.0439 37.1557 17.4363 35.3063 19.294C34.8378 19.6321 34.7157 19.6897 34.1962 20.0855C33.7971 20.3896 33.8414 21.0157 34.1962 21.3706C34.5511 21.7255 35.1265 21.7255 35.4814 21.3706C36.0739 20.778 37.0326 20.461 37.7366 21.1651C38.0578 21.4863 38.2347 21.9134 38.2347 22.3676C38.2347 22.8219 38.0578 23.2489 37.7366 23.57L27.1997 34.1069C26.6965 34.6101 26.0001 34.8839 25.2888 34.8579ZM32.2879 39.358L28.4011 35.4712C28.429 35.4448 36.9745 26.9021 36.9745 26.9021C36.9761 26.9038 36.9774 26.9056 36.9791 26.9072L40.8589 30.7869L32.2879 39.358Z" fill="#0D0B49"/>
<path d="M40.2217 39.4385C40.7179 39.4385 41.1201 39.0362 41.1201 38.54C41.1201 38.0438 40.7179 37.6416 40.2217 37.6416C39.7255 37.6416 39.3232 38.0438 39.3232 38.54C39.3232 39.0362 39.7255 39.4385 40.2217 39.4385Z" fill="black"/>
</g>
<defs>
<clipPath id="clip0_101_337">
<rect width="46" height="46" fill="white"/>
</clipPath>
</defs>
</svg>
