<svg width="24" height="24" viewBox="0 0 24 24" fill="none" xmlns="http://www.w3.org/2000/svg">
<path d="M12 2.8125L7.40625 12L12 21.1875C17.0741 21.1875 21.1875 17.0741 21.1875 12C21.1875 6.92587 17.0741 2.8125 12 2.8125Z" fill="white"/>
<path d="M2.8125 12C2.8125 17.0741 6.92587 21.1875 12 21.1875V2.8125C6.92587 2.8125 2.8125 6.92587 2.8125 12Z" fill="white"/>
<path d="M13.9887 12.9946L12 11.0059H11.0625L12 12.9946L12.9944 13.9889L13.9887 12.9946Z" fill="#5C63AB"/>
<path d="M8.00608 7.01172L7.01172 8.00608L12.0001 12.9945V11.0058L8.00608 7.01172Z" fill="#5C63AB"/>
<path d="M16.0107 6.99512L12 11.0057L11.0625 12.9945H12L17.005 7.98943L16.0107 6.99512Z" fill="#5C63AB"/>
<path d="M10.0117 12.9946L11.0061 13.9889L12.0004 12.9946V11.0059L10.0117 12.9946Z" fill="#5C63AB"/>
<path d="M12.7031 4.21875H12L11.5312 4.92188L12 5.625H12.7031V4.21875Z" fill="#0D0B49"/>
<path d="M11.2969 4.21875H12V5.625H11.2969V4.21875Z" fill="#0D0B49"/>
<path d="M12.7031 18.375H12L11.5312 19.0781L12 19.7812H12.7031V18.375Z" fill="#0D0B49"/>
<path d="M11.2969 18.375H12V19.7812H11.2969V18.375Z" fill="#0D0B49"/>
<path d="M4.21875 12.7031V11.2969H5.625V12.7031H4.21875Z" fill="#0D0B49"/>
<path d="M18.375 12.7031V11.2969H19.7812V12.7031H18.375Z" fill="#0D0B49"/>
<path d="M24 12C24 18.6274 18.6274 24 12 24C5.37258 24 0 18.6274 0 12C0 5.37258 5.37258 0 12 0C18.6274 0 24 5.37258 24 12ZM2.87954 12C2.87954 17.0371 6.96291 21.1205 12 21.1205C17.0371 21.1205 21.1205 17.0371 21.1205 12C21.1205 6.96291 17.0371 2.87954 12 2.87954C6.96291 2.87954 2.87954 6.96291 2.87954 12Z" fill="#5C63AB"/>
<circle cx="12" cy="12" r="11.5" stroke="#0D0B49"/>
</svg>
