<svg width="149" height="106" viewBox="0 0 149 106" fill="none" xmlns="http://www.w3.org/2000/svg">
<path d="M147.317 63.6317C147.833 74.416 134.283 79.6021 118.335 86.7318C105.998 92.2468 93.6889 100.91 76.1457 101.75C35.9232 103.676 2.57402 89.7325 1.65821 70.6061C1.13447 59.6678 14.7651 58.5397 31.1156 51.3956C43.3553 46.0476 55.6097 33.3119 72.8293 32.4874C113.052 30.5615 146.401 44.5052 147.317 63.6317Z" fill="#F2F2F2"/>
<path d="M73.5 90C99.1812 90 120 69.8528 120 45C120 20.1472 99.1812 0 73.5 0C47.8188 0 27 20.1472 27 45C27 69.8528 47.8188 90 73.5 90Z" fill="#E87613"/>
<path d="M71.1 89.3001C95.4558 89.3001 115.2 69.5559 115.2 45.2001C115.2 20.8443 95.4558 1.1001 71.1 1.1001C46.7442 1.1001 27 20.8443 27 45.2001C27 69.5559 46.7442 89.3001 71.1 89.3001Z" fill="#FFB356"/>
<path d="M70.5016 89.1998C94.4707 89.1998 113.902 70.0824 113.902 46.4998C113.902 22.9172 94.4707 3.7998 70.5016 3.7998C46.5324 3.7998 27.1016 22.9172 27.1016 46.4998C27.1016 70.0824 46.5324 89.1998 70.5016 89.1998Z" fill="#FF9B21"/>
<path d="M70.5016 86.5998C94.4707 86.5998 113.902 68.0644 113.902 45.1998C113.902 22.3352 94.4707 3.7998 70.5016 3.7998C46.5324 3.7998 27.1016 22.3352 27.1016 45.1998C27.1016 68.0644 46.5324 86.5998 70.5016 86.5998Z" fill="#FFB356"/>
<path d="M71.0998 83.9999C92.5285 83.9999 109.9 66.6285 109.9 45.1999C109.9 23.7712 92.5285 6.3999 71.0998 6.3999C49.6712 6.3999 32.2998 23.7712 32.2998 45.1999C32.2998 66.6285 49.6712 83.9999 71.0998 83.9999Z" fill="#FF9B21"/>
<path d="M71.0984 82.9C91.9196 82.9 108.798 66.0211 108.798 45.2C108.798 24.3789 91.9196 7.5 71.0984 7.5C50.2773 7.5 33.3984 24.3789 33.3984 45.2C33.3984 66.0211 50.2773 82.9 71.0984 82.9Z" fill="#FF9B21"/>
<path d="M71.1 77.3001C88.8283 77.3001 103.2 62.9284 103.2 45.2001C103.2 27.4718 88.8283 13.1001 71.1 13.1001C53.3717 13.1001 39 27.4718 39 45.2001C39 62.9284 53.3717 77.3001 71.1 77.3001Z" fill="#FFB356"/>
<path d="M72.0002 16.7H70.2002L70.7002 9.5H72.0002V16.7Z" fill="#E87613"/>
<path d="M72.1016 71.8999H70.1016L70.6016 80.2999H72.1016V71.8999Z" fill="#E87613"/>
<path d="M91.2 63.1001L90 64.4001L95.3 68.8001L96.2 67.9001L91.2 63.1001Z" fill="#E87613"/>
<path d="M91.8984 26.1L92.8984 27.5L98.0984 23L97.3984 22L91.8984 26.1Z" fill="#E87613"/>
<path d="M54.5 67.1999L53.4 65.8999L48.5 70.6999L49.3 71.6999L54.5 67.1999Z" fill="#E87613"/>
<path d="M51.4998 23.4998L50.4998 24.6998L45.7998 20.1998L46.4998 19.2998L51.4998 23.4998Z" fill="#E87613"/>
<path d="M96.8998 46.2001L96.7998 44.1001L105.2 44.2001L105.3 45.7001L96.8998 46.2001Z" fill="#E87613"/>
<path d="M44.5016 46.2001L44.6016 44.1001L36.2016 44.2001L36.1016 45.7001L44.5016 46.2001Z" fill="#E87613"/>
<path d="M76.1544 52.6178C77.9261 50.3576 77.5301 47.0892 75.2699 45.3175C73.0097 43.5459 69.7413 43.9419 67.9696 46.202C66.1979 48.4622 66.594 51.7307 68.8541 53.5023C71.1143 55.274 74.3827 54.878 76.1544 52.6178Z" fill="#FF9B21"/>
<path d="M74.5025 51.3226C75.5592 49.9755 75.3238 48.0269 73.9767 46.9702C72.6296 45.9135 70.681 46.1489 69.6243 47.496C68.5676 48.8431 68.803 50.7917 70.15 51.8484C71.4971 52.905 73.4458 52.6697 74.5025 51.3226Z" fill="#F4BE4A"/>
<path d="M69.4016 46L68.3016 47.4L47.5016 33.2L46.6016 29.5H50.5016L69.4016 46Z" fill="#FF9B21"/>
<path d="M73.8002 48.5998L73.7002 46.7998L98.7002 43.7998L101.9 46.0998L98.9002 48.5998H73.8002Z" fill="#FF9B21"/>
<path d="M69.6984 44.2998L68.5984 45.6998L47.8984 31.4998L46.8984 27.7998H50.7984L69.6984 44.2998Z" fill="#FFDEB6"/>
<path d="M76.4761 50.9543C78.2481 48.6941 77.8523 45.4254 75.5921 43.6535C73.332 41.8815 70.0633 42.2773 68.2914 44.5375C66.5194 46.7976 66.9152 50.0663 69.1754 51.8383C71.4355 53.6103 74.7042 53.2145 76.4761 50.9543Z" fill="#FFDEB6"/>
<path d="M74.8191 49.6572C75.8756 48.3099 75.6399 46.3613 74.2927 45.3047C72.9455 44.2482 70.9969 44.4839 69.9403 45.8311C68.8838 47.1784 69.1195 49.127 70.4667 50.1835C71.8139 51.2401 73.7626 51.0044 74.8191 49.6572Z" fill="#FF9B21"/>
<path d="M75.2016 47.5998L75.1016 45.7998L100.002 42.7998L103.202 44.9998L100.302 47.5998H75.2016Z" fill="#FFDEB6"/>
</svg>
