<svg width="149" height="116" viewBox="0 0 149 116" fill="none" xmlns="http://www.w3.org/2000/svg">
<path d="M147.317 73.6317C147.833 84.416 134.283 89.6021 118.335 96.7318C105.998 102.247 93.6889 110.91 76.1457 111.75C35.9232 113.676 2.57402 99.7325 1.65821 80.6061C1.13447 69.6678 14.7651 68.5397 31.1156 61.3956C43.3553 56.0476 55.6097 43.3119 72.8293 42.4874C113.052 40.5615 146.401 54.5052 147.317 73.6317Z" fill="#F2F2F2"/>
<path d="M117.255 71.8801C126.345 50.3632 116.272 25.5508 94.7552 16.4601C73.2383 7.36934 48.4259 17.4428 39.3352 38.9596C30.2445 60.4765 40.3179 85.2889 61.8348 94.3796C83.3517 103.47 108.164 93.397 117.255 71.8801Z" fill="#E87613"/>
<path d="M37.3047 32.7487C37.3047 32.7487 38.3037 30.6396 38.8587 30.6396C39.3027 30.6396 40.9678 31.1947 38.0817 33.4147L37.3047 32.7487Z" fill="#F7A66F"/>
<path d="M111.704 71.8801C120.795 50.3632 110.721 25.5508 89.2044 16.4601C67.6875 7.36934 42.8752 17.4428 33.7844 38.9596C24.6937 60.4765 34.7671 85.2889 56.284 94.3796C77.8009 103.47 102.613 93.397 111.704 71.8801Z" fill="#FF9B21"/>
<path d="M107.298 70.089C115.363 51.0005 106.427 28.9885 87.3381 20.9238C68.2496 12.8591 46.2376 21.7956 38.1728 40.884C30.1081 59.9725 39.0446 81.9845 58.1331 90.0493C77.2216 98.114 99.2336 89.1775 107.298 70.089Z" fill="#FFB356"/>
<path d="M98.9126 66.4944C93.4734 79.3708 79.5979 86.142 66.4995 83.1449C64.9454 82.8119 63.2804 82.2569 61.7263 81.5909C47.1848 75.5967 40.4136 58.9461 46.5188 44.4046C52.624 29.9741 69.2746 23.2029 83.705 29.3081C98.2465 35.4133 105.018 52.0639 98.9126 66.4944Z" fill="#FFC074"/>
<path d="M61.3942 75.9298L63.5033 70.9346C60.0622 69.2696 57.0651 66.9385 55.6221 64.9404L59.7292 59.5012C61.3942 61.6103 64.0584 64.0524 67.3885 65.4955C70.3856 66.7165 72.8276 66.4945 73.7157 64.3854C74.6037 62.3873 73.3827 60.5003 70.1636 57.5032C65.3904 53.285 62.7263 49.0669 64.8354 44.0717C66.7224 39.5206 71.4956 37.3005 77.6008 38.5215L79.7099 33.5264L84.816 35.6354L82.929 40.1866C86.3701 41.8516 88.3682 43.5167 89.8112 45.0708L85.8151 50.2879C84.705 49.1779 82.818 46.9578 79.0439 45.4038C75.6028 43.9607 73.9377 44.9598 73.3827 46.4028C72.6056 48.0679 74.0487 49.9549 77.7118 53.507C83.04 58.2802 84.261 62.2763 82.263 66.9385C80.2649 71.6007 75.3807 74.1537 68.9425 72.5997L66.7224 77.9279L61.3942 75.9298Z" fill="#FFDEB6"/>
</svg>
