<svg width="149" height="111" viewBox="0 0 149 111" fill="none" xmlns="http://www.w3.org/2000/svg">
<path d="M147.317 68.6317C147.833 79.416 134.283 84.6021 118.335 91.7318C105.998 97.2468 93.6889 105.91 76.1457 106.75C35.9232 108.676 2.57402 94.7325 1.65821 75.6061C1.13447 64.6678 14.7651 63.5397 31.1156 56.3956C43.3553 51.0476 55.6097 38.3119 72.8293 37.4874C113.052 35.5615 146.401 49.5052 147.317 68.6317Z" fill="#F2F2F2"/>
<path d="M117.047 60.3235C122.543 38.0012 108.903 15.4494 86.5811 9.95276C64.2588 4.45609 41.7071 18.096 36.2104 40.4183C30.7137 62.7406 44.3536 85.2924 66.6759 90.789C88.9983 96.2857 111.55 82.6458 117.047 60.3235Z" fill="#E87613"/>
<path d="M112.789 60.3235C118.286 38.0012 104.646 15.4494 82.3233 9.95276C60.001 4.45609 37.4493 18.096 31.9526 40.4183C26.4559 62.7406 40.0958 85.2924 62.4181 90.789C84.7404 96.2857 107.292 82.6458 112.789 60.3235Z" fill="#FF9B21"/>
<path d="M105.761 58.5926C110.302 40.1524 99.0342 21.5227 80.594 16.982C62.1539 12.4413 43.5242 23.709 38.9834 42.1492C34.4427 60.5894 45.7104 79.2191 64.1506 83.7598C82.5908 88.3005 101.22 77.0328 105.761 58.5926Z" fill="#FFDEB6"/>
<path d="M98.2982 56.7377C101.825 42.408 93.068 27.9322 78.7383 24.4052C64.4087 20.8781 49.9329 29.6353 46.4059 43.965C42.8788 58.2946 51.636 72.7704 65.9657 76.2975C80.2954 79.8246 94.7711 71.0673 98.2982 56.7377Z" fill="#FF9B21"/>
<path d="M87.356 54.0609C89.3944 45.7828 84.3361 37.4196 76.058 35.3812C67.7799 33.3428 59.4168 38.4011 57.3784 46.6791C55.34 54.9572 60.3982 63.3204 68.6763 65.3588C76.9544 67.3972 85.3176 62.339 87.356 54.0609Z" fill="#FFDEB6"/>
<path d="M78.2626 51.8201C79.0639 48.566 77.0755 45.2784 73.8213 44.4771C70.5672 43.6758 67.2796 45.6642 66.4783 48.9184C65.6769 52.1725 67.6654 55.4601 70.9195 56.2614C74.1737 57.0627 77.4613 55.0743 78.2626 51.8201Z" fill="#FF9B21"/>
<path d="M50.4285 10.2744L49.1172 10.9829L71.1327 51.7259L72.444 51.0174L50.4285 10.2744Z" fill="#915B3C"/>
<path d="M72.5356 51.5245C72.6341 51.1249 72.3899 50.7211 71.9903 50.6226C71.5906 50.5242 71.1869 50.7684 71.0884 51.168C70.99 51.5676 71.2341 51.9714 71.6338 52.0699C72.0334 52.1683 72.4372 51.9241 72.5356 51.5245Z" fill="#FF5621"/>
<path d="M50.3505 0.702637L48.5407 5.28034L43.3242 4.00284L52.2667 22.9524L57.6961 25.5074L59.0801 19.2264L50.3505 0.702637Z" fill="#915B3C"/>
</svg>
