<svg width="51" height="46" viewBox="0 0 51 46" fill="none" xmlns="http://www.w3.org/2000/svg">
                <path fill-rule="evenodd" clip-rule="evenodd" d="M4.48828 28.0417L24.8153 21.3183L4.48828 14.5923V28.0417Z" fill="#FF9B21" />
                <path fill-rule="evenodd" clip-rule="evenodd" d="M4.48828 14.5923L24.8153 21.3182L45.1422 14.5923H4.48828Z" fill="#FF9B21" />
                <path fill-rule="evenodd" clip-rule="evenodd" d="M24.8086 21.3183L45.1356 28.0417V14.5923L24.8086 21.3183Z" fill="#FF9B21" />
                <path fill-rule="evenodd" clip-rule="evenodd" d="M4.48828 28.0418H45.1422L24.8153 21.3184L4.48828 28.0418Z" fill="#FF9B21" />
                <path fill-rule="evenodd" clip-rule="evenodd" d="M1.10156 42.5479C1.10156 43.6256 2.09063 44.5095 3.30015 44.5095H47.9104C49.1199 44.5095 50.1118 43.6256 50.1118 42.5479L50.109 10.1494H1.10156V42.5479ZM5.27829 27.3282V13.8788H45.9321V27.3281H5.27829V27.3282ZM35.3095 40.7775V31.7324H45.9321V40.7776H35.3095V40.7775ZM20.2953 31.7324H30.918V40.7776H20.2953V31.7324ZM5.27829 31.7324H15.9009V40.7776H5.27829V31.7324Z" fill="white" />
                <path d="M1 4.08887C1 2.43201 2.34315 1.08887 4 1.08887H46.2169C48.426 1.08887 50.2169 2.87973 50.2169 5.08887V10.8426H1V4.08887Z" fill="white" />
                <path d="M8.31578 1.17822H5.09375C2.88461 1.17822 1.09375 2.96908 1.09375 5.17822V10.3728M15.8865 1.17822H45.9047C48.1139 1.17822 49.9047 2.96908 49.9047 5.17822V10.3728M1.09375 10.3728V40.5747C1.09375 42.7838 2.88461 44.5747 5.09375 44.5747H45.9047C48.1139 44.5747 49.9047 42.7838 49.9047 40.5747V10.3728M1.09375 10.3728H49.9047M5.12813 14.0595H45.7209M5.12813 14.0595V27.4293M5.12813 14.0595L45.7209 27.4293M45.7209 14.0595V27.4293M45.7209 14.0595L5.12813 27.4293M45.7209 27.4293H5.12813" stroke="#0D0B49" stroke-width="1.2" stroke-linecap="round" stroke-linejoin="round" />
                <path d="M5.32812 40.9759V31.959H15.7378V40.9759H5.32812Z" fill="#5C63AB" />
                <path d="M5.32812 40.9759V31.959H15.7378M5.32812 40.9759H15.7378V31.959M5.32812 40.9759L15.7378 31.959" stroke="#0D0B49" stroke-width="1.2" stroke-linecap="round" stroke-linejoin="round" />
                <path d="M20.2295 40.9314V31.9146H30.6392V40.9314H20.2295Z" fill="#5C63AB" />
                <path d="M20.2295 40.9314V31.9146H30.6392M20.2295 40.9314H30.6392V31.9146M20.2295 40.9314L30.6392 31.9146" stroke="#0D0B49" stroke-width="1.2" stroke-linecap="round" stroke-linejoin="round" />
                <path d="M35.2695 40.9314V31.9146H45.6792V40.9314H35.2695Z" fill="#5C63AB" />
                <path d="M35.2695 40.9314V31.9146H45.6792M35.2695 40.9314H45.6792V31.9146M35.2695 40.9314L45.6792 31.9146" stroke="#0D0B49" stroke-width="1.2" stroke-linecap="round" stroke-linejoin="round" />
                <path d="M6.87988 5.70703H22.0212" stroke="#0D0B49" stroke-width="1.2" stroke-linecap="round" />
                <ellipse cx="33.1231" cy="5.66374" rx="1.04595" ry="0.93278" fill="#0D0B49" />
                <ellipse cx="38.5108" cy="5.66374" rx="1.04595" ry="0.93278" fill="#0D0B49" />
                <ellipse cx="43.878" cy="5.66374" rx="1.04595" ry="0.93278" fill="#0D0B49" />
            </svg>
