<svg width="162" height="18" viewBox="0 0 162 18" fill="none" xmlns="http://www.w3.org/2000/svg">
<g clip-path="url(#clip0_4566_86)">
<path d="M3.42033 9.96935H1.94041V18H0V0H5.97591C9.18533 0 11.1961 2.0451 11.1961 4.97285C11.1961 7.90061 9.13963 9.96935 5.97591 9.96935H5.56815L11.2734 18H9.03418L3.42033 9.96935ZM1.94041 8.338H5.91264C8.03936 8.338 9.24158 7.04553 9.24158 5.15412C9.24158 3.2627 8.03936 1.94264 5.91264 1.94264H1.94041V8.338Z" fill="#222220"/>
<path d="M24.1426 16.0574V18H13.9766V0H24.002V1.94264H15.9416V7.71935H23.2181V9.662H15.9416V16.0574H24.1426Z" fill="#222220"/>
<path d="M38.9979 0V17.9961H37.0329V9.65806H28.8775V17.9961H26.916V0H28.8775V7.69177H37.0329V0H38.9979Z" fill="#222220"/>
<path d="M51.5198 12.8459H44.7283L43.0656 18H41.1006L46.9218 0H49.3016L55.1229 18H53.1825L51.5198 12.8459ZM50.9187 11.0333L48.124 2.36427L45.3118 11.0333H50.9187Z" fill="#222220"/>
<path d="M68.639 13.0035C68.639 16.0613 66.7689 18.0039 63.5103 18.0039H57.2285V0H63.6509C66.5369 0 68.0871 1.78897 68.0871 4.37785C68.0846 5.26145 67.8453 6.12383 67.4003 6.85315C66.9552 7.58246 66.325 8.14508 65.5913 8.46804C67.5071 9.14186 68.639 10.7732 68.639 12.9996V13.0035ZM63.2115 1.81261H59.1689V7.743H63.1201C64.7828 7.743 66.1221 6.6042 66.1221 4.76401C66.1221 3.03021 65.1273 1.81261 63.2115 1.81261ZM66.6775 12.8459C66.6775 10.7456 65.3382 9.5556 63.2572 9.5556H59.1689V16.1874H63.2747C65.4226 16.1874 66.6705 14.9422 66.6705 12.8459" fill="#222220"/>
<path d="M89.1115 1.94264V7.79422H96.3178V9.73687H89.1115V18H87.1465V0H97.1017V1.94264H89.1115Z" fill="#222220"/>
<path d="M101.541 0H99.5762V17.9961H101.541V0Z" fill="#222220"/>
<path d="M117.409 0V17.9961H115.771L107.292 3.85771V17.9961H105.327V0H106.969L115.448 14.1659V0H117.409Z" fill="#222220"/>
<path d="M134.851 8.98818C134.851 14.426 131.551 18 126.998 18H121.198V0H126.998C131.568 0 134.851 3.54641 134.851 8.98818ZM132.865 9.01182C132.876 4.72855 130.37 1.97023 126.953 1.97023H123.163V16.0298H126.953C130.37 16.0298 132.865 13.3384 132.865 9.01182Z" fill="#222220"/>
<path d="M147.953 16.0574V18H137.787V0H147.813V1.94264H139.752V7.71935H147.029V9.662H139.752V16.0574H147.953Z" fill="#222220"/>
<path d="M154.143 9.96935H152.667V18H150.727V0H156.702C159.915 0 161.926 2.0451 161.926 4.97285C161.926 7.90061 159.873 9.96935 156.685 9.96935H156.295L162 18H159.757L154.143 9.96935ZM152.667 8.338H156.639C158.748 8.338 159.968 7.04553 159.968 5.15412C159.968 3.2627 158.766 1.94264 156.639 1.94264H152.667V8.338Z" fill="#222220"/>
<path d="M83.0052 7.7168H71.6826V9.61968H83.0052V7.7168Z" fill="#FF6F00"/>
<path d="M78.1998 2.57227H76.5723V14.0429H78.1998V2.57227Z" fill="#FF6F00"/>
</g>
<defs>
<clipPath id="clip0_4566_86">
<rect width="162" height="18" fill="white"/>
</clipPath>
</defs>
</svg>
