<svg width="46" height="45" viewBox="0 0 46 45" fill="none" xmlns="http://www.w3.org/2000/svg">
<path d="M44.5822 44.2332H11.676C7.52294 44.2332 4.15625 40.9397 4.15625 36.8769V9.20947H37.0213C41.4113 9.20947 44.9701 12.6909 44.9701 16.9855V43.8538C44.9701 44.0634 44.7965 44.2332 44.5822 44.2332V44.2332Z" fill="white"/>
<path d="M4.41466 18.5779L15.9454 18.5782V16.8285C15.9454 16.7109 15.9997 16.6003 16.0915 16.5244C18.0696 14.8844 19.325 12.4381 19.325 9.7047C19.325 4.74651 15.1952 0.731348 10.1146 0.76634C5.17639 0.800625 1.12683 4.71214 1.03669 9.5376C0.984927 12.3387 2.25105 14.8513 4.26905 16.5244C4.36074 16.6004 4.41502 16.711 4.41502 16.8285V18.5783" fill="#FF9B21"/>
<path d="M3.97266 24.3403V21.4243H16.0149V24.3403H3.97266Z" fill="#AFB9C5"/>
<path d="M35.4482 27.035L40.1335 23.3209C40.3947 23.1138 40.3528 22.7127 40.0542 22.5616L35.4482 20.231V27.035Z" fill="#5C63AB"/>
<path d="M16.6199 21.6344H3.74479C2.87178 21.6344 2.16406 20.942 2.16406 20.088V19.8774C2.16406 19.0234 2.87178 18.3311 3.74479 18.3311H16.62C17.493 18.3311 18.2007 19.0234 18.2007 19.8774V20.088C18.2006 20.942 17.4929 21.6344 16.6199 21.6344V21.6344Z" fill="#AFB9C5"/>
<path d="M15.6588 27.4663H4.03621C3.11009 27.4663 2.35938 26.7318 2.35938 25.8259V25.8035C2.35938 24.8975 3.11018 24.1631 4.03621 24.1631H15.6588C16.585 24.1631 17.3357 24.8976 17.3357 25.8035V25.8259C17.3358 26.7318 16.585 27.4663 15.6588 27.4663Z" fill="#AFB9C5"/>
<path d="M13.7194 27.8745C13.4558 29.6738 11.898 31.0556 10.0159 31.0556C8.13386 31.0556 6.57608 29.6738 6.3125 27.8745H13.7194Z" fill="#AFB9C5"/>
<path d="M35.2269 30.4443V19.3069C35.2269 18.8898 34.8809 18.5522 34.4555 18.5522H32.8368C32.4105 18.5522 32.0654 18.8898 32.0654 19.3069V30.4443H35.2269Z" fill="#AFB9C5"/>
<path d="M16.0566 39.8447C17.0117 39.8447 17.786 39.0879 17.786 38.1543C17.786 37.2207 17.0117 36.4639 16.0566 36.4639C15.1014 36.4639 14.3271 37.2207 14.3271 38.1543C14.3271 39.0879 15.1014 39.8447 16.0566 39.8447Z" fill="#5C63AB"/>
<path d="M22.7187 34.1552C23.6738 34.1552 24.4481 33.3984 24.4481 32.4648C24.4481 31.5312 23.6738 30.7744 22.7187 30.7744C21.7635 30.7744 20.9893 31.5312 20.9893 32.4648C20.9893 33.3984 21.7635 34.1552 22.7187 34.1552Z" fill="#5C63AB"/>
<path d="M28.7138 39.4326C29.6689 39.4326 30.4432 38.6757 30.4432 37.7422C30.4432 36.8086 29.6689 36.0518 28.7138 36.0518C27.7587 36.0518 26.9844 36.8086 26.9844 37.7422C26.9844 38.6757 27.7587 39.4326 28.7138 39.4326Z" fill="#5C63AB"/>
<path d="M45.0346 19.6436C44.6604 19.6436 44.3572 19.9402 44.3572 20.3063V43.6741H39.1696C38.7954 43.6741 38.4922 43.9707 38.4922 44.3368C38.4922 44.7029 38.7954 44.9996 39.1696 44.9996H44.6467C45.2342 44.9996 45.7121 44.532 45.7121 43.9573V20.3063C45.7121 19.9403 45.4088 19.6436 45.0346 19.6436V19.6436Z" fill="#0D0B49"/>
<path d="M37.0849 8.65053H19.8867C19.6655 6.43428 18.6725 4.38114 17.0352 2.79068C15.164 0.973037 12.6843 -0.0176985 10.0411 0.000239378C7.47517 0.0180889 5.05015 1.00547 3.21298 2.78043C1.37545 4.55566 0.337587 6.91445 0.290707 9.42221C0.237775 12.2885 1.46505 14.9769 3.66886 16.8482V17.8166C2.48765 17.8865 1.54834 18.8483 1.54834 20.0212V20.2318C1.54834 21.3381 2.38396 22.2568 3.47005 22.4162V23.7995C2.54582 24.1106 1.87966 24.969 1.87966 25.9774V25.9999C1.87966 27.0345 2.58078 27.9119 3.54259 28.2016V36.981C3.54259 41.4027 7.21982 45 11.7398 45H36.0975C36.4717 45 36.775 44.7033 36.775 44.3372C36.775 43.9712 36.4717 43.6745 36.0975 43.6745H11.7398C7.96692 43.6745 4.8975 40.6718 4.8975 36.981V28.3031H6.13923C6.55419 30.1894 8.1772 31.5719 10.0454 31.5719C11.9135 31.5719 13.5364 30.1894 13.9515 28.3031H15.8567C17.1548 28.3031 18.211 27.2699 18.211 26V25.9775C18.211 24.9691 17.5448 24.1106 16.6206 23.7995V22.5883C16.6206 22.5376 16.6142 22.4884 16.6031 22.4409H16.6816C17.9268 22.4409 18.9398 21.4499 18.9398 20.2319V20.0213C18.9398 18.8032 17.9268 17.8122 16.6816 17.8122H16.5543V16.8483C18.6098 15.1022 19.821 12.6305 19.9256 9.97617H37.0848C41.0943 9.97617 44.3562 13.1672 44.3562 17.0895V17.3024C44.3562 17.6685 44.6594 17.9651 45.0336 17.9651C45.4078 17.9651 45.7111 17.6685 45.7111 17.3024V17.0895C45.7112 12.4361 41.8414 8.65053 37.0849 8.65053V8.65053ZM10.0454 30.2465C8.90786 30.2465 7.90468 29.4409 7.53876 28.3031H12.5519C12.1861 29.4409 11.1828 30.2465 10.0454 30.2465ZM16.8561 25.9999C16.8561 26.539 16.4078 26.9775 15.8568 26.9775H4.23404C3.68296 26.9775 3.23466 26.5389 3.23466 25.9999V25.9774C3.23466 25.4383 3.68305 24.9998 4.23404 24.9998H15.8567C16.4078 24.9998 16.856 25.4384 16.856 25.9774V25.9999H16.8561ZM15.2656 22.5883V23.6743H4.82506V22.4409H15.2831C15.2721 22.4883 15.2656 22.5375 15.2656 22.5883V22.5883ZM17.585 20.0212V20.2318C17.585 20.719 17.1798 21.1154 16.6817 21.1154H3.80661C3.30855 21.1154 2.90334 20.719 2.90334 20.2318V20.0212C2.90334 19.534 3.30855 19.1376 3.80661 19.1376H16.6817C17.1798 19.1376 17.585 19.534 17.585 20.0212ZM15.4496 16.0252C15.2913 16.151 15.1993 16.34 15.1993 16.5395V17.812H5.02378V16.5395C5.02378 16.34 4.93182 16.151 4.77357 16.0252C2.73822 14.4069 1.59802 12.0089 1.64535 9.44625C1.72836 5.00022 5.49899 1.35733 10.0507 1.3257C10.0713 1.32552 10.0917 1.32543 10.1123 1.32543C12.3646 1.32543 14.482 2.17841 16.0804 3.73123C17.6917 5.29633 18.579 7.3811 18.579 9.60133C18.579 12.1027 17.4384 14.4442 15.4496 16.0252Z" fill="#0D0B49"/>
<path d="M36.4031 29.8857H35.9618V27.6314L40.6185 23.94C40.9193 23.7015 41.0755 23.3341 41.0361 22.9572C40.9966 22.5803 40.7677 22.2514 40.4237 22.0773L35.9619 19.8195V19.411C35.9619 18.6294 35.312 17.9937 34.5131 17.9937H32.8944C32.0955 17.9937 31.4456 18.6294 31.4456 19.411V29.8857H31.0038C30.6296 29.8857 30.3264 30.1824 30.3264 30.5485C30.3264 30.9146 30.6296 31.2112 31.0038 31.2112H32.4876L29.6247 35.6474C29.3584 35.5479 29.0698 35.4929 28.7682 35.4929C28.3422 35.4929 27.9419 35.6021 27.5944 35.7928L24.9803 33.5177C25.1118 33.2271 25.1854 32.9063 25.1854 32.5686C25.1854 31.2711 24.1057 30.2155 22.7785 30.2155C21.4514 30.2155 20.3717 31.2711 20.3717 32.5686C20.3717 32.8157 20.411 33.0539 20.4836 33.2779L17.2259 36.1724C16.8931 36.0021 16.515 35.9052 16.1139 35.9052C14.7867 35.9052 13.707 36.9608 13.707 38.2583C13.707 39.5558 14.7867 40.6114 16.1139 40.6114C17.4411 40.6114 18.5208 39.5558 18.5208 38.2583C18.5208 37.8349 18.4051 37.4375 18.2041 37.0938L21.2515 34.3861C21.6672 34.7206 22.1993 34.9218 22.7785 34.9218C23.2687 34.9218 23.7248 34.7775 24.1055 34.5305L26.6445 36.7401C26.464 37.0701 26.3613 37.4464 26.3613 37.846C26.3613 39.1435 27.441 40.1991 28.7682 40.1991C30.0953 40.1991 31.175 39.1435 31.175 37.846C31.175 37.3253 31.0008 36.8437 30.7068 36.4535C30.7068 36.4535 34.0621 31.2465 34.0768 31.2112H36.4029C36.7771 31.2112 37.0804 30.9146 37.0804 30.5485C37.0804 30.1824 36.7773 29.8857 36.4031 29.8857V29.8857ZM36.184 21.4242L39.5142 23.1093L36.184 25.7493V21.4242ZM16.1138 39.286C15.5337 39.286 15.0619 38.825 15.0619 38.2583C15.0619 37.6916 15.5338 37.2306 16.1138 37.2306C16.6938 37.2306 17.1658 37.6916 17.1658 38.2583C17.1658 38.825 16.6939 39.286 16.1138 39.286V39.286ZM22.7784 33.5963C22.1984 33.5963 21.7265 33.1353 21.7265 32.5686C21.7265 32.002 22.1985 31.541 22.7784 31.541C23.3585 31.541 23.8304 32.002 23.8304 32.5686C23.8304 33.1353 23.3585 33.5963 22.7784 33.5963ZM28.7682 38.8737C28.1882 38.8737 27.7163 38.4127 27.7163 37.846C27.7163 37.2793 28.1882 36.8183 28.7682 36.8183C29.3482 36.8183 29.8202 37.2793 29.8202 37.846C29.8202 38.4127 29.3482 38.8737 28.7682 38.8737ZM32.8004 19.411C32.8004 19.3604 32.8426 19.3191 32.8943 19.3191H34.513C34.5647 19.3191 34.6069 19.3604 34.6069 19.411V29.8857H32.8004V19.411Z" fill="#0D0B49"/>
</svg>
