<svg width="59" height="44" viewBox="0 0 59 44" fill="none" xmlns="http://www.w3.org/2000/svg">
<path d="M48.5392 1L39.0323 14.0915H20.0186L10.5117 1H48.5392Z" fill="#FFAB46"/>
<path d="M1 14.0923L29.5206 42.6129L58.0412 14.0923H1Z" fill="#FF9B21"/>
<path d="M20.0156 14.0923L29.5225 42.6129L39.0294 14.0923H20.0156Z" fill="#FFAB46"/>
<path d="M56.923 14.092L47.4161 1.00049L37.9092 14.092L28.4024 1.00049L18.8955 14.092L9.38861 1.00049L1.17578 14.092H56.923Z" fill="#FF9B21"/>
<path d="M40.2 31.8L29 43M29 43L1 14.44M29 43L38.52 14.44M29 43L19.48 14.44M1 14.44L9.96 1M1 14.44H19.48M57.56 14.44L46.36 25.64M57.56 14.44L47.48 1M57.56 14.44H38.52M47.48 1H28.72M47.48 1L38.52 14.44M9.96 1L19.48 14.44M9.96 1H28.72M19.48 14.44L28.72 1M19.48 14.44H38.52M28.72 1L38.52 14.44" stroke="#0D0B49" stroke-width="1.2" stroke-linecap="round" stroke-linejoin="round"/>
</svg>

