<svg width="47" height="46" viewBox="0 0 47 46" fill="none" xmlns="http://www.w3.org/2000/svg">
<path d="M30.4898 41.4106H15.9197C14.9285 41.4106 14.125 42.2142 14.125 43.2054C14.125 44.1965 14.9285 45.0001 15.9197 45.0001H30.4898C31.4809 45.0001 32.2845 44.1965 32.2845 43.2054C32.2845 42.2142 31.4809 41.4106 30.4898 41.4106Z" fill="white"/>
<path d="M42.798 1.00049H4.49023C2.83338 1.00049 1.49023 2.34363 1.49023 4.00049V31.2313C1.49023 32.8882 2.83338 34.2313 4.49024 34.2313H42.798C44.4549 34.2313 45.798 32.8882 45.798 31.2313V4.00049C45.798 2.34363 44.4549 1.00049 42.798 1.00049Z" fill="white"/>
<path d="M45.7576 1H1.67383V27.5372H45.7576V1Z" fill="white"/>
<path d="M12.0632 33.8846H19.2761M6.4183 33.8846H5.49023C3.2811 33.8846 1.49023 32.0937 1.49023 29.8846V27.5229M19.2761 33.8846V41.5903M19.2761 33.8846H27.9674M19.2761 41.5903H16.4088C15.4686 41.5903 14.7064 42.3525 14.7064 43.2927V43.2927C14.7064 44.2329 15.4686 44.9951 16.4088 44.9951H31.0138C31.954 44.9951 32.7162 44.2329 32.7162 43.2927V43.2927C32.7162 42.3525 31.954 41.5903 31.0138 41.5903H27.9674M19.2761 41.5903H27.9674M27.9674 41.5903V33.8846M27.9674 33.8846H41.798C44.0071 33.8846 45.798 32.0937 45.798 29.8846V27.5229M1.49023 27.5229V5.00098C1.49023 2.79184 3.2811 1.00098 5.49024 1.00098H41.798C44.0071 1.00098 45.798 2.79183 45.798 5.00097V27.5229M1.49023 27.5229H45.798" stroke="#0D0B49" stroke-width="1.2" stroke-linecap="round"/>
<circle cx="23.7102" cy="30.5686" r="0.985613" fill="#0D0B49"/>
<g clip-path="url(#clip0_101_4045)">
<path d="M15.4161 17.7257C15.3841 17.6723 15.3446 17.6321 15.3014 17.6045C15.3014 17.6045 13.6855 19.4676 13.6855 20.7302C13.6855 22.1666 14.4441 22.7932 15.6159 22.7932C16.2682 22.7932 16.882 22.1668 16.882 22.1668C16.9868 21.9475 17.0456 21.7048 17.0456 21.4492C17.0456 20.3866 16.581 19.6658 15.4161 17.7257Z" fill="#FF9B21"/>
<path d="M14.1076 20.5C14.1076 19.6809 14.4919 18.9624 15.3034 17.6049C15.1682 17.5185 14.9959 17.5582 14.8956 17.7252C13.7872 19.571 13.2676 20.387 13.2676 21.34C13.2676 22.3572 14.0853 23.2136 15.1756 23.2136C15.9378 23.2136 16.5916 22.7786 16.884 22.1673C16.6246 22.2962 16.3294 22.3736 16.0156 22.3736C14.9253 22.3736 14.1076 21.5172 14.1076 20.5Z" fill="#FF9B21"/>
<path d="M14.1056 6.74951L13.6855 15.8804L17.0456 15.4604V6.74951H14.1056Z" fill="#FF9B21"/>
<path d="M14.1076 15.1454V6.74951H13.2676V15.9854C13.2676 16.1594 13.4086 16.3004 13.5826 16.3004H16.7326C16.9066 16.3004 17.0476 16.1594 17.0476 15.9854V15.4604H14.4226C14.2486 15.4604 14.1076 15.3193 14.1076 15.1454Z" fill="#FF9B21"/>
<path d="M17.0456 6.74927V5.80426C17.0456 5.6303 16.9046 5.48926 16.7306 5.48926H14.1056L13.6855 6.39395L14.1056 7.51776C14.4059 7.58639 14.767 7.61364 15.1556 7.61364C16.1994 7.61364 17.0456 7.41733 17.0456 6.74927Z" fill="#DCE6EB"/>
<path d="M13.5826 5.49072C13.4086 5.49072 13.2676 5.63176 13.2676 5.80573V6.75074C13.2676 7.17011 13.6011 7.40351 14.1076 7.51922V5.49072H13.5826Z" fill="#B9C3CD"/>
<path d="M21.1183 17.7257C21.0862 17.6723 21.0468 17.6321 21.0035 17.6045C21.0035 17.6045 19.3877 19.4676 19.3877 20.7302C19.3877 22.1666 20.1462 22.7932 21.318 22.7932C21.9704 22.7932 22.5841 22.1668 22.5841 22.1668C22.689 21.9475 22.7477 21.7048 22.7477 21.4492C22.7478 20.3866 22.2832 19.6658 21.1183 17.7257Z" fill="#5C63AB"/>
<path d="M19.8058 20.4995C19.8058 19.6804 20.1901 18.9619 21.0017 17.6044C20.8665 17.518 20.6941 17.5577 20.5938 17.7247C19.4855 19.5705 18.9658 20.3865 18.9658 21.3395C18.9658 22.3567 19.7835 23.2131 20.8739 23.2131C21.6361 23.2131 22.2899 22.7781 22.5822 22.1668C22.3228 22.2957 22.0276 22.3731 21.7139 22.3731C20.6235 22.3731 19.8058 21.5167 19.8058 20.4995Z" fill="#5C63AB"/>
<path d="M19.8048 13.0488L19.3848 15.8796L22.7448 15.4596V13.0488H19.8048Z" fill="#5C63AB"/>
<path d="M19.8058 15.1451V13.0493H18.9658V15.9851C18.9658 16.1591 19.1069 16.3001 19.2808 16.3001H22.4309C22.6048 16.3001 22.7459 16.1591 22.7459 15.9851V15.4601H20.1208C19.9469 15.4601 19.8058 15.3191 19.8058 15.1451Z" fill="#5C63AB"/>
<path d="M22.7448 13.0494V5.80426C22.7448 5.6303 22.6038 5.48926 22.4298 5.48926H19.8048L19.3848 12.694L19.8048 13.8178C20.1051 13.8865 20.4662 13.9137 20.8548 13.9137C21.8986 13.9137 22.7448 13.7174 22.7448 13.0494Z" fill="#DCE6EB"/>
<path d="M19.2808 5.48926C19.1069 5.48926 18.9658 5.6303 18.9658 5.80426V13.0494C18.9658 13.4687 19.2994 13.7021 19.8058 13.8178V5.48926H19.2808Z" fill="#B9C3CD"/>
<path d="M26.8146 17.7262C26.7825 17.6728 26.743 17.6326 26.6998 17.605C26.6998 17.605 25.084 19.4681 25.084 20.7307C25.084 22.1671 25.8425 22.7936 27.0143 22.7936C27.6667 22.7936 28.2804 22.1673 28.2804 22.1673C28.3853 21.948 28.444 21.7053 28.444 21.4497C28.444 20.3871 27.9795 19.6663 26.8146 17.7262Z" fill="#69A1AC"/>
<path d="M25.506 20.4995C25.506 19.6804 25.8903 18.9619 26.7019 17.6044C26.5667 17.518 26.3943 17.5577 26.294 17.7247C25.1856 19.5705 24.666 20.3865 24.666 21.3395C24.666 22.3567 25.4837 23.2131 26.5741 23.2131C27.3363 23.2131 27.9901 22.7781 28.2824 22.1668C28.023 22.2957 27.7278 22.3731 27.4141 22.3731C26.3237 22.3731 25.506 21.5167 25.506 20.4995Z" fill="#69A1AC"/>
<path d="M25.504 10.1094L25.084 15.8802L28.444 15.4602V10.1094H25.504Z" fill="#69A1AC"/>
<path d="M25.506 15.1452V10.1094H24.666V15.9852C24.666 16.1592 24.8071 16.3002 24.981 16.3002H28.1311C28.305 16.3002 28.4461 16.1592 28.4461 15.9852V15.4602H25.821C25.6471 15.4602 25.506 15.3192 25.506 15.1452Z" fill="#69A1AC"/>
<path d="M28.444 10.1093V5.80426C28.444 5.6303 28.303 5.48926 28.129 5.48926H25.504L25.084 9.75399L25.504 10.8778C25.8043 10.9464 26.1654 10.9737 26.554 10.9737C27.5978 10.9737 28.444 10.7774 28.444 10.1093Z" fill="#DCE6EB"/>
<path d="M24.981 5.48926C24.8071 5.48926 24.666 5.6303 24.666 5.80426V10.1093C24.666 10.5287 24.9996 10.7621 25.506 10.8778V5.48926H24.981Z" fill="#B9C3CD"/>
<path d="M32.5089 17.7257C32.4769 17.6723 32.4374 17.6321 32.3942 17.6045C32.3942 17.6045 30.7783 19.4676 30.7783 20.7302C30.7783 22.1666 31.5369 22.7932 32.7087 22.7932C33.361 22.7932 33.9747 22.1668 33.9747 22.1668C34.0796 21.9475 34.1384 21.7048 34.1384 21.4492C34.1384 20.3866 33.6738 19.6658 32.5089 17.7257Z" fill="#2CDDDC"/>
<path d="M31.2043 20.4995C31.2043 19.6804 31.5885 18.9619 32.4001 17.6044C32.2649 17.518 32.0925 17.5577 31.9922 17.7247C30.8839 19.5705 30.3643 20.3865 30.3643 21.3395C30.3643 22.3567 31.182 23.2131 32.2723 23.2131C33.0345 23.2131 33.6883 22.7781 33.9807 22.1668C33.7212 22.2957 33.4261 22.3731 33.1123 22.3731C32.022 22.3731 31.2043 21.5167 31.2043 20.4995Z" fill="#2CDDDC"/>
<path d="M31.1983 8.4292L30.7783 15.88L34.1384 15.46V8.4292H31.1983Z" fill="#2CDDDC"/>
<path d="M31.2043 15.145V8.4292H30.3643V15.9851C30.3643 16.159 30.5053 16.3001 30.6793 16.3001H33.8293C34.0033 16.3001 34.1443 16.159 34.1443 15.9851V15.46H31.5193C31.3453 15.46 31.2043 15.319 31.2043 15.145Z" fill="#2CDDDC"/>
<path d="M34.1384 8.4293V5.80426C34.1384 5.6303 33.9973 5.48926 33.8234 5.48926H31.1983L30.7783 8.07397L31.1983 9.19778C31.4987 9.26641 31.8598 9.29367 32.2483 9.29367C33.2922 9.29367 34.1384 9.09736 34.1384 8.4293Z" fill="#DCE6EB"/>
<path d="M30.6793 5.48926C30.5053 5.48926 30.3643 5.6303 30.3643 5.80426V8.42929C30.3643 8.84867 30.6978 9.08207 31.2043 9.19778V5.48926H30.6793Z" fill="#B9C3CD"/>
<path d="M15.1594 23.5286C13.9651 23.5286 12.9551 22.5407 12.9551 21.3399C12.9551 20.3454 13.462 19.5023 14.472 17.8225L14.628 17.5629C14.7475 17.364 14.9458 17.2452 15.1588 17.2452H15.1588C15.3721 17.2452 15.571 17.3643 15.6907 17.5638L15.846 17.8222C16.0616 18.1807 16.2477 18.4903 16.412 18.7719C16.4996 18.9222 16.4489 19.1151 16.2986 19.2027C16.1484 19.2904 15.9554 19.2396 15.8678 19.0893C15.7056 18.8113 15.5204 18.5034 15.3061 18.1469L15.1591 17.9022L15.0119 18.1471C14.0322 19.7765 13.5851 20.5202 13.5851 21.3399C13.5851 22.1908 14.3151 22.8985 15.1752 22.8985C16.0354 22.8985 16.7351 22.2405 16.7351 21.4494C16.7351 21.0103 16.6502 20.6399 16.4422 20.171C16.3716 20.012 16.4433 19.8259 16.6023 19.7553C16.7613 19.6848 16.9475 19.7565 17.018 19.9155C17.2613 20.4638 17.3651 20.9225 17.3651 21.4494C17.3651 22.5847 16.3853 23.5173 15.181 23.5284C15.1738 23.5286 15.1666 23.5286 15.1594 23.5286ZM16.7351 16.6152H13.5851C13.2377 16.6152 12.9551 16.3326 12.9551 15.9852V5.80432C12.9551 5.45694 13.2377 5.17432 13.5851 5.17432H16.7351C17.0825 5.17432 17.3651 5.45694 17.3651 5.80432V15.9852C17.3651 16.3326 17.0825 16.6152 16.7351 16.6152ZM13.5851 7.672V15.9852H16.7351V7.672C16.3932 7.86231 15.7837 7.92871 15.1601 7.92871C14.5365 7.92871 13.927 7.86235 13.5851 7.672ZM13.5851 6.74934C13.5851 7.22734 14.5719 7.2987 15.1601 7.2987C15.7483 7.2987 16.7351 7.22734 16.7351 6.74934V5.80432H13.5851V6.74934ZM26.5556 23.5286C25.3612 23.5286 24.3512 22.5407 24.3512 21.3399C24.3512 20.3454 24.8582 19.5023 25.8681 17.8225L26.0241 17.5629C26.1436 17.364 26.342 17.2452 26.5549 17.2452H26.5549C26.7683 17.2452 26.9671 17.3643 27.0869 17.5638L27.2422 17.8222C27.4577 18.1807 27.6438 18.4903 27.8081 18.7719C27.8958 18.9222 27.845 19.1151 27.6947 19.2027C27.5446 19.2904 27.3516 19.2396 27.2639 19.0893C27.1017 18.8113 26.9166 18.5034 26.7022 18.1469L26.5552 17.9022L26.4081 18.1471C25.4284 19.7765 24.9812 20.5202 24.9812 21.3399C24.9812 22.1907 25.7112 22.8984 26.5713 22.8984C27.4315 22.8984 28.1313 22.2404 28.1313 21.4494C28.1313 21.0102 28.0464 20.6399 27.8383 20.171C27.7677 20.012 27.8394 19.8259 27.9985 19.7553C28.1574 19.6848 28.3436 19.7564 28.4141 19.9155C28.6574 20.4637 28.7612 20.9225 28.7612 21.4494C28.7612 22.5846 27.7814 23.5173 26.5771 23.5284C26.57 23.5286 26.5627 23.5286 26.5556 23.5286ZM28.1313 16.6152H24.9812C24.6338 16.6152 24.3512 16.3326 24.3512 15.9852V5.80432C24.3512 5.45694 24.6338 5.17432 24.9812 5.17432H28.1313C28.4786 5.17432 28.7613 5.45694 28.7613 5.80432V15.9852C28.7613 16.3326 28.4786 16.6152 28.1313 16.6152ZM24.9812 11.032V15.9852H28.1313V11.032C27.7894 11.2224 27.1798 11.2888 26.5562 11.2888C25.9327 11.2888 25.3231 11.2224 24.9812 11.032ZM24.9812 10.1094C24.9812 10.5874 25.968 10.6587 26.5562 10.6587C27.1445 10.6587 28.1313 10.5874 28.1313 10.1094V5.80432H24.9812V10.1094ZM32.2537 23.5286C31.0592 23.5286 30.0493 22.5407 30.0493 21.3399C30.0493 20.3454 30.5562 19.5023 31.5662 17.8225L31.7222 17.5629C31.8417 17.364 32.04 17.2452 32.253 17.2452H32.253C32.4663 17.2452 32.6652 17.3643 32.785 17.5638L32.9402 17.8222C33.1558 18.1807 33.3419 18.4903 33.5062 18.7719C33.5939 18.9222 33.5431 19.1151 33.3928 19.2027C33.2426 19.2904 33.0497 19.2396 32.962 19.0893C32.7998 18.8113 32.6147 18.5034 32.4003 18.1469L32.2533 17.9022L32.1061 18.1471C31.1264 19.7765 30.6793 20.5202 30.6793 21.3399C30.6793 22.1908 31.4093 22.8985 32.2694 22.8985C33.1296 22.8985 33.8293 22.2405 33.8293 21.4494C33.8293 21.0103 33.7445 20.6399 33.5364 20.171C33.4658 20.012 33.5375 19.8259 33.6965 19.7553C33.8555 19.6848 34.0417 19.7565 34.1122 19.9155C34.3555 20.4638 34.4593 20.9225 34.4593 21.4494C34.4593 22.5847 33.4795 23.5173 32.2752 23.5284C32.2681 23.5286 32.2608 23.5286 32.2537 23.5286ZM33.8293 16.6152H30.6793C30.3319 16.6152 30.0493 16.3326 30.0493 15.9852V5.80432C30.0493 5.45694 30.3319 5.17432 30.6793 5.17432H33.8293C34.1767 5.17432 34.4594 5.45694 34.4594 5.80432V15.9852C34.4594 16.3326 34.1767 16.6152 33.8293 16.6152ZM30.6793 9.35203V15.9852H33.8293V9.35203C33.4875 9.54233 32.8779 9.60873 32.2543 9.60873C31.6307 9.60873 31.0212 9.54237 30.6793 9.35203ZM30.6793 8.42936C30.6793 8.90737 31.6661 8.97873 32.2543 8.97873C32.8425 8.97873 33.8293 8.90737 33.8293 8.42936V5.80432H30.6793V8.42936ZM20.8575 23.5286C19.6631 23.5286 18.6532 22.5407 18.6532 21.3399C18.6532 20.3454 19.1601 19.5023 20.1701 17.8225L20.3261 17.5629C20.4455 17.364 20.6439 17.2452 20.8569 17.2452H20.8569C21.0702 17.2452 21.269 17.3643 21.3888 17.5638L21.5441 17.8222C21.7597 18.1807 21.9458 18.4903 22.1101 18.7719C22.1977 18.9222 22.1469 19.1151 21.9967 19.2027C21.8465 19.2904 21.6535 19.2396 21.5659 19.0893C21.4037 18.8113 21.2185 18.5034 21.0042 18.1469L20.8572 17.9022L20.71 18.1471C19.7304 19.7765 19.2832 20.5202 19.2832 21.3399C19.2832 22.1907 20.0131 22.8984 20.8733 22.8984C21.7334 22.8984 22.4332 22.2404 22.4332 21.4494C22.4332 21.0102 22.3483 20.6399 22.1403 20.171C22.0697 20.012 22.1414 19.8259 22.3004 19.7553C22.4593 19.6848 22.6456 19.7564 22.7161 19.9155C22.9594 20.4637 23.0632 20.9225 23.0632 21.4494C23.0632 22.5846 22.0834 23.5173 20.8791 23.5284C20.8719 23.5286 20.8647 23.5286 20.8575 23.5286ZM22.4332 16.6152H19.2832C18.9358 16.6152 18.6532 16.3326 18.6532 15.9852V5.80432C18.6532 5.45694 18.9358 5.17432 19.2832 5.17432H22.4332C22.7806 5.17432 23.0632 5.45694 23.0632 5.80432V15.9852C23.0632 16.3326 22.7806 16.6152 22.4332 16.6152ZM19.2832 13.9721V15.9852H22.4332V13.9721C22.0913 14.1624 21.4818 14.2288 20.8582 14.2288C20.2346 14.2288 19.6251 14.1624 19.2832 13.9721ZM19.2832 13.0494C19.2832 13.5274 20.27 13.5988 20.8582 13.5988C21.4464 13.5988 22.4332 13.5274 22.4332 13.0494V5.80432H19.2832V13.0494Z" fill="#0D0B49"/>
</g>
<defs>
<clipPath id="clip0_101_4045">
<rect width="21.5043" height="21.5043" fill="white" transform="translate(12.9551 3.59912)"/>
</clipPath>
</defs>
</svg>
