<svg width="47" height="46" viewBox="0 0 47 46" fill="none" xmlns="http://www.w3.org/2000/svg">
<path fill-rule="evenodd" clip-rule="evenodd" d="M4.1748 28.5191L22.6833 21.6544L4.1748 14.7871V28.5191Z" fill="#FF9B21"/>
<path fill-rule="evenodd" clip-rule="evenodd" d="M4.1748 14.7871L22.6833 21.6544L41.1917 14.7871H4.1748Z" fill="#FF9B21"/>
<path fill-rule="evenodd" clip-rule="evenodd" d="M22.6836 21.6539L41.1921 28.5186V14.7866L22.6836 21.6539Z" fill="#FF9B21"/>
<path fill-rule="evenodd" clip-rule="evenodd" d="M4.1748 28.5185H41.1917L22.6833 21.6538L4.1748 28.5185Z" fill="#FF9B21"/>
<path fill-rule="evenodd" clip-rule="evenodd" d="M1.08984 43.3305C1.08984 44.431 1.99043 45.3333 3.09174 45.3333H43.711C44.8123 45.3333 45.7154 44.431 45.7154 43.3305L45.7129 10.2515H1.08984V43.3305ZM4.89291 27.7911V14.0592H41.9097V27.791H4.89291V27.7911ZM32.2374 41.523V32.2879H41.9097V41.5231H32.2374V41.523ZM18.5665 32.2879H28.2388V41.5231H18.5665V32.2879ZM4.89291 32.2879H14.5652V41.5231H4.89291V32.2879Z" fill="white"/>
<path d="M1 4C1 2.34315 2.34315 1 4 1H41.8138C44.0229 1 45.8138 2.79086 45.8138 5V10.9586H1V4Z" fill="white"/>
<path d="M7.66577 1.0918H5.08984C2.8807 1.0918 1.08984 2.88266 1.08984 5.0918V10.4795M14.5592 1.0918H41.534C43.7432 1.0918 45.534 2.88266 45.534 5.0918V10.4795M1.08984 10.4795V41.3999C1.08984 43.6091 2.88071 45.3999 5.08984 45.3999H41.534C43.7432 45.3999 45.534 43.6091 45.534 41.3999V10.4795M1.08984 10.4795H45.534M4.76329 14.2436H41.7245M4.76329 14.2436V27.8944M4.76329 14.2436L41.7245 27.8944M41.7245 14.2436V27.8944M41.7245 14.2436L4.76329 27.8944M41.7245 27.8944H4.76329" stroke="#0D0B49" stroke-width="1.2" stroke-linecap="round" stroke-linejoin="round"/>
<path d="M4.94531 41.7253V32.519H14.4237V41.7253H4.94531Z" fill="#5C63AB"/>
<path d="M4.94531 41.7253V32.519H14.4237M4.94531 41.7253H14.4237V32.519M4.94531 41.7253L14.4237 32.519" stroke="#0D0B49" stroke-width="1.2" stroke-linecap="round" stroke-linejoin="round"/>
<path d="M18.5078 41.6804V32.4741H27.9862V41.6804H18.5078Z" fill="#5C63AB"/>
<path d="M18.5078 41.6804V32.4741H27.9862M18.5078 41.6804H27.9862V32.4741M18.5078 41.6804L27.9862 32.4741" stroke="#0D0B49" stroke-width="1.2" stroke-linecap="round" stroke-linejoin="round"/>
<path d="M32.1992 41.6804V32.4741H41.6776V41.6804H32.1992Z" fill="#5C63AB"/>
<path d="M32.1992 41.6804V32.4741H41.6776M32.1992 41.6804H41.6776V32.4741M32.1992 41.6804L41.6776 32.4741" stroke="#0D0B49" stroke-width="1.2" stroke-linecap="round" stroke-linejoin="round"/>
<path d="M6.35156 5.71631H20.1383" stroke="#0D0B49" stroke-width="1.2" stroke-linecap="round"/>
<circle cx="30.3008" cy="5.71924" r="1" fill="#0D0B49"/>
<circle cx="35.2031" cy="5.71924" r="1" fill="#0D0B49"/>
<circle cx="40.0938" cy="5.71924" r="1" fill="#0D0B49"/>
</svg>
