<svg width="45" height="45" viewBox="0 0 45 45" fill="none" xmlns="http://www.w3.org/2000/svg">
<path d="M28.2962 9.98109C28.2962 7.94326 29.5423 6.19705 31.3138 5.46123V3.9547C31.3138 3.24946 30.7421 2.67773 30.0369 2.67773H13.0303V11.8557C13.0303 12.0984 12.8335 12.2952 12.5908 12.2952H9.50684V32.4398H12.6371C12.8797 32.4398 13.0765 32.6366 13.0765 32.8792V39.5978C13.0765 39.8404 12.8797 40.0372 12.6371 40.0372H9.50684V41.7668C9.50684 42.4721 10.0786 43.0438 10.7838 43.0438H27.9127V34.1401C27.9127 33.8974 28.1094 33.7007 28.3522 33.7007H31.3139V14.5009C29.5423 13.765 28.2962 12.0189 28.2962 9.98109Z" fill="white"/>
<path d="M12.1436 41.7667V40.0371H9.50684V41.7667C9.50684 42.4719 10.0786 43.0437 10.7838 43.0437H13.4205C12.7152 43.0437 12.1436 42.4719 12.1436 41.7667Z" fill="#EAF6FF"/>
<path d="M28.2962 9.98124C28.2962 9.77021 28.311 9.56288 28.337 9.35889H13.0303V11.8559C13.0303 12.0986 12.8335 12.2954 12.5908 12.2954H9.50684V32.44H12.6371C12.8797 32.44 13.0765 32.6368 13.0765 32.8795V35.9273H27.9127V34.1403C27.9127 33.8976 28.1094 33.7008 28.3522 33.7008H31.3139V14.501C29.5423 13.7652 28.2962 12.0191 28.2962 9.98124Z" fill="#FF9B21"/>
<path d="M9.50684 12.2954H12.1436V30.0688H9.50684V12.2954Z" fill="#FF8C00"/>
<path d="M12.6371 32.4396C12.8797 32.4396 13.0765 32.6363 13.0765 32.879V35.9269H27.9127V34.1398C27.9127 33.8971 28.1094 33.7004 28.3522 33.7004H31.3139V30.0684H9.50684V32.4396H12.6371Z" fill="white"/>
<path d="M9.50684 30.0684H12.1436V32.4396H9.50684V30.0684Z" fill="#EAF6FF"/>
<path d="M12.6351 40.0374H3.4043C3.16163 40.0374 2.96484 39.8406 2.96484 39.5979V32.8794C2.96484 32.6367 3.16163 32.4399 3.4043 32.4399H12.6352C12.8779 32.4399 13.0746 32.6367 13.0746 32.8794V39.5979C13.0745 39.8407 12.8779 40.0374 12.6351 40.0374Z" fill="#FED402"/>
<path d="M8.30658 36.667L12.9359 32.5637C12.8573 32.4875 12.7523 32.4399 12.6361 32.4399H3.40526C3.28898 32.4399 3.18404 32.4875 3.10547 32.5637L7.73476 36.667C7.89929 36.8128 8.14204 36.8128 8.30658 36.667Z" fill="#FED402"/>
<path d="M38.0803 9.98156C38.0803 12.6838 35.8898 14.8742 33.1876 14.8742C30.4855 14.8742 28.2949 12.6837 28.2949 9.98156C28.2949 7.27945 30.4854 5.08887 33.1876 5.08887C35.8898 5.08878 38.0803 7.27937 38.0803 9.98156Z" fill="#2CDDDC"/>
<path d="M22.4361 14.6191H18.3772C16.0821 14.6191 14.2217 16.5437 14.2217 18.9177C14.2217 20.6535 15.2167 22.1482 16.6488 22.8266C16.994 22.9902 17.2175 23.3441 17.2175 23.7368V25.2699C17.2175 25.5251 17.5059 25.6637 17.6944 25.4991L20.04 23.4519C20.2144 23.2998 20.4351 23.2163 20.6633 23.2163H22.4361C24.7312 23.2163 26.5917 21.2917 26.5917 18.9177C26.5917 16.5436 24.7312 14.6191 22.4361 14.6191Z" fill="white"/>
<path d="M38.6511 17.4614C38.821 17.4614 38.9937 17.4707 39.1644 17.4891C41.2223 17.7109 42.9113 19.3506 43.1807 21.3881C43.3141 22.3965 43.1193 23.3889 42.6174 24.2581L39.1076 30.3069C38.9704 30.5431 38.7428 30.5686 38.6513 30.5686C38.5598 30.5686 38.3321 30.5431 38.1948 30.3066L34.6845 24.257C34.2899 23.5735 34.0811 22.7936 34.0811 22.0028C34.0811 20.7898 34.5565 19.6492 35.4196 18.7915C36.2827 17.9338 37.4304 17.4614 38.6511 17.4614C38.651 17.4614 38.651 17.4614 38.6511 17.4614Z" fill="#FE646F"/>
<path d="M38.6514 23.4414C39.5246 23.4414 40.2324 22.7336 40.2324 21.8604C40.2324 20.9872 39.5246 20.2793 38.6514 20.2793C37.7782 20.2793 37.0703 20.9872 37.0703 21.8604C37.0703 22.7336 37.7782 23.4414 38.6514 23.4414Z" fill="white"/>
<path d="M37.7589 44.3408H28.3516C28.1089 44.3408 27.9121 44.144 27.9121 43.9014V34.1401C27.9121 33.8975 28.1089 33.7007 28.3516 33.7007H37.7589C38.0015 33.7007 38.1983 33.8975 38.1983 34.1401V43.9014C38.1983 44.144 38.0015 44.3408 37.7589 44.3408Z" fill="#5C63AB"/>
<path d="M29.6699 43.9014V34.1401C29.6699 33.8975 29.8666 33.7007 30.1094 33.7007H28.3516C28.1088 33.7007 27.9121 33.8975 27.9121 34.1401V43.9014C27.9121 44.144 28.1088 44.3408 28.3516 44.3408H30.1094C29.8666 44.3408 29.6699 44.144 29.6699 43.9014Z" fill="#575FB0"/>
<path d="M35.2495 38.7942L31.6625 36.652C31.4867 36.547 31.2637 36.6736 31.2637 36.8784V41.1629C31.2637 41.3676 31.4868 41.4942 31.6625 41.3893L35.2495 39.247C35.4208 39.1446 35.4208 38.8965 35.2495 38.7942Z" fill="white"/>
<path d="M12.5899 12.2953H2.21973C1.97706 12.2953 1.78027 12.0985 1.78027 11.8558V1.09863C1.78027 0.855967 1.97706 0.65918 2.21973 0.65918H12.5899C12.8325 0.65918 13.0293 0.855967 13.0293 1.09863V11.8558C13.0293 12.0985 12.8325 12.2953 12.5899 12.2953Z" fill="#783C85"/>
<path d="M7.40586 9.50823C7.33238 9.50823 7.2589 9.47949 7.20257 9.42193C6.74061 8.95022 5.51542 7.68802 4.50599 6.64634C3.79874 5.91474 3.79883 4.72452 4.50599 3.99301C4.84719 3.64013 5.30264 3.4458 5.78849 3.4458C6.27435 3.4458 6.7298 3.64013 7.07099 3.99301L7.40577 4.3393L7.74054 3.99301C8.08174 3.64013 8.53719 3.4458 9.02304 3.4458C9.5089 3.4458 9.96435 3.64013 10.3055 3.99301C11.0127 4.72452 11.0127 5.91483 10.3055 6.64634C9.29612 7.68802 8.07101 8.95004 7.60897 9.42193C7.55272 9.47949 7.47933 9.50823 7.40586 9.50823Z" fill="#FE646F"/>
<path d="M6.26381 5.76743C5.65921 5.14209 5.57334 4.1825 6.00225 3.45986C5.93176 3.45143 5.86065 3.4458 5.7885 3.4458C5.30264 3.4458 4.84719 3.64013 4.506 3.99301C3.79883 4.72452 3.79874 5.91474 4.506 6.64634C5.51542 7.68802 6.7407 8.95022 7.20257 9.42193C7.25891 9.47949 7.33238 9.50823 7.40586 9.50823C7.47934 9.50823 7.55281 9.47949 7.60915 9.42193C7.8338 9.19253 8.23942 8.77575 8.71227 8.28893C8.14546 7.70762 7.12663 6.65776 6.26381 5.76743Z" fill="#FD4755"/>
<path d="M18.8223 39.7817H22.0015C22.3657 39.7817 22.6607 39.4867 22.6607 39.1226C22.6607 38.7584 22.3657 38.4634 22.0015 38.4634H18.8223C18.4581 38.4634 18.1631 38.7584 18.1631 39.1226C18.1631 39.4867 18.4582 39.7817 18.8223 39.7817Z" fill="#0D0B49"/>
<path d="M17.9316 6.63086H22.8899C23.254 6.63086 23.5491 6.33581 23.5491 5.97168C23.5491 5.60755 23.254 5.3125 22.8899 5.3125H17.9316C17.5675 5.3125 17.2725 5.60755 17.2725 5.97168C17.2725 6.33581 17.5676 6.63086 17.9316 6.63086Z" fill="#0D0B49"/>
<path d="M15.8535 6.56348C16.2176 6.56348 16.5127 6.26835 16.5127 5.9043C16.5127 5.54024 16.2176 5.24512 15.8535 5.24512C15.4895 5.24512 15.1943 5.54024 15.1943 5.9043C15.1943 6.26835 15.4895 6.56348 15.8535 6.56348Z" fill="#0D0B49"/>
<path d="M24.9629 6.56348C25.3269 6.56348 25.6221 6.26835 25.6221 5.9043C25.6221 5.54024 25.3269 5.24512 24.9629 5.24512C24.5988 5.24512 24.3037 5.54024 24.3037 5.9043C24.3037 6.26835 24.5988 6.56348 24.9629 6.56348Z" fill="#0D0B49"/>
<path d="M20.4082 33.5303C20.7723 33.5303 21.0674 33.2351 21.0674 32.8711C21.0674 32.507 20.7723 32.2119 20.4082 32.2119C20.0441 32.2119 19.749 32.507 19.749 32.8711C19.749 33.2351 20.0441 33.5303 20.4082 33.5303Z" fill="#0D0B49"/>
<path d="M16.1504 33.5303C16.5144 33.5303 16.8096 33.2351 16.8096 32.8711C16.8096 32.507 16.5144 32.2119 16.1504 32.2119C15.7863 32.2119 15.4912 32.507 15.4912 32.8711C15.4912 33.2351 15.7863 33.5303 16.1504 33.5303Z" fill="#0D0B49"/>
<path d="M24.4121 33.5303C24.7762 33.5303 25.0713 33.2351 25.0713 32.8711C25.0713 32.507 24.7762 32.2119 24.4121 32.2119C24.0481 32.2119 23.7529 32.507 23.7529 32.8711C23.7529 33.2351 24.0481 33.5303 24.4121 33.5303Z" fill="#0D0B49"/>
<path d="M33.1855 10.6408H35.1835C35.5476 10.6408 35.8427 10.3458 35.8427 9.98162C35.8427 9.61749 35.5476 9.32244 35.1835 9.32244H33.8447V7.27002C33.8447 6.90589 33.5497 6.61084 33.1855 6.61084C32.8214 6.61084 32.5264 6.90589 32.5264 7.27002V9.98162C32.5264 10.3457 32.8214 10.6408 33.1855 10.6408Z" fill="#0D0B49"/>
<path d="M22.439 13.96H18.3801C15.7253 13.96 13.5654 16.1839 13.5654 18.9176C13.5654 20.8471 14.666 22.6152 16.3694 23.4222C16.4859 23.4775 16.5613 23.6009 16.5613 23.7367V25.2698C16.5613 25.6467 16.7811 25.99 17.1212 26.1446C17.248 26.2022 17.3812 26.2305 17.5131 26.2305C17.7352 26.2305 17.9536 26.1504 18.1307 25.9957L20.4764 23.9485C20.5304 23.9013 20.5978 23.8753 20.6661 23.8753H22.439C25.0938 23.8753 27.2537 21.6513 27.2537 18.9176C27.2537 16.1839 25.0939 13.96 22.439 13.96ZM22.439 22.557H20.6662C20.279 22.557 19.9037 22.6984 19.6096 22.9552L17.8796 24.4651V23.7367C17.8796 23.0941 17.5084 22.503 16.9338 22.2307C15.6884 21.6408 14.8838 20.3403 14.8838 18.9176C14.8838 16.9109 16.4523 15.2783 18.3801 15.2783H22.439C24.367 15.2783 25.9354 16.9109 25.9354 18.9176C25.9355 20.9244 24.367 22.557 22.439 22.557Z" fill="#0D0B49"/>
<path d="M22.1949 16.9585H18.6191C18.255 16.9585 17.96 17.2535 17.96 17.6177C17.96 17.9818 18.255 18.2769 18.6191 18.2769H22.1949C22.559 18.2769 22.8541 17.9818 22.8541 17.6177C22.8541 17.2535 22.559 16.9585 22.1949 16.9585Z" fill="#0D0B49"/>
<path d="M21.1802 19.5127H18.6191C18.255 19.5127 17.96 19.8077 17.96 20.1719C17.96 20.536 18.255 20.8311 18.6191 20.8311H21.1802C21.5443 20.8311 21.8394 20.536 21.8394 20.1719C21.8394 19.8077 21.5443 19.5127 21.1802 19.5127Z" fill="#0D0B49"/>
<path d="M43.8335 21.3018C43.5248 18.9669 41.5905 17.0878 39.2342 16.8337C39.0399 16.8129 38.8436 16.8022 38.6503 16.8022H38.6501C37.2541 16.8022 35.9415 17.3426 34.9541 18.3239C33.9654 19.3064 33.4209 20.613 33.4209 22.0029C33.4209 22.9092 33.6601 23.8026 34.1134 24.5879L37.6239 30.6379C37.8385 31.0073 38.2224 31.2278 38.6504 31.2278C39.0785 31.2278 39.4622 31.0074 39.677 30.6377L43.1875 24.5877C43.7626 23.5916 43.9861 22.4554 43.8335 21.3018ZM42.0465 23.9273L38.6504 29.7801L35.2544 23.9275C34.9174 23.3436 34.7393 22.6781 34.7393 22.0029C34.7393 20.9667 35.1456 19.9921 35.8833 19.2591C36.6221 18.5248 37.6048 18.1206 38.6503 18.1206C38.7966 18.1206 38.9454 18.1287 39.0929 18.1445C40.8525 18.3342 42.2965 19.7347 42.5264 21.4745C42.6406 22.3377 42.4743 23.1863 42.0465 23.9273Z" fill="#0D0B49"/>
<path d="M38.6524 19.6201C37.417 19.6201 36.4121 20.6251 36.4121 21.8604C36.4121 23.0957 37.4171 24.1007 38.6524 24.1007C39.8877 24.1007 40.8927 23.0957 40.8927 21.8604C40.8927 20.6251 39.8877 19.6201 38.6524 19.6201ZM38.6524 22.7824C38.144 22.7824 37.7305 22.3688 37.7305 21.8604C37.7305 21.3521 38.144 20.9386 38.6524 20.9386C39.1607 20.9386 39.5743 21.3521 39.5743 21.8604C39.5743 22.3688 39.1607 22.7824 38.6524 22.7824Z" fill="#0D0B49"/>
<path d="M32.0044 36.0863C31.7198 35.9164 31.3639 35.9124 31.0757 36.0761C30.7874 36.2397 30.6084 36.5472 30.6084 36.8787V41.1632C30.6084 41.4947 30.7874 41.8023 31.0756 41.9658C31.2167 42.0458 31.374 42.0858 31.5312 42.0858C31.6951 42.0858 31.8591 42.0423 32.0045 41.9556L35.5915 39.8133C35.873 39.6451 36.0412 39.349 36.0412 39.021C36.0412 38.693 35.873 38.3967 35.5915 38.2286L32.0044 36.0863ZM31.9268 40.4663V37.5755L34.3469 39.0209L31.9268 40.4663Z" fill="#0D0B49"/>
<path d="M8.07768 9.88309C8.56222 9.38835 9.83444 8.07737 10.7773 7.10451C11.7286 6.1204 11.7286 4.51903 10.7772 3.53483C10.3107 3.0524 9.68705 2.78662 9.02084 2.78662C8.41887 2.78662 7.85154 3.00362 7.40356 3.40142C6.9555 3.00362 6.38816 2.78662 5.78629 2.78662C5.12025 2.78662 4.4964 3.05223 4.02979 3.53492C3.07846 4.51903 3.07855 6.1204 4.03041 7.10513C4.97251 8.0772 6.24455 9.38809 6.7297 9.88344C6.90927 10.0665 7.14868 10.1673 7.40365 10.1673C7.65888 10.1674 7.89821 10.0664 8.07768 9.88309ZM4.97761 6.18816C4.5146 5.70934 4.5146 4.9301 4.97743 4.45118C5.19346 4.22794 5.48069 4.10498 5.7862 4.10498C6.09171 4.10498 6.37893 4.22794 6.59479 4.45109L6.92957 4.79738C7.05376 4.92588 7.22479 4.99848 7.40356 4.99848C7.58233 4.99848 7.75328 4.92597 7.87747 4.79747L8.21233 4.45118C8.42819 4.22794 8.71542 4.10507 9.02093 4.10507C9.32661 4.10507 9.61375 4.22794 9.82952 4.45118C10.2925 4.93019 10.2925 5.70942 9.83013 6.18773C9.03059 7.01275 7.99357 8.0815 7.40365 8.68681C6.81346 8.08115 5.77653 7.01258 4.97761 6.18816Z" fill="#0D0B49"/>
<path d="M37.7575 33.0414H31.9711V15.3972C32.3627 15.4851 32.7693 15.5329 33.1869 15.5329C36.2482 15.5329 38.7388 13.0424 38.7388 9.98104C38.7388 6.91972 36.2482 4.42916 33.1869 4.42916C32.7693 4.42916 32.3627 4.47706 31.9711 4.56486V3.95464C31.9711 2.88712 31.1026 2.01858 30.035 2.01858H13.6875V1.09863C13.6875 0.492803 13.1947 0 12.5889 0H2.21875C1.61292 0 1.12012 0.492803 1.12012 1.09863V11.8558C1.12012 12.4617 1.61292 12.9545 2.21875 12.9545H4.51067C4.8748 12.9545 5.16985 12.6594 5.16985 12.2953C5.16985 11.9312 4.8748 11.6361 4.51067 11.6361H2.43848V1.31836H12.3692V11.6361H7.64556C7.28143 11.6361 6.98638 11.9312 6.98638 12.2953C6.98638 12.6594 7.28143 12.9545 7.64556 12.9545H8.8457V31.7807H3.40431C2.79848 31.7807 2.30567 32.2735 2.30567 32.8794V39.5979C2.30567 40.2037 2.79848 40.6965 3.40431 40.6965H8.8457V41.767C8.8457 42.8346 9.71424 43.7031 10.7818 43.7031H27.2516V43.9014C27.2516 44.5072 27.7444 45 28.3502 45H37.7575C38.3633 45 38.8561 44.5072 38.8561 43.9014V41.2207C38.8561 40.8566 38.5611 40.5615 38.197 40.5615C37.8328 40.5615 37.5378 40.8566 37.5378 41.2207V43.6816H28.5699V34.3598H37.5378V38.0859C37.5378 38.45 37.8328 38.7451 38.197 38.7451C38.5611 38.7451 38.8561 38.45 38.8561 38.0859V34.1401C38.8561 33.5343 38.3633 33.0414 37.7575 33.0414ZM37.4204 9.98112C37.4204 12.3155 35.5213 14.2146 33.1869 14.2146C30.8526 14.2146 28.9534 12.3155 28.9534 9.98112C28.9534 7.64675 30.8526 5.74761 33.1869 5.74761C35.5213 5.74761 37.4204 7.64675 37.4204 9.98112ZM30.035 3.33703C30.3757 3.33703 30.6528 3.61415 30.6528 3.95473V5.04387C29.2303 5.77696 28.1641 7.10613 27.786 8.69968H13.6875V3.33703H30.035ZM11.3371 33.0991L8.01962 36.0396L4.70219 33.0991H11.3371ZM3.62403 39.3782V33.905L7.29637 37.1602C7.50265 37.3431 7.76113 37.4345 8.01971 37.4345C8.27819 37.4345 8.53677 37.3431 8.74287 37.1602L12.4154 33.905V39.3782H3.62403ZM27.2516 42.3847H10.7818C10.4412 42.3847 10.1641 42.1076 10.1641 41.767V40.6965H12.6351C13.2409 40.6965 13.7337 40.2037 13.7337 39.5979V36.5864H27.2516V42.3847ZM28.4756 30.7278H30.6528V33.0414H28.3502C27.7444 33.0414 27.2516 33.5342 27.2516 34.1401V35.268H13.7337V32.8793C13.7337 32.2734 13.2409 31.7806 12.6351 31.7806H10.1641V30.7278H25.3702C25.7343 30.7278 26.0294 30.4327 26.0294 30.0686C26.0294 29.7045 25.7343 29.4094 25.3702 29.4094H10.1641V12.9545H12.5889C13.1947 12.9545 13.6875 12.4617 13.6875 11.8558V10.018H27.636C27.6501 12.1511 28.8731 14.0012 30.6528 14.9184V29.4095H28.4756C28.1115 29.4095 27.8165 29.7046 27.8165 30.0687C27.8165 30.4328 28.1115 30.7278 28.4756 30.7278Z" fill="#0D0B49"/>
</svg>
