<svg width="47" height="46" viewBox="0 0 47 46" fill="none" xmlns="http://www.w3.org/2000/svg">
<path d="M30.5603 41.7305H15.3848C14.4819 41.7305 13.75 42.4624 13.75 43.3653C13.75 44.2682 14.4819 45.0001 15.3848 45.0001H30.5603C31.4632 45.0001 32.1951 44.2682 32.1951 43.3653C32.1951 42.4624 31.4632 41.7305 30.5603 41.7305Z" fill="white"/>
<path d="M42.9237 4.92041H3.91895C2.26209 4.92041 0.918945 6.26355 0.918945 7.92041V32.1908C0.918945 33.8477 2.26209 35.1908 3.91895 35.1908H42.9237C44.5806 35.1908 45.9237 33.8477 45.9237 32.1908V7.92041C45.9237 6.26356 44.5806 4.92041 42.9237 4.92041Z" fill="white"/>
<path d="M45.8808 4.91943H1.10352V29.0925H45.8808V4.91943Z" fill="white"/>
<rect x="0.919922" y="22.1675" width="45.4594" height="7.05604" fill="#FF9B21"/>
<path d="M11.6582 34.8746H18.9846M5.92453 34.8746H4.91894C2.70981 34.8746 0.918945 33.0837 0.918945 30.8746V29.0796M18.9846 34.8746V41.8938M18.9846 34.8746H27.8126M18.9846 41.8938H15.8938C15.0373 41.8938 14.343 42.5881 14.343 43.4446V43.4446C14.343 44.301 15.0373 44.9953 15.8938 44.9953H31.0854C31.9419 44.9953 32.6362 44.301 32.6362 43.4446V43.4446C32.6362 42.5881 31.9419 41.8938 31.0854 41.8938H27.8126M18.9846 41.8938H27.8126M27.8126 41.8938V34.8746M27.8126 34.8746H41.9237C44.1329 34.8746 45.9237 33.0837 45.9237 30.8746V29.0796M0.918945 29.0796V8.92041C0.918945 6.71127 2.70981 4.92041 4.91895 4.92041H41.9237C44.1329 4.92041 45.9237 6.71128 45.9237 8.92041V29.0796M0.918945 29.0796H45.9237" stroke="#0D0B49" stroke-width="1.2" stroke-linecap="round"/>
<ellipse cx="8.92006" cy="34.8734" rx="1.00112" ry="0.897808" fill="#0D0B49"/>
<circle cx="23.4622" cy="31.9333" r="0.977784" fill="#0D0B49"/>
<path d="M0.918945 22.1685H45.9412" stroke="#0D0B49" stroke-width="1.2"/>
<circle cx="6.16919" cy="25.4983" r="0.977784" fill="#0D0B49"/>
<circle cx="12.0374" cy="25.4983" r="0.977784" fill="#0D0B49"/>
<circle cx="17.9036" cy="25.4983" r="0.977784" fill="#0D0B49"/>
<circle cx="23.7708" cy="25.4983" r="0.977784" fill="#0D0B49"/>
<circle cx="29.637" cy="25.4983" r="0.977784" fill="#0D0B49"/>
<circle cx="35.5051" cy="25.4983" r="0.977784" fill="#0D0B49"/>
<circle cx="41.3723" cy="25.4983" r="0.977784" fill="#0D0B49"/>
<path d="M0.917969 1C9.48852 7.03813 12.7246 11.4594 14.2672 22.1681C16.683 15.3609 19.7137 12.3681 26.7074 10.0161" stroke="#0D0B49" stroke-width="1.2" stroke-linecap="round"/>
<circle cx="31.5841" cy="7.13339" r="3.9997" fill="#783C85" stroke="#0D0B49" stroke-width="1.2"/>
</svg>
