<svg width="52" height="47" viewBox="0 0 52 47" fill="none" xmlns="http://www.w3.org/2000/svg">
<path d="M1 5C1 2.79086 2.79086 1 5 1H47.1231C49.3322 1 51.1231 2.79086 51.1231 5V41.9507C51.1231 44.1598 49.3322 45.9506 47.1231 45.9506H5C2.79086 45.9506 1 44.1598 1 41.9506V5Z" fill="white"/>
<path d="M28.3486 15.5537C28.3486 13.3446 30.1395 11.5537 32.3486 11.5537H43.2245C45.4337 11.5537 47.2245 13.3446 47.2245 15.5537V35.1554C47.2245 37.3645 45.4337 39.1554 43.2245 39.1554H32.3486C30.1395 39.1554 28.3486 37.3645 28.3486 35.1554V15.5537Z" fill="#FF9B21"/>
<path d="M31.7266 19.1758H43.9304" stroke="#0D0B49" stroke-width="1.2" stroke-linecap="round"/>
<path d="M31.7266 22.4009H43.9304" stroke="#0D0B49" stroke-width="1.2" stroke-linecap="round"/>
<path d="M31.7266 25.5278H43.9304" stroke="#0D0B49" stroke-width="1.2" stroke-linecap="round"/>
<path d="M31.7266 28.6538H43.9304" stroke="#0D0B49" stroke-width="1.2" stroke-linecap="round"/>
<path d="M31.7266 31.8789H43.9304" stroke="#0D0B49" stroke-width="1.2" stroke-linecap="round"/>
<path d="M31.7266 35.0059H43.9304" stroke="#0D0B49" stroke-width="1.2" stroke-linecap="round"/>
<path d="M1.10254 3.09717C1.10254 1.9926 1.99797 1.09717 3.10254 1.09717H49.2256C50.3302 1.09717 51.2256 1.9926 51.2256 3.09717V5.54661C51.2256 6.65118 50.3302 7.54661 49.2256 7.54661H3.10254C1.99797 7.54661 1.10254 6.65118 1.10254 5.54661V3.09717Z" fill="white"/>
<path d="M5.02441 16.5522C5.02441 13.7908 7.26299 11.5522 10.0244 11.5522H18.7661C21.5275 11.5522 23.7661 13.7908 23.7661 16.5522V20.8192C23.7661 23.5806 21.5275 25.8192 18.7661 25.8192H10.0244C7.26299 25.8192 5.02441 23.5806 5.02441 20.8192V16.5522Z" fill="#FF9B21"/>
<path d="M23.3652 21.3985C23.667 21.762 23.8303 22.2206 23.8264 22.693L23.8166 23.8421C23.8073 24.9401 22.9147 25.8252 21.8167 25.8252H19.8077C19.2088 25.8252 18.6414 25.5568 18.2615 25.0938L15.9622 22.2912C15.1592 21.3125 15.4561 19.8433 16.5761 19.2532L18.6252 18.1736C19.4616 17.7329 20.4924 17.9381 21.0963 18.6655L23.3652 21.3985Z" fill="#783C85"/>
<path d="M19.7245 25.8506H7.50204C5.97998 25.8506 4.74609 24.6167 4.74609 23.0947C4.74609 22.0266 5.36322 21.0547 6.32986 20.6004L10.3152 18.7275C11.5011 18.1702 12.9115 18.447 13.7988 19.4112L19.7245 25.8506Z" fill="#783C85"/>
<path d="M51.1205 13.9975V7.54807M51.1205 20.7401V42.0004C51.1205 44.2096 49.3297 46.0004 47.1205 46.0004H5.10645C2.89731 46.0004 1.10645 44.2096 1.10645 42.0004V7.54807M51.1205 18.7857V16.2939M33.0326 11.5545H32.4017C30.1926 11.5545 28.4017 13.3454 28.4017 15.5545V35.209C28.4017 37.4181 30.1926 39.209 32.4017 39.209H43.1434C45.3525 39.209 47.1434 37.4181 47.1434 35.209V15.5545C47.1434 13.3454 45.3525 11.5545 43.1434 11.5545H36.9008M31.8341 15.7076H43.8745M7.80768 19.6163L9.14815 18.9228C10.8401 18.0474 12.9147 18.4867 14.1066 19.9727L14.4869 20.447M18.7585 25.7726H19.9165C22.0753 25.7726 23.8253 24.0226 23.8253 21.8639V21.8639M18.7585 25.7726H8.92016C6.71102 25.7726 4.92016 23.9818 4.92016 21.7726V15.5545C4.92016 13.3454 6.71102 11.5545 8.92016 11.5545H19.8253C22.0344 11.5545 23.8253 13.3454 23.8253 15.5545V21.8639M18.7585 25.7726L14.4869 20.447M14.4869 20.447L17.2439 18.9645C18.918 18.0643 20.9945 18.4666 22.2113 19.9269L23.8253 21.8639M51.1205 7.54807V5.09863C51.1205 2.88949 49.3297 1.09863 47.1205 1.09863H5.10645C2.89731 1.09863 1.10645 2.88949 1.10645 5.09863V7.54807M51.1205 7.54807H1.10645" stroke="#0D0B49" stroke-width="1.2" stroke-linecap="round"/>
<path d="M5.03223 29.7295H23.7739" stroke="#0D0B49" stroke-width="1.2" stroke-linecap="round"/>
<path d="M5.03223 32.8564H23.7739" stroke="#0D0B49" stroke-width="1.2" stroke-linecap="round"/>
<ellipse cx="17.6709" cy="14.5827" rx="2.0703" ry="1.85666" fill="#783C85"/>
<path d="M5.03223 35.9839H23.7739" stroke="#0D0B49" stroke-width="1.2" stroke-linecap="round"/>
<path d="M5.03223 39.1104H23.7739" stroke="#0D0B49" stroke-width="1.2" stroke-linecap="round"/>
<path d="M19.1412 14.5827C19.1412 15.217 18.546 15.8394 17.6709 15.8394C16.7957 15.8394 16.2006 15.217 16.2006 14.5827C16.2006 13.9485 16.7957 13.3261 17.6709 13.3261C18.546 13.3261 19.1412 13.9485 19.1412 14.5827Z" stroke="#0D0B49" stroke-width="1.2"/>
<circle cx="34" cy="4" r="0.5" fill="#0D0B49" stroke="#0D0B49"/>
<circle cx="40" cy="4" r="0.5" fill="#0D0B49" stroke="#0D0B49"/>
<circle cx="46" cy="4" r="0.5" fill="#0D0B49" stroke="#0D0B49"/>
</svg>
