<svg width="38" height="37" viewBox="0 0 38 37" fill="none" xmlns="http://www.w3.org/2000/svg">
<path d="M14.8682 28.5132C22.563 28.5132 28.8008 22.2754 28.8008 14.5806C28.8008 6.88581 22.563 0.647949 14.8682 0.647949C7.17341 0.647949 0.935547 6.88581 0.935547 14.5806C0.935547 22.2754 7.17341 28.5132 14.8682 28.5132Z" fill="white"/>
<path d="M26.6647 23.627L34.5423 31.5548C35.4127 32.4307 35.4082 33.8464 34.5322 34.7168C33.6563 35.5872 32.2406 35.5827 31.3702 34.7068L23.4926 26.779L26.6647 23.627Z" fill="#5C63AB" stroke="#0D0B49"/>
<mask id="path-3-inside-1_101_2219" fill="white">
<path d="M21.2547 2.29482C21.4508 1.89983 21.9319 1.7376 22.315 1.95604C25.3278 3.67399 27.661 6.39622 28.9011 9.66421C30.2362 13.1827 30.2066 17.077 28.8182 20.5746C27.4298 24.0723 24.784 26.9179 21.4054 28.5473C18.0268 30.1766 14.1622 30.4707 10.578 29.3711C6.99377 28.2716 3.95166 25.8587 2.05493 22.611C0.158202 19.3633 -0.45462 15.5179 0.337988 11.8375C1.1306 8.15708 3.27075 4.91035 6.33405 2.74115C9.1799 0.72592 12.6294 -0.222581 16.0843 0.0440269C16.5228 0.0778651 16.8301 0.479754 16.7734 0.915886C16.7166 1.35278 16.3161 1.6582 15.8766 1.62716C12.8175 1.41111 9.76795 2.2598 7.24798 4.04425C4.50997 5.9831 2.59708 8.88507 1.88864 12.1747C1.18019 15.4643 1.72794 18.9013 3.42326 21.8041C5.11857 24.707 7.83764 26.8636 11.0413 27.8464C14.2449 28.8292 17.6991 28.5664 20.7189 27.1101C23.7387 25.6537 26.1036 23.1102 27.3446 19.984C28.5855 16.8578 28.612 13.3771 27.4186 10.2322C26.3196 7.33595 24.2601 4.91931 21.6002 3.38174C21.2205 3.16223 21.0597 2.68767 21.2547 2.29482Z"/>
</mask>
<path d="M21.2547 2.29482C21.4508 1.89983 21.9319 1.7376 22.315 1.95604C25.3278 3.67399 27.661 6.39622 28.9011 9.66421C30.2362 13.1827 30.2066 17.077 28.8182 20.5746C27.4298 24.0723 24.784 26.9179 21.4054 28.5473C18.0268 30.1766 14.1622 30.4707 10.578 29.3711C6.99377 28.2716 3.95166 25.8587 2.05493 22.611C0.158202 19.3633 -0.45462 15.5179 0.337988 11.8375C1.1306 8.15708 3.27075 4.91035 6.33405 2.74115C9.1799 0.72592 12.6294 -0.222581 16.0843 0.0440269C16.5228 0.0778651 16.8301 0.479754 16.7734 0.915886C16.7166 1.35278 16.3161 1.6582 15.8766 1.62716C12.8175 1.41111 9.76795 2.2598 7.24798 4.04425C4.50997 5.9831 2.59708 8.88507 1.88864 12.1747C1.18019 15.4643 1.72794 18.9013 3.42326 21.8041C5.11857 24.707 7.83764 26.8636 11.0413 27.8464C14.2449 28.8292 17.6991 28.5664 20.7189 27.1101C23.7387 25.6537 26.1036 23.1102 27.3446 19.984C28.5855 16.8578 28.612 13.3771 27.4186 10.2322C26.3196 7.33595 24.2601 4.91931 21.6002 3.38174C21.2205 3.16223 21.0597 2.68767 21.2547 2.29482Z" stroke="#0D0B49" stroke-width="2" stroke-linecap="round" mask="url(#path-3-inside-1_101_2219)"/>
<path d="M1.69434 13.2487H8.06663L14.2229 19.297L21.8553 12.0246L30.3877 3.24023H36.724" stroke="#0D0B49" stroke-linecap="round"/>
<circle cx="21.818" cy="11.881" r="2.02012" fill="#FF9B21" stroke="#0D0B49"/>
<circle cx="30.5309" cy="3.16807" r="2.02012" fill="#FF9B21" stroke="#0D0B49"/>
</svg>
