<svg width="48" height="48" viewBox="0 0 48 48" fill="none" xmlns="http://www.w3.org/2000/svg">
<g clip-path="url(#clip0_101_6510)">
<path d="M26.9632 3.52588H3.65109C2.02294 3.52588 0.703125 4.84569 0.703125 6.47385V21.1328C0.703125 22.7481 2.0025 24.0593 3.61294 24.0798V30.9287C3.61294 31.3583 4.155 31.5465 4.42134 31.2095L9.69797 24.5293C9.92166 24.246 10.2627 24.0808 10.6237 24.0808H26.9633C28.5914 24.0808 29.9112 22.7609 29.9112 21.1328V6.47385C29.9111 4.84569 28.5913 3.52588 26.9632 3.52588V3.52588Z" fill="#6B61B1"/>
<path d="M26.9629 3.52588H21.0518C22.6799 3.52588 23.9997 4.84569 23.9997 6.47376V21.1327C23.9997 22.7609 22.6799 24.0807 21.0518 24.0807H26.9629C28.591 24.0807 29.9109 22.7609 29.9109 21.1327V6.47376C29.9109 4.84569 28.591 3.52588 26.9629 3.52588V3.52588Z" fill="#5E54AC"/>
<path d="M3.61328 30.9285C3.61328 31.3581 4.15534 31.5463 4.42169 31.2093L9.69831 24.5291C9.922 24.2458 10.2631 24.0807 10.624 24.0806H3.61328V30.9285Z" fill="#5E54AC"/>
<path d="M17.1316 12.4731H43.9109C45.7811 12.4731 47.2973 13.9893 47.2973 15.8596V32.6987C47.2973 34.5542 45.8047 36.0604 43.9547 36.084V43.9516C43.9547 44.445 43.332 44.6613 43.0261 44.2741L36.9647 36.6003C36.7078 36.275 36.316 36.0851 35.9013 36.0851H17.1316C15.2613 36.0851 13.7451 34.569 13.7451 32.6987V15.8595C13.7452 13.9893 15.2613 12.4731 17.1316 12.4731V12.4731Z" fill="#FF9B21"/>
<path d="M41.6768 17.9194H19.3643C18.9759 17.9194 18.6611 18.2342 18.6611 18.6226C18.6611 19.0109 18.9759 19.3257 19.3643 19.3257H41.6768C42.0651 19.3257 42.3799 19.0109 42.3799 18.6226C42.3799 18.2342 42.0651 17.9194 41.6768 17.9194Z" fill="black"/>
<path d="M41.6768 23.2944H19.3643C18.9759 23.2944 18.6611 23.6092 18.6611 23.9976C18.6611 24.3859 18.9759 24.7007 19.3643 24.7007H41.6768C42.0651 24.7007 42.3799 24.3859 42.3799 23.9976C42.3799 23.6092 42.0651 23.2944 41.6768 23.2944Z" fill="black"/>
<path d="M41.6768 28.6694H19.3643C18.9759 28.6694 18.6611 28.9842 18.6611 29.3726C18.6611 29.7609 18.9759 30.0757 19.3643 30.0757H41.6768C42.0651 30.0757 42.3799 29.7609 42.3799 29.3726C42.3799 28.9842 42.0651 28.6694 41.6768 28.6694Z" fill="black"/>
<path d="M43.9109 11.77H17.1316C14.8766 11.77 13.042 13.6045 13.042 15.8596V32.6987C13.042 34.9536 14.8765 36.7882 17.1316 36.7882H35.9013C36.1021 36.7882 36.2885 36.8785 36.413 37.0361L42.4744 44.7098C42.7133 45.0123 43.0619 45.1771 43.4268 45.1771C43.5625 45.1771 43.7005 45.1543 43.8359 45.1072C44.3353 44.9338 44.658 44.4801 44.658 43.9515V36.7184C46.5541 36.3642 48.0004 34.6879 48.0004 32.6987V15.8595C48.0004 13.6045 46.1659 11.77 43.9109 11.77ZM46.5942 32.6987C46.5942 34.159 45.4061 35.3623 43.9457 35.3809C43.561 35.3858 43.2516 35.6991 43.2516 36.084V43.4251L37.5166 36.1644C37.1238 35.6671 36.5351 35.3819 35.9013 35.3819H17.1316C15.652 35.3819 14.4482 34.1781 14.4482 32.6986V15.8595C14.4482 14.3799 15.6519 13.1762 17.1316 13.1762H43.9109C45.3904 13.1762 46.5942 14.3799 46.5942 15.8595V32.6987Z" fill="black"/>
<path d="M10.3588 23.3963C9.87788 23.4645 9.44719 23.7121 9.14606 24.0933L4.31597 30.2083V24.0797C4.31597 23.6949 4.00659 23.3816 3.62184 23.3766C2.40019 23.361 1.40625 22.3544 1.40625 21.1327V6.47385C1.40625 5.23607 2.41331 4.229 3.65109 4.229H26.9633C28.201 4.229 29.2081 5.23607 29.2081 6.47385V9.18622C29.2081 9.57453 29.5229 9.88935 29.9112 9.88935C30.2995 9.88935 30.6143 9.57453 30.6143 9.18622V6.47385C30.6143 4.46066 28.9764 2.82275 26.9633 2.82275H3.65109C1.63791 2.82275 0 4.46066 0 6.47385V21.1327C0 22.8827 1.25353 24.3613 2.90981 24.7068V30.9286C2.90981 31.4281 3.21469 31.8568 3.68663 32.0207C3.81459 32.0652 3.94491 32.0867 4.07316 32.0867C4.41787 32.0867 4.74741 31.9309 4.97306 31.6453L10.2497 24.965C10.3258 24.8685 10.4348 24.8059 10.5565 24.7886C10.941 24.734 11.2085 24.378 11.1538 23.9936C11.0992 23.6091 10.7438 23.3414 10.3588 23.3963V23.3963Z" fill="black"/>
<path d="M47.3437 12.6094H16.7344H13.7344V36.4688H36.7969L43.9219 45V36.4688C45.1406 36.3281 47.2031 34.9688 47.3437 33.9844V12.6094Z" stroke="black" stroke-linecap="round" stroke-linejoin="round"/>
</g>
<defs>
<clipPath id="clip0_101_6510">
<rect width="48" height="48" fill="white"/>
</clipPath>
</defs>
</svg>
