<svg width="49" height="43" viewBox="0 0 49 43" fill="none" xmlns="http://www.w3.org/2000/svg">
<path d="M32.3692 8.30358C32.3692 12.5571 28.9141 16.0072 24.6496 16.0072C20.3851 16.0072 16.9301 12.5571 16.9301 8.30358C16.9301 4.0501 20.3851 0.6 24.6496 0.6C28.9141 0.6 32.3692 4.0501 32.3692 8.30358Z" fill="#5C63AB" stroke="#0D0B49" stroke-width="1.2"/>
<path d="M12.5816 11.2216C12.5816 13.8638 10.4352 16.0077 7.78513 16.0077C5.13503 16.0077 2.98867 13.8638 2.98867 11.2216C2.98867 8.57935 5.13503 6.43545 7.78513 6.43545C10.4352 6.43545 12.5816 8.57935 12.5816 11.2216Z" fill="#FF9B21" stroke="#0D0B49" stroke-width="1.2"/>
<path d="M46.3082 11.2216C46.3082 13.8638 44.1618 16.0077 41.5117 16.0077C38.8616 16.0077 36.7152 13.8638 36.7152 11.2216C36.7152 8.57935 38.8616 6.43545 41.5117 6.43545C44.1618 6.43545 46.3082 8.57935 46.3082 11.2216Z" fill="#783C85" stroke="#0D0B49" stroke-width="1.2"/>
<path d="M0.740625 25.749C0.740625 22.7667 3.15829 20.349 6.14062 20.349H8.9809C11.9632 20.349 14.3809 22.7667 14.3809 25.749V37.4981C14.3809 38.2713 13.7541 38.8981 12.9809 38.8981H2.14062C1.36743 38.8981 0.740625 38.2713 0.740625 37.4981V25.749Z" fill="#FF9B21" stroke="#0D0B49" stroke-width="1.2"/>
<path d="M34.4672 25.749C34.4672 22.7667 36.8849 20.349 39.8672 20.349H42.7075C45.6898 20.349 48.1075 22.7667 48.1075 25.749V37.4981C48.1075 38.2713 47.4807 38.8981 46.7075 38.8981H35.8672C35.094 38.8981 34.4672 38.2713 34.4672 37.4981V25.749Z" fill="#783C85" stroke="#0D0B49" stroke-width="1.2"/>
<path d="M11.2527 32.7918C11.3242 25.6038 17.2367 19.8498 24.4239 19.9734C31.5899 19.8501 37.4653 25.6253 37.4653 32.7924V37.7527C37.4653 40.0983 35.5638 41.9998 33.2182 41.9999L15.4773 42C13.1005 42 11.1804 40.0607 11.2041 37.684L11.2527 32.7918Z" fill="#5C63AB"/>
<path d="M14.7573 41.9671C12.2839 41.9671 11.6094 40.845 11.6094 38.6008V29.8483C12.0154 26.2012 14.793 21.9522 19.4759 20.5483C20.5068 20.2392 21.5935 20.1982 22.6698 20.1982H27.7988C33.1952 20.8715 36.7929 25.5843 37.2426 29.8483V38.6008C37.2426 39.5837 37.1361 40.3009 36.7935 40.8299C35.9323 42.1598 33.9701 41.969 32.3857 41.9729L21.1805 42" stroke="#0D0B49" stroke-linecap="round"/>
</svg>
