<svg width="38" height="38" viewBox="0 0 38 38" fill="none" xmlns="http://www.w3.org/2000/svg">
<path fill-rule="evenodd" clip-rule="evenodd" d="M3.57617 23.3128L18.5831 17.7468L3.57617 12.1787V23.3128Z" fill="#FF9B21"/>
<path fill-rule="evenodd" clip-rule="evenodd" d="M3.57617 12.1787L18.5831 17.7468L33.59 12.1787H3.57617Z" fill="#FF9B21"/>
<path fill-rule="evenodd" clip-rule="evenodd" d="M18.582 17.7463L33.5889 23.3123V12.1782L18.582 17.7463Z" fill="#FF9B21"/>
<path fill-rule="evenodd" clip-rule="evenodd" d="M3.57617 23.3126H33.59L18.5831 17.7466L3.57617 23.3126Z" fill="#FF9B21"/>
<path fill-rule="evenodd" clip-rule="evenodd" d="M1.07324 35.3219C1.07324 36.2141 1.80345 36.9458 2.6964 36.9458H35.631C36.524 36.9458 37.2562 36.2141 37.2562 35.3219L37.2542 8.50098H1.07324V35.3219ZM4.15681 22.7224V11.5883H34.1705V22.7223H4.15681V22.7224ZM26.3281 33.8564V26.3684H34.1705V33.8564H26.3281V33.8564ZM15.2435 26.3684H23.086V33.8564H15.2435V26.3684ZM4.15681 26.3684H11.9993V33.8564H4.15681V26.3684Z" fill="white"/>
<path d="M1 4C1 2.34315 2.34315 1 4 1H33.3356C35.5447 1 37.3356 2.79086 37.3356 5V9.07457H1V4Z" fill="white"/>
<path d="M6.40509 1.07422H5.07324C2.8641 1.07422 1.07324 2.86508 1.07324 5.07422V8.68589M11.9943 1.07422H33.1092C35.3183 1.07422 37.1092 2.86508 37.1092 5.07422V8.68589M1.07324 8.68589V32.9998C1.07324 35.209 2.8641 36.9998 5.07324 36.9998H33.1091C35.3183 36.9998 37.1092 35.209 37.1092 32.9998V8.68589M1.07324 8.68589H37.1092M4.05172 11.7379H34.0204M4.05172 11.7379V22.8061M4.05172 11.7379L34.0204 22.8061M34.0204 11.7379V22.8061M34.0204 11.7379L4.05172 22.8061M34.0204 22.8061H4.05172" stroke="#0D0B49" stroke-width="1.2" stroke-linecap="round" stroke-linejoin="round"/>
<path d="M4.19922 34.0207V26.5562H11.8844V34.0207H4.19922Z" fill="#5C63AB"/>
<path d="M4.19922 34.0207V26.5562H11.8844M4.19922 34.0207H11.8844V26.5562M4.19922 34.0207L11.8844 26.5562" stroke="#0D0B49" stroke-width="1.2" stroke-linecap="round" stroke-linejoin="round"/>
<path d="M15.1953 33.9841V26.5195H22.8805V33.9841H15.1953Z" fill="#5C63AB"/>
<path d="M15.1953 33.9841V26.5195H22.8805M15.1953 33.9841H22.8805V26.5195M15.1953 33.9841L22.8805 26.5195" stroke="#0D0B49" stroke-width="1.2" stroke-linecap="round" stroke-linejoin="round"/>
<path d="M26.2969 33.9841V26.5195H33.9821V33.9841H26.2969Z" fill="#5C63AB"/>
<path d="M26.2969 33.9841V26.5195H33.9821M26.2969 33.9841H33.9821V26.5195M26.2969 33.9841L33.9821 26.5195" stroke="#0D0B49" stroke-width="1.2" stroke-linecap="round" stroke-linejoin="round"/>
<path d="M5.33887 4.82422H16.5174" stroke="#0D0B49" stroke-width="1.2" stroke-linecap="round"/>
<circle cx="24.7571" cy="4.82644" r="0.810813" fill="#0D0B49"/>
<circle cx="28.7317" cy="4.82644" r="0.810813" fill="#0D0B49"/>
<circle cx="32.6975" cy="4.82644" r="0.810813" fill="#0D0B49"/>
</svg>
