<svg width="63" height="45" viewBox="0 0 63 45" fill="none" xmlns="http://www.w3.org/2000/svg">
<path d="M52.3478 1L42.1878 14.4032H21.868L11.708 1H52.3478Z" fill="#FF9B21"/>
<path d="M1.54297 14.4038L32.0228 43.6035L62.5026 14.4038H1.54297Z" fill="#FF9B21"/>
<path d="M21.8652 14.4038L32.0252 43.6035L42.1851 14.4038H21.8652Z" fill="#FF9B21"/>
<path d="M61.3072 14.4037L51.1473 1.00049L40.9873 14.4037L30.8274 1.00049L20.6674 14.4037L10.5075 1.00049L1.73047 14.4037H61.3072Z" fill="#5C63AB"/>
<path d="M43.4358 32.5333L31.4664 44M31.4664 44L1.54297 14.76M31.4664 44L41.6404 14.76M31.4664 44L21.2924 14.76M1.54297 14.76L11.1185 1M1.54297 14.76H21.2924M61.9883 14.76L50.019 26.2267M61.9883 14.76L51.2159 1M61.9883 14.76H41.6404M51.2159 1H31.1672M51.2159 1L41.6404 14.76M11.1185 1L21.2924 14.76M11.1185 1H31.1672M21.2924 14.76L31.1672 1M21.2924 14.76H41.6404M31.1672 1L41.6404 14.76" stroke="#0D0B49" stroke-width="1.2" stroke-linecap="round" stroke-linejoin="round"/>
</svg>
