<svg width="46" height="46" viewBox="0 0 46 46" fill="none" xmlns="http://www.w3.org/2000/svg">
<path d="M34.1483 41.1387L34.8706 40.7398C40.7618 37.4868 44.6711 31.5392 45.3207 24.841C45.3918 24.1083 44.8006 23.4811 44.065 23.5087L44.0316 23.5099C43.2814 23.5382 42.647 24.0562 42.471 24.7789L41.749 27.7433C41.0181 30.7443 38.9903 33.2649 36.2154 34.6216C35.0701 35.1815 33.7728 34.2067 33.9921 32.9507L34.562 29.6867C34.6695 29.0712 34.2664 28.4822 33.6537 28.3595C33.1884 28.2664 32.7136 28.4682 32.4577 28.8678L28.3281 35.3186L28.3978 37.1336L32.3971 41.1328L34.1483 41.1387Z" fill="#FFDDCE"/>
<path d="M32.0262 45.326L34.7016 42.6505C34.9664 42.3857 34.9664 41.9564 34.7016 41.6916L27.8922 34.8822C27.6274 34.6174 27.198 34.6174 26.9333 34.8822L24.2578 37.5576L32.0262 45.326Z" fill="#FF9B21"/>
<path d="M11.8511 41.1387L11.1287 40.7398C5.23751 37.4868 1.32822 31.5392 0.678654 24.841C0.607587 24.1083 1.19876 23.4811 1.9344 23.5087L1.96782 23.5099C2.71802 23.5382 3.3524 24.0562 3.52841 24.7789L4.25039 27.7433C4.98127 30.7443 7.00905 33.2649 9.78396 34.6216C10.9293 35.1815 12.2265 34.2067 12.0072 32.9507L11.4374 29.6867C11.3299 29.0712 11.7329 28.4822 12.3457 28.3595C12.811 28.2664 13.2858 28.4682 13.5417 28.8678L17.6713 35.3186L17.6015 37.1336L13.6023 41.1328L11.8511 41.1387Z" fill="#FFDDCE"/>
<path d="M13.9736 45.326L11.2982 42.6505C11.0334 42.3857 11.0334 41.9564 11.2982 41.6916L18.1076 34.8822C18.3724 34.6174 18.8018 34.6174 19.0665 34.8822L21.742 37.5576L13.9736 45.326Z" fill="#FF9B21"/>
<path d="M21.0742 6.57812H24.9283V25.6426H21.0742V6.57812Z" fill="#5C63AB"/>
<path d="M38.2882 6.57835H7.71289V5.73741C7.71289 4.76925 8.49777 3.98438 9.46592 3.98438H36.5351C37.5033 3.98438 38.2882 4.76925 38.2882 5.73741V6.57835H38.2882Z" fill="#5C63AB"/>
<path d="M28.7625 28.9007H17.2383V27.0866C17.2383 26.2889 17.885 25.6421 18.6828 25.6421H27.318C28.1158 25.6421 28.7625 26.2888 28.7625 27.0866V28.9007Z" fill="#5C63AB"/>
<path d="M11.5848 19.3596H10.6613C7.67167 19.3596 5.24805 16.9359 5.24805 13.9463H16.9981C16.9981 16.936 14.5745 19.3596 11.5848 19.3596Z" fill="#FF9B21"/>
<path d="M35.3377 19.3591H34.4142C31.4246 19.3591 29.001 16.9354 29.001 13.9458H40.751C40.751 16.9355 38.3274 19.3591 35.3377 19.3591Z" fill="#FF9B21"/>
<path d="M25.5999 3.98385H20.3994V3.27409C20.3994 1.83802 21.5636 0.673828 22.9997 0.673828C24.4357 0.673828 25.5999 1.83802 25.5999 3.27409V3.98385Z" fill="#5C63AB"/>
<path d="M19.5439 34.4059C19.0689 33.9309 18.3265 33.8857 17.7985 34.2663L14.1101 28.5046C13.7014 27.8664 12.9571 27.5496 12.2142 27.699C11.2352 27.8951 10.6027 28.8193 10.7745 29.8028L11.3443 33.0668C11.4028 33.4019 11.2754 33.7241 11.0034 33.9286C10.7314 34.133 10.3865 34.1658 10.0807 34.0164C7.4777 32.7437 5.59152 30.3992 4.90592 27.5841L4.18394 24.6197C3.77856 22.9551 1.64397 22.2295 0.514631 23.4277C0.140611 23.8245 -0.0437482 24.3633 0.00881041 24.9061C0.678057 31.8071 4.69138 37.9294 10.748 41.2979C10.2977 41.8285 10.322 42.6267 10.8224 43.1273L13.4979 45.8028C13.6243 45.9291 13.7956 46.0001 13.9744 46.0001C14.1532 46.0001 14.3244 45.9291 14.4509 45.8028L22.2193 38.0344C22.4824 37.7711 22.4824 37.3446 22.2193 37.0814L19.5439 34.4059ZM1.35036 24.7762C1.32978 24.5631 1.43229 24.419 1.49537 24.3522C1.695 24.1401 1.95797 24.1841 1.94351 24.1836C2.39461 24.2005 2.76881 24.5039 2.87456 24.9386L3.59654 27.903C4.37719 31.1085 6.52491 33.778 9.48885 35.2271C10.2474 35.5979 11.138 35.5133 11.8129 35.0059C12.488 34.4987 12.8171 33.6669 12.6719 32.835L12.1021 29.571C12.0571 29.3136 12.2227 29.0717 12.4789 29.0203C12.6736 28.9815 12.8681 29.0641 12.975 29.2313L16.8123 35.2255L11.734 40.3039C11.6524 40.2282 2.42893 35.8986 1.35036 24.7762ZM13.9751 44.3729L11.7756 42.1684L18.591 35.3589L20.79 37.558L13.9751 44.3729Z" fill="#0D0B49"/>
<path d="M11.3338 17.1436C11.706 17.1436 12.0076 16.8419 12.0076 16.4697C12.0076 16.0975 11.706 15.7959 11.3338 15.7959H10.9111C10.5389 15.7959 10.2373 16.0975 10.2373 16.4697C10.2373 16.8419 10.5389 17.1436 10.9111 17.1436H11.3338Z" fill="black"/>
<path d="M6.56505 17.5467C6.87259 17.3372 6.9521 16.9179 6.74259 16.6104C6.33362 16.0102 6.07172 15.3319 5.97038 14.6198H16.2774C15.9493 16.9152 13.9703 18.6854 11.5857 18.6854H10.6623C9.90895 18.6854 9.18741 18.5127 8.51772 18.1721C8.18611 18.0033 7.78028 18.1354 7.61164 18.4671C7.44292 18.7988 7.57508 19.2045 7.90669 19.3732C8.76748 19.8111 9.69458 20.0331 10.6623 20.0331H11.5857C14.9421 20.0331 17.6728 17.3024 17.6728 13.946C17.6728 13.5738 17.3712 13.2722 16.999 13.2722H15.645L13.1257 7.25174H20.4001V24.9686H18.6834C17.5153 24.9686 16.565 25.9188 16.565 27.0868V28.9009C16.565 29.2732 16.8666 29.5748 17.2389 29.5748H28.7631C29.1353 29.5748 29.4369 29.2732 29.4369 28.9009V27.0868C29.4369 25.9188 28.4867 24.9686 27.3187 24.9686H25.602V7.25174H32.8763L30.3571 13.2722H29.0031C28.6309 13.2722 28.3293 13.5738 28.3293 13.946C28.3293 17.3024 31.06 20.0331 34.4163 20.0331H35.3398C38.6962 20.0331 41.4269 17.3024 41.4269 13.946C41.4269 13.5738 41.1253 13.2722 40.7531 13.2722H39.3992L36.8799 7.25174H38.2888C38.661 7.25174 38.9626 6.95013 38.9626 6.57791V5.73697C38.9626 4.86603 38.5013 4.10119 37.8103 3.6729L38.2148 3.26843C38.4779 3.00527 38.4779 2.57861 38.2147 2.31554C37.9516 2.05248 37.5249 2.05239 37.2618 2.31563L36.2673 3.31011H33.3485C32.9762 3.31011 32.6746 3.61172 32.6746 3.98394C32.6746 4.35616 32.9762 4.65777 33.3485 4.65777H36.5358C37.1309 4.65777 37.6151 5.14194 37.6151 5.73697V5.90408H8.38718V5.73697C8.38718 5.14194 8.87134 4.65777 9.46647 4.65777H30.6542C31.0265 4.65777 31.3281 4.35616 31.3281 3.98394C31.3281 3.61172 31.0265 3.31011 30.6542 3.31011H26.2752V3.27418C26.2751 1.46877 24.8064 0 23.001 0C21.1957 0 19.727 1.46877 19.727 3.27409V3.31002H9.73483L8.74035 2.31554C8.47711 2.05239 8.05044 2.0523 7.78747 2.31545C7.52423 2.57861 7.52423 3.00527 7.78738 3.26834L8.19186 3.67281C7.50096 4.10101 7.03952 4.86594 7.03952 5.73688V6.57782C7.03952 6.95004 7.34113 7.25165 7.71335 7.25165H9.12228L6.60297 13.2721H5.24902C4.8768 13.2721 4.5752 13.5737 4.5752 13.9459C4.5752 15.1736 4.9396 16.3573 5.62888 17.3691C5.8384 17.6768 6.2577 17.7564 6.56505 17.5467ZM21.0746 3.27409C21.0746 2.21186 21.9388 1.34766 23.001 1.34766C24.0632 1.34766 24.9274 2.21186 24.9274 3.27409V3.31002H21.0746V3.27409ZM28.0893 27.0868V28.2271H17.9127V27.0868C17.9127 26.6619 18.2584 26.3162 18.6834 26.3162H27.3186C27.7436 26.3162 28.0893 26.6619 28.0893 27.0868ZM35.3398 18.6854H34.4163C32.0316 18.6854 30.0527 16.9152 29.7245 14.6198H40.0315C39.7033 16.9151 37.7244 18.6854 35.3398 18.6854ZM35.4188 7.25174L37.9381 13.2722H31.818L34.3372 7.25174H35.4188ZM24.2542 7.25174V24.9686H21.7478V7.25174H24.2542ZM10.5832 7.25174H11.6648L14.1841 13.2722H8.06392L10.5832 7.25174Z" fill="#0D0B49"/>
<path d="M35.0895 15.7959H34.667C34.2948 15.7959 33.9932 16.0975 33.9932 16.4697C33.9932 16.8419 34.2948 17.1436 34.667 17.1436H35.0895C35.4618 17.1436 35.7634 16.8419 35.7634 16.4697C35.7634 16.0975 35.4617 15.7959 35.0895 15.7959Z" fill="black"/>
<path d="M45.4852 23.4276C44.3585 22.2328 42.2238 22.9445 41.8158 24.6197L41.0939 27.5842C40.4082 30.3993 38.522 32.7439 35.919 34.0165C35.6132 34.1659 35.2683 34.1331 34.9964 33.9287C34.7243 33.7243 34.5969 33.4021 34.6554 33.0669L35.2253 29.8029C35.397 28.8193 34.7646 27.8952 33.7856 27.699C33.0425 27.5503 32.2984 27.8664 31.8898 28.5047L28.2013 34.2664C27.6732 33.8857 26.9307 33.9313 26.4558 34.406L23.7804 37.0815C23.5172 37.3447 23.5172 37.7713 23.7804 38.0344L31.5488 45.8029C31.6804 45.9344 31.8529 46.0002 32.0253 46.0002C32.1977 46.0002 32.3702 45.9344 32.5019 45.8029L35.1773 43.1274C35.6777 42.627 35.7021 41.829 35.2521 41.2982C36.1103 40.8208 36.948 40.2739 37.7427 39.6708C38.0392 39.4459 38.0971 39.0233 37.8722 38.7268C37.6474 38.4304 37.2248 38.3723 36.9281 38.5973C35.5618 39.6338 34.4166 40.2144 34.2659 40.304L29.1874 35.2256L33.0248 29.2315C33.1317 29.0644 33.3265 28.9822 33.5208 29.0205C33.7771 29.0719 33.9426 29.3137 33.8976 29.5712L33.3277 32.8352C33.1825 33.667 33.5117 34.4989 34.1867 35.0061C34.8617 35.5133 35.7523 35.598 36.5108 35.2273C39.4747 33.7782 41.6224 31.1086 42.4032 27.9031L43.1251 24.9386C43.3613 23.9685 44.7282 23.9656 44.6495 24.7763C44.206 29.3485 42.1626 33.6502 38.8956 36.889C38.6314 37.151 38.6295 37.5777 38.8915 37.8419C39.1534 38.1061 39.5799 38.1082 39.8443 37.846C43.3342 34.3863 45.5171 29.7909 45.9907 24.9063C46.0436 24.3634 45.8592 23.8245 45.4852 23.4276ZM32.0254 44.3735L25.2104 37.5584L27.4149 35.359L34.2243 42.1743L32.0254 44.3735Z" fill="#0D0B49"/>
</svg>
