<svg width="36" height="36" viewBox="0 0 36 36" fill="none" xmlns="http://www.w3.org/2000/svg">
<path d="M23.7436 23.541C22.0664 25.2182 22.276 28.6025 22.276 28.6025H13.7702C13.7702 28.6025 13.9499 25.2182 12.3026 23.541C10.4757 21.9237 9.30762 19.5876 9.30762 16.9819C9.30762 12.1899 13.2011 8.29639 17.9931 8.29639C22.7852 8.29639 26.6787 12.1899 26.6787 16.9819C26.6787 19.5876 25.5406 21.9237 23.7436 23.541Z" fill="#FF9B21"/>
<path d="M22.516 31.2676C22.516 31.7169 22.1565 32.0763 21.7073 32.0763H14.3096C13.8604 32.0763 13.501 31.7169 13.501 31.2676C13.501 30.8184 13.8604 30.459 14.3096 30.459H21.6773C22.1266 30.459 22.516 30.8184 22.516 31.2676Z" fill="#E5E5E5"/>
<path d="M21.408 34.6221C21.408 35.0714 21.0486 35.4308 20.5994 35.4308H15.418C14.9688 35.4308 14.6094 35.0714 14.6094 34.6221C14.6094 34.1729 14.9688 33.8135 15.418 33.8135H20.5994C21.0486 33.8135 21.408 34.1729 21.408 34.6221Z" fill="#E5E5E5"/>
<path d="M24.1935 23.8402C26.1403 22.0731 27.2484 19.5873 27.2484 16.9816C27.2484 11.8901 23.0854 7.72705 17.9938 7.72705C12.9023 7.72705 8.73926 11.8901 8.73926 16.9816C8.73926 19.6472 9.90731 22.1929 11.884 23.93C13.3516 25.3976 13.2018 28.5124 13.2018 28.5424C13.2018 28.6921 13.2617 28.8419 13.3516 28.9617C13.4714 29.0815 13.6211 29.1414 13.7709 29.1414H22.2468C22.3965 29.1414 22.5463 29.0815 22.6661 28.9617C22.7859 28.8419 22.8158 28.6921 22.8158 28.5424C22.8158 28.5124 22.6661 25.3976 24.1336 23.93C24.1636 23.9001 24.1935 23.8701 24.1935 23.8402ZM23.3549 23.0914C23.295 23.1214 23.2651 23.1813 23.2351 23.2412C21.9173 24.6488 21.7076 26.955 21.6777 28.0332H14.3399C14.31 26.9251 14.0704 24.529 12.6627 23.1214C10.8957 21.564 9.87736 19.3477 9.87736 17.0116C9.87736 12.5191 13.5313 8.8951 17.9938 8.8951C22.4864 8.8951 26.1103 12.549 26.1103 17.0116C26.1103 19.3177 25.122 21.564 23.3549 23.0914Z" fill="#0D0B49"/>
<path d="M17.9939 10.123C17.6944 10.123 17.4248 10.3626 17.4248 10.6921C17.4248 10.9916 17.6644 11.2611 17.9939 11.2611C21.3483 11.2611 24.0737 13.9866 24.0737 17.341C24.0737 17.6405 24.3133 17.9101 24.6428 17.9101C24.9423 17.9101 25.2118 17.6705 25.2118 17.341C25.2118 13.3577 21.9772 10.123 17.9939 10.123Z" fill="#0D0B49"/>
<path d="M23.0857 31.2678C23.0857 30.4891 22.4567 29.8901 21.708 29.8901H14.3103C13.5316 29.8901 12.9326 30.5191 12.9326 31.2678C12.9326 32.0465 13.5616 32.6455 14.3103 32.6455H21.678C22.4567 32.6455 23.0857 32.0465 23.0857 31.2678ZM21.678 31.5074H14.3103C14.1606 31.5074 14.0707 31.3876 14.0707 31.2678C14.0707 31.1181 14.1905 31.0282 14.3103 31.0282H21.678C21.8278 31.0282 21.9176 31.148 21.9176 31.2678C21.9476 31.4176 21.8278 31.5074 21.678 31.5074Z" fill="#0D0B49"/>
<path d="M20.5991 33.2446H15.4177C14.639 33.2446 14.04 33.8736 14.04 34.6223C14.04 35.401 14.669 36 15.4177 36H20.5991C21.3778 36 21.9768 35.3711 21.9768 34.6223C21.9768 33.8736 21.3479 33.2446 20.5991 33.2446ZM20.5991 34.8619H15.4177C15.268 34.8619 15.1781 34.7421 15.1781 34.6223C15.1781 34.4726 15.2979 34.3827 15.4177 34.3827H20.5991C20.7489 34.3827 20.8387 34.5025 20.8387 34.6223C20.8387 34.7721 20.7489 34.8619 20.5991 34.8619Z" fill="#0D0B49"/>
<path d="M18.5629 4.40266V0.569052C18.5629 0.269551 18.3233 0 17.9939 0C17.6944 0 17.4248 0.239601 17.4248 0.569052V4.43261C17.4248 4.73211 17.6644 5.00166 17.9939 5.00166C18.3233 4.97171 18.5629 4.73211 18.5629 4.40266Z" fill="#0D0B49"/>
<path d="M27.4268 2.84536C27.1572 2.66566 26.8278 2.75551 26.6481 2.99511L24.5216 6.19977C24.3419 6.46932 24.4318 6.79877 24.6714 6.97847C24.7612 7.03837 24.881 7.06832 24.9709 7.06832C25.1506 7.06832 25.3303 6.97847 25.4501 6.82872L27.5765 3.62406C27.7562 3.38446 27.6664 3.02506 27.4268 2.84536Z" fill="#0D0B49"/>
<path d="M11.2246 6.94853C11.3145 6.94853 11.4343 6.91858 11.5241 6.85868C11.7937 6.67898 11.8536 6.34953 11.7038 6.07998L9.63726 2.84537C9.45756 2.57582 9.12811 2.51592 8.85856 2.66567C8.58901 2.84537 8.52911 3.17482 8.67886 3.44437L10.7454 6.67898C10.8652 6.85868 11.0449 6.94853 11.2246 6.94853Z" fill="#0D0B49"/>
<path d="M3.28776 9.64413L6.67212 11.4711C6.76197 11.531 6.85182 11.531 6.94167 11.531C7.15132 11.531 7.33102 11.4112 7.45082 11.2315C7.60057 10.9619 7.51072 10.6025 7.21122 10.4528L3.82686 8.62582C3.55731 8.47607 3.19791 8.56592 3.04816 8.86543C2.92836 9.16493 3.01821 9.49438 3.28776 9.64413Z" fill="#0D0B49"/>
<path d="M29.0451 11.5607C29.1349 11.5607 29.2248 11.5308 29.3146 11.5008L32.699 9.67387C32.9686 9.52412 33.0884 9.19467 32.9386 8.89517C32.7889 8.62562 32.4594 8.50582 32.1599 8.65557L28.7755 10.4825C28.506 10.6323 28.3862 10.9617 28.5359 11.2612C28.6258 11.4409 28.8354 11.5607 29.0451 11.5607Z" fill="#0D0B49"/>
</svg>
