<svg width="41" height="38" viewBox="0 0 41 38" fill="none" xmlns="http://www.w3.org/2000/svg">
<path d="M15.324 12.4011L6.78884 21.3147C3.23068 21.4507 3.36029 19.3066 4.53235 17.1678L8.14672 13.2303L15.324 12.4011Z" fill="#5C63AB"/>
<path d="M29.1151 25.6441C28.5315 22.0936 26.2191 20.2085 23.1502 22.2268C21.9442 23.0199 20.5187 23.5384 19.1168 23.1949L11.771 21.395C11.4595 21.3186 11.1398 21.28 10.8191 21.28H5.42285C3.21371 21.28 1.42285 23.0709 1.42285 25.28V32.4901C1.42285 34.6993 3.21371 36.4901 5.42285 36.4901H36.9454C39.0912 36.4901 41.1225 34.7033 40.3657 32.6953C39.6901 30.9025 38.2587 30.4577 36.2813 30.7142C36.4349 25.9008 33.0309 23.43 29.1151 25.6441Z" fill="white"/>
<path d="M28.1142 25.6441C27.558 22.134 25.3734 20.2516 22.4656 22.1594C21.2271 22.9719 19.7664 23.5232 18.3306 23.1591L11.4042 21.4027C11.0828 21.3212 10.7525 21.28 10.421 21.28H5.42285C3.21371 21.28 1.42285 23.0709 1.42285 25.28V32.4901C1.42285 34.6993 3.21371 36.4901 5.42285 36.4901H29.189M28.1142 25.6441C27.428 26.3215 27.0915 26.8401 26.6094 28.1149M28.1142 25.6441C31.8885 23.43 35.1694 25.9008 35.0214 30.7142M35.0214 30.7142C34.0947 31.4492 33.6279 31.9607 32.9492 33.1529M35.0214 30.7142C36.9244 30.4581 38.3026 30.9011 38.9551 32.687C39.6923 34.7046 37.6651 36.4901 35.517 36.4901H31.5519" stroke="#0D0B49" stroke-width="1.2" stroke-linecap="round"/>
<path d="M27.9115 9.69909L25.0438 6.73536C23.7938 5.44356 23.9618 3.3386 25.5945 2.58661C27.602 1.66196 29.7391 1.13491 31.4775 1.03504C32.7726 0.960644 33.7236 2.06567 33.6437 3.36041C33.5238 5.30242 33.0699 7.21172 32.3136 9.06129C31.579 10.8578 29.2612 11.0939 27.9115 9.69909Z" fill="#5C63AB"/>
<path d="M21.7079 27.9822L19.1091 30.6256C17.2305 32.5364 13.9798 31.1525 13.9696 28.473C13.9672 27.8394 14.1654 27.2132 14.5359 26.6992L17.2998 22.8651C19.1218 20.3376 23.1121 21.9191 22.708 25.0085L22.5433 26.2681C22.4586 26.9151 22.1654 27.5169 21.7079 27.9822Z" fill="#5C63AB"/>
<path d="M16.1572 25.3476L10.183 19.2994C9.80386 18.9156 9.79756 18.3002 10.1688 17.9086L22.5511 4.84866C22.8178 4.56733 23.2085 4.47555 23.556 4.57625C23.71 4.62086 23.8554 4.70325 23.9779 4.82366L30.1385 10.8817C30.2608 11.0019 30.3457 11.146 30.3929 11.2993C30.4962 11.6343 30.4197 12.0135 30.1611 12.2848L23.9466 18.8021L17.5855 25.3421C17.1949 25.7436 16.5508 25.7461 16.1572 25.3476Z" fill="#FF9B21"/>
<path d="M8.14576 29.4145C8.67464 29.9608 8.58804 30.5585 8.05159 31.0974C7.06226 32.1292 4.13862 31.7581 4.13862 31.7581C4.13862 31.7581 3.32768 29.3506 4.85008 27.317C5.05199 27.1009 5.24119 26.805 5.50449 26.686L8.14576 29.4145Z" fill="#783C85"/>
<path d="M13.8791 28.8756L9.07763 30.3774L8.93124 30.2209L5.5873 26.6858L5.47656 26.5674L5.53982 26.2968L6.76475 21.5859L12.0639 26.9984L13.8791 28.8756Z" fill="#5C63AB"/>
<path d="M12.0411 27.0238C12.1246 27.1111 12.0835 27.256 11.9665 27.2863L7.6064 28.4225C7.51277 28.4469 7.41322 28.4201 7.34452 28.352L7.04909 28.0432C6.10853 27.0602 5.73214 25.6664 6.04996 24.3435L6.661 21.8002C6.6681 21.7707 6.68274 21.7435 6.7035 21.7213C6.7723 21.6478 6.88872 21.6471 6.95838 21.7198L12.0411 27.0238Z" fill="#5C63AB"/>
<path d="M9.81049 18.3945L6.85352 21.4919L13.9385 28.8128L16.837 25.9345L9.81049 18.3945Z" fill="#5C63AB"/>
<path d="M23.3337 19.501L22.1923 26.8194C22.059 27.674 21.6523 28.4625 21.0331 29.0664L19.0199 31.03C17.1235 32.8797 13.9358 31.536 13.9358 28.8868V28.8868M23.3337 19.501L30.7994 11.5231M23.3337 19.501L16.8805 25.946M30.7994 11.5231C32.4154 9.08085 33.1854 7.21864 33.4952 4.79466C33.7629 2.69884 32.0081 0.849408 29.9163 1.14673C27.6953 1.46241 25.79 2.32644 23.3337 4.10824M30.7994 11.5231L29.8728 10.5354M23.3337 4.10824L16.0438 11.961M23.3337 4.10824L27.933 8.87708M16.0438 11.961L9.32702 12.8389C8.40753 12.9591 7.55835 13.395 6.92474 14.0721L4.64096 16.5126C2.87946 18.395 4.21422 21.472 6.79225 21.472V21.472M16.0438 11.961L9.80778 18.3719M6.79225 21.472L13.9358 28.8868M6.79225 21.472L9.80778 18.3719M6.79225 21.472L5.44551 26.6342M13.9358 28.8868L16.8805 25.946M13.9358 28.8868L9.04658 30.3886M9.80778 18.3719L16.8805 25.946M9.04658 30.3886L5.44551 26.6342M9.04658 30.3886C8.75424 30.6118 8.47456 30.8139 8.19989 30.9983C5.91013 32.5357 3.21194 29.9901 4.71195 27.6757C4.92863 27.3414 5.17166 26.9985 5.44551 26.6342" stroke="#0D0B49" stroke-width="1.2" stroke-linecap="round"/>
<path d="M23.4959 13.3266C23.4959 14.6576 22.4955 15.6675 21.3438 15.6675C20.1922 15.6675 19.1918 14.6576 19.1918 13.3266C19.1918 11.9957 20.1922 10.9857 21.3438 10.9857C22.4955 10.9857 23.4959 11.9957 23.4959 13.3266Z" fill="white" stroke="#0D0B49" stroke-width="1.2"/>
</svg>
