<svg width="48" height="46" viewBox="0 0 48 46" fill="none" xmlns="http://www.w3.org/2000/svg">
<ellipse cx="23.537" cy="28.5661" rx="1.66008" ry="1.06024" fill="#FF9B21"/>
<path d="M20.3055 22.081L20.3154 22.015C20.5553 20.4153 21.9932 19.2271 23.6892 19.2271C25.3852 19.2271 26.8231 20.4153 27.0629 22.015L27.0728 22.081C27.21 22.9959 26.9358 23.8657 26.3932 24.5337C26.0018 25.0156 25.6597 25.5657 25.6597 26.175V27.6758H21.7187V26.1751C21.7187 25.5657 21.3766 25.0156 20.9851 24.5337C20.4425 23.8658 20.1683 22.9959 20.3055 22.081Z" fill="#FF9B21"/>
<path d="M20.3154 22.015L20.9088 22.104L20.9088 22.104L20.3154 22.015ZM20.3055 22.081L19.7121 21.9921L19.7121 21.9921L20.3055 22.081ZM27.0629 22.015L26.4696 22.104L26.4696 22.104L27.0629 22.015ZM27.0728 22.081L27.6662 21.9921L27.6662 21.9921L27.0728 22.081ZM20.9851 24.5337L20.5194 24.912L20.9851 24.5337ZM26.3932 24.5337L25.9275 24.1554V24.1554L26.3932 24.5337ZM19.722 21.926L19.7121 21.9921L20.8989 22.17L20.9088 22.104L19.722 21.926ZM23.6892 18.6271C21.7179 18.6271 20.0091 20.0116 19.722 21.926L20.9088 22.104C21.1014 20.819 22.2684 19.8271 23.6892 19.8271V18.6271ZM27.6563 21.926C27.3693 20.0116 25.6604 18.6271 23.6892 18.6271V19.8271C25.1099 19.8271 26.2769 20.819 26.4696 22.104L27.6563 21.926ZM27.6662 21.9921L27.6563 21.926L26.4696 22.104L26.4795 22.17L27.6662 21.9921ZM26.8589 24.912C27.5007 24.122 27.83 23.0846 27.6662 21.9921L26.4795 22.17C26.59 22.9071 26.371 23.6095 25.9275 24.1554L26.8589 24.912ZM25.0597 26.175V27.6758H26.2597V26.175H25.0597ZM25.6597 27.0758H21.7187V28.2758H25.6597V27.0758ZM22.3187 27.6758V26.1751H21.1187V27.6758H22.3187ZM19.7121 21.9921C19.5483 23.0846 19.8777 24.122 20.5194 24.912L21.4509 24.1554C21.0074 23.6095 20.7884 22.9071 20.8989 22.17L19.7121 21.9921ZM22.3187 26.1751C22.3187 25.3462 21.8577 24.6562 21.4509 24.1554L20.5194 24.912C20.8955 25.375 21.1187 25.7852 21.1187 26.1751H22.3187ZM25.9275 24.1554C25.5207 24.6562 25.0597 25.3462 25.0597 26.175H26.2597C26.2597 25.7852 26.4829 25.3749 26.8589 24.912L25.9275 24.1554ZM21.1187 27.6758V28.2684H22.3187V27.6758H21.1187ZM26.2597 28.2684V27.6758H25.0597V28.2684H26.2597ZM23.6892 30.8389C25.1088 30.8389 26.2597 29.6881 26.2597 28.2684H25.0597C25.0597 29.0253 24.4461 29.6389 23.6892 29.6389V30.8389ZM21.1187 28.2684C21.1187 29.6881 22.2695 30.8389 23.6892 30.8389V29.6389C22.9323 29.6389 22.3187 29.0253 22.3187 28.2684H21.1187Z" fill="#0D0B49"/>
<rect width="1.26143" height="1.26143" rx="0.630715" transform="matrix(0.722108 -0.69178 0.722108 0.69178 18.8818 18.106)" fill="#0D0B49"/>
<rect width="1.26143" height="1.26143" rx="0.630715" transform="matrix(0.722108 -0.69178 0.722108 0.69178 27.0059 18.106)" fill="#0D0B49"/>
<rect x="23.1426" y="15.9043" width="1.28819" height="1.23409" rx="0.617044" fill="#0D0B49"/>
<path d="M30.0771 38.6384L46.7786 45V1L30.0771 7.36142V38.6384ZM31.2518 17.9347H32.8916V27.8074H31.2518V17.9347Z" fill="#5C63AB"/>
<path d="M17.4504 7.36142L0.849609 1V45L16.897 38.6384L17.4504 7.36142ZM14.3261 26.4784H12.7406V16.6057H14.3261V26.4784Z" fill="#5C63AB"/>
<path d="M0.849609 1L0.899155 45M0.849609 1L16.8861 6.78962C17.2825 6.9327 17.5466 7.30884 17.5466 7.7302V38.1793C17.5466 38.5985 17.2852 38.9732 16.8918 39.1179L0.899155 45M0.849609 1H38.9498M46.8777 1V45M46.8777 1L30.8898 6.78923C30.494 6.93257 30.2303 7.30848 30.2303 7.72949V29.5M46.8777 1H39.0314M46.8777 45H0.899155M46.8777 45L30.8851 39.1179C30.4917 38.9732 30.2303 38.5985 30.2303 38.1793V35.0672" stroke="#0D0B49" stroke-width="1.2" stroke-linecap="round" stroke-linejoin="round"/>
<rect x="31.1201" y="17" width="2.08768" height="11" fill="#5C63AB"/>
<rect x="12.7393" y="16.5688" width="1.58547" height="10.0626" fill="#5C63AB"/>
<rect x="13.4326" y="21.125" width="1.32806" height="3.7972" fill="#0D0B49"/>
<rect x="32.6582" y="21.125" width="1.32806" height="3.7972" fill="#0D0B49"/>
</svg>
