<svg width="498" height="75" viewBox="0 0 498 75" fill="none" xmlns="http://www.w3.org/2000/svg">
<path d="M70.02 73H42.09V70.72L49.785 69.865L41.045 48.015H19.67L12.07 68.25L20.525 70.72V73H0.67V70.72L7.89 68.25L30.88 9.54H37.53L62.705 69.865L70.02 70.72V73ZM39.62 44.5L30.31 21.415L21 44.5H39.62ZM97.527 50.77C90.1803 50.77 85.557 52.7017 83.657 56.565C82.8336 58.2117 82.422 60.27 82.422 62.74C82.422 66.9833 83.8786 69.4533 86.792 70.15C87.2353 70.2767 87.7103 70.34 88.217 70.34C90.2436 70.34 92.2703 69.295 94.297 67.205C96.3236 65.0517 97.4003 62.2967 97.527 58.94V50.77ZM82.327 41.46C80.9336 42.41 79.477 42.885 77.957 42.885C76.437 42.885 75.1386 42.3783 74.062 41.365C72.9853 40.3517 72.447 38.8633 72.447 36.9C72.447 34.8733 73.0486 33.0683 74.252 31.485C75.4553 29.9017 77.007 28.73 78.907 27.97C82.6436 26.3867 86.1903 25.595 89.547 25.595C97.0203 25.595 102.119 26.925 104.842 29.585C107.565 32.1817 108.927 36.2033 108.927 41.65V70.245L116.907 70.815V72.905L98.762 74.045L97.907 66.065C94.9303 71.4483 89.8003 74.14 82.517 74.14C79.2236 74.14 76.3736 73.1583 73.967 71.195C71.6236 69.1683 70.452 66.35 70.452 62.74C70.5153 57.9267 72.922 54.3167 77.672 51.91C82.422 49.44 89.0403 48.205 97.527 48.205V40.035C97.527 36.1717 96.9886 33.195 95.912 31.105C94.8353 29.015 92.8403 27.97 89.927 27.97C87.0136 27.97 84.8286 29.1733 83.372 31.58C82.422 33.1633 81.947 34.8417 81.947 36.615C81.947 38.3883 82.0736 40.0033 82.327 41.46ZM163.525 9.54C178.662 9.54 186.23 14.5117 186.23 24.455C186.23 28.5083 184.932 31.8967 182.335 34.62C179.739 37.28 175.97 38.895 171.03 39.465C177.427 40.6683 182.082 42.5367 184.995 45.07C187.909 47.6033 189.365 51.1817 189.365 55.805C189.365 61.6317 186.895 65.97 181.955 68.82C177.015 71.6067 170.587 73 162.67 73H136.925V70.72L143.86 69.77V12.675L135.785 11.725V9.54H163.525ZM159.155 41.365L156.685 41.46V70.34C157.889 70.6567 159.282 70.815 160.865 70.815C165.235 70.815 168.909 69.6117 171.885 67.205C174.862 64.735 176.35 60.6817 176.35 55.045C176.35 47.8883 173.247 43.6133 167.04 42.22C164.507 41.65 161.879 41.365 159.155 41.365ZM156.685 12.105V38.705H158.965C163.399 38.705 166.85 37.5017 169.32 35.095C171.79 32.6883 173.025 29.205 173.025 24.645C173.025 20.0217 172.075 16.7917 170.175 14.955C168.275 13.055 165.235 12.105 161.055 12.105H156.685ZM212.236 15.81C212.236 25.0567 212.172 30.8517 212.046 33.195C215.466 28.1283 220.659 25.595 227.626 25.595C233.199 25.595 237.854 27.4317 241.591 31.105C245.391 34.715 247.291 40.4783 247.291 48.395C247.291 56.2483 245.074 62.5183 240.641 67.205C236.271 71.8283 230.001 74.14 221.831 74.14C220.057 74.14 217.999 73.7917 215.656 73.095C213.376 72.4617 211.507 71.575 210.051 70.435L200.171 74.805V5.26499L192.001 4.78999V2.415L212.236 0.0399994V15.81ZM222.021 71.29C224.111 71.29 225.916 70.7833 227.436 69.77C228.956 68.7567 230.127 67.49 230.951 65.97C231.774 64.45 232.439 62.5183 232.946 60.175C233.642 56.565 233.991 52.0367 233.991 46.59C233.991 34.5567 230.919 28.54 224.776 28.54C221.546 28.54 218.664 29.775 216.131 32.245C213.661 34.715 212.362 37.185 212.236 39.655L212.426 67.775C214.832 70.1183 218.031 71.29 222.021 71.29ZM321.478 70.2168C316.561 72.8145 310.438 74.1133 303.109 74.1133C293.646 74.1133 286.07 71.0672 280.38 64.9751C274.69 58.883 271.845 50.889 271.845 40.9932C271.845 30.3551 275.045 21.7581 281.447 15.2021C287.848 8.64616 295.966 5.36816 305.8 5.36816C312.108 5.36816 317.334 6.28044 321.478 8.10498V16.4082C316.716 13.7487 311.459 12.4189 305.707 12.4189C298.069 12.4189 291.868 14.9702 287.106 20.0728C282.374 25.1753 280.009 31.9941 280.009 40.5293C280.009 48.6315 282.22 55.0947 286.642 59.9189C291.095 64.7122 296.924 67.1089 304.13 67.1089C310.809 67.1089 316.592 65.6245 321.478 62.6558V70.2168ZM366.381 70.8198C362.732 73.0155 358.402 74.1133 353.392 74.1133C346.62 74.1133 341.146 71.9176 336.971 67.5264C332.828 63.1042 330.756 57.3831 330.756 50.3633C330.756 42.5394 332.998 36.2617 337.482 31.5303C341.966 26.7679 347.95 24.3867 355.433 24.3867C359.608 24.3867 363.288 25.1598 366.473 26.7061V34.499C362.948 32.0251 359.175 30.7881 355.155 30.7881C350.3 30.7881 346.311 32.5353 343.187 36.0298C340.095 39.4933 338.549 44.0547 338.549 49.7139C338.549 55.2803 340.002 59.6715 342.909 62.8877C345.847 66.1038 349.774 67.7119 354.691 67.7119C358.835 67.7119 362.732 66.3358 366.381 63.5835V70.8198ZM398.324 73V6.48145H416.694C440.134 6.48145 451.855 17.2896 451.855 38.9058C451.855 49.1727 448.592 57.4295 442.067 63.6763C435.573 69.8921 426.868 73 415.951 73H398.324ZM406.117 13.5322V65.9492H416.044C424.765 65.9492 431.553 63.6144 436.408 58.9448C441.263 54.2752 443.691 47.6574 443.691 39.0913C443.691 22.0519 434.63 13.5322 416.508 13.5322H406.117ZM497.807 73H490.2V64.9287H490.014C486.489 71.0518 481.046 74.1133 473.686 74.1133C467.718 74.1133 462.94 71.995 459.353 67.7583C455.796 63.4907 454.018 57.6924 454.018 50.3633C454.018 42.5085 455.997 36.2153 459.956 31.4839C463.914 26.7524 469.187 24.3867 475.774 24.3867C482.299 24.3867 487.046 26.9535 490.014 32.0869H490.2V2.67773H497.807V73ZM490.2 51.5229V44.5186C490.2 40.6839 488.932 37.4368 486.396 34.7773C483.86 32.1178 480.644 30.7881 476.748 30.7881C472.109 30.7881 468.46 32.4889 465.8 35.8906C463.141 39.2923 461.811 43.9928 461.811 49.9922C461.811 55.4658 463.079 59.7952 465.615 62.9805C468.182 66.1348 471.614 67.7119 475.913 67.7119C480.149 67.7119 483.582 66.1812 486.211 63.1196C488.87 60.0581 490.2 56.1925 490.2 51.5229Z" fill="#CADBD8"/>
</svg>
