<svg width="88" height="88" viewBox="0 0 88 88" fill="none" xmlns="http://www.w3.org/2000/svg">
<rect width="88" height="88" rx="16" fill="#79E2F2" fill-opacity="0.3"/>
<g opacity="0.7">
<ellipse cx="43.4386" cy="37.0379" rx="6.37071" ry="6.37071" stroke="#D9DDE3" stroke-width="2" stroke-linecap="round" stroke-linejoin="round"/>
<path fill-rule="evenodd" clip-rule="evenodd" d="M33.3335 52.2698C33.3318 51.8219 33.432 51.3795 33.6264 50.9761C34.2366 49.7557 35.9575 49.1088 37.3854 48.8159C38.4152 48.5962 39.4592 48.4493 40.5097 48.3766C42.4546 48.2057 44.4107 48.2057 46.3556 48.3766C47.406 48.4502 48.45 48.597 49.48 48.8159C50.9079 49.1088 52.6287 49.6946 53.2389 50.9761C53.63 51.7985 53.63 52.7533 53.2389 53.5757C52.6287 54.8571 50.9079 55.4429 49.48 55.7236C48.4514 55.9525 47.407 56.1034 46.3556 56.1752C44.7727 56.3094 43.1823 56.3339 41.5959 56.2484C41.2298 56.2484 40.8759 56.2484 40.5097 56.1752C39.4623 56.1043 38.4219 55.9534 37.3976 55.7236C35.9575 55.4429 34.2488 54.8571 33.6264 53.5757C33.433 53.1675 33.3329 52.7214 33.3335 52.2698Z" stroke="#D9DDE3" stroke-width="2" stroke-linecap="round" stroke-linejoin="round"/>
</g>
</svg>
