<svg width="88" height="88" viewBox="0 0 88 88" fill="none" xmlns="http://www.w3.org/2000/svg">
<rect width="88" height="88" rx="16" fill="#7C36CF" fill-opacity="0.3"/>
<g opacity="0.7">
<path fill-rule="evenodd" clip-rule="evenodd" d="M44.0002 31.9997C41.8784 31.9997 39.8436 32.8425 38.3433 34.3428C36.843 35.8431 36.0002 37.8779 36.0002 39.9997V46.6663C36.0002 47.6106 35.7497 48.5291 35.2856 49.333H52.7147C52.2506 48.5291 52.0002 47.6106 52.0002 46.6663V39.9997C52.0002 37.8779 51.1573 35.8431 49.657 34.3428C48.1567 32.8425 46.1219 31.9997 44.0002 31.9997ZM57.3335 49.333C56.6263 49.333 55.948 49.0521 55.4479 48.552C54.9478 48.0519 54.6668 47.3736 54.6668 46.6663V39.9997C54.6668 37.1707 53.543 34.4576 51.5426 32.4572C49.5422 30.4568 46.8291 29.333 44.0002 29.333C41.1712 29.333 38.4581 30.4568 36.4577 32.4572C34.4573 34.4576 33.3335 37.1707 33.3335 39.9997V46.6663C33.3335 47.3736 33.0525 48.0519 32.5524 48.552C32.0524 49.0521 31.3741 49.333 30.6668 49.333C29.9304 49.333 29.3335 49.93 29.3335 50.6663C29.3335 51.4027 29.9304 51.9997 30.6668 51.9997H57.3335V49.333ZM41.0245 54.8463C41.6614 54.4768 42.4773 54.6937 42.8468 55.3306C42.964 55.5327 43.1323 55.7004 43.3347 55.817C43.5371 55.9336 43.7666 55.9949 44.0002 55.9949C44.2338 55.9949 44.4632 55.9336 44.6656 55.817C44.8681 55.7004 45.0363 55.5327 45.1535 55.3306C45.523 54.6937 46.3389 54.4768 46.9759 54.8463C47.6128 55.2158 47.8297 56.0317 47.4602 56.6687C47.1085 57.2749 46.6038 57.778 45.9966 58.1278C45.3894 58.4775 44.7009 58.6616 44.0002 58.6616C43.2994 58.6616 42.6109 58.4775 42.0037 58.1278C41.3965 57.778 40.8918 57.2749 40.5402 56.6687C40.1707 56.0317 40.3875 55.2158 41.0245 54.8463Z" fill="#D9DDE3"/>
</g>
</svg>
