<svg width="1440" height="1083" viewBox="0 0 1440 1083" fill="none" xmlns="http://www.w3.org/2000/svg">
<path d="M1470.72 0H-29.7209C-38.7116 0 -46 8.5385 -46 19.0713V1063.77C-46 1074.3 -38.7116 1082.84 -29.7209 1082.84H1470.72C1479.71 1082.84 1487 1074.3 1487 1063.77V19.0713C1487 8.5385 1479.71 0 1470.72 0Z" fill="url(#paint0_linear_4647_178796)"/>
<path d="M709.737 703.042L757.592 681.425L766.79 686.243L805.584 730.165L948.159 845.583C948.159 845.583 1009.58 866.339 1013.54 867.092C1017.49 867.845 1201.73 1018.39 1201.73 1018.39H308.734L462.278 901.205C462.278 901.205 496.151 887.934 500.083 886.257C504.016 884.579 563.874 821.493 563.874 821.493C563.874 821.493 687.5 705.236 692.214 703.58C696.929 701.923 709.737 703.042 709.737 703.042Z" fill="#262B31"/>
<path d="M73.5312 1018.45L343.802 818.933L408.191 743.931H429.347L481.249 798.672L523.538 810.846L686.948 1018.45H73.5312Z" fill="#262B31"/>
<path d="M862.961 1018.45L989.209 912.67L1064.11 811.685L1085.95 791.875L1126.84 803.124L1223.9 899.55L1367.91 1018.45H862.961Z" fill="#262B31"/>
<path d="M727.835 897.68L770.516 849.951L736.734 788.93L619.455 860.189L711.899 790.823L757.661 681.427L709.806 703.044C709.806 703.044 697.021 701.925 692.283 703.582C687.546 705.238 563.943 821.495 563.943 821.495C563.943 821.495 504.154 884.602 500.152 886.259C496.151 887.915 462.278 901.207 462.278 901.207L308.734 1018.45H686.948L845.183 955.798L727.835 897.68Z" fill="#373F49"/>
<path d="M429.351 743.931L395.363 809.555L281.556 886.429L398.904 820.804L409.575 843.303L342.013 892.451L365.123 916.434L133.991 1018.45H73.5352L343.806 818.933L408.195 743.931H429.351Z" fill="#373F49"/>
<path d="M1085.95 791.877L1064.11 811.687L989.21 912.672L1053.21 869.568L969.641 952.055L1102.99 895.809L1085.22 830.185L1110.05 814.892L1085.95 791.877Z" fill="#373F49"/>
<path d="M706.817 998.234L700.632 970.551L693.894 991.286L684.534 960.851L669.909 993.695C643.847 990.526 617.578 987.457 591.102 984.489L581.904 927.146L569.21 982.08L562.978 981.413L557.712 948.332L550.399 980.058L531.405 978.058L515.56 927.296L499.164 970.035L489.966 936.954L478.284 972.659C445.706 969.519 412.976 966.565 380.091 963.797L374.043 945.106L367.858 962.787L344.862 960.958L335.985 916.52L326.074 959.539L316.232 958.786L311.748 937.771L307.148 958.141L282.566 956.377L274.379 928.695L266.078 953.064L257.247 897.571L244.921 942.073L237.839 916.757L225.214 952.462C202.601 951.028 180.035 949.759 157.514 948.655L149.327 916.391L140.796 947.859H140.589L125.366 871.648L109.061 922.995L101.174 892.792L84.5708 945.45L79.7647 945.257L66.68 903.357L54.5382 931.835L37.9811 880.772L13.2145 923.661L-17.1401 819.207C-17.1401 819.207 -32.9613 843.54 -46 888.064V1083H1223.37C1075.72 1052.16 897.684 1022.43 706.817 998.234Z" fill="#202328"/>
<path d="M1458.14 790.241L1427.79 923.597L1403.02 880.773L1386.46 931.835L1374.32 903.357L1359.79 950.097L1357.49 950.269L1339.78 873.546L1331.66 924.866L1315.57 852.467L1300.14 948.01L1291.61 916.542L1281.35 957.13C1265.74 958.664 1249.58 960.342 1232.85 962.163L1219.05 961.84L1203.14 916.822L1196.08 942.074L1183.71 897.485L1174.88 952.979L1166.62 928.695L1154.16 971.369L1137.56 973.52L1129.25 937.772L1121.27 975.671L1118.79 975.993L1104.99 916.585L1092.41 979.521L1079.56 981.285L1066.96 945.171L1054.1 984.898C1042.38 986.605 1030.47 988.361 1018.39 990.168L1005.26 949.967L996.062 983.048L979.551 940.288L961.154 999.073L945.862 1001.5L938.71 974.961L932.064 1003.76L928.063 1004.43L913.185 940.052L894.121 1010.19L867.676 1014.84L850.751 973.821L836.746 1009.5L829.158 986.103L813.612 1024.71C727.47 1040.87 635.509 1060.07 538.535 1082.94H1487V888C1473.96 843.476 1458.14 790.241 1458.14 790.241Z" fill="#202328"/>
<defs>
<linearGradient id="paint0_linear_4647_178796" x1="720.488" y1="1009.33" x2="720.568" y2="2.62362e-06" gradientUnits="userSpaceOnUse">
<stop stop-color="#4E5763"/>
<stop offset="1" stop-color="#202328"/>
</linearGradient>
</defs>
</svg>
