<svg width="71" height="207" viewBox="0 0 71 207" fill="none" xmlns="http://www.w3.org/2000/svg">
<path d="M35.7186 0.836914C39.2939 1.10037 41.506 3.94851 41.0623 7.84332C40.6186 11.7381 42.1555 32.1877 42.3034 48.4932C42.4513 64.7987 44.927 100.386 44.927 112.74C44.927 125.094 45.5058 156.174 45.2164 177.428C44.927 198.682 44.0525 206.329 44.0525 206.329H25.0376C25.0376 206.329 26.0601 163.543 26.4973 143.72C26.9346 123.897 27.0439 95.7009 26.7867 77.7221C26.5294 59.7433 27.2239 36.0184 27.957 20.8023C28.6901 5.58615 29.2881 1.21429 35.7186 0.836914Z" fill="#262B31"/>
<path d="M7.21114 53.1714C3.9959 53.1073 2.83197 56.0765 1.88669 62.4706C0.94141 68.8646 -0.91698 128.839 0.536306 138.024C2.5812 150.841 3.80292 168.478 25.9495 167.93C26.9526 167.93 27.7372 166.84 27.66 165.245C27.5828 163.65 27.4221 162.903 26.0781 162.582C24.7342 162.262 16.1238 158.16 13.7895 141.107C11.4552 124.054 12.4584 61.6019 12.3876 58.4689C12.3169 55.336 11.0759 53.1287 7.21114 53.1714Z" fill="#262B31"/>
<path d="M61.927 62.0721C65.1036 62.008 66.6341 64.2509 67.5986 70.6165C68.5632 76.9821 72.1 111.01 70.6595 120.21C68.6211 133.026 67.3993 150.67 45.2527 150.079C44.2496 150.079 43.4458 148.976 43.5165 147.395C43.5873 145.814 43.7738 145.059 45.1242 144.732C46.4746 144.404 55.0592 140.317 57.4063 123.236C59.7535 106.154 56.6797 70.4385 56.7633 67.3127C56.8469 64.1869 58.0687 62.0294 61.927 62.0721Z" fill="#262B31"/>
</svg>
