<svg width="101" height="64" viewBox="0 0 101 64" fill="none" xmlns="http://www.w3.org/2000/svg">
<rect x="26" y="26" width="12" height="12" rx="2" fill="#262B31" stroke="#5A697C" stroke-width="2"/>
<rect x="65" y="26" width="12" height="12" rx="2" fill="#5854F7" stroke="#5854F7" stroke-width="2"/>
<path fill-rule="evenodd" clip-rule="evenodd" d="M68.7193 31.3053C68.627 31.2098 68.5167 31.1336 68.3947 31.0812C68.2727 31.0288 68.1415 31.0012 68.0087 31C67.8759 30.9989 67.7442 31.0242 67.6213 31.0745C67.4984 31.1247 67.3868 31.199 67.2929 31.2929C67.199 31.3868 67.1247 31.4984 67.0745 31.6213C67.0242 31.7442 66.9989 31.8759 67 32.0087C67.0012 32.1415 67.0288 32.2727 67.0812 32.3947C67.1336 32.5167 67.2098 32.627 67.3053 32.7193L69.3053 34.7193C69.4928 34.9068 69.7471 35.0121 70.0123 35.0121C70.2775 35.0121 70.5318 34.9068 70.7193 34.7193L74.7193 30.7193C74.8148 30.627 74.891 30.5167 74.9434 30.3947C74.9958 30.2727 75.0234 30.1415 75.0245 30.0087C75.0257 29.8759 75.0004 29.7442 74.9501 29.6213C74.8998 29.4984 74.8256 29.3868 74.7317 29.2929C74.6378 29.199 74.5261 29.1247 74.4032 29.0745C74.2803 29.0242 74.1487 28.9989 74.0159 29C73.8831 29.0012 73.7519 29.0288 73.6299 29.0812C73.5079 29.1336 73.3975 29.2098 73.3053 29.3053L70.0123 32.5983L68.7193 31.3053Z" fill="white"/>
<rect x="0.5" y="0.5" width="100" height="63" rx="4.5" stroke="#7B61FF" stroke-dasharray="10 5"/>
</svg>
