<svg width="12" height="13" viewBox="0 0 12 13" fill="none" xmlns="http://www.w3.org/2000/svg">
<path d="M6.00002 12.0312C4.90001 12.0312 3.89546 11.7631 2.98637 11.2267C2.07728 10.6813 1.35 9.95398 0.804547 9.04489C0.268182 8.1358 0 7.13125 0 6.03125C0 4.92216 0.268182 3.91761 0.804547 3.01761C1.35 2.10852 2.07728 1.38579 2.98637 0.849431C3.89546 0.303976 4.90001 0.03125 6.00002 0.03125C7.10911 0.03125 8.11366 0.303976 9.01366 0.849431C9.92275 1.38579 10.6455 2.10852 11.1818 3.01761C11.7273 3.91761 12 4.92216 12 6.03125C12 7.13125 11.7273 8.1358 11.1818 9.04489C10.6455 9.95398 9.92275 10.6813 9.01366 11.2267C8.11366 11.7631 7.10911 12.0312 6.00002 12.0312Z" fill="#10ACBF"/>
</svg>
