<svg width="88" height="88" viewBox="0 0 88 88" fill="none" xmlns="http://www.w3.org/2000/svg">
<rect width="88" height="88" rx="16" fill="#262B31"/>
<path fill-rule="evenodd" clip-rule="evenodd" d="M38.2265 30.6667H49.7865C54.3065 30.6667 57.3332 33.8387 57.3332 38.5587V49.4521C57.3332 54.1601 54.3065 57.3334 49.7865 57.3334H38.2265C33.7065 57.3334 30.6665 54.1601 30.6665 49.4521V38.5587C30.6665 33.8387 33.7065 30.6667 38.2265 30.6667ZM48.7732 49.0801C49.1065 49.0801 49.4398 48.9067 49.6265 48.5867C49.9198 48.1187 49.7598 47.5054 49.2798 47.2134L44.5332 44.3867V38.2254C44.5332 37.6801 44.0932 37.2254 43.5332 37.2254C42.9865 37.2254 42.5332 37.6801 42.5332 38.2254V44.9601C42.5332 45.3067 42.7198 45.6401 43.0265 45.8134L48.2532 48.9334C48.4132 49.0401 48.5998 49.0801 48.7732 49.0801Z" fill="#5854F7"/>
</svg>
