<svg width="365" height="220" viewBox="0 0 365 220" fill="none" xmlns="http://www.w3.org/2000/svg">
<rect x="0.5" y="0.5" width="364" height="219" rx="3.5" fill="#262B31"/>
<rect width="317" height="32" transform="translate(24 28)" fill="#262B31"/>
<path d="M29.7784 51H25.1378V37.9091H29.8168C31.1335 37.9091 32.267 38.1712 33.2173 38.6953C34.1676 39.2152 34.8984 39.9631 35.4098 40.9389C35.9254 41.9148 36.1832 43.0824 36.1832 44.4418C36.1832 45.8054 35.9254 46.9773 35.4098 47.9574C34.8984 48.9375 34.1634 49.6896 33.2045 50.2138C32.25 50.7379 31.108 51 29.7784 51ZM27.9055 48.6286H29.6634C30.4815 48.6286 31.1697 48.4837 31.728 48.1939C32.2905 47.8999 32.7124 47.446 32.9936 46.8324C33.2791 46.2145 33.4219 45.4176 33.4219 44.4418C33.4219 43.4744 33.2791 42.6839 32.9936 42.0703C32.7124 41.4567 32.2926 41.005 31.7344 40.7152C31.1761 40.4254 30.4879 40.2805 29.6697 40.2805H27.9055V48.6286ZM38.1824 51V41.1818H40.9054V51H38.1824ZM39.5502 39.9162C39.1454 39.9162 38.7981 39.782 38.5083 39.5135C38.2228 39.2408 38.0801 38.9148 38.0801 38.5355C38.0801 38.1605 38.2228 37.8388 38.5083 37.5703C38.7981 37.2976 39.1454 37.1612 39.5502 37.1612C39.9551 37.1612 40.3002 37.2976 40.5858 37.5703C40.8755 37.8388 41.0204 38.1605 41.0204 38.5355C41.0204 38.9148 40.8755 39.2408 40.5858 39.5135C40.3002 39.782 39.9551 39.9162 39.5502 39.9162ZM45.8864 51.1854C45.2599 51.1854 44.7017 51.0767 44.2116 50.8594C43.7216 50.6378 43.3338 50.3118 43.0483 49.8814C42.767 49.4467 42.6264 48.9055 42.6264 48.2578C42.6264 47.7124 42.7266 47.2543 42.9268 46.8835C43.1271 46.5128 43.3999 46.2145 43.745 45.9886C44.0902 45.7628 44.4822 45.5923 44.9212 45.4773C45.3643 45.3622 45.8288 45.2812 46.3146 45.2344C46.8857 45.1747 47.3459 45.1193 47.6953 45.0682C48.0447 45.0128 48.2983 44.9318 48.456 44.8253C48.6136 44.7187 48.6925 44.5611 48.6925 44.3523V44.3139C48.6925 43.9091 48.5646 43.5959 48.3089 43.3743C48.0575 43.1527 47.6996 43.0419 47.2351 43.0419C46.745 43.0419 46.3551 43.1506 46.0653 43.3679C45.7756 43.581 45.5838 43.8494 45.4901 44.1733L42.9716 43.9688C43.0994 43.3722 43.3509 42.8565 43.7259 42.4219C44.1009 41.983 44.5845 41.6463 45.1768 41.4119C45.7734 41.1733 46.4638 41.054 47.2479 41.054C47.7933 41.054 48.3153 41.1179 48.8139 41.2457C49.3168 41.3736 49.7621 41.5717 50.1499 41.8402C50.5419 42.1087 50.8509 42.4538 51.0767 42.8757C51.3026 43.2933 51.4155 43.794 51.4155 44.3778V51H48.8331V49.6385H48.7564C48.5987 49.9453 48.3878 50.2159 48.1236 50.4503C47.8594 50.6804 47.5419 50.8615 47.1712 50.9936C46.8004 51.1214 46.3722 51.1854 45.8864 51.1854ZM46.6662 49.3061C47.0668 49.3061 47.4205 49.2273 47.7273 49.0696C48.0341 48.9077 48.2749 48.6903 48.4496 48.4176C48.6243 48.1449 48.7116 47.8359 48.7116 47.4908V46.4489C48.6264 46.5043 48.5092 46.5554 48.3601 46.6023C48.2152 46.6449 48.0511 46.6854 47.8679 46.7237C47.6847 46.7578 47.5014 46.7898 47.3182 46.8196C47.1349 46.8452 46.9688 46.8686 46.8196 46.8899C46.5 46.9368 46.2209 47.0114 45.9822 47.1136C45.7436 47.2159 45.5582 47.3544 45.4261 47.5291C45.294 47.6996 45.228 47.9126 45.228 48.1683C45.228 48.5391 45.3622 48.8224 45.6307 49.0185C45.9034 49.2102 46.2486 49.3061 46.6662 49.3061ZM56.2511 37.9091V51H53.5281V37.9091H56.2511ZM62.8684 51.1918C61.8755 51.1918 61.0169 50.9808 60.2924 50.5589C59.5723 50.1328 59.0162 49.5405 58.6241 48.782C58.2321 48.0192 58.036 47.1349 58.036 46.1293C58.036 45.1151 58.2321 44.2287 58.6241 43.4702C59.0162 42.7074 59.5723 42.1151 60.2924 41.6932C61.0169 41.267 61.8755 41.054 62.8684 41.054C63.8613 41.054 64.7179 41.267 65.438 41.6932C66.1625 42.1151 66.7207 42.7074 67.1127 43.4702C67.5048 44.2287 67.7008 45.1151 67.7008 46.1293C67.7008 47.1349 67.5048 48.0192 67.1127 48.782C66.7207 49.5405 66.1625 50.1328 65.438 50.5589C64.7179 50.9808 63.8613 51.1918 62.8684 51.1918ZM62.8812 49.0824C63.3329 49.0824 63.71 48.9545 64.0126 48.6989C64.3152 48.4389 64.5431 48.0852 64.6966 47.6378C64.8542 47.1903 64.9331 46.6811 64.9331 46.1101C64.9331 45.5391 64.8542 45.0298 64.6966 44.5824C64.5431 44.1349 64.3152 43.7812 64.0126 43.5213C63.71 43.2614 63.3329 43.1314 62.8812 43.1314C62.4252 43.1314 62.0417 43.2614 61.7306 43.5213C61.4238 43.7812 61.1916 44.1349 61.0339 44.5824C60.8805 45.0298 60.8038 45.5391 60.8038 46.1101C60.8038 46.6811 60.8805 47.1903 61.0339 47.6378C61.1916 48.0852 61.4238 48.4389 61.7306 48.6989C62.0417 48.9545 62.4252 49.0824 62.8812 49.0824ZM73.8947 54.8864C73.0126 54.8864 72.2562 54.7649 71.6255 54.522C70.9991 54.2834 70.5005 53.9574 70.1298 53.544C69.7591 53.1307 69.5183 52.6662 69.4075 52.1506L71.926 51.8118C72.0027 52.0078 72.1241 52.1911 72.2903 52.3615C72.4565 52.532 72.676 52.6683 72.9487 52.7706C73.2257 52.8771 73.5623 52.9304 73.9586 52.9304C74.551 52.9304 75.0389 52.7855 75.4224 52.4957C75.8102 52.2102 76.0041 51.7308 76.0041 51.0575V49.2614H75.889C75.7697 49.5341 75.5907 49.7919 75.3521 50.0348C75.1135 50.2777 74.8066 50.4759 74.4316 50.6293C74.0566 50.7827 73.6092 50.8594 73.0893 50.8594C72.3521 50.8594 71.6809 50.6889 71.0758 50.348C70.475 50.0028 69.9956 49.4766 69.6376 48.7692C69.2839 48.0575 69.1071 47.1584 69.1071 46.0717C69.1071 44.9595 69.2882 44.0305 69.6504 43.2848C70.0126 42.5391 70.4941 41.9808 71.095 41.6101C71.7001 41.2393 72.3627 41.054 73.0829 41.054C73.6326 41.054 74.0929 41.1477 74.4636 41.3352C74.8343 41.5185 75.1326 41.7486 75.3585 42.0256C75.5886 42.2983 75.7654 42.5668 75.889 42.831H75.9913V41.1818H78.6951V51.0959C78.6951 51.9311 78.4906 52.63 78.0815 53.1925C77.6724 53.755 77.1056 54.1768 76.3812 54.4581C75.661 54.7436 74.8322 54.8864 73.8947 54.8864ZM73.9522 48.8139C74.3912 48.8139 74.7619 48.7053 75.0645 48.4879C75.3713 48.2663 75.6056 47.951 75.7676 47.5419C75.9338 47.1286 76.0169 46.6342 76.0169 46.0589C76.0169 45.4837 75.9359 44.9851 75.774 44.5632C75.612 44.1371 75.3777 43.8068 75.0708 43.5724C74.764 43.3381 74.3912 43.2209 73.9522 43.2209C73.5048 43.2209 73.1277 43.3423 72.8208 43.5852C72.514 43.8239 72.2818 44.1562 72.1241 44.5824C71.9664 45.0085 71.8876 45.5007 71.8876 46.0589C71.8876 46.6257 71.9664 47.1158 72.1241 47.5291C72.286 47.9382 72.5183 48.2557 72.8208 48.4815C73.1277 48.7031 73.5048 48.8139 73.9522 48.8139ZM84.5806 40.1911V37.9091H95.332V40.1911H91.3242V51H88.5884V40.1911H84.5806ZM97.0515 51V41.1818H99.7745V51H97.0515ZM98.4194 39.9162C98.0146 39.9162 97.6673 39.782 97.3775 39.5135C97.092 39.2408 96.9492 38.9148 96.9492 38.5355C96.9492 38.1605 97.092 37.8388 97.3775 37.5703C97.6673 37.2976 98.0146 37.1612 98.4194 37.1612C98.8242 37.1612 99.1694 37.2976 99.4549 37.5703C99.7447 37.8388 99.8896 38.1605 99.8896 38.5355C99.8896 38.9148 99.7447 39.2408 99.4549 39.5135C99.1694 39.782 98.8242 39.9162 98.4194 39.9162ZM107.178 41.1818V43.2273H101.265V41.1818H107.178ZM102.608 38.8295H105.331V47.983C105.331 48.2344 105.369 48.4304 105.446 48.571C105.523 48.7074 105.629 48.8033 105.765 48.8587C105.906 48.9141 106.068 48.9418 106.251 48.9418C106.379 48.9418 106.507 48.9311 106.635 48.9098C106.763 48.8842 106.861 48.8651 106.929 48.8523L107.357 50.8786C107.221 50.9212 107.029 50.9702 106.782 51.0256C106.535 51.0852 106.234 51.1214 105.881 51.1342C105.224 51.1598 104.649 51.0724 104.155 50.8722C103.665 50.6719 103.283 50.3608 103.01 49.9389C102.738 49.517 102.604 48.9844 102.608 48.3409V38.8295ZM111.886 37.9091V51H109.163V37.9091H111.886ZM118.542 51.1918C117.532 51.1918 116.662 50.9872 115.934 50.5781C115.209 50.1648 114.651 49.581 114.259 48.8267C113.867 48.0682 113.671 47.1712 113.671 46.1357C113.671 45.1257 113.867 44.2393 114.259 43.4766C114.651 42.7138 115.203 42.1193 115.914 41.6932C116.63 41.267 117.47 41.054 118.433 41.054C119.081 41.054 119.684 41.1584 120.242 41.3672C120.804 41.5717 121.294 41.8807 121.712 42.294C122.134 42.7074 122.462 43.2273 122.696 43.8537C122.931 44.4759 123.048 45.2045 123.048 46.0398V46.7876H114.757V45.1001H120.485C120.485 44.7081 120.4 44.3608 120.229 44.0582C120.059 43.7557 119.822 43.5192 119.52 43.3487C119.221 43.174 118.874 43.0866 118.478 43.0866C118.064 43.0866 117.698 43.1825 117.378 43.3743C117.063 43.5618 116.816 43.8153 116.637 44.1349C116.458 44.4503 116.366 44.8018 116.362 45.1896V46.794C116.362 47.2798 116.451 47.6996 116.63 48.0533C116.814 48.407 117.071 48.6797 117.404 48.8714C117.736 49.0632 118.13 49.1591 118.586 49.1591C118.889 49.1591 119.166 49.1165 119.417 49.0312C119.669 48.946 119.884 48.8182 120.063 48.6477C120.242 48.4773 120.378 48.2685 120.472 48.0213L122.99 48.1875C122.863 48.7926 122.6 49.321 122.204 49.7727C121.812 50.2202 121.305 50.5696 120.683 50.821C120.065 51.0682 119.351 51.1918 118.542 51.1918Z" fill="#D9DDE3"/>
<path fill-rule="evenodd" clip-rule="evenodd" d="M352.589 12.4111C352.915 12.7365 352.915 13.2641 352.589 13.5896L342.589 23.5896C342.264 23.915 341.736 23.915 341.411 23.5896C341.085 23.2641 341.085 22.7365 341.411 22.4111L351.411 12.4111C351.736 12.0856 352.264 12.0856 352.589 12.4111Z" fill="#D9DDE3"/>
<path fill-rule="evenodd" clip-rule="evenodd" d="M341.411 12.4111C341.736 12.0856 342.264 12.0856 342.589 12.4111L352.589 22.4111C352.915 22.7365 352.915 23.2641 352.589 23.5896C352.264 23.915 351.736 23.915 351.411 23.5896L341.411 13.5896C341.085 13.2641 341.085 12.7365 341.411 12.4111Z" fill="#D9DDE3"/>
<path d="M25.6506 83H24.358L28.0966 72.8182H29.3693L33.108 83H31.8153L28.7727 74.429H28.6932L25.6506 83ZM26.1278 79.0227H31.3381V80.1165H26.1278V79.0227ZM34.5348 83V75.3636H35.6683V76.517H35.7479C35.8871 76.1392 36.139 75.8326 36.5036 75.5973C36.8681 75.362 37.2791 75.2443 37.7365 75.2443C37.8227 75.2443 37.9304 75.246 38.0597 75.2493C38.1889 75.2526 38.2867 75.2576 38.353 75.2642V76.4574C38.3132 76.4474 38.2221 76.4325 38.0795 76.4126C37.9403 76.3894 37.7929 76.3778 37.6371 76.3778C37.2659 76.3778 36.9344 76.4557 36.6428 76.6115C36.3544 76.764 36.1257 76.9761 35.9567 77.2479C35.791 77.5163 35.7081 77.8229 35.7081 78.1676V83H34.5348ZM42.7131 83.1591C41.9773 83.1591 41.3426 82.9967 40.8089 82.6719C40.2786 82.3438 39.8693 81.8864 39.581 81.2997C39.2959 80.7098 39.1534 80.0237 39.1534 79.2415C39.1534 78.4593 39.2959 77.7699 39.581 77.1733C39.8693 76.5734 40.2704 76.1061 40.7841 75.7713C41.3011 75.4332 41.9044 75.2642 42.5938 75.2642C42.9915 75.2642 43.3842 75.3305 43.772 75.4631C44.1598 75.5956 44.5128 75.8111 44.831 76.1094C45.1491 76.4044 45.4027 76.7955 45.5916 77.2827C45.7805 77.7699 45.875 78.3698 45.875 79.0824V79.5795H39.9886V78.5653H44.6818C44.6818 78.1345 44.5956 77.75 44.4233 77.4119C44.2543 77.0739 44.0123 76.8071 43.6974 76.6115C43.3859 76.416 43.018 76.3182 42.5938 76.3182C42.1264 76.3182 41.7221 76.4342 41.3807 76.6662C41.0426 76.8949 40.7824 77.1932 40.6001 77.5611C40.4179 77.929 40.3267 78.3234 40.3267 78.7443V79.4205C40.3267 79.9972 40.4261 80.486 40.625 80.8871C40.8272 81.2848 41.1072 81.5881 41.4652 81.7969C41.8232 82.0024 42.2391 82.1051 42.7131 82.1051C43.0213 82.1051 43.2997 82.062 43.5483 81.9759C43.8002 81.8864 44.0173 81.7538 44.1996 81.5781C44.3819 81.3991 44.5227 81.1771 44.6222 80.9119L45.7557 81.2301C45.6364 81.6146 45.4358 81.9527 45.1541 82.2443C44.8724 82.5327 44.5244 82.758 44.1101 82.9205C43.6958 83.0795 43.2301 83.1591 42.7131 83.1591ZM52.353 85.8636C52.1541 85.8636 51.9768 85.8471 51.821 85.8139C51.6652 85.7841 51.5575 85.7543 51.4979 85.7244L51.7962 84.6903C52.0812 84.7633 52.3331 84.7898 52.5518 84.7699C52.7706 84.75 52.9645 84.6522 53.1335 84.4766C53.3059 84.3042 53.4633 84.0241 53.6058 83.6364L53.8246 83.0398L51.0007 75.3636H52.2734L54.3814 81.4489H54.4609L56.5689 75.3636H57.8416L54.6001 84.1136C54.4543 84.508 54.2737 84.8345 54.0582 85.093C53.8428 85.3549 53.5926 85.5488 53.3075 85.6747C53.0258 85.8007 52.7076 85.8636 52.353 85.8636ZM62.2191 83.1591C61.5297 83.1591 60.9248 82.995 60.4045 82.6669C59.8874 82.3388 59.4831 81.8797 59.1914 81.2898C58.9031 80.6998 58.7589 80.0104 58.7589 79.2216C58.7589 78.4261 58.9031 77.7318 59.1914 77.1385C59.4831 76.5452 59.8874 76.0845 60.4045 75.7564C60.9248 75.4283 61.5297 75.2642 62.2191 75.2642C62.9085 75.2642 63.5117 75.4283 64.0288 75.7564C64.5491 76.0845 64.9535 76.5452 65.2418 77.1385C65.5335 77.7318 65.6793 78.4261 65.6793 79.2216C65.6793 80.0104 65.5335 80.6998 65.2418 81.2898C64.9535 81.8797 64.5491 82.3388 64.0288 82.6669C63.5117 82.995 62.9085 83.1591 62.2191 83.1591ZM62.2191 82.1051C62.7428 82.1051 63.1737 81.9709 63.5117 81.7024C63.8498 81.4339 64.1 81.081 64.2624 80.6435C64.4248 80.206 64.506 79.732 64.506 79.2216C64.506 78.7112 64.4248 78.2356 64.2624 77.7947C64.1 77.3539 63.8498 76.9976 63.5117 76.7259C63.1737 76.4541 62.7428 76.3182 62.2191 76.3182C61.6954 76.3182 61.2646 76.4541 60.9265 76.7259C60.5884 76.9976 60.3382 77.3539 60.1758 77.7947C60.0134 78.2356 59.9322 78.7112 59.9322 79.2216C59.9322 79.732 60.0134 80.206 60.1758 80.6435C60.3382 81.081 60.5884 81.4339 60.9265 81.7024C61.2646 81.9709 61.6954 82.1051 62.2191 82.1051ZM72.2828 79.8778V75.3636H73.4561V83H72.2828V81.7074H72.2033C72.0243 82.0952 71.7459 82.425 71.3681 82.6967C70.9902 82.9652 70.513 83.0994 69.9363 83.0994C69.459 83.0994 69.0347 82.995 68.6635 82.7862C68.2923 82.5741 68.0007 82.2559 67.7885 81.8317C67.5764 81.4041 67.4703 80.8655 67.4703 80.2159V75.3636H68.6436V80.1364C68.6436 80.6932 68.7994 81.1373 69.111 81.4688C69.4258 81.8002 69.8269 81.9659 70.3141 81.9659C70.6058 81.9659 70.9024 81.8913 71.204 81.7422C71.5089 81.593 71.7641 81.3643 71.9696 81.0561C72.1784 80.7479 72.2828 80.3551 72.2828 79.8778ZM84.9517 77.0739L83.8977 77.3722C83.8314 77.1965 83.7337 77.0258 83.6044 76.8601C83.4785 76.6911 83.3061 76.5518 83.0874 76.4425C82.8686 76.3331 82.5885 76.2784 82.2472 76.2784C81.7798 76.2784 81.3904 76.3861 81.0788 76.6016C80.7706 76.8137 80.6165 77.0838 80.6165 77.4119C80.6165 77.7036 80.7225 77.9339 80.9347 78.103C81.1468 78.272 81.4782 78.4129 81.929 78.5256L83.0625 78.804C83.7453 78.9697 84.254 79.2232 84.5888 79.5646C84.9235 79.9027 85.0909 80.3385 85.0909 80.8722C85.0909 81.3097 84.965 81.7008 84.7131 82.0455C84.4645 82.3902 84.1165 82.6619 83.669 82.8608C83.2216 83.0597 82.7012 83.1591 82.108 83.1591C81.3291 83.1591 80.6844 82.9901 80.174 82.652C79.6636 82.3139 79.3404 81.8201 79.2045 81.1705L80.3182 80.892C80.4242 81.303 80.6248 81.6113 80.9197 81.8168C81.218 82.0223 81.6075 82.125 82.0881 82.125C82.6349 82.125 83.0691 82.009 83.3906 81.777C83.7154 81.5417 83.8778 81.2599 83.8778 80.9318C83.8778 80.6667 83.785 80.4446 83.5994 80.2656C83.4138 80.0833 83.1288 79.9474 82.7443 79.858L81.4716 79.5597C80.7723 79.3939 80.2585 79.1371 79.9304 78.7891C79.6056 78.4377 79.4432 77.9986 79.4432 77.4716C79.4432 77.0407 79.5642 76.6596 79.8061 76.3281C80.0514 75.9967 80.3845 75.7365 80.8054 75.5476C81.2296 75.3587 81.7102 75.2642 82.2472 75.2642C83.0028 75.2642 83.5961 75.4299 84.027 75.7614C84.4612 76.0928 84.7694 76.5303 84.9517 77.0739ZM91.6696 79.8778V75.3636H92.8429V83H91.6696V81.7074H91.59C91.411 82.0952 91.1326 82.425 90.7548 82.6967C90.377 82.9652 89.8997 83.0994 89.323 83.0994C88.8457 83.0994 88.4215 82.995 88.0502 82.7862C87.679 82.5741 87.3874 82.2559 87.1752 81.8317C86.9631 81.4041 86.8571 80.8655 86.8571 80.2159V75.3636H88.0304V80.1364C88.0304 80.6932 88.1861 81.1373 88.4977 81.4688C88.8126 81.8002 89.2136 81.9659 89.7008 81.9659C89.9925 81.9659 90.2891 81.8913 90.5907 81.7422C90.8957 81.593 91.1509 81.3643 91.3564 81.0561C91.5652 80.7479 91.6696 80.3551 91.6696 79.8778ZM94.9918 83V75.3636H96.1254V76.517H96.2049C96.3441 76.1392 96.596 75.8326 96.9606 75.5973C97.3252 75.362 97.7362 75.2443 98.1935 75.2443C98.2797 75.2443 98.3874 75.246 98.5167 75.2493C98.646 75.2526 98.7437 75.2576 98.81 75.2642V76.4574C98.7702 76.4474 98.6791 76.4325 98.5366 76.4126C98.3974 76.3894 98.2499 76.3778 98.0941 76.3778C97.7229 76.3778 97.3915 76.4557 97.0998 76.6115C96.8114 76.764 96.5827 76.9761 96.4137 77.2479C96.248 77.5163 96.1651 77.8229 96.1651 78.1676V83H94.9918ZM103.17 83.1591C102.434 83.1591 101.8 82.9967 101.266 82.6719C100.736 82.3438 100.326 81.8864 100.038 81.2997C99.753 80.7098 99.6104 80.0237 99.6104 79.2415C99.6104 78.4593 99.753 77.7699 100.038 77.1733C100.326 76.5734 100.727 76.1061 101.241 75.7713C101.758 75.4332 102.361 75.2642 103.051 75.2642C103.449 75.2642 103.841 75.3305 104.229 75.4631C104.617 75.5956 104.97 75.8111 105.288 76.1094C105.606 76.4044 105.86 76.7955 106.049 77.2827C106.238 77.7699 106.332 78.3698 106.332 79.0824V79.5795H100.446V78.5653H105.139C105.139 78.1345 105.053 77.75 104.88 77.4119C104.711 77.0739 104.469 76.8071 104.154 76.6115C103.843 76.416 103.475 76.3182 103.051 76.3182C102.583 76.3182 102.179 76.4342 101.838 76.6662C101.5 76.8949 101.239 77.1932 101.057 77.5611C100.875 77.929 100.784 78.3234 100.784 78.7443V79.4205C100.784 79.9972 100.883 80.486 101.082 80.8871C101.284 81.2848 101.564 81.5881 101.922 81.7969C102.28 82.0024 102.696 82.1051 103.17 82.1051C103.478 82.1051 103.757 82.062 104.005 81.9759C104.257 81.8864 104.474 81.7538 104.657 81.5781C104.839 81.3991 104.98 81.1771 105.079 80.9119L106.213 81.2301C106.093 81.6146 105.893 81.9527 105.611 82.2443C105.329 82.5327 104.981 82.758 104.567 82.9205C104.153 83.0795 103.687 83.1591 103.17 83.1591ZM112.81 85.8636C112.611 85.8636 112.434 85.8471 112.278 85.8139C112.122 85.7841 112.015 85.7543 111.955 85.7244L112.253 84.6903C112.538 84.7633 112.79 84.7898 113.009 84.7699C113.228 84.75 113.422 84.6522 113.591 84.4766C113.763 84.3042 113.92 84.0241 114.063 83.6364L114.282 83.0398L111.458 75.3636H112.73L114.838 81.4489H114.918L117.026 75.3636H118.299L115.057 84.1136C114.911 84.508 114.731 84.8345 114.515 85.093C114.3 85.3549 114.05 85.5488 113.765 85.6747C113.483 85.8007 113.165 85.8636 112.81 85.8636ZM122.676 83.1591C121.987 83.1591 121.382 82.995 120.862 82.6669C120.344 82.3388 119.94 81.8797 119.648 81.2898C119.36 80.6998 119.216 80.0104 119.216 79.2216C119.216 78.4261 119.36 77.7318 119.648 77.1385C119.94 76.5452 120.344 76.0845 120.862 75.7564C121.382 75.4283 121.987 75.2642 122.676 75.2642C123.366 75.2642 123.969 75.4283 124.486 75.7564C125.006 76.0845 125.411 76.5452 125.699 77.1385C125.991 77.7318 126.136 78.4261 126.136 79.2216C126.136 80.0104 125.991 80.6998 125.699 81.2898C125.411 81.8797 125.006 82.3388 124.486 82.6669C123.969 82.995 123.366 83.1591 122.676 83.1591ZM122.676 82.1051C123.2 82.1051 123.631 81.9709 123.969 81.7024C124.307 81.4339 124.557 81.081 124.719 80.6435C124.882 80.206 124.963 79.732 124.963 79.2216C124.963 78.7112 124.882 78.2356 124.719 77.7947C124.557 77.3539 124.307 76.9976 123.969 76.7259C123.631 76.4541 123.2 76.3182 122.676 76.3182C122.152 76.3182 121.722 76.4541 121.384 76.7259C121.045 76.9976 120.795 77.3539 120.633 77.7947C120.47 78.2356 120.389 78.7112 120.389 79.2216C120.389 79.732 120.47 80.206 120.633 80.6435C120.795 81.081 121.045 81.4339 121.384 81.7024C121.722 81.9709 122.152 82.1051 122.676 82.1051ZM132.74 79.8778V75.3636H133.913V83H132.74V81.7074H132.66C132.481 82.0952 132.203 82.425 131.825 82.6967C131.447 82.9652 130.97 83.0994 130.393 83.0994C129.916 83.0994 129.492 82.995 129.121 82.7862C128.749 82.5741 128.458 82.2559 128.246 81.8317C128.033 81.4041 127.927 80.8655 127.927 80.2159V75.3636H129.101V80.1364C129.101 80.6932 129.256 81.1373 129.568 81.4688C129.883 81.8002 130.284 81.9659 130.771 81.9659C131.063 81.9659 131.359 81.8913 131.661 81.7422C131.966 81.593 132.221 81.3643 132.427 81.0561C132.635 80.7479 132.74 80.3551 132.74 79.8778ZM141.73 83L139.403 75.3636H140.636L142.287 81.2102H142.366L143.997 75.3636H145.25L146.86 81.1903H146.94L148.591 75.3636H149.824L147.497 83H146.343L144.673 77.1335H144.554L142.883 83H141.73ZM153.622 83.179C153.138 83.179 152.699 83.0878 152.304 82.9055C151.91 82.7199 151.597 82.4531 151.365 82.1051C151.133 81.7538 151.017 81.3295 151.017 80.8324C151.017 80.3949 151.103 80.0402 151.275 79.7685C151.448 79.4934 151.678 79.2779 151.966 79.1222C152.255 78.9664 152.573 78.8504 152.921 78.7741C153.272 78.6946 153.625 78.6316 153.98 78.5852C154.444 78.5256 154.82 78.4808 155.108 78.451C155.4 78.4179 155.612 78.3632 155.745 78.2869C155.881 78.2107 155.949 78.0781 155.949 77.8892V77.8494C155.949 77.3589 155.814 76.9777 155.546 76.706C155.281 76.4342 154.878 76.2983 154.338 76.2983C153.778 76.2983 153.338 76.4209 153.02 76.6662C152.702 76.9115 152.478 77.1733 152.349 77.4517L151.235 77.054C151.434 76.59 151.699 76.2287 152.031 75.9702C152.366 75.7083 152.73 75.526 153.125 75.4233C153.522 75.3172 153.913 75.2642 154.298 75.2642C154.543 75.2642 154.825 75.294 155.143 75.3537C155.465 75.41 155.775 75.5277 156.073 75.7067C156.374 75.8857 156.625 76.1558 156.824 76.517C157.022 76.8783 157.122 77.3622 157.122 77.9688V83H155.949V81.9659H155.889C155.809 82.1316 155.677 82.3089 155.491 82.4979C155.306 82.6868 155.059 82.8475 154.75 82.9801C154.442 83.1127 154.066 83.179 153.622 83.179ZM153.801 82.125C154.265 82.125 154.656 82.0339 154.974 81.8516C155.296 81.6693 155.538 81.4339 155.7 81.1456C155.866 80.8572 155.949 80.554 155.949 80.2358V79.1619C155.899 79.2216 155.789 79.2763 155.62 79.326C155.455 79.3724 155.262 79.4138 155.044 79.4503C154.828 79.4834 154.618 79.5133 154.412 79.5398C154.21 79.563 154.046 79.5829 153.92 79.5994C153.615 79.6392 153.33 79.7038 153.065 79.7933C152.803 79.8795 152.591 80.0104 152.429 80.1861C152.27 80.3584 152.19 80.5937 152.19 80.892C152.19 81.2997 152.341 81.608 152.642 81.8168C152.947 82.0223 153.333 82.125 153.801 82.125ZM160.437 78.4062V83H159.263V75.3636H160.397V76.5568H160.496C160.675 76.169 160.947 75.8575 161.312 75.6222C161.676 75.3835 162.147 75.2642 162.724 75.2642C163.241 75.2642 163.693 75.3703 164.081 75.5824C164.469 75.7912 164.77 76.1094 164.986 76.5369C165.201 76.9612 165.309 77.4981 165.309 78.1477V83H164.135V78.2273C164.135 77.6274 163.98 77.16 163.668 76.8253C163.357 76.4872 162.929 76.3182 162.385 76.3182C162.011 76.3182 161.676 76.3994 161.381 76.5618C161.09 76.7242 160.859 76.9612 160.69 77.2727C160.521 77.5843 160.437 77.9621 160.437 78.4062ZM170.774 75.3636V76.358H166.816V75.3636H170.774ZM167.97 73.5341H169.143V80.8125C169.143 81.1439 169.191 81.3925 169.287 81.5582C169.387 81.7206 169.513 81.83 169.665 81.8864C169.821 81.9394 169.985 81.9659 170.157 81.9659C170.287 81.9659 170.393 81.9593 170.475 81.946C170.558 81.9295 170.625 81.9162 170.674 81.9062L170.913 82.9602C170.833 82.9901 170.722 83.0199 170.58 83.0497C170.437 83.0829 170.257 83.0994 170.038 83.0994C169.707 83.0994 169.382 83.0282 169.064 82.8857C168.749 82.7431 168.487 82.526 168.278 82.2344C168.073 81.9427 167.97 81.5748 167.97 81.1307V73.5341ZM179.797 75.3636V76.358H175.84V75.3636H179.797ZM176.993 73.5341H178.167V80.8125C178.167 81.1439 178.215 81.3925 178.311 81.5582C178.41 81.7206 178.536 81.83 178.689 81.8864C178.844 81.9394 179.008 81.9659 179.181 81.9659C179.31 81.9659 179.416 81.9593 179.499 81.946C179.582 81.9295 179.648 81.9162 179.698 81.9062L179.936 82.9602C179.857 82.9901 179.746 83.0199 179.603 83.0497C179.461 83.0829 179.28 83.0994 179.061 83.0994C178.73 83.0994 178.405 83.0282 178.087 82.8857C177.772 82.7431 177.51 82.526 177.301 82.2344C177.096 81.9427 176.993 81.5748 176.993 81.1307V73.5341ZM184.582 83.1591C183.893 83.1591 183.288 82.995 182.768 82.6669C182.251 82.3388 181.846 81.8797 181.555 81.2898C181.266 80.6998 181.122 80.0104 181.122 79.2216C181.122 78.4261 181.266 77.7318 181.555 77.1385C181.846 76.5452 182.251 76.0845 182.768 75.7564C183.288 75.4283 183.893 75.2642 184.582 75.2642C185.272 75.2642 185.875 75.4283 186.392 75.7564C186.912 76.0845 187.317 76.5452 187.605 77.1385C187.897 77.7318 188.043 78.4261 188.043 79.2216C188.043 80.0104 187.897 80.6998 187.605 81.2898C187.317 81.8797 186.912 82.3388 186.392 82.6669C185.875 82.995 185.272 83.1591 184.582 83.1591ZM184.582 82.1051C185.106 82.1051 185.537 81.9709 185.875 81.7024C186.213 81.4339 186.463 81.081 186.626 80.6435C186.788 80.206 186.869 79.732 186.869 79.2216C186.869 78.7112 186.788 78.2356 186.626 77.7947C186.463 77.3539 186.213 76.9976 185.875 76.7259C185.537 76.4541 185.106 76.3182 184.582 76.3182C184.059 76.3182 183.628 76.4541 183.29 76.7259C182.952 76.9976 182.701 77.3539 182.539 77.7947C182.377 78.2356 182.295 78.7112 182.295 79.2216C182.295 79.732 182.377 80.206 182.539 80.6435C182.701 81.081 182.952 81.4339 183.29 81.7024C183.628 81.9709 184.059 82.1051 184.582 82.1051ZM193.771 83V75.3636H194.905V76.517H194.984C195.123 76.1392 195.375 75.8326 195.74 75.5973C196.104 75.362 196.515 75.2443 196.973 75.2443C197.059 75.2443 197.167 75.246 197.296 75.2493C197.425 75.2526 197.523 75.2576 197.589 75.2642V76.4574C197.55 76.4474 197.458 76.4325 197.316 76.4126C197.177 76.3894 197.029 76.3778 196.873 76.3778C196.502 76.3778 196.171 76.4557 195.879 76.6115C195.591 76.764 195.362 76.9761 195.193 77.2479C195.027 77.5163 194.944 77.8229 194.944 78.1676V83H193.771ZM201.949 83.1591C201.214 83.1591 200.579 82.9967 200.045 82.6719C199.515 82.3438 199.106 81.8864 198.817 81.2997C198.532 80.7098 198.39 80.0237 198.39 79.2415C198.39 78.4593 198.532 77.7699 198.817 77.1733C199.106 76.5734 199.507 76.1061 200.02 75.7713C200.537 75.4332 201.141 75.2642 201.83 75.2642C202.228 75.2642 202.621 75.3305 203.008 75.4631C203.396 75.5956 203.749 75.8111 204.067 76.1094C204.385 76.4044 204.639 76.7955 204.828 77.2827C205.017 77.7699 205.111 78.3698 205.111 79.0824V79.5795H199.225V78.5653H203.918C203.918 78.1345 203.832 77.75 203.66 77.4119C203.491 77.0739 203.249 76.8071 202.934 76.6115C202.622 76.416 202.254 76.3182 201.83 76.3182C201.363 76.3182 200.958 76.4342 200.617 76.6662C200.279 76.8949 200.019 77.1932 199.836 77.5611C199.654 77.929 199.563 78.3234 199.563 78.7443V79.4205C199.563 79.9972 199.662 80.486 199.861 80.8871C200.064 81.2848 200.344 81.5881 200.702 81.7969C201.059 82.0024 201.475 82.1051 201.949 82.1051C202.258 82.1051 202.536 82.062 202.785 81.9759C203.037 81.8864 203.254 81.7538 203.436 81.5781C203.618 81.3991 203.759 81.1771 203.858 80.9119L204.992 81.2301C204.873 81.6146 204.672 81.9527 204.39 82.2443C204.109 82.5327 203.761 82.758 203.346 82.9205C202.932 83.0795 202.466 83.1591 201.949 83.1591ZM206.896 83V75.3636H208.03V76.5568H208.129C208.288 76.1491 208.545 75.8326 208.9 75.6072C209.254 75.3786 209.68 75.2642 210.177 75.2642C210.681 75.2642 211.1 75.3786 211.435 75.6072C211.773 75.8326 212.037 76.1491 212.226 76.5568H212.305C212.501 76.1624 212.794 75.8492 213.185 75.6172C213.576 75.3819 214.045 75.2642 214.592 75.2642C215.275 75.2642 215.833 75.478 216.268 75.9055C216.702 76.3298 216.919 76.991 216.919 77.8892V83H215.746V77.8892C215.746 77.3258 215.591 76.9231 215.283 76.6811C214.975 76.4392 214.612 76.3182 214.194 76.3182C213.657 76.3182 213.242 76.4806 212.947 76.8054C212.652 77.1269 212.504 77.5346 212.504 78.0284V83H211.311V77.7699C211.311 77.3357 211.17 76.986 210.888 76.7209C210.607 76.4524 210.244 76.3182 209.8 76.3182C209.495 76.3182 209.21 76.3994 208.944 76.5618C208.683 76.7242 208.47 76.9496 208.308 77.2379C208.149 77.523 208.069 77.8527 208.069 78.2273V83H206.896ZM222.166 83.1591C221.477 83.1591 220.872 82.995 220.352 82.6669C219.835 82.3388 219.43 81.8797 219.139 81.2898C218.85 80.6998 218.706 80.0104 218.706 79.2216C218.706 78.4261 218.85 77.7318 219.139 77.1385C219.43 76.5452 219.835 76.0845 220.352 75.7564C220.872 75.4283 221.477 75.2642 222.166 75.2642C222.856 75.2642 223.459 75.4283 223.976 75.7564C224.496 76.0845 224.901 76.5452 225.189 77.1385C225.481 77.7318 225.627 78.4261 225.627 79.2216C225.627 80.0104 225.481 80.6998 225.189 81.2898C224.901 81.8797 224.496 82.3388 223.976 82.6669C223.459 82.995 222.856 83.1591 222.166 83.1591ZM222.166 82.1051C222.69 82.1051 223.121 81.9709 223.459 81.7024C223.797 81.4339 224.047 81.081 224.21 80.6435C224.372 80.206 224.453 79.732 224.453 79.2216C224.453 78.7112 224.372 78.2356 224.21 77.7947C224.047 77.3539 223.797 76.9976 223.459 76.7259C223.121 76.4541 222.69 76.3182 222.166 76.3182C221.643 76.3182 221.212 76.4541 220.874 76.7259C220.536 76.9976 220.285 77.3539 220.123 77.7947C219.961 78.2356 219.879 78.7112 219.879 79.2216C219.879 79.732 219.961 80.206 220.123 80.6435C220.285 81.081 220.536 81.4339 220.874 81.7024C221.212 81.9709 221.643 82.1051 222.166 82.1051ZM233.388 75.3636L230.565 83H229.371L226.548 75.3636H227.82L229.928 81.4489H230.008L232.116 75.3636H233.388ZM237.865 83.1591C237.13 83.1591 236.495 82.9967 235.961 82.6719C235.431 82.3438 235.022 81.8864 234.733 81.2997C234.448 80.7098 234.306 80.0237 234.306 79.2415C234.306 78.4593 234.448 77.7699 234.733 77.1733C235.022 76.5734 235.423 76.1061 235.936 75.7713C236.453 75.4332 237.057 75.2642 237.746 75.2642C238.144 75.2642 238.537 75.3305 238.924 75.4631C239.312 75.5956 239.665 75.8111 239.983 76.1094C240.301 76.4044 240.555 76.7955 240.744 77.2827C240.933 77.7699 241.027 78.3698 241.027 79.0824V79.5795H235.141V78.5653H239.834C239.834 78.1345 239.748 77.75 239.576 77.4119C239.407 77.0739 239.165 76.8071 238.85 76.6115C238.538 76.416 238.17 76.3182 237.746 76.3182C237.279 76.3182 236.874 76.4342 236.533 76.6662C236.195 76.8949 235.935 77.1932 235.752 77.5611C235.57 77.929 235.479 78.3234 235.479 78.7443V79.4205C235.479 79.9972 235.578 80.486 235.777 80.8871C235.98 81.2848 236.26 81.5881 236.618 81.7969C236.975 82.0024 237.391 82.1051 237.865 82.1051C238.174 82.1051 238.452 82.062 238.701 81.9759C238.953 81.8864 239.17 81.7538 239.352 81.5781C239.534 81.3991 239.675 81.1771 239.775 80.9119L240.908 81.2301C240.789 81.6146 240.588 81.9527 240.306 82.2443C240.025 82.5327 239.677 82.758 239.262 82.9205C238.848 83.0795 238.382 83.1591 237.865 83.1591ZM246.909 83V72.8182H248.142V77.8693H248.261L252.835 72.8182H254.446L250.17 77.4119L254.446 83H252.954L249.414 78.267L248.142 79.6989V83H246.909ZM258.524 83.1591C257.788 83.1591 257.153 82.9967 256.619 82.6719C256.089 82.3438 255.68 81.8864 255.392 81.2997C255.106 80.7098 254.964 80.0237 254.964 79.2415C254.964 78.4593 255.106 77.7699 255.392 77.1733C255.68 76.5734 256.081 76.1061 256.595 75.7713C257.112 75.4332 257.715 75.2642 258.404 75.2642C258.802 75.2642 259.195 75.3305 259.583 75.4631C259.97 75.5956 260.323 75.8111 260.642 76.1094C260.96 76.4044 261.213 76.7955 261.402 77.2827C261.591 77.7699 261.686 78.3698 261.686 79.0824V79.5795H255.799V78.5653H260.492C260.492 78.1345 260.406 77.75 260.234 77.4119C260.065 77.0739 259.823 76.8071 259.508 76.6115C259.196 76.416 258.829 76.3182 258.404 76.3182C257.937 76.3182 257.533 76.4342 257.191 76.6662C256.853 76.8949 256.593 77.1932 256.411 77.5611C256.228 77.929 256.137 78.3234 256.137 78.7443V79.4205C256.137 79.9972 256.237 80.486 256.436 80.8871C256.638 81.2848 256.918 81.5881 257.276 81.7969C257.634 82.0024 258.05 82.1051 258.524 82.1051C258.832 82.1051 259.11 82.062 259.359 81.9759C259.611 81.8864 259.828 81.7538 260.01 81.5781C260.192 81.3991 260.333 81.1771 260.433 80.9119L261.566 81.2301C261.447 81.6146 261.246 81.9527 260.965 82.2443C260.683 82.5327 260.335 82.758 259.921 82.9205C259.506 83.0795 259.041 83.1591 258.524 83.1591ZM269.482 75.3636L266.658 83H265.465L262.641 75.3636H263.914L266.022 81.4489H266.102L268.21 75.3636H269.482ZM271.031 83V75.3636H272.204V83H271.031ZM271.627 74.0909C271.399 74.0909 271.202 74.013 271.036 73.8572C270.873 73.7015 270.792 73.5142 270.792 73.2955C270.792 73.0767 270.873 72.8894 271.036 72.7337C271.202 72.5779 271.399 72.5 271.627 72.5C271.856 72.5 272.052 72.5779 272.214 72.7337C272.38 72.8894 272.463 73.0767 272.463 73.2955C272.463 73.5142 272.38 73.7015 272.214 73.8572C272.052 74.013 271.856 74.0909 271.627 74.0909ZM275.526 78.4062V83H274.353V75.3636H275.487V76.5568H275.586C275.765 76.169 276.037 75.8575 276.401 75.6222C276.766 75.3835 277.237 75.2642 277.813 75.2642C278.33 75.2642 278.783 75.3703 279.171 75.5824C279.558 75.7912 279.86 76.1094 280.075 76.5369C280.291 76.9612 280.399 77.4981 280.399 78.1477V83H279.225V78.2273C279.225 77.6274 279.07 77.16 278.758 76.8253C278.446 76.4872 278.019 76.3182 277.475 76.3182C277.101 76.3182 276.766 76.3994 276.471 76.5618C276.179 76.7242 275.949 76.9612 275.78 77.2727C275.611 77.5843 275.526 77.9621 275.526 78.4062ZM27.0824 103L24.2983 92.8182H25.5511L27.679 101.111H27.7784L29.946 92.8182H31.3381L33.5057 101.111H33.6051L35.733 92.8182H36.9858L34.2017 103H32.929L30.6818 94.8864H30.6023L28.3551 103H27.0824ZM40.8537 103.159C40.1179 103.159 39.4832 102.997 38.9496 102.672C38.4193 102.344 38.0099 101.886 37.7216 101.3C37.4366 100.71 37.294 100.024 37.294 99.2415C37.294 98.4593 37.4366 97.7699 37.7216 97.1733C38.0099 96.5734 38.411 96.1061 38.9247 95.7713C39.4418 95.4332 40.045 95.2642 40.7344 95.2642C41.1321 95.2642 41.5249 95.3305 41.9126 95.4631C42.3004 95.5956 42.6534 95.8111 42.9716 96.1094C43.2898 96.4044 43.5433 96.7955 43.7322 97.2827C43.9212 97.7699 44.0156 98.3698 44.0156 99.0824V99.5795H38.1293V98.5653H42.8224C42.8224 98.1345 42.7363 97.75 42.5639 97.4119C42.3949 97.0739 42.1529 96.8071 41.8381 96.6115C41.5265 96.416 41.1586 96.3182 40.7344 96.3182C40.267 96.3182 39.8627 96.4342 39.5213 96.6662C39.1832 96.8949 38.9231 97.1932 38.7408 97.5611C38.5585 97.929 38.4673 98.3234 38.4673 98.7443V99.4205C38.4673 99.9972 38.5668 100.486 38.7656 100.887C38.9678 101.285 39.2479 101.588 39.6058 101.797C39.9638 102.002 40.3797 102.105 40.8537 102.105C41.1619 102.105 41.4403 102.062 41.6889 101.976C41.9408 101.886 42.1579 101.754 42.3402 101.578C42.5225 101.399 42.6634 101.177 42.7628 100.912L43.8963 101.23C43.777 101.615 43.5765 101.953 43.2947 102.244C43.013 102.533 42.665 102.758 42.2507 102.92C41.8364 103.08 41.3707 103.159 40.8537 103.159ZM45.8004 103V95.3636H46.9737V103H45.8004ZM46.397 94.0909C46.1683 94.0909 45.9711 94.013 45.8054 93.8572C45.643 93.7015 45.5618 93.5142 45.5618 93.2955C45.5618 93.0767 45.643 92.8894 45.8054 92.7337C45.9711 92.5779 46.1683 92.5 46.397 92.5C46.6257 92.5 46.8213 92.5779 46.9837 92.7337C47.1494 92.8894 47.2322 93.0767 47.2322 93.2955C47.2322 93.5142 47.1494 93.7015 46.9837 93.8572C46.8213 94.013 46.6257 94.0909 46.397 94.0909ZM54.5318 97.0739L53.4778 97.3722C53.4115 97.1965 53.3137 97.0258 53.1845 96.8601C53.0585 96.6911 52.8862 96.5518 52.6674 96.4425C52.4487 96.3331 52.1686 96.2784 51.8272 96.2784C51.3599 96.2784 50.9705 96.3861 50.6589 96.6016C50.3507 96.8137 50.1966 97.0838 50.1966 97.4119C50.1966 97.7036 50.3026 97.9339 50.5147 98.103C50.7269 98.272 51.0583 98.4129 51.5091 98.5256L52.6426 98.804C53.3253 98.9697 53.8341 99.2232 54.1689 99.5646C54.5036 99.9027 54.671 100.339 54.671 100.872C54.671 101.31 54.545 101.701 54.2931 102.045C54.0446 102.39 53.6966 102.662 53.2491 102.861C52.8017 103.06 52.2813 103.159 51.688 103.159C50.9092 103.159 50.2645 102.99 49.7541 102.652C49.2437 102.314 48.9205 101.82 48.7846 101.17L49.8983 100.892C50.0043 101.303 50.2048 101.611 50.4998 101.817C50.7981 102.022 51.1876 102.125 51.6681 102.125C52.215 102.125 52.6492 102.009 52.9707 101.777C53.2955 101.542 53.4579 101.26 53.4579 100.932C53.4579 100.667 53.3651 100.445 53.1795 100.266C52.9939 100.083 52.7089 99.9474 52.3244 99.858L51.0517 99.5597C50.3523 99.3939 49.8386 99.1371 49.5105 98.7891C49.1857 98.4377 49.0233 97.9986 49.0233 97.4716C49.0233 97.0407 49.1442 96.6596 49.3862 96.3281C49.6315 95.9967 49.9645 95.7365 50.3855 95.5476C50.8097 95.3587 51.2903 95.2642 51.8272 95.2642C52.5829 95.2642 53.1762 95.4299 53.6071 95.7614C54.0413 96.0928 54.3495 96.5303 54.5318 97.0739ZM61.8462 97.0739L60.7923 97.3722C60.726 97.1965 60.6282 97.0258 60.4989 96.8601C60.373 96.6911 60.2006 96.5518 59.9819 96.4425C59.7631 96.3331 59.4831 96.2784 59.1417 96.2784C58.6744 96.2784 58.2849 96.3861 57.9734 96.6016C57.6651 96.8137 57.511 97.0838 57.511 97.4119C57.511 97.7036 57.6171 97.9339 57.8292 98.103C58.0413 98.272 58.3728 98.4129 58.8235 98.5256L59.957 98.804C60.6398 98.9697 61.1486 99.2232 61.4833 99.5646C61.8181 99.9027 61.9854 100.339 61.9854 100.872C61.9854 101.31 61.8595 101.701 61.6076 102.045C61.359 102.39 61.011 102.662 60.5636 102.861C60.1161 103.06 59.5958 103.159 59.0025 103.159C58.2236 103.159 57.579 102.99 57.0685 102.652C56.5581 102.314 56.235 101.82 56.0991 101.17L57.2127 100.892C57.3188 101.303 57.5193 101.611 57.8143 101.817C58.1126 102.022 58.502 102.125 58.9826 102.125C59.5295 102.125 59.9637 102.009 60.2852 101.777C60.61 101.542 60.7724 101.26 60.7724 100.932C60.7724 100.667 60.6796 100.445 60.494 100.266C60.3084 100.083 60.0233 99.9474 59.6388 99.858L58.3661 99.5597C57.6668 99.3939 57.1531 99.1371 56.8249 98.7891C56.5001 98.4377 56.3377 97.9986 56.3377 97.4716C56.3377 97.0407 56.4587 96.6596 56.7006 96.3281C56.9459 95.9967 57.279 95.7365 57.6999 95.5476C58.1242 95.3587 58.6048 95.2642 59.1417 95.2642C59.8974 95.2642 60.4906 95.4299 60.9215 95.7614C61.3557 96.0928 61.6639 96.5303 61.8462 97.0739ZM64.9249 98.4062V103H63.7516V95.3636H64.8851V96.5568H64.9846C65.1635 96.169 65.4353 95.8575 65.7999 95.6222C66.1645 95.3835 66.6351 95.2642 67.2118 95.2642C67.7289 95.2642 68.1813 95.3703 68.5691 95.5824C68.9569 95.7912 69.2585 96.1094 69.4739 96.5369C69.6893 96.9612 69.7971 97.4981 69.7971 98.1477V103H68.6238V98.2273C68.6238 97.6274 68.468 97.16 68.1564 96.8253C67.8449 96.4872 67.4173 96.3182 66.8738 96.3182C66.4992 96.3182 66.1645 96.3994 65.8695 96.5618C65.5778 96.7242 65.3475 96.9612 65.1784 97.2727C65.0094 97.5843 64.9249 97.9621 64.9249 98.4062ZM74.1882 103.179C73.7043 103.179 73.2652 103.088 72.8707 102.906C72.4763 102.72 72.1631 102.453 71.9311 102.105C71.6991 101.754 71.5831 101.33 71.5831 100.832C71.5831 100.395 71.6693 100.04 71.8416 99.7685C72.014 99.4934 72.2443 99.2779 72.5327 99.1222C72.821 98.9664 73.1392 98.8504 73.4872 98.7741C73.8385 98.6946 74.1915 98.6316 74.5462 98.5852C75.0102 98.5256 75.3864 98.4808 75.6747 98.451C75.9664 98.4179 76.1785 98.3632 76.3111 98.2869C76.447 98.2107 76.5149 98.0781 76.5149 97.8892V97.8494C76.5149 97.3589 76.3807 96.9777 76.1122 96.706C75.8471 96.4342 75.4444 96.2983 74.9041 96.2983C74.344 96.2983 73.9048 96.4209 73.5866 96.6662C73.2685 96.9115 73.0447 97.1733 72.9155 97.4517L71.8018 97.054C72.0007 96.59 72.2659 96.2287 72.5973 95.9702C72.9321 95.7083 73.2966 95.526 73.6911 95.4233C74.0888 95.3172 74.4799 95.2642 74.8643 95.2642C75.1096 95.2642 75.3913 95.294 75.7095 95.3537C76.031 95.41 76.3409 95.5277 76.6392 95.7067C76.9408 95.8857 77.1911 96.1558 77.3899 96.517C77.5888 96.8783 77.6882 97.3622 77.6882 97.9688V103H76.5149V101.966H76.4553C76.3757 102.132 76.2431 102.309 76.0575 102.498C75.8719 102.687 75.625 102.848 75.3168 102.98C75.0085 103.113 74.6323 103.179 74.1882 103.179ZM74.3672 102.125C74.8312 102.125 75.2223 102.034 75.5405 101.852C75.862 101.669 76.1039 101.434 76.2663 101.146C76.4321 100.857 76.5149 100.554 76.5149 100.236V99.1619C76.4652 99.2216 76.3558 99.2763 76.1868 99.326C76.0211 99.3724 75.8288 99.4138 75.6101 99.4503C75.3946 99.4834 75.1842 99.5133 74.9787 99.5398C74.7765 99.563 74.6125 99.5829 74.4865 99.5994C74.1816 99.6392 73.8965 99.7038 73.6314 99.7933C73.3696 99.8795 73.1574 100.01 72.995 100.186C72.8359 100.358 72.7564 100.594 72.7564 100.892C72.7564 101.3 72.9072 101.608 73.2088 101.817C73.5137 102.022 73.8999 102.125 74.3672 102.125ZM83.1507 95.3636V96.358H79.1934V95.3636H83.1507ZM80.3468 93.5341H81.5201V100.812C81.5201 101.144 81.5681 101.393 81.6642 101.558C81.7637 101.721 81.8896 101.83 82.0421 101.886C82.1979 101.939 82.3619 101.966 82.5343 101.966C82.6635 101.966 82.7696 101.959 82.8525 101.946C82.9353 101.929 83.0016 101.916 83.0513 101.906L83.29 102.96C83.2104 102.99 83.0994 103.02 82.9569 103.05C82.8143 103.083 82.6337 103.099 82.415 103.099C82.0835 103.099 81.7587 103.028 81.4405 102.886C81.1257 102.743 80.8638 102.526 80.655 102.234C80.4495 101.943 80.3468 101.575 80.3468 101.131V93.5341ZM86.4469 100.136V100.077C86.4535 99.4437 86.5198 98.9399 86.6458 98.5653C86.7717 98.1908 86.9507 97.8875 87.1827 97.6555C87.4147 97.4235 87.6931 97.2098 88.0179 97.0142C88.2135 96.8949 88.3891 96.754 88.5449 96.5916C88.7007 96.4259 88.8233 96.2353 88.9128 96.0199C89.0056 95.8045 89.052 95.5658 89.052 95.304C89.052 94.9792 88.9758 94.6974 88.8233 94.4588C88.6709 94.2202 88.467 94.0362 88.2118 93.907C87.9566 93.7777 87.6732 93.7131 87.3617 93.7131C87.0899 93.7131 86.8281 93.7694 86.5762 93.8821C86.3243 93.9948 86.1138 94.1721 85.9448 94.4141C85.7757 94.656 85.678 94.9725 85.6515 95.3636H84.3986C84.4251 94.8002 84.571 94.3179 84.8361 93.9169C85.1046 93.5159 85.4576 93.2093 85.8951 92.9972C86.3359 92.785 86.8248 92.679 87.3617 92.679C87.945 92.679 88.4521 92.795 88.883 93.027C89.3172 93.259 89.6519 93.5772 89.8873 93.9815C90.1259 94.3859 90.2452 94.8466 90.2452 95.3636C90.2452 95.7282 90.1889 96.058 90.0762 96.353C89.9668 96.648 89.8077 96.9115 89.5989 97.1435C89.3934 97.3755 89.1448 97.581 88.8532 97.7599C88.5615 97.9422 88.3278 98.1345 88.1522 98.3366C87.9765 98.5355 87.8489 98.7725 87.7694 99.0476C87.6898 99.3227 87.6467 99.6657 87.6401 100.077V100.136H86.4469ZM87.0833 103.08C86.838 103.08 86.6275 102.992 86.4519 102.816C86.2762 102.64 86.1884 102.43 86.1884 102.185C86.1884 101.939 86.2762 101.729 86.4519 101.553C86.6275 101.378 86.838 101.29 87.0833 101.29C87.3285 101.29 87.539 101.378 87.7147 101.553C87.8903 101.729 87.9782 101.939 87.9782 102.185C87.9782 102.347 87.9367 102.496 87.8539 102.632C87.7743 102.768 87.6666 102.877 87.5307 102.96C87.3981 103.04 87.249 103.08 87.0833 103.08ZM95.5511 93.9119V92.8182H103.188V93.9119H99.9858V103H98.7528V93.9119H95.5511ZM106.105 98.4062V103H104.931V92.8182H106.105V96.5568H106.204C106.383 96.1624 106.651 95.8492 107.009 95.6172C107.371 95.3819 107.851 95.2642 108.451 95.2642C108.972 95.2642 109.427 95.3686 109.818 95.5774C110.209 95.7829 110.513 96.0994 110.728 96.527C110.947 96.9512 111.056 97.4915 111.056 98.1477V103H109.883V98.2273C109.883 97.6207 109.726 97.1518 109.411 96.8203C109.099 96.4856 108.667 96.3182 108.113 96.3182C107.729 96.3182 107.384 96.3994 107.079 96.5618C106.777 96.7242 106.539 96.9612 106.363 97.2727C106.191 97.5843 106.105 97.9621 106.105 98.4062ZM113.203 103V95.3636H114.376V103H113.203ZM113.799 94.0909C113.571 94.0909 113.373 94.013 113.208 93.8572C113.045 93.7015 112.964 93.5142 112.964 93.2955C112.964 93.0767 113.045 92.8894 113.208 92.7337C113.373 92.5779 113.571 92.5 113.799 92.5C114.028 92.5 114.224 92.5779 114.386 92.7337C114.552 92.8894 114.635 93.0767 114.635 93.2955C114.635 93.5142 114.552 93.7015 114.386 93.8572C114.224 94.013 114.028 94.0909 113.799 94.0909ZM121.934 97.0739L120.88 97.3722C120.814 97.1965 120.716 97.0258 120.587 96.8601C120.461 96.6911 120.289 96.5518 120.07 96.4425C119.851 96.3331 119.571 96.2784 119.23 96.2784C118.762 96.2784 118.373 96.3861 118.061 96.6016C117.753 96.8137 117.599 97.0838 117.599 97.4119C117.599 97.7036 117.705 97.9339 117.917 98.103C118.129 98.272 118.461 98.4129 118.911 98.5256L120.045 98.804C120.728 98.9697 121.236 99.2232 121.571 99.5646C121.906 99.9027 122.073 100.339 122.073 100.872C122.073 101.31 121.947 101.701 121.695 102.045C121.447 102.39 121.099 102.662 120.651 102.861C120.204 103.06 119.684 103.159 119.09 103.159C118.311 103.159 117.667 102.99 117.156 102.652C116.646 102.314 116.323 101.82 116.187 101.17L117.301 100.892C117.407 101.303 117.607 101.611 117.902 101.817C118.2 102.022 118.59 102.125 119.07 102.125C119.617 102.125 120.052 102.009 120.373 101.777C120.698 101.542 120.86 101.26 120.86 100.932C120.86 100.667 120.767 100.445 120.582 100.266C120.396 100.083 120.111 99.9474 119.727 99.858L118.454 99.5597C117.755 99.3939 117.241 99.1371 116.913 98.7891C116.588 98.4377 116.426 97.9986 116.426 97.4716C116.426 97.0407 116.547 96.6596 116.789 96.3281C117.034 95.9967 117.367 95.7365 117.788 95.5476C118.212 95.3587 118.693 95.2642 119.23 95.2642C119.985 95.2642 120.579 95.4299 121.009 95.7614C121.444 96.0928 121.752 96.5303 121.934 97.0739ZM130.024 103.179C129.54 103.179 129.101 103.088 128.707 102.906C128.312 102.72 127.999 102.453 127.767 102.105C127.535 101.754 127.419 101.33 127.419 100.832C127.419 100.395 127.505 100.04 127.678 99.7685C127.85 99.4934 128.08 99.2779 128.369 99.1222C128.657 98.9664 128.975 98.8504 129.323 98.7741C129.674 98.6946 130.027 98.6316 130.382 98.5852C130.846 98.5256 131.222 98.4808 131.511 98.451C131.802 98.4179 132.014 98.3632 132.147 98.2869C132.283 98.2107 132.351 98.0781 132.351 97.8892V97.8494C132.351 97.3589 132.217 96.9777 131.948 96.706C131.683 96.4342 131.28 96.2983 130.74 96.2983C130.18 96.2983 129.741 96.4209 129.423 96.6662C129.104 96.9115 128.881 97.1733 128.751 97.4517L127.638 97.054C127.837 96.59 128.102 96.2287 128.433 95.9702C128.768 95.7083 129.133 95.526 129.527 95.4233C129.925 95.3172 130.316 95.2642 130.7 95.2642C130.946 95.2642 131.227 95.294 131.545 95.3537C131.867 95.41 132.177 95.5277 132.475 95.7067C132.777 95.8857 133.027 96.1558 133.226 96.517C133.425 96.8783 133.524 97.3622 133.524 97.9688V103H132.351V101.966H132.291C132.212 102.132 132.079 102.309 131.893 102.498C131.708 102.687 131.461 102.848 131.153 102.98C130.844 103.113 130.468 103.179 130.024 103.179ZM130.203 102.125C130.667 102.125 131.058 102.034 131.376 101.852C131.698 101.669 131.94 101.434 132.102 101.146C132.268 100.857 132.351 100.554 132.351 100.236V99.1619C132.301 99.2216 132.192 99.2763 132.023 99.326C131.857 99.3724 131.665 99.4138 131.446 99.4503C131.231 99.4834 131.02 99.5133 130.815 99.5398C130.612 99.563 130.448 99.5829 130.322 99.5994C130.018 99.6392 129.732 99.7038 129.467 99.7933C129.205 99.8795 128.993 100.01 128.831 100.186C128.672 100.358 128.592 100.594 128.592 100.892C128.592 101.3 128.743 101.608 129.045 101.817C129.35 102.022 129.736 102.125 130.203 102.125ZM138.768 103.159C138.052 103.159 137.436 102.99 136.919 102.652C136.401 102.314 136.004 101.848 135.725 101.255C135.447 100.662 135.308 99.9839 135.308 99.2216C135.308 98.446 135.45 97.7616 135.735 97.1683C136.024 96.5717 136.425 96.1061 136.938 95.7713C137.455 95.4332 138.059 95.2642 138.748 95.2642C139.285 95.2642 139.769 95.3636 140.2 95.5625C140.631 95.7614 140.984 96.0398 141.259 96.3977C141.534 96.7557 141.704 97.1733 141.771 97.6506H140.597C140.508 97.3026 140.309 96.9943 140.001 96.7259C139.696 96.4541 139.285 96.3182 138.768 96.3182C138.311 96.3182 137.91 96.4375 137.565 96.6761C137.223 96.9115 136.957 97.2446 136.764 97.6754C136.575 98.103 136.481 98.6051 136.481 99.1818C136.481 99.7718 136.574 100.286 136.759 100.723C136.948 101.161 137.213 101.5 137.555 101.742C137.9 101.984 138.304 102.105 138.768 102.105C139.073 102.105 139.35 102.052 139.598 101.946C139.847 101.84 140.057 101.688 140.23 101.489C140.402 101.29 140.525 101.051 140.597 100.773H141.771C141.704 101.223 141.54 101.629 141.279 101.991C141.02 102.349 140.677 102.634 140.249 102.846C139.825 103.055 139.331 103.159 138.768 103.159ZM146.807 95.3636V96.358H142.85V95.3636H146.807ZM144.003 93.5341H145.176V100.812C145.176 101.144 145.224 101.393 145.32 101.558C145.42 101.721 145.546 101.83 145.698 101.886C145.854 101.939 146.018 101.966 146.191 101.966C146.32 101.966 146.426 101.959 146.509 101.946C146.592 101.929 146.658 101.916 146.708 101.906L146.946 102.96C146.867 102.99 146.756 103.02 146.613 103.05C146.471 103.083 146.29 103.099 146.071 103.099C145.74 103.099 145.415 103.028 145.097 102.886C144.782 102.743 144.52 102.526 144.311 102.234C144.106 101.943 144.003 101.575 144.003 101.131V93.5341ZM148.572 103V95.3636H149.745V103H148.572ZM149.169 94.0909C148.94 94.0909 148.743 94.013 148.577 93.8572C148.414 93.7015 148.333 93.5142 148.333 93.2955C148.333 93.0767 148.414 92.8894 148.577 92.7337C148.743 92.5779 148.94 92.5 149.169 92.5C149.397 92.5 149.593 92.5779 149.755 92.7337C149.921 92.8894 150.004 93.0767 150.004 93.2955C150.004 93.5142 149.921 93.7015 149.755 93.8572C149.593 94.013 149.397 94.0909 149.169 94.0909ZM154.996 103.159C154.307 103.159 153.702 102.995 153.182 102.667C152.665 102.339 152.26 101.88 151.969 101.29C151.68 100.7 151.536 100.01 151.536 99.2216C151.536 98.4261 151.68 97.7318 151.969 97.1385C152.26 96.5452 152.665 96.0845 153.182 95.7564C153.702 95.4283 154.307 95.2642 154.996 95.2642C155.686 95.2642 156.289 95.4283 156.806 95.7564C157.326 96.0845 157.731 96.5452 158.019 97.1385C158.311 97.7318 158.457 98.4261 158.457 99.2216C158.457 100.01 158.311 100.7 158.019 101.29C157.731 101.88 157.326 102.339 156.806 102.667C156.289 102.995 155.686 103.159 154.996 103.159ZM154.996 102.105C155.52 102.105 155.951 101.971 156.289 101.702C156.627 101.434 156.877 101.081 157.04 100.643C157.202 100.206 157.283 99.732 157.283 99.2216C157.283 98.7112 157.202 98.2356 157.04 97.7947C156.877 97.3539 156.627 96.9976 156.289 96.7259C155.951 96.4541 155.52 96.3182 154.996 96.3182C154.473 96.3182 154.042 96.4541 153.704 96.7259C153.366 96.9976 153.116 97.3539 152.953 97.7947C152.791 98.2356 152.71 98.7112 152.71 99.2216C152.71 99.732 152.791 100.206 152.953 100.643C153.116 101.081 153.366 101.434 153.704 101.702C154.042 101.971 154.473 102.105 154.996 102.105ZM161.421 98.4062V103H160.248V95.3636H161.381V96.5568H161.481C161.66 96.169 161.931 95.8575 162.296 95.6222C162.661 95.3835 163.131 95.2642 163.708 95.2642C164.225 95.2642 164.677 95.3703 165.065 95.5824C165.453 95.7912 165.755 96.1094 165.97 96.5369C166.185 96.9612 166.293 97.4981 166.293 98.1477V103H165.12V98.2273C165.12 97.6274 164.964 97.16 164.653 96.8253C164.341 96.4872 163.913 96.3182 163.37 96.3182C162.995 96.3182 162.661 96.3994 162.366 96.5618C162.074 96.7242 161.844 96.9612 161.675 97.2727C161.506 97.5843 161.421 97.9621 161.421 98.4062ZM175.477 103.159C174.761 103.159 174.145 102.99 173.627 102.652C173.11 102.314 172.713 101.848 172.434 101.255C172.156 100.662 172.017 99.9839 172.017 99.2216C172.017 98.446 172.159 97.7616 172.444 97.1683C172.733 96.5717 173.134 96.1061 173.647 95.7713C174.164 95.4332 174.768 95.2642 175.457 95.2642C175.994 95.2642 176.478 95.3636 176.909 95.5625C177.34 95.7614 177.693 96.0398 177.968 96.3977C178.243 96.7557 178.413 97.1733 178.48 97.6506H177.306C177.217 97.3026 177.018 96.9943 176.71 96.7259C176.405 96.4541 175.994 96.3182 175.477 96.3182C175.02 96.3182 174.618 96.4375 174.274 96.6761C173.932 96.9115 173.666 97.2446 173.473 97.6754C173.284 98.103 173.19 98.6051 173.19 99.1818C173.19 99.7718 173.283 100.286 173.468 100.723C173.657 101.161 173.922 101.5 174.264 101.742C174.609 101.984 175.013 102.105 175.477 102.105C175.782 102.105 176.059 102.052 176.307 101.946C176.556 101.84 176.766 101.688 176.939 101.489C177.111 101.29 177.234 101.051 177.306 100.773H178.48C178.413 101.223 178.249 101.629 177.988 101.991C177.729 102.349 177.386 102.634 176.958 102.846C176.534 103.055 176.04 103.159 175.477 103.159ZM182.442 103.179C181.958 103.179 181.519 103.088 181.125 102.906C180.73 102.72 180.417 102.453 180.185 102.105C179.953 101.754 179.837 101.33 179.837 100.832C179.837 100.395 179.923 100.04 180.096 99.7685C180.268 99.4934 180.498 99.2779 180.787 99.1222C181.075 98.9664 181.393 98.8504 181.741 98.7741C182.092 98.6946 182.445 98.6316 182.8 98.5852C183.264 98.5256 183.64 98.4808 183.929 98.451C184.22 98.4179 184.432 98.3632 184.565 98.2869C184.701 98.2107 184.769 98.0781 184.769 97.8892V97.8494C184.769 97.3589 184.635 96.9777 184.366 96.706C184.101 96.4342 183.698 96.2983 183.158 96.2983C182.598 96.2983 182.159 96.4209 181.841 96.6662C181.522 96.9115 181.299 97.1733 181.169 97.4517L180.056 97.054C180.255 96.59 180.52 96.2287 180.851 95.9702C181.186 95.7083 181.551 95.526 181.945 95.4233C182.343 95.3172 182.734 95.2642 183.118 95.2642C183.364 95.2642 183.645 95.294 183.963 95.3537C184.285 95.41 184.595 95.5277 184.893 95.7067C185.195 95.8857 185.445 96.1558 185.644 96.517C185.843 96.8783 185.942 97.3622 185.942 97.9688V103H184.769V101.966H184.709C184.63 102.132 184.497 102.309 184.311 102.498C184.126 102.687 183.879 102.848 183.571 102.98C183.262 103.113 182.886 103.179 182.442 103.179ZM182.621 102.125C183.085 102.125 183.476 102.034 183.794 101.852C184.116 101.669 184.358 101.434 184.52 101.146C184.686 100.857 184.769 100.554 184.769 100.236V99.1619C184.719 99.2216 184.61 99.2763 184.441 99.326C184.275 99.3724 184.083 99.4138 183.864 99.4503C183.649 99.4834 183.438 99.5133 183.233 99.5398C183.03 99.563 182.866 99.5829 182.74 99.5994C182.435 99.6392 182.15 99.7038 181.885 99.7933C181.623 99.8795 181.411 100.01 181.249 100.186C181.09 100.358 181.01 100.594 181.01 100.892C181.01 101.3 181.161 101.608 181.463 101.817C181.768 102.022 182.154 102.125 182.621 102.125ZM189.257 98.4062V103H188.084V95.3636H189.217V96.5568H189.317C189.496 96.169 189.767 95.8575 190.132 95.6222C190.497 95.3835 190.967 95.2642 191.544 95.2642C192.061 95.2642 192.513 95.3703 192.901 95.5824C193.289 95.7912 193.59 96.1094 193.806 96.5369C194.021 96.9612 194.129 97.4981 194.129 98.1477V103H192.956V98.2273C192.956 97.6274 192.8 97.16 192.488 96.8253C192.177 96.4872 191.749 96.3182 191.206 96.3182C190.831 96.3182 190.497 96.3994 190.202 96.5618C189.91 96.7242 189.68 96.9612 189.51 97.2727C189.341 97.5843 189.257 97.9621 189.257 98.4062ZM197.446 98.4062V103H196.273V95.3636H197.407V96.5568H197.506C197.685 96.169 197.957 95.8575 198.321 95.6222C198.686 95.3835 199.157 95.2642 199.733 95.2642C200.25 95.2642 200.703 95.3703 201.091 95.5824C201.478 95.7912 201.78 96.1094 201.995 96.5369C202.211 96.9612 202.319 97.4981 202.319 98.1477V103H201.145V98.2273C201.145 97.6274 200.989 97.16 200.678 96.8253C200.366 96.4872 199.939 96.3182 199.395 96.3182C199.021 96.3182 198.686 96.3994 198.391 96.5618C198.099 96.7242 197.869 96.9612 197.7 97.2727C197.531 97.5843 197.446 97.9621 197.446 98.4062ZM207.565 103.159C206.875 103.159 206.271 102.995 205.75 102.667C205.233 102.339 204.829 101.88 204.537 101.29C204.249 100.7 204.105 100.01 204.105 99.2216C204.105 98.4261 204.249 97.7318 204.537 97.1385C204.829 96.5452 205.233 96.0845 205.75 95.7564C206.271 95.4283 206.875 95.2642 207.565 95.2642C208.254 95.2642 208.857 95.4283 209.374 95.7564C209.895 96.0845 210.299 96.5452 210.588 97.1385C210.879 97.7318 211.025 98.4261 211.025 99.2216C211.025 100.01 210.879 100.7 210.588 101.29C210.299 101.88 209.895 102.339 209.374 102.667C208.857 102.995 208.254 103.159 207.565 103.159ZM207.565 102.105C208.088 102.105 208.519 101.971 208.857 101.702C209.195 101.434 209.446 101.081 209.608 100.643C209.771 100.206 209.852 99.732 209.852 99.2216C209.852 98.7112 209.771 98.2356 209.608 97.7947C209.446 97.3539 209.195 96.9976 208.857 96.7259C208.519 96.4541 208.088 96.3182 207.565 96.3182C207.041 96.3182 206.61 96.4541 206.272 96.7259C205.934 96.9976 205.684 97.3539 205.521 97.7947C205.359 98.2356 205.278 98.7112 205.278 99.2216C205.278 99.732 205.359 100.206 205.521 100.643C205.684 101.081 205.934 101.434 206.272 101.702C206.61 101.971 207.041 102.105 207.565 102.105ZM216.137 95.3636V96.358H212.18V95.3636H216.137ZM213.333 93.5341H214.506V100.812C214.506 101.144 214.554 101.393 214.651 101.558C214.75 101.721 214.876 101.83 215.028 101.886C215.184 101.939 215.348 101.966 215.521 101.966C215.65 101.966 215.756 101.959 215.839 101.946C215.922 101.929 215.988 101.916 216.038 101.906L216.276 102.96C216.197 102.99 216.086 103.02 215.943 103.05C215.801 103.083 215.62 103.099 215.401 103.099C215.07 103.099 214.745 103.028 214.427 102.886C214.112 102.743 213.85 102.526 213.641 102.234C213.436 101.943 213.333 101.575 213.333 101.131V93.5341ZM221.999 103V92.8182H223.172V96.5767H223.271C223.357 96.4441 223.477 96.2751 223.629 96.0696C223.785 95.8608 224.007 95.6752 224.295 95.5128C224.587 95.3471 224.982 95.2642 225.479 95.2642C226.122 95.2642 226.688 95.425 227.179 95.7464C227.67 96.0679 228.052 96.5237 228.327 97.1136C228.603 97.7036 228.74 98.3996 228.74 99.2017C228.74 100.01 228.603 100.711 228.327 101.305C228.052 101.895 227.671 102.352 227.184 102.677C226.697 102.998 226.135 103.159 225.499 103.159C225.008 103.159 224.615 103.078 224.32 102.915C224.025 102.75 223.798 102.562 223.639 102.354C223.48 102.142 223.357 101.966 223.271 101.827H223.132V103H221.999ZM223.152 99.1818C223.152 99.7585 223.237 100.267 223.406 100.708C223.575 101.146 223.821 101.489 224.146 101.737C224.471 101.982 224.869 102.105 225.339 102.105C225.83 102.105 226.239 101.976 226.567 101.717C226.899 101.455 227.147 101.104 227.313 100.663C227.482 100.219 227.567 99.7254 227.567 99.1818C227.567 98.6449 227.484 98.161 227.318 97.7301C227.156 97.2959 226.909 96.9529 226.577 96.701C226.249 96.4458 225.837 96.3182 225.339 96.3182C224.862 96.3182 224.461 96.4392 224.136 96.6811C223.812 96.9197 223.566 97.2545 223.401 97.6854C223.235 98.1129 223.152 98.6117 223.152 99.1818ZM233.737 103.159C233.001 103.159 232.366 102.997 231.832 102.672C231.302 102.344 230.893 101.886 230.604 101.3C230.319 100.71 230.177 100.024 230.177 99.2415C230.177 98.4593 230.319 97.7699 230.604 97.1733C230.893 96.5734 231.294 96.1061 231.808 95.7713C232.325 95.4332 232.928 95.2642 233.617 95.2642C234.015 95.2642 234.408 95.3305 234.795 95.4631C235.183 95.5956 235.536 95.8111 235.854 96.1094C236.173 96.4044 236.426 96.7955 236.615 97.2827C236.804 97.7699 236.898 98.3698 236.898 99.0824V99.5795H231.012V98.5653H235.705C235.705 98.1345 235.619 97.75 235.447 97.4119C235.278 97.0739 235.036 96.8071 234.721 96.6115C234.409 96.416 234.041 96.3182 233.617 96.3182C233.15 96.3182 232.746 96.4342 232.404 96.6662C232.066 96.8949 231.806 97.1932 231.624 97.5611C231.441 97.929 231.35 98.3234 231.35 98.7443V99.4205C231.35 99.9972 231.45 100.486 231.648 100.887C231.851 101.285 232.131 101.588 232.489 101.797C232.847 102.002 233.263 102.105 233.737 102.105C234.045 102.105 234.323 102.062 234.572 101.976C234.824 101.886 235.041 101.754 235.223 101.578C235.405 101.399 235.546 101.177 235.646 100.912L236.779 101.23C236.66 101.615 236.459 101.953 236.178 102.244C235.896 102.533 235.548 102.758 235.134 102.92C234.719 103.08 234.254 103.159 233.737 103.159ZM247.433 99.8778V95.3636H248.607V103H247.433V101.707H247.354C247.175 102.095 246.896 102.425 246.518 102.697C246.141 102.965 245.663 103.099 245.087 103.099C244.609 103.099 244.185 102.995 243.814 102.786C243.443 102.574 243.151 102.256 242.939 101.832C242.727 101.404 242.621 100.866 242.621 100.216V95.3636H243.794V100.136C243.794 100.693 243.95 101.137 244.261 101.469C244.576 101.8 244.977 101.966 245.464 101.966C245.756 101.966 246.053 101.891 246.354 101.742C246.659 101.593 246.915 101.364 247.12 101.056C247.329 100.748 247.433 100.355 247.433 99.8778ZM251.929 98.4062V103H250.756V95.3636H251.889V96.5568H251.988C252.167 96.169 252.439 95.8575 252.804 95.6222C253.168 95.3835 253.639 95.2642 254.216 95.2642C254.733 95.2642 255.185 95.3703 255.573 95.5824C255.961 95.7912 256.262 96.1094 256.478 96.5369C256.693 96.9612 256.801 97.4981 256.801 98.1477V103H255.628V98.2273C255.628 97.6274 255.472 97.16 255.16 96.8253C254.849 96.4872 254.421 96.3182 253.878 96.3182C253.503 96.3182 253.168 96.3994 252.873 96.5618C252.582 96.7242 252.351 96.9612 252.182 97.2727C252.013 97.5843 251.929 97.9621 251.929 98.4062ZM261.828 103.159C261.192 103.159 260.63 102.998 260.143 102.677C259.656 102.352 259.275 101.895 259 101.305C258.725 100.711 258.587 100.01 258.587 99.2017C258.587 98.3996 258.725 97.7036 259 97.1136C259.275 96.5237 259.658 96.0679 260.148 95.7464C260.639 95.425 261.205 95.2642 261.848 95.2642C262.346 95.2642 262.738 95.3471 263.027 95.5128C263.318 95.6752 263.54 95.8608 263.693 96.0696C263.849 96.2751 263.97 96.4441 264.056 96.5767H264.155V92.8182H265.328V103H264.195V101.827H264.056C263.97 101.966 263.847 102.142 263.688 102.354C263.529 102.562 263.302 102.75 263.007 102.915C262.712 103.078 262.319 103.159 261.828 103.159ZM261.988 102.105C262.458 102.105 262.856 101.982 263.181 101.737C263.506 101.489 263.752 101.146 263.922 100.708C264.091 100.267 264.175 99.7585 264.175 99.1818C264.175 98.6117 264.092 98.1129 263.926 97.6854C263.761 97.2545 263.516 96.9197 263.191 96.6811C262.866 96.4392 262.465 96.3182 261.988 96.3182C261.49 96.3182 261.076 96.4458 260.745 96.701C260.417 96.9529 260.17 97.2959 260.004 97.7301C259.842 98.161 259.76 98.6449 259.76 99.1818C259.76 99.7254 259.843 100.219 260.009 100.663C260.178 101.104 260.426 101.455 260.755 101.717C261.086 101.976 261.497 102.105 261.988 102.105ZM270.743 103.159C270.053 103.159 269.448 102.995 268.928 102.667C268.411 102.339 268.007 101.88 267.715 101.29C267.426 100.7 267.282 100.01 267.282 99.2216C267.282 98.4261 267.426 97.7318 267.715 97.1385C268.007 96.5452 268.411 96.0845 268.928 95.7564C269.448 95.4283 270.053 95.2642 270.743 95.2642C271.432 95.2642 272.035 95.4283 272.552 95.7564C273.073 96.0845 273.477 96.5452 273.765 97.1385C274.057 97.7318 274.203 98.4261 274.203 99.2216C274.203 100.01 274.057 100.7 273.765 101.29C273.477 101.88 273.073 102.339 272.552 102.667C272.035 102.995 271.432 103.159 270.743 103.159ZM270.743 102.105C271.266 102.105 271.697 101.971 272.035 101.702C272.373 101.434 272.623 101.081 272.786 100.643C272.948 100.206 273.029 99.732 273.029 99.2216C273.029 98.7112 272.948 98.2356 272.786 97.7947C272.623 97.3539 272.373 96.9976 272.035 96.7259C271.697 96.4541 271.266 96.3182 270.743 96.3182C270.219 96.3182 269.788 96.4541 269.45 96.7259C269.112 96.9976 268.862 97.3539 268.699 97.7947C268.537 98.2356 268.456 98.7112 268.456 99.2216C268.456 99.732 268.537 100.206 268.699 100.643C268.862 101.081 269.112 101.434 269.45 101.702C269.788 101.971 270.219 102.105 270.743 102.105ZM277.167 98.4062V103H275.994V95.3636H277.127V96.5568H277.227C277.406 96.169 277.677 95.8575 278.042 95.6222C278.407 95.3835 278.877 95.2642 279.454 95.2642C279.971 95.2642 280.423 95.3703 280.811 95.5824C281.199 95.7912 281.501 96.1094 281.716 96.5369C281.932 96.9612 282.039 97.4981 282.039 98.1477V103H280.866V98.2273C280.866 97.6274 280.71 97.16 280.399 96.8253C280.087 96.4872 279.66 96.3182 279.116 96.3182C278.741 96.3182 278.407 96.3994 278.112 96.5618C277.82 96.7242 277.59 96.9612 277.421 97.2727C277.252 97.5843 277.167 97.9621 277.167 98.4062ZM287.385 103.159C286.649 103.159 286.014 102.997 285.481 102.672C284.951 102.344 284.541 101.886 284.253 101.3C283.968 100.71 283.825 100.024 283.825 99.2415C283.825 98.4593 283.968 97.7699 284.253 97.1733C284.541 96.5734 284.942 96.1061 285.456 95.7713C285.973 95.4332 286.576 95.2642 287.266 95.2642C287.663 95.2642 288.056 95.3305 288.444 95.4631C288.832 95.5956 289.185 95.8111 289.503 96.1094C289.821 96.4044 290.075 96.7955 290.263 97.2827C290.452 97.7699 290.547 98.3698 290.547 99.0824V99.5795H284.661V98.5653H289.354C289.354 98.1345 289.268 97.75 289.095 97.4119C288.926 97.0739 288.684 96.8071 288.369 96.6115C288.058 96.416 287.69 96.3182 287.266 96.3182C286.798 96.3182 286.394 96.4342 286.053 96.6662C285.714 96.8949 285.454 97.1932 285.272 97.5611C285.09 97.929 284.999 98.3234 284.999 98.7443V99.4205C284.999 99.9972 285.098 100.486 285.297 100.887C285.499 101.285 285.779 101.588 286.137 101.797C286.495 102.002 286.911 102.105 287.385 102.105C287.693 102.105 287.972 102.062 288.22 101.976C288.472 101.886 288.689 101.754 288.871 101.578C289.054 101.399 289.195 101.177 289.294 100.912L290.428 101.23C290.308 101.615 290.108 101.953 289.826 102.244C289.544 102.533 289.196 102.758 288.782 102.92C288.368 103.08 287.902 103.159 287.385 103.159ZM293.187 103.08C292.942 103.08 292.731 102.992 292.555 102.816C292.38 102.64 292.292 102.43 292.292 102.185C292.292 101.939 292.38 101.729 292.555 101.553C292.731 101.378 292.942 101.29 293.187 101.29C293.432 101.29 293.643 101.378 293.818 101.553C293.994 101.729 294.082 101.939 294.082 102.185C294.082 102.347 294.04 102.496 293.957 102.632C293.878 102.768 293.77 102.877 293.634 102.96C293.502 103.04 293.353 103.08 293.187 103.08Z" fill="#D9DDE3"/>
<rect width="317" height="36" transform="translate(24 156)" fill="#262B31"/>
<rect x="248" y="156" width="93" height="36" rx="4" fill="#5854F7"/>
<path d="M274.698 179H272.391L275.906 168.818H278.68L282.19 179H279.883L277.332 171.145H277.253L274.698 179ZM274.553 174.998H280.002V176.678H274.553V174.998ZM286.47 179.149C285.688 179.149 285.015 178.983 284.452 178.652C283.892 178.317 283.461 177.853 283.159 177.26C282.861 176.667 282.712 175.984 282.712 175.212C282.712 174.429 282.863 173.743 283.164 173.153C283.469 172.56 283.902 172.098 284.462 171.766C285.022 171.432 285.688 171.264 286.46 171.264C287.127 171.264 287.71 171.385 288.21 171.627C288.711 171.869 289.107 172.209 289.399 172.646C289.69 173.084 289.851 173.598 289.881 174.188H287.882C287.826 173.806 287.677 173.5 287.435 173.268C287.196 173.032 286.883 172.915 286.495 172.915C286.167 172.915 285.88 173.004 285.635 173.183C285.393 173.359 285.204 173.616 285.068 173.954C284.932 174.292 284.864 174.701 284.864 175.182C284.864 175.669 284.931 176.083 285.063 176.425C285.199 176.766 285.39 177.026 285.635 177.205C285.88 177.384 286.167 177.474 286.495 177.474C286.737 177.474 286.954 177.424 287.146 177.325C287.342 177.225 287.503 177.081 287.629 176.892C287.758 176.7 287.842 176.469 287.882 176.201H289.881C289.848 176.784 289.689 177.298 289.403 177.742C289.122 178.183 288.732 178.528 288.235 178.776C287.738 179.025 287.15 179.149 286.47 179.149ZM295.299 171.364V172.955H290.7V171.364H295.299ZM291.744 169.534H293.862V176.653C293.862 176.849 293.892 177.001 293.951 177.111C294.011 177.217 294.094 177.291 294.2 177.335C294.309 177.378 294.435 177.399 294.578 177.399C294.677 177.399 294.777 177.391 294.876 177.374C294.975 177.354 295.052 177.339 295.105 177.33L295.438 178.906C295.332 178.939 295.183 178.977 294.99 179.02C294.798 179.066 294.564 179.094 294.289 179.104C293.779 179.124 293.331 179.056 292.947 178.901C292.566 178.745 292.269 178.503 292.057 178.175C291.845 177.847 291.741 177.432 291.744 176.932V169.534ZM296.678 179V171.364H298.796V179H296.678ZM297.742 170.379C297.427 170.379 297.157 170.275 296.932 170.066C296.71 169.854 296.599 169.6 296.599 169.305C296.599 169.014 296.71 168.763 296.932 168.555C297.157 168.343 297.427 168.237 297.742 168.237C298.057 168.237 298.325 168.343 298.547 168.555C298.773 168.763 298.886 169.014 298.886 169.305C298.886 169.6 298.773 169.854 298.547 170.066C298.325 170.275 298.057 170.379 297.742 170.379ZM303.943 179.149C303.171 179.149 302.503 178.985 301.939 178.657C301.379 178.326 300.947 177.865 300.642 177.275C300.337 176.682 300.184 175.994 300.184 175.212C300.184 174.423 300.337 173.733 300.642 173.143C300.947 172.55 301.379 172.089 301.939 171.761C302.503 171.43 303.171 171.264 303.943 171.264C304.715 171.264 305.381 171.43 305.941 171.761C306.505 172.089 306.939 172.55 307.244 173.143C307.549 173.733 307.701 174.423 307.701 175.212C307.701 175.994 307.549 176.682 307.244 177.275C306.939 177.865 306.505 178.326 305.941 178.657C305.381 178.985 304.715 179.149 303.943 179.149ZM303.953 177.509C304.304 177.509 304.598 177.409 304.833 177.21C305.068 177.008 305.245 176.733 305.365 176.385C305.487 176.037 305.549 175.641 305.549 175.197C305.549 174.753 305.487 174.357 305.365 174.009C305.245 173.661 305.068 173.385 304.833 173.183C304.598 172.981 304.304 172.88 303.953 172.88C303.598 172.88 303.3 172.981 303.058 173.183C302.819 173.385 302.639 173.661 302.516 174.009C302.397 174.357 302.337 174.753 302.337 175.197C302.337 175.641 302.397 176.037 302.516 176.385C302.639 176.733 302.819 177.008 303.058 177.21C303.3 177.409 303.598 177.509 303.953 177.509ZM311.196 174.585V179H309.079V171.364H311.097V172.711H311.187C311.356 172.267 311.639 171.915 312.037 171.657C312.434 171.395 312.917 171.264 313.483 171.264C314.014 171.264 314.476 171.38 314.87 171.612C315.265 171.844 315.571 172.176 315.79 172.607C316.009 173.034 316.118 173.545 316.118 174.138V179H314V174.516C314.004 174.048 313.884 173.684 313.642 173.422C313.401 173.157 313.067 173.024 312.643 173.024C312.358 173.024 312.106 173.085 311.888 173.208C311.672 173.331 311.503 173.51 311.38 173.745C311.261 173.977 311.2 174.257 311.196 174.585Z" fill="white"/>
<rect x="24" y="156" width="79" height="36" rx="4" fill="#373F49"/>
<path d="M49.9356 172.129H48.3845C48.3248 171.798 48.2138 171.506 48.0514 171.254C47.889 171.002 47.6901 170.789 47.4548 170.613C47.2195 170.437 46.956 170.305 46.6643 170.215C46.376 170.126 46.0694 170.081 45.7446 170.081C45.1579 170.081 44.6326 170.228 44.1686 170.523C43.7079 170.818 43.3433 171.251 43.0748 171.821C42.8097 172.391 42.6771 173.087 42.6771 173.909C42.6771 174.738 42.8097 175.437 43.0748 176.007C43.3433 176.577 43.7095 177.008 44.1736 177.3C44.6376 177.591 45.1596 177.737 45.7396 177.737C46.0611 177.737 46.366 177.694 46.6544 177.608C46.9461 177.518 47.2095 177.388 47.4449 177.215C47.6802 177.043 47.8791 176.832 48.0415 176.584C48.2072 176.332 48.3215 176.044 48.3845 175.719L49.9356 175.724C49.8528 176.224 49.692 176.685 49.4534 177.106C49.2181 177.523 48.9148 177.885 48.5436 178.19C48.1757 178.491 47.7548 178.725 47.2808 178.891C46.8068 179.056 46.2898 179.139 45.7297 179.139C44.848 179.139 44.0625 178.93 43.3731 178.513C42.6837 178.092 42.1402 177.49 41.7425 176.708C41.348 175.926 41.1508 174.993 41.1508 173.909C41.1508 172.822 41.3497 171.889 41.7474 171.11C42.1452 170.328 42.6887 169.728 43.3781 169.31C44.0675 168.889 44.8514 168.679 45.7297 168.679C46.2699 168.679 46.7737 168.757 47.241 168.913C47.7117 169.065 48.1343 169.29 48.5088 169.589C48.8833 169.884 49.1932 170.245 49.4385 170.673C49.6837 171.097 49.8495 171.582 49.9356 172.129ZM53.8769 179.169C53.393 179.169 52.9555 179.08 52.5644 178.901C52.1733 178.718 51.8634 178.455 51.6347 178.11C51.4093 177.765 51.2966 177.343 51.2966 176.842C51.2966 176.411 51.3795 176.057 51.5452 175.778C51.7109 175.5 51.9346 175.28 52.2164 175.117C52.4981 174.955 52.8129 174.832 53.161 174.749C53.509 174.666 53.8636 174.603 54.2249 174.56C54.6823 174.507 55.0535 174.464 55.3385 174.431C55.6236 174.395 55.8307 174.337 55.96 174.257C56.0892 174.178 56.1539 174.048 56.1539 173.869V173.835C56.1539 173.4 56.0312 173.064 55.786 172.825C55.544 172.587 55.1827 172.467 54.7021 172.467C54.2017 172.467 53.8073 172.578 53.5189 172.8C53.2339 173.019 53.0367 173.263 52.9273 173.531L51.5303 173.213C51.696 172.749 51.9379 172.375 52.2561 172.089C52.5776 171.801 52.9472 171.592 53.3648 171.463C53.7824 171.33 54.2216 171.264 54.6823 171.264C54.9872 171.264 55.3103 171.301 55.6517 171.374C55.9964 171.443 56.3179 171.572 56.6162 171.761C56.9178 171.95 57.1647 172.22 57.357 172.572C57.5492 172.92 57.6453 173.372 57.6453 173.929V179H56.1936V177.956H56.134C56.0378 178.148 55.8937 178.337 55.7014 178.523C55.5092 178.708 55.2623 178.862 54.9607 178.985C54.6591 179.108 54.2978 179.169 53.8769 179.169ZM54.2 177.976C54.611 177.976 54.9623 177.895 55.254 177.732C55.549 177.57 55.7727 177.358 55.9252 177.096C56.0809 176.831 56.1588 176.547 56.1588 176.246V175.261C56.1058 175.314 56.003 175.364 55.8506 175.411C55.7014 175.454 55.5307 175.492 55.3385 175.525C55.1463 175.555 54.959 175.583 54.7767 175.609C54.5944 175.633 54.442 175.652 54.3193 175.669C54.031 175.705 53.7675 175.767 53.5289 175.853C53.2935 175.939 53.1046 176.063 52.9621 176.226C52.8229 176.385 52.7533 176.597 52.7533 176.862C52.7533 177.23 52.8892 177.509 53.161 177.697C53.4327 177.883 53.7791 177.976 54.2 177.976ZM61.1118 174.466V179H59.6253V171.364H61.0521V172.607H61.1466C61.3222 172.202 61.5973 171.877 61.9719 171.632C62.3497 171.387 62.8253 171.264 63.3987 171.264C63.9191 171.264 64.3748 171.374 64.7659 171.592C65.157 171.808 65.4603 172.129 65.6757 172.557C65.8911 172.984 65.9988 173.513 65.9988 174.143V179H64.5123V174.322C64.5123 173.768 64.3682 173.336 64.0798 173.024C63.7915 172.709 63.3954 172.552 62.8916 172.552C62.5469 172.552 62.2403 172.626 61.9719 172.776C61.7067 172.925 61.4962 173.143 61.3405 173.432C61.188 173.717 61.1118 174.062 61.1118 174.466ZM71.2091 179.154C70.47 179.154 69.8336 178.987 69.3 178.652C68.7697 178.314 68.362 177.848 68.077 177.255C67.7919 176.662 67.6494 175.982 67.6494 175.217C67.6494 174.441 67.7952 173.757 68.0869 173.163C68.3786 172.567 68.7896 172.101 69.3199 171.766C69.8502 171.432 70.4749 171.264 71.1942 171.264C71.7742 171.264 72.2912 171.372 72.7453 171.587C73.1994 171.799 73.5656 172.098 73.844 172.482C74.1257 172.867 74.2931 173.316 74.3461 173.83H72.8994C72.8199 173.472 72.6376 173.163 72.3525 172.905C72.0708 172.646 71.693 172.517 71.219 172.517C70.8047 172.517 70.4418 172.626 70.1302 172.845C69.822 173.061 69.5817 173.369 69.4094 173.77C69.237 174.168 69.1508 174.638 69.1508 175.182C69.1508 175.739 69.2354 176.219 69.4044 176.624C69.5734 177.028 69.8121 177.341 70.1203 177.563C70.4318 177.785 70.7981 177.896 71.219 177.896C71.5007 177.896 71.7559 177.845 71.9846 177.742C72.2166 177.636 72.4105 177.485 72.5663 177.29C72.7254 177.094 72.8364 176.859 72.8994 176.584H74.3461C74.2931 177.078 74.1324 177.518 73.8639 177.906C73.5954 178.294 73.2358 178.599 72.7851 178.821C72.3376 179.043 71.8123 179.154 71.2091 179.154ZM79.227 179.154C78.4746 179.154 77.8267 178.993 77.2831 178.672C76.7429 178.347 76.3253 177.891 76.0303 177.305C75.7386 176.715 75.5928 176.024 75.5928 175.232C75.5928 174.449 75.7386 173.76 76.0303 173.163C76.3253 172.567 76.7362 172.101 77.2632 171.766C77.7935 171.432 78.4133 171.264 79.1226 171.264C79.5535 171.264 79.9711 171.335 80.3754 171.478C80.7798 171.621 81.1427 171.844 81.4642 172.149C81.7857 172.454 82.0393 172.85 82.2249 173.337C82.4105 173.821 82.5033 174.41 82.5033 175.102V175.629H76.433V174.516H81.0466C81.0466 174.125 80.9671 173.778 80.808 173.477C80.6489 173.172 80.4252 172.931 80.1368 172.756C79.8518 172.58 79.517 172.492 79.1325 172.492C78.7149 172.492 78.3503 172.595 78.0388 172.8C77.7306 173.003 77.4919 173.268 77.3229 173.596C77.1572 173.921 77.0743 174.274 77.0743 174.655V175.525C77.0743 176.035 77.1638 176.469 77.3428 176.827C77.5251 177.185 77.7786 177.459 78.1034 177.648C78.4282 177.833 78.8077 177.926 79.2419 177.926C79.5236 177.926 79.7805 177.886 80.0125 177.807C80.2445 177.724 80.445 177.601 80.6141 177.439C80.7831 177.277 80.9124 177.076 81.0019 176.837L82.4088 177.091C82.2961 177.505 82.094 177.868 81.8023 178.18C81.5139 178.488 81.151 178.728 80.7135 178.901C80.2793 179.07 79.7838 179.154 79.227 179.154ZM85.6391 168.818V179H84.1526V168.818H85.6391Z" fill="#D9DDE3"/>
<rect x="0.5" y="0.5" width="364" height="219" rx="3.5" stroke="#373F49"/>
</svg>
