<svg width="456" height="351" viewBox="0 0 456 351" fill="none" xmlns="http://www.w3.org/2000/svg">
<path d="M455.994 332.074C455.994 335.769 455.412 339.704 453.193 342.779C448.794 348.894 439.782 349.605 432.001 349.716C246.757 352.431 57.2104 354.537 -118.218 297.724C-142.326 289.919 -166.668 280.913 -192.162 280.996C-209.168 281.042 -228.781 284.377 -241 273.108C-200.971 241.955 -151.99 223.073 -100.495 218.945C-48.7984 214.909 4.46764 225.873 54.4681 212.729C91.2902 203.049 124.731 180.595 162.89 178.868C165.151 178.769 167.412 178.739 169.673 178.776C170.438 178.776 171.214 178.776 171.979 178.84C190.855 179.542 209.412 184.761 227.609 189.924L393.493 237.077C396.003 237.788 398.59 238.416 401.245 239.007C419.578 243.117 439.395 245.473 443.406 264.13C445.8 275.279 449.366 287.961 452.127 300.587C454.366 311.467 456.12 322.302 455.994 332.074Z" fill="url(#paint0_linear_4696_253452)"/>
<path d="M401.555 238.916C375.805 235.688 350.084 230.463 325.064 223.835C317.56 221.845 310.658 221.928 302.999 220.592C295.727 219.32 288.321 220.204 280.943 219.9C229.56 217.808 178.255 224.923 126.902 228.646C111.826 229.742 96.7508 230.544 81.6656 230.738C81.2656 230.739 80.8767 230.613 80.5608 230.38C80.2448 230.146 80.02 229.819 79.9219 229.451C79.8239 229.082 79.8582 228.693 80.0196 228.345C80.1809 227.997 80.46 227.711 80.8124 227.531C100.202 217.781 125.99 222.14 145.855 212.224C148.104 211.109 150.547 208.538 148.987 206.695C148.143 205.916 147.021 205.468 145.845 205.441L126.116 202.741C125.911 202.705 125.725 202.602 125.592 202.45C125.458 202.298 125.385 202.106 125.385 201.907C125.385 201.709 125.458 201.517 125.592 201.364C125.725 201.212 125.911 201.109 126.116 201.073L171.023 192.835C171.428 192.775 171.804 192.595 172.095 192.32C172.385 192.044 172.577 191.689 172.642 191.304C172.706 190.918 172.641 190.524 172.454 190.176C172.268 189.828 171.971 189.546 171.605 189.37L165.439 186.126C165.173 185.988 164.95 185.788 164.791 185.544C164.631 185.3 164.541 185.02 164.53 184.733C164.518 184.446 164.585 184.161 164.724 183.906C164.863 183.651 165.069 183.435 165.322 183.278L166.292 182.651C168.056 181.5 170.17 180.007 171.983 178.634C190.868 179.334 209.434 184.541 227.641 189.692L393.607 236.737C396.108 237.419 398.938 238.326 401.555 238.916Z" fill="url(#paint1_linear_4696_253452)"/>
<path d="M52.2478 128.743C59.0355 128.008 65.8537 127.473 72.5988 126.461C77.111 125.782 81.5176 124.4 85.9787 123.371C94.7519 121.35 102.923 117.677 111.155 114.208C116.726 111.862 122.157 109.247 127.62 106.691C128.825 106.104 129.961 105.387 131.01 104.553C133.587 102.592 136.518 101.142 139.642 100.28C144.243 98.9251 148.685 97.037 153.181 95.3368C162.383 91.8547 171.525 88.2289 180.787 84.8838C187.331 82.5381 193.177 78.5869 197.786 73.3952C206.459 63.7858 213.948 53.4177 219.472 41.6823C222.374 35.521 225.555 29.5018 228.494 23.3413C230.93 18.2505 233.892 13.5604 238.144 9.77979C239.404 8.67685 240.745 7.66919 242.155 6.76522C244.415 5.30264 246.739 3.99023 249.005 2.55752C249.995 1.91301 251.11 1.48497 252.278 1.30162C253.446 1.11828 254.64 1.1838 255.78 1.49386C258.94 2.33591 261.802 4.03702 264.048 6.40723C264.75 7.11448 265.244 7.9998 265.478 8.96733C265.697 10.1016 264.786 10.7322 263.725 11.0807C263.629 11.1108 263.599 11.7615 263.735 12.0243C264.537 13.5891 264.445 14.2542 263.154 14.9478C262.669 15.2096 262.107 15.5137 261.587 15.5058C257.943 15.42 255.031 17.5962 251.765 18.6607C250.845 18.9592 250.052 19.6791 249.242 20.2591C248.152 21.043 247.173 22.0009 246.035 22.6705C242.677 24.6354 240.642 27.6049 239.195 31.0886C235.905 38.9138 233.032 46.9066 230.588 55.0337C229.01 60.2684 227.353 65.4804 225.619 70.6698C223.135 78.1534 218.992 84.8099 215.022 91.5622C213.463 94.1427 212.194 96.8864 211.237 99.7435C210.149 103.105 210.182 106.537 210.032 109.949C209.932 112.174 210.386 114.509 209.856 116.612C208.903 120.374 208.174 124.195 207.369 127.994C207.282 128.433 207.136 128.858 206.934 129.257C205.261 132.451 205.178 135.911 205.305 139.374C205.453 143.397 205.691 147.413 206.02 151.424C206.186 152.972 206.495 154.501 206.944 155.991C208.567 161.902 210.26 167.798 211.896 173.708C212.145 174.565 212.287 175.449 212.32 176.341C212.366 178.395 212.78 180.245 214.013 182.002C215.246 183.759 214.61 185.15 212.442 185.645C211.56 185.823 210.662 185.907 209.762 185.897C206.8 185.929 206.082 185.195 205.705 182.304C205.15 178.05 203.459 174.144 201.603 170.332C199.594 166.226 197.305 162.253 195.369 158.114C194.539 156.333 194.303 154.275 193.783 152.352C193.666 151.98 193.528 151.615 193.371 151.258C193.154 151.629 192.813 151.968 192.736 152.373C192.374 154.216 191.834 156.072 191.813 157.928C191.729 165.166 191.883 172.415 190.761 179.597C190.547 180.956 191.088 181.954 191.695 183.038C193.786 186.776 193.296 187.703 189.104 188.079C188.323 188.164 187.537 188.202 186.752 188.193C184.723 188.121 183.894 187.291 184.144 185.227C184.341 183.907 184.213 182.56 183.773 181.3C183.528 180.442 183.375 179.56 183.316 178.67C182.822 174.916 182.415 171.146 181.838 167.405C181.261 163.664 180.447 159.963 179.884 156.22C179.71 154.782 179.724 153.327 179.924 151.892C180.468 147.15 181.117 142.4 181.712 137.654C181.817 136.831 181.31 136.707 180.69 136.962C179.968 137.253 179.276 137.63 178.567 137.961C174.515 139.846 170.471 141.747 166.407 143.603C164.445 144.493 164.144 144.723 164.898 146.573C166.747 151.114 166.384 155.746 165.876 160.429C165.468 164.312 165.233 168.203 165.609 172.119C165.999 176.179 168.702 177.876 172.208 177.578C174.025 177.423 175.785 177.413 177.491 178.095C178.586 178.534 178.762 179.423 177.801 180.117C175.813 181.561 173.796 182.98 171.677 184.235C169.746 185.363 167.752 186.383 165.706 187.29C162.636 188.684 161.382 188.155 160.434 185.004C159.213 180.964 157.556 177.068 156.951 172.808C156.529 169.856 155.435 166.994 154.573 164.109C153.491 160.47 152.389 156.846 152.558 152.976C152.58 152.464 152.317 151.924 152.114 151.423C152.063 151.326 151.988 151.242 151.898 151.178C151.807 151.114 151.703 151.072 151.593 151.056C151.486 151.066 151.383 151.102 151.294 151.162C151.204 151.221 151.131 151.302 151.081 151.397C150.809 152.353 150.397 153.319 150.353 154.297C150.125 159.381 147.635 163.386 144.49 167.134C142.759 169.186 141.121 171.311 139.473 173.424C138.999 174.048 138.567 174.7 138.177 175.379C135.544 179.851 136.104 182.121 140.512 184.83C141.01 185.072 141.491 185.347 141.954 185.652C142.957 186.467 142.853 187.606 141.608 187.934C139.023 188.601 136.404 189.126 133.762 189.508C132.456 189.695 131.085 189.46 129.746 189.367C127.47 189.214 126.677 188.425 126.812 186.208C127.074 181.975 127.5 177.813 129.597 173.918C130.745 171.792 131.156 169.281 131.979 166.972C133.248 163.407 134.49 159.826 135.939 156.332C136.517 154.928 136.883 153.579 136.628 152.121C136.22 149.817 135.67 147.539 135.145 145.256C135.063 144.755 134.817 144.294 134.446 143.946C134.074 143.598 133.598 143.382 133.091 143.33C128.739 142.655 124.774 140.793 120.663 139.362C119.062 138.867 117.386 138.654 115.711 138.731C109.556 138.817 103.402 139.203 97.2494 139.219C92.1085 139.236 86.9721 138.877 81.832 138.709C71.5208 138.365 61.4017 136.348 51.1734 135.394C45.5026 134.863 39.8027 134.253 34.1013 134.947C29.7543 135.478 25.5283 136.494 21.7754 138.95C19.5926 140.336 17.828 142.286 16.67 144.594C16.3532 145.308 15.9823 145.997 15.5606 146.656C15.3699 146.924 14.8715 146.982 14.5144 147.134C14.4293 146.828 14.2034 146.484 14.2761 146.217C14.9845 143.392 16.3655 140.78 18.302 138.6C21.7491 134.784 26.2623 132.891 30.9977 131.437C34.8418 130.225 38.8205 129.489 42.8444 129.245C45.9754 129.077 49.1 128.815 52.2413 128.599L52.2478 128.743Z" fill="#2E1E45"/>
<defs>
<linearGradient id="paint0_linear_4696_253452" x1="215.56" y1="162.718" x2="201.376" y2="302.758" gradientUnits="userSpaceOnUse">
<stop stop-color="#221337"/>
<stop offset="1" stop-color="#4C305E"/>
</linearGradient>
<linearGradient id="paint1_linear_4696_253452" x1="124.498" y1="160.662" x2="323.702" y2="231.061" gradientUnits="userSpaceOnUse">
<stop stop-color="#9E65E1"/>
<stop offset="1" stop-color="#6C21C6"/>
</linearGradient>
</defs>
</svg>
