<svg width="88" height="88" viewBox="0 0 88 88" fill="none" xmlns="http://www.w3.org/2000/svg">
<rect width="88" height="88" rx="16" fill="#262B31"/>
<g opacity="0.3">
<path fill-rule="evenodd" clip-rule="evenodd" d="M46.617 31.5586C47.0948 31.0807 47.8695 31.0807 48.3473 31.5586L53.2414 36.4527C53.7193 36.9305 53.7193 37.7052 53.2414 38.183L39.7826 51.6418C39.5532 51.8713 39.242 52.0002 38.9175 52.0002H34.0233C33.3476 52.0002 32.7998 51.4524 32.7998 50.7767V45.8825C32.7998 45.558 32.9287 45.2468 33.1582 45.0174L46.617 31.5586ZM35.2469 46.3893V49.5531H38.4106L50.6459 37.3178L47.4822 34.1541L35.2469 46.3893Z" fill="#98A2AE"/>
<path fill-rule="evenodd" clip-rule="evenodd" d="M32.7998 56.5602C32.7998 55.8091 33.3371 55.2002 33.9998 55.2002H55.5998C56.2625 55.2002 56.7998 55.8091 56.7998 56.5602C56.7998 57.3113 56.2625 57.9202 55.5998 57.9202H33.9998C33.3371 57.9202 32.7998 57.3113 32.7998 56.5602Z" fill="#98A2AE"/>
</g>
</svg>
