<svg width="478" height="326" viewBox="0 0 478 326" fill="none" xmlns="http://www.w3.org/2000/svg">
<path d="M0 322.979H348.53L284.91 166.685L254.306 151.25L221.827 76.5882L200.404 49.477L181.517 0.046875L159.406 4.25423L121.607 107.845L100.508 126.367L54.876 233.057L21.1109 271.632L0 322.979Z" fill="#373F49"/>
<path d="M477.248 325.366H219.183L253.272 241.929L277.356 222.66L302.202 150.824L322.301 136.06L341.401 92.8418H360.264L402.186 181.333L423.509 195.113L477.248 325.366Z" fill="#373F49"/>
<path d="M219.183 325.366H331.108V253.667L356.616 203.478L344.462 150.824L360.264 92.8418H341.401L322.301 136.06L302.202 150.824L277.356 222.66L253.272 241.929L219.183 325.366Z" fill="#202328"/>
<path d="M378.773 209.104L381.359 193.955L388.304 185.266L391.564 190.432L387.217 197.179L389.179 211.593L378.773 209.104Z" fill="#263238"/>
</svg>
