<svg width="37" height="44" viewBox="0 0 37 44" fill="none" xmlns="http://www.w3.org/2000/svg">
<path opacity="0.2" d="M18.5 39.8856C28.7173 39.8856 37 31.632 37 21.4506C37 11.2693 28.7173 3.01562 18.5 3.01562C8.28272 3.01562 0 11.2693 0 21.4506C0 31.632 8.28272 39.8856 18.5 39.8856Z" fill="#FF9635"/>
<path opacity="0.2" d="M18.5006 39.7994C26.3438 39.7994 32.7019 33.4636 32.7019 25.648C32.7019 17.8324 26.3438 11.4966 18.5006 11.4966C10.6574 11.4966 4.29932 17.8324 4.29932 25.648C4.29932 33.4636 10.6574 39.7994 18.5006 39.7994Z" fill="#FF9635"/>
<path d="M19.7737 39.7656C19.7737 39.7656 8.49612 38.1181 7.81738 38.5517C7.13864 38.9853 6.51211 42.2629 7.81738 43.0607C9.12265 43.8584 19.5126 42.419 19.5126 42.419C19.8609 42.0771 20.0778 41.6243 20.1255 41.1395C20.1732 40.6546 20.0487 40.1684 19.7737 39.7656Z" fill="#FF9635"/>
<path opacity="0.49" d="M19.7737 39.7656C19.7737 39.7656 8.49612 38.1181 7.81738 38.5517C7.13864 38.9853 6.51211 42.2629 7.81738 43.0607C9.12265 43.8584 19.5126 42.419 19.5126 42.419C19.8609 42.0771 20.0778 41.6243 20.1255 41.1395C20.1732 40.6546 20.0487 40.1684 19.7737 39.7656Z" fill="#202328"/>
<path opacity="0.2" d="M7.86507 38.6709C8.19574 38.6709 8.75266 39.7288 8.63084 40.9775C8.50901 42.2261 8.05651 42.9719 7.86507 42.9372C7.67363 42.9025 7.04713 42.2261 7.15155 40.6826C7.22116 39.5727 7.56921 38.7403 7.86507 38.6709Z" fill="#5A697C"/>
<g opacity="0.2">
<path d="M9.05542 39.0184C9.70469 38.9835 10.3553 38.9835 11.0046 39.0184H11.9792L12.4665 39.1055C12.619 39.1569 12.7765 39.192 12.9364 39.2101C13.5644 39.3152 14.1977 39.3851 14.8334 39.4193L16.7826 39.5936C16.1333 39.6281 15.4827 39.6281 14.8334 39.5936C14.1752 39.5992 13.5176 39.5526 12.8668 39.4542C12.7077 39.4238 12.5507 39.3831 12.3969 39.3322L11.927 39.245L10.9872 39.1055L9.05542 39.0184Z" fill="#202328"/>
<path d="M10.3389 39.5923L11.6964 39.8189C12.1489 39.9061 12.6013 40.0107 13.0364 40.063C13.4885 40.0892 13.9418 40.0892 14.3939 40.063H15.7688C15.3226 40.1844 14.8692 40.2776 14.4113 40.3419C13.9429 40.3947 13.4701 40.3947 13.0016 40.3419C12.543 40.2661 12.0896 40.1612 11.6441 40.0281C11.2 39.9114 10.764 39.7659 10.3389 39.5923Z" fill="#202328"/>
<path d="M15.9216 40.6525C16.515 40.2129 17.2216 39.9528 17.9578 39.9029C18.3371 39.8838 18.7163 39.9431 19.0717 40.0772C19.255 40.1609 19.4204 40.2793 19.559 40.4258C19.6345 40.5066 19.6936 40.6014 19.733 40.7048C19.733 40.7048 19.733 40.7048 19.733 40.8268C19.7068 40.8792 19.6715 40.9264 19.6286 40.9662C19.3581 41.2587 18.9957 41.4494 18.6018 41.5066C18.4079 41.5584 18.2039 41.5584 18.0101 41.5066C17.8296 41.4399 17.6549 41.3583 17.4879 41.2626C17.3004 41.1731 17.1519 41.0182 17.0703 40.8268C17.0535 40.7976 17.0446 40.7645 17.0446 40.7309C17.0446 40.6972 17.0535 40.6642 17.0703 40.635C17.0836 40.606 17.1029 40.5801 17.1269 40.5591C17.1509 40.5381 17.179 40.5223 17.2095 40.513H17.4879H18.0449C18.2249 40.5399 18.397 40.6054 18.5496 40.7048C18.2166 40.5918 17.8557 40.5918 17.5228 40.7048H17.2791C17.2791 40.7048 17.2791 40.7048 17.2791 40.8093C17.2791 40.9139 17.4879 41.0185 17.6272 41.0883C17.782 41.17 17.9455 41.2343 18.1145 41.28C18.2642 41.3064 18.4173 41.3064 18.567 41.28C18.8902 41.2076 19.186 41.0443 19.4197 40.8093C19.3933 40.7519 19.358 40.699 19.3153 40.6525C19.2045 40.5306 19.0677 40.4352 18.915 40.3735C18.6063 40.2426 18.2756 40.1716 17.9405 40.1644C17.587 40.1505 17.2337 40.1976 16.8962 40.3038C16.5615 40.3902 16.2353 40.5069 15.9216 40.6525Z" fill="#202328"/>
<path d="M19.6322 41.7469C19.1918 41.9782 18.7149 42.1315 18.2225 42.2001C17.9742 42.2349 17.7223 42.2349 17.4741 42.2001C17.2177 42.1774 16.9658 42.1187 16.7258 42.0258C16.2758 41.8425 15.8395 41.6269 15.4205 41.3808C14.9961 41.152 14.5378 40.9931 14.063 40.9102C14.5625 40.8791 15.0625 40.9625 15.5249 41.1542C15.9774 41.346 16.3951 41.5726 16.8476 41.7295C17.279 41.9 17.7417 41.9773 18.205 41.9561C18.6869 41.9377 19.1653 41.8676 19.6322 41.7469Z" fill="#202328"/>
<path d="M8.63452 42.7158H10.3749C10.9544 42.7521 11.5357 42.7521 12.1152 42.7158C12.6882 42.6039 13.2734 42.5687 13.8556 42.6112C14.439 42.6399 15.0202 42.704 15.596 42.8029H13.8556C13.2722 42.8085 12.6902 42.8609 12.1152 42.9598C11.537 43.0268 10.9531 43.0268 10.3749 42.9598C9.79043 42.9133 9.20927 42.8317 8.63452 42.7158Z" fill="#202328"/>
<path d="M16.4644 42.3395L15.0199 41.9908L14.289 41.8514C14.059 41.808 13.8229 41.808 13.5929 41.8514L12.131 42.1477L11.3826 42.2349C11.1233 42.2775 10.8588 42.2775 10.5994 42.2349L9.8685 42.0257C9.60971 41.9368 9.3725 41.7942 9.17234 41.6073C9.12727 41.537 9.09213 41.4607 9.06792 41.3807C9.04181 41.2896 9.04181 41.193 9.06792 41.1018C9.15384 40.9654 9.28232 40.8612 9.43341 40.8055C9.68212 40.7309 9.93964 40.6899 10.1992 40.6834C10.4541 40.6661 10.7099 40.6661 10.9649 40.6834C11.2226 40.7143 11.4713 40.7974 11.6959 40.9275C11.7655 40.9786 11.8148 41.0527 11.8351 41.1367C11.8351 41.2587 11.7133 41.2936 11.6611 41.3284H11.2956C11.0468 41.3543 10.796 41.3543 10.5472 41.3284C10.793 41.3109 11.0373 41.2759 11.2782 41.2238C11.487 41.2238 11.8699 41.0844 11.6089 40.9798C11.4001 40.8675 11.1671 40.8076 10.9301 40.8055C10.693 40.7793 10.4537 40.7793 10.2166 40.8055C9.98514 40.8216 9.75688 40.8684 9.53783 40.9449C9.43341 40.9449 9.3464 41.0496 9.32899 41.1018C9.30782 41.1293 9.29633 41.163 9.29633 41.1977C9.29633 41.2324 9.30782 41.2661 9.32899 41.2936C9.49564 41.4384 9.69152 41.5454 9.90329 41.6073C10.1302 41.6932 10.3628 41.7631 10.5994 41.8165C11.0727 41.8852 11.5533 41.8852 12.0265 41.8165C12.5138 41.8165 12.9837 41.6422 13.4884 41.5899H13.8713C13.9988 41.5803 14.1267 41.5803 14.2542 41.5899L14.9852 41.7817C15.5247 41.9909 15.9249 42.1478 16.4644 42.3395Z" fill="#202328"/>
<path d="M13.2835 40.948C12.6048 40.826 11.9783 40.6516 11.3343 40.4773L10.3945 40.2159C10.0766 40.127 9.74965 40.0744 9.41992 40.059C9.75189 39.981 10.0974 39.981 10.4293 40.059C10.7649 40.0943 11.0968 40.1584 11.4213 40.2507C12.0679 40.4069 12.6932 40.641 13.2835 40.948Z" fill="#202328"/>
</g>
<path d="M18.208 39.6967C18.208 39.6967 29.5203 38.1705 30.1991 38.6214C30.8778 39.0723 31.4348 42.3327 30.0773 43.1304C28.7198 43.9282 18.3646 42.3501 18.3646 42.3501C18.0352 41.9938 17.8396 41.5348 17.811 41.0512C17.7825 40.5675 17.9227 40.089 18.208 39.6967Z" fill="#FF9635"/>
<path opacity="0.49" d="M18.208 39.6967C18.208 39.6967 29.5203 38.1705 30.1991 38.6214C30.8778 39.0723 31.4348 42.3327 30.0773 43.1304C28.7198 43.9282 18.3646 42.3501 18.3646 42.3501C18.0352 41.9938 17.8396 41.5348 17.811 41.0512C17.7825 40.5675 17.9227 40.089 18.208 39.6967Z" fill="#202328"/>
<path opacity="0.2" d="M30.1236 38.7407C29.7929 38.7407 29.2186 39.7813 29.3404 41.0299C29.4622 42.2786 29.8799 43.0243 30.0714 43.0069C30.2628 42.9896 30.9067 42.2959 30.8023 40.7524C30.7501 39.6252 30.4194 38.8101 30.1236 38.7407Z" fill="#5A697C"/>
<g opacity="0.2">
<path d="M18.6211 42.0156L20.5529 42.1202H21.98H22.4847C23.1385 42.1316 23.7903 42.1957 24.4339 42.3119C25.0732 42.4102 25.7065 42.544 26.3309 42.7129L24.3991 42.556C23.7551 42.556 23.1112 42.434 22.4847 42.434H22.0148H21.5101H20.5355C19.8915 42.2771 19.2476 42.1551 18.6211 42.0156Z" fill="#202328"/>
<path d="M19.7925 41.9805C20.6776 41.6822 21.5947 41.4892 22.5248 41.4053C22.9934 41.4038 23.4606 41.4564 23.9171 41.5622C24.3716 41.6611 24.8192 41.7892 25.2572 41.9457L23.8823 41.8062C23.4377 41.7517 22.9902 41.7226 22.5422 41.7191C22.0898 41.7191 21.6373 41.8063 21.1848 41.8586L19.7925 41.9805Z" fill="#202328"/>
<path d="M25.4033 41.3604C25.7053 41.5407 26.0263 41.6868 26.3605 41.7962C26.6894 41.9233 27.0356 41.9998 27.3873 42.0228C27.7241 42.0477 28.0624 42.0001 28.3793 41.8833C28.5331 41.8299 28.6749 41.747 28.797 41.6393C28.852 41.5999 28.8943 41.5454 28.9189 41.4824V41.3952C28.7012 41.1467 28.4175 40.9654 28.1009 40.8723C27.9532 40.8287 27.7961 40.8287 27.6484 40.8723C27.4812 40.9002 27.3178 40.9469 27.1611 41.0117C27.013 41.0552 26.8803 41.1399 26.7782 41.2558C26.7782 41.2558 26.7782 41.2557 26.7782 41.3778H27.0044C27.3418 41.5003 27.7113 41.5003 28.0487 41.3778C27.89 41.4719 27.7108 41.5258 27.5266 41.5347C27.3413 41.552 27.1549 41.552 26.9697 41.5347L26.6912 41.4301C26.633 41.4054 26.5842 41.3626 26.552 41.3081C26.5352 41.2758 26.5264 41.2399 26.5264 41.2035C26.5264 41.1671 26.5352 41.1312 26.552 41.0989C26.6525 40.9173 26.8122 40.7757 27.0044 40.6979L27.5266 40.5062C27.7273 40.4628 27.935 40.4628 28.1357 40.5062C28.5148 40.6155 28.8536 40.8337 29.1103 41.1337V41.2906C29.117 41.3193 29.117 41.3491 29.1103 41.3778C29.1206 41.4178 29.1206 41.4598 29.1103 41.4998C29.0654 41.5994 29.0001 41.6884 28.9189 41.7613C28.7702 41.8993 28.5914 42.0008 28.3967 42.0576C28.0368 42.1701 27.6574 42.2057 27.2829 42.1622C26.597 42.0646 25.9488 41.7881 25.4033 41.3604Z" fill="#202328"/>
<path d="M29.2432 40.5599C28.7856 40.4058 28.3131 40.3005 27.8335 40.2461C27.3729 40.1848 26.9047 40.2204 26.4586 40.3507C26.0061 40.4727 25.571 40.6645 25.0837 40.8214C24.6138 40.9806 24.1133 41.0284 23.6218 40.9608C24.1006 40.9037 24.5691 40.7806 25.0141 40.5947C25.4503 40.3759 25.9044 40.1951 26.3716 40.0543C26.6144 39.9799 26.8661 39.9388 27.1199 39.9323C27.3687 39.9054 27.6196 39.9054 27.8683 39.9323C28.3599 40.0589 28.8253 40.2714 29.2432 40.5599Z" fill="#202328"/>
<path d="M22.4646 39.4841C23.039 39.3623 23.6202 39.2749 24.205 39.2226C24.7831 39.1556 25.3671 39.1556 25.9453 39.2226C26.5203 39.3215 27.1023 39.374 27.6857 39.3795H29.426C28.8505 39.4835 28.2694 39.5534 27.6857 39.5887C27.1075 39.6568 26.5234 39.6568 25.9453 39.5887C25.3661 39.5426 24.7842 39.5426 24.205 39.5887L22.4646 39.4841Z" fill="#202328"/>
<path d="M26.1181 39.7296L24.6736 40.1131L23.9427 40.2351C23.8098 40.2525 23.6753 40.2525 23.5424 40.2351H23.1595L21.715 39.8865C21.2567 39.7579 20.7806 39.7049 20.3053 39.7296L19.6092 39.869C19.39 39.9216 19.1832 40.0163 19.0001 40.1479C18.9848 40.1776 18.9768 40.2104 18.9768 40.2438C18.9768 40.2772 18.9848 40.3101 19.0001 40.3397C19.0001 40.3397 19.1045 40.4443 19.1915 40.4966C19.408 40.5949 19.6361 40.6652 19.8703 40.7058C20.1078 40.7237 20.3463 40.7237 20.5838 40.7058C20.8166 40.7213 21.0497 40.6794 21.2625 40.5837C21.5236 40.4966 21.1581 40.3571 20.9493 40.3048C20.7158 40.2341 20.4773 40.1817 20.2357 40.1479C20.4791 40.1308 20.7233 40.1308 20.9667 40.1479C21.0995 40.1701 21.2284 40.2112 21.3495 40.27C21.3909 40.2817 21.4271 40.3069 21.4523 40.3417C21.4776 40.3765 21.4904 40.4187 21.4888 40.4617C21.4811 40.5019 21.4646 40.54 21.4405 40.5731C21.4165 40.6063 21.3854 40.6337 21.3495 40.6535C21.1097 40.7681 20.8493 40.8333 20.5838 40.8452C20.335 40.8712 20.0842 40.8712 19.8354 40.8452C19.5725 40.829 19.3138 40.7701 19.0697 40.6709C18.9955 40.6403 18.9281 40.5952 18.8714 40.5384C18.8146 40.4815 18.7696 40.414 18.739 40.3397C18.7213 40.2984 18.7122 40.2539 18.7122 40.209C18.7122 40.164 18.7213 40.1195 18.739 40.0782C18.7536 39.9913 18.7965 39.9117 18.8608 39.8516C19.0756 39.6788 19.3249 39.5539 19.5918 39.4855C19.8371 39.415 20.0872 39.3625 20.3401 39.3286C20.6 39.2935 20.8634 39.2935 21.1233 39.3286C21.3702 39.3642 21.6145 39.4166 21.8543 39.4855L23.2813 39.8865C23.5172 39.9304 23.7591 39.9304 23.9949 39.8865H24.7258C25.1435 39.9039 25.6308 39.7993 26.1181 39.7296Z" fill="#202328"/>
<path d="M22.8806 40.854C22.2737 41.1486 21.6297 41.3598 20.9662 41.4816C20.6379 41.5394 20.3068 41.5801 19.9743 41.6036C19.6302 41.6297 19.2848 41.576 18.9648 41.4467C19.295 41.4733 19.6267 41.4733 19.9569 41.4467L20.914 41.255C21.5058 41.0458 22.1497 40.9237 22.8806 40.854Z" fill="#202328"/>
<path d="M25.845 42.0854C26.3671 42.2423 26.8544 42.4167 27.3417 42.5387L28.09 42.6781H28.8732C28.6251 42.7868 28.3602 42.8517 28.09 42.8699C27.8148 42.8764 27.5398 42.8471 27.2721 42.7828C27.0081 42.7159 26.7515 42.6224 26.5063 42.5039C26.2656 42.3994 26.0425 42.2583 25.845 42.0854Z" fill="#202328"/>
</g>
<path d="M27.6194 15.8161C27.6194 15.8643 27.6289 15.9119 27.6472 15.9564C27.6656 16.0008 27.6926 16.0412 27.7265 16.0752C27.7605 16.1093 27.8008 16.1363 27.8452 16.1547C27.8896 16.1731 27.9371 16.1825 27.9852 16.1825C28.0324 16.1826 28.0792 16.173 28.1227 16.1544C28.1661 16.1358 28.2053 16.1086 28.2379 16.0743C28.2705 16.04 28.2958 15.9994 28.3122 15.9551C28.3287 15.9107 28.3359 15.8634 28.3336 15.8161C28.3336 15.7236 28.2969 15.6349 28.2315 15.5694C28.1662 15.504 28.0776 15.4672 27.9852 15.4672C27.938 15.4649 27.8908 15.4721 27.8465 15.4886C27.8022 15.5051 27.7617 15.5304 27.7275 15.563C27.6933 15.5957 27.666 15.6349 27.6475 15.6785C27.6289 15.722 27.6193 15.7688 27.6194 15.8161Z" fill="#FF9635"/>
<path d="M23.8743 0.866546C23.8743 0.935561 23.8947 1.00303 23.933 1.06041C23.9712 1.1178 24.0257 1.16253 24.0893 1.18894C24.153 1.21536 24.223 1.22227 24.2906 1.20881C24.3582 1.19534 24.4203 1.16208 24.469 1.11328C24.5177 1.06448 24.5509 1.00234 24.5643 0.934647C24.5778 0.866958 24.5709 0.796769 24.5445 0.733008C24.5181 0.669246 24.4735 0.614757 24.4162 0.576414C24.3589 0.538071 24.2915 0.517578 24.2226 0.517578C24.1302 0.517578 24.0416 0.554368 23.9763 0.619809C23.911 0.685249 23.8743 0.774 23.8743 0.866546Z" fill="#FF9635"/>
<path d="M10.4781 13.5475C10.5147 13.5761 10.5566 13.5973 10.6013 13.6097C10.6461 13.6221 10.6928 13.6256 10.7389 13.62C10.785 13.6143 10.8296 13.5996 10.87 13.5767C10.9104 13.5538 10.9459 13.5231 10.9745 13.4864C11.0031 13.4498 11.0242 13.4078 11.0366 13.363C11.049 13.3182 11.0525 13.2713 11.0468 13.2252C11.0412 13.179 11.0265 13.1344 11.0036 13.0939C10.9808 13.0534 10.9501 13.0178 10.9135 12.9892C10.8825 12.9553 10.8449 12.9283 10.8029 12.9098C10.7609 12.8914 10.7155 12.8818 10.6697 12.8818C10.6238 12.8818 10.5785 12.8914 10.5365 12.9098C10.4945 12.9283 10.4568 12.9553 10.4258 12.9892C10.3853 13.0256 10.3539 13.071 10.334 13.1218C10.3142 13.1725 10.3065 13.2273 10.3116 13.2815C10.3167 13.3358 10.3344 13.3882 10.3633 13.4344C10.3922 13.4805 10.4315 13.5193 10.4781 13.5475Z" fill="#FF9635"/>
<path d="M7.34326 34.8578C7.34326 34.9503 7.37997 35.0391 7.4453 35.1045C7.51063 35.1699 7.59924 35.2067 7.69163 35.2067C7.78403 35.2067 7.87264 35.1699 7.93797 35.1045C8.0033 35.0391 8.04001 34.9503 8.04001 34.8578C8.04001 34.7652 8.0033 34.6765 7.93797 34.611C7.87264 34.5456 7.78403 34.5088 7.69163 34.5088C7.59924 34.5088 7.51063 34.5456 7.4453 34.611C7.37997 34.6765 7.34326 34.7652 7.34326 34.8578Z" fill="#FF9635"/>
<path d="M29.2327 32.4993C29.2327 32.5683 29.2531 32.6358 29.2914 32.6932C29.3297 32.7506 29.3841 32.7953 29.4477 32.8217C29.5114 32.8481 29.5814 32.855 29.649 32.8416C29.7166 32.8281 29.7787 32.7948 29.8274 32.746C29.8761 32.6972 29.9093 32.6351 29.9227 32.5674C29.9362 32.4997 29.9293 32.4295 29.9029 32.3658C29.8765 32.302 29.8319 32.2475 29.7746 32.2092C29.7173 32.1708 29.65 32.1504 29.5811 32.1504C29.4887 32.1504 29.4 32.1871 29.3347 32.2526C29.2694 32.318 29.2327 32.4068 29.2327 32.4993Z" fill="#FF9635"/>
<path d="M27.15 18.1047C27.1465 18.2027 27.1726 18.2995 27.2249 18.3824C27.2771 18.4654 27.3531 18.5307 27.4429 18.5698C27.5327 18.6089 27.6321 18.62 27.7283 18.6018C27.8246 18.5835 27.913 18.5366 27.9823 18.4673C28.0515 18.3979 28.0983 18.3093 28.1166 18.2129C28.1348 18.1165 28.1237 18.0169 28.0846 17.927C28.0456 17.837 27.9804 17.7609 27.8976 17.7086C27.8148 17.6563 27.7181 17.6302 27.6203 17.6336C27.4955 17.6336 27.3759 17.6832 27.2877 17.7716C27.1995 17.8599 27.15 17.9797 27.15 18.1047Z" fill="#FF9635"/>
<path d="M12.4466 9.64493C12.5473 9.71741 12.6718 9.74872 12.7948 9.73252C12.9177 9.71631 13.0299 9.65383 13.1085 9.55771C13.1968 9.46655 13.2462 9.34451 13.2462 9.21748C13.2462 9.09045 13.1968 8.9684 13.1085 8.87724C13.0594 8.83921 13.0033 8.81129 12.9434 8.79509C12.8834 8.77888 12.8209 8.77473 12.7594 8.78284C12.6979 8.79095 12.6386 8.81114 12.5849 8.84231C12.5312 8.87349 12.4842 8.91506 12.4466 8.96451C12.3582 9.05567 12.3088 9.17766 12.3088 9.30469C12.3088 9.43172 12.3582 9.55377 12.4466 9.64493Z" fill="#FF9635"/>
<path d="M8.24805 27.1054C8.24805 27.1986 8.27563 27.2896 8.32731 27.3671C8.37898 27.4446 8.45243 27.505 8.53837 27.5406C8.62431 27.5763 8.71888 27.5856 8.81012 27.5674C8.90135 27.5492 8.98515 27.5044 9.05092 27.4385C9.1167 27.3726 9.1615 27.2887 9.17965 27.1973C9.19779 27.1059 9.18848 27.0112 9.15288 26.9251C9.11728 26.839 9.05701 26.7655 8.97966 26.7137C8.90232 26.662 8.81138 26.6343 8.71836 26.6343C8.59363 26.6343 8.47401 26.6839 8.38581 26.7723C8.29761 26.8606 8.24805 26.9805 8.24805 27.1054Z" fill="#FF9635"/>
<path d="M26.364 17.4242C26.364 17.4797 26.386 17.533 26.4252 17.5723C26.4644 17.6115 26.5176 17.6336 26.573 17.6336C26.6285 17.6336 26.6816 17.6115 26.7208 17.5723C26.76 17.533 26.7821 17.4797 26.7821 17.4242C26.7781 17.37 26.7547 17.3191 26.7164 17.2807C26.678 17.2422 26.6271 17.2189 26.573 17.2148C26.5176 17.2148 26.4644 17.2369 26.4252 17.2762C26.386 17.3154 26.364 17.3687 26.364 17.4242Z" fill="#FF9635"/>
<path d="M28.3545 24.262C28.47 24.262 28.5635 24.1683 28.5635 24.0526C28.5635 23.937 28.47 23.8433 28.3545 23.8433C28.2391 23.8433 28.1455 23.937 28.1455 24.0526C28.1455 24.1683 28.2391 24.262 28.3545 24.262Z" fill="#FF9635"/>
<path d="M30.8394 30.6259C30.8392 30.6785 30.8588 30.7293 30.8944 30.7681C30.9299 30.8069 30.9786 30.8308 31.031 30.8352C31.0864 30.8352 31.1396 30.8132 31.1788 30.7739C31.218 30.7346 31.24 30.6814 31.24 30.6259C31.24 30.5703 31.218 30.5171 31.1788 30.4778C31.1396 30.4385 31.0864 30.4165 31.031 30.4165C31.0043 30.4164 30.9779 30.4219 30.9534 30.4326C30.929 30.4433 30.907 30.459 30.889 30.4787C30.8709 30.4985 30.8572 30.5217 30.8487 30.5471C30.8401 30.5724 30.837 30.5992 30.8394 30.6259Z" fill="#FF9635"/>
<path d="M7.55371 25.6473C7.55371 25.7029 7.57572 25.7561 7.61492 25.7954C7.65412 25.8346 7.70729 25.8567 7.76273 25.8567C7.81683 25.8527 7.86771 25.8293 7.90607 25.7909C7.94443 25.7525 7.96772 25.7015 7.97175 25.6473C7.97175 25.5918 7.94974 25.5385 7.91054 25.4993C7.87134 25.46 7.81817 25.438 7.76273 25.438C7.70729 25.438 7.65412 25.46 7.61492 25.4993C7.57572 25.5385 7.55371 25.5918 7.55371 25.6473Z" fill="#FF9635"/>
<path d="M29.1844 10.9393C29.182 10.9659 29.1851 10.9927 29.1937 11.0181C29.2022 11.0434 29.2159 11.0667 29.234 11.0864C29.252 11.1061 29.274 11.1218 29.2984 11.1326C29.3229 11.1433 29.3493 11.1487 29.376 11.1486C29.4314 11.1486 29.4846 11.1266 29.5238 11.0873C29.563 11.0481 29.585 10.9948 29.585 10.9393C29.5852 10.9125 29.5797 10.8861 29.569 10.8616C29.5583 10.8371 29.5426 10.8151 29.5229 10.797C29.5032 10.7789 29.48 10.7652 29.4547 10.7566C29.4294 10.7481 29.4026 10.7449 29.376 10.7474C29.3252 10.7474 29.2765 10.7676 29.2405 10.8036C29.2046 10.8395 29.1844 10.8884 29.1844 10.9393Z" fill="#FF9635"/>
<path d="M19.9312 9.26052C20.0467 9.26052 20.1402 9.16679 20.1402 9.05116C20.1402 8.93553 20.0467 8.8418 19.9312 8.8418C19.8158 8.8418 19.7222 8.93553 19.7222 9.05116C19.7222 9.16679 19.8158 9.26052 19.9312 9.26052Z" fill="#FF9635"/>
<path d="M18.3743 6.17311C18.4898 6.17311 18.5833 6.07938 18.5833 5.96375C18.5833 5.84812 18.4898 5.75439 18.3743 5.75439C18.2589 5.75439 18.1653 5.84812 18.1653 5.96375C18.1653 6.07938 18.2589 6.17311 18.3743 6.17311Z" fill="#FF9635"/>
<path d="M11.3154 40.2469C13.4787 41.0604 15.7354 41.6022 18.0332 41.8598H19.408C19.408 41.8598 22.8887 41.0273 23.3586 40.8712C23.8285 40.7152 25.099 41.2354 25.5863 40.8712C26.8685 39.8943 27.99 38.7241 28.9104 37.4028C29.1018 36.7091 28.0402 34.2117 28.0054 33.7088C27.9706 33.2059 28.7015 30.2403 28.7712 29.2518C28.8408 28.2633 25.8996 23.3727 25.6211 22.575C25.6876 21.3036 25.9761 20.0536 26.4739 18.8811C26.4739 18.8811 24.0548 21.413 24.1418 22.0027C24.2288 22.5923 25.3078 23.9797 25.3774 24.4132C25.4471 24.8468 23.8633 27.8817 23.933 28.3153C24.2399 29.1179 24.4672 29.9486 24.6117 30.7953C24.4432 30.0616 24.0547 29.3962 23.4979 28.8876C22.8994 28.5408 22.3185 28.1646 21.7575 27.7604C21.2066 26.8032 20.824 25.7592 20.6263 24.6734C21.0355 24.0476 21.2643 23.3216 21.2876 22.575C20.7041 20.9787 19.9392 19.4542 19.0077 18.0312C19.0077 18.0312 19.3906 19.9736 19.0077 20.4245C18.6249 20.8754 17.2674 21.6211 17.1107 21.9853C16.9541 22.3495 18.3638 23.9103 18.1898 24.3092C18.0157 24.7081 14.9005 25.3324 14.5872 25.766C13.9894 27.1228 13.6699 28.5852 13.6474 30.0669C13.8737 30.6912 14.622 33.0498 14.2043 33.5354C13.7867 34.021 12.8469 34.1944 12.8121 34.0036C13.0655 33.1606 13.1772 32.2816 13.1427 31.4022C12.9165 30.4831 11.9245 28.4714 11.8549 27.9338C11.9955 26.7099 12.2938 25.5091 12.7424 24.3612C11.9054 25.6229 11.2218 26.9794 10.7062 28.402C10.8091 29.7925 10.9892 31.1762 11.2457 32.5468C11.2457 32.5468 10.7933 32.2521 10.6888 32.044C10.6404 31.4669 10.6404 30.8868 10.6888 30.3097C10.1248 30.938 9.65581 31.6449 9.29655 32.4081C9.15732 33.0325 9.87087 34.5933 9.76645 35.1135C9.66203 35.6338 9.10509 36.8478 9.03548 37.5588C8.96586 38.2699 10.7062 39.9174 11.3154 40.2469ZM26.2476 35.5471C26.0877 36.2852 25.8116 36.9934 25.4297 37.6455C25.4297 37.6455 25.5863 36.605 25.6037 36.2061C25.4966 35.6667 25.3393 35.1383 25.1338 34.628C25.0733 33.9665 25.2592 33.306 25.6559 32.7723C25.976 33.6669 26.175 34.6001 26.2476 35.5471ZM23.3238 40.3683L24.5943 39.2584C25.012 38.8769 26.3346 38.3219 26.4739 37.9577C26.7288 37.252 26.9267 36.5271 27.0656 35.7899C27.2181 36.578 27.2707 37.382 27.2222 38.1831C26.7114 39.027 26.0152 39.7444 25.186 40.2816C24.576 40.4247 23.9446 40.4541 23.3238 40.3683ZM14.1869 34.9054C13.8532 35.4892 13.6125 36.121 13.4734 36.7784C13.5111 37.3989 13.7155 37.9978 14.0651 38.5126C14.2942 38.9787 14.475 39.4668 14.6046 39.9694C14.6046 39.9694 13.1427 39.293 12.8643 38.2352C12.5858 37.1773 14.0303 35.0268 14.1869 34.9054Z" fill="#FF9635"/>
<path d="M24.0182 19.5749C24.0182 19.5749 25.5323 18.4996 25.5671 17.6846C25.6019 16.8695 24.6273 15.1872 24.7317 14.5282C24.8163 14.0879 24.9628 13.6617 25.1668 13.2622C25.1668 13.2622 23.5657 14.3548 23.5657 15.2566C23.5657 16.1584 24.5229 17.5805 24.4359 18.0141C24.3488 18.4476 24.0182 19.5749 24.0182 19.5749Z" fill="#FF9635"/>
<path d="M14.9675 24.5196C15.1331 24.0379 15.2326 23.5362 15.2634 23.0281C15.1703 22.6584 14.9847 22.3183 14.7239 22.0396C14.5972 22.1916 14.5116 22.3733 14.475 22.5675C14.4385 22.7617 14.4523 22.9621 14.515 23.1495C14.7065 23.8432 14.9675 24.5196 14.9675 24.5196Z" fill="#FF9635"/>
<path d="M11.2266 24.3295C11.6688 23.6328 11.9648 22.854 12.0968 22.0403C12.117 21.1116 11.9015 20.193 11.4703 19.3696C11.1917 19.0451 10.8554 18.7746 10.4783 18.5718C10.7325 18.9541 10.9208 19.3762 11.0352 19.8204C11.0352 20.202 10.7567 21.3986 10.7219 21.8668C10.826 22.6995 10.9947 23.5228 11.2266 24.3295Z" fill="#FF9635"/>
<path d="M21.1432 18.1044C21.1432 18.1044 22.2744 16.5609 22.0656 15.555C21.7834 14.58 21.297 13.6757 20.6385 12.9016C20.0738 12.3734 19.561 11.7927 19.107 11.1674C18.7505 10.1929 18.7505 9.12433 19.107 8.14984C19.381 7.8207 19.7183 7.54943 20.099 7.35205C19.6011 7.35599 19.1112 7.47748 18.6695 7.70659C18.2278 7.9357 17.8469 8.26591 17.5581 8.67009C16.5661 10.0401 15.2956 15.3989 15.8177 16.6129C16.4061 17.5612 17.1747 18.386 18.0802 19.0409C17.8814 18.1704 17.7821 17.2802 17.7843 16.3875C17.941 15.8672 19.5247 16.3875 19.925 16.717C20.3671 17.1467 20.7745 17.6106 21.1432 18.1044Z" fill="#FF9635"/>
<path d="M23.6661 25.6827C23.6661 25.6827 24.3622 24.9543 24.223 24.33C24.0838 23.7057 23.1788 22.7692 23.1266 22.4743C23.1492 21.9718 23.2192 21.4725 23.3354 20.9829C23.3354 20.9829 22.4478 22.7172 22.6393 23.2027C22.8307 23.6883 23.0221 24.5208 23.0221 24.5208C23.0221 24.5208 22.6219 24.2606 22.5349 24.0351C22.4675 23.8488 22.4152 23.6575 22.3782 23.4629C22.3782 23.4629 21.6995 24.2953 21.9083 24.9023C22.2894 25.5419 22.758 26.1256 23.3006 26.6365C23.2879 26.4575 23.2879 26.2779 23.3006 26.0989C23.3006 25.8734 23.4224 25.9949 23.6661 25.6827Z" fill="#FF9635"/>
<g opacity="0.4">
<path d="M18.8295 41.8581C18.8295 41.8581 22.9541 40.3666 23.8765 38.2682C24.4509 36.9502 22.9019 34.2448 22.7627 33.8286C22.6235 33.4123 22.7627 31.7474 22.5887 31.0884C22.4146 30.4294 19.456 28.7125 19.1079 28.2616C18.7599 27.8107 19.6126 25.9897 19.6126 25.9897C19.6126 25.9897 17.4024 27.724 17.0717 28.7992C16.7411 29.8744 18.0637 31.7821 18.0463 32.1463C17.8581 32.6621 17.5942 33.1472 17.2632 33.5857C16.9347 33.1688 16.7243 32.6718 16.654 32.1463C16.654 31.4526 16.9847 31.1058 16.9151 30.6202C16.8455 30.1346 15.9405 29.2155 15.9405 29.2155C16.1895 29.6389 16.2761 30.138 16.1841 30.6202C15.9405 31.1925 14.8267 32.3544 14.9833 33.2042C15.1399 34.054 16.48 36.1177 16.3582 36.6727C16.281 37.0142 16.1392 37.3379 15.9405 37.6265C15.7433 37.1787 15.5861 36.7144 15.4706 36.2391C15.3488 35.6842 15.227 34.9384 15.227 34.9384C15.227 34.9384 14.5482 38.5977 15.227 39.6209C16.2746 40.5875 17.4972 41.3467 18.8295 41.8581Z" fill="#5A697C"/>
<path d="M19.9289 16.4702C20.1746 15.9658 20.3447 15.4282 20.4336 14.8746C20.4336 14.337 19.459 13.6086 19.0065 13.1404C18.554 12.6722 17.5968 11.4062 17.6838 10.7125C17.7708 10.0188 17.8753 9.49854 17.8753 9.49854C17.2506 11.1789 16.8186 12.9242 16.5874 14.7013C16.6285 15.4458 16.9092 16.1573 17.388 16.7303C17.388 16.7303 17.649 15.5337 18.2233 15.5857C18.8639 15.7151 19.455 16.0216 19.9289 16.4702Z" fill="#5A697C"/>
<path d="M24.3655 19.0378C24.3655 19.0378 25.2531 18.2227 25.2357 17.6678C25.0462 16.9419 24.7531 16.2469 24.3655 15.604C24.3655 15.604 24.7484 17.3383 24.8006 17.7371C24.7438 18.1952 24.5959 18.6374 24.3655 19.0378Z" fill="#5A697C"/>
<path d="M14.1834 40.5578C14.1834 40.5578 12.443 39.4478 12.0601 39.153C11.6424 38.4965 11.375 37.7564 11.277 36.9852C11.277 36.6731 11.8861 35.251 11.8861 34.9042C11.8861 34.5573 10.7201 33.1699 10.7201 33.1699C10.8899 33.6929 10.9951 34.2345 11.0333 34.7828C11.0333 35.0949 9.43221 36.8986 9.53663 37.5749C9.64105 38.2513 11.0856 39.4652 11.5032 39.7427C12.3744 40.0824 13.2704 40.3549 14.1834 40.5578Z" fill="#5A697C"/>
<path d="M26.8208 33.3793C27.3359 32.1323 27.6982 30.828 27.8998 29.4946C27.487 28.1684 26.987 26.8706 26.4031 25.6099C26.4031 25.6099 26.5075 28.2286 26.6119 28.6448C26.6389 29.2304 26.5684 29.8164 26.4031 30.379C26.2136 29.9776 26.0451 29.5666 25.8984 29.1477C25.9195 28.6085 26.0012 28.0733 26.142 27.5523C25.7276 28.5485 25.5034 29.613 25.4807 30.6912C25.8331 31.6309 26.2822 32.5318 26.8208 33.3793Z" fill="#5A697C"/>
</g>
</svg>
