<svg width="657" height="474" viewBox="0 0 657 474" fill="none" xmlns="http://www.w3.org/2000/svg">
<rect x="486.34" y="31.2928" width="404.604" height="401.448" rx="3.08521" fill="#262B31"/>
<rect width="363.174" height="24.6817" transform="translate(507.055 55.5337)" fill="#262B31"/>
<path d="M508.058 72.9556V61.4161H515.699V63.4276H510.498V66.1772H515.191V68.1888H510.498V72.9556H508.058ZM520.57 73.1246C519.694 73.1246 518.937 72.9387 518.299 72.5668C517.664 72.1911 517.174 71.669 516.828 71.0004C516.483 70.328 516.31 69.5486 516.31 68.6621C516.31 67.768 516.483 66.9867 516.828 66.3181C517.174 65.6457 517.664 65.1236 518.299 64.7517C518.937 64.3761 519.694 64.1882 520.57 64.1882C521.445 64.1882 522.2 64.3761 522.835 64.7517C523.473 65.1236 523.965 65.6457 524.311 66.3181C524.656 66.9867 524.829 67.768 524.829 68.6621C524.829 69.5486 524.656 70.328 524.311 71.0004C523.965 71.669 523.473 72.1911 522.835 72.5668C522.2 72.9387 521.445 73.1246 520.57 73.1246ZM520.581 71.2652C520.979 71.2652 521.311 71.1525 521.578 70.9271C521.845 70.698 522.046 70.3862 522.181 69.9918C522.32 69.5974 522.39 69.1485 522.39 68.6452C522.39 68.1418 522.32 67.6929 522.181 67.2985C522.046 66.9041 521.845 66.5923 521.578 66.3632C521.311 66.134 520.979 66.0195 520.581 66.0195C520.179 66.0195 519.841 66.134 519.567 66.3632C519.296 66.5923 519.091 66.9041 518.952 67.2985C518.817 67.6929 518.75 68.1418 518.75 68.6452C518.75 69.1485 518.817 69.5974 518.952 69.9918C519.091 70.3862 519.296 70.698 519.567 70.9271C519.841 71.1525 520.179 71.2652 520.581 71.2652ZM526.39 72.9556V64.3009H528.717V65.811H528.807C528.965 65.2738 529.23 64.8681 529.602 64.5939C529.974 64.316 530.402 64.177 530.886 64.177C531.007 64.177 531.136 64.1845 531.275 64.1995C531.414 64.2145 531.536 64.2352 531.641 64.2615V66.3913C531.529 66.3575 531.373 66.3275 531.174 66.3012C530.975 66.2749 530.792 66.2618 530.627 66.2618C530.274 66.2618 529.959 66.3388 529.681 66.4928C529.406 66.643 529.189 66.8534 529.027 67.1238C528.869 67.3943 528.79 67.7061 528.79 68.0592V72.9556H526.39ZM532.882 72.9556V64.3009H535.17V65.8279H535.271C535.452 65.3208 535.752 64.9207 536.173 64.6277C536.594 64.3347 537.097 64.1882 537.683 64.1882C538.277 64.1882 538.782 64.3366 539.199 64.6334C539.616 64.9264 539.894 65.3245 540.033 65.8279H540.123C540.299 65.3321 540.619 64.9358 541.081 64.639C541.546 64.3385 542.097 64.1882 542.732 64.1882C543.539 64.1882 544.195 64.4456 544.698 64.9602C545.205 65.471 545.459 66.196 545.459 67.1351V72.9556H543.064V67.6084C543.064 67.1276 542.936 66.767 542.681 66.5266C542.425 66.2862 542.106 66.166 541.723 66.166C541.287 66.166 540.947 66.305 540.703 66.5829C540.459 66.8571 540.337 67.2196 540.337 67.6704V72.9556H538.01V67.5577C538.01 67.1332 537.888 66.7952 537.644 66.5435C537.403 66.2918 537.086 66.166 536.691 66.166C536.425 66.166 536.184 66.2336 535.97 66.3688C535.76 66.5003 535.593 66.6862 535.469 66.9266C535.345 67.1633 535.283 67.4412 535.283 67.7605V72.9556H532.882ZM550.633 63.4276V61.4161H560.11V63.4276H556.577V72.9556H554.165V63.4276H550.633ZM561.626 72.9556V64.3009H564.026V72.9556H561.626ZM562.831 63.1853C562.474 63.1853 562.168 63.067 561.913 62.8303C561.661 62.5899 561.535 62.3026 561.535 61.9682C561.535 61.6377 561.661 61.3541 561.913 61.1174C562.168 60.877 562.474 60.7568 562.831 60.7568C563.188 60.7568 563.492 60.877 563.744 61.1174C564 61.3541 564.127 61.6377 564.127 61.9682C564.127 62.3026 564 62.5899 563.744 62.8303C563.492 63.067 563.188 63.1853 562.831 63.1853ZM570.552 64.3009V66.104H565.34V64.3009H570.552ZM566.523 62.2274H568.924V70.2961C568.924 70.5177 568.957 70.6905 569.025 70.8144C569.093 70.9347 569.187 71.0192 569.307 71.068C569.431 71.1168 569.573 71.1413 569.735 71.1413C569.848 71.1413 569.96 71.1319 570.073 71.1131C570.186 71.0905 570.272 71.0736 570.332 71.0624L570.71 72.8485C570.59 72.8861 570.421 72.9293 570.203 72.9781C569.985 73.0307 569.72 73.0626 569.408 73.0739C568.83 73.0964 568.323 73.0194 567.887 72.8429C567.455 72.6663 567.119 72.3921 566.878 72.0202C566.638 71.6484 566.52 71.1788 566.523 70.6116V62.2274ZM574.702 61.4161V72.9556H572.302V61.4161H574.702ZM580.569 73.1246C579.679 73.1246 578.912 72.9443 578.27 72.5837C577.631 72.2193 577.139 71.7047 576.794 71.0398C576.448 70.3712 576.275 69.5805 576.275 68.6677C576.275 67.7774 576.448 66.9961 576.794 66.3237C577.139 65.6513 577.626 65.1273 578.253 64.7517C578.884 64.3761 579.624 64.1882 580.473 64.1882C581.044 64.1882 581.575 64.2803 582.068 64.4643C582.563 64.6446 582.995 64.917 583.364 65.2813C583.735 65.6457 584.025 66.104 584.231 66.6562C584.438 67.2046 584.541 67.8469 584.541 68.5832V69.2424H577.233V67.7549H582.282C582.282 67.4093 582.207 67.1032 582.056 66.8365C581.906 66.5698 581.698 66.3613 581.431 66.211C581.168 66.057 580.862 65.98 580.512 65.98C580.148 65.98 579.825 66.0645 579.543 66.2336C579.265 66.3989 579.047 66.6224 578.89 66.9041C578.732 67.1821 578.651 67.492 578.647 67.8338V69.2481C578.647 69.6763 578.726 70.0463 578.884 70.3581C579.046 70.6698 579.273 70.9102 579.566 71.0793C579.859 71.2483 580.206 71.3328 580.608 71.3328C580.875 71.3328 581.119 71.2953 581.341 71.2201C581.562 71.145 581.752 71.0323 581.91 70.8821C582.068 70.7318 582.188 70.5477 582.27 70.3299L584.49 70.4764C584.378 71.0098 584.147 71.4756 583.797 71.8737C583.452 72.2682 583.005 72.5762 582.456 72.7978C581.912 73.0157 581.282 73.1246 580.569 73.1246Z" fill="#D9DDE3"/>
<g clip-path="url(#clip0_4647_181329)">
<rect x="507.055" y="115.475" width="363" height="31.7336" rx="3.52596" fill="#373F49"/>
<path d="M518.229 127.516V126.552H524.96V127.516H522.138V135.527H521.051V127.516H518.229ZM528.343 135.667C527.695 135.667 527.135 135.524 526.665 135.238C526.197 134.948 525.837 134.545 525.582 134.028C525.331 133.508 525.206 132.903 525.206 132.214C525.206 131.524 525.331 130.917 525.582 130.391C525.837 129.862 526.19 129.45 526.643 129.155C527.099 128.857 527.631 128.708 528.238 128.708C528.589 128.708 528.935 128.766 529.277 128.883C529.619 129 529.93 129.19 530.21 129.453C530.491 129.713 530.714 130.058 530.881 130.487C531.047 130.917 531.131 131.445 531.131 132.074V132.512H525.942V131.618H530.079C530.079 131.238 530.003 130.899 529.851 130.601C529.702 130.303 529.489 130.068 529.211 129.895C528.936 129.723 528.612 129.637 528.238 129.637C527.826 129.637 527.47 129.739 527.169 129.944C526.871 130.145 526.642 130.408 526.481 130.733C526.32 131.057 526.24 131.404 526.24 131.776V132.372C526.24 132.88 526.328 133.311 526.503 133.664C526.681 134.015 526.928 134.282 527.243 134.466C527.559 134.647 527.926 134.738 528.343 134.738C528.615 134.738 528.861 134.7 529.08 134.624C529.302 134.545 529.493 134.428 529.654 134.273C529.814 134.116 529.939 133.92 530.026 133.686L531.025 133.967C530.92 134.306 530.744 134.604 530.495 134.861C530.247 135.115 529.94 135.314 529.575 135.457C529.21 135.597 528.799 135.667 528.343 135.667ZM533.294 128.795L534.907 131.548L536.52 128.795H537.712L535.538 132.161L537.712 135.527H536.52L534.907 132.915L533.294 135.527H532.102L534.241 132.161L532.102 128.795H533.294ZM542.115 128.795V129.672H538.627V128.795H542.115ZM539.643 127.183H540.678V133.599C540.678 133.891 540.72 134.11 540.805 134.256C540.892 134.399 541.003 134.496 541.138 134.545C541.275 134.592 541.42 134.615 541.572 134.615C541.686 134.615 541.779 134.609 541.852 134.598C541.925 134.583 541.984 134.571 542.027 134.563L542.238 135.492C542.168 135.518 542.07 135.544 541.944 135.571C541.819 135.6 541.659 135.615 541.467 135.615C541.174 135.615 540.888 135.552 540.608 135.426C540.33 135.3 540.099 135.109 539.915 134.852C539.734 134.595 539.643 134.271 539.643 133.879V127.183Z" fill="#5A697C"/>
<path d="M507.724 108.845V101.152H509.35V107.504H512.648V108.845H507.724ZM515.341 108.954C514.973 108.954 514.645 108.89 514.357 108.763C514.069 108.632 513.841 108.441 513.673 108.188C513.508 107.932 513.425 107.614 513.425 107.234C513.425 106.913 513.484 106.644 513.602 106.426C513.719 106.208 513.88 106.033 514.082 105.9C514.285 105.768 514.516 105.667 514.774 105.6C515.034 105.532 515.307 105.485 515.592 105.457C515.928 105.422 516.198 105.389 516.404 105.359C516.609 105.327 516.758 105.279 516.851 105.217C516.943 105.154 516.99 105.061 516.99 104.939V104.916C516.99 104.678 516.915 104.494 516.764 104.364C516.617 104.234 516.406 104.169 516.133 104.169C515.845 104.169 515.616 104.232 515.446 104.36C515.276 104.485 515.163 104.643 515.108 104.833L513.628 104.713C513.703 104.363 513.851 104.06 514.071 103.804C514.291 103.546 514.576 103.348 514.924 103.211C515.274 103.07 515.68 103 516.141 103C516.461 103 516.768 103.038 517.061 103.113C517.357 103.188 517.618 103.305 517.846 103.462C518.077 103.62 518.258 103.823 518.391 104.071C518.524 104.316 518.59 104.611 518.59 104.954V108.845H517.072V108.045H517.027C516.935 108.225 516.811 108.384 516.655 108.522C516.5 108.657 516.314 108.764 516.096 108.841C515.878 108.917 515.626 108.954 515.341 108.954ZM515.799 107.85C516.034 107.85 516.242 107.803 516.423 107.711C516.603 107.616 516.744 107.488 516.847 107.328C516.95 107.167 517.001 106.986 517.001 106.783V106.171C516.951 106.203 516.882 106.233 516.794 106.261C516.709 106.286 516.613 106.31 516.505 106.332C516.398 106.352 516.29 106.371 516.182 106.389C516.074 106.404 515.977 106.417 515.889 106.43C515.701 106.457 515.537 106.501 515.397 106.561C515.257 106.621 515.148 106.703 515.07 106.806C514.993 106.906 514.954 107.031 514.954 107.181C514.954 107.399 515.033 107.566 515.19 107.681C515.351 107.793 515.554 107.85 515.799 107.85ZM519.862 108.845V101.152H521.462V104.045H521.511C521.581 103.889 521.682 103.732 521.815 103.571C521.95 103.409 522.125 103.273 522.341 103.166C522.559 103.055 522.829 103 523.152 103C523.573 103 523.961 103.111 524.317 103.331C524.672 103.549 524.956 103.878 525.169 104.319C525.382 104.757 525.489 105.307 525.489 105.968C525.489 106.611 525.385 107.155 525.177 107.598C524.971 108.039 524.691 108.373 524.335 108.601C523.982 108.826 523.587 108.939 523.148 108.939C522.838 108.939 522.574 108.888 522.356 108.785C522.14 108.682 521.964 108.553 521.826 108.398C521.688 108.24 521.583 108.081 521.511 107.921H521.439V108.845H519.862ZM521.428 105.96C521.428 106.303 521.475 106.603 521.571 106.858C521.666 107.114 521.804 107.313 521.984 107.455C522.164 107.596 522.383 107.666 522.641 107.666C522.902 107.666 523.122 107.594 523.302 107.452C523.483 107.306 523.619 107.106 523.712 106.851C523.807 106.593 523.855 106.296 523.855 105.96C523.855 105.627 523.808 105.334 523.716 105.081C523.623 104.828 523.486 104.631 523.306 104.488C523.126 104.345 522.904 104.274 522.641 104.274C522.381 104.274 522.16 104.343 521.98 104.48C521.802 104.618 521.666 104.813 521.571 105.066C521.475 105.319 521.428 105.617 521.428 105.96ZM529.186 108.958C528.592 108.958 528.081 108.838 527.653 108.597C527.227 108.354 526.899 108.011 526.669 107.568C526.439 107.122 526.323 106.595 526.323 105.987C526.323 105.393 526.439 104.872 526.669 104.424C526.899 103.976 527.224 103.626 527.642 103.376C528.063 103.126 528.556 103 529.122 103C529.502 103 529.857 103.062 530.185 103.184C530.515 103.305 530.803 103.486 531.049 103.729C531.297 103.972 531.49 104.277 531.627 104.646C531.765 105.011 531.834 105.439 531.834 105.93V106.37H526.962V105.378H530.328C530.328 105.148 530.278 104.944 530.177 104.766C530.077 104.588 529.938 104.449 529.76 104.349C529.585 104.246 529.381 104.195 529.148 104.195C528.905 104.195 528.69 104.251 528.502 104.364C528.317 104.474 528.171 104.623 528.066 104.811C527.961 104.996 527.907 105.203 527.905 105.431V106.374C527.905 106.659 527.957 106.906 528.063 107.114C528.17 107.321 528.322 107.482 528.517 107.594C528.712 107.707 528.944 107.763 529.212 107.763C529.39 107.763 529.553 107.738 529.7 107.688C529.848 107.638 529.975 107.563 530.08 107.463C530.185 107.363 530.265 107.24 530.32 107.095L531.8 107.192C531.725 107.548 531.571 107.859 531.338 108.124C531.108 108.387 530.81 108.592 530.444 108.74C530.081 108.885 529.662 108.958 529.186 108.958ZM534.478 101.152V108.845H532.878V101.152H534.478Z" fill="#D9DDE3"/>
</g>
<g clip-path="url(#clip1_4647_181329)">
<rect x="507.055" y="185.994" width="363" height="31.7336" rx="3.52596" fill="#373F49"/>
<path d="M518.229 198.035V197.071H524.96V198.035H522.138V206.046H521.051V198.035H518.229ZM528.343 206.186C527.695 206.186 527.135 206.043 526.665 205.757C526.197 205.467 525.837 205.064 525.582 204.547C525.331 204.027 525.206 203.422 525.206 202.733C525.206 202.043 525.331 201.436 525.582 200.91C525.837 200.381 526.19 199.969 526.643 199.674C527.099 199.376 527.631 199.227 528.238 199.227C528.589 199.227 528.935 199.285 529.277 199.402C529.619 199.519 529.93 199.709 530.21 199.972C530.491 200.232 530.714 200.577 530.881 201.006C531.047 201.436 531.131 201.964 531.131 202.593V203.031H525.942V202.137H530.079C530.079 201.757 530.003 201.418 529.851 201.12C529.702 200.822 529.489 200.587 529.211 200.415C528.936 200.242 528.612 200.156 528.238 200.156C527.826 200.156 527.47 200.258 527.169 200.463C526.871 200.664 526.642 200.927 526.481 201.252C526.32 201.576 526.24 201.924 526.24 202.295V202.891C526.24 203.399 526.328 203.83 526.503 204.183C526.681 204.534 526.928 204.801 527.243 204.985C527.559 205.166 527.926 205.257 528.343 205.257C528.615 205.257 528.861 205.219 529.08 205.143C529.302 205.064 529.493 204.947 529.654 204.793C529.814 204.635 529.939 204.439 530.026 204.205L531.025 204.486C530.92 204.825 530.744 205.123 530.495 205.38C530.247 205.634 529.94 205.833 529.575 205.976C529.21 206.116 528.799 206.186 528.343 206.186ZM533.294 199.315L534.907 202.067L536.52 199.315H537.712L535.538 202.68L537.712 206.046H536.52L534.907 203.434L533.294 206.046H532.102L534.241 202.68L532.102 199.315H533.294ZM542.115 199.315V200.191H538.627V199.315H542.115ZM539.643 197.702H540.678V204.118C540.678 204.41 540.72 204.629 540.805 204.775C540.892 204.918 541.003 205.015 541.138 205.064C541.275 205.111 541.42 205.134 541.572 205.134C541.686 205.134 541.779 205.129 541.852 205.117C541.925 205.102 541.984 205.091 542.027 205.082L542.238 206.011C542.168 206.037 542.07 206.063 541.944 206.09C541.819 206.119 541.659 206.134 541.467 206.134C541.174 206.134 540.888 206.071 540.608 205.945C540.33 205.819 540.099 205.628 539.915 205.371C539.734 205.114 539.643 204.79 539.643 204.398V197.702Z" fill="#5A697C"/>
<path d="M507.724 179.364V171.671H509.35V178.023H512.648V179.364H507.724ZM515.341 179.473C514.973 179.473 514.645 179.409 514.357 179.282C514.069 179.151 513.841 178.96 513.673 178.707C513.508 178.451 513.425 178.133 513.425 177.753C513.425 177.432 513.484 177.163 513.602 176.945C513.719 176.727 513.88 176.552 514.082 176.419C514.285 176.287 514.516 176.186 514.774 176.119C515.034 176.051 515.307 176.004 515.592 175.976C515.928 175.941 516.198 175.908 516.404 175.878C516.609 175.846 516.758 175.798 516.851 175.736C516.943 175.673 516.99 175.58 516.99 175.458V175.435C516.99 175.197 516.915 175.013 516.764 174.883C516.617 174.753 516.406 174.688 516.133 174.688C515.845 174.688 515.616 174.751 515.446 174.879C515.276 175.004 515.163 175.162 515.108 175.352L513.628 175.232C513.703 174.882 513.851 174.579 514.071 174.323C514.291 174.065 514.576 173.867 514.924 173.73C515.274 173.589 515.68 173.519 516.141 173.519C516.461 173.519 516.768 173.557 517.061 173.632C517.357 173.707 517.618 173.824 517.846 173.981C518.077 174.139 518.258 174.342 518.391 174.59C518.524 174.835 518.59 175.13 518.59 175.473V179.364H517.072V178.564H517.027C516.935 178.744 516.811 178.903 516.655 179.041C516.5 179.176 516.314 179.283 516.096 179.361C515.878 179.436 515.626 179.473 515.341 179.473ZM515.799 178.369C516.034 178.369 516.242 178.322 516.423 178.23C516.603 178.135 516.744 178.007 516.847 177.847C516.95 177.686 517.001 177.505 517.001 177.302V176.69C516.951 176.722 516.882 176.752 516.794 176.78C516.709 176.805 516.613 176.829 516.505 176.851C516.398 176.871 516.29 176.89 516.182 176.908C516.074 176.923 515.977 176.936 515.889 176.949C515.701 176.976 515.537 177.02 515.397 177.08C515.257 177.14 515.148 177.222 515.07 177.325C514.993 177.425 514.954 177.55 514.954 177.7C514.954 177.918 515.033 178.085 515.19 178.2C515.351 178.312 515.554 178.369 515.799 178.369ZM519.862 179.364V171.671H521.462V174.564H521.511C521.581 174.408 521.682 174.251 521.815 174.09C521.95 173.928 522.125 173.792 522.341 173.685C522.559 173.574 522.829 173.519 523.152 173.519C523.573 173.519 523.961 173.63 524.317 173.85C524.672 174.068 524.956 174.397 525.169 174.838C525.382 175.276 525.489 175.826 525.489 176.487C525.489 177.13 525.385 177.674 525.177 178.117C524.971 178.558 524.691 178.892 524.335 179.12C523.982 179.345 523.587 179.458 523.148 179.458C522.838 179.458 522.574 179.407 522.356 179.304C522.14 179.201 521.964 179.073 521.826 178.917C521.688 178.759 521.583 178.6 521.511 178.44H521.439V179.364H519.862ZM521.428 176.479C521.428 176.822 521.475 177.122 521.571 177.377C521.666 177.633 521.804 177.832 521.984 177.974C522.164 178.115 522.383 178.185 522.641 178.185C522.902 178.185 523.122 178.113 523.302 177.971C523.483 177.825 523.619 177.625 523.712 177.37C523.807 177.112 523.855 176.815 523.855 176.479C523.855 176.146 523.808 175.853 523.716 175.6C523.623 175.347 523.486 175.15 523.306 175.007C523.126 174.864 522.904 174.793 522.641 174.793C522.381 174.793 522.16 174.862 521.98 174.999C521.802 175.137 521.666 175.332 521.571 175.585C521.475 175.838 521.428 176.136 521.428 176.479ZM529.186 179.477C528.592 179.477 528.081 179.357 527.653 179.116C527.227 178.873 526.899 178.53 526.669 178.087C526.439 177.641 526.323 177.114 526.323 176.506C526.323 175.912 526.439 175.391 526.669 174.943C526.899 174.495 527.224 174.145 527.642 173.895C528.063 173.645 528.556 173.519 529.122 173.519C529.502 173.519 529.857 173.581 530.185 173.703C530.515 173.824 530.803 174.005 531.049 174.248C531.297 174.491 531.49 174.797 531.627 175.165C531.765 175.53 531.834 175.959 531.834 176.449V176.889H526.962V175.897H530.328C530.328 175.667 530.278 175.463 530.177 175.285C530.077 175.107 529.938 174.968 529.76 174.868C529.585 174.765 529.381 174.714 529.148 174.714C528.905 174.714 528.69 174.77 528.502 174.883C528.317 174.993 528.171 175.142 528.066 175.33C527.961 175.515 527.907 175.722 527.905 175.95V176.893C527.905 177.178 527.957 177.425 528.063 177.633C528.17 177.84 528.322 178.001 528.517 178.113C528.712 178.226 528.944 178.282 529.212 178.282C529.39 178.282 529.553 178.257 529.7 178.207C529.848 178.157 529.975 178.082 530.08 177.982C530.185 177.882 530.265 177.759 530.32 177.614L531.8 177.711C531.725 178.067 531.571 178.378 531.338 178.643C531.108 178.906 530.81 179.111 530.444 179.259C530.081 179.404 529.662 179.477 529.186 179.477ZM534.478 171.671V179.364H532.878V171.671H534.478Z" fill="#D9DDE3"/>
</g>
<g clip-path="url(#clip2_4647_181329)">
<rect x="507.055" y="256.514" width="363" height="31.7336" rx="3.52596" fill="#373F49"/>
<path d="M518.229 268.554V267.59H524.96V268.554H522.138V276.565H521.051V268.554H518.229ZM528.343 276.706C527.695 276.706 527.135 276.563 526.665 276.276C526.197 275.987 525.837 275.584 525.582 275.067C525.331 274.547 525.206 273.942 525.206 273.252C525.206 272.563 525.331 271.955 525.582 271.429C525.837 270.9 526.19 270.488 526.643 270.193C527.099 269.895 527.631 269.746 528.238 269.746C528.589 269.746 528.935 269.805 529.277 269.922C529.619 270.039 529.93 270.228 530.21 270.491C530.491 270.751 530.714 271.096 530.881 271.526C531.047 271.955 531.131 272.484 531.131 273.112V273.55H525.942V272.656H530.079C530.079 272.277 530.003 271.938 529.851 271.64C529.702 271.342 529.489 271.106 529.211 270.934C528.936 270.762 528.612 270.675 528.238 270.675C527.826 270.675 527.47 270.778 527.169 270.982C526.871 271.184 526.642 271.447 526.481 271.771C526.32 272.095 526.24 272.443 526.24 272.814V273.41C526.24 273.918 526.328 274.349 526.503 274.703C526.681 275.053 526.928 275.321 527.243 275.505C527.559 275.686 527.926 275.777 528.343 275.777C528.615 275.777 528.861 275.739 529.08 275.663C529.302 275.584 529.493 275.467 529.654 275.312C529.814 275.154 529.939 274.959 530.026 274.725L531.025 275.005C530.92 275.344 530.744 275.642 530.495 275.899C530.247 276.153 529.94 276.352 529.575 276.495C529.21 276.636 528.799 276.706 528.343 276.706ZM533.294 269.834L534.907 272.586L536.52 269.834H537.712L535.538 273.2L537.712 276.565H536.52L534.907 273.954L533.294 276.565H532.102L534.241 273.2L532.102 269.834H533.294ZM542.115 269.834V270.711H538.627V269.834H542.115ZM539.643 268.221H540.678V274.637C540.678 274.929 540.72 275.148 540.805 275.295C540.892 275.438 541.003 275.534 541.138 275.584C541.275 275.631 541.42 275.654 541.572 275.654C541.686 275.654 541.779 275.648 541.852 275.636C541.925 275.622 541.984 275.61 542.027 275.601L542.238 276.53C542.168 276.557 542.07 276.583 541.944 276.609C541.819 276.638 541.659 276.653 541.467 276.653C541.174 276.653 540.888 276.59 540.608 276.465C540.33 276.339 540.099 276.148 539.915 275.891C539.734 275.633 539.643 275.309 539.643 274.918V268.221Z" fill="#5A697C"/>
<path d="M507.724 249.884V242.191H509.35V248.543H512.648V249.884H507.724ZM515.341 249.993C514.973 249.993 514.645 249.929 514.357 249.801C514.069 249.671 513.841 249.479 513.673 249.226C513.508 248.971 513.425 248.653 513.425 248.272C513.425 247.952 513.484 247.683 513.602 247.465C513.719 247.247 513.88 247.072 514.082 246.939C514.285 246.806 514.516 246.706 514.774 246.638C515.034 246.571 515.307 246.523 515.592 246.496C515.928 246.461 516.198 246.428 516.404 246.398C516.609 246.365 516.758 246.318 516.851 246.255C516.943 246.193 516.99 246.1 516.99 245.977V245.955C516.99 245.717 516.915 245.533 516.764 245.402C516.617 245.272 516.406 245.207 516.133 245.207C515.845 245.207 515.616 245.271 515.446 245.399C515.276 245.524 515.163 245.682 515.108 245.872L513.628 245.752C513.703 245.401 513.851 245.098 514.071 244.843C514.291 244.585 514.576 244.387 514.924 244.249C515.274 244.109 515.68 244.039 516.141 244.039C516.461 244.039 516.768 244.076 517.061 244.152C517.357 244.227 517.618 244.343 517.846 244.501C518.077 244.659 518.258 244.862 518.391 245.109C518.524 245.355 518.59 245.649 518.59 245.992V249.884H517.072V249.084H517.027C516.935 249.264 516.811 249.423 516.655 249.561C516.5 249.696 516.314 249.802 516.096 249.88C515.878 249.955 515.626 249.993 515.341 249.993ZM515.799 248.888C516.034 248.888 516.242 248.842 516.423 248.749C516.603 248.654 516.744 248.526 516.847 248.366C516.95 248.206 517.001 248.024 517.001 247.822V247.209C516.951 247.242 516.882 247.272 516.794 247.299C516.709 247.324 516.613 247.348 516.505 247.371C516.398 247.391 516.29 247.41 516.182 247.427C516.074 247.442 515.977 247.456 515.889 247.468C515.701 247.496 515.537 247.54 515.397 247.6C515.257 247.66 515.148 247.741 515.07 247.844C514.993 247.944 514.954 248.069 514.954 248.22C514.954 248.438 515.033 248.604 515.19 248.719C515.351 248.832 515.554 248.888 515.799 248.888ZM519.862 249.884V242.191H521.462V245.083H521.511C521.581 244.928 521.682 244.77 521.815 244.61C521.95 244.447 522.125 244.312 522.341 244.204C522.559 244.094 522.829 244.039 523.152 244.039C523.573 244.039 523.961 244.149 524.317 244.369C524.672 244.587 524.956 244.917 525.169 245.357C525.382 245.796 525.489 246.345 525.489 247.006C525.489 247.65 525.385 248.193 525.177 248.637C524.971 249.077 524.691 249.412 524.335 249.64C523.982 249.865 523.587 249.978 523.148 249.978C522.838 249.978 522.574 249.926 522.356 249.824C522.14 249.721 521.964 249.592 521.826 249.437C521.688 249.279 521.583 249.12 521.511 248.96H521.439V249.884H519.862ZM521.428 246.999C521.428 247.342 521.475 247.641 521.571 247.897C521.666 248.152 521.804 248.351 521.984 248.494C522.164 248.634 522.383 248.704 522.641 248.704C522.902 248.704 523.122 248.633 523.302 248.49C523.483 248.345 523.619 248.145 523.712 247.889C523.807 247.631 523.855 247.334 523.855 246.999C523.855 246.666 523.808 246.373 523.716 246.12C523.623 245.867 523.486 245.669 523.306 245.526C523.126 245.384 522.904 245.312 522.641 245.312C522.381 245.312 522.16 245.381 521.98 245.519C521.802 245.657 521.666 245.852 521.571 246.105C521.475 246.358 521.428 246.656 521.428 246.999ZM529.186 249.996C528.592 249.996 528.081 249.876 527.653 249.636C527.227 249.393 526.899 249.05 526.669 248.607C526.439 248.161 526.323 247.634 526.323 247.025C526.323 246.432 526.439 245.911 526.669 245.463C526.899 245.014 527.224 244.665 527.642 244.415C528.063 244.164 528.556 244.039 529.122 244.039C529.502 244.039 529.857 244.1 530.185 244.223C530.515 244.343 530.803 244.525 531.049 244.768C531.297 245.011 531.49 245.316 531.627 245.684C531.765 246.05 531.834 246.478 531.834 246.969V247.408H526.962V246.417H530.328C530.328 246.186 530.278 245.982 530.177 245.804C530.077 245.627 529.938 245.488 529.76 245.387C529.585 245.285 529.381 245.233 529.148 245.233C528.905 245.233 528.69 245.29 528.502 245.402C528.317 245.513 528.171 245.662 528.066 245.849C527.961 246.035 527.907 246.241 527.905 246.469V247.412C527.905 247.698 527.957 247.944 528.063 248.152C528.17 248.36 528.322 248.52 528.517 248.633C528.712 248.746 528.944 248.802 529.212 248.802C529.39 248.802 529.553 248.777 529.7 248.727C529.848 248.677 529.975 248.602 530.08 248.501C530.185 248.401 530.265 248.279 530.32 248.133L531.8 248.231C531.725 248.587 531.571 248.897 531.338 249.163C531.108 249.426 530.81 249.631 530.444 249.779C530.081 249.924 529.662 249.996 529.186 249.996ZM534.478 242.191V249.884H532.878V242.191H534.478Z" fill="#D9DDE3"/>
</g>
<path d="M508.51 322.403H507.371L510.666 313.428H511.788L515.084 322.403H513.944L511.262 314.848H511.192L508.51 322.403ZM508.931 318.897H513.524V319.861H508.931V318.897ZM518.883 322.543C518.322 322.543 517.827 322.401 517.398 322.118C516.968 321.832 516.632 321.428 516.39 320.908C516.147 320.385 516.026 319.768 516.026 319.055C516.026 318.348 516.147 317.734 516.39 317.214C516.632 316.694 516.97 316.292 517.402 316.009C517.834 315.726 518.334 315.584 518.901 315.584C519.339 315.584 519.685 315.657 519.939 315.803C520.197 315.946 520.392 316.11 520.527 316.294C520.664 316.475 520.771 316.624 520.847 316.741H520.934V313.428H521.969V322.403H520.969V321.369H520.847C520.771 321.491 520.663 321.646 520.522 321.833C520.382 322.017 520.182 322.182 519.922 322.328C519.662 322.471 519.316 322.543 518.883 322.543ZM519.024 321.614C519.438 321.614 519.789 321.506 520.075 321.29C520.362 321.071 520.579 320.768 520.728 320.383C520.877 319.994 520.952 319.546 520.952 319.037C520.952 318.535 520.879 318.095 520.733 317.718C520.587 317.338 520.37 317.043 520.084 316.833C519.798 316.62 519.444 316.513 519.024 316.513C518.585 316.513 518.22 316.625 517.928 316.85C517.639 317.072 517.421 317.375 517.275 317.757C517.132 318.137 517.06 318.564 517.06 319.037C517.06 319.516 517.133 319.952 517.279 320.343C517.428 320.732 517.647 321.041 517.937 321.272C518.229 321.5 518.591 321.614 519.024 321.614ZM529.511 315.671L527.021 322.403H525.97L523.48 315.671H524.602L526.46 321.036H526.531L528.389 315.671H529.511ZM532.652 322.561C532.225 322.561 531.838 322.48 531.49 322.32C531.143 322.156 530.867 321.921 530.662 321.614C530.458 321.304 530.355 320.93 530.355 320.492C530.355 320.106 530.431 319.794 530.583 319.554C530.735 319.312 530.938 319.122 531.192 318.985C531.447 318.847 531.727 318.745 532.034 318.678C532.343 318.608 532.655 318.552 532.967 318.511C533.376 318.459 533.708 318.419 533.962 318.393C534.219 318.364 534.406 318.316 534.523 318.248C534.643 318.181 534.703 318.064 534.703 317.898V317.863C534.703 317.43 534.584 317.094 534.348 316.855C534.114 316.615 533.759 316.495 533.283 316.495C532.789 316.495 532.402 316.603 532.121 316.82C531.841 317.036 531.644 317.267 531.53 317.512L530.548 317.161C530.723 316.752 530.957 316.434 531.249 316.206C531.544 315.975 531.866 315.815 532.213 315.724C532.564 315.631 532.909 315.584 533.248 315.584C533.464 315.584 533.712 315.61 533.993 315.663C534.276 315.712 534.549 315.816 534.812 315.974C535.078 316.132 535.299 316.37 535.474 316.688C535.649 317.007 535.737 317.433 535.737 317.968V322.403H534.703V321.491H534.65C534.58 321.637 534.463 321.794 534.3 321.96C534.136 322.127 533.918 322.268 533.647 322.385C533.375 322.502 533.043 322.561 532.652 322.561ZM532.809 321.632C533.219 321.632 533.563 321.551 533.844 321.39C534.127 321.23 534.34 321.022 534.484 320.768C534.63 320.514 534.703 320.247 534.703 319.966V319.02C534.659 319.072 534.562 319.12 534.413 319.164C534.267 319.205 534.098 319.242 533.905 319.274C533.715 319.303 533.53 319.329 533.349 319.353C533.17 319.373 533.026 319.391 532.915 319.405C532.646 319.44 532.395 319.497 532.161 319.576C531.93 319.652 531.743 319.768 531.6 319.922C531.46 320.074 531.39 320.282 531.39 320.545C531.39 320.904 531.523 321.176 531.788 321.36C532.057 321.541 532.398 321.632 532.809 321.632ZM538.659 318.353V322.403H537.625V315.671H538.624V316.723H538.711C538.869 316.381 539.109 316.107 539.43 315.899C539.752 315.689 540.166 315.584 540.675 315.584C541.131 315.584 541.529 315.677 541.871 315.864C542.213 316.048 542.479 316.329 542.669 316.706C542.859 317.08 542.954 317.553 542.954 318.126V322.403H541.919V318.196C541.919 317.667 541.782 317.255 541.507 316.96C541.233 316.662 540.856 316.513 540.377 316.513C540.047 316.513 539.752 316.584 539.492 316.728C539.234 316.871 539.031 317.08 538.882 317.354C538.733 317.629 538.659 317.962 538.659 318.353ZM547.578 322.543C546.947 322.543 546.404 322.394 545.948 322.096C545.492 321.798 545.142 321.388 544.896 320.865C544.651 320.342 544.528 319.744 544.528 319.072C544.528 318.389 544.654 317.785 544.905 317.262C545.159 316.736 545.513 316.326 545.965 316.031C546.421 315.733 546.953 315.584 547.561 315.584C548.034 315.584 548.461 315.671 548.84 315.847C549.22 316.022 549.531 316.267 549.774 316.583C550.016 316.899 550.167 317.267 550.225 317.687H549.191C549.112 317.381 548.937 317.109 548.665 316.872C548.396 316.633 548.034 316.513 547.578 316.513C547.175 316.513 546.821 316.618 546.518 316.828C546.217 317.036 545.982 317.329 545.812 317.709C545.646 318.086 545.562 318.529 545.562 319.037C545.562 319.557 545.644 320.01 545.808 320.396C545.974 320.781 546.208 321.081 546.509 321.294C546.813 321.507 547.169 321.614 547.578 321.614C547.847 321.614 548.091 321.567 548.31 321.474C548.529 321.38 548.715 321.246 548.867 321.071C549.019 320.895 549.127 320.685 549.191 320.44H550.225C550.167 320.837 550.022 321.195 549.791 321.513C549.563 321.829 549.261 322.08 548.884 322.267C548.51 322.451 548.075 322.543 547.578 322.543ZM554.559 322.543C553.911 322.543 553.351 322.4 552.881 322.114C552.413 321.824 552.053 321.421 551.798 320.904C551.547 320.384 551.422 319.779 551.422 319.09C551.422 318.4 551.547 317.793 551.798 317.267C552.053 316.738 552.406 316.326 552.859 316.031C553.315 315.733 553.846 315.584 554.454 315.584C554.805 315.584 555.151 315.642 555.493 315.759C555.835 315.876 556.146 316.066 556.426 316.329C556.707 316.589 556.93 316.934 557.097 317.363C557.263 317.793 557.347 318.321 557.347 318.949V319.388H552.158V318.494H556.295C556.295 318.114 556.219 317.775 556.067 317.477C555.918 317.179 555.705 316.944 555.427 316.771C555.152 316.599 554.828 316.513 554.454 316.513C554.042 316.513 553.686 316.615 553.385 316.82C553.087 317.021 552.858 317.284 552.697 317.608C552.536 317.933 552.456 318.28 552.456 318.651V319.247C552.456 319.756 552.543 320.187 552.719 320.54C552.897 320.891 553.144 321.158 553.459 321.342C553.775 321.523 554.142 321.614 554.559 321.614C554.831 321.614 555.076 321.576 555.296 321.5C555.518 321.421 555.709 321.304 555.87 321.149C556.03 320.992 556.155 320.796 556.242 320.562L557.241 320.843C557.136 321.182 556.959 321.48 556.711 321.737C556.463 321.991 556.156 322.19 555.791 322.333C555.426 322.473 555.015 322.543 554.559 322.543ZM561.462 322.543C560.901 322.543 560.405 322.401 559.976 322.118C559.547 321.832 559.211 321.428 558.968 320.908C558.726 320.385 558.604 319.768 558.604 319.055C558.604 318.348 558.726 317.734 558.968 317.214C559.211 316.694 559.548 316.292 559.98 316.009C560.413 315.726 560.912 315.584 561.479 315.584C561.917 315.584 562.264 315.657 562.518 315.803C562.775 315.946 562.971 316.11 563.105 316.294C563.242 316.475 563.349 316.624 563.425 316.741H563.513V313.428H564.547V322.403H563.548V321.369H563.425C563.349 321.491 563.241 321.646 563.101 321.833C562.96 322.017 562.76 322.182 562.5 322.328C562.24 322.471 561.894 322.543 561.462 322.543ZM561.602 321.614C562.017 321.614 562.367 321.506 562.654 321.29C562.94 321.071 563.158 320.768 563.307 320.383C563.456 319.994 563.53 319.546 563.53 319.037C563.53 318.535 563.457 318.095 563.311 317.718C563.165 317.338 562.949 317.043 562.662 316.833C562.376 316.62 562.023 316.513 561.602 316.513C561.164 316.513 560.798 316.625 560.506 316.85C560.217 317.072 559.999 317.375 559.853 317.757C559.71 318.137 559.639 318.564 559.639 319.037C559.639 319.516 559.712 319.952 559.858 320.343C560.007 320.732 560.226 321.041 560.515 321.272C560.807 321.5 561.169 321.614 561.602 321.614ZM575.104 315.671C575.051 315.227 574.838 314.883 574.464 314.637C574.09 314.392 573.632 314.269 573.088 314.269C572.691 314.269 572.343 314.333 572.045 314.462C571.75 314.59 571.519 314.767 571.353 314.992C571.189 315.217 571.107 315.473 571.107 315.759C571.107 315.999 571.164 316.205 571.278 316.377C571.395 316.546 571.544 316.688 571.725 316.802C571.906 316.913 572.096 317.005 572.295 317.078C572.494 317.148 572.676 317.205 572.843 317.249L573.754 317.495C573.988 317.556 574.248 317.641 574.534 317.749C574.824 317.857 575.1 318.004 575.363 318.191C575.629 318.375 575.848 318.612 576.02 318.901C576.192 319.191 576.279 319.546 576.279 319.966C576.279 320.451 576.151 320.889 575.897 321.281C575.646 321.672 575.278 321.984 574.793 322.214C574.311 322.445 573.725 322.561 573.036 322.561C572.393 322.561 571.836 322.457 571.366 322.249C570.898 322.042 570.53 321.753 570.262 321.382C569.996 321.011 569.845 320.58 569.81 320.089H570.932C570.961 320.428 571.075 320.708 571.274 320.93C571.475 321.149 571.73 321.313 572.036 321.421C572.346 321.526 572.679 321.579 573.036 321.579C573.45 321.579 573.823 321.512 574.153 321.377C574.483 321.24 574.745 321.05 574.938 320.808C575.13 320.562 575.227 320.276 575.227 319.949C575.227 319.651 575.144 319.408 574.977 319.221C574.81 319.034 574.591 318.882 574.32 318.765C574.048 318.649 573.754 318.546 573.439 318.459L572.334 318.143C571.633 317.942 571.078 317.654 570.669 317.28C570.26 316.906 570.056 316.416 570.056 315.812C570.056 315.309 570.191 314.871 570.463 314.497C570.738 314.12 571.106 313.828 571.567 313.62C572.032 313.41 572.551 313.305 573.123 313.305C573.702 313.305 574.216 313.409 574.666 313.616C575.116 313.821 575.472 314.101 575.735 314.458C576.001 314.814 576.141 315.219 576.156 315.671H575.104ZM580.748 322.543C580.099 322.543 579.539 322.4 579.069 322.114C578.602 321.824 578.241 321.421 577.987 320.904C577.735 320.384 577.61 319.779 577.61 319.09C577.61 318.4 577.735 317.793 577.987 317.267C578.241 316.738 578.594 316.326 579.047 316.031C579.503 315.733 580.035 315.584 580.642 315.584C580.993 315.584 581.339 315.642 581.681 315.759C582.023 315.876 582.334 316.066 582.614 316.329C582.895 316.589 583.118 316.934 583.285 317.363C583.451 317.793 583.535 318.321 583.535 318.949V319.388H578.346V318.494H582.483C582.483 318.114 582.407 317.775 582.255 317.477C582.106 317.179 581.893 316.944 581.615 316.771C581.341 316.599 581.016 316.513 580.642 316.513C580.23 316.513 579.874 316.615 579.573 316.82C579.275 317.021 579.046 317.284 578.885 317.608C578.724 317.933 578.644 318.28 578.644 318.651V319.247C578.644 319.756 578.732 320.187 578.907 320.54C579.085 320.891 579.332 321.158 579.648 321.342C579.963 321.523 580.33 321.614 580.748 321.614C581.019 321.614 581.265 321.576 581.484 321.5C581.706 321.421 581.897 321.304 582.058 321.149C582.219 320.992 582.343 320.796 582.43 320.562L583.43 320.843C583.324 321.182 583.148 321.48 582.899 321.737C582.651 321.991 582.344 322.19 581.979 322.333C581.614 322.473 581.203 322.543 580.748 322.543ZM588.035 315.671V316.548H584.547V315.671H588.035ZM585.564 314.059H586.598V320.475C586.598 320.767 586.64 320.986 586.725 321.132C586.813 321.275 586.924 321.372 587.058 321.421C587.196 321.468 587.34 321.491 587.492 321.491C587.606 321.491 587.699 321.485 587.773 321.474C587.846 321.459 587.904 321.447 587.948 321.439L588.158 322.368C588.088 322.394 587.99 322.42 587.865 322.447C587.739 322.476 587.58 322.49 587.387 322.49C587.095 322.49 586.808 322.428 586.528 322.302C586.25 322.176 586.02 321.985 585.836 321.728C585.654 321.471 585.564 321.147 585.564 320.755V314.059ZM592.519 315.671V316.548H589.03V315.671H592.519ZM590.047 314.059H591.081V320.475C591.081 320.767 591.124 320.986 591.208 321.132C591.296 321.275 591.407 321.372 591.541 321.421C591.679 321.468 591.823 321.491 591.975 321.491C592.089 321.491 592.183 321.485 592.256 321.474C592.329 321.459 592.387 321.447 592.431 321.439L592.641 322.368C592.571 322.394 592.473 322.42 592.348 322.447C592.222 322.476 592.063 322.49 591.87 322.49C591.578 322.49 591.292 322.428 591.011 322.302C590.734 322.176 590.503 321.985 590.319 321.728C590.138 321.471 590.047 321.147 590.047 320.755V314.059ZM594.074 322.403V315.671H595.109V322.403H594.074ZM594.6 314.55C594.399 314.55 594.225 314.481 594.079 314.344C593.936 314.206 593.864 314.041 593.864 313.848C593.864 313.656 593.936 313.49 594.079 313.353C594.225 313.216 594.399 313.147 594.6 313.147C594.802 313.147 594.974 313.216 595.117 313.353C595.264 313.49 595.337 313.656 595.337 313.848C595.337 314.041 595.264 314.206 595.117 314.344C594.974 314.481 594.802 314.55 594.6 314.55ZM598.037 318.353V322.403H597.003V315.671H598.002V316.723H598.09C598.248 316.381 598.487 316.107 598.809 315.899C599.13 315.689 599.545 315.584 600.053 315.584C600.509 315.584 600.908 315.677 601.25 315.864C601.591 316.048 601.857 316.329 602.047 316.706C602.237 317.08 602.332 317.553 602.332 318.126V322.403H601.298V318.196C601.298 317.667 601.16 317.255 600.886 316.96C600.611 316.662 600.234 316.513 599.755 316.513C599.425 316.513 599.13 316.584 598.87 316.728C598.613 316.871 598.41 317.08 598.261 317.354C598.112 317.629 598.037 317.962 598.037 318.353ZM606.939 325.067C606.439 325.067 606.01 325.003 605.651 324.875C605.291 324.749 604.992 324.582 604.752 324.375C604.516 324.17 604.327 323.951 604.187 323.718L605.011 323.139C605.104 323.262 605.223 323.402 605.366 323.56C605.509 323.72 605.705 323.859 605.953 323.976C606.204 324.096 606.533 324.156 606.939 324.156C607.482 324.156 607.931 324.024 608.284 323.761C608.638 323.498 608.815 323.086 608.815 322.526V321.158H608.727C608.651 321.281 608.543 321.433 608.403 321.614C608.265 321.792 608.067 321.951 607.807 322.092C607.55 322.229 607.202 322.298 606.764 322.298C606.22 322.298 605.732 322.169 605.3 321.912C604.87 321.655 604.53 321.281 604.279 320.79C604.031 320.299 603.906 319.703 603.906 319.002C603.906 318.313 604.028 317.712 604.27 317.201C604.513 316.687 604.85 316.289 605.282 316.009C605.715 315.726 606.214 315.584 606.781 315.584C607.219 315.584 607.567 315.657 607.824 315.803C608.084 315.946 608.283 316.11 608.42 316.294C608.56 316.475 608.669 316.624 608.745 316.741H608.85V315.671H609.849V322.596C609.849 323.174 609.717 323.645 609.454 324.007C609.194 324.372 608.844 324.639 608.403 324.809C607.964 324.981 607.477 325.067 606.939 325.067ZM606.904 321.369C607.319 321.369 607.669 321.274 607.956 321.084C608.242 320.894 608.46 320.621 608.609 320.264C608.758 319.908 608.832 319.481 608.832 318.985C608.832 318.5 608.759 318.072 608.613 317.701C608.467 317.329 608.251 317.039 607.964 316.828C607.678 316.618 607.325 316.513 606.904 316.513C606.466 316.513 606.1 316.624 605.808 316.846C605.519 317.068 605.301 317.366 605.155 317.74C605.012 318.114 604.941 318.529 604.941 318.985C604.941 319.452 605.014 319.865 605.16 320.225C605.309 320.581 605.528 320.862 605.817 321.066C606.109 321.268 606.472 321.369 606.904 321.369ZM616.51 317.179L615.581 317.442C615.523 317.287 615.436 317.137 615.323 316.991C615.212 316.842 615.06 316.719 614.867 316.622C614.674 316.526 614.427 316.478 614.126 316.478C613.714 316.478 613.371 316.573 613.096 316.763C612.825 316.95 612.689 317.188 612.689 317.477C612.689 317.734 612.782 317.937 612.969 318.086C613.156 318.235 613.448 318.359 613.846 318.459L614.845 318.704C615.447 318.85 615.895 319.074 616.19 319.375C616.485 319.673 616.633 320.057 616.633 320.527C616.633 320.913 616.522 321.258 616.3 321.561C616.081 321.865 615.774 322.105 615.379 322.28C614.985 322.455 614.526 322.543 614.003 322.543C613.317 322.543 612.749 322.394 612.299 322.096C611.849 321.798 611.564 321.363 611.444 320.79L612.426 320.545C612.519 320.907 612.696 321.179 612.956 321.36C613.219 321.541 613.562 321.632 613.986 321.632C614.468 321.632 614.851 321.529 615.134 321.325C615.42 321.117 615.564 320.869 615.564 320.58C615.564 320.346 615.482 320.15 615.318 319.993C615.155 319.832 614.903 319.712 614.564 319.633L613.442 319.37C612.826 319.224 612.373 318.998 612.084 318.691C611.798 318.381 611.654 317.994 611.654 317.53C611.654 317.15 611.761 316.814 611.974 316.522C612.191 316.229 612.484 316 612.855 315.834C613.229 315.667 613.653 315.584 614.126 315.584C614.792 315.584 615.315 315.73 615.695 316.022C616.078 316.314 616.349 316.7 616.51 317.179Z" fill="#798FFF"/>
<path fill-rule="evenodd" clip-rule="evenodd" d="M630.653 316.898C630.488 317.064 630.396 317.289 630.396 317.523C630.396 317.757 630.488 317.982 630.653 318.149L633.244 320.762C633.436 320.952 633.684 321.046 633.93 321.046C634.176 321.046 634.421 320.952 634.608 320.762L637.191 318.158C637.355 317.991 637.448 317.766 637.448 317.532C637.448 317.298 637.355 317.073 637.191 316.907C637.11 316.825 637.014 316.759 636.907 316.715C636.801 316.67 636.687 316.647 636.571 316.647C636.456 316.647 636.342 316.67 636.235 316.715C636.129 316.759 636.033 316.825 635.952 316.907L633.926 318.949L631.892 316.898C631.811 316.816 631.715 316.751 631.608 316.707C631.502 316.662 631.388 316.64 631.273 316.64C631.157 316.64 631.043 316.662 630.937 316.707C630.831 316.751 630.734 316.816 630.653 316.898Z" fill="#798FFF"/>
<rect width="363.174" height="31.7336" transform="translate(507.055 376.766)" fill="#262B31"/>
<rect x="507.055" y="376.766" width="69.2077" height="31.7336" rx="3.52596" fill="#373F49"/>
<path d="M529.702 390.576H528.335C528.282 390.284 528.185 390.027 528.041 389.805C527.898 389.583 527.723 389.395 527.516 389.24C527.308 389.085 527.076 388.968 526.819 388.889C526.565 388.81 526.294 388.771 526.008 388.771C525.491 388.771 525.028 388.901 524.619 389.161C524.213 389.421 523.891 389.802 523.655 390.305C523.421 390.807 523.304 391.421 523.304 392.145C523.304 392.876 523.421 393.492 523.655 393.995C523.891 394.497 524.214 394.877 524.623 395.134C525.032 395.391 525.492 395.52 526.004 395.52C526.287 395.52 526.556 395.482 526.81 395.406C527.067 395.327 527.299 395.211 527.507 395.06C527.714 394.908 527.889 394.722 528.033 394.503C528.179 394.281 528.28 394.027 528.335 393.74L529.702 393.745C529.629 394.186 529.488 394.592 529.277 394.963C529.07 395.331 528.802 395.65 528.475 395.918C528.151 396.184 527.78 396.39 527.362 396.536C526.944 396.682 526.489 396.756 525.995 396.756C525.218 396.756 524.525 396.571 523.918 396.203C523.31 395.832 522.831 395.302 522.48 394.613C522.132 393.923 521.959 393.101 521.959 392.145C521.959 391.187 522.134 390.365 522.485 389.678C522.835 388.988 523.314 388.46 523.922 388.092C524.53 387.72 525.221 387.535 525.995 387.535C526.471 387.535 526.915 387.604 527.327 387.741C527.742 387.875 528.114 388.074 528.445 388.337C528.775 388.597 529.048 388.915 529.264 389.292C529.48 389.666 529.626 390.094 529.702 390.576ZM533.176 396.782C532.75 396.782 532.364 396.703 532.02 396.545C531.675 396.384 531.402 396.152 531.2 395.848C531.001 395.545 530.902 395.172 530.902 394.731C530.902 394.351 530.975 394.038 531.121 393.793C531.267 393.548 531.464 393.353 531.713 393.21C531.961 393.067 532.239 392.959 532.545 392.886C532.852 392.813 533.165 392.757 533.483 392.719C533.886 392.673 534.214 392.635 534.465 392.605C534.716 392.573 534.899 392.522 535.013 392.452C535.127 392.382 535.184 392.268 535.184 392.11V392.079C535.184 391.697 535.076 391.4 534.859 391.19C534.646 390.98 534.328 390.874 533.904 390.874C533.463 390.874 533.115 390.972 532.861 391.168C532.61 391.361 532.436 391.576 532.339 391.812L531.108 391.532C531.254 391.123 531.467 390.793 531.748 390.541C532.031 390.287 532.357 390.103 532.725 389.989C533.093 389.872 533.48 389.814 533.886 389.814C534.155 389.814 534.44 389.846 534.741 389.91C535.045 389.972 535.328 390.085 535.591 390.252C535.857 390.419 536.075 390.657 536.244 390.966C536.414 391.273 536.498 391.672 536.498 392.163V396.633H535.219V395.713H535.166C535.081 395.882 534.954 396.048 534.785 396.212C534.615 396.376 534.398 396.512 534.132 396.62C533.866 396.728 533.548 396.782 533.176 396.782ZM533.461 395.73C533.824 395.73 534.133 395.658 534.39 395.515C534.65 395.372 534.848 395.185 534.982 394.954C535.119 394.721 535.188 394.471 535.188 394.205V393.337C535.141 393.384 535.051 393.428 534.916 393.469C534.785 393.507 534.634 393.54 534.465 393.57C534.295 393.596 534.13 393.621 533.97 393.644C533.809 393.664 533.675 393.682 533.567 393.697C533.312 393.729 533.08 393.783 532.87 393.859C532.662 393.935 532.496 394.044 532.37 394.187C532.247 394.328 532.186 394.515 532.186 394.748C532.186 395.073 532.306 395.318 532.545 395.485C532.785 395.648 533.09 395.73 533.461 395.73ZM539.554 392.636V396.633H538.244V389.901H539.501V390.997H539.585C539.74 390.641 539.982 390.354 540.312 390.138C540.645 389.922 541.064 389.814 541.57 389.814C542.029 389.814 542.43 389.91 542.775 390.103C543.12 390.293 543.387 390.576 543.577 390.953C543.767 391.33 543.862 391.796 543.862 392.351V396.633H542.552V392.509C542.552 392.021 542.424 391.64 542.17 391.365C541.916 391.088 541.567 390.949 541.123 390.949C540.819 390.949 540.549 391.015 540.312 391.146C540.078 391.278 539.893 391.47 539.756 391.725C539.621 391.976 539.554 392.28 539.554 392.636ZM548.455 396.769C547.803 396.769 547.242 396.621 546.772 396.326C546.304 396.028 545.945 395.618 545.694 395.095C545.442 394.572 545.317 393.973 545.317 393.298C545.317 392.614 545.445 392.011 545.702 391.488C545.96 390.962 546.322 390.551 546.789 390.256C547.257 389.961 547.808 389.814 548.442 389.814C548.953 389.814 549.409 389.909 549.809 390.099C550.209 390.286 550.532 390.549 550.777 390.887C551.026 391.226 551.173 391.622 551.22 392.075H549.945C549.875 391.76 549.714 391.488 549.463 391.26C549.214 391.032 548.881 390.918 548.463 390.918C548.098 390.918 547.778 391.015 547.504 391.207C547.232 391.397 547.02 391.669 546.868 392.023C546.716 392.373 546.64 392.788 546.64 393.267C546.64 393.758 546.715 394.182 546.864 394.538C547.013 394.894 547.223 395.171 547.495 395.366C547.77 395.562 548.092 395.66 548.463 395.66C548.712 395.66 548.937 395.615 549.138 395.524C549.343 395.431 549.514 395.298 549.651 395.125C549.791 394.953 549.889 394.745 549.945 394.503H551.22C551.173 394.938 551.032 395.327 550.795 395.669C550.558 396.011 550.241 396.279 549.844 396.475C549.449 396.671 548.986 396.769 548.455 396.769ZM555.522 396.769C554.859 396.769 554.288 396.627 553.809 396.344C553.333 396.057 552.965 395.656 552.704 395.138C552.447 394.618 552.319 394.009 552.319 393.311C552.319 392.621 552.447 392.014 552.704 391.488C552.965 390.962 553.327 390.551 553.791 390.256C554.259 389.961 554.805 389.814 555.43 389.814C555.81 389.814 556.178 389.877 556.535 390.002C556.891 390.128 557.211 390.325 557.494 390.594C557.778 390.863 558.001 391.212 558.165 391.641C558.329 392.068 558.41 392.586 558.41 393.197V393.662H553.059V392.68H557.126C557.126 392.335 557.056 392.03 556.916 391.764C556.776 391.495 556.579 391.283 556.324 391.129C556.073 390.974 555.778 390.896 555.439 390.896C555.071 390.896 554.75 390.987 554.475 391.168C554.203 391.346 553.993 391.58 553.844 391.869C553.698 392.155 553.625 392.467 553.625 392.803V393.57C553.625 394.019 553.704 394.402 553.861 394.718C554.022 395.033 554.246 395.274 554.532 395.441C554.818 395.604 555.153 395.686 555.536 395.686C555.784 395.686 556.01 395.651 556.215 395.581C556.419 395.508 556.596 395.4 556.745 395.257C556.894 395.114 557.008 394.937 557.087 394.726L558.327 394.95C558.228 395.315 558.05 395.635 557.792 395.91C557.538 396.181 557.218 396.393 556.833 396.545C556.45 396.694 556.013 396.769 555.522 396.769ZM561.175 387.658V396.633H559.864V387.658H561.175Z" fill="#D9DDE3"/>
<rect x="486.34" y="31.2928" width="404.604" height="401.448" rx="3.08521" stroke="#373F49" stroke-width="0.88149"/>
<rect x="34.1361" y="31.2928" width="404.604" height="401.448" rx="3.08521" fill="#262B31"/>
<rect width="363.174" height="24.6817" transform="translate(54.8511 55.5337)" fill="#262B31"/>
<path d="M55.854 72.9556V61.4161H63.4944V63.4276H58.2938V66.1772H62.9873V68.1888H58.2938V72.9556H55.854ZM68.3655 73.1246C67.4902 73.1246 66.7333 72.9387 66.0948 72.5668C65.4599 72.1911 64.9697 71.669 64.6242 71.0004C64.2786 70.328 64.1058 69.5486 64.1058 68.6621C64.1058 67.768 64.2786 66.9867 64.6242 66.3181C64.9697 65.6457 65.4599 65.1236 66.0948 64.7517C66.7333 64.3761 67.4902 64.1882 68.3655 64.1882C69.2407 64.1882 69.9957 64.3761 70.6306 64.7517C71.2691 65.1236 71.7612 65.6457 72.1068 66.3181C72.4524 66.9867 72.6252 67.768 72.6252 68.6621C72.6252 69.5486 72.4524 70.328 72.1068 71.0004C71.7612 71.669 71.2691 72.1911 70.6306 72.5668C69.9957 72.9387 69.2407 73.1246 68.3655 73.1246ZM68.3767 71.2652C68.7749 71.2652 69.1074 71.1525 69.3741 70.9271C69.6408 70.698 69.8417 70.3862 69.9769 69.9918C70.1159 69.5974 70.1854 69.1485 70.1854 68.6452C70.1854 68.1418 70.1159 67.6929 69.9769 67.2985C69.8417 66.9041 69.6408 66.5923 69.3741 66.3632C69.1074 66.134 68.7749 66.0195 68.3767 66.0195C67.9748 66.0195 67.6367 66.134 67.3625 66.3632C67.0921 66.5923 66.8874 66.9041 66.7484 67.2985C66.6131 67.6929 66.5455 68.1418 66.5455 68.6452C66.5455 69.1485 66.6131 69.5974 66.7484 69.9918C66.8874 70.3862 67.0921 70.698 67.3625 70.9271C67.6367 71.1525 67.9748 71.2652 68.3767 71.2652ZM74.1859 72.9556V64.3009H76.513V65.811H76.6031C76.7609 65.2738 77.0257 64.8681 77.3976 64.5939C77.7695 64.316 78.1977 64.177 78.6823 64.177C78.8025 64.177 78.9321 64.1845 79.0711 64.1995C79.2101 64.2145 79.3321 64.2352 79.4373 64.2615V66.3913C79.3246 66.3575 79.1687 66.3275 78.9696 66.3012C78.7706 66.2749 78.5884 66.2618 78.4231 66.2618C78.07 66.2618 77.7545 66.3388 77.4765 66.4928C77.2023 66.643 76.9844 66.8534 76.8229 67.1238C76.6651 67.3943 76.5862 67.7061 76.5862 68.0592V72.9556H74.1859ZM80.6783 72.9556V64.3009H82.9659V65.8279H83.0674C83.2477 65.3208 83.5482 64.9207 83.9689 64.6277C84.3896 64.3347 84.8929 64.1882 85.4789 64.1882C86.0724 64.1882 86.5777 64.3366 86.9946 64.6334C87.4116 64.9264 87.6895 65.3245 87.8285 65.8279H87.9187C88.0952 65.3321 88.4145 64.9358 88.8765 64.639C89.3423 64.3385 89.8926 64.1882 90.5275 64.1882C91.3351 64.1882 91.9906 64.4456 92.4939 64.9602C93.001 65.471 93.2546 66.196 93.2546 67.1351V72.9556H90.8599V67.6084C90.8599 67.1276 90.7322 66.767 90.4768 66.5266C90.2213 66.2862 89.902 66.166 89.5189 66.166C89.0831 66.166 88.7432 66.305 88.499 66.5829C88.2549 66.8571 88.1328 67.2196 88.1328 67.6704V72.9556H85.8057V67.5577C85.8057 67.1332 85.6837 66.7952 85.4395 66.5435C85.1991 66.2918 84.8817 66.166 84.4873 66.166C84.2206 66.166 83.9801 66.2336 83.766 66.3688C83.5557 66.5003 83.3885 66.6862 83.2646 66.9266C83.1406 67.1633 83.0786 67.4412 83.0786 67.7605V72.9556H80.6783ZM98.4285 63.4276V61.4161H107.906V63.4276H104.373V72.9556H101.961V63.4276H98.4285ZM109.421 72.9556V64.3009H111.822V72.9556H109.421ZM110.627 63.1853C110.27 63.1853 109.964 63.067 109.709 62.8303C109.457 62.5899 109.331 62.3026 109.331 61.9682C109.331 61.6377 109.457 61.3541 109.709 61.1174C109.964 60.877 110.27 60.7568 110.627 60.7568C110.984 60.7568 111.288 60.877 111.54 61.1174C111.795 61.3541 111.923 61.6377 111.923 61.9682C111.923 62.3026 111.795 62.5899 111.54 62.8303C111.288 63.067 110.984 63.1853 110.627 63.1853ZM118.348 64.3009V66.104H113.136V64.3009H118.348ZM114.319 62.2274H116.72V70.2961C116.72 70.5177 116.753 70.6905 116.821 70.8144C116.889 70.9347 116.982 71.0192 117.103 71.068C117.227 71.1168 117.369 71.1413 117.531 71.1413C117.644 71.1413 117.756 71.1319 117.869 71.1131C117.982 71.0905 118.068 71.0736 118.128 71.0624L118.506 72.8485C118.385 72.8861 118.216 72.9293 117.999 72.9781C117.781 73.0307 117.516 73.0626 117.204 73.0739C116.626 73.0964 116.119 73.0194 115.683 72.8429C115.251 72.6663 114.915 72.3921 114.674 72.0202C114.434 71.6484 114.315 71.1788 114.319 70.6116V62.2274ZM122.498 61.4161V72.9556H120.097V61.4161H122.498ZM128.365 73.1246C127.474 73.1246 126.708 72.9443 126.066 72.5837C125.427 72.2193 124.935 71.7047 124.59 71.0398C124.244 70.3712 124.071 69.5805 124.071 68.6677C124.071 67.7774 124.244 66.9961 124.59 66.3237C124.935 65.6513 125.422 65.1273 126.049 64.7517C126.68 64.3761 127.42 64.1882 128.269 64.1882C128.84 64.1882 129.371 64.2803 129.863 64.4643C130.359 64.6446 130.791 64.917 131.159 65.2813C131.531 65.6457 131.821 66.104 132.027 66.6562C132.234 67.2046 132.337 67.8469 132.337 68.5832V69.2424H125.029V67.7549H130.078C130.078 67.4093 130.002 67.1032 129.852 66.8365C129.702 66.5698 129.493 66.3613 129.227 66.211C128.964 66.057 128.658 65.98 128.308 65.98C127.944 65.98 127.621 66.0645 127.339 66.2336C127.061 66.3989 126.843 66.6224 126.686 66.9041C126.528 67.1821 126.447 67.492 126.443 67.8338V69.2481C126.443 69.6763 126.522 70.0463 126.68 70.3581C126.841 70.6698 127.069 70.9102 127.362 71.0793C127.655 71.2483 128.002 71.3328 128.404 71.3328C128.671 71.3328 128.915 71.2953 129.137 71.2201C129.358 71.145 129.548 71.0323 129.706 70.8821C129.863 70.7318 129.984 70.5477 130.066 70.3299L132.286 70.4764C132.174 71.0098 131.943 71.4756 131.593 71.8737C131.248 72.2682 130.801 72.5762 130.252 72.7978C129.708 73.0157 129.078 73.1246 128.365 73.1246Z" fill="#D9DDE3"/>
<path fill-rule="evenodd" clip-rule="evenodd" d="M428.066 41.7923C428.353 42.0792 428.353 42.5443 428.066 42.8311L419.252 51.646C418.965 51.9329 418.5 51.9329 418.213 51.646C417.926 51.3592 417.926 50.8941 418.213 50.6072L427.028 41.7923C427.314 41.5054 427.78 41.5054 428.066 41.7923Z" fill="#5A697C"/>
<path fill-rule="evenodd" clip-rule="evenodd" d="M418.213 41.7923C418.5 41.5054 418.965 41.5054 419.252 41.7923L428.066 50.6072C428.353 50.8941 428.353 51.3592 428.066 51.646C427.78 51.9329 427.314 51.9329 427.028 51.646L418.213 42.8311C417.926 42.5443 417.926 42.0792 418.213 41.7923Z" fill="#5A697C"/>
<g clip-path="url(#clip3_4647_181329)">
<rect x="54.8511" y="115.475" width="363" height="31.7336" rx="3.52596" fill="#373F49"/>
<path d="M66.025 127.516V126.552H72.7563V127.516H69.9341V135.527H68.8472V127.516H66.025ZM76.1396 135.667C75.491 135.667 74.9315 135.524 74.4611 135.238C73.9936 134.948 73.6328 134.545 73.3786 134.028C73.1274 133.508 73.0018 132.903 73.0018 132.214C73.0018 131.524 73.1274 130.917 73.3786 130.391C73.6328 129.862 73.9863 129.45 74.4392 129.155C74.895 128.857 75.4267 128.708 76.0344 128.708C76.385 128.708 76.7312 128.766 77.073 128.883C77.4148 129 77.726 129.19 78.0065 129.453C78.2869 129.713 78.5104 130.058 78.677 130.487C78.8435 130.917 78.9268 131.445 78.9268 132.074V132.512H73.738V131.618H77.875C77.875 131.238 77.799 130.899 77.6471 130.601C77.4981 130.303 77.2848 130.068 77.0073 129.895C76.7326 129.723 76.4083 129.637 76.0344 129.637C75.6224 129.637 75.266 129.739 74.9651 129.944C74.6671 130.145 74.4377 130.408 74.277 130.733C74.1163 131.057 74.036 131.404 74.036 131.776V132.372C74.036 132.88 74.1236 133.311 74.2989 133.664C74.4772 134.015 74.724 134.282 75.0396 134.466C75.3551 134.647 75.7218 134.738 76.1396 134.738C76.4113 134.738 76.6567 134.7 76.8758 134.624C77.0978 134.545 77.2892 134.428 77.4499 134.273C77.6106 134.116 77.7348 133.92 77.8224 133.686L78.8216 133.967C78.7164 134.306 78.5397 134.604 78.2913 134.861C78.043 135.115 77.7362 135.314 77.371 135.457C77.0058 135.597 76.5953 135.667 76.1396 135.667ZM81.0906 128.795L82.7033 131.548L84.316 128.795H85.508L83.3344 132.161L85.508 135.527H84.316L82.7033 132.915L81.0906 135.527H79.8986L82.0372 132.161L79.8986 128.795H81.0906ZM89.9113 128.795V129.672H86.4229V128.795H89.9113ZM87.4396 127.183H88.4738V133.599C88.4738 133.891 88.5162 134.11 88.6009 134.256C88.6886 134.399 88.7996 134.496 88.934 134.545C89.0713 134.592 89.2159 134.615 89.3678 134.615C89.4818 134.615 89.5753 134.609 89.6483 134.598C89.7214 134.583 89.7798 134.571 89.8236 134.563L90.034 135.492C89.9639 135.518 89.866 135.544 89.7404 135.571C89.6147 135.6 89.4555 135.615 89.2627 135.615C88.9705 135.615 88.6842 135.552 88.4037 135.426C88.1262 135.3 87.8954 135.109 87.7113 134.852C87.5302 134.595 87.4396 134.271 87.4396 133.879V127.183Z" fill="#5A697C"/>
<path d="M55.5197 108.845V101.152H57.1462V107.504H60.4443V108.845H55.5197ZM63.1366 108.954C62.7685 108.954 62.4405 108.89 62.1525 108.763C61.8645 108.632 61.6366 108.441 61.4688 108.188C61.3035 107.932 61.2209 107.614 61.2209 107.234C61.2209 106.913 61.2798 106.644 61.3974 106.426C61.5151 106.208 61.6754 106.033 61.8783 105.9C62.0811 105.768 62.3115 105.667 62.5694 105.6C62.8299 105.532 63.1028 105.485 63.3883 105.457C63.7239 105.422 63.9943 105.389 64.1997 105.359C64.405 105.327 64.554 105.279 64.6467 105.217C64.7393 105.154 64.7857 105.061 64.7857 104.939V104.916C64.7857 104.678 64.7105 104.494 64.5603 104.364C64.4125 104.234 64.2022 104.169 63.9292 104.169C63.6412 104.169 63.4121 104.232 63.2418 104.36C63.0715 104.485 62.9588 104.643 62.9037 104.833L61.4237 104.713C61.4989 104.363 61.6466 104.06 61.867 103.804C62.0874 103.546 62.3716 103.348 62.7197 103.211C63.0703 103.07 63.476 103 63.9367 103C64.2573 103 64.5641 103.038 64.857 103.113C65.1525 103.188 65.4142 103.305 65.6421 103.462C65.8725 103.62 66.0541 103.823 66.1868 104.071C66.3195 104.316 66.3859 104.611 66.3859 104.954V108.845H64.8683V108.045H64.8232C64.7306 108.225 64.6066 108.384 64.4514 108.522C64.2961 108.657 64.1095 108.764 63.8917 108.841C63.6738 108.917 63.4221 108.954 63.1366 108.954ZM63.5949 107.85C63.8303 107.85 64.0382 107.803 64.2185 107.711C64.3988 107.616 64.5403 107.488 64.6429 107.328C64.7456 107.167 64.7969 106.986 64.7969 106.783V106.171C64.7469 106.203 64.678 106.233 64.5903 106.261C64.5052 106.286 64.4088 106.31 64.3011 106.332C64.1934 106.352 64.0857 106.371 63.9781 106.389C63.8704 106.404 63.7727 106.417 63.6851 106.43C63.4972 106.457 63.3332 106.501 63.193 106.561C63.0527 106.621 62.9438 106.703 62.8662 106.806C62.7886 106.906 62.7497 107.031 62.7497 107.181C62.7497 107.399 62.8286 107.566 62.9864 107.681C63.1467 107.793 63.3495 107.85 63.5949 107.85ZM67.6574 108.845V101.152H69.2576V104.045H69.3064C69.3766 103.889 69.478 103.732 69.6107 103.571C69.7459 103.409 69.9212 103.273 70.1366 103.166C70.3545 103.055 70.6249 103 70.948 103C71.3687 103 71.7568 103.111 72.1124 103.331C72.468 103.549 72.7523 103.878 72.9651 104.319C73.178 104.757 73.2844 105.307 73.2844 105.968C73.2844 106.611 73.1805 107.155 72.9726 107.598C72.7673 108.039 72.4868 108.373 72.1312 108.601C71.7781 108.826 71.3824 108.939 70.9442 108.939C70.6337 108.939 70.3695 108.888 70.1516 108.785C69.9363 108.682 69.7597 108.553 69.622 108.398C69.4842 108.24 69.3791 108.081 69.3064 107.921H69.2351V108.845H67.6574ZM69.2238 105.96C69.2238 106.303 69.2714 106.603 69.3665 106.858C69.4617 107.114 69.5994 107.313 69.7797 107.455C69.96 107.596 70.1792 107.666 70.4371 107.666C70.6975 107.666 70.9179 107.594 71.0982 107.452C71.2785 107.306 71.415 107.106 71.5077 106.851C71.6028 106.593 71.6504 106.296 71.6504 105.96C71.6504 105.627 71.6041 105.334 71.5114 105.081C71.4188 104.828 71.2823 104.631 71.102 104.488C70.9217 104.345 70.7 104.274 70.4371 104.274C70.1767 104.274 69.9563 104.343 69.776 104.48C69.5982 104.618 69.4617 104.813 69.3665 105.066C69.2714 105.319 69.2238 105.617 69.2238 105.96ZM76.9816 108.958C76.3881 108.958 75.8772 108.838 75.449 108.597C75.0233 108.354 74.6952 108.011 74.4648 107.568C74.2345 107.122 74.1193 106.595 74.1193 105.987C74.1193 105.393 74.2345 104.872 74.4648 104.424C74.6952 103.976 75.0195 103.626 75.4377 103.376C75.8585 103.126 76.3518 103 76.9177 103C77.2984 103 77.6527 103.062 77.9808 103.184C78.3113 103.305 78.5993 103.486 78.8447 103.729C79.0927 103.972 79.2855 104.277 79.4232 104.646C79.561 105.011 79.6298 105.439 79.6298 105.93V106.37H74.7578V105.378H78.1235C78.1235 105.148 78.0734 104.944 77.9733 104.766C77.8731 104.588 77.7341 104.449 77.5563 104.349C77.381 104.246 77.1769 104.195 76.944 104.195C76.7011 104.195 76.4858 104.251 76.2979 104.364C76.1126 104.474 75.9674 104.623 75.8622 104.811C75.757 104.996 75.7032 105.203 75.7007 105.431V106.374C75.7007 106.659 75.7533 106.906 75.8585 107.114C75.9661 107.321 76.1176 107.482 76.313 107.594C76.5083 107.707 76.7399 107.763 77.0079 107.763C77.1857 107.763 77.3485 107.738 77.4962 107.688C77.644 107.638 77.7704 107.563 77.8756 107.463C77.9808 107.363 78.0609 107.24 78.116 107.095L79.596 107.192C79.5209 107.548 79.3669 107.859 79.134 108.124C78.9036 108.387 78.6056 108.592 78.24 108.74C77.8769 108.885 77.4574 108.958 76.9816 108.958ZM82.2743 101.152V108.845H80.6741V101.152H82.2743Z" fill="#D9DDE3"/>
</g>
<g clip-path="url(#clip4_4647_181329)">
<rect x="54.8511" y="185.994" width="363" height="31.7336" rx="3.52596" fill="#373F49"/>
<path d="M66.025 198.035V197.071H72.7563V198.035H69.9341V206.046H68.8472V198.035H66.025ZM76.1396 206.186C75.491 206.186 74.9315 206.043 74.4611 205.757C73.9936 205.467 73.6328 205.064 73.3786 204.547C73.1274 204.027 73.0018 203.422 73.0018 202.733C73.0018 202.043 73.1274 201.436 73.3786 200.91C73.6328 200.381 73.9863 199.969 74.4392 199.674C74.895 199.376 75.4267 199.227 76.0344 199.227C76.385 199.227 76.7312 199.285 77.073 199.402C77.4148 199.519 77.726 199.709 78.0065 199.972C78.2869 200.232 78.5104 200.577 78.677 201.006C78.8435 201.436 78.9268 201.964 78.9268 202.593V203.031H73.738V202.137H77.875C77.875 201.757 77.799 201.418 77.6471 201.12C77.4981 200.822 77.2848 200.587 77.0073 200.415C76.7326 200.242 76.4083 200.156 76.0344 200.156C75.6224 200.156 75.266 200.258 74.9651 200.463C74.6671 200.664 74.4377 200.927 74.277 201.252C74.1163 201.576 74.036 201.924 74.036 202.295V202.891C74.036 203.399 74.1236 203.83 74.2989 204.183C74.4772 204.534 74.724 204.801 75.0396 204.985C75.3551 205.166 75.7218 205.257 76.1396 205.257C76.4113 205.257 76.6567 205.219 76.8758 205.143C77.0978 205.064 77.2892 204.947 77.4499 204.793C77.6106 204.635 77.7348 204.439 77.8224 204.205L78.8216 204.486C78.7164 204.825 78.5397 205.123 78.2913 205.38C78.043 205.634 77.7362 205.833 77.371 205.976C77.0058 206.116 76.5953 206.186 76.1396 206.186ZM81.0906 199.315L82.7033 202.067L84.316 199.315H85.508L83.3344 202.68L85.508 206.046H84.316L82.7033 203.434L81.0906 206.046H79.8986L82.0372 202.68L79.8986 199.315H81.0906ZM89.9113 199.315V200.191H86.4229V199.315H89.9113ZM87.4396 197.702H88.4738V204.118C88.4738 204.41 88.5162 204.629 88.6009 204.775C88.6886 204.918 88.7996 205.015 88.934 205.064C89.0713 205.111 89.2159 205.134 89.3678 205.134C89.4818 205.134 89.5753 205.129 89.6483 205.117C89.7214 205.102 89.7798 205.091 89.8236 205.082L90.034 206.011C89.9639 206.037 89.866 206.063 89.7404 206.09C89.6147 206.119 89.4555 206.134 89.2627 206.134C88.9705 206.134 88.6842 206.071 88.4037 205.945C88.1262 205.819 87.8954 205.628 87.7113 205.371C87.5302 205.114 87.4396 204.79 87.4396 204.398V197.702Z" fill="#5A697C"/>
<path d="M55.5197 179.364V171.671H57.1462V178.023H60.4443V179.364H55.5197ZM63.1366 179.473C62.7685 179.473 62.4405 179.409 62.1525 179.282C61.8645 179.151 61.6366 178.96 61.4688 178.707C61.3035 178.451 61.2209 178.133 61.2209 177.753C61.2209 177.432 61.2798 177.163 61.3974 176.945C61.5151 176.727 61.6754 176.552 61.8783 176.419C62.0811 176.287 62.3115 176.186 62.5694 176.119C62.8299 176.051 63.1028 176.004 63.3883 175.976C63.7239 175.941 63.9943 175.908 64.1997 175.878C64.405 175.846 64.554 175.798 64.6467 175.736C64.7393 175.673 64.7857 175.58 64.7857 175.458V175.435C64.7857 175.197 64.7105 175.013 64.5603 174.883C64.4125 174.753 64.2022 174.688 63.9292 174.688C63.6412 174.688 63.4121 174.751 63.2418 174.879C63.0715 175.004 62.9588 175.162 62.9037 175.352L61.4237 175.232C61.4989 174.882 61.6466 174.579 61.867 174.323C62.0874 174.065 62.3716 173.867 62.7197 173.73C63.0703 173.589 63.476 173.519 63.9367 173.519C64.2573 173.519 64.5641 173.557 64.857 173.632C65.1525 173.707 65.4142 173.824 65.6421 173.981C65.8725 174.139 66.0541 174.342 66.1868 174.59C66.3195 174.835 66.3859 175.13 66.3859 175.473V179.364H64.8683V178.564H64.8232C64.7306 178.744 64.6066 178.903 64.4514 179.041C64.2961 179.176 64.1095 179.283 63.8917 179.361C63.6738 179.436 63.4221 179.473 63.1366 179.473ZM63.5949 178.369C63.8303 178.369 64.0382 178.322 64.2185 178.23C64.3988 178.135 64.5403 178.007 64.6429 177.847C64.7456 177.686 64.7969 177.505 64.7969 177.302V176.69C64.7469 176.722 64.678 176.752 64.5903 176.78C64.5052 176.805 64.4088 176.829 64.3011 176.851C64.1934 176.871 64.0857 176.89 63.9781 176.908C63.8704 176.923 63.7727 176.936 63.6851 176.949C63.4972 176.976 63.3332 177.02 63.193 177.08C63.0527 177.14 62.9438 177.222 62.8662 177.325C62.7886 177.425 62.7497 177.55 62.7497 177.7C62.7497 177.918 62.8286 178.085 62.9864 178.2C63.1467 178.312 63.3495 178.369 63.5949 178.369ZM67.6574 179.364V171.671H69.2576V174.564H69.3064C69.3766 174.408 69.478 174.251 69.6107 174.09C69.7459 173.928 69.9212 173.792 70.1366 173.685C70.3545 173.574 70.6249 173.519 70.948 173.519C71.3687 173.519 71.7568 173.63 72.1124 173.85C72.468 174.068 72.7523 174.397 72.9651 174.838C73.178 175.276 73.2844 175.826 73.2844 176.487C73.2844 177.13 73.1805 177.674 72.9726 178.117C72.7673 178.558 72.4868 178.892 72.1312 179.12C71.7781 179.345 71.3824 179.458 70.9442 179.458C70.6337 179.458 70.3695 179.407 70.1516 179.304C69.9363 179.201 69.7597 179.073 69.622 178.917C69.4842 178.759 69.3791 178.6 69.3064 178.44H69.2351V179.364H67.6574ZM69.2238 176.479C69.2238 176.822 69.2714 177.122 69.3665 177.377C69.4617 177.633 69.5994 177.832 69.7797 177.974C69.96 178.115 70.1792 178.185 70.4371 178.185C70.6975 178.185 70.9179 178.113 71.0982 177.971C71.2785 177.825 71.415 177.625 71.5077 177.37C71.6028 177.112 71.6504 176.815 71.6504 176.479C71.6504 176.146 71.6041 175.853 71.5114 175.6C71.4188 175.347 71.2823 175.15 71.102 175.007C70.9217 174.864 70.7 174.793 70.4371 174.793C70.1767 174.793 69.9563 174.862 69.776 174.999C69.5982 175.137 69.4617 175.332 69.3665 175.585C69.2714 175.838 69.2238 176.136 69.2238 176.479ZM76.9816 179.477C76.3881 179.477 75.8772 179.357 75.449 179.116C75.0233 178.873 74.6952 178.53 74.4648 178.087C74.2345 177.641 74.1193 177.114 74.1193 176.506C74.1193 175.912 74.2345 175.391 74.4648 174.943C74.6952 174.495 75.0195 174.145 75.4377 173.895C75.8585 173.645 76.3518 173.519 76.9177 173.519C77.2984 173.519 77.6527 173.581 77.9808 173.703C78.3113 173.824 78.5993 174.005 78.8447 174.248C79.0927 174.491 79.2855 174.797 79.4232 175.165C79.561 175.53 79.6298 175.959 79.6298 176.449V176.889H74.7578V175.897H78.1235C78.1235 175.667 78.0734 175.463 77.9733 175.285C77.8731 175.107 77.7341 174.968 77.5563 174.868C77.381 174.765 77.1769 174.714 76.944 174.714C76.7011 174.714 76.4858 174.77 76.2979 174.883C76.1126 174.993 75.9674 175.142 75.8622 175.33C75.757 175.515 75.7032 175.722 75.7007 175.95V176.893C75.7007 177.178 75.7533 177.425 75.8585 177.633C75.9661 177.84 76.1176 178.001 76.313 178.113C76.5083 178.226 76.7399 178.282 77.0079 178.282C77.1857 178.282 77.3485 178.257 77.4962 178.207C77.644 178.157 77.7704 178.082 77.8756 177.982C77.9808 177.882 78.0609 177.759 78.116 177.614L79.596 177.711C79.5209 178.067 79.3669 178.378 79.134 178.643C78.9036 178.906 78.6056 179.111 78.24 179.259C77.8769 179.404 77.4574 179.477 76.9816 179.477ZM82.2743 171.671V179.364H80.6741V171.671H82.2743Z" fill="#D9DDE3"/>
</g>
<g clip-path="url(#clip5_4647_181329)">
<rect x="54.8511" y="256.514" width="363" height="31.7336" rx="3.52596" fill="#373F49"/>
<path d="M66.025 268.554V267.59H72.7563V268.554H69.9341V276.565H68.8472V268.554H66.025ZM76.1396 276.706C75.491 276.706 74.9315 276.563 74.4611 276.276C73.9936 275.987 73.6328 275.584 73.3786 275.067C73.1274 274.547 73.0018 273.942 73.0018 273.252C73.0018 272.563 73.1274 271.955 73.3786 271.429C73.6328 270.9 73.9863 270.488 74.4392 270.193C74.895 269.895 75.4267 269.746 76.0344 269.746C76.385 269.746 76.7312 269.805 77.073 269.922C77.4148 270.039 77.726 270.228 78.0065 270.491C78.2869 270.751 78.5104 271.096 78.677 271.526C78.8435 271.955 78.9268 272.484 78.9268 273.112V273.55H73.738V272.656H77.875C77.875 272.277 77.799 271.938 77.6471 271.64C77.4981 271.342 77.2848 271.106 77.0073 270.934C76.7326 270.762 76.4083 270.675 76.0344 270.675C75.6224 270.675 75.266 270.778 74.9651 270.982C74.6671 271.184 74.4377 271.447 74.277 271.771C74.1163 272.095 74.036 272.443 74.036 272.814V273.41C74.036 273.918 74.1236 274.349 74.2989 274.703C74.4772 275.053 74.724 275.321 75.0396 275.505C75.3551 275.686 75.7218 275.777 76.1396 275.777C76.4113 275.777 76.6567 275.739 76.8758 275.663C77.0978 275.584 77.2892 275.467 77.4499 275.312C77.6106 275.154 77.7348 274.959 77.8224 274.725L78.8216 275.005C78.7164 275.344 78.5397 275.642 78.2913 275.899C78.043 276.153 77.7362 276.352 77.371 276.495C77.0058 276.636 76.5953 276.706 76.1396 276.706ZM81.0906 269.834L82.7033 272.586L84.316 269.834H85.508L83.3344 273.2L85.508 276.565H84.316L82.7033 273.954L81.0906 276.565H79.8986L82.0372 273.2L79.8986 269.834H81.0906ZM89.9113 269.834V270.711H86.4229V269.834H89.9113ZM87.4396 268.221H88.4738V274.637C88.4738 274.929 88.5162 275.148 88.6009 275.295C88.6886 275.438 88.7996 275.534 88.934 275.584C89.0713 275.631 89.2159 275.654 89.3678 275.654C89.4818 275.654 89.5753 275.648 89.6483 275.636C89.7214 275.622 89.7798 275.61 89.8236 275.601L90.034 276.53C89.9639 276.557 89.866 276.583 89.7404 276.609C89.6147 276.638 89.4555 276.653 89.2627 276.653C88.9705 276.653 88.6842 276.59 88.4037 276.465C88.1262 276.339 87.8954 276.148 87.7113 275.891C87.5302 275.633 87.4396 275.309 87.4396 274.918V268.221Z" fill="#5A697C"/>
<path d="M55.5197 249.884V242.191H57.1462V248.543H60.4443V249.884H55.5197ZM63.1366 249.993C62.7685 249.993 62.4405 249.929 62.1525 249.801C61.8645 249.671 61.6366 249.479 61.4688 249.226C61.3035 248.971 61.2209 248.653 61.2209 248.272C61.2209 247.952 61.2798 247.683 61.3974 247.465C61.5151 247.247 61.6754 247.072 61.8783 246.939C62.0811 246.806 62.3115 246.706 62.5694 246.638C62.8299 246.571 63.1028 246.523 63.3883 246.496C63.7239 246.461 63.9943 246.428 64.1997 246.398C64.405 246.365 64.554 246.318 64.6467 246.255C64.7393 246.193 64.7857 246.1 64.7857 245.977V245.955C64.7857 245.717 64.7105 245.533 64.5603 245.402C64.4125 245.272 64.2022 245.207 63.9292 245.207C63.6412 245.207 63.4121 245.271 63.2418 245.399C63.0715 245.524 62.9588 245.682 62.9037 245.872L61.4237 245.752C61.4989 245.401 61.6466 245.098 61.867 244.843C62.0874 244.585 62.3716 244.387 62.7197 244.249C63.0703 244.109 63.476 244.039 63.9367 244.039C64.2573 244.039 64.5641 244.076 64.857 244.152C65.1525 244.227 65.4142 244.343 65.6421 244.501C65.8725 244.659 66.0541 244.862 66.1868 245.109C66.3195 245.355 66.3859 245.649 66.3859 245.992V249.884H64.8683V249.084H64.8232C64.7306 249.264 64.6066 249.423 64.4514 249.561C64.2961 249.696 64.1095 249.802 63.8917 249.88C63.6738 249.955 63.4221 249.993 63.1366 249.993ZM63.5949 248.888C63.8303 248.888 64.0382 248.842 64.2185 248.749C64.3988 248.654 64.5403 248.526 64.6429 248.366C64.7456 248.206 64.7969 248.024 64.7969 247.822V247.209C64.7469 247.242 64.678 247.272 64.5903 247.299C64.5052 247.324 64.4088 247.348 64.3011 247.371C64.1934 247.391 64.0857 247.41 63.9781 247.427C63.8704 247.442 63.7727 247.456 63.6851 247.468C63.4972 247.496 63.3332 247.54 63.193 247.6C63.0527 247.66 62.9438 247.741 62.8662 247.844C62.7886 247.944 62.7497 248.069 62.7497 248.22C62.7497 248.438 62.8286 248.604 62.9864 248.719C63.1467 248.832 63.3495 248.888 63.5949 248.888ZM67.6574 249.884V242.191H69.2576V245.083H69.3064C69.3766 244.928 69.478 244.77 69.6107 244.61C69.7459 244.447 69.9212 244.312 70.1366 244.204C70.3545 244.094 70.6249 244.039 70.948 244.039C71.3687 244.039 71.7568 244.149 72.1124 244.369C72.468 244.587 72.7523 244.917 72.9651 245.357C73.178 245.796 73.2844 246.345 73.2844 247.006C73.2844 247.65 73.1805 248.193 72.9726 248.637C72.7673 249.077 72.4868 249.412 72.1312 249.64C71.7781 249.865 71.3824 249.978 70.9442 249.978C70.6337 249.978 70.3695 249.926 70.1516 249.824C69.9363 249.721 69.7597 249.592 69.622 249.437C69.4842 249.279 69.3791 249.12 69.3064 248.96H69.2351V249.884H67.6574ZM69.2238 246.999C69.2238 247.342 69.2714 247.641 69.3665 247.897C69.4617 248.152 69.5994 248.351 69.7797 248.494C69.96 248.634 70.1792 248.704 70.4371 248.704C70.6975 248.704 70.9179 248.633 71.0982 248.49C71.2785 248.345 71.415 248.145 71.5077 247.889C71.6028 247.631 71.6504 247.334 71.6504 246.999C71.6504 246.666 71.6041 246.373 71.5114 246.12C71.4188 245.867 71.2823 245.669 71.102 245.526C70.9217 245.384 70.7 245.312 70.4371 245.312C70.1767 245.312 69.9563 245.381 69.776 245.519C69.5982 245.657 69.4617 245.852 69.3665 246.105C69.2714 246.358 69.2238 246.656 69.2238 246.999ZM76.9816 249.996C76.3881 249.996 75.8772 249.876 75.449 249.636C75.0233 249.393 74.6952 249.05 74.4648 248.607C74.2345 248.161 74.1193 247.634 74.1193 247.025C74.1193 246.432 74.2345 245.911 74.4648 245.463C74.6952 245.014 75.0195 244.665 75.4377 244.415C75.8585 244.164 76.3518 244.039 76.9177 244.039C77.2984 244.039 77.6527 244.1 77.9808 244.223C78.3113 244.343 78.5993 244.525 78.8447 244.768C79.0927 245.011 79.2855 245.316 79.4232 245.684C79.561 246.05 79.6298 246.478 79.6298 246.969V247.408H74.7578V246.417H78.1235C78.1235 246.186 78.0734 245.982 77.9733 245.804C77.8731 245.627 77.7341 245.488 77.5563 245.387C77.381 245.285 77.1769 245.233 76.944 245.233C76.7011 245.233 76.4858 245.29 76.2979 245.402C76.1126 245.513 75.9674 245.662 75.8622 245.849C75.757 246.035 75.7032 246.241 75.7007 246.469V247.412C75.7007 247.698 75.7533 247.944 75.8585 248.152C75.9661 248.36 76.1176 248.52 76.313 248.633C76.5083 248.746 76.7399 248.802 77.0079 248.802C77.1857 248.802 77.3485 248.777 77.4962 248.727C77.644 248.677 77.7704 248.602 77.8756 248.501C77.9808 248.401 78.0609 248.279 78.116 248.133L79.596 248.231C79.5209 248.587 79.3669 248.897 79.134 249.163C78.9036 249.426 78.6056 249.631 78.24 249.779C77.8769 249.924 77.4574 249.996 76.9816 249.996ZM82.2743 242.191V249.884H80.6741V242.191H82.2743Z" fill="#D9DDE3"/>
</g>
<rect x="58.377" y="313.114" width="10.5779" height="10.5779" rx="1.76298" fill="#5854F7" stroke="#5854F7" stroke-width="1.76298"/>
<path fill-rule="evenodd" clip-rule="evenodd" d="M61.6554 317.79C61.5741 317.706 61.4768 317.639 61.3693 317.593C61.2618 317.547 61.1461 317.522 61.029 317.521C60.912 317.52 60.7959 317.543 60.6876 317.587C60.5793 317.631 60.4808 317.697 60.3981 317.779C60.3153 317.862 60.2499 317.961 60.2055 318.069C60.1612 318.177 60.1389 318.293 60.1399 318.41C60.1409 318.527 60.1653 318.643 60.2115 318.751C60.2577 318.858 60.3248 318.956 60.409 319.037L62.172 320.8C62.3373 320.965 62.5615 321.058 62.7952 321.058C63.0289 321.058 63.2531 320.965 63.4184 320.8L66.9444 317.274C67.0286 317.193 67.0957 317.095 67.1419 316.988C67.1881 316.88 67.2124 316.764 67.2134 316.647C67.2145 316.53 67.1922 316.414 67.1478 316.306C67.1035 316.198 67.0381 316.099 66.9553 316.016C66.8725 315.934 66.7741 315.868 66.6658 315.824C66.5574 315.78 66.4414 315.757 66.3243 315.758C66.2073 315.759 66.0916 315.784 65.9841 315.83C65.8765 315.876 65.7793 315.943 65.6979 316.027L62.7952 318.93L61.6554 317.79Z" fill="white"/>
<path d="M80.9877 322.403H79.8482L83.1438 313.428H84.2657L87.5613 322.403H86.4219L83.7398 314.848H83.6697L80.9877 322.403ZM81.4084 318.897H86.0011V319.861H81.4084V318.897ZM91.5537 322.543C90.9226 322.543 90.3792 322.394 89.9234 322.096C89.4676 321.798 89.117 321.388 88.8716 320.865C88.6262 320.342 88.5035 319.744 88.5035 319.072C88.5035 318.389 88.6291 317.785 88.8804 317.262C89.1346 316.736 89.4881 316.326 89.9409 316.031C90.3967 315.733 90.9284 315.584 91.5361 315.584C92.0094 315.584 92.436 315.671 92.8158 315.847C93.1956 316.022 93.5067 316.267 93.7492 316.583C93.9917 316.899 94.1422 317.267 94.2006 317.687H93.1664C93.0875 317.381 92.9122 317.109 92.6405 316.872C92.3717 316.633 92.0094 316.513 91.5537 316.513C91.1505 316.513 90.797 316.618 90.4931 316.828C90.1922 317.036 89.957 317.329 89.7875 317.709C89.621 318.086 89.5377 318.529 89.5377 319.037C89.5377 319.557 89.6196 320.01 89.7832 320.396C89.9497 320.781 90.1834 321.081 90.4843 321.294C90.7882 321.507 91.1446 321.614 91.5537 321.614C91.8224 321.614 92.0664 321.567 92.2855 321.474C92.5046 321.38 92.6902 321.246 92.8421 321.071C92.994 320.895 93.1021 320.685 93.1664 320.44H94.2006C94.1422 320.837 93.9976 321.195 93.7668 321.513C93.5389 321.829 93.2365 322.08 92.8596 322.267C92.4856 322.451 92.0503 322.543 91.5537 322.543ZM98.64 315.671V316.548H95.1516V315.671H98.64ZM96.1683 314.059H97.2026V320.475C97.2026 320.767 97.2449 320.986 97.3297 321.132C97.4173 321.275 97.5283 321.372 97.6627 321.421C97.8 321.468 97.9447 321.491 98.0966 321.491C98.2105 321.491 98.304 321.485 98.3771 321.474C98.4501 321.459 98.5085 321.447 98.5524 321.439L98.7627 322.368C98.6926 322.394 98.5947 322.42 98.4691 322.447C98.3435 322.476 98.1842 322.49 97.9914 322.49C97.6992 322.49 97.4129 322.428 97.1325 322.302C96.8549 322.176 96.6241 321.985 96.44 321.728C96.2589 321.471 96.1683 321.147 96.1683 320.755V314.059ZM100.196 322.403V315.671H101.23V322.403H100.196ZM100.722 314.55C100.52 314.55 100.346 314.481 100.2 314.344C100.057 314.206 99.9854 314.041 99.9854 313.848C99.9854 313.656 100.057 313.49 100.2 313.353C100.346 313.216 100.52 313.147 100.722 313.147C100.923 313.147 101.096 313.216 101.239 313.353C101.385 313.49 101.458 313.656 101.458 313.848C101.458 314.041 101.385 314.206 101.239 314.344C101.096 314.481 100.923 314.55 100.722 314.55ZM108.629 315.671L106.139 322.403H105.088L102.598 315.671H103.72L105.578 321.036H105.649L107.507 315.671H108.629ZM111.77 322.561C111.343 322.561 110.956 322.48 110.608 322.32C110.261 322.156 109.985 321.921 109.78 321.614C109.576 321.304 109.473 320.93 109.473 320.492C109.473 320.106 109.549 319.794 109.701 319.554C109.853 319.312 110.056 319.122 110.31 318.985C110.565 318.847 110.845 318.745 111.152 318.678C111.461 318.608 111.773 318.552 112.085 318.511C112.494 318.459 112.826 318.419 113.08 318.393C113.337 318.364 113.524 318.316 113.641 318.248C113.761 318.181 113.821 318.064 113.821 317.898V317.863C113.821 317.43 113.702 317.094 113.466 316.855C113.232 316.615 112.877 316.495 112.401 316.495C111.907 316.495 111.52 316.603 111.239 316.82C110.959 317.036 110.762 317.267 110.648 317.512L109.666 317.161C109.841 316.752 110.075 316.434 110.367 316.206C110.662 315.975 110.984 315.815 111.331 315.724C111.682 315.631 112.027 315.584 112.366 315.584C112.582 315.584 112.83 315.61 113.111 315.663C113.394 315.712 113.667 315.816 113.93 315.974C114.196 316.132 114.417 316.37 114.592 316.688C114.767 317.007 114.855 317.433 114.855 317.968V322.403H113.821V321.491H113.768C113.698 321.637 113.581 321.794 113.417 321.96C113.254 322.127 113.036 322.268 112.765 322.385C112.493 322.502 112.161 322.561 111.77 322.561ZM111.927 321.632C112.336 321.632 112.681 321.551 112.962 321.39C113.245 321.23 113.458 321.022 113.602 320.768C113.748 320.514 113.821 320.247 113.821 319.966V319.02C113.777 319.072 113.68 319.12 113.531 319.164C113.385 319.205 113.216 319.242 113.023 319.274C112.833 319.303 112.648 319.329 112.466 319.353C112.288 319.373 112.144 319.391 112.033 319.405C111.764 319.44 111.513 319.497 111.279 319.576C111.048 319.652 110.861 319.768 110.718 319.922C110.578 320.074 110.508 320.282 110.508 320.545C110.508 320.904 110.64 321.176 110.906 321.36C111.175 321.541 111.516 321.632 111.927 321.632ZM119.67 315.671V316.548H116.182V315.671H119.67ZM117.198 314.059H118.233V320.475C118.233 320.767 118.275 320.986 118.36 321.132C118.447 321.275 118.558 321.372 118.693 321.421C118.83 321.468 118.975 321.491 119.127 321.491C119.241 321.491 119.334 321.485 119.407 321.474C119.48 321.459 119.539 321.447 119.582 321.439L119.793 322.368C119.723 322.394 119.625 322.42 119.499 322.447C119.374 322.476 119.214 322.49 119.021 322.49C118.729 322.49 118.443 322.428 118.163 322.302C117.885 322.176 117.654 321.985 117.47 321.728C117.289 321.471 117.198 321.147 117.198 320.755V314.059ZM123.976 322.543C123.327 322.543 122.768 322.4 122.297 322.114C121.83 321.824 121.469 321.421 121.215 320.904C120.964 320.384 120.838 319.779 120.838 319.09C120.838 318.4 120.964 317.793 121.215 317.267C121.469 316.738 121.823 316.326 122.275 316.031C122.731 315.733 123.263 315.584 123.871 315.584C124.221 315.584 124.567 315.642 124.909 315.759C125.251 315.876 125.562 316.066 125.843 316.329C126.123 316.589 126.347 316.934 126.513 317.363C126.68 317.793 126.763 318.321 126.763 318.949V319.388H121.574V318.494H125.711C125.711 318.114 125.635 317.775 125.483 317.477C125.334 317.179 125.121 316.944 124.844 316.771C124.569 316.599 124.245 316.513 123.871 316.513C123.459 316.513 123.102 316.615 122.801 316.82C122.503 317.021 122.274 317.284 122.113 317.608C121.953 317.933 121.872 318.28 121.872 318.651V319.247C121.872 319.756 121.96 320.187 122.135 320.54C122.313 320.891 122.56 321.158 122.876 321.342C123.191 321.523 123.558 321.614 123.976 321.614C124.247 321.614 124.493 321.576 124.712 321.5C124.934 321.421 125.125 321.304 125.286 321.149C125.447 320.992 125.571 320.796 125.659 320.562L126.658 320.843C126.553 321.182 126.376 321.48 126.128 321.737C125.879 321.991 125.572 322.19 125.207 322.333C124.842 322.473 124.432 322.543 123.976 322.543ZM132.316 322.403H131.176L134.472 313.428H135.594L138.889 322.403H137.75L135.068 314.848H134.998L132.316 322.403ZM132.736 318.897H137.329V319.861H132.736V318.897ZM142.881 322.543C142.25 322.543 141.707 322.394 141.251 322.096C140.795 321.798 140.445 321.388 140.199 320.865C139.954 320.342 139.831 319.744 139.831 319.072C139.831 318.389 139.957 317.785 140.208 317.262C140.462 316.736 140.816 316.326 141.269 316.031C141.725 315.733 142.256 315.584 142.864 315.584C143.337 315.584 143.764 315.671 144.144 315.847C144.523 316.022 144.835 316.267 145.077 316.583C145.32 316.899 145.47 317.267 145.528 317.687H144.494C144.415 317.381 144.24 317.109 143.968 316.872C143.7 316.633 143.337 316.513 142.881 316.513C142.478 316.513 142.125 316.618 141.821 316.828C141.52 317.036 141.285 317.329 141.115 317.709C140.949 318.086 140.866 318.529 140.866 319.037C140.866 319.557 140.947 320.01 141.111 320.396C141.278 320.781 141.511 321.081 141.812 321.294C142.116 321.507 142.472 321.614 142.881 321.614C143.15 321.614 143.394 321.567 143.613 321.474C143.832 321.38 144.018 321.246 144.17 321.071C144.322 320.895 144.43 320.685 144.494 320.44H145.528C145.47 320.837 145.325 321.195 145.095 321.513C144.867 321.829 144.564 322.08 144.187 322.267C143.813 322.451 143.378 322.543 142.881 322.543ZM149.775 322.543C149.144 322.543 148.601 322.394 148.145 322.096C147.689 321.798 147.338 321.388 147.093 320.865C146.848 320.342 146.725 319.744 146.725 319.072C146.725 318.389 146.85 317.785 147.102 317.262C147.356 316.736 147.709 316.326 148.162 316.031C148.618 315.733 149.15 315.584 149.757 315.584C150.231 315.584 150.657 315.671 151.037 315.847C151.417 316.022 151.728 316.267 151.971 316.583C152.213 316.899 152.364 317.267 152.422 317.687H151.388C151.309 317.381 151.134 317.109 150.862 316.872C150.593 316.633 150.231 316.513 149.775 316.513C149.372 316.513 149.018 316.618 148.714 316.828C148.414 317.036 148.178 317.329 148.009 317.709C147.842 318.086 147.759 318.529 147.759 319.037C147.759 319.557 147.841 320.01 148.005 320.396C148.171 320.781 148.405 321.081 148.706 321.294C149.01 321.507 149.366 321.614 149.775 321.614C150.044 321.614 150.288 321.567 150.507 321.474C150.726 321.38 150.912 321.246 151.063 321.071C151.215 320.895 151.323 320.685 151.388 320.44H152.422C152.364 320.837 152.219 321.195 151.988 321.513C151.76 321.829 151.458 322.08 151.081 322.267C150.707 322.451 150.272 322.543 149.775 322.543ZM156.669 322.543C156.061 322.543 155.528 322.398 155.069 322.109C154.613 321.82 154.257 321.415 154 320.895C153.745 320.375 153.618 319.768 153.618 319.072C153.618 318.371 153.745 317.759 154 317.236C154.257 316.713 154.613 316.307 155.069 316.018C155.528 315.728 156.061 315.584 156.669 315.584C157.276 315.584 157.808 315.728 158.264 316.018C158.722 316.307 159.079 316.713 159.333 317.236C159.59 317.759 159.719 318.371 159.719 319.072C159.719 319.768 159.59 320.375 159.333 320.895C159.079 321.415 158.722 321.82 158.264 322.109C157.808 322.398 157.276 322.543 156.669 322.543ZM156.669 321.614C157.13 321.614 157.51 321.496 157.808 321.259C158.106 321.022 158.327 320.711 158.47 320.326C158.613 319.94 158.684 319.522 158.684 319.072C158.684 318.622 158.613 318.203 158.47 317.814C158.327 317.426 158.106 317.112 157.808 316.872C157.51 316.633 157.13 316.513 156.669 316.513C156.207 316.513 155.827 316.633 155.529 316.872C155.231 317.112 155.011 317.426 154.867 317.814C154.724 318.203 154.653 318.622 154.653 319.072C154.653 319.522 154.724 319.94 154.867 320.326C155.011 320.711 155.231 321.022 155.529 321.259C155.827 321.496 156.207 321.614 156.669 321.614ZM165.54 319.651V315.671H166.574V322.403H165.54V321.263H165.47C165.312 321.605 165.066 321.896 164.733 322.136C164.4 322.372 163.979 322.49 163.471 322.49C163.05 322.49 162.676 322.398 162.349 322.214C162.022 322.027 161.765 321.747 161.578 321.373C161.391 320.996 161.297 320.521 161.297 319.949V315.671H162.332V319.879C162.332 320.369 162.469 320.761 162.744 321.053C163.021 321.345 163.375 321.491 163.804 321.491C164.061 321.491 164.323 321.426 164.589 321.294C164.857 321.163 165.082 320.961 165.264 320.689C165.448 320.418 165.54 320.071 165.54 319.651ZM169.502 318.353V322.403H168.468V315.671H169.467V316.723H169.555C169.713 316.381 169.952 316.107 170.274 315.899C170.595 315.689 171.01 315.584 171.518 315.584C171.974 315.584 172.373 315.677 172.715 315.864C173.057 316.048 173.322 316.329 173.512 316.706C173.702 317.08 173.797 317.553 173.797 318.126V322.403H172.763V318.196C172.763 317.667 172.626 317.255 172.351 316.96C172.076 316.662 171.699 316.513 171.22 316.513C170.89 316.513 170.595 316.584 170.335 316.728C170.078 316.871 169.875 317.08 169.726 317.354C169.577 317.629 169.502 317.962 169.502 318.353ZM178.615 315.671V316.548H175.126V315.671H178.615ZM176.143 314.059H177.177V320.475C177.177 320.767 177.219 320.986 177.304 321.132C177.392 321.275 177.503 321.372 177.637 321.421C177.775 321.468 177.919 321.491 178.071 321.491C178.185 321.491 178.279 321.485 178.352 321.474C178.425 321.459 178.483 321.447 178.527 321.439L178.737 322.368C178.667 322.394 178.569 322.42 178.444 322.447C178.318 322.476 178.159 322.49 177.966 322.49C177.674 322.49 177.387 322.428 177.107 322.302C176.829 322.176 176.599 321.985 176.415 321.728C176.233 321.471 176.143 321.147 176.143 320.755V314.059Z" fill="#D9DDE3"/>
<rect width="363.174" height="31.7336" transform="translate(54.8511 376.766)" fill="#262B31"/>
<rect x="335.54" y="376.766" width="82.3115" height="31.7336" rx="3.52596" fill="#5854F7"/>
<path d="M359.24 396.633H357.206L360.305 387.658H362.75L365.844 396.633H363.81L361.562 389.709H361.492L359.24 396.633ZM359.113 393.105H363.916V394.586H359.113V393.105ZM369.617 396.764C368.928 396.764 368.335 396.618 367.838 396.326C367.344 396.031 366.964 395.622 366.698 395.099C366.436 394.576 366.304 393.974 366.304 393.293C366.304 392.604 366.437 391.999 366.703 391.479C366.972 390.956 367.353 390.549 367.847 390.256C368.34 389.961 368.928 389.814 369.608 389.814C370.196 389.814 370.71 389.92 371.151 390.134C371.592 390.347 371.941 390.646 372.198 391.032C372.456 391.418 372.597 391.871 372.624 392.391H370.862C370.812 392.055 370.681 391.784 370.467 391.58C370.257 391.372 369.981 391.269 369.639 391.269C369.35 391.269 369.097 391.348 368.881 391.505C368.668 391.66 368.501 391.887 368.381 392.185C368.262 392.483 368.202 392.843 368.202 393.267C368.202 393.697 368.26 394.062 368.377 394.363C368.497 394.664 368.665 394.893 368.881 395.051C369.097 395.209 369.35 395.287 369.639 395.287C369.852 395.287 370.044 395.244 370.213 395.156C370.386 395.068 370.527 394.941 370.638 394.775C370.752 394.605 370.827 394.402 370.862 394.166H372.624C372.594 394.68 372.454 395.133 372.203 395.524C371.954 395.913 371.611 396.216 371.173 396.436C370.735 396.655 370.216 396.764 369.617 396.764ZM377.399 389.901V391.304H373.346V389.901H377.399ZM374.266 388.289H376.133V394.564C376.133 394.737 376.159 394.871 376.212 394.967C376.264 395.061 376.337 395.127 376.431 395.165C376.527 395.203 376.638 395.222 376.764 395.222C376.851 395.222 376.939 395.214 377.027 395.2C377.114 395.182 377.182 395.169 377.228 395.16L377.522 396.55C377.428 396.579 377.297 396.612 377.128 396.65C376.958 396.691 376.752 396.716 376.51 396.725C376.06 396.742 375.665 396.682 375.326 396.545C374.99 396.408 374.729 396.195 374.542 395.905C374.355 395.616 374.263 395.251 374.266 394.81V388.289ZM378.615 396.633V389.901H380.482V396.633H378.615ZM379.553 389.034C379.276 389.034 379.038 388.942 378.839 388.758C378.643 388.571 378.545 388.347 378.545 388.087C378.545 387.83 378.643 387.609 378.839 387.425C379.038 387.238 379.276 387.145 379.553 387.145C379.831 387.145 380.067 387.238 380.263 387.425C380.462 387.609 380.561 387.83 380.561 388.087C380.561 388.347 380.462 388.571 380.263 388.758C380.067 388.942 379.831 389.034 379.553 389.034ZM385.019 396.764C384.338 396.764 383.75 396.62 383.253 396.33C382.759 396.038 382.378 395.632 382.109 395.112C381.84 394.589 381.706 393.983 381.706 393.293C381.706 392.598 381.84 391.99 382.109 391.47C382.378 390.947 382.759 390.541 383.253 390.252C383.75 389.96 384.338 389.814 385.019 389.814C385.7 389.814 386.287 389.96 386.781 390.252C387.278 390.541 387.66 390.947 387.929 391.47C388.198 391.99 388.332 392.598 388.332 393.293C388.332 393.983 388.198 394.589 387.929 395.112C387.66 395.632 387.278 396.038 386.781 396.33C386.287 396.62 385.7 396.764 385.019 396.764ZM385.028 395.318C385.338 395.318 385.596 395.23 385.804 395.055C386.011 394.877 386.167 394.634 386.273 394.328C386.381 394.021 386.435 393.672 386.435 393.28C386.435 392.889 386.381 392.54 386.273 392.233C386.167 391.926 386.011 391.684 385.804 391.505C385.596 391.327 385.338 391.238 385.028 391.238C384.715 391.238 384.452 391.327 384.239 391.505C384.029 391.684 383.869 391.926 383.761 392.233C383.656 392.54 383.604 392.889 383.604 393.28C383.604 393.672 383.656 394.021 383.761 394.328C383.869 394.634 384.029 394.877 384.239 395.055C384.452 395.23 384.715 395.318 385.028 395.318ZM391.413 392.741V396.633H389.546V389.901H391.325V391.089H391.404C391.553 390.698 391.803 390.388 392.154 390.16C392.504 389.929 392.929 389.814 393.429 389.814C393.896 389.814 394.304 389.916 394.652 390.121C394.999 390.325 395.27 390.617 395.462 390.997C395.655 391.374 395.752 391.824 395.752 392.347V396.633H393.885V392.68C393.888 392.268 393.782 391.947 393.569 391.716C393.356 391.482 393.062 391.365 392.688 391.365C392.437 391.365 392.215 391.419 392.022 391.527C391.832 391.635 391.683 391.793 391.575 392.001C391.47 392.205 391.416 392.452 391.413 392.741Z" fill="white"/>
<rect x="54.8511" y="376.766" width="69.2077" height="31.7336" rx="3.52596" fill="#373F49"/>
<path d="M77.498 390.576H76.1307C76.0781 390.284 75.9802 390.027 75.8371 389.805C75.6939 389.583 75.5186 389.395 75.3112 389.24C75.1037 389.085 74.8715 388.968 74.6144 388.889C74.3602 388.81 74.0899 388.771 73.8036 388.771C73.2865 388.771 72.8234 388.901 72.4144 389.161C72.0083 389.421 71.6869 389.802 71.4503 390.305C71.2165 390.807 71.0997 391.421 71.0997 392.145C71.0997 392.876 71.2165 393.492 71.4503 393.995C71.6869 394.497 72.0098 394.877 72.4188 395.134C72.8278 395.391 73.288 395.52 73.7992 395.52C74.0826 395.52 74.3514 395.482 74.6056 395.406C74.8627 395.327 75.095 395.211 75.3024 395.06C75.5098 394.908 75.6851 394.722 75.8283 394.503C75.9744 394.281 76.0752 394.027 76.1307 393.74L77.498 393.745C77.4249 394.186 77.2832 394.592 77.0729 394.963C76.8655 395.331 76.5981 395.65 76.2709 395.918C75.9466 396.184 75.5756 396.39 75.1578 396.536C74.74 396.682 74.2842 396.756 73.7905 396.756C73.0133 396.756 72.3209 396.571 71.7132 396.203C71.1055 395.832 70.6264 395.302 70.2758 394.613C69.9281 393.923 69.7543 393.101 69.7543 392.145C69.7543 391.187 69.9296 390.365 70.2802 389.678C70.6308 388.988 71.1099 388.46 71.7176 388.092C72.3253 387.72 73.0162 387.535 73.7905 387.535C74.2667 387.535 74.7108 387.604 75.1227 387.741C75.5376 387.875 75.9101 388.074 76.2402 388.337C76.5704 388.597 76.8435 388.915 77.0597 389.292C77.2759 389.666 77.422 390.094 77.498 390.576ZM80.9721 396.782C80.5456 396.782 80.1599 396.703 79.8152 396.545C79.4704 396.384 79.1973 396.152 78.9957 395.848C78.797 395.545 78.6977 395.172 78.6977 394.731C78.6977 394.351 78.7707 394.038 78.9168 393.793C79.0629 393.548 79.2601 393.353 79.5084 393.21C79.7568 393.067 80.0343 392.959 80.3411 392.886C80.6478 392.813 80.9605 392.757 81.2789 392.719C81.6821 392.673 82.0093 392.635 82.2606 392.605C82.5118 392.573 82.6944 392.522 82.8084 392.452C82.9223 392.382 82.9793 392.268 82.9793 392.11V392.079C82.9793 391.697 82.8712 391.4 82.655 391.19C82.4417 390.98 82.1233 390.874 81.6996 390.874C81.2585 390.874 80.9108 390.972 80.6566 391.168C80.4053 391.361 80.2315 391.576 80.1351 391.812L78.9036 391.532C79.0497 391.123 79.263 390.793 79.5435 390.541C79.8269 390.287 80.1526 390.103 80.5208 389.989C80.8889 389.872 81.276 389.814 81.6821 389.814C81.9509 389.814 82.2357 389.846 82.5367 389.91C82.8405 389.972 83.1239 390.085 83.3868 390.252C83.6527 390.419 83.8704 390.657 84.0398 390.966C84.2093 391.273 84.294 391.672 84.294 392.163V396.633H83.0143V395.713H82.9618C82.877 395.882 82.7499 396.048 82.5805 396.212C82.411 396.376 82.1934 396.512 81.9275 396.62C81.6616 396.728 81.3432 396.782 80.9721 396.782ZM81.257 395.73C81.6193 395.73 81.929 395.658 82.1861 395.515C82.4461 395.372 82.6433 395.185 82.7777 394.954C82.915 394.721 82.9837 394.471 82.9837 394.205V393.337C82.9369 393.384 82.8463 393.428 82.712 393.469C82.5805 393.507 82.43 393.54 82.2606 393.57C82.0911 393.596 81.926 393.621 81.7654 393.644C81.6047 393.664 81.4703 393.682 81.3622 393.697C81.108 393.729 80.8757 393.783 80.6654 393.859C80.4579 393.935 80.2914 394.044 80.1658 394.187C80.0431 394.328 79.9817 394.515 79.9817 394.748C79.9817 395.073 80.1015 395.318 80.3411 395.485C80.5806 395.648 80.886 395.73 81.257 395.73ZM87.3496 392.636V396.633H86.0393V389.901H87.297V390.997H87.3803C87.5352 390.641 87.7777 390.354 88.1078 390.138C88.4409 389.922 88.8601 389.814 89.3655 389.814C89.8242 389.814 90.226 389.91 90.5707 390.103C90.9155 390.293 91.1828 390.576 91.3727 390.953C91.5626 391.33 91.6575 391.796 91.6575 392.351V396.633H90.3472V392.509C90.3472 392.021 90.2201 391.64 89.9659 391.365C89.7118 391.088 89.3626 390.949 88.9185 390.949C88.6147 390.949 88.3444 391.015 88.1078 391.146C87.8741 391.278 87.6885 391.47 87.5512 391.725C87.4168 391.976 87.3496 392.28 87.3496 392.636ZM96.2503 396.769C95.5988 396.769 95.0378 396.621 94.5675 396.326C94.1 396.028 93.7406 395.618 93.4894 395.095C93.2381 394.572 93.1125 393.973 93.1125 393.298C93.1125 392.614 93.241 392.011 93.4982 391.488C93.7553 390.962 94.1175 390.551 94.585 390.256C95.0524 389.961 95.6032 389.814 96.2372 389.814C96.7484 389.814 97.2042 389.909 97.6045 390.099C98.0047 390.286 98.3276 390.549 98.573 390.887C98.8213 391.226 98.9689 391.622 99.0156 392.075H97.7403C97.6702 391.76 97.5095 391.488 97.2583 391.26C97.0099 391.032 96.6769 390.918 96.2591 390.918C95.8939 390.918 95.574 391.015 95.2993 391.207C95.0276 391.397 94.8158 391.669 94.6639 392.023C94.5119 392.373 94.436 392.788 94.436 393.267C94.436 393.758 94.5105 394.182 94.6595 394.538C94.8085 394.894 95.0188 395.171 95.2906 395.366C95.5652 395.562 95.888 395.66 96.2591 395.66C96.5074 395.66 96.7324 395.615 96.934 395.524C97.1385 395.431 97.3094 395.298 97.4467 395.125C97.5869 394.953 97.6848 394.745 97.7403 394.503H99.0156C98.9689 394.938 98.8272 395.327 98.5905 395.669C98.3539 396.011 98.0369 396.279 97.6395 396.475C97.2451 396.671 96.782 396.769 96.2503 396.769ZM103.318 396.769C102.655 396.769 102.084 396.627 101.605 396.344C101.128 396.057 100.76 395.656 100.5 395.138C100.243 394.618 100.114 394.009 100.114 393.311C100.114 392.621 100.243 392.014 100.5 391.488C100.76 390.962 101.122 390.551 101.587 390.256C102.054 389.961 102.601 389.814 103.226 389.814C103.606 389.814 103.974 389.877 104.33 390.002C104.687 390.128 105.007 390.325 105.29 390.594C105.574 390.863 105.797 391.212 105.961 391.641C106.124 392.068 106.206 392.586 106.206 393.197V393.662H100.855V392.68H104.922C104.922 392.335 104.852 392.03 104.712 391.764C104.571 391.495 104.374 391.283 104.12 391.129C103.869 390.974 103.574 390.896 103.235 390.896C102.867 390.896 102.545 390.987 102.271 391.168C101.999 391.346 101.789 391.58 101.64 391.869C101.493 392.155 101.42 392.467 101.42 392.803V393.57C101.42 394.019 101.499 394.402 101.657 394.718C101.818 395.033 102.041 395.274 102.328 395.441C102.614 395.604 102.948 395.686 103.331 395.686C103.58 395.686 103.806 395.651 104.01 395.581C104.215 395.508 104.392 395.4 104.541 395.257C104.69 395.114 104.804 394.937 104.883 394.726L106.123 394.95C106.023 395.315 105.845 395.635 105.588 395.91C105.334 396.181 105.014 396.393 104.628 396.545C104.246 396.694 103.809 396.769 103.318 396.769ZM108.97 387.658V396.633H107.66V387.658H108.97Z" fill="#D9DDE3"/>
<rect x="34.1361" y="31.2928" width="404.604" height="401.448" rx="3.08521" stroke="#373F49" stroke-width="0.88149"/>
<rect x="0.639475" y="0.440745" width="922.92" height="472.478" rx="3.9667" stroke="#7B61FF" stroke-width="0.88149" stroke-dasharray="8.81 4.41"/>
<defs>
<clipPath id="clip0_4647_181329">
<rect width="363.174" height="49.3634" fill="white" transform="translate(507.055 97.8452)"/>
</clipPath>
<clipPath id="clip1_4647_181329">
<rect width="363.174" height="49.3634" fill="white" transform="translate(507.055 168.364)"/>
</clipPath>
<clipPath id="clip2_4647_181329">
<rect width="363.174" height="49.3634" fill="white" transform="translate(507.055 238.884)"/>
</clipPath>
<clipPath id="clip3_4647_181329">
<rect width="363.174" height="49.3634" fill="white" transform="translate(54.8511 97.8452)"/>
</clipPath>
<clipPath id="clip4_4647_181329">
<rect width="363.174" height="49.3634" fill="white" transform="translate(54.8511 168.364)"/>
</clipPath>
<clipPath id="clip5_4647_181329">
<rect width="363.174" height="49.3634" fill="white" transform="translate(54.8511 238.884)"/>
</clipPath>
</defs>
</svg>
