<svg width="409" height="191" viewBox="0 0 409 191" fill="none" xmlns="http://www.w3.org/2000/svg">
<path fill-rule="evenodd" clip-rule="evenodd" d="M112.232 36.5652C112.701 36.0964 113.337 35.833 114 35.833H120.667C120.888 35.833 121.1 35.9208 121.256 36.0771L126.256 41.0771C126.412 41.2334 126.5 41.4453 126.5 41.6663V51.6663C126.5 52.3294 126.237 52.9653 125.768 53.4341C125.299 53.9029 124.663 54.1663 124 54.1663H114C113.337 54.1663 112.701 53.9029 112.232 53.4341C111.763 52.9653 111.5 52.3294 111.5 51.6663V38.333C111.5 37.67 111.763 37.0341 112.232 36.5652ZM114 37.4997C113.779 37.4997 113.567 37.5875 113.411 37.7438C113.254 37.9 113.167 38.112 113.167 38.333V51.6663C113.167 51.8874 113.254 52.0993 113.411 52.2556C113.567 52.4119 113.779 52.4997 114 52.4997H124C124.221 52.4997 124.433 52.4119 124.589 52.2556C124.746 52.0993 124.833 51.8874 124.833 51.6663V42.0115L120.321 37.4997H114Z" fill="#D9DDE3"/>
<path fill-rule="evenodd" clip-rule="evenodd" d="M120.667 35.833C121.127 35.833 121.5 36.2061 121.5 36.6663V40.833H125.667C126.127 40.833 126.5 41.2061 126.5 41.6663C126.5 42.1266 126.127 42.4997 125.667 42.4997H120.667C120.206 42.4997 119.833 42.1266 119.833 41.6663V36.6663C119.833 36.2061 120.206 35.833 120.667 35.833Z" fill="#D9DDE3"/>
<path fill-rule="evenodd" clip-rule="evenodd" d="M114.833 45.833C114.833 45.3728 115.206 44.9997 115.667 44.9997H122.333C122.794 44.9997 123.167 45.3728 123.167 45.833C123.167 46.2932 122.794 46.6663 122.333 46.6663H115.667C115.206 46.6663 114.833 46.2932 114.833 45.833Z" fill="#D9DDE3"/>
<path fill-rule="evenodd" clip-rule="evenodd" d="M114.833 49.1663C114.833 48.7061 115.206 48.333 115.667 48.333H122.333C122.794 48.333 123.167 48.7061 123.167 49.1663C123.167 49.6266 122.794 49.9997 122.333 49.9997H115.667C115.206 49.9997 114.833 49.6266 114.833 49.1663Z" fill="#D9DDE3"/>
<path fill-rule="evenodd" clip-rule="evenodd" d="M114.833 42.4997C114.833 42.0394 115.206 41.6663 115.667 41.6663H117.333C117.794 41.6663 118.167 42.0394 118.167 42.4997C118.167 42.9599 117.794 43.333 117.333 43.333H115.667C115.206 43.333 114.833 42.9599 114.833 42.4997Z" fill="#D9DDE3"/>
<path d="M145.193 43C145.084 42.6652 144.94 42.3653 144.761 42.1001C144.585 41.8317 144.375 41.603 144.129 41.4141C143.887 41.2251 143.612 41.081 143.304 40.9815C142.996 40.8821 142.658 40.8324 142.29 40.8324C141.687 40.8324 141.138 40.9882 140.644 41.2997C140.15 41.6113 139.758 42.0703 139.466 42.6768C139.174 43.2834 139.028 44.0275 139.028 44.9091C139.028 45.7907 139.176 46.5348 139.471 47.1413C139.766 47.7479 140.165 48.2069 140.669 48.5185C141.173 48.83 141.74 48.9858 142.369 48.9858C142.953 48.9858 143.466 48.8615 143.911 48.6129C144.358 48.361 144.706 48.0064 144.955 47.549C145.206 47.0883 145.332 46.5464 145.332 45.9233L145.71 46.0028H142.648V44.9091H146.526V46.0028C146.526 46.8414 146.347 47.5705 145.989 48.1903C145.634 48.8101 145.143 49.2907 144.517 49.6321C143.894 49.9702 143.178 50.1392 142.369 50.1392C141.468 50.1392 140.676 49.9271 139.993 49.5028C139.313 49.0786 138.783 48.4754 138.402 47.6932C138.024 46.911 137.835 45.983 137.835 44.9091C137.835 44.1037 137.943 43.3795 138.158 42.7365C138.377 42.0902 138.685 41.54 139.083 41.0859C139.481 40.6319 139.951 40.2839 140.495 40.0419C141.039 39.8 141.637 39.679 142.29 39.679C142.827 39.679 143.327 39.7602 143.791 39.9226C144.259 40.0817 144.674 40.3087 145.039 40.6037C145.407 40.8954 145.714 41.245 145.959 41.6527C146.204 42.0571 146.373 42.5062 146.466 43H145.193ZM148.478 50V42.3636H149.612V43.517H149.691C149.83 43.1392 150.082 42.8326 150.447 42.5973C150.811 42.362 151.222 42.2443 151.68 42.2443C151.766 42.2443 151.874 42.246 152.003 42.2493C152.132 42.2526 152.23 42.2576 152.296 42.2642V43.4574C152.257 43.4474 152.165 43.4325 152.023 43.4126C151.884 43.3894 151.736 43.3778 151.58 43.3778C151.209 43.3778 150.878 43.4557 150.586 43.6115C150.298 43.764 150.069 43.9761 149.9 44.2479C149.734 44.5163 149.651 44.8229 149.651 45.1676V50H148.478ZM156.557 50.1591C155.868 50.1591 155.263 49.995 154.742 49.6669C154.225 49.3388 153.821 48.8797 153.529 48.2898C153.241 47.6998 153.097 47.0104 153.097 46.2216C153.097 45.4261 153.241 44.7318 153.529 44.1385C153.821 43.5452 154.225 43.0845 154.742 42.7564C155.263 42.4283 155.868 42.2642 156.557 42.2642C157.246 42.2642 157.85 42.4283 158.367 42.7564C158.887 43.0845 159.291 43.5452 159.58 44.1385C159.871 44.7318 160.017 45.4261 160.017 46.2216C160.017 47.0104 159.871 47.6998 159.58 48.2898C159.291 48.8797 158.887 49.3388 158.367 49.6669C157.85 49.995 157.246 50.1591 156.557 50.1591ZM156.557 49.1051C157.081 49.1051 157.512 48.9709 157.85 48.7024C158.188 48.4339 158.438 48.081 158.6 47.6435C158.763 47.206 158.844 46.732 158.844 46.2216C158.844 45.7112 158.763 45.2356 158.6 44.7947C158.438 44.3539 158.188 43.9976 157.85 43.7259C157.512 43.4541 157.081 43.3182 156.557 43.3182C156.033 43.3182 155.602 43.4541 155.264 43.7259C154.926 43.9976 154.676 44.3539 154.514 44.7947C154.351 45.2356 154.27 45.7112 154.27 46.2216C154.27 46.732 154.351 47.206 154.514 47.6435C154.676 48.081 154.926 48.4339 155.264 48.7024C155.602 48.9709 156.033 49.1051 156.557 49.1051ZM166.621 46.8778V42.3636H167.794V50H166.621V48.7074H166.541C166.362 49.0952 166.084 49.425 165.706 49.6967C165.328 49.9652 164.851 50.0994 164.274 50.0994C163.797 50.0994 163.373 49.995 163.001 49.7862C162.63 49.5741 162.339 49.2559 162.126 48.8317C161.914 48.4041 161.808 47.8655 161.808 47.2159V42.3636H162.982V47.1364C162.982 47.6932 163.137 48.1373 163.449 48.4688C163.764 48.8002 164.165 48.9659 164.652 48.9659C164.944 48.9659 165.24 48.8913 165.542 48.7422C165.847 48.593 166.102 48.3643 166.308 48.0561C166.516 47.7479 166.621 47.3551 166.621 46.8778ZM169.943 52.8636V42.3636H171.077V43.5767H171.216C171.302 43.4441 171.421 43.2751 171.574 43.0696C171.729 42.8608 171.952 42.6752 172.24 42.5128C172.532 42.3471 172.926 42.2642 173.423 42.2642C174.066 42.2642 174.633 42.425 175.123 42.7464C175.614 43.0679 175.997 43.5237 176.272 44.1136C176.547 44.7036 176.684 45.3996 176.684 46.2017C176.684 47.0104 176.547 47.7114 176.272 48.3047C175.997 48.8946 175.616 49.352 175.128 49.6768C174.641 49.9983 174.079 50.1591 173.443 50.1591C172.952 50.1591 172.56 50.0779 172.265 49.9155C171.97 49.7498 171.743 49.5625 171.584 49.3537C171.425 49.1416 171.302 48.9659 171.216 48.8267H171.116V52.8636H169.943ZM171.096 46.1818C171.096 46.7585 171.181 47.2673 171.35 47.7081C171.519 48.1456 171.766 48.4886 172.091 48.7372C172.416 48.9825 172.813 49.1051 173.284 49.1051C173.774 49.1051 174.184 48.9759 174.512 48.7173C174.843 48.4555 175.092 48.1042 175.258 47.6634C175.427 47.2192 175.511 46.7254 175.511 46.1818C175.511 45.6449 175.428 45.161 175.263 44.7301C175.1 44.2959 174.853 43.9529 174.522 43.701C174.194 43.4458 173.781 43.3182 173.284 43.3182C172.807 43.3182 172.406 43.4392 172.081 43.6811C171.756 43.9197 171.511 44.2545 171.345 44.6854C171.179 45.1129 171.096 45.6117 171.096 46.1818ZM183.883 44.0739L182.829 44.3722C182.763 44.1965 182.665 44.0258 182.536 43.8601C182.41 43.6911 182.238 43.5518 182.019 43.4425C181.8 43.3331 181.52 43.2784 181.179 43.2784C180.711 43.2784 180.322 43.3861 180.01 43.6016C179.702 43.8137 179.548 44.0838 179.548 44.4119C179.548 44.7036 179.654 44.9339 179.866 45.103C180.078 45.272 180.41 45.4129 180.861 45.5256L181.994 45.804C182.677 45.9697 183.186 46.2232 183.52 46.5646C183.855 46.9027 184.023 47.3385 184.023 47.8722C184.023 48.3097 183.897 48.7008 183.645 49.0455C183.396 49.3902 183.048 49.6619 182.601 49.8608C182.153 50.0597 181.633 50.1591 181.04 50.1591C180.261 50.1591 179.616 49.9901 179.106 49.652C178.595 49.3139 178.272 48.8201 178.136 48.1705L179.25 47.892C179.356 48.303 179.556 48.6113 179.851 48.8168C180.15 49.0223 180.539 49.125 181.02 49.125C181.567 49.125 182.001 49.009 182.322 48.777C182.647 48.5417 182.809 48.2599 182.809 47.9318C182.809 47.6667 182.717 47.4446 182.531 47.2656C182.345 47.0833 182.06 46.9474 181.676 46.858L180.403 46.5597C179.704 46.3939 179.19 46.1371 178.862 45.7891C178.537 45.4377 178.375 44.9986 178.375 44.4716C178.375 44.0407 178.496 43.6596 178.738 43.3281C178.983 42.9967 179.316 42.7365 179.737 42.5476C180.161 42.3587 180.642 42.2642 181.179 42.2642C181.934 42.2642 182.528 42.4299 182.959 42.7614C183.393 43.0928 183.701 43.5303 183.883 44.0739Z" fill="#D9DDE3"/>
<path fill-rule="evenodd" clip-rule="evenodd" d="M112.232 84.5652C112.701 84.0964 113.337 83.833 114 83.833H120.667C120.888 83.833 121.1 83.9208 121.256 84.0771L126.256 89.0771C126.412 89.2334 126.5 89.4453 126.5 89.6663V99.6663C126.5 100.329 126.237 100.965 125.768 101.434C125.299 101.903 124.663 102.166 124 102.166H114C113.337 102.166 112.701 101.903 112.232 101.434C111.763 100.965 111.5 100.329 111.5 99.6663V86.333C111.5 85.67 111.763 85.0341 112.232 84.5652ZM114 85.4997C113.779 85.4997 113.567 85.5875 113.411 85.7438C113.254 85.9 113.167 86.112 113.167 86.333V99.6663C113.167 99.8874 113.254 100.099 113.411 100.256C113.567 100.412 113.779 100.5 114 100.5H124C124.221 100.5 124.433 100.412 124.589 100.256C124.746 100.099 124.833 99.8874 124.833 99.6663V90.0115L120.321 85.4997H114Z" fill="#5854F7"/>
<path fill-rule="evenodd" clip-rule="evenodd" d="M120.667 83.833C121.127 83.833 121.5 84.2061 121.5 84.6663V88.833H125.667C126.127 88.833 126.5 89.2061 126.5 89.6663C126.5 90.1266 126.127 90.4997 125.667 90.4997H120.667C120.206 90.4997 119.833 90.1266 119.833 89.6663V84.6663C119.833 84.2061 120.206 83.833 120.667 83.833Z" fill="#5854F7"/>
<path fill-rule="evenodd" clip-rule="evenodd" d="M114.833 93.833C114.833 93.3728 115.206 92.9997 115.667 92.9997H122.333C122.794 92.9997 123.167 93.3728 123.167 93.833C123.167 94.2932 122.794 94.6663 122.333 94.6663H115.667C115.206 94.6663 114.833 94.2932 114.833 93.833Z" fill="#5854F7"/>
<path fill-rule="evenodd" clip-rule="evenodd" d="M114.833 97.1663C114.833 96.7061 115.206 96.333 115.667 96.333H122.333C122.794 96.333 123.167 96.7061 123.167 97.1663C123.167 97.6266 122.794 97.9997 122.333 97.9997H115.667C115.206 97.9997 114.833 97.6266 114.833 97.1663Z" fill="#5854F7"/>
<path fill-rule="evenodd" clip-rule="evenodd" d="M114.833 90.4997C114.833 90.0394 115.206 89.6663 115.667 89.6663H117.333C117.794 89.6663 118.167 90.0394 118.167 90.4997C118.167 90.9599 117.794 91.333 117.333 91.333H115.667C115.206 91.333 114.833 90.9599 114.833 90.4997Z" fill="#5854F7"/>
<path d="M145.193 91C145.084 90.6652 144.94 90.3653 144.761 90.1001C144.585 89.8317 144.375 89.603 144.129 89.4141C143.887 89.2251 143.612 89.081 143.304 88.9815C142.996 88.8821 142.658 88.8324 142.29 88.8324C141.687 88.8324 141.138 88.9882 140.644 89.2997C140.15 89.6113 139.758 90.0703 139.466 90.6768C139.174 91.2834 139.028 92.0275 139.028 92.9091C139.028 93.7907 139.176 94.5348 139.471 95.1413C139.766 95.7479 140.165 96.2069 140.669 96.5185C141.173 96.83 141.74 96.9858 142.369 96.9858C142.953 96.9858 143.466 96.8615 143.911 96.6129C144.358 96.361 144.706 96.0064 144.955 95.549C145.206 95.0883 145.332 94.5464 145.332 93.9233L145.71 94.0028H142.648V92.9091H146.526V94.0028C146.526 94.8414 146.347 95.5705 145.989 96.1903C145.634 96.8101 145.143 97.2907 144.517 97.6321C143.894 97.9702 143.178 98.1392 142.369 98.1392C141.468 98.1392 140.676 97.9271 139.993 97.5028C139.313 97.0786 138.783 96.4754 138.402 95.6932C138.024 94.911 137.835 93.983 137.835 92.9091C137.835 92.1037 137.943 91.3795 138.158 90.7365C138.377 90.0902 138.685 89.54 139.083 89.0859C139.481 88.6319 139.951 88.2839 140.495 88.0419C141.039 87.8 141.637 87.679 142.29 87.679C142.827 87.679 143.327 87.7602 143.791 87.9226C144.259 88.0817 144.674 88.3087 145.039 88.6037C145.407 88.8954 145.714 89.245 145.959 89.6527C146.204 90.0571 146.373 90.5062 146.466 91H145.193ZM148.478 98V90.3636H149.612V91.517H149.691C149.83 91.1392 150.082 90.8326 150.447 90.5973C150.811 90.362 151.222 90.2443 151.68 90.2443C151.766 90.2443 151.874 90.246 152.003 90.2493C152.132 90.2526 152.23 90.2576 152.296 90.2642V91.4574C152.257 91.4474 152.165 91.4325 152.023 91.4126C151.884 91.3894 151.736 91.3778 151.58 91.3778C151.209 91.3778 150.878 91.4557 150.586 91.6115C150.298 91.764 150.069 91.9761 149.9 92.2479C149.734 92.5163 149.651 92.8229 149.651 93.1676V98H148.478ZM156.557 98.1591C155.868 98.1591 155.263 97.995 154.742 97.6669C154.225 97.3388 153.821 96.8797 153.529 96.2898C153.241 95.6998 153.097 95.0104 153.097 94.2216C153.097 93.4261 153.241 92.7318 153.529 92.1385C153.821 91.5452 154.225 91.0845 154.742 90.7564C155.263 90.4283 155.868 90.2642 156.557 90.2642C157.246 90.2642 157.85 90.4283 158.367 90.7564C158.887 91.0845 159.291 91.5452 159.58 92.1385C159.871 92.7318 160.017 93.4261 160.017 94.2216C160.017 95.0104 159.871 95.6998 159.58 96.2898C159.291 96.8797 158.887 97.3388 158.367 97.6669C157.85 97.995 157.246 98.1591 156.557 98.1591ZM156.557 97.1051C157.081 97.1051 157.512 96.9709 157.85 96.7024C158.188 96.4339 158.438 96.081 158.6 95.6435C158.763 95.206 158.844 94.732 158.844 94.2216C158.844 93.7112 158.763 93.2356 158.6 92.7947C158.438 92.3539 158.188 91.9976 157.85 91.7259C157.512 91.4541 157.081 91.3182 156.557 91.3182C156.033 91.3182 155.602 91.4541 155.264 91.7259C154.926 91.9976 154.676 92.3539 154.514 92.7947C154.351 93.2356 154.27 93.7112 154.27 94.2216C154.27 94.732 154.351 95.206 154.514 95.6435C154.676 96.081 154.926 96.4339 155.264 96.7024C155.602 96.9709 156.033 97.1051 156.557 97.1051ZM166.621 94.8778V90.3636H167.794V98H166.621V96.7074H166.541C166.362 97.0952 166.084 97.425 165.706 97.6967C165.328 97.9652 164.851 98.0994 164.274 98.0994C163.797 98.0994 163.373 97.995 163.001 97.7862C162.63 97.5741 162.339 97.2559 162.126 96.8317C161.914 96.4041 161.808 95.8655 161.808 95.2159V90.3636H162.982V95.1364C162.982 95.6932 163.137 96.1373 163.449 96.4688C163.764 96.8002 164.165 96.9659 164.652 96.9659C164.944 96.9659 165.24 96.8913 165.542 96.7422C165.847 96.593 166.102 96.3643 166.308 96.0561C166.516 95.7479 166.621 95.3551 166.621 94.8778ZM169.943 100.864V90.3636H171.077V91.5767H171.216C171.302 91.4441 171.421 91.2751 171.574 91.0696C171.729 90.8608 171.952 90.6752 172.24 90.5128C172.532 90.3471 172.926 90.2642 173.423 90.2642C174.066 90.2642 174.633 90.425 175.123 90.7464C175.614 91.0679 175.997 91.5237 176.272 92.1136C176.547 92.7036 176.684 93.3996 176.684 94.2017C176.684 95.0104 176.547 95.7114 176.272 96.3047C175.997 96.8946 175.616 97.352 175.128 97.6768C174.641 97.9983 174.079 98.1591 173.443 98.1591C172.952 98.1591 172.56 98.0779 172.265 97.9155C171.97 97.7498 171.743 97.5625 171.584 97.3537C171.425 97.1416 171.302 96.9659 171.216 96.8267H171.116V100.864H169.943ZM171.096 94.1818C171.096 94.7585 171.181 95.2673 171.35 95.7081C171.519 96.1456 171.766 96.4886 172.091 96.7372C172.416 96.9825 172.813 97.1051 173.284 97.1051C173.774 97.1051 174.184 96.9759 174.512 96.7173C174.843 96.4555 175.092 96.1042 175.258 95.6634C175.427 95.2192 175.511 94.7254 175.511 94.1818C175.511 93.6449 175.428 93.161 175.263 92.7301C175.1 92.2959 174.853 91.9529 174.522 91.701C174.194 91.4458 173.781 91.3182 173.284 91.3182C172.807 91.3182 172.406 91.4392 172.081 91.6811C171.756 91.9197 171.511 92.2545 171.345 92.6854C171.179 93.1129 171.096 93.6117 171.096 94.1818ZM183.883 92.0739L182.829 92.3722C182.763 92.1965 182.665 92.0258 182.536 91.8601C182.41 91.6911 182.238 91.5518 182.019 91.4425C181.8 91.3331 181.52 91.2784 181.179 91.2784C180.711 91.2784 180.322 91.3861 180.01 91.6016C179.702 91.8137 179.548 92.0838 179.548 92.4119C179.548 92.7036 179.654 92.9339 179.866 93.103C180.078 93.272 180.41 93.4129 180.861 93.5256L181.994 93.804C182.677 93.9697 183.186 94.2232 183.52 94.5646C183.855 94.9027 184.023 95.3385 184.023 95.8722C184.023 96.3097 183.897 96.7008 183.645 97.0455C183.396 97.3902 183.048 97.6619 182.601 97.8608C182.153 98.0597 181.633 98.1591 181.04 98.1591C180.261 98.1591 179.616 97.9901 179.106 97.652C178.595 97.3139 178.272 96.8201 178.136 96.1705L179.25 95.892C179.356 96.303 179.556 96.6113 179.851 96.8168C180.15 97.0223 180.539 97.125 181.02 97.125C181.567 97.125 182.001 97.009 182.322 96.777C182.647 96.5417 182.809 96.2599 182.809 95.9318C182.809 95.6667 182.717 95.4446 182.531 95.2656C182.345 95.0833 182.06 94.9474 181.676 94.858L180.403 94.5597C179.704 94.3939 179.19 94.1371 178.862 93.7891C178.537 93.4377 178.375 92.9986 178.375 92.4716C178.375 92.0407 178.496 91.6596 178.738 91.3281C178.983 90.9967 179.316 90.7365 179.737 90.5476C180.161 90.3587 180.642 90.2642 181.179 90.2642C181.934 90.2642 182.528 90.4299 182.959 90.7614C183.393 91.0928 183.701 91.5303 183.883 92.0739Z" fill="#5854F7"/>
<rect width="240" height="44" transform="translate(85 119)" fill="#2F353D"/>
<path fill-rule="evenodd" clip-rule="evenodd" d="M112.232 132.565C112.701 132.096 113.337 131.833 114 131.833H120.667C120.888 131.833 121.1 131.921 121.256 132.077L126.256 137.077C126.412 137.233 126.5 137.445 126.5 137.666V147.666C126.5 148.329 126.237 148.965 125.768 149.434C125.299 149.903 124.663 150.166 124 150.166H114C113.337 150.166 112.701 149.903 112.232 149.434C111.763 148.965 111.5 148.329 111.5 147.666V134.333C111.5 133.67 111.763 133.034 112.232 132.565ZM114 133.5C113.779 133.5 113.567 133.587 113.411 133.744C113.254 133.9 113.167 134.112 113.167 134.333V147.666C113.167 147.887 113.254 148.099 113.411 148.256C113.567 148.412 113.779 148.5 114 148.5H124C124.221 148.5 124.433 148.412 124.589 148.256C124.746 148.099 124.833 147.887 124.833 147.666V138.012L120.321 133.5H114Z" fill="#5854F7"/>
<path fill-rule="evenodd" clip-rule="evenodd" d="M120.667 131.833C121.127 131.833 121.5 132.206 121.5 132.666V136.833H125.667C126.127 136.833 126.5 137.206 126.5 137.666C126.5 138.127 126.127 138.5 125.667 138.5H120.667C120.206 138.5 119.833 138.127 119.833 137.666V132.666C119.833 132.206 120.206 131.833 120.667 131.833Z" fill="#5854F7"/>
<path fill-rule="evenodd" clip-rule="evenodd" d="M114.833 141.833C114.833 141.373 115.206 141 115.667 141H122.333C122.794 141 123.167 141.373 123.167 141.833C123.167 142.293 122.794 142.666 122.333 142.666H115.667C115.206 142.666 114.833 142.293 114.833 141.833Z" fill="#5854F7"/>
<path fill-rule="evenodd" clip-rule="evenodd" d="M114.833 145.166C114.833 144.706 115.206 144.333 115.667 144.333H122.333C122.794 144.333 123.167 144.706 123.167 145.166C123.167 145.627 122.794 146 122.333 146H115.667C115.206 146 114.833 145.627 114.833 145.166Z" fill="#5854F7"/>
<path fill-rule="evenodd" clip-rule="evenodd" d="M114.833 138.5C114.833 138.039 115.206 137.666 115.667 137.666H117.333C117.794 137.666 118.167 138.039 118.167 138.5C118.167 138.96 117.794 139.333 117.333 139.333H115.667C115.206 139.333 114.833 138.96 114.833 138.5Z" fill="#5854F7"/>
<path d="M144.636 139.109C144.567 138.867 144.469 138.654 144.343 138.468C144.217 138.279 144.063 138.12 143.881 137.991C143.702 137.858 143.496 137.757 143.264 137.688C143.036 137.618 142.782 137.583 142.504 137.583C141.983 137.583 141.526 137.712 141.131 137.971C140.74 138.229 140.435 138.606 140.217 139.099C139.998 139.59 139.888 140.19 139.888 140.899C139.888 141.608 139.996 142.212 140.212 142.709C140.427 143.206 140.732 143.585 141.126 143.847C141.521 144.106 141.987 144.235 142.523 144.235C143.011 144.235 143.427 144.149 143.771 143.977C144.119 143.801 144.384 143.554 144.567 143.236C144.752 142.918 144.845 142.541 144.845 142.107L145.283 142.172H142.658V140.551H146.918V141.834C146.918 142.729 146.729 143.498 146.352 144.141C145.974 144.78 145.453 145.274 144.79 145.622C144.128 145.967 143.369 146.139 142.513 146.139C141.559 146.139 140.72 145.929 139.998 145.508C139.275 145.084 138.712 144.482 138.308 143.703C137.906 142.921 137.706 141.993 137.706 140.919C137.706 140.094 137.825 139.358 138.064 138.712C138.306 138.062 138.644 137.512 139.078 137.061C139.512 136.61 140.018 136.267 140.594 136.032C141.171 135.797 141.796 135.679 142.469 135.679C143.045 135.679 143.582 135.763 144.08 135.933C144.577 136.098 145.018 136.334 145.402 136.638C145.79 136.943 146.106 137.306 146.352 137.727C146.597 138.145 146.754 138.606 146.824 139.109H144.636ZM148.496 146V138.364H150.549V139.696H150.628C150.768 139.222 151.001 138.864 151.329 138.622C151.657 138.377 152.035 138.254 152.463 138.254C152.569 138.254 152.683 138.261 152.806 138.274C152.929 138.287 153.036 138.306 153.129 138.329V140.208C153.03 140.178 152.892 140.152 152.716 140.129C152.541 140.105 152.38 140.094 152.234 140.094C151.923 140.094 151.644 140.162 151.399 140.298C151.157 140.43 150.965 140.616 150.822 140.854C150.683 141.093 150.613 141.368 150.613 141.68V146H148.496ZM157.319 146.149C156.547 146.149 155.879 145.985 155.315 145.657C154.755 145.326 154.323 144.865 154.018 144.275C153.713 143.682 153.56 142.994 153.56 142.212C153.56 141.423 153.713 140.733 154.018 140.143C154.323 139.55 154.755 139.089 155.315 138.761C155.879 138.43 156.547 138.264 157.319 138.264C158.091 138.264 158.757 138.43 159.317 138.761C159.881 139.089 160.315 139.55 160.62 140.143C160.925 140.733 161.077 141.423 161.077 142.212C161.077 142.994 160.925 143.682 160.62 144.275C160.315 144.865 159.881 145.326 159.317 145.657C158.757 145.985 158.091 146.149 157.319 146.149ZM157.329 144.509C157.68 144.509 157.973 144.409 158.209 144.21C158.444 144.008 158.621 143.733 158.741 143.385C158.863 143.037 158.925 142.641 158.925 142.197C158.925 141.753 158.863 141.357 158.741 141.009C158.621 140.661 158.444 140.385 158.209 140.183C157.973 139.981 157.68 139.88 157.329 139.88C156.974 139.88 156.676 139.981 156.434 140.183C156.195 140.385 156.015 140.661 155.892 141.009C155.773 141.357 155.713 141.753 155.713 142.197C155.713 142.641 155.773 143.037 155.892 143.385C156.015 143.733 156.195 144.008 156.434 144.21C156.676 144.409 156.974 144.509 157.329 144.509ZM167.352 142.749V138.364H169.469V146H167.436V144.613H167.357C167.184 145.06 166.897 145.42 166.496 145.692C166.099 145.964 165.613 146.099 165.04 146.099C164.529 146.099 164.08 145.983 163.692 145.751C163.305 145.519 163.001 145.19 162.783 144.762C162.567 144.335 162.458 143.822 162.455 143.226V138.364H164.572V142.848C164.576 143.299 164.697 143.655 164.935 143.917C165.174 144.179 165.494 144.31 165.895 144.31C166.15 144.31 166.389 144.252 166.611 144.136C166.833 144.016 167.012 143.841 167.148 143.609C167.287 143.377 167.355 143.09 167.352 142.749ZM171.164 148.864V138.364H173.252V139.646H173.346C173.439 139.441 173.573 139.232 173.749 139.02C173.928 138.804 174.16 138.625 174.445 138.483C174.733 138.337 175.091 138.264 175.519 138.264C176.075 138.264 176.589 138.41 177.06 138.702C177.53 138.99 177.907 139.426 178.188 140.009C178.47 140.589 178.611 141.317 178.611 142.192C178.611 143.044 178.473 143.763 178.198 144.349C177.927 144.933 177.555 145.375 177.085 145.677C176.617 145.975 176.094 146.124 175.514 146.124C175.103 146.124 174.753 146.056 174.465 145.92C174.18 145.785 173.946 145.614 173.764 145.408C173.581 145.2 173.442 144.989 173.346 144.777H173.281V148.864H171.164ZM173.237 142.182C173.237 142.636 173.3 143.032 173.426 143.37C173.552 143.708 173.734 143.972 173.972 144.161C174.211 144.346 174.501 144.439 174.843 144.439C175.187 144.439 175.479 144.344 175.718 144.156C175.956 143.963 176.137 143.698 176.259 143.36C176.385 143.019 176.448 142.626 176.448 142.182C176.448 141.741 176.387 141.353 176.264 141.018C176.142 140.684 175.961 140.422 175.722 140.233C175.484 140.044 175.191 139.95 174.843 139.95C174.498 139.95 174.206 140.041 173.968 140.223C173.732 140.405 173.552 140.664 173.426 140.999C173.3 141.333 173.237 141.728 173.237 142.182ZM186.377 140.541L184.438 140.661C184.405 140.495 184.333 140.346 184.224 140.213C184.115 140.077 183.97 139.969 183.791 139.89C183.616 139.807 183.405 139.766 183.16 139.766C182.832 139.766 182.555 139.835 182.33 139.974C182.104 140.11 181.992 140.293 181.992 140.521C181.992 140.704 182.065 140.858 182.21 140.984C182.356 141.11 182.606 141.211 182.961 141.287L184.343 141.565C185.086 141.718 185.639 141.963 186.004 142.301C186.368 142.639 186.551 143.083 186.551 143.634C186.551 144.134 186.403 144.573 186.108 144.951C185.816 145.329 185.415 145.624 184.905 145.836C184.398 146.045 183.813 146.149 183.15 146.149C182.139 146.149 181.334 145.939 180.734 145.518C180.137 145.094 179.788 144.517 179.685 143.788L181.768 143.678C181.831 143.987 181.983 144.222 182.225 144.384C182.467 144.543 182.777 144.623 183.155 144.623C183.526 144.623 183.825 144.552 184.05 144.409C184.279 144.263 184.395 144.076 184.398 143.847C184.395 143.655 184.313 143.498 184.154 143.375C183.995 143.249 183.75 143.153 183.419 143.087L182.096 142.823C181.35 142.674 180.795 142.415 180.431 142.048C180.069 141.68 179.889 141.211 179.889 140.641C179.889 140.15 180.021 139.728 180.286 139.373C180.555 139.018 180.931 138.745 181.415 138.553C181.902 138.36 182.472 138.264 183.125 138.264C184.09 138.264 184.849 138.468 185.402 138.876C185.959 139.283 186.284 139.839 186.377 140.541Z" fill="#5854F7"/>
<rect x="0.5" y="0.5" width="408" height="190" rx="4.5" stroke="#7B61FF" stroke-dasharray="10 5"/>
</svg>
