<svg width="88" height="88" viewBox="0 0 88 88" fill="none" xmlns="http://www.w3.org/2000/svg">
<rect width="88" height="88" rx="16" fill="#262B31"/>
<path fill-rule="evenodd" clip-rule="evenodd" d="M38.227 30.667H49.787C54.307 30.667 57.3337 33.8403 57.3337 38.5603V49.455C57.3337 54.1603 54.307 57.3337 49.787 57.3337H38.227C33.707 57.3337 30.667 54.1603 30.667 49.455V38.5603C30.667 33.8403 33.707 30.667 38.227 30.667ZM43.2403 47.987L49.5737 41.6537C50.027 41.2003 50.027 40.467 49.5737 40.0003C49.1203 39.547 48.3737 39.547 47.9203 40.0003L42.4137 45.507L40.0803 43.1737C39.627 42.7203 38.8803 42.7203 38.427 43.1737C37.9737 43.627 37.9737 44.3603 38.427 44.827L41.6003 47.987C41.827 48.2137 42.1203 48.3203 42.4137 48.3203C42.7203 48.3203 43.0137 48.2137 43.2403 47.987Z" fill="#79E2F2"/>
</svg>
