<svg width="88" height="88" viewBox="0 0 88 88" fill="none" xmlns="http://www.w3.org/2000/svg">
<rect width="88" height="88" rx="16" fill="#262B31"/>
<g opacity="0.3" clip-path="url(#clip0_4647_181096)">
<path d="M43.9998 30.667C51.3636 30.667 57.3332 36.6365 57.3332 44.0003C57.3332 51.3641 51.3636 57.3337 43.9998 57.3337C36.636 57.3337 30.6665 51.3641 30.6665 44.0003C30.6665 36.6365 36.636 30.667 43.9998 30.667ZM43.9998 33.3337C38.1088 33.3337 33.3332 38.1093 33.3332 44.0003C33.3332 49.8914 38.1088 54.667 43.9998 54.667C49.8909 54.667 54.6665 49.8914 54.6665 44.0003C54.6665 38.1093 49.8909 33.3337 43.9998 33.3337ZM43.9865 41.3337C44.7302 41.3337 45.3332 41.9366 45.3332 42.6803V49.5121C45.7317 49.7426 45.9998 50.1735 45.9998 50.667C45.9998 51.4034 45.4029 52.0003 44.6665 52.0003H44.0132C43.2693 52.0003 42.6665 51.3974 42.6665 50.6537V44.0003C41.9301 44.0003 41.3332 43.4034 41.3332 42.667C41.3332 41.9306 41.9301 41.3337 42.6665 41.3337H43.9865ZM43.9998 37.3337C44.7362 37.3337 45.3332 37.9306 45.3332 38.667C45.3332 39.4034 44.7362 40.0003 43.9998 40.0003C43.2634 40.0003 42.6665 39.4034 42.6665 38.667C42.6665 37.9306 43.2634 37.3337 43.9998 37.3337Z" fill="#98A2AE"/>
</g>
<defs>
<clipPath id="clip0_4647_181096">
<rect width="32" height="32" fill="white" transform="translate(28 28)"/>
</clipPath>
</defs>
</svg>
