<svg width="88" height="88" viewBox="0 0 88 88" fill="none" xmlns="http://www.w3.org/2000/svg">
<rect width="88" height="88" rx="16" fill="#262B31"/>
<path fill-rule="evenodd" clip-rule="evenodd" d="M38.2265 30.6655H49.7865C54.3065 30.6655 57.3332 33.8389 57.3332 38.5589V49.4535C57.3332 54.1602 54.3065 57.3322 49.7865 57.3322H38.2265C33.7065 57.3322 30.6665 54.1602 30.6665 49.4535V38.5589C30.6665 33.8389 33.7065 30.6655 38.2265 30.6655ZM42.8274 38.9451C42.8274 38.3064 43.3608 37.7718 44.0008 37.7718C44.6408 37.7718 45.1608 38.3064 45.1608 38.9451V44.8384C45.1608 45.4798 44.6408 45.9984 44.0008 45.9984C43.3608 45.9984 42.8274 45.4798 42.8274 44.8384V38.9451ZM44.0141 50.2395C43.3607 50.2395 42.8407 49.7062 42.8407 49.0662C42.8407 48.4262 43.3607 47.9062 44.0007 47.9062C44.6541 47.9062 45.1741 48.4262 45.1741 49.0662C45.1741 49.7062 44.6541 50.2395 44.0141 50.2395Z" fill="#E79212"/>
</svg>
