<svg width="426" height="467" viewBox="0 0 426 467" fill="none" xmlns="http://www.w3.org/2000/svg">
<path d="M29.6998 373.083H11.6336L112.777 92.7826H132.486L233.629 373.083H215.563L123.316 114.818H121.947L29.6998 373.083ZM55.2936 267.56H189.969V283.436H55.2936V267.56Z" fill="#5A697C"/>
<path d="M304.331 377.6C292.196 377.6 281.064 375.182 270.936 370.346C260.899 365.51 252.824 358.438 246.711 349.132C240.689 339.825 237.678 328.511 237.678 315.189C237.678 306.43 239.229 298.719 242.331 292.059C245.433 285.398 250.224 279.65 256.702 274.814C263.18 269.978 271.483 266.009 281.612 262.906C291.74 259.713 303.829 257.249 317.881 255.516C328.556 254.238 338.091 253.006 346.486 251.82C354.88 250.543 361.45 248.581 366.194 245.935C371.03 243.289 373.448 239.274 373.448 233.891V225.131C373.448 209.803 368.612 197.622 358.94 188.588C349.269 179.555 335.947 175.039 318.976 175.039C303.921 175.039 291.238 178.369 280.927 185.03C270.708 191.599 263.545 200.085 259.439 210.487L243.7 204.602C247.715 194.565 253.508 186.216 261.082 179.555C268.746 172.895 277.506 167.922 287.36 164.637C297.305 161.352 307.707 159.71 318.565 159.71C327.963 159.71 336.905 161.033 345.391 163.679C353.968 166.325 361.587 170.34 368.247 175.723C374.999 181.106 380.337 187.995 384.261 196.39C388.184 204.693 390.146 214.638 390.146 226.226V373.083H373.448V335.171H372.216C368.567 343.018 363.548 350.181 357.161 356.659C350.865 363.046 343.247 368.156 334.305 371.988C325.454 375.729 315.463 377.6 304.331 377.6ZM305.974 362.134C319.113 362.134 330.746 358.94 340.874 352.553C351.094 346.075 359.077 337.224 364.826 326.001C370.574 314.778 373.448 302.05 373.448 287.816V256.884C371.35 258.709 368.293 260.352 364.278 261.811C360.355 263.18 355.884 264.412 350.865 265.507C345.938 266.51 340.737 267.423 335.263 268.244C329.879 268.974 324.633 269.658 319.523 270.297C304.194 272.122 291.694 274.951 282.022 278.783C272.442 282.524 265.416 287.451 260.945 293.564C256.565 299.678 254.375 307.068 254.375 315.736C254.375 330.062 259.302 341.376 269.157 349.679C279.011 357.982 291.283 362.134 305.974 362.134Z" fill="#5A697C"/>
</svg>
