<svg width="489" height="467" viewBox="0 0 489 467" fill="none" xmlns="http://www.w3.org/2000/svg">
<path d="M72.6755 373.083H9.16998L105.934 92.7826H182.305L278.932 373.083H215.426L145.214 156.836H143.024L72.6755 373.083ZM68.7064 262.906H218.711V309.167H68.7064V262.906Z" fill="#5A697C"/>
<path d="M348.214 377.052C334.801 377.052 322.848 374.725 312.355 370.072C301.862 365.327 293.559 358.347 287.446 349.132C281.424 339.825 278.413 328.237 278.413 314.368C278.413 302.689 280.557 292.88 284.845 284.942C289.134 277.003 294.974 270.616 302.364 265.781C309.755 260.945 318.149 257.295 327.547 254.831C337.037 252.368 346.982 250.634 357.384 249.63C369.611 248.353 379.465 247.167 386.947 246.072C394.429 244.886 399.858 243.152 403.234 240.871C406.61 238.59 408.298 235.214 408.298 230.743V229.922C408.298 221.254 405.561 214.547 400.086 209.803C394.703 205.058 387.038 202.686 377.093 202.686C366.6 202.686 358.251 205.012 352.046 209.666C345.842 214.228 341.736 219.976 339.729 226.911L285.804 222.531C288.541 209.757 293.924 198.716 301.954 189.41C309.983 180.012 320.339 172.803 333.022 167.785C345.796 162.675 360.578 160.12 377.367 160.12C389.046 160.12 400.223 161.489 410.899 164.226C421.665 166.964 431.2 171.207 439.503 176.955C447.898 182.703 454.513 190.094 459.349 199.127C464.185 208.069 466.603 218.79 466.603 231.29V373.083H411.309V343.931H409.667C406.291 350.5 401.774 356.294 396.117 361.313C390.46 366.24 383.662 370.118 375.724 372.946C367.786 375.683 358.616 377.052 348.214 377.052ZM364.912 336.814C373.489 336.814 381.062 335.126 387.631 331.75C394.201 328.282 399.356 323.629 403.097 317.789C406.838 311.95 408.709 305.335 408.709 297.944V275.635C406.884 276.821 404.375 277.916 401.181 278.92C398.079 279.832 394.566 280.699 390.642 281.52C386.719 282.25 382.796 282.934 378.872 283.573C374.949 284.12 371.39 284.622 368.197 285.079C361.353 286.082 355.377 287.679 350.267 289.869C345.158 292.059 341.188 295.024 338.36 298.765C335.531 302.415 334.117 306.977 334.117 312.452C334.117 320.39 336.991 326.458 342.74 330.655C348.579 334.761 355.97 336.814 364.912 336.814Z" fill="#5A697C"/>
</svg>
