<svg width="88" height="88" viewBox="0 0 88 88" fill="none" xmlns="http://www.w3.org/2000/svg">
<rect width="88" height="88" rx="16" fill="#79E2F2" fill-opacity="0.3"/>
<g opacity="0.7">
<path fill-rule="evenodd" clip-rule="evenodd" d="M46.667 55.9999C46.667 55.2635 47.2639 54.6666 48.0003 54.6666L53.3337 54.6666C53.6873 54.6666 54.0264 54.5261 54.2765 54.2761C54.5265 54.026 54.667 53.6869 54.667 53.3333L54.667 34.6666C54.667 34.313 54.5265 33.9738 54.2765 33.7238C54.0264 33.4737 53.6873 33.3332 53.3337 33.3332L48.0003 33.3332C47.2639 33.3332 46.667 32.7363 46.667 31.9999C46.667 31.2635 47.2639 30.6666 48.0003 30.6666L53.3337 30.6666C54.3945 30.6666 55.4119 31.088 56.1621 31.8382C56.9122 32.5883 57.3337 33.6057 57.3337 34.6666L57.3337 53.3333C57.3337 54.3941 56.9122 55.4115 56.1621 56.1617C55.4119 56.9118 54.3945 57.3333 53.3337 57.3333L48.0003 57.3333C47.2639 57.3333 46.667 56.7363 46.667 55.9999Z" fill="#D9DDE3"/>
<path fill-rule="evenodd" clip-rule="evenodd" d="M39.609 36.3902C40.1297 36.9109 40.1297 37.7551 39.609 38.2758L33.8851 43.9996L39.609 49.7235C40.1297 50.2442 40.1297 51.0884 39.609 51.6091C39.0883 52.1298 38.2441 52.1298 37.7234 51.6091L31.0567 44.9424C30.536 44.4217 30.536 43.5775 31.0567 43.0568L37.7234 36.3902C38.2441 35.8695 39.0883 35.8695 39.609 36.3902Z" fill="#D9DDE3"/>
<path fill-rule="evenodd" clip-rule="evenodd" d="M49.3323 43.9993C49.3323 44.7357 48.7353 45.3327 47.9989 45.3327L31.9989 45.3327C31.2626 45.3327 30.6656 44.7357 30.6656 43.9993C30.6656 43.263 31.2626 42.666 31.9989 42.666L47.9989 42.666C48.7353 42.666 49.3323 43.263 49.3323 43.9993Z" fill="#D9DDE3"/>
</g>
</svg>
