<svg width="720" height="886" viewBox="0 0 720 886" fill="none" xmlns="http://www.w3.org/2000/svg">
<g clip-path="url(#clip0_4647_180145)">
<mask id="mask0_4647_180145" style="mask-type:alpha" maskUnits="userSpaceOnUse" x="-113" y="0" width="1192" height="886">
<rect x="-113" width="1192" height="886" fill="#D9D9D9"/>
</mask>
<g mask="url(#mask0_4647_180145)">
<rect x="-113" width="1192" height="886" fill="#262B31"/>
<rect x="-113" width="1440" height="930" fill="url(#paint0_linear_4647_180145)"/>
<g opacity="0.2">
<path opacity="0.1" d="M-121.505 104.567C-121.505 104.567 -87.5624 106.984 -46.837 114.199C-6.11164 121.414 77.4223 116.598 109.799 122.605C142.176 128.612 149.475 143.06 183.935 147.858C218.395 152.657 286.281 158.681 302.978 174.32C319.676 189.96 331.173 204.39 360.417 207.998C389.661 211.605 423.071 210.397 435.602 220.011C448.133 229.626 484.927 223.619 475.403 232.638C465.88 241.657 382.346 227.335 360.417 238.049C338.488 248.764 367.732 266.911 388.094 271.691C408.457 276.471 500.34 260.868 528.534 271.691C556.729 282.514 589.105 292.11 627.747 290.919C666.389 289.729 686.815 280.602 714.414 290.919C742.013 301.237 817.966 297.088 847.038 305.35C876.109 313.611 918.041 311.357 918.041 311.357V410.567H-121.505V104.567Z" fill="#0B8796"/>
<g opacity="0.3">
<path opacity="0.58" d="M640.012 138.395C640.012 138.395 702.666 134.787 720.679 138.395C738.692 142.002 762.188 139.297 774.719 138.395C787.25 137.493 811.528 136.789 811.528 136.789C811.528 136.789 799.78 130.278 774.719 124.866C749.657 119.455 733.993 112.239 714.414 115.847C694.834 119.455 640.012 138.395 640.012 138.395Z" fill="#79E2F2"/>
<path opacity="0.58" d="M152.091 85.4889C152.091 85.4889 258.603 89.6918 284.182 89.0965C309.761 88.5013 332.222 84.8756 359.9 85.4889C387.577 86.1022 411.59 87.888 428.287 87.2927C444.984 86.6974 466.412 85.4889 466.412 85.4889C466.412 85.4889 440.818 79.5363 424.637 76.4698C408.457 73.4033 398.009 75.2612 382.346 68.6412C366.682 62.0212 368.249 58.4316 349.452 59.6221C330.656 60.8126 335.872 65.6468 316.042 62.6344C296.212 59.6221 284.182 48.7991 266.952 53.6153C249.722 58.4315 239.807 65.0336 217.361 65.6469C194.915 66.2602 164.105 74.666 152.091 85.4889Z" fill="#79E2F2"/>
</g>
</g>
<path d="M669.506 395.209C669.506 395.209 651.243 370.569 646.544 356.733C641.845 342.898 637.662 318.853 623.565 312.846C609.468 306.84 592.426 299.011 592.426 299.011L569.792 279.764L559.344 270.745H546.813C542.539 274.907 537.245 277.429 531.667 277.961C522.801 278.574 498.773 291.796 498.773 291.796C498.773 291.796 475.278 310.429 471.111 312.846C466.945 315.264 435.085 326.069 435.085 326.069L388.094 343.511L324.907 384.386L319.174 484.209H669.506V395.209Z" fill="url(#paint1_linear_4647_180145)"/>
<g style="mix-blend-mode:overlay" opacity="0.59">
<path d="M586.756 304.423C595.371 310.736 617.3 333.284 615.733 344.107C614.167 354.93 592.426 372.968 592.426 372.968L582.84 399.196L542.115 421.743L475.403 484.282H669.507V395.209C669.507 395.209 651.243 370.569 646.544 356.734C641.845 342.898 637.663 318.853 623.565 312.847C609.468 306.84 592.426 299.011 592.426 299.011L569.792 279.765C569.792 279.765 578.141 298.182 586.756 304.423Z" fill="#201352"/>
</g>
<g style="mix-blend-mode:overlay" opacity="0.37">
<path d="M481.027 324.86L497.207 312.847L514.437 291.796L538.606 276.211C536.366 277.22 534.004 277.829 531.604 278.015C522.739 278.628 498.711 291.85 498.711 291.85C498.711 291.85 475.215 310.484 471.049 312.901C466.882 315.318 435.023 326.123 435.023 326.123L388.032 343.566L416.226 341.149L481.027 324.86Z" fill="#FFFEF7"/>
</g>
<path d="M1107.05 234.074C1107.05 234.074 1057.96 271.359 1043.35 280.973C1028.74 290.587 995.309 289.397 995.309 289.397H979.646L962.948 276.157L930.572 301.41L887.763 337.487L843.905 299.011L836.59 284.581L819.877 288.188L734.26 344.702L720.679 356.734H696.667L668.473 349.518L584.923 418.063L481.026 491.425V609.268H1114.35L1107.05 234.074Z" fill="url(#paint2_linear_4647_180145)"/>
<path d="M164.105 261.124H189.166L250.771 251.51L277.916 261.124L380.012 350.124L431.702 375.378L581.43 478.791L761.405 531.481L918.041 579.805V686.826H-157.532V411.454C-157.532 411.454 -81.297 362.138 -56.2353 357.34C-31.1735 352.542 44.0118 333.277 44.0118 333.277L140.077 286.377L164.105 261.124Z" fill="url(#paint3_linear_4647_180145)"/>
<g style="mix-blend-mode:overlay" opacity="0.37">
<path d="M-121.505 398.214L17.9006 369.353L98.3175 327.27L159.922 280.371L189.166 261.124H164.105L140.077 286.377L44.0118 333.277C44.0118 333.277 -31.1735 352.524 -56.2353 357.34C-81.297 362.156 -157.532 411.454 -157.532 411.454V435.229L-121.505 398.214Z" fill="#FFFEF7"/>
</g>
<g style="mix-blend-mode:overlay" opacity="0.32">
<path d="M761.405 531.481L581.43 478.791L431.701 375.378L380.012 350.125L328.541 305.246L369.611 369.354L481.026 448.722C481.026 448.722 542.349 508.464 544.323 511.675C546.296 514.886 785.417 538.895 785.433 538.895L761.405 531.481Z" fill="#201352"/>
</g>
<path d="M592.426 566.342L427.097 543.866L300.112 509.593L258.604 462.694L224.661 447.362L175.587 394.455L118.148 366.785H75.3395C75.3395 366.785 0.655426 405.567 -19.6916 408.886C-40.0386 412.205 -75.407 431.055 -75.407 431.055L-153.349 462.694L-121.505 518.306V776.793H563.198L592.426 566.342Z" fill="url(#paint4_linear_4647_180145)"/>
<g style="mix-blend-mode:overlay" opacity="0.08">
<path d="M208.48 547.401L175.586 562.734L50.2776 651.121V776.793H563.198L592.426 566.341L427.097 543.794L300.112 509.521L258.603 462.622L232.759 491.789L208.48 547.401Z" fill="#201352"/>
</g>
<path d="M1118.53 383.933L1023.5 472.934C1023.5 472.934 914.955 493.371 896.628 492.162C878.302 490.954 856.404 506.593 856.404 506.593L757.191 559.517H727.994L656.975 542.669H632.963L577.874 566.732H550.729L538.747 572.739L516.677 555.91L478.739 537.871L470.14 527.048L439.377 523.441L427.159 509.01L406.248 513.808L358.396 541.479L333.334 551.093L272.763 565.524L218.457 602.809C218.457 602.809 132.307 647.399 104.285 652.161C76.2631 656.923 0.216385 656.923 0.216385 656.923L-75.4075 675.809V923.889H1118.61L1118.53 383.933Z" fill="url(#paint5_linear_4647_180145)"/>
<g style="mix-blend-mode:overlay" opacity="0.08">
<path d="M374.811 570.935L336.921 588.973C336.921 588.973 323.607 622.344 309.51 635.873C295.412 649.401 241.373 675.557 241.373 675.557L199.865 727.038L130.945 834.996L103.157 923.889H215.575L297.026 728.769L359.68 669.243C359.68 669.243 387.875 628.657 403.147 622.344C418.419 616.031 433.503 610.619 444.765 603.404C456.027 596.189 462.246 583.562 481.449 586.268C481.449 586.268 489.813 576.346 511.21 579.052C532.606 581.758 538.715 572.739 538.715 572.739L516.677 555.909L478.739 537.871L470.14 527.048L439.377 523.44L427.159 509.01L409.271 541.244L374.811 570.935Z" fill="#201352"/>
</g>
<g style="mix-blend-mode:overlay" opacity="0.08">
<path d="M671.276 546.06L641.578 568.23L622.782 606.11L597.72 653.911L538.747 686.073L475.278 757.631L456.669 812.647L515.612 734.163L592.426 688.184L658.808 647.598L701.883 601.6L757.223 559.517H727.994L671.276 546.06Z" fill="#201352"/>
</g>
<path style="mix-blend-mode:overlay" opacity="0.61" d="M778.426 1302.92C1031.61 1302.92 1236.85 1066.56 1236.85 774.993C1236.85 483.428 1031.61 247.068 778.426 247.068C525.244 247.068 320 483.428 320 774.993C320 1066.56 525.244 1302.92 778.426 1302.92Z" fill="url(#paint6_radial_4647_180145)"/>
<path d="M896.659 873.5C896.659 873.5 890.927 797.018 887.575 784.355C884.223 771.692 876.61 745.284 876.61 745.284C876.61 745.284 864.173 765.649 861.307 772.342C858.44 779.034 848.416 787.205 848.416 787.205C848.416 787.205 840.772 778.402 838.861 769.6C837.125 762.491 835.034 755.505 832.595 748.675C832.595 748.675 833.081 749.235 830.215 754.736C827.348 760.238 824.952 760.779 823.526 768.499C822.675 773.089 820.683 777.294 817.793 780.603L808.223 769.6L801.534 770.7L793.891 769.6C793.891 769.6 793.891 771.8 789.599 764.188C785.307 756.576 785.808 745.302 785.808 745.302L782.942 734.299C781.731 737.024 780.288 739.604 778.634 742.001C776.253 745.302 775.768 745.861 774.342 753.005C772.917 760.148 765.258 769.528 765.258 769.528L759.462 777.771C759.462 777.771 753.729 768.968 751.818 765.667C749.907 762.366 749.422 748.062 749.422 748.062L746.085 734.299L739.46 712.833C739.46 712.833 733.727 724.378 733.727 729.88C733.727 735.381 729.905 746.385 727.461 749.144C725.018 751.904 725.08 765.649 725.08 765.649L716.481 773.352C718.179 768.024 718.179 762.175 716.481 756.847C713.615 748.044 710.733 738.141 710.733 738.141V721.077C709.248 721.5 707.87 722.318 706.708 723.464C705.547 724.611 704.635 726.054 704.044 727.679C702.133 733.09 702.133 743.084 701.178 744.743C700.222 746.403 691.153 759.589 691.153 759.589L689.242 766.804C689.242 766.804 681.113 744.797 675.865 741.55C670.618 738.303 666.311 740.991 664.901 733.289C663.491 725.587 660.609 710.741 660.609 710.741C660.609 710.741 655.346 706.34 653.905 715.684C652.464 725.027 645.306 739.891 645.306 739.891C645.306 739.891 641.014 744.292 641.014 745.952C641.014 747.611 635.281 735.489 635.281 735.489L627.167 712.833C627.167 712.833 630.519 689.709 627.167 689.167C623.815 688.626 619.054 697.97 619.054 697.97C619.054 697.97 613.791 715.575 609.969 722.177C606.147 728.779 606.147 750.714 606.147 750.714L597.547 757.929L592.425 768.391C592.425 768.391 590.373 757.929 589.418 756.27C588.463 754.61 578.626 751.868 574.945 745.825C572.657 742.015 570.69 737.963 569.071 733.722C569.071 733.722 560.754 715.016 558.843 717.217C556.932 719.417 556.305 730.421 556.305 730.421L550.729 743.048L544.323 749.649L535.567 738.646C535.567 738.646 535.065 732.044 531.666 729.302C528.267 726.561 516.676 712.833 516.676 712.833C516.676 712.833 516.864 696.816 513.998 689.149C511.131 681.483 511.241 667.738 511.241 667.738C511.241 667.738 506.041 668.838 505.445 674.34C504.301 682.202 502.561 689.934 500.245 697.447C498.679 701.866 493.087 712.87 492.523 715.611C491.959 718.353 486.915 735.94 486.915 735.94V720.536L481.37 715.124L475.246 705.221C475.246 705.221 464.532 697.501 464.845 694.759C465.159 692.017 462.292 695.3 460.867 683.197C459.441 671.093 458.611 657.943 456.638 654.047C454.664 650.151 461.008 636.983 456.638 636.424C452.267 635.864 449.401 646.886 448.43 657.889C447.459 668.892 449.996 676.595 444.686 683.143C439.376 689.69 440.645 704.067 439.282 705.708C437.92 707.35 427.065 717.812 427.065 717.812L422.475 695.246C422.475 695.246 415.27 673.799 414.424 670.498C413.578 667.197 410.634 650.656 409.24 648.491C407.846 646.327 405.026 638.57 404.995 653.434C404.963 668.297 410.728 674.899 403.068 680.942C395.409 686.985 393.028 705.618 393.028 705.618L387.624 717.181L374.811 718.281L369.611 717.181V703.977L361.513 686.353C361.513 686.353 361.513 657.204 358.646 653.885C355.78 650.566 354.339 669.83 354.339 669.83L348.073 677.533C348.073 677.533 343.28 701.758 335.636 706.7C327.992 711.643 325.612 713.303 325.612 717.163C325.612 721.023 315.101 695.697 317.482 681.393C319.863 667.089 318.218 662.687 317.138 655.526C316.057 648.365 312.235 614.255 312.235 614.255C312.235 614.255 310.794 629.659 306.502 634.62C302.21 639.58 298.858 657.186 299.328 659.873C299.798 662.561 299.328 675.278 294.629 681.88C289.93 688.482 288.364 707.133 288.364 707.133L283.664 719.237C283.664 719.237 280.328 715.936 276.506 704.374C272.684 692.811 264.555 688.41 262.644 684.008C260.733 679.607 256.911 677.966 256.379 663.102C255.846 648.239 256.379 635.035 256.379 635.035C256.379 635.035 250.113 639.436 249.205 646.056C248.296 652.676 250.646 665.898 246.824 671.31C243.002 676.721 231.05 694.958 232.006 698.259C232.961 701.56 229.139 708.721 229.139 708.721C229.139 708.721 230.095 673.51 229.139 671.851C228.184 670.191 227.698 668.55 224.362 652.604C221.026 636.658 219.068 630.291 218.645 628.054C218.222 625.817 213.382 639.057 212.912 641.817C212.442 644.577 212.426 655.562 209.09 661.659C205.754 667.756 195.713 682.006 193.802 689.708C191.891 697.411 189.103 707.873 187.114 710.633C185.125 713.393 176.15 717.235 176.15 717.235C176.15 717.235 175.664 691.981 176.15 689.708C176.635 687.436 170.417 667.161 168.976 662.2C167.535 657.24 162.71 639.634 159.906 631.932C157.103 624.23 150.822 604.983 150.822 604.983C150.822 604.983 146.122 607.184 145.574 615.986C145.026 624.789 147 635.828 145.574 643.495C144.149 651.161 137.445 653.398 135.064 656.121C132.683 658.845 116.894 684.73 116.894 684.73L113.558 697.357L94.4482 694.056C93.2698 682.387 91.3431 670.835 88.684 659.494C84.7681 644.162 76.1531 619.215 76.1531 619.215C69.9653 608.139 65.7092 595.781 63.6223 582.832C60.4895 562.088 49.525 546.756 47.9586 544.05C46.3923 541.344 36.211 513.385 36.211 513.385C36.211 513.385 33.8614 526.914 27.596 535.031C21.3305 543.148 22.1137 556.677 21.3305 563.892C20.5473 571.107 16.6315 590.949 16.6315 590.949L21.3305 627.026C21.3305 627.026 24.4632 645.749 16.6315 654.083C8.79964 662.417 4.10057 676.631 4.10057 676.631L-4.51441 645.064L-26.4435 626.124L-56.2043 656.789L-66.3856 658.593C-66.3856 658.593 -78.1333 632.437 -78.9165 629.731C-79.6997 627.026 -112.593 571.107 -112.593 571.107V897.599H896.691L896.659 873.5Z" fill="url(#paint7_linear_4647_180145)"/>
<path style="mix-blend-mode:overlay" opacity="0.61" d="M30.3236 1089.07C491.66 1089.07 865.648 658.39 865.648 127.115C865.648 -404.161 491.66 -834.845 30.3236 -834.845C-431.013 -834.845 -805 -404.161 -805 127.115C-805 658.39 -431.013 1089.07 30.3236 1089.07Z" fill="url(#paint8_radial_4647_180145)"/>
<path d="M606.946 221.004C606.946 221.004 600.681 217.775 597.689 221.004C597.689 221.004 603.5 220.011 606.946 224.972C610.392 220.011 616.203 221.004 616.203 221.004C613.18 217.775 606.946 221.004 606.946 221.004Z" fill="#5A697C"/>
<path d="M441.084 188.282C441.084 188.282 433.253 184.224 429.446 188.282C429.446 188.282 436.761 187.02 441.084 193.261C445.407 187.02 452.722 188.282 452.722 188.282C448.932 184.314 441.084 188.282 441.084 188.282Z" fill="#5A697C"/>
<path d="M686.768 258.794C686.768 258.794 676.351 253.382 671.323 258.794C671.323 258.794 681.019 257.134 686.768 265.414C692.516 257.134 702.212 258.794 702.212 258.794C697.184 253.418 686.768 258.794 686.768 258.794Z" fill="#5A697C"/>
<path d="M645.447 227.696C645.447 227.696 641.782 225.892 640.012 227.696C641.522 229.197 643.451 230.024 645.447 230.024C647.443 230.024 649.372 229.197 650.882 227.696C649.112 225.802 645.447 227.696 645.447 227.696Z" fill="#5A697C"/>
<path d="M516.442 215.213C516.442 215.213 513.027 213.409 511.367 215.213C512.775 216.622 514.577 217.398 516.442 217.398C518.307 217.398 520.109 216.622 521.517 215.213C519.809 213.446 516.442 215.213 516.442 215.213Z" fill="#5A697C"/>
<path d="M398.276 255.655C398.276 255.655 394.61 253.851 392.84 255.655C394.351 257.157 396.28 257.983 398.276 257.983C400.271 257.983 402.2 257.157 403.711 255.655C401.941 253.761 398.276 255.655 398.276 255.655Z" fill="#5A697C"/>
<path d="M526.216 865.779C526.216 865.779 494.889 856.76 486.947 853.766C479.006 850.771 462.23 843.538 462.23 843.538L446.269 840.526L431.702 824.905L414.472 827.304C414.472 827.304 405.637 807.462 405.34 804.233C405.042 801.004 398.698 791.732 398.698 791.732C398.698 791.732 383.129 802.122 378.336 799.38C375.669 797.763 372.665 797.032 369.658 797.27L362.547 782.208C362.547 782.208 358.897 781 359.947 767.778C360.996 754.556 356.281 740.125 356.281 740.125L348.982 735.904L337.485 746.727C337.485 746.727 341.15 772.594 341.15 774.398C341.15 776.201 337.485 797.27 337.485 797.27H329.136L313.99 802.898L302.508 813.216L297.809 814.334L288.411 802.898C288.411 802.898 289.977 815.326 282.662 797.27C275.348 779.214 279.53 778.6 275.363 779.232C271.197 779.863 265.432 788.864 265.432 788.864L258.65 770.213H253.951L245.602 753.978C245.602 753.978 240.903 755.187 239.854 757.586C238.804 759.985 230.456 794.763 230.456 794.763C230.456 794.763 228.372 808.129 226.806 808.418C225.24 808.706 216.875 818.429 216.875 818.429L212.709 833.96L186.081 831.543L162.585 830.352L156.32 826.131L142.223 797.27L144.823 757.586L138.041 751.579C138.041 751.579 131.258 753.978 131.258 740.161C131.258 726.344 113.496 727.534 116.628 706.484C119.761 685.433 129.692 664.401 126.559 654.768C123.426 645.136 105.147 631.318 101.497 601.267C97.8477 571.215 97.832 566.994 90.0002 562.178C82.1684 557.362 82.701 542.336 82.701 528.501C82.701 514.665 77.4694 517.678 73.8198 502.652C70.1701 487.626 56.5898 450.341 56.5898 450.341C56.5898 450.341 51.8906 472.582 49.2748 480.411C46.659 488.239 45.1084 511.076 45.1084 521.285C45.1084 531.495 38.3103 545.348 38.3103 545.348C31.528 551.95 34.6608 574.805 34.6608 588.64C34.6608 602.475 47.1916 655.381 39.8767 666.204C32.5618 677.027 28.9122 680.635 29.4447 686.046C29.9773 691.458 36.1331 705.888 29.4447 720.914C22.7564 735.94 19.5767 746.168 18.4802 758.199C17.3838 770.231 9.08208 799.687 9.08208 799.687C9.08208 799.687 -0.316086 781.649 0.717712 770.122C1.75151 758.596 3.33351 751.489 3.33351 741.875C3.33351 732.26 6.98315 729.248 8.54951 719.02C10.1159 708.793 11.1653 687.147 11.1653 687.147C9.47203 675.219 8.59741 663.156 8.54951 651.07C8.54951 631.842 3.85043 605.379 3.85043 605.379C3.85043 605.379 -1.36557 587.937 -6.06465 578.917C-10.7637 569.898 -17.5461 571.702 -17.0292 555.468C-16.5123 539.233 -15.4628 515.188 -20.1619 504.961C-24.861 494.733 -31.1264 492.947 -31.6433 480.916C-32.1602 468.884 -26.4273 446.048 -31.6433 432.808C-36.8593 419.568 -25.4562 416.574 -31.6433 403.352C-37.8304 390.13 -43.0934 391.933 -46.2261 382.301C-48.1785 376.441 -51.4165 371.264 -55.6243 367.275V352.249C-55.6243 352.249 -61.8897 354.648 -62.9235 367.275C-63.9573 379.902 -68.1551 385.313 -67.6226 391.933C-67.09 398.553 -61.3572 424.402 -70.2384 438.219C-79.1197 452.037 -81.7198 480.916 -81.7198 480.916C-81.7198 480.916 -85.3851 515.784 -86.4189 520.005C-87.4527 524.226 -92.6843 626.43 -99.4823 637.253C-106.28 648.076 -113.58 669.108 -113.58 669.108L-121.411 720.824V886.18H1078.95V615.048C1078.95 615.048 1070.59 585.592 1064.86 563.946C1059.12 542.3 1063.29 539.288 1057.02 527.869C1050.76 516.451 1050.76 491.793 1046.58 488.185C1042.39 484.578 1043.44 512.23 1039.26 521.249C1035.08 530.268 1037.18 559.129 1034.05 566.345C1030.91 573.56 1029.86 591.003 1029.86 591.003C1029.86 591.003 1022.56 594.015 1018.38 593.402C1014.2 592.789 1016.82 602.421 1012.12 609.636C1008.5 614.86 1004.48 619.691 1000.1 624.067C1000.1 624.067 998.536 641.51 994.886 649.321C991.237 657.131 991.237 667.359 989.67 679.39C988.104 691.422 988.621 701.631 985.488 696.833C982.356 692.035 983.405 682.998 983.405 682.998C983.405 682.998 977.14 681.789 977.14 675.187V652.333C977.14 652.333 968.775 634.295 966.175 619.269C963.575 604.243 965.125 589.794 961.476 588.604C957.826 587.413 960.427 617.465 957.294 622.263C954.161 627.061 946.846 647.517 946.329 656.536C945.812 665.555 947.379 680.599 945.28 685.397C943.181 690.195 937.981 698.637 938.498 715.467C939.014 732.296 941.113 741.315 935.882 749.739C930.65 758.163 921.784 767.182 920.75 776.201C919.717 785.22 917.618 797.847 917.618 797.847C917.618 797.847 915.519 783.417 912.919 772.594C910.319 761.771 905.087 747.34 905.087 747.34C905.087 747.34 898.289 719.074 893.59 710.65C888.891 702.227 891.507 681.789 887.857 679.985C884.207 678.182 881.059 702.245 881.059 702.245C881.059 702.245 870.627 725.081 869.061 738.321C867.494 751.561 866.445 760.562 866.445 760.562C866.445 760.562 846.599 763.575 842.95 772.594C839.3 781.613 834.601 791.732 834.601 791.732C834.601 791.732 828.335 794.095 826.236 800.481C824.022 806.225 821.403 811.752 818.405 817.004L805.874 817.112L794.909 818.393C794.909 818.393 765.148 833.924 761.499 835.114C757.849 836.305 757.317 818.88 754.184 814.334C751.051 809.789 751.051 797.901 751.051 797.901C751.051 797.901 747.401 799.705 746.885 808.345C746.362 814.919 745.488 821.449 744.269 827.899L721.29 841.139C721.29 841.139 689.963 848.354 683.181 850.158C676.398 851.962 645.588 865.779 645.588 865.779L629.924 870C629.924 870 590.076 871.804 587.022 872.399C583.967 872.994 549.978 869.387 549.978 869.387L526.216 865.779Z" fill="url(#paint9_linear_4647_180145)"/>
</g>
</g>
<defs>
<linearGradient id="paint0_linear_4647_180145" x1="607" y1="0" x2="607" y2="930" gradientUnits="userSpaceOnUse">
<stop stop-color="#202328"/>
<stop offset="1" stop-color="#234E5B"/>
</linearGradient>
<linearGradient id="paint1_linear_4647_180145" x1="494.589" y1="610.197" x2="494.26" y2="256.838" gradientUnits="userSpaceOnUse">
<stop stop-color="#FFF9D1"/>
<stop offset="1" stop-color="#60BFA8"/>
</linearGradient>
<linearGradient id="paint2_linear_4647_180145" x1="797.697" y1="596.642" x2="797.697" y2="199.116" gradientUnits="userSpaceOnUse">
<stop stop-color="#40B4C2"/>
<stop offset="1" stop-color="#6BBF8E"/>
</linearGradient>
<linearGradient id="paint3_linear_4647_180145" x1="380.262" y1="812.498" x2="380.262" y2="363.347" gradientUnits="userSpaceOnUse">
<stop stop-color="#C1F6E3"/>
<stop offset="1" stop-color="#4F8C7D"/>
</linearGradient>
<linearGradient id="paint4_linear_4647_180145" x1="193.278" y1="797.4" x2="166.987" y2="367.177" gradientUnits="userSpaceOnUse">
<stop stop-color="#79E2F2"/>
<stop offset="1" stop-color="#005355"/>
</linearGradient>
<linearGradient id="paint5_linear_4647_180145" x1="521.517" y1="1057.97" x2="521.517" y2="632.265" gradientUnits="userSpaceOnUse">
<stop stop-color="#6E989E"/>
<stop offset="1" stop-color="#064951"/>
</linearGradient>
<radialGradient id="paint6_radial_4647_180145" cx="0" cy="0" r="1" gradientUnits="userSpaceOnUse" gradientTransform="translate(778.426 774.993) scale(458.427 527.924)">
<stop stop-color="#79E2F2"/>
<stop offset="1" stop-color="#79E2F2" stop-opacity="0"/>
</radialGradient>
<linearGradient id="paint7_linear_4647_180145" x1="391.944" y1="1103.21" x2="410.577" y2="637.054" gradientUnits="userSpaceOnUse">
<stop stop-color="#2F353D"/>
<stop offset="1" stop-color="#202328"/>
</linearGradient>
<radialGradient id="paint8_radial_4647_180145" cx="0" cy="0" r="1" gradientUnits="userSpaceOnUse" gradientTransform="translate(30.3236 127.115) scale(835.324 961.96)">
<stop stop-color="#79E2F2"/>
<stop offset="1" stop-color="#79E2F2" stop-opacity="0"/>
</radialGradient>
<linearGradient id="paint9_linear_4647_180145" x1="478.677" y1="1079.06" x2="478.921" y2="797.877" gradientUnits="userSpaceOnUse">
<stop stop-color="#2F353D"/>
<stop offset="1" stop-color="#202328"/>
</linearGradient>
<clipPath id="clip0_4647_180145">
<rect width="720" height="886" fill="white"/>
</clipPath>
</defs>
</svg>
