<svg width="88" height="88" viewBox="0 0 88 88" fill="none" xmlns="http://www.w3.org/2000/svg">
<rect width="88" height="88" rx="16" fill="#262B31"/>
<g opacity="0.3" clip-path="url(#clip0_4647_181105)">
<path fill-rule="evenodd" clip-rule="evenodd" d="M44.0001 30.667C48.4183 30.667 52.0001 34.2487 52.0001 38.667C52.0001 39.7068 51.8011 40.7014 51.4394 41.6138C54.8359 42.5383 57.3333 45.6443 57.3333 49.3337C57.3333 53.7519 53.7515 57.3337 49.3333 57.3337C47.2839 57.3337 45.4145 56.5622 44.0001 55.2966C42.5847 56.5634 40.7157 57.3337 38.6667 57.3337C34.2485 57.3337 30.6667 53.7519 30.6667 49.3337C30.6667 45.6445 33.164 42.5385 36.5603 41.6139C36.1988 40.7019 36.0001 39.7077 36.0001 38.667C36.0001 34.2487 39.5818 30.667 44.0001 30.667ZM49.3333 44.0003C47.9139 44.0003 46.6242 44.5538 45.6675 45.4597C46.3041 46.6079 46.6667 47.9295 46.6667 49.3337C46.6667 50.7391 46.3043 52.0601 45.6677 53.2079C46.6245 54.1137 47.9141 54.667 49.3333 54.667C52.2787 54.667 54.6666 52.2791 54.6666 49.3337C54.6666 46.3882 52.2787 44.0003 49.3333 44.0003ZM38.0671 44.0337C35.4039 44.3317 33.3334 46.5909 33.3334 49.3337C33.3334 52.2791 35.7212 54.667 38.6667 54.667C41.6122 54.667 44.0001 52.2791 44.0001 49.3337C44.0001 48.347 43.7333 47.4254 43.2675 46.6339C41.21 46.4471 39.3774 45.4813 38.0671 44.0337ZM44.0001 33.3337C41.0546 33.3337 38.6667 35.7215 38.6667 38.667C38.6667 41.4098 40.7372 43.669 43.4003 43.967C44.7093 42.521 46.5425 41.5538 48.6009 41.3667C49.0666 40.5753 49.3334 39.6536 49.3334 38.667C49.3334 35.7215 46.9455 33.3337 44.0001 33.3337Z" fill="#98A2AE"/>
</g>
<defs>
<clipPath id="clip0_4647_181105">
<rect width="32" height="32" fill="white" transform="translate(28 28)"/>
</clipPath>
</defs>
</svg>
