<svg width="1350" height="149" viewBox="0 0 1350 149" fill="none" xmlns="http://www.w3.org/2000/svg">
<path d="M45.3747 38.6839C45.3747 39.8489 45.1643 40.8558 44.7436 41.7044C44.3229 42.553 43.7458 43.2074 43.0123 43.6677C42.2787 44.1279 41.4409 44.3581 40.4988 44.3581C39.5567 44.3581 38.7189 44.1279 37.9854 43.6677C37.2518 43.2074 36.6747 42.553 36.254 41.7044C35.8333 40.8558 35.6229 39.8489 35.6229 38.6839C35.6229 37.5189 35.8333 36.5121 36.254 35.6635C36.6747 34.8149 37.2518 34.1604 37.9854 33.7002C38.7189 33.2399 39.5567 33.0098 40.4988 33.0098C41.4409 33.0098 42.2787 33.2399 43.0123 33.7002C43.7458 34.1604 44.3229 34.8149 44.7436 35.6635C45.1643 36.5121 45.3747 37.5189 45.3747 38.6839ZM44.0802 38.6839C44.0802 37.7274 43.9202 36.9202 43.6002 36.2622C43.2837 35.6041 42.854 35.1061 42.3111 34.7681C41.7717 34.4301 41.1676 34.2611 40.4988 34.2611C39.83 34.2611 39.2241 34.4301 38.6811 34.7681C38.1418 35.1061 37.7121 35.6041 37.3921 36.2622C37.0756 36.9202 36.9174 37.7274 36.9174 38.6839C36.9174 39.6404 37.0756 40.4476 37.3921 41.1057C37.7121 41.7637 38.1418 42.2617 38.6811 42.5997C39.2241 42.9377 39.83 43.1067 40.4988 43.1067C41.1676 43.1067 41.7717 42.9377 42.3111 42.5997C42.854 42.2617 43.2837 41.7637 43.6002 41.1057C43.9202 40.4476 44.0802 39.6404 44.0802 38.6839ZM47.4512 47.3138V35.9224H48.681V37.2384H48.832C48.9255 37.0946 49.055 36.9112 49.2204 36.6883C49.3894 36.4617 49.6303 36.2604 49.9431 36.0842C50.2596 35.9044 50.6875 35.8145 51.2268 35.8145C51.9244 35.8145 52.5393 35.9889 53.0715 36.3377C53.6036 36.6865 54.0189 37.1809 54.3174 37.8209C54.6158 38.461 54.7651 39.2161 54.7651 40.0863C54.7651 40.9636 54.6158 41.7241 54.3174 42.3678C54.0189 43.0078 53.6054 43.5041 53.0768 43.8564C52.5483 44.2052 51.9388 44.3796 51.2484 44.3796C50.7162 44.3796 50.2901 44.2915 49.9701 44.1153C49.6501 43.9355 49.4038 43.7324 49.2312 43.5059C49.0586 43.2757 48.9255 43.0851 48.832 42.9341H48.7242V47.3138H47.4512ZM48.7026 40.0647C48.7026 40.6904 48.7943 41.2423 48.9777 41.7205C49.161 42.1952 49.4289 42.5674 49.7813 42.837C50.1337 43.1031 50.5652 43.2362 51.0758 43.2362C51.608 43.2362 52.052 43.0959 52.408 42.8155C52.7676 42.5314 53.0373 42.1502 53.2171 41.672C53.4005 41.1902 53.4922 40.6544 53.4922 40.0647C53.4922 39.4822 53.4023 38.9572 53.2225 38.4897C53.0463 38.0187 52.7784 37.6465 52.4188 37.3733C52.0628 37.0964 51.6152 36.9579 51.0758 36.9579C50.558 36.9579 50.1229 37.0892 49.7705 37.3517C49.4181 37.6106 49.1521 37.9737 48.9723 38.4412C48.7925 38.9051 48.7026 39.4462 48.7026 40.0647ZM60.3098 35.9224V37.0011H56.0164V35.9224H60.3098ZM57.2677 33.9375H58.5406V41.8338C58.5406 42.1934 58.5928 42.4631 58.697 42.6429C58.8049 42.8191 58.9416 42.9377 59.107 42.9988C59.276 43.0564 59.454 43.0851 59.6409 43.0851C59.7812 43.0851 59.8962 43.078 59.9861 43.0636C60.076 43.0456 60.1479 43.0312 60.2019 43.0204L60.4608 44.1639C60.3745 44.1962 60.254 44.2286 60.0994 44.261C59.9448 44.2969 59.7488 44.3149 59.5115 44.3149C59.1519 44.3149 58.7995 44.2376 58.4543 44.083C58.1127 43.9284 57.8287 43.6928 57.6021 43.3764C57.3792 43.06 57.2677 42.6608 57.2677 42.179V33.9375ZM62.2245 44.207V35.9224H63.4974V44.207H62.2245ZM62.8717 34.5416C62.6236 34.5416 62.4097 34.4571 62.2299 34.2881C62.0537 34.1191 61.9656 33.9159 61.9656 33.6786C61.9656 33.4413 62.0537 33.2381 62.2299 33.0691C62.4097 32.9001 62.6236 32.8156 62.8717 32.8156C63.1199 32.8156 63.332 32.9001 63.5082 33.0691C63.688 33.2381 63.7779 33.4413 63.7779 33.6786C63.7779 33.9159 63.688 34.1191 63.5082 34.2881C63.332 34.4571 63.1199 34.5416 62.8717 34.5416ZM69.1945 44.3796C68.4466 44.3796 67.7903 44.2016 67.2258 43.8457C66.6648 43.4897 66.2262 42.9917 65.9097 42.3516C65.5969 41.7116 65.4405 40.9636 65.4405 40.1078C65.4405 39.2449 65.5969 38.4915 65.9097 37.8479C66.2262 37.2043 66.6648 36.7044 67.2258 36.3485C67.7903 35.9925 68.4466 35.8145 69.1945 35.8145C69.9424 35.8145 70.5968 35.9925 71.1578 36.3485C71.7223 36.7044 72.161 37.2043 72.4738 37.8479C72.7903 38.4915 72.9485 39.2449 72.9485 40.1078C72.9485 40.9636 72.7903 41.7116 72.4738 42.3516C72.161 42.9917 71.7223 43.4897 71.1578 43.8457C70.5968 44.2016 69.9424 44.3796 69.1945 44.3796ZM69.1945 43.2362C69.7626 43.2362 70.2301 43.0905 70.5968 42.7993C70.9636 42.508 71.2351 42.1251 71.4113 41.6504C71.5875 41.1758 71.6756 40.6616 71.6756 40.1078C71.6756 39.5541 71.5875 39.0381 71.4113 38.5599C71.2351 38.0816 70.9636 37.6951 70.5968 37.4002C70.2301 37.1054 69.7626 36.9579 69.1945 36.9579C68.6263 36.9579 68.1589 37.1054 67.7921 37.4002C67.4254 37.6951 67.1539 38.0816 66.9777 38.5599C66.8015 39.0381 66.7134 39.5541 66.7134 40.1078C66.7134 40.6616 66.8015 41.1758 66.9777 41.6504C67.1539 42.1251 67.4254 42.508 67.7921 42.7993C68.1589 43.0905 68.6263 43.2362 69.1945 43.2362ZM76.1644 39.2233V44.207H74.8915V35.9224H76.1213V37.2168H76.2292C76.4233 36.7961 76.7182 36.4581 77.1137 36.2028C77.5093 35.9439 78.0199 35.8145 78.6455 35.8145C79.2065 35.8145 79.6973 35.9295 80.118 36.1597C80.5387 36.3862 80.8659 36.7314 81.0997 37.1953C81.3334 37.6555 81.4502 38.238 81.4502 38.9428V44.207H80.1773V39.0291C80.1773 38.3783 80.0083 37.8713 79.6703 37.5081C79.3323 37.1413 78.8685 36.9579 78.2788 36.9579C77.8724 36.9579 77.5093 37.046 77.1892 37.2222C76.8728 37.3984 76.6229 37.6555 76.4395 37.9935C76.2561 38.3315 76.1644 38.7414 76.1644 39.2233Z" fill="#D9DDE3"/>
<path d="M1100.05 38.6839C1100.05 39.8633 1099.83 40.8773 1099.4 41.7259C1098.97 42.571 1098.38 43.2218 1097.63 43.6785C1096.88 44.1315 1096.03 44.3581 1095.07 44.3581C1094.12 44.3581 1093.26 44.1315 1092.51 43.6785C1091.76 43.2218 1091.17 42.5692 1090.74 41.7205C1090.31 40.8719 1090.1 39.8597 1090.1 38.6839C1090.1 37.5045 1090.31 36.4923 1090.74 35.6473C1091.17 34.7987 1091.76 34.1478 1092.51 33.6948C1093.26 33.2381 1094.12 33.0098 1095.07 33.0098C1096.03 33.0098 1096.88 33.2381 1097.63 33.6948C1098.38 34.1478 1098.97 34.7987 1099.4 35.6473C1099.83 36.4923 1100.05 37.5045 1100.05 38.6839ZM1098.4 38.6839C1098.4 37.785 1098.25 37.0281 1097.96 36.4132C1097.67 35.7947 1097.28 35.3273 1096.77 35.0108C1096.27 34.6908 1095.71 34.5308 1095.07 34.5308C1094.44 34.5308 1093.87 34.6908 1093.37 35.0108C1092.87 35.3273 1092.47 35.7947 1092.18 36.4132C1091.9 37.0281 1091.75 37.785 1091.75 38.6839C1091.75 39.5829 1091.9 40.3416 1092.18 40.96C1092.47 41.5749 1092.87 42.0424 1093.37 42.3624C1093.87 42.6788 1094.44 42.837 1095.07 42.837C1095.71 42.837 1096.27 42.6788 1096.77 42.3624C1097.28 42.0424 1097.67 41.5749 1097.96 40.96C1098.25 40.3416 1098.4 39.5829 1098.4 38.6839ZM1102 47.3138V35.9224H1103.57V37.2654H1103.71C1103.8 37.0928 1103.93 36.8932 1104.11 36.6667C1104.29 36.4401 1104.53 36.2424 1104.84 36.0734C1105.16 35.9008 1105.57 35.8145 1106.08 35.8145C1106.75 35.8145 1107.35 35.9835 1107.87 36.3215C1108.4 36.6595 1108.81 37.1467 1109.11 37.7832C1109.41 38.4196 1109.56 39.1855 1109.56 40.0809C1109.56 40.9762 1109.41 41.7439 1109.12 42.384C1108.82 43.0204 1108.41 43.5112 1107.89 43.8564C1107.36 44.198 1106.77 44.3688 1106.1 44.3688C1105.6 44.3688 1105.19 44.2843 1104.87 44.1153C1104.55 43.9463 1104.3 43.7486 1104.12 43.522C1103.94 43.2955 1103.8 43.0941 1103.71 42.9179H1103.61V47.3138H1102ZM1103.58 40.0647C1103.58 40.6472 1103.66 41.1578 1103.83 41.5965C1104 42.0352 1104.24 42.3786 1104.56 42.6267C1104.88 42.8712 1105.28 42.9935 1105.74 42.9935C1106.22 42.9935 1106.62 42.8658 1106.95 42.6105C1107.27 42.3516 1107.52 42.001 1107.68 41.5587C1107.85 41.1165 1107.93 40.6184 1107.93 40.0647C1107.93 39.5181 1107.85 39.0273 1107.69 38.5922C1107.52 38.1571 1107.28 37.8137 1106.95 37.562C1106.63 37.3103 1106.22 37.1845 1105.74 37.1845C1105.27 37.1845 1104.88 37.3049 1104.55 37.5458C1104.23 37.7868 1103.99 38.123 1103.82 38.5545C1103.66 38.986 1103.58 39.4894 1103.58 40.0647ZM1115.24 35.9224V37.2168H1110.71V35.9224H1115.24ZM1111.93 33.9375H1113.54V41.7745C1113.54 42.0873 1113.58 42.3228 1113.68 42.4811C1113.77 42.6357 1113.89 42.7418 1114.04 42.7993C1114.19 42.8532 1114.35 42.8802 1114.53 42.8802C1114.66 42.8802 1114.77 42.8712 1114.87 42.8532C1114.97 42.8352 1115.04 42.8209 1115.1 42.8101L1115.39 44.1423C1115.29 44.1783 1115.16 44.2142 1114.99 44.2502C1114.82 44.2897 1114.6 44.3113 1114.34 44.3149C1113.92 44.3221 1113.52 44.2466 1113.16 44.0884C1112.79 43.9302 1112.49 43.6856 1112.27 43.3548C1112.04 43.024 1111.93 42.6087 1111.93 42.1089V33.9375ZM1117.02 44.207V35.9224H1118.63V44.207H1117.02ZM1117.84 34.6441C1117.56 34.6441 1117.31 34.5506 1117.11 34.3636C1116.91 34.173 1116.82 33.9465 1116.82 33.684C1116.82 33.4179 1116.91 33.1914 1117.11 33.0044C1117.31 32.8138 1117.56 32.7185 1117.84 32.7185C1118.12 32.7185 1118.36 32.8138 1118.55 33.0044C1118.75 33.1914 1118.85 33.4179 1118.85 33.684C1118.85 33.9465 1118.75 34.173 1118.55 34.3636C1118.36 34.5506 1118.12 34.6441 1117.84 34.6441ZM1124.29 44.3742C1123.52 44.3742 1122.84 44.1962 1122.26 43.8403C1121.68 43.4843 1121.23 42.9863 1120.91 42.3462C1120.59 41.7062 1120.43 40.9582 1120.43 40.1024C1120.43 39.2431 1120.59 38.4915 1120.91 37.8479C1121.23 37.2043 1121.68 36.7044 1122.26 36.3485C1122.84 35.9925 1123.52 35.8145 1124.29 35.8145C1125.07 35.8145 1125.75 35.9925 1126.33 36.3485C1126.91 36.7044 1127.35 37.2043 1127.67 37.8479C1127.99 38.4915 1128.15 39.2431 1128.15 40.1024C1128.15 40.9582 1127.99 41.7062 1127.67 42.3462C1127.35 42.9863 1126.91 43.4843 1126.33 43.8403C1125.75 44.1962 1125.07 44.3742 1124.29 44.3742ZM1124.3 43.0204C1124.8 43.0204 1125.22 42.8874 1125.55 42.6213C1125.88 42.3552 1126.13 42.001 1126.28 41.5587C1126.45 41.1165 1126.53 40.6292 1126.53 40.0971C1126.53 39.5685 1126.45 39.083 1126.28 38.6408C1126.13 38.1949 1125.88 37.8371 1125.55 37.5674C1125.22 37.2977 1124.8 37.1629 1124.3 37.1629C1123.79 37.1629 1123.37 37.2977 1123.04 37.5674C1122.71 37.8371 1122.46 38.1949 1122.3 38.6408C1122.14 39.083 1122.06 39.5685 1122.06 40.0971C1122.06 40.6292 1122.14 41.1165 1122.3 41.5587C1122.46 42.001 1122.71 42.3552 1123.04 42.6213C1123.37 42.8874 1123.79 43.0204 1124.3 43.0204ZM1131.57 39.288V44.207H1129.96V35.9224H1131.5V37.2708H1131.61C1131.8 36.8321 1132.09 36.4797 1132.5 36.2136C1132.91 35.9475 1133.43 35.8145 1134.05 35.8145C1134.61 35.8145 1135.11 35.9331 1135.53 36.1705C1135.96 36.4042 1136.29 36.753 1136.52 37.2168C1136.75 37.6807 1136.87 38.2542 1136.87 38.9374V44.207H1135.26V39.1316C1135.26 38.5311 1135.1 38.0618 1134.79 37.7238C1134.47 37.3822 1134.05 37.2114 1133.5 37.2114C1133.12 37.2114 1132.79 37.2923 1132.5 37.4542C1132.21 37.616 1131.98 37.8533 1131.82 38.1661C1131.65 38.4754 1131.57 38.8493 1131.57 39.288Z" fill="#79E2F2"/>
<rect width="216.98" height="34.7167" transform="translate(1076.22 80.2822)" fill="#2F353D"/>
<path d="M1100.05 97.2679C1100.05 98.4473 1099.83 99.4613 1099.4 100.31C1098.97 101.155 1098.38 101.806 1097.63 102.262C1096.88 102.716 1096.03 102.942 1095.07 102.942C1094.12 102.942 1093.26 102.716 1092.51 102.262C1091.76 101.806 1091.17 101.153 1090.74 100.305C1090.31 99.4559 1090.1 98.4437 1090.1 97.2679C1090.1 96.0885 1090.31 95.0763 1090.74 94.2313C1091.17 93.3827 1091.76 92.7318 1092.51 92.2788C1093.26 91.8221 1094.12 91.5938 1095.07 91.5938C1096.03 91.5938 1096.88 91.8221 1097.63 92.2788C1098.38 92.7318 1098.97 93.3827 1099.4 94.2313C1099.83 95.0763 1100.05 96.0885 1100.05 97.2679ZM1098.4 97.2679C1098.4 96.369 1098.25 95.612 1097.96 94.9972C1097.67 94.3787 1097.28 93.9112 1096.77 93.5948C1096.27 93.2748 1095.71 93.1148 1095.07 93.1148C1094.44 93.1148 1093.87 93.2748 1093.37 93.5948C1092.87 93.9112 1092.47 94.3787 1092.18 94.9972C1091.9 95.612 1091.75 96.369 1091.75 97.2679C1091.75 98.1668 1091.9 98.9256 1092.18 99.544C1092.47 100.159 1092.87 100.626 1093.37 100.946C1093.87 101.263 1094.44 101.421 1095.07 101.421C1095.71 101.421 1096.27 101.263 1096.77 100.946C1097.28 100.626 1097.67 100.159 1097.96 99.544C1098.25 98.9256 1098.4 98.1668 1098.4 97.2679ZM1102 105.898V94.5063H1103.57V95.8494H1103.71C1103.8 95.6768 1103.93 95.4772 1104.11 95.2507C1104.29 95.0241 1104.53 94.8264 1104.84 94.6574C1105.16 94.4848 1105.57 94.3985 1106.08 94.3985C1106.75 94.3985 1107.35 94.5675 1107.87 94.9055C1108.4 95.2435 1108.81 95.7307 1109.11 96.3672C1109.41 97.0036 1109.56 97.7695 1109.56 98.6649C1109.56 99.5602 1109.41 100.328 1109.12 100.968C1108.82 101.604 1108.41 102.095 1107.89 102.44C1107.36 102.782 1106.77 102.953 1106.1 102.953C1105.6 102.953 1105.19 102.868 1104.87 102.699C1104.55 102.53 1104.3 102.333 1104.12 102.106C1103.94 101.879 1103.8 101.678 1103.71 101.502H1103.61V105.898H1102ZM1103.58 98.6487C1103.58 99.2312 1103.66 99.7418 1103.83 100.18C1104 100.619 1104.24 100.963 1104.56 101.211C1104.88 101.455 1105.28 101.577 1105.74 101.577C1106.22 101.577 1106.62 101.45 1106.95 101.194C1107.27 100.936 1107.52 100.585 1107.68 100.143C1107.85 99.7004 1107.93 99.2024 1107.93 98.6487C1107.93 98.1021 1107.85 97.6113 1107.69 97.1762C1107.52 96.7411 1107.28 96.3977 1106.95 96.146C1106.63 95.8943 1106.22 95.7685 1105.74 95.7685C1105.27 95.7685 1104.88 95.8889 1104.55 96.1298C1104.23 96.3708 1103.99 96.707 1103.82 97.1385C1103.66 97.5699 1103.58 98.0734 1103.58 98.6487ZM1115.24 94.5063V95.8008H1110.71V94.5063H1115.24ZM1111.93 92.5215H1113.54V100.358C1113.54 100.671 1113.58 100.907 1113.68 101.065C1113.77 101.22 1113.89 101.326 1114.04 101.383C1114.19 101.437 1114.35 101.464 1114.53 101.464C1114.66 101.464 1114.77 101.455 1114.87 101.437C1114.97 101.419 1115.04 101.405 1115.1 101.394L1115.39 102.726C1115.29 102.762 1115.16 102.798 1114.99 102.834C1114.82 102.874 1114.6 102.895 1114.34 102.899C1113.92 102.906 1113.52 102.831 1113.16 102.672C1112.79 102.514 1112.49 102.27 1112.27 101.939C1112.04 101.608 1111.93 101.193 1111.93 100.693V92.5215ZM1117.02 102.791V94.5063H1118.63V102.791H1117.02ZM1117.84 93.228C1117.56 93.228 1117.31 93.1345 1117.11 92.9476C1116.91 92.757 1116.82 92.5305 1116.82 92.268C1116.82 92.0019 1116.91 91.7753 1117.11 91.5884C1117.31 91.3978 1117.56 91.3025 1117.84 91.3025C1118.12 91.3025 1118.36 91.3978 1118.55 91.5884C1118.75 91.7753 1118.85 92.0019 1118.85 92.268C1118.85 92.5305 1118.75 92.757 1118.55 92.9476C1118.36 93.1345 1118.12 93.228 1117.84 93.228ZM1124.29 102.958C1123.52 102.958 1122.84 102.78 1122.26 102.424C1121.68 102.068 1121.23 101.57 1120.91 100.93C1120.59 100.29 1120.43 99.5422 1120.43 98.6864C1120.43 97.827 1120.59 97.0755 1120.91 96.4319C1121.23 95.7882 1121.68 95.2884 1122.26 94.9324C1122.84 94.5765 1123.52 94.3985 1124.29 94.3985C1125.07 94.3985 1125.75 94.5765 1126.33 94.9324C1126.91 95.2884 1127.35 95.7882 1127.67 96.4319C1127.99 97.0755 1128.15 97.827 1128.15 98.6864C1128.15 99.5422 1127.99 100.29 1127.67 100.93C1127.35 101.57 1126.91 102.068 1126.33 102.424C1125.75 102.78 1125.07 102.958 1124.29 102.958ZM1124.3 101.604C1124.8 101.604 1125.22 101.471 1125.55 101.205C1125.88 100.939 1126.13 100.585 1126.28 100.143C1126.45 99.7004 1126.53 99.2132 1126.53 98.681C1126.53 98.1525 1126.45 97.667 1126.28 97.2247C1126.13 96.7789 1125.88 96.4211 1125.55 96.1514C1125.22 95.8817 1124.8 95.7469 1124.3 95.7469C1123.79 95.7469 1123.37 95.8817 1123.04 96.1514C1122.71 96.4211 1122.46 96.7789 1122.3 97.2247C1122.14 97.667 1122.06 98.1525 1122.06 98.681C1122.06 99.2132 1122.14 99.7004 1122.3 100.143C1122.46 100.585 1122.71 100.939 1123.04 101.205C1123.37 101.471 1123.79 101.604 1124.3 101.604ZM1131.57 97.872V102.791H1129.96V94.5063H1131.5V95.8548H1131.61C1131.8 95.4161 1132.09 95.0637 1132.5 94.7976C1132.91 94.5315 1133.43 94.3985 1134.05 94.3985C1134.61 94.3985 1135.11 94.5171 1135.53 94.7544C1135.96 94.9882 1136.29 95.337 1136.52 95.8008C1136.75 96.2647 1136.87 96.8382 1136.87 97.5214V102.791H1135.26V97.7156C1135.26 97.1151 1135.1 96.6458 1134.79 96.3078C1134.47 95.9662 1134.05 95.7954 1133.5 95.7954C1133.12 95.7954 1132.79 95.8763 1132.5 96.0381C1132.21 96.2 1131.98 96.4373 1131.82 96.7501C1131.65 97.0593 1131.57 97.4333 1131.57 97.872Z" fill="#79E2F2"/>
<path d="M309.006 38.6839C309.006 39.8489 308.795 40.8558 308.374 41.7044C307.954 42.553 307.377 43.2074 306.643 43.6677C305.91 44.1279 305.072 44.3581 304.13 44.3581C303.188 44.3581 302.35 44.1279 301.616 43.6677C300.883 43.2074 300.306 42.553 299.885 41.7044C299.464 40.8558 299.254 39.8489 299.254 38.6839C299.254 37.5189 299.464 36.5121 299.885 35.6635C300.306 34.8149 300.883 34.1604 301.616 33.7002C302.35 33.2399 303.188 33.0098 304.13 33.0098C305.072 33.0098 305.91 33.2399 306.643 33.7002C307.377 34.1604 307.954 34.8149 308.374 35.6635C308.795 36.5121 309.006 37.5189 309.006 38.6839ZM307.711 38.6839C307.711 37.7274 307.551 36.9202 307.231 36.2622C306.915 35.6041 306.485 35.1061 305.942 34.7681C305.403 34.4301 304.798 34.2611 304.13 34.2611C303.461 34.2611 302.855 34.4301 302.312 34.7681C301.773 35.1061 301.343 35.6041 301.023 36.2622C300.706 36.9202 300.548 37.7274 300.548 38.6839C300.548 39.6404 300.706 40.4476 301.023 41.1057C301.343 41.7637 301.773 42.2617 302.312 42.5997C302.855 42.9377 303.461 43.1067 304.13 43.1067C304.798 43.1067 305.403 42.9377 305.942 42.5997C306.485 42.2617 306.915 41.7637 307.231 41.1057C307.551 40.4476 307.711 39.6404 307.711 38.6839ZM311.082 47.3138V35.9224H312.312V37.2384H312.463C312.556 37.0946 312.686 36.9112 312.851 36.6883C313.02 36.4617 313.261 36.2604 313.574 36.0842C313.89 35.9044 314.318 35.8145 314.858 35.8145C315.555 35.8145 316.17 35.9889 316.702 36.3377C317.234 36.6865 317.65 37.1809 317.948 37.8209C318.247 38.461 318.396 39.2161 318.396 40.0863C318.396 40.9636 318.247 41.7241 317.948 42.3678C317.65 43.0078 317.236 43.5041 316.708 43.8564C316.179 44.2052 315.57 44.3796 314.879 44.3796C314.347 44.3796 313.921 44.2915 313.601 44.1153C313.281 43.9355 313.035 43.7324 312.862 43.5059C312.689 43.2757 312.556 43.0851 312.463 42.9341H312.355V47.3138H311.082ZM312.333 40.0647C312.333 40.6904 312.425 41.2423 312.609 41.7205C312.792 42.1952 313.06 42.5674 313.412 42.837C313.765 43.1031 314.196 43.2362 314.707 43.2362C315.239 43.2362 315.683 43.0959 316.039 42.8155C316.398 42.5314 316.668 42.1502 316.848 41.672C317.031 41.1902 317.123 40.6544 317.123 40.0647C317.123 39.4822 317.033 38.9572 316.853 38.4897C316.677 38.0187 316.409 37.6465 316.05 37.3733C315.694 37.0964 315.246 36.9579 314.707 36.9579C314.189 36.9579 313.754 37.0892 313.401 37.3517C313.049 37.6106 312.783 37.9737 312.603 38.4412C312.423 38.9051 312.333 39.4462 312.333 40.0647ZM323.941 35.9224V37.0011H319.647V35.9224H323.941ZM320.899 33.9375H322.171V41.8338C322.171 42.1934 322.224 42.4631 322.328 42.6429C322.436 42.8191 322.572 42.9377 322.738 42.9988C322.907 43.0564 323.085 43.0851 323.272 43.0851C323.412 43.0851 323.527 43.078 323.617 43.0636C323.707 43.0456 323.779 43.0312 323.833 43.0204L324.092 44.1639C324.005 44.1962 323.885 44.2286 323.73 44.261C323.576 44.2969 323.38 44.3149 323.142 44.3149C322.783 44.3149 322.43 44.2376 322.085 44.083C321.744 43.9284 321.46 43.6928 321.233 43.3764C321.01 43.06 320.899 42.6608 320.899 42.179V33.9375ZM325.855 44.207V35.9224H327.128V44.207H325.855ZM326.503 34.5416C326.255 34.5416 326.041 34.4571 325.861 34.2881C325.685 34.1191 325.596 33.9159 325.596 33.6786C325.596 33.4413 325.685 33.2381 325.861 33.0691C326.041 32.9001 326.255 32.8156 326.503 32.8156C326.751 32.8156 326.963 32.9001 327.139 33.0691C327.319 33.2381 327.409 33.4413 327.409 33.6786C327.409 33.9159 327.319 34.1191 327.139 34.2881C326.963 34.4571 326.751 34.5416 326.503 34.5416ZM332.825 44.3796C332.077 44.3796 331.421 44.2016 330.857 43.8457C330.296 43.4897 329.857 42.9917 329.541 42.3516C329.228 41.7116 329.071 40.9636 329.071 40.1078C329.071 39.2449 329.228 38.4915 329.541 37.8479C329.857 37.2043 330.296 36.7044 330.857 36.3485C331.421 35.9925 332.077 35.8145 332.825 35.8145C333.573 35.8145 334.228 35.9925 334.789 36.3485C335.353 36.7044 335.792 37.2043 336.105 37.8479C336.421 38.4915 336.579 39.2449 336.579 40.1078C336.579 40.9636 336.421 41.7116 336.105 42.3516C335.792 42.9917 335.353 43.4897 334.789 43.8457C334.228 44.2016 333.573 44.3796 332.825 44.3796ZM332.825 43.2362C333.393 43.2362 333.861 43.0905 334.228 42.7993C334.594 42.508 334.866 42.1251 335.042 41.6504C335.218 41.1758 335.306 40.6616 335.306 40.1078C335.306 39.5541 335.218 39.0381 335.042 38.5599C334.866 38.0816 334.594 37.6951 334.228 37.4002C333.861 37.1054 333.393 36.9579 332.825 36.9579C332.257 36.9579 331.79 37.1054 331.423 37.4002C331.056 37.6951 330.785 38.0816 330.609 38.5599C330.432 39.0381 330.344 39.5541 330.344 40.1078C330.344 40.6616 330.432 41.1758 330.609 41.6504C330.785 42.1251 331.056 42.508 331.423 42.7993C331.79 43.0905 332.257 43.2362 332.825 43.2362ZM339.795 39.2233V44.207H338.522V35.9224H339.752V37.2168H339.86C340.054 36.7961 340.349 36.4581 340.745 36.2028C341.14 35.9439 341.651 35.8145 342.276 35.8145C342.837 35.8145 343.328 35.9295 343.749 36.1597C344.17 36.3862 344.497 36.7314 344.731 37.1953C344.964 37.6555 345.081 38.238 345.081 38.9428V44.207H343.808V39.0291C343.808 38.3783 343.639 37.8713 343.301 37.5081C342.963 37.1413 342.499 36.9579 341.91 36.9579C341.503 36.9579 341.14 37.046 340.82 37.2222C340.504 37.3984 340.254 37.6555 340.07 37.9935C339.887 38.3315 339.795 38.7414 339.795 39.2233Z" fill="#D9DDE3"/>
<path fill-rule="evenodd" clip-rule="evenodd" d="M480.927 43.0792C481.132 43.2818 481.408 43.3955 481.696 43.3955C481.985 43.3955 482.261 43.2818 482.466 43.0792L485.683 39.8907C485.916 39.6542 486.032 39.3482 486.032 39.0455C486.032 38.7428 485.916 38.4423 485.683 38.2112L482.477 35.0325C482.272 34.8301 481.995 34.7166 481.707 34.7166C481.419 34.7166 481.143 34.8301 480.938 35.0325C480.836 35.1321 480.756 35.2508 480.701 35.3818C480.647 35.5127 480.618 35.6532 480.618 35.7952C480.618 35.9371 480.647 36.0776 480.701 36.2086C480.756 36.3395 480.836 36.4582 480.938 36.5579L483.451 39.0509L480.927 41.5538C480.826 41.6537 480.746 41.7725 480.692 41.9034C480.637 42.0343 480.609 42.1747 480.609 42.3165C480.609 42.4583 480.637 42.5987 480.692 42.7296C480.746 42.8605 480.826 42.9793 480.927 43.0792Z" fill="#D9DDE3"/>
<rect width="216.98" height="34.7167" transform="translate(285.328 80.2822)" fill="#2F353D"/>
<path d="M309.006 97.2679C309.006 98.4329 308.795 99.4397 308.374 100.288C307.954 101.137 307.377 101.791 306.643 102.252C305.91 102.712 305.072 102.942 304.13 102.942C303.188 102.942 302.35 102.712 301.616 102.252C300.883 101.791 300.306 101.137 299.885 100.288C299.464 99.4397 299.254 98.4329 299.254 97.2679C299.254 96.1029 299.464 95.096 299.885 94.2474C300.306 93.3988 300.883 92.7444 301.616 92.2841C302.35 91.8239 303.188 91.5938 304.13 91.5938C305.072 91.5938 305.91 91.8239 306.643 92.2841C307.377 92.7444 307.954 93.3988 308.374 94.2474C308.795 95.096 309.006 96.1029 309.006 97.2679ZM307.711 97.2679C307.711 96.3114 307.551 95.5042 307.231 94.8461C306.915 94.1881 306.485 93.6901 305.942 93.3521C305.403 93.0141 304.798 92.8451 304.13 92.8451C303.461 92.8451 302.855 93.0141 302.312 93.3521C301.773 93.6901 301.343 94.1881 301.023 94.8461C300.706 95.5042 300.548 96.3114 300.548 97.2679C300.548 98.2244 300.706 99.0316 301.023 99.6897C301.343 100.348 301.773 100.846 302.312 101.184C302.855 101.522 303.461 101.691 304.13 101.691C304.798 101.691 305.403 101.522 305.942 101.184C306.485 100.846 306.915 100.348 307.231 99.6897C307.551 99.0316 307.711 98.2244 307.711 97.2679ZM311.082 105.898V94.5063H312.312V95.8224H312.463C312.556 95.6786 312.686 95.4952 312.851 95.2722C313.02 95.0457 313.261 94.8443 313.574 94.6682C313.89 94.4884 314.318 94.3985 314.858 94.3985C315.555 94.3985 316.17 94.5729 316.702 94.9217C317.234 95.2704 317.65 95.7649 317.948 96.4049C318.247 97.045 318.396 97.8001 318.396 98.6703C318.396 99.5476 318.247 100.308 317.948 100.952C317.65 101.592 317.236 102.088 316.708 102.44C316.179 102.789 315.57 102.964 314.879 102.964C314.347 102.964 313.921 102.876 313.601 102.699C313.281 102.52 313.035 102.316 312.862 102.09C312.689 101.86 312.556 101.669 312.463 101.518H312.355V105.898H311.082ZM312.333 98.6487C312.333 99.2743 312.425 99.8263 312.609 100.305C312.792 100.779 313.06 101.151 313.412 101.421C313.765 101.687 314.196 101.82 314.707 101.82C315.239 101.82 315.683 101.68 316.039 101.399C316.398 101.115 316.668 100.734 316.848 100.256C317.031 99.7742 317.123 99.2384 317.123 98.6487C317.123 98.0662 317.033 97.5412 316.853 97.0737C316.677 96.6027 316.409 96.2305 316.05 95.9572C315.694 95.6804 315.246 95.5419 314.707 95.5419C314.189 95.5419 313.754 95.6732 313.401 95.9357C313.049 96.1946 312.783 96.5577 312.603 97.0252C312.423 97.489 312.333 98.0302 312.333 98.6487ZM323.941 94.5063V95.5851H319.647V94.5063H323.941ZM320.899 92.5215H322.171V100.418C322.171 100.777 322.224 101.047 322.328 101.227C322.436 101.403 322.572 101.522 322.738 101.583C322.907 101.64 323.085 101.669 323.272 101.669C323.412 101.669 323.527 101.662 323.617 101.648C323.707 101.63 323.779 101.615 323.833 101.604L324.092 102.748C324.005 102.78 323.885 102.813 323.73 102.845C323.576 102.881 323.38 102.899 323.142 102.899C322.783 102.899 322.43 102.822 322.085 102.667C321.744 102.512 321.46 102.277 321.233 101.96C321.01 101.644 320.899 101.245 320.899 100.763V92.5215ZM325.855 102.791V94.5063H327.128V102.791H325.855ZM326.503 93.1256C326.255 93.1256 326.041 93.0411 325.861 92.8721C325.685 92.7031 325.596 92.4999 325.596 92.2626C325.596 92.0253 325.685 91.8221 325.861 91.6531C326.041 91.4841 326.255 91.3996 326.503 91.3996C326.751 91.3996 326.963 91.4841 327.139 91.6531C327.319 91.8221 327.409 92.0253 327.409 92.2626C327.409 92.4999 327.319 92.7031 327.139 92.8721C326.963 93.0411 326.751 93.1256 326.503 93.1256ZM332.825 102.964C332.077 102.964 331.421 102.786 330.857 102.43C330.296 102.074 329.857 101.576 329.541 100.936C329.228 100.296 329.071 99.5476 329.071 98.6918C329.071 97.8288 329.228 97.0755 329.541 96.4319C329.857 95.7882 330.296 95.2884 330.857 94.9324C331.421 94.5765 332.077 94.3985 332.825 94.3985C333.573 94.3985 334.228 94.5765 334.789 94.9324C335.353 95.2884 335.792 95.7882 336.105 96.4319C336.421 97.0755 336.579 97.8288 336.579 98.6918C336.579 99.5476 336.421 100.296 336.105 100.936C335.792 101.576 335.353 102.074 334.789 102.43C334.228 102.786 333.573 102.964 332.825 102.964ZM332.825 101.82C333.393 101.82 333.861 101.675 334.228 101.383C334.594 101.092 334.866 100.709 335.042 100.234C335.218 99.7598 335.306 99.2456 335.306 98.6918C335.306 98.1381 335.218 97.6221 335.042 97.1438C334.866 96.6656 334.594 96.2791 334.228 95.9842C333.861 95.6894 333.393 95.5419 332.825 95.5419C332.257 95.5419 331.79 95.6894 331.423 95.9842C331.056 96.2791 330.785 96.6656 330.609 97.1438C330.432 97.6221 330.344 98.1381 330.344 98.6918C330.344 99.2456 330.432 99.7598 330.609 100.234C330.785 100.709 331.056 101.092 331.423 101.383C331.79 101.675 332.257 101.82 332.825 101.82ZM339.795 97.8073V102.791H338.522V94.5063H339.752V95.8008H339.86C340.054 95.3801 340.349 95.0421 340.745 94.7868C341.14 94.5279 341.651 94.3985 342.276 94.3985C342.837 94.3985 343.328 94.5135 343.749 94.7437C344.17 94.9702 344.497 95.3154 344.731 95.7792C344.964 96.2395 345.081 96.822 345.081 97.5268V102.791H343.808V97.6131C343.808 96.9623 343.639 96.4553 343.301 96.0921C342.963 95.7253 342.499 95.5419 341.91 95.5419C341.503 95.5419 341.14 95.63 340.82 95.8062C340.504 95.9824 340.254 96.2395 340.07 96.5775C339.887 96.9155 339.795 97.3254 339.795 97.8073Z" fill="#D9DDE3"/>
<path fill-rule="evenodd" clip-rule="evenodd" d="M480.927 101.663C481.132 101.866 481.408 101.979 481.696 101.979C481.985 101.979 482.261 101.866 482.466 101.663L485.683 98.4746C485.916 98.2381 486.032 97.9322 486.032 97.6295C486.032 97.3268 485.916 97.0263 485.683 96.7952L482.477 93.6165C482.272 93.4141 481.995 93.3006 481.707 93.3006C481.419 93.3006 481.143 93.4141 480.938 93.6165C480.836 93.7161 480.756 93.8348 480.701 93.9658C480.647 94.0967 480.618 94.2372 480.618 94.3792C480.618 94.5211 480.647 94.6616 480.701 94.7925C480.756 94.9235 480.836 95.0422 480.938 95.1418L483.451 97.6349L480.927 100.138C480.826 100.238 480.746 100.356 480.692 100.487C480.637 100.618 480.609 100.759 480.609 100.9C480.609 101.042 480.637 101.183 480.692 101.314C480.746 101.445 480.826 101.563 480.927 101.663Z" fill="#D9DDE3"/>
<rect width="216.98" height="34.7167" transform="translate(21.6973 80.2822)" fill="#2F353D"/>
<path d="M45.3747 97.1175C45.3747 98.2825 45.1643 99.2894 44.7436 100.138C44.3229 100.987 43.7458 101.641 43.0123 102.101C42.2787 102.562 41.4409 102.792 40.4988 102.792C39.5567 102.792 38.7189 102.562 37.9854 102.101C37.2518 101.641 36.6747 100.987 36.254 100.138C35.8333 99.2894 35.6229 98.2825 35.6229 97.1175C35.6229 95.9525 35.8333 94.9457 36.254 94.0971C36.6747 93.2484 37.2518 92.594 37.9854 92.1338C38.7189 91.6735 39.5567 91.4434 40.4988 91.4434C41.4409 91.4434 42.2787 91.6735 43.0123 92.1338C43.7458 92.594 44.3229 93.2484 44.7436 94.0971C45.1643 94.9457 45.3747 95.9525 45.3747 97.1175ZM44.0802 97.1175C44.0802 96.161 43.9202 95.3538 43.6002 94.6958C43.2837 94.0377 42.854 93.5397 42.3111 93.2017C41.7717 92.8637 41.1676 92.6947 40.4988 92.6947C39.83 92.6947 39.2241 92.8637 38.6811 93.2017C38.1418 93.5397 37.7121 94.0377 37.3921 94.6958C37.0756 95.3538 36.9174 96.161 36.9174 97.1175C36.9174 98.074 37.0756 98.8812 37.3921 99.5393C37.7121 100.197 38.1418 100.695 38.6811 101.033C39.2241 101.371 39.83 101.54 40.4988 101.54C41.1676 101.54 41.7717 101.371 42.3111 101.033C42.854 100.695 43.2837 100.197 43.6002 99.5393C43.9202 98.8812 44.0802 98.074 44.0802 97.1175ZM47.4512 105.747V94.3559H48.681V95.672H48.832C48.9255 95.5282 49.055 95.3448 49.2204 95.1218C49.3894 94.8953 49.6303 94.694 49.9431 94.5178C50.2596 94.338 50.6875 94.2481 51.2268 94.2481C51.9244 94.2481 52.5393 94.4225 53.0715 94.7713C53.6036 95.1201 54.0189 95.6145 54.3174 96.2545C54.6158 96.8946 54.7651 97.6497 54.7651 98.5199C54.7651 99.3972 54.6158 100.158 54.3174 100.801C54.0189 101.441 53.6054 101.938 53.0768 102.29C52.5483 102.639 51.9388 102.813 51.2484 102.813C50.7162 102.813 50.2901 102.725 49.9701 102.549C49.6501 102.369 49.4038 102.166 49.2312 101.939C49.0586 101.709 48.9255 101.519 48.832 101.368H48.7242V105.747H47.4512ZM48.7026 98.4983C48.7026 99.124 48.7943 99.6759 48.9777 100.154C49.161 100.629 49.4289 101.001 49.7813 101.271C50.1337 101.537 50.5652 101.67 51.0758 101.67C51.608 101.67 52.052 101.53 52.408 101.249C52.7676 100.965 53.0373 100.584 53.2171 100.106C53.4005 99.6238 53.4922 99.088 53.4922 98.4983C53.4922 97.9158 53.4023 97.3908 53.2225 96.9233C53.0463 96.4523 52.7784 96.0801 52.4188 95.8068C52.0628 95.53 51.6152 95.3915 51.0758 95.3915C50.558 95.3915 50.1229 95.5228 49.7705 95.7853C49.4181 96.0442 49.1521 96.4073 48.9723 96.8748C48.7925 97.3386 48.7026 97.8798 48.7026 98.4983ZM60.3098 94.3559V95.4347H56.0164V94.3559H60.3098ZM57.2677 92.3711H58.5406V100.267C58.5406 100.627 58.5928 100.897 58.697 101.076C58.8049 101.253 58.9416 101.371 59.107 101.432C59.276 101.49 59.454 101.519 59.6409 101.519C59.7812 101.519 59.8962 101.512 59.9861 101.497C60.076 101.479 60.1479 101.465 60.2019 101.454L60.4608 102.597C60.3745 102.63 60.254 102.662 60.0994 102.695C59.9448 102.731 59.7488 102.748 59.5115 102.748C59.1519 102.748 58.7995 102.671 58.4543 102.517C58.1127 102.362 57.8287 102.126 57.6021 101.81C57.3792 101.494 57.2677 101.094 57.2677 100.613V92.3711ZM62.2245 102.641V94.3559H63.4974V102.641H62.2245ZM62.8717 92.9752C62.6236 92.9752 62.4097 92.8907 62.2299 92.7217C62.0537 92.5527 61.9656 92.3495 61.9656 92.1122C61.9656 91.8749 62.0537 91.6717 62.2299 91.5027C62.4097 91.3337 62.6236 91.2492 62.8717 91.2492C63.1199 91.2492 63.332 91.3337 63.5082 91.5027C63.688 91.6717 63.7779 91.8749 63.7779 92.1122C63.7779 92.3495 63.688 92.5527 63.5082 92.7217C63.332 92.8907 63.1199 92.9752 62.8717 92.9752ZM69.1945 102.813C68.4466 102.813 67.7903 102.635 67.2258 102.279C66.6648 101.923 66.2262 101.425 65.9097 100.785C65.5969 100.145 65.4405 99.3972 65.4405 98.5414C65.4405 97.6784 65.5969 96.9251 65.9097 96.2815C66.2262 95.6378 66.6648 95.138 67.2258 94.782C67.7903 94.4261 68.4466 94.2481 69.1945 94.2481C69.9424 94.2481 70.5968 94.4261 71.1578 94.782C71.7223 95.138 72.161 95.6378 72.4738 96.2815C72.7903 96.9251 72.9485 97.6784 72.9485 98.5414C72.9485 99.3972 72.7903 100.145 72.4738 100.785C72.161 101.425 71.7223 101.923 71.1578 102.279C70.5968 102.635 69.9424 102.813 69.1945 102.813ZM69.1945 101.67C69.7626 101.67 70.2301 101.524 70.5968 101.233C70.9636 100.942 71.2351 100.559 71.4113 100.084C71.5875 99.6094 71.6756 99.0952 71.6756 98.5414C71.6756 97.9877 71.5875 97.4717 71.4113 96.9935C71.2351 96.5152 70.9636 96.1287 70.5968 95.8338C70.2301 95.539 69.7626 95.3915 69.1945 95.3915C68.6263 95.3915 68.1589 95.539 67.7921 95.8338C67.4254 96.1287 67.1539 96.5152 66.9777 96.9935C66.8015 97.4717 66.7134 97.9877 66.7134 98.5414C66.7134 99.0952 66.8015 99.6094 66.9777 100.084C67.1539 100.559 67.4254 100.942 67.7921 101.233C68.1589 101.524 68.6263 101.67 69.1945 101.67ZM76.1644 97.6569V102.641H74.8915V94.3559H76.1213V95.6504H76.2292C76.4233 95.2297 76.7182 94.8917 77.1137 94.6364C77.5093 94.3775 78.0199 94.2481 78.6455 94.2481C79.2065 94.2481 79.6973 94.3631 80.118 94.5933C80.5387 94.8198 80.8659 95.165 81.0997 95.6289C81.3334 96.0891 81.4502 96.6716 81.4502 97.3764V102.641H80.1773V97.4627C80.1773 96.8119 80.0083 96.3049 79.6703 95.9417C79.3323 95.5749 78.8685 95.3915 78.2788 95.3915C77.8724 95.3915 77.5093 95.4796 77.1892 95.6558C76.8728 95.832 76.6229 96.0891 76.4395 96.4271C76.2561 96.7651 76.1644 97.175 76.1644 97.6569Z" fill="#D9DDE3"/>
<rect width="216.98" height="34.7167" transform="translate(548.959 80.2822)" fill="#2F353D"/>
<path fill-rule="evenodd" clip-rule="evenodd" d="M564.87 91.8547C564.678 91.8547 564.494 91.9309 564.358 92.0666C564.223 92.2022 564.146 92.3862 564.146 92.578V102.704C564.146 102.896 564.223 103.08 564.358 103.215C564.494 103.351 564.678 103.427 564.87 103.427H576.442C576.634 103.427 576.818 103.351 576.953 103.215C577.089 103.08 577.165 102.896 577.165 102.704V94.7478C577.165 94.556 577.089 94.372 576.953 94.2364C576.818 94.1007 576.634 94.0245 576.442 94.0245H569.933C569.691 94.0245 569.465 93.9037 569.331 93.7025L568.099 91.8547H564.87ZM563.335 91.0437C563.742 90.6368 564.294 90.4082 564.87 90.4082H568.486C568.728 90.4082 568.954 90.5291 569.088 90.7303L570.32 92.578H576.442C577.017 92.578 577.569 92.8066 577.976 93.2135C578.383 93.6204 578.612 94.1723 578.612 94.7478V102.704C578.612 103.279 578.383 103.831 577.976 104.238C577.569 104.645 577.017 104.874 576.442 104.874H564.87C564.294 104.874 563.742 104.645 563.335 104.238C562.929 103.831 562.7 103.279 562.7 102.704V92.578C562.7 92.0025 562.929 91.4506 563.335 91.0437Z" fill="#D9DDE3"/>
<path d="M598.672 97.1175C598.672 98.2825 598.462 99.2894 598.041 100.138C597.62 100.987 597.043 101.641 596.31 102.101C595.576 102.562 594.738 102.792 593.796 102.792C592.854 102.792 592.016 102.562 591.283 102.101C590.549 101.641 589.972 100.987 589.551 100.138C589.131 99.2894 588.92 98.2825 588.92 97.1175C588.92 95.9525 589.131 94.9457 589.551 94.0971C589.972 93.2484 590.549 92.594 591.283 92.1338C592.016 91.6735 592.854 91.4434 593.796 91.4434C594.738 91.4434 595.576 91.6735 596.31 92.1338C597.043 92.594 597.62 93.2484 598.041 94.0971C598.462 94.9457 598.672 95.9525 598.672 97.1175ZM597.378 97.1175C597.378 96.161 597.218 95.3538 596.898 94.6958C596.581 94.0377 596.151 93.5397 595.608 93.2017C595.069 92.8637 594.465 92.6947 593.796 92.6947C593.127 92.6947 592.521 92.8637 591.979 93.2017C591.439 93.5397 591.009 94.0377 590.689 94.6958C590.373 95.3538 590.215 96.161 590.215 97.1175C590.215 98.074 590.373 98.8812 590.689 99.5393C591.009 100.197 591.439 100.695 591.979 101.033C592.521 101.371 593.127 101.54 593.796 101.54C594.465 101.54 595.069 101.371 595.608 101.033C596.151 100.695 596.581 100.197 596.898 99.5393C597.218 98.8812 597.378 98.074 597.378 97.1175ZM600.749 105.747V94.3559H601.978V95.672H602.129C602.223 95.5282 602.352 95.3448 602.518 95.1218C602.687 94.8953 602.928 94.694 603.24 94.5178C603.557 94.338 603.985 94.2481 604.524 94.2481C605.222 94.2481 605.837 94.4225 606.369 94.7713C606.901 95.1201 607.316 95.6145 607.615 96.2545C607.913 96.8946 608.062 97.6497 608.062 98.5199C608.062 99.3972 607.913 100.158 607.615 100.801C607.316 101.441 606.903 101.938 606.374 102.29C605.846 102.639 605.236 102.813 604.546 102.813C604.014 102.813 603.587 102.725 603.267 102.549C602.947 102.369 602.701 102.166 602.529 101.939C602.356 101.709 602.223 101.519 602.129 101.368H602.022V105.747H600.749ZM602 98.4983C602 99.124 602.092 99.6759 602.275 100.154C602.458 100.629 602.726 101.001 603.079 101.271C603.431 101.537 603.863 101.67 604.373 101.67C604.905 101.67 605.349 101.53 605.705 101.249C606.065 100.965 606.335 100.584 606.514 100.106C606.698 99.6238 606.79 99.088 606.79 98.4983C606.79 97.9158 606.7 97.3908 606.52 96.9233C606.344 96.4523 606.076 96.0801 605.716 95.8068C605.36 95.53 604.913 95.3915 604.373 95.3915C603.855 95.3915 603.42 95.5228 603.068 95.7853C602.716 96.0442 602.449 96.4073 602.27 96.8748C602.09 97.3386 602 97.8798 602 98.4983ZM613.607 94.3559V95.4347H609.314V94.3559H613.607ZM610.565 92.3711H611.838V100.267C611.838 100.627 611.89 100.897 611.994 101.076C612.102 101.253 612.239 101.371 612.404 101.432C612.573 101.49 612.751 101.519 612.938 101.519C613.079 101.519 613.194 101.512 613.283 101.497C613.373 101.479 613.445 101.465 613.499 101.454L613.758 102.597C613.672 102.63 613.551 102.662 613.397 102.695C613.242 102.731 613.046 102.748 612.809 102.748C612.449 102.748 612.097 102.671 611.752 102.517C611.41 102.362 611.126 102.126 610.899 101.81C610.677 101.494 610.565 101.094 610.565 100.613V92.3711ZM615.522 102.641V94.3559H616.795V102.641H615.522ZM616.169 92.9752C615.921 92.9752 615.707 92.8907 615.527 92.7217C615.351 92.5527 615.263 92.3495 615.263 92.1122C615.263 91.8749 615.351 91.6717 615.527 91.5027C615.707 91.3337 615.921 91.2492 616.169 91.2492C616.417 91.2492 616.629 91.3337 616.806 91.5027C616.985 91.6717 617.075 91.8749 617.075 92.1122C617.075 92.3495 616.985 92.5527 616.806 92.7217C616.629 92.8907 616.417 92.9752 616.169 92.9752ZM622.492 102.813C621.744 102.813 621.088 102.635 620.523 102.279C619.962 101.923 619.524 101.425 619.207 100.785C618.894 100.145 618.738 99.3972 618.738 98.5414C618.738 97.6784 618.894 96.9251 619.207 96.2815C619.524 95.6378 619.962 95.138 620.523 94.782C621.088 94.4261 621.744 94.2481 622.492 94.2481C623.24 94.2481 623.894 94.4261 624.455 94.782C625.02 95.138 625.458 95.6378 625.771 96.2815C626.088 96.9251 626.246 97.6784 626.246 98.5414C626.246 99.3972 626.088 100.145 625.771 100.785C625.458 101.425 625.02 101.923 624.455 102.279C623.894 102.635 623.24 102.813 622.492 102.813ZM622.492 101.67C623.06 101.67 623.527 101.524 623.894 101.233C624.261 100.942 624.532 100.559 624.709 100.084C624.885 99.6094 624.973 99.0952 624.973 98.5414C624.973 97.9877 624.885 97.4717 624.709 96.9935C624.532 96.5152 624.261 96.1287 623.894 95.8338C623.527 95.539 623.06 95.3915 622.492 95.3915C621.924 95.3915 621.456 95.539 621.089 95.8338C620.723 96.1287 620.451 96.5152 620.275 96.9935C620.099 97.4717 620.011 97.9877 620.011 98.5414C620.011 99.0952 620.099 99.6094 620.275 100.084C620.451 100.559 620.723 100.942 621.089 101.233C621.456 101.524 621.924 101.67 622.492 101.67ZM629.462 97.6569V102.641H628.189V94.3559H629.419V95.6504H629.527C629.721 95.2297 630.016 94.8917 630.411 94.6364C630.807 94.3775 631.317 94.2481 631.943 94.2481C632.504 94.2481 632.995 94.3631 633.415 94.5933C633.836 94.8198 634.163 95.165 634.397 95.6289C634.631 96.0891 634.748 96.6716 634.748 97.3764V102.641H633.475V97.4627C633.475 96.8119 633.306 96.3049 632.968 95.9417C632.63 95.5749 632.166 95.3915 631.576 95.3915C631.17 95.3915 630.807 95.4796 630.487 95.6558C630.17 95.832 629.92 96.0891 629.737 96.4271C629.554 96.7651 629.462 97.175 629.462 97.6569Z" fill="#D9DDE3"/>
<path fill-rule="evenodd" clip-rule="evenodd" d="M564.87 33.2698C564.678 33.2698 564.494 33.346 564.358 33.4816C564.223 33.6173 564.146 33.8012 564.146 33.993V44.1188C564.146 44.3106 564.223 44.4945 564.358 44.6302C564.494 44.7658 564.678 44.842 564.87 44.842H576.442C576.634 44.842 576.818 44.7658 576.953 44.6302C577.089 44.4945 577.165 44.3106 577.165 44.1188V36.1628C577.165 35.971 577.089 35.787 576.953 35.6514C576.818 35.5158 576.634 35.4396 576.442 35.4396H569.933C569.691 35.4396 569.465 35.3187 569.331 35.1175L568.099 33.2698H564.87ZM563.335 32.4588C563.742 32.0518 564.294 31.8232 564.87 31.8232H568.486C568.728 31.8232 568.954 31.9441 569.088 32.1453L570.32 33.993H576.442C577.017 33.993 577.569 34.2216 577.976 34.6286C578.383 35.0355 578.612 35.5874 578.612 36.1628V44.1188C578.612 44.6942 578.383 45.2461 577.976 45.653C577.569 46.0599 577.017 46.2886 576.442 46.2886H564.87C564.294 46.2886 563.742 46.0599 563.335 45.653C562.929 45.2461 562.7 44.6942 562.7 44.1188V33.993C562.7 33.4176 562.929 32.8657 563.335 32.4588Z" fill="#D9DDE3"/>
<path d="M598.672 38.5325C598.672 39.6976 598.462 40.7044 598.041 41.553C597.62 42.4016 597.043 43.056 596.31 43.5163C595.576 43.9766 594.738 44.2067 593.796 44.2067C592.854 44.2067 592.016 43.9766 591.283 43.5163C590.549 43.056 589.972 42.4016 589.551 41.553C589.131 40.7044 588.92 39.6976 588.92 38.5325C588.92 37.3675 589.131 36.3607 589.551 35.5121C589.972 34.6635 590.549 34.0091 591.283 33.5488C592.016 33.0885 592.854 32.8584 593.796 32.8584C594.738 32.8584 595.576 33.0885 596.31 33.5488C597.043 34.0091 597.62 34.6635 598.041 35.5121C598.462 36.3607 598.672 37.3675 598.672 38.5325ZM597.378 38.5325C597.378 37.5761 597.218 36.7688 596.898 36.1108C596.581 35.4528 596.151 34.9547 595.608 34.6167C595.069 34.2787 594.465 34.1097 593.796 34.1097C593.127 34.1097 592.521 34.2787 591.979 34.6167C591.439 34.9547 591.009 35.4528 590.689 36.1108C590.373 36.7688 590.215 37.5761 590.215 38.5325C590.215 39.489 590.373 40.2963 590.689 40.9543C591.009 41.6123 591.439 42.1103 591.979 42.4484C592.521 42.7864 593.127 42.9554 593.796 42.9554C594.465 42.9554 595.069 42.7864 595.608 42.4484C596.151 42.1103 596.581 41.6123 596.898 40.9543C597.218 40.2963 597.378 39.489 597.378 38.5325ZM600.749 47.1624V35.771H601.978V37.087H602.129C602.223 36.9432 602.352 36.7598 602.518 36.5369C602.687 36.3104 602.928 36.109 603.24 35.9328C603.557 35.753 603.985 35.6631 604.524 35.6631C605.222 35.6631 605.837 35.8375 606.369 36.1863C606.901 36.5351 607.316 37.0295 607.615 37.6696C607.913 38.3096 608.062 39.0647 608.062 39.9349C608.062 40.8123 607.913 41.5728 607.615 42.2164C607.316 42.8565 606.903 43.3527 606.374 43.7051C605.846 44.0539 605.236 44.2283 604.546 44.2283C604.014 44.2283 603.587 44.1402 603.267 43.964C602.947 43.7842 602.701 43.581 602.529 43.3545C602.356 43.1244 602.223 42.9338 602.129 42.7828H602.022V47.1624H600.749ZM602 39.9133C602 40.539 602.092 41.0909 602.275 41.5692C602.458 42.0438 602.726 42.416 603.079 42.6857C603.431 42.9518 603.863 43.0848 604.373 43.0848C604.905 43.0848 605.349 42.9446 605.705 42.6641C606.065 42.38 606.335 41.9989 606.514 41.5206C606.698 41.0388 606.79 40.503 606.79 39.9133C606.79 39.3308 606.7 38.8058 606.52 38.3384C606.344 37.8673 606.076 37.4952 605.716 37.2219C605.36 36.945 604.913 36.8066 604.373 36.8066C603.855 36.8066 603.42 36.9378 603.068 37.2003C602.716 37.4592 602.449 37.8224 602.27 38.2898C602.09 38.7537 602 39.2949 602 39.9133ZM613.607 35.771V36.8497H609.314V35.771H613.607ZM610.565 33.7861H611.838V41.6824C611.838 42.042 611.89 42.3117 611.994 42.4915C612.102 42.6677 612.239 42.7864 612.404 42.8475C612.573 42.905 612.751 42.9338 612.938 42.9338C613.079 42.9338 613.194 42.9266 613.283 42.9122C613.373 42.8942 613.445 42.8798 613.499 42.8691L613.758 44.0125C613.672 44.0449 613.551 44.0772 613.397 44.1096C613.242 44.1456 613.046 44.1635 612.809 44.1635C612.449 44.1635 612.097 44.0862 611.752 43.9316C611.41 43.777 611.126 43.5415 610.899 43.225C610.677 42.9086 610.565 42.5095 610.565 42.0276V33.7861ZM615.522 44.0557V35.771H616.795V44.0557H615.522ZM616.169 34.3902C615.921 34.3902 615.707 34.3057 615.527 34.1367C615.351 33.9677 615.263 33.7645 615.263 33.5272C615.263 33.2899 615.351 33.0867 615.527 32.9177C615.707 32.7487 615.921 32.6642 616.169 32.6642C616.417 32.6642 616.629 32.7487 616.806 32.9177C616.985 33.0867 617.075 33.2899 617.075 33.5272C617.075 33.7645 616.985 33.9677 616.806 34.1367C616.629 34.3057 616.417 34.3902 616.169 34.3902ZM622.492 44.2283C621.744 44.2283 621.088 44.0503 620.523 43.6943C619.962 43.3383 619.524 42.8403 619.207 42.2002C618.894 41.5602 618.738 40.8123 618.738 39.9565C618.738 39.0935 618.894 38.3402 619.207 37.6965C619.524 37.0529 619.962 36.5531 620.523 36.1971C621.088 35.8411 621.744 35.6631 622.492 35.6631C623.24 35.6631 623.894 35.8411 624.455 36.1971C625.02 36.5531 625.458 37.0529 625.771 37.6965C626.088 38.3402 626.246 39.0935 626.246 39.9565C626.246 40.8123 626.088 41.5602 625.771 42.2002C625.458 42.8403 625.02 43.3383 624.455 43.6943C623.894 44.0503 623.24 44.2283 622.492 44.2283ZM622.492 43.0848C623.06 43.0848 623.527 42.9392 623.894 42.6479C624.261 42.3567 624.532 41.9737 624.709 41.4991C624.885 41.0244 624.973 40.5102 624.973 39.9565C624.973 39.4027 624.885 38.8867 624.709 38.4085C624.532 37.9303 624.261 37.5437 623.894 37.2489C623.527 36.954 623.06 36.8066 622.492 36.8066C621.924 36.8066 621.456 36.954 621.089 37.2489C620.723 37.5437 620.451 37.9303 620.275 38.4085C620.099 38.8867 620.011 39.4027 620.011 39.9565C620.011 40.5102 620.099 41.0244 620.275 41.4991C620.451 41.9737 620.723 42.3567 621.089 42.6479C621.456 42.9392 621.924 43.0848 622.492 43.0848ZM629.462 39.0719V44.0557H628.189V35.771H629.419V37.0655H629.527C629.721 36.6448 630.016 36.3068 630.411 36.0515C630.807 35.7926 631.317 35.6631 631.943 35.6631C632.504 35.6631 632.995 35.7782 633.415 36.0083C633.836 36.2348 634.163 36.58 634.397 37.0439C634.631 37.5042 634.748 38.0867 634.748 38.7914V44.0557H633.475V38.8777C633.475 38.2269 633.306 37.7199 632.968 37.3567C632.63 36.99 632.166 36.8066 631.576 36.8066C631.17 36.8066 630.807 36.8947 630.487 37.0709C630.17 37.2471 629.92 37.5042 629.737 37.8422C629.554 38.1802 629.462 38.5901 629.462 39.0719Z" fill="#D9DDE3"/>
<g clip-path="url(#clip0_4647_181289)">
<path fill-rule="evenodd" clip-rule="evenodd" d="M828.501 33.2698C828.309 33.2698 828.125 33.346 827.989 33.4816C827.854 33.6173 827.777 33.8012 827.777 33.993V44.1188C827.777 44.3106 827.854 44.4945 827.989 44.6302C828.125 44.7658 828.309 44.842 828.501 44.842H840.073C840.265 44.842 840.449 44.7658 840.584 44.6302C840.72 44.4945 840.796 44.3106 840.796 44.1188V36.1628C840.796 35.971 840.72 35.787 840.584 35.6514C840.449 35.5158 840.265 35.4396 840.073 35.4396H833.563C833.322 35.4396 833.096 35.3187 832.962 35.1175L831.73 33.2698H828.501ZM826.966 32.4588C827.373 32.0518 827.925 31.8232 828.501 31.8232H832.117C832.359 31.8232 832.585 31.9441 832.719 32.1453L833.951 33.993H840.073C840.648 33.993 841.2 34.2216 841.607 34.6286C842.014 35.0355 842.243 35.5874 842.243 36.1628V44.1188C842.243 44.6942 842.014 45.2461 841.607 45.653C841.2 46.0599 840.648 46.2886 840.073 46.2886H828.501C827.925 46.2886 827.373 46.0599 826.966 45.653C826.559 45.2461 826.331 44.6942 826.331 44.1188V33.993C826.331 33.4176 826.559 32.8657 826.966 32.4588Z" fill="#D9DDE3"/>
</g>
<path d="M862.303 38.5325C862.303 39.6976 862.093 40.7044 861.672 41.553C861.251 42.4016 860.674 43.056 859.94 43.5163C859.207 43.9766 858.369 44.2067 857.427 44.2067C856.485 44.2067 855.647 43.9766 854.914 43.5163C854.18 43.056 853.603 42.4016 853.182 41.553C852.762 40.7044 852.551 39.6976 852.551 38.5325C852.551 37.3675 852.762 36.3607 853.182 35.5121C853.603 34.6635 854.18 34.0091 854.914 33.5488C855.647 33.0885 856.485 32.8584 857.427 32.8584C858.369 32.8584 859.207 33.0885 859.94 33.5488C860.674 34.0091 861.251 34.6635 861.672 35.5121C862.093 36.3607 862.303 37.3675 862.303 38.5325ZM861.008 38.5325C861.008 37.5761 860.848 36.7688 860.528 36.1108C860.212 35.4528 859.782 34.9547 859.239 34.6167C858.7 34.2787 858.096 34.1097 857.427 34.1097C856.758 34.1097 856.152 34.2787 855.609 34.6167C855.07 34.9547 854.64 35.4528 854.32 36.1108C854.004 36.7688 853.846 37.5761 853.846 38.5325C853.846 39.489 854.004 40.2963 854.32 40.9543C854.64 41.6123 855.07 42.1103 855.609 42.4484C856.152 42.7864 856.758 42.9554 857.427 42.9554C858.096 42.9554 858.7 42.7864 859.239 42.4484C859.782 42.1103 860.212 41.6123 860.528 40.9543C860.848 40.2963 861.008 39.489 861.008 38.5325ZM864.379 47.1624V35.771H865.609V37.087H865.76C865.854 36.9432 865.983 36.7598 866.149 36.5369C866.318 36.3104 866.559 36.109 866.871 35.9328C867.188 35.753 867.616 35.6631 868.155 35.6631C868.853 35.6631 869.467 35.8375 870 36.1863C870.532 36.5351 870.947 37.0295 871.246 37.6696C871.544 38.3096 871.693 39.0647 871.693 39.9349C871.693 40.8123 871.544 41.5728 871.246 42.2164C870.947 42.8565 870.534 43.3527 870.005 43.7051C869.476 44.0539 868.867 44.2283 868.177 44.2283C867.644 44.2283 867.218 44.1402 866.898 43.964C866.578 43.7842 866.332 43.581 866.159 43.3545C865.987 43.1244 865.854 42.9338 865.76 42.7828H865.652V47.1624H864.379ZM865.631 39.9133C865.631 40.539 865.722 41.0909 865.906 41.5692C866.089 42.0438 866.357 42.416 866.71 42.6857C867.062 42.9518 867.493 43.0848 868.004 43.0848C868.536 43.0848 868.98 42.9446 869.336 42.6641C869.696 42.38 869.966 41.9989 870.145 41.5206C870.329 41.0388 870.42 40.503 870.42 39.9133C870.42 39.3308 870.33 38.8058 870.151 38.3384C869.975 37.8673 869.707 37.4952 869.347 37.2219C868.991 36.945 868.543 36.8066 868.004 36.8066C867.486 36.8066 867.051 36.9378 866.699 37.2003C866.346 37.4592 866.08 37.8224 865.9 38.2898C865.721 38.7537 865.631 39.2949 865.631 39.9133ZM877.238 35.771V36.8497H872.945V35.771H877.238ZM874.196 33.7861H875.469V41.6824C875.469 42.042 875.521 42.3117 875.625 42.4915C875.733 42.6677 875.87 42.7864 876.035 42.8475C876.204 42.905 876.382 42.9338 876.569 42.9338C876.709 42.9338 876.824 42.9266 876.914 42.9122C877.004 42.8942 877.076 42.8798 877.13 42.8691L877.389 44.0125C877.303 44.0449 877.182 44.0772 877.028 44.1096C876.873 44.1456 876.677 44.1635 876.44 44.1635C876.08 44.1635 875.728 44.0862 875.383 43.9316C875.041 43.777 874.757 43.5415 874.53 43.225C874.307 42.9086 874.196 42.5095 874.196 42.0276V33.7861ZM879.153 44.0557V35.771H880.426V44.0557H879.153ZM879.8 34.3902C879.552 34.3902 879.338 34.3057 879.158 34.1367C878.982 33.9677 878.894 33.7645 878.894 33.5272C878.894 33.2899 878.982 33.0867 879.158 32.9177C879.338 32.7487 879.552 32.6642 879.8 32.6642C880.048 32.6642 880.26 32.7487 880.436 32.9177C880.616 33.0867 880.706 33.2899 880.706 33.5272C880.706 33.7645 880.616 33.9677 880.436 34.1367C880.26 34.3057 880.048 34.3902 879.8 34.3902ZM886.123 44.2283C885.375 44.2283 884.719 44.0503 884.154 43.6943C883.593 43.3383 883.154 42.8403 882.838 42.2002C882.525 41.5602 882.369 40.8123 882.369 39.9565C882.369 39.0935 882.525 38.3402 882.838 37.6965C883.154 37.0529 883.593 36.5531 884.154 36.1971C884.719 35.8411 885.375 35.6631 886.123 35.6631C886.871 35.6631 887.525 35.8411 888.086 36.1971C888.651 36.5531 889.089 37.0529 889.402 37.6965C889.718 38.3402 889.877 39.0935 889.877 39.9565C889.877 40.8123 889.718 41.5602 889.402 42.2002C889.089 42.8403 888.651 43.3383 888.086 43.6943C887.525 44.0503 886.871 44.2283 886.123 44.2283ZM886.123 43.0848C886.691 43.0848 887.158 42.9392 887.525 42.6479C887.892 42.3567 888.163 41.9737 888.339 41.4991C888.516 41.0244 888.604 40.5102 888.604 39.9565C888.604 39.4027 888.516 38.8867 888.339 38.4085C888.163 37.9303 887.892 37.5437 887.525 37.2489C887.158 36.954 886.691 36.8066 886.123 36.8066C885.555 36.8066 885.087 36.954 884.72 37.2489C884.354 37.5437 884.082 37.9303 883.906 38.4085C883.73 38.8867 883.642 39.4027 883.642 39.9565C883.642 40.5102 883.73 41.0244 883.906 41.4991C884.082 41.9737 884.354 42.3567 884.72 42.6479C885.087 42.9392 885.555 43.0848 886.123 43.0848ZM893.093 39.0719V44.0557H891.82V35.771H893.05V37.0655H893.157C893.352 36.6448 893.646 36.3068 894.042 36.0515C894.437 35.7926 894.948 35.6631 895.574 35.6631C896.135 35.6631 896.626 35.7782 897.046 36.0083C897.467 36.2348 897.794 36.58 898.028 37.0439C898.262 37.5042 898.378 38.0867 898.378 38.7914V44.0557H897.106V38.8777C897.106 38.2269 896.937 37.7199 896.599 37.3567C896.261 36.99 895.797 36.8066 895.207 36.8066C894.801 36.8066 894.437 36.8947 894.117 37.0709C893.801 37.2471 893.551 37.5042 893.368 37.8422C893.184 38.1802 893.093 38.5901 893.093 39.0719Z" fill="#D9DDE3"/>
<path fill-rule="evenodd" clip-rule="evenodd" d="M1008.19 43.0792C1008.39 43.2818 1008.67 43.3955 1008.96 43.3955C1009.24 43.3955 1009.52 43.2818 1009.73 43.0792L1012.94 39.8907C1013.18 39.6542 1013.29 39.3482 1013.29 39.0455C1013.29 38.7428 1013.18 38.4423 1012.94 38.2112L1009.74 35.0325C1009.53 34.8301 1009.26 34.7166 1008.97 34.7166C1008.68 34.7166 1008.4 34.8301 1008.2 35.0325C1008.1 35.1321 1008.02 35.2508 1007.96 35.3818C1007.91 35.5127 1007.88 35.6532 1007.88 35.7952C1007.88 35.9371 1007.91 36.0776 1007.96 36.2086C1008.02 36.3395 1008.1 36.4582 1008.2 36.5579L1010.71 39.0509L1008.19 41.5538C1008.09 41.6537 1008.01 41.7725 1007.95 41.9034C1007.9 42.0343 1007.87 42.1747 1007.87 42.3165C1007.87 42.4583 1007.9 42.5987 1007.95 42.7296C1008.01 42.8605 1008.09 42.9793 1008.19 43.0792Z" fill="#D9DDE3"/>
<rect width="216.98" height="34.7167" transform="translate(812.588 80.2822)" fill="#2F353D"/>
<g clip-path="url(#clip1_4647_181289)">
<path fill-rule="evenodd" clip-rule="evenodd" d="M828.501 91.8547C828.309 91.8547 828.125 91.9309 827.989 92.0666C827.854 92.2022 827.777 92.3862 827.777 92.578V102.704C827.777 102.896 827.854 103.08 827.989 103.215C828.125 103.351 828.309 103.427 828.501 103.427H840.073C840.265 103.427 840.449 103.351 840.584 103.215C840.72 103.08 840.796 102.896 840.796 102.704V94.7478C840.796 94.556 840.72 94.372 840.584 94.2364C840.449 94.1007 840.265 94.0245 840.073 94.0245H833.563C833.322 94.0245 833.096 93.9037 832.962 93.7025L831.73 91.8547H828.501ZM826.966 91.0437C827.373 90.6368 827.925 90.4082 828.501 90.4082H832.117C832.359 90.4082 832.585 90.5291 832.719 90.7303L833.951 92.578H840.073C840.648 92.578 841.2 92.8066 841.607 93.2135C842.014 93.6204 842.243 94.1723 842.243 94.7478V102.704C842.243 103.279 842.014 103.831 841.607 104.238C841.2 104.645 840.648 104.874 840.073 104.874H828.501C827.925 104.874 827.373 104.645 826.966 104.238C826.559 103.831 826.331 103.279 826.331 102.704V92.578C826.331 92.0025 826.559 91.4506 826.966 91.0437Z" fill="#D9DDE3"/>
</g>
<path d="M862.303 97.1175C862.303 98.2825 862.093 99.2894 861.672 100.138C861.251 100.987 860.674 101.641 859.94 102.101C859.207 102.562 858.369 102.792 857.427 102.792C856.485 102.792 855.647 102.562 854.914 102.101C854.18 101.641 853.603 100.987 853.182 100.138C852.762 99.2894 852.551 98.2825 852.551 97.1175C852.551 95.9525 852.762 94.9457 853.182 94.0971C853.603 93.2484 854.18 92.594 854.914 92.1338C855.647 91.6735 856.485 91.4434 857.427 91.4434C858.369 91.4434 859.207 91.6735 859.94 92.1338C860.674 92.594 861.251 93.2484 861.672 94.0971C862.093 94.9457 862.303 95.9525 862.303 97.1175ZM861.008 97.1175C861.008 96.161 860.848 95.3538 860.528 94.6958C860.212 94.0377 859.782 93.5397 859.239 93.2017C858.7 92.8637 858.096 92.6947 857.427 92.6947C856.758 92.6947 856.152 92.8637 855.609 93.2017C855.07 93.5397 854.64 94.0377 854.32 94.6958C854.004 95.3538 853.846 96.161 853.846 97.1175C853.846 98.074 854.004 98.8812 854.32 99.5393C854.64 100.197 855.07 100.695 855.609 101.033C856.152 101.371 856.758 101.54 857.427 101.54C858.096 101.54 858.7 101.371 859.239 101.033C859.782 100.695 860.212 100.197 860.528 99.5393C860.848 98.8812 861.008 98.074 861.008 97.1175ZM864.379 105.747V94.3559H865.609V95.672H865.76C865.854 95.5282 865.983 95.3448 866.149 95.1218C866.318 94.8953 866.559 94.694 866.871 94.5178C867.188 94.338 867.616 94.2481 868.155 94.2481C868.853 94.2481 869.467 94.4225 870 94.7713C870.532 95.1201 870.947 95.6145 871.246 96.2545C871.544 96.8946 871.693 97.6497 871.693 98.5199C871.693 99.3972 871.544 100.158 871.246 100.801C870.947 101.441 870.534 101.938 870.005 102.29C869.476 102.639 868.867 102.813 868.177 102.813C867.644 102.813 867.218 102.725 866.898 102.549C866.578 102.369 866.332 102.166 866.159 101.939C865.987 101.709 865.854 101.519 865.76 101.368H865.652V105.747H864.379ZM865.631 98.4983C865.631 99.124 865.722 99.6759 865.906 100.154C866.089 100.629 866.357 101.001 866.71 101.271C867.062 101.537 867.493 101.67 868.004 101.67C868.536 101.67 868.98 101.53 869.336 101.249C869.696 100.965 869.966 100.584 870.145 100.106C870.329 99.6238 870.42 99.088 870.42 98.4983C870.42 97.9158 870.33 97.3908 870.151 96.9233C869.975 96.4523 869.707 96.0801 869.347 95.8068C868.991 95.53 868.543 95.3915 868.004 95.3915C867.486 95.3915 867.051 95.5228 866.699 95.7853C866.346 96.0442 866.08 96.4073 865.9 96.8748C865.721 97.3386 865.631 97.8798 865.631 98.4983ZM877.238 94.3559V95.4347H872.945V94.3559H877.238ZM874.196 92.3711H875.469V100.267C875.469 100.627 875.521 100.897 875.625 101.076C875.733 101.253 875.87 101.371 876.035 101.432C876.204 101.49 876.382 101.519 876.569 101.519C876.709 101.519 876.824 101.512 876.914 101.497C877.004 101.479 877.076 101.465 877.13 101.454L877.389 102.597C877.303 102.63 877.182 102.662 877.028 102.695C876.873 102.731 876.677 102.748 876.44 102.748C876.08 102.748 875.728 102.671 875.383 102.517C875.041 102.362 874.757 102.126 874.53 101.81C874.307 101.494 874.196 101.094 874.196 100.613V92.3711ZM879.153 102.641V94.3559H880.426V102.641H879.153ZM879.8 92.9752C879.552 92.9752 879.338 92.8907 879.158 92.7217C878.982 92.5527 878.894 92.3495 878.894 92.1122C878.894 91.8749 878.982 91.6717 879.158 91.5027C879.338 91.3337 879.552 91.2492 879.8 91.2492C880.048 91.2492 880.26 91.3337 880.436 91.5027C880.616 91.6717 880.706 91.8749 880.706 92.1122C880.706 92.3495 880.616 92.5527 880.436 92.7217C880.26 92.8907 880.048 92.9752 879.8 92.9752ZM886.123 102.813C885.375 102.813 884.719 102.635 884.154 102.279C883.593 101.923 883.154 101.425 882.838 100.785C882.525 100.145 882.369 99.3972 882.369 98.5414C882.369 97.6784 882.525 96.9251 882.838 96.2815C883.154 95.6378 883.593 95.138 884.154 94.782C884.719 94.4261 885.375 94.2481 886.123 94.2481C886.871 94.2481 887.525 94.4261 888.086 94.782C888.651 95.138 889.089 95.6378 889.402 96.2815C889.718 96.9251 889.877 97.6784 889.877 98.5414C889.877 99.3972 889.718 100.145 889.402 100.785C889.089 101.425 888.651 101.923 888.086 102.279C887.525 102.635 886.871 102.813 886.123 102.813ZM886.123 101.67C886.691 101.67 887.158 101.524 887.525 101.233C887.892 100.942 888.163 100.559 888.339 100.084C888.516 99.6094 888.604 99.0952 888.604 98.5414C888.604 97.9877 888.516 97.4717 888.339 96.9935C888.163 96.5152 887.892 96.1287 887.525 95.8338C887.158 95.539 886.691 95.3915 886.123 95.3915C885.555 95.3915 885.087 95.539 884.72 95.8338C884.354 96.1287 884.082 96.5152 883.906 96.9935C883.73 97.4717 883.642 97.9877 883.642 98.5414C883.642 99.0952 883.73 99.6094 883.906 100.084C884.082 100.559 884.354 100.942 884.72 101.233C885.087 101.524 885.555 101.67 886.123 101.67ZM893.093 97.6569V102.641H891.82V94.3559H893.05V95.6504H893.157C893.352 95.2297 893.646 94.8917 894.042 94.6364C894.437 94.3775 894.948 94.2481 895.574 94.2481C896.135 94.2481 896.626 94.3631 897.046 94.5933C897.467 94.8198 897.794 95.165 898.028 95.6289C898.262 96.0891 898.378 96.6716 898.378 97.3764V102.641H897.106V97.4627C897.106 96.8119 896.937 96.3049 896.599 95.9417C896.261 95.5749 895.797 95.3915 895.207 95.3915C894.801 95.3915 894.437 95.4796 894.117 95.6558C893.801 95.832 893.551 96.0891 893.368 96.4271C893.184 96.7651 893.093 97.175 893.093 97.6569Z" fill="#D9DDE3"/>
<path fill-rule="evenodd" clip-rule="evenodd" d="M1008.19 101.663C1008.39 101.866 1008.67 101.979 1008.96 101.979C1009.24 101.979 1009.52 101.866 1009.73 101.663L1012.94 98.4746C1013.18 98.2381 1013.29 97.9322 1013.29 97.6295C1013.29 97.3268 1013.18 97.0263 1012.94 96.7952L1009.74 93.6165C1009.53 93.4141 1009.26 93.3006 1008.97 93.3006C1008.68 93.3006 1008.4 93.4141 1008.2 93.6165C1008.1 93.7161 1008.02 93.8348 1007.96 93.9658C1007.91 94.0967 1007.88 94.2372 1007.88 94.3792C1007.88 94.5211 1007.91 94.6616 1007.96 94.7925C1008.02 94.9235 1008.1 95.0422 1008.2 95.1418L1010.71 97.6349L1008.19 100.138C1008.09 100.238 1008.01 100.356 1007.95 100.487C1007.9 100.618 1007.87 100.759 1007.87 100.9C1007.87 101.042 1007.9 101.183 1007.95 101.314C1008.01 101.445 1008.09 101.563 1008.19 101.663Z" fill="#D9DDE3"/>
<rect x="0.542449" y="0.542449" width="1348.92" height="147.915" rx="4.88204" stroke="#7B61FF" stroke-width="1.0849" stroke-dasharray="10.85 5.42"/>
<defs>
<clipPath id="clip0_4647_181289">
<rect width="17.3584" height="17.3584" fill="white" transform="translate(825.607 30.3765)"/>
</clipPath>
<clipPath id="clip1_4647_181289">
<rect width="17.3584" height="17.3584" fill="white" transform="translate(825.607 88.9614)"/>
</clipPath>
</defs>
</svg>
