<svg width="412" height="196" viewBox="0 0 412 196" fill="none" xmlns="http://www.w3.org/2000/svg">
<rect width="238" height="36" transform="translate(92 28)" fill="#202328"/>
<path d="M101.233 51V40.8182H104.673C105.472 40.8182 106.125 40.9624 106.632 41.2507C107.143 41.5357 107.52 41.9219 107.766 42.4091C108.011 42.8963 108.134 43.4399 108.134 44.0398C108.134 44.6397 108.011 45.1849 107.766 45.6754C107.524 46.166 107.149 46.5571 106.642 46.8487C106.135 47.1371 105.485 47.2812 104.693 47.2812H102.227V46.1875H104.653C105.2 46.1875 105.639 46.093 105.971 45.9041C106.302 45.7152 106.543 45.46 106.692 45.1385C106.844 44.8137 106.92 44.4474 106.92 44.0398C106.92 43.6321 106.844 43.2675 106.692 42.946C106.543 42.6245 106.301 42.3726 105.966 42.1903C105.631 42.0047 105.187 41.9119 104.634 41.9119H102.466V51H101.233ZM113.08 51.1591C112.344 51.1591 111.71 50.9967 111.176 50.6719C110.646 50.3438 110.237 49.8864 109.948 49.2997C109.663 48.7098 109.521 48.0237 109.521 47.2415C109.521 46.4593 109.663 45.7699 109.948 45.1733C110.237 44.5734 110.638 44.1061 111.151 43.7713C111.668 43.4332 112.272 43.2642 112.961 43.2642C113.359 43.2642 113.751 43.3305 114.139 43.4631C114.527 43.5956 114.88 43.8111 115.198 44.1094C115.516 44.4044 115.77 44.7955 115.959 45.2827C116.148 45.7699 116.242 46.3698 116.242 47.0824V47.5795H110.356V46.5653H115.049C115.049 46.1345 114.963 45.75 114.79 45.4119C114.621 45.0739 114.379 44.8071 114.065 44.6115C113.753 44.416 113.385 44.3182 112.961 44.3182C112.494 44.3182 112.089 44.4342 111.748 44.6662C111.41 44.8949 111.15 45.1932 110.967 45.5611C110.785 45.929 110.694 46.3234 110.694 46.7443V47.4205C110.694 47.9972 110.793 48.486 110.992 48.8871C111.194 49.2848 111.474 49.5881 111.832 49.7969C112.19 50.0024 112.606 50.1051 113.08 50.1051C113.388 50.1051 113.667 50.062 113.915 49.9759C114.167 49.8864 114.384 49.7538 114.567 49.5781C114.749 49.3991 114.89 49.1771 114.989 48.9119L116.123 49.2301C116.004 49.6146 115.803 49.9527 115.521 50.2443C115.24 50.5327 114.892 50.758 114.477 50.9205C114.063 51.0795 113.597 51.1591 113.08 51.1591ZM118.027 51V43.3636H119.161V44.517H119.24C119.379 44.1392 119.631 43.8326 119.996 43.5973C120.36 43.362 120.771 43.2443 121.229 43.2443C121.315 43.2443 121.423 43.246 121.552 43.2493C121.681 43.2526 121.779 43.2576 121.845 43.2642V44.4574C121.805 44.4474 121.714 44.4325 121.572 44.4126C121.433 44.3894 121.285 44.3778 121.129 44.3778C120.758 44.3778 120.427 44.4557 120.135 44.6115C119.847 44.764 119.618 44.9761 119.449 45.2479C119.283 45.5163 119.2 45.8229 119.2 46.1676V51H118.027ZM128.645 45.0739L127.591 45.3722C127.525 45.1965 127.427 45.0258 127.298 44.8601C127.172 44.6911 126.999 44.5518 126.781 44.4425C126.562 44.3331 126.282 44.2784 125.941 44.2784C125.473 44.2784 125.084 44.3861 124.772 44.6016C124.464 44.8137 124.31 45.0838 124.31 45.4119C124.31 45.7036 124.416 45.9339 124.628 46.103C124.84 46.272 125.172 46.4129 125.622 46.5256L126.756 46.804C127.439 46.9697 127.947 47.2232 128.282 47.5646C128.617 47.9027 128.784 48.3385 128.784 48.8722C128.784 49.3097 128.658 49.7008 128.406 50.0455C128.158 50.3902 127.81 50.6619 127.362 50.8608C126.915 51.0597 126.395 51.1591 125.801 51.1591C125.022 51.1591 124.378 50.9901 123.867 50.652C123.357 50.3139 123.034 49.8201 122.898 49.1705L124.012 48.892C124.118 49.303 124.318 49.6113 124.613 49.8168C124.911 50.0223 125.301 50.125 125.781 50.125C126.328 50.125 126.762 50.009 127.084 49.777C127.409 49.5417 127.571 49.2599 127.571 48.9318C127.571 48.6667 127.478 48.4446 127.293 48.2656C127.107 48.0833 126.822 47.9474 126.438 47.858L125.165 47.5597C124.466 47.3939 123.952 47.1371 123.624 46.7891C123.299 46.4377 123.137 45.9986 123.137 45.4716C123.137 45.0407 123.258 44.6596 123.499 44.3281C123.745 43.9967 124.078 43.7365 124.499 43.5476C124.923 43.3587 125.404 43.2642 125.941 43.2642C126.696 43.2642 127.289 43.4299 127.72 43.7614C128.155 44.0928 128.463 44.5303 128.645 45.0739ZM133.653 51.1591C132.963 51.1591 132.358 50.995 131.838 50.6669C131.321 50.3388 130.917 49.8797 130.625 49.2898C130.337 48.6998 130.192 48.0104 130.192 47.2216C130.192 46.4261 130.337 45.7318 130.625 45.1385C130.917 44.5452 131.321 44.0845 131.838 43.7564C132.358 43.4283 132.963 43.2642 133.653 43.2642C134.342 43.2642 134.945 43.4283 135.462 43.7564C135.983 44.0845 136.387 44.5452 136.675 45.1385C136.967 45.7318 137.113 46.4261 137.113 47.2216C137.113 48.0104 136.967 48.6998 136.675 49.2898C136.387 49.8797 135.983 50.3388 135.462 50.6669C134.945 50.995 134.342 51.1591 133.653 51.1591ZM133.653 50.1051C134.176 50.1051 134.607 49.9709 134.945 49.7024C135.283 49.4339 135.534 49.081 135.696 48.6435C135.858 48.206 135.94 47.732 135.94 47.2216C135.94 46.7112 135.858 46.2356 135.696 45.7947C135.534 45.3539 135.283 44.9976 134.945 44.7259C134.607 44.4541 134.176 44.3182 133.653 44.3182C133.129 44.3182 132.698 44.4541 132.36 44.7259C132.022 44.9976 131.772 45.3539 131.609 45.7947C131.447 46.2356 131.366 46.7112 131.366 47.2216C131.366 47.732 131.447 48.206 131.609 48.6435C131.772 49.081 132.022 49.4339 132.36 49.7024C132.698 49.9709 133.129 50.1051 133.653 50.1051ZM140.077 46.4062V51H138.904V43.3636H140.037V44.5568H140.137C140.316 44.169 140.588 43.8575 140.952 43.6222C141.317 43.3835 141.787 43.2642 142.364 43.2642C142.881 43.2642 143.334 43.3703 143.721 43.5824C144.109 43.7912 144.411 44.1094 144.626 44.5369C144.842 44.9612 144.949 45.4981 144.949 46.1477V51H143.776V46.2273C143.776 45.6274 143.62 45.16 143.309 44.8253C142.997 44.4872 142.57 44.3182 142.026 44.3182C141.652 44.3182 141.317 44.3994 141.022 44.5618C140.73 44.7242 140.5 44.9612 140.331 45.2727C140.162 45.5843 140.077 45.9621 140.077 46.4062ZM149.341 51.179C148.857 51.179 148.417 51.0878 148.023 50.9055C147.629 50.7199 147.315 50.4531 147.083 50.1051C146.851 49.7538 146.735 49.3295 146.735 48.8324C146.735 48.3949 146.822 48.0402 146.994 47.7685C147.166 47.4934 147.397 47.2779 147.685 47.1222C147.973 46.9664 148.292 46.8504 148.64 46.7741C148.991 46.6946 149.344 46.6316 149.699 46.5852C150.163 46.5256 150.539 46.4808 150.827 46.451C151.119 46.4179 151.331 46.3632 151.463 46.2869C151.599 46.2107 151.667 46.0781 151.667 45.8892V45.8494C151.667 45.3589 151.533 44.9777 151.265 44.706C150.999 44.4342 150.597 44.2983 150.056 44.2983C149.496 44.2983 149.057 44.4209 148.739 44.6662C148.421 44.9115 148.197 45.1733 148.068 45.4517L146.954 45.054C147.153 44.59 147.418 44.2287 147.75 43.9702C148.084 43.7083 148.449 43.526 148.843 43.4233C149.241 43.3172 149.632 43.2642 150.017 43.2642C150.262 43.2642 150.544 43.294 150.862 43.3537C151.183 43.41 151.493 43.5277 151.792 43.7067C152.093 43.8857 152.343 44.1558 152.542 44.517C152.741 44.8783 152.841 45.3622 152.841 45.9688V51H151.667V49.9659H151.608C151.528 50.1316 151.395 50.3089 151.21 50.4979C151.024 50.6868 150.777 50.8475 150.469 50.9801C150.161 51.1127 149.785 51.179 149.341 51.179ZM149.52 50.125C149.984 50.125 150.375 50.0339 150.693 49.8516C151.014 49.6693 151.256 49.4339 151.419 49.1456C151.584 48.8572 151.667 48.554 151.667 48.2358V47.1619C151.618 47.2216 151.508 47.2763 151.339 47.326C151.173 47.3724 150.981 47.4138 150.762 47.4503C150.547 47.4834 150.337 47.5133 150.131 47.5398C149.929 47.563 149.765 47.5829 149.639 47.5994C149.334 47.6392 149.049 47.7038 148.784 47.7933C148.522 47.8795 148.31 48.0104 148.147 48.1861C147.988 48.3584 147.909 48.5937 147.909 48.892C147.909 49.2997 148.06 49.608 148.361 49.8168C148.666 50.0223 149.052 50.125 149.52 50.125ZM156.155 40.8182V51H154.982V40.8182H156.155ZM163.634 40.8182V51H162.401V40.8182H163.634ZM167.12 46.4062V51H165.947V43.3636H167.08V44.5568H167.18C167.359 44.169 167.631 43.8575 167.995 43.6222C168.36 43.3835 168.83 43.2642 169.407 43.2642C169.924 43.2642 170.377 43.3703 170.764 43.5824C171.152 43.7912 171.454 44.1094 171.669 44.5369C171.885 44.9612 171.992 45.4981 171.992 46.1477V51H170.819V46.2273C170.819 45.6274 170.663 45.16 170.352 44.8253C170.04 44.4872 169.613 44.3182 169.069 44.3182C168.695 44.3182 168.36 44.3994 168.065 44.5618C167.773 44.7242 167.543 44.9612 167.374 45.2727C167.205 45.5843 167.12 45.9621 167.12 46.4062ZM177.537 43.3636V44.358H173.42V43.3636H177.537ZM174.653 51V42.3097C174.653 41.8722 174.756 41.5076 174.962 41.2159C175.167 40.9242 175.434 40.7055 175.762 40.5597C176.09 40.4138 176.437 40.3409 176.801 40.3409C177.089 40.3409 177.325 40.3641 177.507 40.4105C177.689 40.4569 177.825 40.5 177.915 40.5398L177.577 41.554C177.517 41.5341 177.434 41.5092 177.328 41.4794C177.225 41.4496 177.089 41.4347 176.92 41.4347C176.533 41.4347 176.253 41.5324 176.08 41.728C175.911 41.9235 175.827 42.2102 175.827 42.5881V51H174.653ZM181.969 51.1591C181.28 51.1591 180.675 50.995 180.154 50.6669C179.637 50.3388 179.233 49.8797 178.941 49.2898C178.653 48.6998 178.509 48.0104 178.509 47.2216C178.509 46.4261 178.653 45.7318 178.941 45.1385C179.233 44.5452 179.637 44.0845 180.154 43.7564C180.675 43.4283 181.28 43.2642 181.969 43.2642C182.658 43.2642 183.262 43.4283 183.779 43.7564C184.299 44.0845 184.703 44.5452 184.992 45.1385C185.283 45.7318 185.429 46.4261 185.429 47.2216C185.429 48.0104 185.283 48.6998 184.992 49.2898C184.703 49.8797 184.299 50.3388 183.779 50.6669C183.262 50.995 182.658 51.1591 181.969 51.1591ZM181.969 50.1051C182.493 50.1051 182.924 49.9709 183.262 49.7024C183.6 49.4339 183.85 49.081 184.012 48.6435C184.175 48.206 184.256 47.732 184.256 47.2216C184.256 46.7112 184.175 46.2356 184.012 45.7947C183.85 45.3539 183.6 44.9976 183.262 44.7259C182.924 44.4541 182.493 44.3182 181.969 44.3182C181.445 44.3182 181.015 44.4541 180.676 44.7259C180.338 44.9976 180.088 45.3539 179.926 45.7947C179.763 46.2356 179.682 46.7112 179.682 47.2216C179.682 47.732 179.763 48.206 179.926 48.6435C180.088 49.081 180.338 49.4339 180.676 49.7024C181.015 49.9709 181.445 50.1051 181.969 50.1051ZM187.22 51V43.3636H188.354V44.517H188.433C188.573 44.1392 188.825 43.8326 189.189 43.5973C189.554 43.362 189.965 43.2443 190.422 43.2443C190.508 43.2443 190.616 43.246 190.745 43.2493C190.874 43.2526 190.972 43.2576 191.039 43.2642V44.4574C190.999 44.4474 190.908 44.4325 190.765 44.4126C190.626 44.3894 190.478 44.3778 190.323 44.3778C189.951 44.3778 189.62 44.4557 189.328 44.6115C189.04 44.764 188.811 44.9761 188.642 45.2479C188.477 45.5163 188.394 45.8229 188.394 46.1676V51H187.22ZM192.429 51V43.3636H193.563V44.5568H193.662C193.821 44.1491 194.078 43.8326 194.433 43.6072C194.788 43.3786 195.213 43.2642 195.711 43.2642C196.214 43.2642 196.634 43.3786 196.968 43.6072C197.306 43.8326 197.57 44.1491 197.759 44.5568H197.838C198.034 44.1624 198.327 43.8492 198.718 43.6172C199.109 43.3819 199.578 43.2642 200.125 43.2642C200.808 43.2642 201.367 43.478 201.801 43.9055C202.235 44.3298 202.452 44.991 202.452 45.8892V51H201.279V45.8892C201.279 45.3258 201.125 44.9231 200.816 44.6811C200.508 44.4392 200.145 44.3182 199.728 44.3182C199.191 44.3182 198.775 44.4806 198.48 44.8054C198.185 45.1269 198.037 45.5346 198.037 46.0284V51H196.844V45.7699C196.844 45.3357 196.703 44.986 196.422 44.7209C196.14 44.4524 195.777 44.3182 195.333 44.3182C195.028 44.3182 194.743 44.3994 194.478 44.5618C194.216 44.7242 194.004 44.9496 193.841 45.2379C193.682 45.523 193.603 45.8527 193.603 46.2273V51H192.429ZM206.844 51.179C206.361 51.179 205.921 51.0878 205.527 50.9055C205.133 50.7199 204.819 50.4531 204.587 50.1051C204.355 49.7538 204.239 49.3295 204.239 48.8324C204.239 48.3949 204.326 48.0402 204.498 47.7685C204.67 47.4934 204.901 47.2779 205.189 47.1222C205.477 46.9664 205.795 46.8504 206.143 46.7741C206.495 46.6946 206.848 46.6316 207.202 46.5852C207.666 46.5256 208.043 46.4808 208.331 46.451C208.623 46.4179 208.835 46.3632 208.967 46.2869C209.103 46.2107 209.171 46.0781 209.171 45.8892V45.8494C209.171 45.3589 209.037 44.9777 208.768 44.706C208.503 44.4342 208.101 44.2983 207.56 44.2983C207 44.2983 206.561 44.4209 206.243 44.6662C205.925 44.9115 205.701 45.1733 205.572 45.4517L204.458 45.054C204.657 44.59 204.922 44.2287 205.254 43.9702C205.588 43.7083 205.953 43.526 206.347 43.4233C206.745 43.3172 207.136 43.2642 207.521 43.2642C207.766 43.2642 208.048 43.294 208.366 43.3537C208.687 43.41 208.997 43.5277 209.295 43.7067C209.597 43.8857 209.847 44.1558 210.046 44.517C210.245 44.8783 210.344 45.3622 210.344 45.9688V51H209.171V49.9659H209.112C209.032 50.1316 208.899 50.3089 208.714 50.4979C208.528 50.6868 208.281 50.8475 207.973 50.9801C207.665 51.1127 207.289 51.179 206.844 51.179ZM207.023 50.125C207.487 50.125 207.879 50.0339 208.197 49.8516C208.518 49.6693 208.76 49.4339 208.923 49.1456C209.088 48.8572 209.171 48.554 209.171 48.2358V47.1619C209.121 47.2216 209.012 47.2763 208.843 47.326C208.677 47.3724 208.485 47.4138 208.266 47.4503C208.051 47.4834 207.84 47.5133 207.635 47.5398C207.433 47.563 207.269 47.5829 207.143 47.5994C206.838 47.6392 206.553 47.7038 206.288 47.7933C206.026 47.8795 205.814 48.0104 205.651 48.1861C205.492 48.3584 205.413 48.5937 205.413 48.892C205.413 49.2997 205.563 49.608 205.865 49.8168C206.17 50.0223 206.556 50.125 207.023 50.125ZM215.807 43.3636V44.358H211.85V43.3636H215.807ZM213.003 41.5341H214.176V48.8125C214.176 49.1439 214.224 49.3925 214.32 49.5582C214.42 49.7206 214.546 49.83 214.698 49.8864C214.854 49.9394 215.018 49.9659 215.191 49.9659C215.32 49.9659 215.426 49.9593 215.509 49.946C215.592 49.9295 215.658 49.9162 215.708 49.9062L215.946 50.9602C215.867 50.9901 215.756 51.0199 215.613 51.0497C215.471 51.0829 215.29 51.0994 215.071 51.0994C214.74 51.0994 214.415 51.0282 214.097 50.8857C213.782 50.7431 213.52 50.526 213.311 50.2344C213.106 49.9427 213.003 49.5748 213.003 49.1307V41.5341ZM217.572 51V43.3636H218.745V51H217.572ZM218.169 42.0909C217.94 42.0909 217.743 42.013 217.577 41.8572C217.414 41.7015 217.333 41.5142 217.333 41.2955C217.333 41.0767 217.414 40.8894 217.577 40.7337C217.743 40.5779 217.94 40.5 218.169 40.5C218.397 40.5 218.593 40.5779 218.755 40.7337C218.921 40.8894 219.004 41.0767 219.004 41.2955C219.004 41.5142 218.921 41.7015 218.755 41.8572C218.593 42.013 218.397 42.0909 218.169 42.0909ZM223.996 51.1591C223.307 51.1591 222.702 50.995 222.182 50.6669C221.665 50.3388 221.26 49.8797 220.969 49.2898C220.68 48.6998 220.536 48.0104 220.536 47.2216C220.536 46.4261 220.68 45.7318 220.969 45.1385C221.26 44.5452 221.665 44.0845 222.182 43.7564C222.702 43.4283 223.307 43.2642 223.996 43.2642C224.686 43.2642 225.289 43.4283 225.806 43.7564C226.326 44.0845 226.731 44.5452 227.019 45.1385C227.311 45.7318 227.457 46.4261 227.457 47.2216C227.457 48.0104 227.311 48.6998 227.019 49.2898C226.731 49.8797 226.326 50.3388 225.806 50.6669C225.289 50.995 224.686 51.1591 223.996 51.1591ZM223.996 50.1051C224.52 50.1051 224.951 49.9709 225.289 49.7024C225.627 49.4339 225.877 49.081 226.04 48.6435C226.202 48.206 226.283 47.732 226.283 47.2216C226.283 46.7112 226.202 46.2356 226.04 45.7947C225.877 45.3539 225.627 44.9976 225.289 44.7259C224.951 44.4541 224.52 44.3182 223.996 44.3182C223.473 44.3182 223.042 44.4541 222.704 44.7259C222.366 44.9976 222.116 45.3539 221.953 45.7947C221.791 46.2356 221.71 46.7112 221.71 47.2216C221.71 47.732 221.791 48.206 221.953 48.6435C222.116 49.081 222.366 49.4339 222.704 49.7024C223.042 49.9709 223.473 50.1051 223.996 50.1051ZM230.421 46.4062V51H229.248V43.3636H230.381V44.5568H230.481C230.66 44.169 230.931 43.8575 231.296 43.6222C231.661 43.3835 232.131 43.2642 232.708 43.2642C233.225 43.2642 233.677 43.3703 234.065 43.5824C234.453 43.7912 234.755 44.1094 234.97 44.5369C235.185 44.9612 235.293 45.4981 235.293 46.1477V51H234.12V46.2273C234.12 45.6274 233.964 45.16 233.653 44.8253C233.341 44.4872 232.913 44.3182 232.37 44.3182C231.995 44.3182 231.661 44.3994 231.366 44.5618C231.074 44.7242 230.844 44.9612 230.675 45.2727C230.506 45.5843 230.421 45.9621 230.421 46.4062Z" fill="#D9DDE3"/>
<rect width="238" height="36" transform="translate(92 81)" fill="#202328"/>
<path d="M101.233 104V93.8182H104.673C105.472 93.8182 106.125 93.9624 106.632 94.2507C107.143 94.5357 107.52 94.9219 107.766 95.4091C108.011 95.8963 108.134 96.4399 108.134 97.0398C108.134 97.6397 108.011 98.1849 107.766 98.6754C107.524 99.166 107.149 99.5571 106.642 99.8487C106.135 100.137 105.485 100.281 104.693 100.281H102.227V99.1875H104.653C105.2 99.1875 105.639 99.093 105.971 98.9041C106.302 98.7152 106.543 98.46 106.692 98.1385C106.844 97.8137 106.92 97.4474 106.92 97.0398C106.92 96.6321 106.844 96.2675 106.692 95.946C106.543 95.6245 106.301 95.3726 105.966 95.1903C105.631 95.0047 105.187 94.9119 104.634 94.9119H102.466V104H101.233ZM113.08 104.159C112.344 104.159 111.71 103.997 111.176 103.672C110.646 103.344 110.237 102.886 109.948 102.3C109.663 101.71 109.521 101.024 109.521 100.241C109.521 99.4593 109.663 98.7699 109.948 98.1733C110.237 97.5734 110.638 97.1061 111.151 96.7713C111.668 96.4332 112.272 96.2642 112.961 96.2642C113.359 96.2642 113.751 96.3305 114.139 96.4631C114.527 96.5956 114.88 96.8111 115.198 97.1094C115.516 97.4044 115.77 97.7955 115.959 98.2827C116.148 98.7699 116.242 99.3698 116.242 100.082V100.58H110.356V99.5653H115.049C115.049 99.1345 114.963 98.75 114.79 98.4119C114.621 98.0739 114.379 97.8071 114.065 97.6115C113.753 97.416 113.385 97.3182 112.961 97.3182C112.494 97.3182 112.089 97.4342 111.748 97.6662C111.41 97.8949 111.15 98.1932 110.967 98.5611C110.785 98.929 110.694 99.3234 110.694 99.7443V100.42C110.694 100.997 110.793 101.486 110.992 101.887C111.194 102.285 111.474 102.588 111.832 102.797C112.19 103.002 112.606 103.105 113.08 103.105C113.388 103.105 113.667 103.062 113.915 102.976C114.167 102.886 114.384 102.754 114.567 102.578C114.749 102.399 114.89 102.177 114.989 101.912L116.123 102.23C116.004 102.615 115.803 102.953 115.521 103.244C115.24 103.533 114.892 103.758 114.477 103.92C114.063 104.08 113.597 104.159 113.08 104.159ZM118.027 104V96.3636H119.161V97.517H119.24C119.379 97.1392 119.631 96.8326 119.996 96.5973C120.36 96.362 120.771 96.2443 121.229 96.2443C121.315 96.2443 121.423 96.246 121.552 96.2493C121.681 96.2526 121.779 96.2576 121.845 96.2642V97.4574C121.805 97.4474 121.714 97.4325 121.572 97.4126C121.433 97.3894 121.285 97.3778 121.129 97.3778C120.758 97.3778 120.427 97.4557 120.135 97.6115C119.847 97.764 119.618 97.9761 119.449 98.2479C119.283 98.5163 119.2 98.8229 119.2 99.1676V104H118.027ZM128.645 98.0739L127.591 98.3722C127.525 98.1965 127.427 98.0258 127.298 97.8601C127.172 97.6911 126.999 97.5518 126.781 97.4425C126.562 97.3331 126.282 97.2784 125.941 97.2784C125.473 97.2784 125.084 97.3861 124.772 97.6016C124.464 97.8137 124.31 98.0838 124.31 98.4119C124.31 98.7036 124.416 98.9339 124.628 99.103C124.84 99.272 125.172 99.4129 125.622 99.5256L126.756 99.804C127.439 99.9697 127.947 100.223 128.282 100.565C128.617 100.903 128.784 101.339 128.784 101.872C128.784 102.31 128.658 102.701 128.406 103.045C128.158 103.39 127.81 103.662 127.362 103.861C126.915 104.06 126.395 104.159 125.801 104.159C125.022 104.159 124.378 103.99 123.867 103.652C123.357 103.314 123.034 102.82 122.898 102.17L124.012 101.892C124.118 102.303 124.318 102.611 124.613 102.817C124.911 103.022 125.301 103.125 125.781 103.125C126.328 103.125 126.762 103.009 127.084 102.777C127.409 102.542 127.571 102.26 127.571 101.932C127.571 101.667 127.478 101.445 127.293 101.266C127.107 101.083 126.822 100.947 126.438 100.858L125.165 100.56C124.466 100.394 123.952 100.137 123.624 99.7891C123.299 99.4377 123.137 98.9986 123.137 98.4716C123.137 98.0407 123.258 97.6596 123.499 97.3281C123.745 96.9967 124.078 96.7365 124.499 96.5476C124.923 96.3587 125.404 96.2642 125.941 96.2642C126.696 96.2642 127.289 96.4299 127.72 96.7614C128.155 97.0928 128.463 97.5303 128.645 98.0739ZM133.653 104.159C132.963 104.159 132.358 103.995 131.838 103.667C131.321 103.339 130.917 102.88 130.625 102.29C130.337 101.7 130.192 101.01 130.192 100.222C130.192 99.4261 130.337 98.7318 130.625 98.1385C130.917 97.5452 131.321 97.0845 131.838 96.7564C132.358 96.4283 132.963 96.2642 133.653 96.2642C134.342 96.2642 134.945 96.4283 135.462 96.7564C135.983 97.0845 136.387 97.5452 136.675 98.1385C136.967 98.7318 137.113 99.4261 137.113 100.222C137.113 101.01 136.967 101.7 136.675 102.29C136.387 102.88 135.983 103.339 135.462 103.667C134.945 103.995 134.342 104.159 133.653 104.159ZM133.653 103.105C134.176 103.105 134.607 102.971 134.945 102.702C135.283 102.434 135.534 102.081 135.696 101.643C135.858 101.206 135.94 100.732 135.94 100.222C135.94 99.7112 135.858 99.2356 135.696 98.7947C135.534 98.3539 135.283 97.9976 134.945 97.7259C134.607 97.4541 134.176 97.3182 133.653 97.3182C133.129 97.3182 132.698 97.4541 132.36 97.7259C132.022 97.9976 131.772 98.3539 131.609 98.7947C131.447 99.2356 131.366 99.7112 131.366 100.222C131.366 100.732 131.447 101.206 131.609 101.643C131.772 102.081 132.022 102.434 132.36 102.702C132.698 102.971 133.129 103.105 133.653 103.105ZM140.077 99.4062V104H138.904V96.3636H140.037V97.5568H140.137C140.316 97.169 140.588 96.8575 140.952 96.6222C141.317 96.3835 141.787 96.2642 142.364 96.2642C142.881 96.2642 143.334 96.3703 143.721 96.5824C144.109 96.7912 144.411 97.1094 144.626 97.5369C144.842 97.9612 144.949 98.4981 144.949 99.1477V104H143.776V99.2273C143.776 98.6274 143.62 98.16 143.309 97.8253C142.997 97.4872 142.57 97.3182 142.026 97.3182C141.652 97.3182 141.317 97.3994 141.022 97.5618C140.73 97.7242 140.5 97.9612 140.331 98.2727C140.162 98.5843 140.077 98.9621 140.077 99.4062ZM149.341 104.179C148.857 104.179 148.417 104.088 148.023 103.906C147.629 103.72 147.315 103.453 147.083 103.105C146.851 102.754 146.735 102.33 146.735 101.832C146.735 101.395 146.822 101.04 146.994 100.768C147.166 100.493 147.397 100.278 147.685 100.122C147.973 99.9664 148.292 99.8504 148.64 99.7741C148.991 99.6946 149.344 99.6316 149.699 99.5852C150.163 99.5256 150.539 99.4808 150.827 99.451C151.119 99.4179 151.331 99.3632 151.463 99.2869C151.599 99.2107 151.667 99.0781 151.667 98.8892V98.8494C151.667 98.3589 151.533 97.9777 151.265 97.706C150.999 97.4342 150.597 97.2983 150.056 97.2983C149.496 97.2983 149.057 97.4209 148.739 97.6662C148.421 97.9115 148.197 98.1733 148.068 98.4517L146.954 98.054C147.153 97.59 147.418 97.2287 147.75 96.9702C148.084 96.7083 148.449 96.526 148.843 96.4233C149.241 96.3172 149.632 96.2642 150.017 96.2642C150.262 96.2642 150.544 96.294 150.862 96.3537C151.183 96.41 151.493 96.5277 151.792 96.7067C152.093 96.8857 152.343 97.1558 152.542 97.517C152.741 97.8783 152.841 98.3622 152.841 98.9688V104H151.667V102.966H151.608C151.528 103.132 151.395 103.309 151.21 103.498C151.024 103.687 150.777 103.848 150.469 103.98C150.161 104.113 149.785 104.179 149.341 104.179ZM149.52 103.125C149.984 103.125 150.375 103.034 150.693 102.852C151.014 102.669 151.256 102.434 151.419 102.146C151.584 101.857 151.667 101.554 151.667 101.236V100.162C151.618 100.222 151.508 100.276 151.339 100.326C151.173 100.372 150.981 100.414 150.762 100.45C150.547 100.483 150.337 100.513 150.131 100.54C149.929 100.563 149.765 100.583 149.639 100.599C149.334 100.639 149.049 100.704 148.784 100.793C148.522 100.879 148.31 101.01 148.147 101.186C147.988 101.358 147.909 101.594 147.909 101.892C147.909 102.3 148.06 102.608 148.361 102.817C148.666 103.022 149.052 103.125 149.52 103.125ZM156.155 93.8182V104H154.982V93.8182H156.155ZM163.634 93.8182V104H162.401V93.8182H163.634ZM167.12 99.4062V104H165.947V96.3636H167.08V97.5568H167.18C167.359 97.169 167.631 96.8575 167.995 96.6222C168.36 96.3835 168.83 96.2642 169.407 96.2642C169.924 96.2642 170.377 96.3703 170.764 96.5824C171.152 96.7912 171.454 97.1094 171.669 97.5369C171.885 97.9612 171.992 98.4981 171.992 99.1477V104H170.819V99.2273C170.819 98.6274 170.663 98.16 170.352 97.8253C170.04 97.4872 169.613 97.3182 169.069 97.3182C168.695 97.3182 168.36 97.3994 168.065 97.5618C167.773 97.7242 167.543 97.9612 167.374 98.2727C167.205 98.5843 167.12 98.9621 167.12 99.4062ZM177.537 96.3636V97.358H173.42V96.3636H177.537ZM174.653 104V95.3097C174.653 94.8722 174.756 94.5076 174.962 94.2159C175.167 93.9242 175.434 93.7055 175.762 93.5597C176.09 93.4138 176.437 93.3409 176.801 93.3409C177.089 93.3409 177.325 93.3641 177.507 93.4105C177.689 93.4569 177.825 93.5 177.915 93.5398L177.577 94.554C177.517 94.5341 177.434 94.5092 177.328 94.4794C177.225 94.4496 177.089 94.4347 176.92 94.4347C176.533 94.4347 176.253 94.5324 176.08 94.728C175.911 94.9235 175.827 95.2102 175.827 95.5881V104H174.653ZM181.969 104.159C181.28 104.159 180.675 103.995 180.154 103.667C179.637 103.339 179.233 102.88 178.941 102.29C178.653 101.7 178.509 101.01 178.509 100.222C178.509 99.4261 178.653 98.7318 178.941 98.1385C179.233 97.5452 179.637 97.0845 180.154 96.7564C180.675 96.4283 181.28 96.2642 181.969 96.2642C182.658 96.2642 183.262 96.4283 183.779 96.7564C184.299 97.0845 184.703 97.5452 184.992 98.1385C185.283 98.7318 185.429 99.4261 185.429 100.222C185.429 101.01 185.283 101.7 184.992 102.29C184.703 102.88 184.299 103.339 183.779 103.667C183.262 103.995 182.658 104.159 181.969 104.159ZM181.969 103.105C182.493 103.105 182.924 102.971 183.262 102.702C183.6 102.434 183.85 102.081 184.012 101.643C184.175 101.206 184.256 100.732 184.256 100.222C184.256 99.7112 184.175 99.2356 184.012 98.7947C183.85 98.3539 183.6 97.9976 183.262 97.7259C182.924 97.4541 182.493 97.3182 181.969 97.3182C181.445 97.3182 181.015 97.4541 180.676 97.7259C180.338 97.9976 180.088 98.3539 179.926 98.7947C179.763 99.2356 179.682 99.7112 179.682 100.222C179.682 100.732 179.763 101.206 179.926 101.643C180.088 102.081 180.338 102.434 180.676 102.702C181.015 102.971 181.445 103.105 181.969 103.105ZM187.22 104V96.3636H188.354V97.517H188.433C188.573 97.1392 188.825 96.8326 189.189 96.5973C189.554 96.362 189.965 96.2443 190.422 96.2443C190.508 96.2443 190.616 96.246 190.745 96.2493C190.874 96.2526 190.972 96.2576 191.039 96.2642V97.4574C190.999 97.4474 190.908 97.4325 190.765 97.4126C190.626 97.3894 190.478 97.3778 190.323 97.3778C189.951 97.3778 189.62 97.4557 189.328 97.6115C189.04 97.764 188.811 97.9761 188.642 98.2479C188.477 98.5163 188.394 98.8229 188.394 99.1676V104H187.22ZM192.429 104V96.3636H193.563V97.5568H193.662C193.821 97.1491 194.078 96.8326 194.433 96.6072C194.788 96.3786 195.213 96.2642 195.711 96.2642C196.214 96.2642 196.634 96.3786 196.968 96.6072C197.306 96.8326 197.57 97.1491 197.759 97.5568H197.838C198.034 97.1624 198.327 96.8492 198.718 96.6172C199.109 96.3819 199.578 96.2642 200.125 96.2642C200.808 96.2642 201.367 96.478 201.801 96.9055C202.235 97.3298 202.452 97.991 202.452 98.8892V104H201.279V98.8892C201.279 98.3258 201.125 97.9231 200.816 97.6811C200.508 97.4392 200.145 97.3182 199.728 97.3182C199.191 97.3182 198.775 97.4806 198.48 97.8054C198.185 98.1269 198.037 98.5346 198.037 99.0284V104H196.844V98.7699C196.844 98.3357 196.703 97.986 196.422 97.7209C196.14 97.4524 195.777 97.3182 195.333 97.3182C195.028 97.3182 194.743 97.3994 194.478 97.5618C194.216 97.7242 194.004 97.9496 193.841 98.2379C193.682 98.523 193.603 98.8527 193.603 99.2273V104H192.429ZM206.844 104.179C206.361 104.179 205.921 104.088 205.527 103.906C205.133 103.72 204.819 103.453 204.587 103.105C204.355 102.754 204.239 102.33 204.239 101.832C204.239 101.395 204.326 101.04 204.498 100.768C204.67 100.493 204.901 100.278 205.189 100.122C205.477 99.9664 205.795 99.8504 206.143 99.7741C206.495 99.6946 206.848 99.6316 207.202 99.5852C207.666 99.5256 208.043 99.4808 208.331 99.451C208.623 99.4179 208.835 99.3632 208.967 99.2869C209.103 99.2107 209.171 99.0781 209.171 98.8892V98.8494C209.171 98.3589 209.037 97.9777 208.768 97.706C208.503 97.4342 208.101 97.2983 207.56 97.2983C207 97.2983 206.561 97.4209 206.243 97.6662C205.925 97.9115 205.701 98.1733 205.572 98.4517L204.458 98.054C204.657 97.59 204.922 97.2287 205.254 96.9702C205.588 96.7083 205.953 96.526 206.347 96.4233C206.745 96.3172 207.136 96.2642 207.521 96.2642C207.766 96.2642 208.048 96.294 208.366 96.3537C208.687 96.41 208.997 96.5277 209.295 96.7067C209.597 96.8857 209.847 97.1558 210.046 97.517C210.245 97.8783 210.344 98.3622 210.344 98.9688V104H209.171V102.966H209.112C209.032 103.132 208.899 103.309 208.714 103.498C208.528 103.687 208.281 103.848 207.973 103.98C207.665 104.113 207.289 104.179 206.844 104.179ZM207.023 103.125C207.487 103.125 207.879 103.034 208.197 102.852C208.518 102.669 208.76 102.434 208.923 102.146C209.088 101.857 209.171 101.554 209.171 101.236V100.162C209.121 100.222 209.012 100.276 208.843 100.326C208.677 100.372 208.485 100.414 208.266 100.45C208.051 100.483 207.84 100.513 207.635 100.54C207.433 100.563 207.269 100.583 207.143 100.599C206.838 100.639 206.553 100.704 206.288 100.793C206.026 100.879 205.814 101.01 205.651 101.186C205.492 101.358 205.413 101.594 205.413 101.892C205.413 102.3 205.563 102.608 205.865 102.817C206.17 103.022 206.556 103.125 207.023 103.125ZM215.807 96.3636V97.358H211.85V96.3636H215.807ZM213.003 94.5341H214.176V101.812C214.176 102.144 214.224 102.393 214.32 102.558C214.42 102.721 214.546 102.83 214.698 102.886C214.854 102.939 215.018 102.966 215.191 102.966C215.32 102.966 215.426 102.959 215.509 102.946C215.592 102.929 215.658 102.916 215.708 102.906L215.946 103.96C215.867 103.99 215.756 104.02 215.613 104.05C215.471 104.083 215.29 104.099 215.071 104.099C214.74 104.099 214.415 104.028 214.097 103.886C213.782 103.743 213.52 103.526 213.311 103.234C213.106 102.943 213.003 102.575 213.003 102.131V94.5341ZM217.572 104V96.3636H218.745V104H217.572ZM218.169 95.0909C217.94 95.0909 217.743 95.013 217.577 94.8572C217.414 94.7015 217.333 94.5142 217.333 94.2955C217.333 94.0767 217.414 93.8894 217.577 93.7337C217.743 93.5779 217.94 93.5 218.169 93.5C218.397 93.5 218.593 93.5779 218.755 93.7337C218.921 93.8894 219.004 94.0767 219.004 94.2955C219.004 94.5142 218.921 94.7015 218.755 94.8572C218.593 95.013 218.397 95.0909 218.169 95.0909ZM223.996 104.159C223.307 104.159 222.702 103.995 222.182 103.667C221.665 103.339 221.26 102.88 220.969 102.29C220.68 101.7 220.536 101.01 220.536 100.222C220.536 99.4261 220.68 98.7318 220.969 98.1385C221.26 97.5452 221.665 97.0845 222.182 96.7564C222.702 96.4283 223.307 96.2642 223.996 96.2642C224.686 96.2642 225.289 96.4283 225.806 96.7564C226.326 97.0845 226.731 97.5452 227.019 98.1385C227.311 98.7318 227.457 99.4261 227.457 100.222C227.457 101.01 227.311 101.7 227.019 102.29C226.731 102.88 226.326 103.339 225.806 103.667C225.289 103.995 224.686 104.159 223.996 104.159ZM223.996 103.105C224.52 103.105 224.951 102.971 225.289 102.702C225.627 102.434 225.877 102.081 226.04 101.643C226.202 101.206 226.283 100.732 226.283 100.222C226.283 99.7112 226.202 99.2356 226.04 98.7947C225.877 98.3539 225.627 97.9976 225.289 97.7259C224.951 97.4541 224.52 97.3182 223.996 97.3182C223.473 97.3182 223.042 97.4541 222.704 97.7259C222.366 97.9976 222.116 98.3539 221.953 98.7947C221.791 99.2356 221.71 99.7112 221.71 100.222C221.71 100.732 221.791 101.206 221.953 101.643C222.116 102.081 222.366 102.434 222.704 102.702C223.042 102.971 223.473 103.105 223.996 103.105ZM230.421 99.4062V104H229.248V96.3636H230.381V97.5568H230.481C230.66 97.169 230.931 96.8575 231.296 96.6222C231.661 96.3835 232.131 96.2642 232.708 96.2642C233.225 96.2642 233.677 96.3703 234.065 96.5824C234.453 96.7912 234.755 97.1094 234.97 97.5369C235.185 97.9612 235.293 98.4981 235.293 99.1477V104H234.12V99.2273C234.12 98.6274 233.964 98.16 233.653 97.8253C233.341 97.4872 232.913 97.3182 232.37 97.3182C231.995 97.3182 231.661 97.3994 231.366 97.5618C231.074 97.7242 230.844 97.9612 230.675 98.2727C230.506 98.5843 230.421 98.9621 230.421 99.4062Z" fill="#5854F7"/>
<rect x="92" y="134" width="238" height="36" rx="4" fill="#2F353D"/>
<path d="M100.885 157V146.818H104.902C105.674 146.818 106.332 146.966 106.876 147.261C107.419 147.552 107.834 147.958 108.119 148.479C108.407 148.996 108.551 149.592 108.551 150.268C108.551 150.945 108.405 151.541 108.114 152.058C107.822 152.575 107.399 152.978 106.846 153.266C106.296 153.555 105.629 153.699 104.847 153.699H102.287V151.974H104.499C104.914 151.974 105.255 151.902 105.523 151.76C105.795 151.614 105.997 151.414 106.13 151.158C106.266 150.9 106.334 150.603 106.334 150.268C106.334 149.93 106.266 149.635 106.13 149.384C105.997 149.128 105.795 148.931 105.523 148.792C105.252 148.649 104.907 148.578 104.489 148.578H103.038V157H100.885ZM113.267 157.149C112.481 157.149 111.805 156.99 111.238 156.672C110.675 156.35 110.241 155.896 109.936 155.31C109.631 154.72 109.478 154.022 109.478 153.217C109.478 152.431 109.631 151.742 109.936 151.148C110.241 150.555 110.67 150.093 111.223 149.761C111.78 149.43 112.433 149.264 113.182 149.264C113.686 149.264 114.155 149.345 114.589 149.508C115.027 149.667 115.408 149.907 115.733 150.229C116.061 150.55 116.316 150.955 116.498 151.442C116.681 151.926 116.772 152.492 116.772 153.142V153.724H110.324V152.411H114.778C114.778 152.106 114.712 151.836 114.579 151.601C114.447 151.366 114.263 151.182 114.027 151.049C113.795 150.913 113.525 150.845 113.217 150.845C112.895 150.845 112.61 150.92 112.362 151.069C112.117 151.215 111.924 151.412 111.785 151.661C111.646 151.906 111.575 152.179 111.571 152.481V153.729C111.571 154.107 111.641 154.433 111.78 154.708C111.923 154.983 112.123 155.195 112.382 155.344C112.64 155.494 112.947 155.568 113.301 155.568C113.537 155.568 113.752 155.535 113.948 155.469C114.143 155.402 114.311 155.303 114.45 155.17C114.589 155.038 114.695 154.875 114.768 154.683L116.727 154.812C116.627 155.283 116.424 155.694 116.115 156.045C115.81 156.393 115.416 156.665 114.932 156.861C114.452 157.053 113.896 157.149 113.267 157.149ZM118.154 157V149.364H120.207V150.696H120.287C120.426 150.222 120.659 149.864 120.988 149.622C121.316 149.377 121.694 149.254 122.121 149.254C122.227 149.254 122.342 149.261 122.464 149.274C122.587 149.287 122.694 149.306 122.787 149.329V151.208C122.688 151.178 122.55 151.152 122.375 151.129C122.199 151.105 122.038 151.094 121.892 151.094C121.581 151.094 121.302 151.162 121.057 151.298C120.815 151.43 120.623 151.616 120.48 151.854C120.341 152.093 120.272 152.368 120.272 152.68V157H118.154ZM130.236 151.541L128.297 151.661C128.264 151.495 128.193 151.346 128.083 151.213C127.974 151.077 127.83 150.969 127.651 150.89C127.475 150.807 127.265 150.766 127.019 150.766C126.691 150.766 126.414 150.835 126.189 150.974C125.964 151.11 125.851 151.293 125.851 151.521C125.851 151.704 125.924 151.858 126.07 151.984C126.216 152.11 126.466 152.211 126.82 152.287L128.203 152.565C128.945 152.718 129.499 152.963 129.863 153.301C130.228 153.639 130.41 154.083 130.41 154.634C130.41 155.134 130.262 155.573 129.968 155.951C129.676 156.329 129.275 156.624 128.764 156.836C128.257 157.045 127.672 157.149 127.009 157.149C125.999 157.149 125.193 156.939 124.593 156.518C123.997 156.094 123.647 155.517 123.544 154.788L125.627 154.678C125.69 154.987 125.843 155.222 126.085 155.384C126.327 155.543 126.637 155.623 127.014 155.623C127.386 155.623 127.684 155.552 127.909 155.409C128.138 155.263 128.254 155.076 128.257 154.847C128.254 154.655 128.173 154.498 128.014 154.375C127.855 154.249 127.609 154.153 127.278 154.087L125.955 153.823C125.21 153.674 124.655 153.415 124.29 153.048C123.929 152.68 123.748 152.211 123.748 151.641C123.748 151.15 123.881 150.728 124.146 150.373C124.414 150.018 124.79 149.745 125.274 149.553C125.762 149.36 126.332 149.264 126.985 149.264C127.949 149.264 128.708 149.468 129.262 149.876C129.818 150.283 130.143 150.839 130.236 151.541ZM135.194 157.149C134.422 157.149 133.754 156.985 133.19 156.657C132.63 156.326 132.198 155.865 131.893 155.275C131.588 154.682 131.435 153.994 131.435 153.212C131.435 152.423 131.588 151.733 131.893 151.143C132.198 150.55 132.63 150.089 133.19 149.761C133.754 149.43 134.422 149.264 135.194 149.264C135.966 149.264 136.632 149.43 137.192 149.761C137.756 150.089 138.19 150.55 138.495 151.143C138.8 151.733 138.952 152.423 138.952 153.212C138.952 153.994 138.8 154.682 138.495 155.275C138.19 155.865 137.756 156.326 137.192 156.657C136.632 156.985 135.966 157.149 135.194 157.149ZM135.204 155.509C135.555 155.509 135.848 155.409 136.084 155.21C136.319 155.008 136.496 154.733 136.616 154.385C136.738 154.037 136.8 153.641 136.8 153.197C136.8 152.753 136.738 152.357 136.616 152.009C136.496 151.661 136.319 151.385 136.084 151.183C135.848 150.981 135.555 150.88 135.204 150.88C134.849 150.88 134.551 150.981 134.309 151.183C134.07 151.385 133.89 151.661 133.767 152.009C133.648 152.357 133.588 152.753 133.588 153.197C133.588 153.641 133.648 154.037 133.767 154.385C133.89 154.733 134.07 155.008 134.309 155.21C134.551 155.409 134.849 155.509 135.204 155.509ZM142.447 152.585V157H140.33V149.364H142.348V150.711H142.438C142.607 150.267 142.89 149.915 143.288 149.657C143.685 149.395 144.168 149.264 144.734 149.264C145.265 149.264 145.727 149.38 146.121 149.612C146.516 149.844 146.822 150.176 147.041 150.607C147.26 151.034 147.369 151.545 147.369 152.138V157H145.251V152.516C145.255 152.048 145.135 151.684 144.893 151.422C144.652 151.157 144.318 151.024 143.894 151.024C143.609 151.024 143.357 151.085 143.138 151.208C142.923 151.331 142.754 151.51 142.631 151.745C142.512 151.977 142.451 152.257 142.447 152.585ZM151.216 157.144C150.729 157.144 150.295 157.06 149.914 156.891C149.532 156.718 149.231 156.465 149.009 156.13C148.79 155.792 148.681 155.371 148.681 154.867C148.681 154.443 148.758 154.087 148.914 153.798C149.07 153.51 149.282 153.278 149.551 153.102C149.819 152.927 150.124 152.794 150.465 152.705C150.81 152.615 151.171 152.552 151.549 152.516C151.993 152.469 152.351 152.426 152.623 152.386C152.895 152.343 153.092 152.28 153.215 152.197C153.337 152.115 153.399 151.992 153.399 151.83V151.8C153.399 151.485 153.299 151.241 153.1 151.069C152.905 150.897 152.626 150.81 152.265 150.81C151.884 150.81 151.581 150.895 151.355 151.064C151.13 151.23 150.981 151.438 150.908 151.69L148.949 151.531C149.048 151.067 149.244 150.666 149.536 150.328C149.827 149.987 150.204 149.725 150.664 149.543C151.128 149.357 151.665 149.264 152.275 149.264C152.699 149.264 153.105 149.314 153.493 149.413C153.884 149.513 154.231 149.667 154.532 149.876C154.837 150.085 155.077 150.353 155.253 150.681C155.429 151.006 155.517 151.395 155.517 151.849V157H153.508V155.941H153.448C153.326 156.18 153.162 156.39 152.956 156.572C152.751 156.751 152.504 156.892 152.215 156.995C151.927 157.094 151.594 157.144 151.216 157.144ZM151.823 155.683C152.134 155.683 152.409 155.621 152.648 155.499C152.887 155.373 153.074 155.204 153.21 154.991C153.346 154.779 153.414 154.539 153.414 154.271V153.46C153.347 153.503 153.256 153.543 153.14 153.58C153.027 153.613 152.9 153.644 152.757 153.674C152.615 153.701 152.472 153.725 152.33 153.749C152.187 153.768 152.058 153.787 151.942 153.803C151.693 153.84 151.476 153.898 151.291 153.977C151.105 154.057 150.961 154.165 150.858 154.3C150.755 154.433 150.704 154.599 150.704 154.798C150.704 155.086 150.808 155.306 151.017 155.459C151.229 155.608 151.498 155.683 151.823 155.683ZM159.278 146.818V157H157.16V146.818H159.278ZM166.407 146.818V157H164.254V146.818H166.407ZM170.256 152.585V157H168.138V149.364H170.157V150.711H170.246C170.415 150.267 170.699 149.915 171.096 149.657C171.494 149.395 171.976 149.264 172.543 149.264C173.073 149.264 173.536 149.38 173.93 149.612C174.324 149.844 174.631 150.176 174.85 150.607C175.069 151.034 175.178 151.545 175.178 152.138V157H173.06V152.516C173.063 152.048 172.944 151.684 172.702 151.422C172.46 151.157 172.127 151.024 171.703 151.024C171.418 151.024 171.166 151.085 170.947 151.208C170.732 151.331 170.563 151.51 170.44 151.745C170.321 151.977 170.259 152.257 170.256 152.585ZM180.954 149.364V150.955H176.241V149.364H180.954ZM177.319 157V148.812C177.319 148.258 177.427 147.799 177.643 147.435C177.861 147.07 178.16 146.797 178.537 146.614C178.915 146.432 179.345 146.341 179.825 146.341C180.15 146.341 180.447 146.366 180.715 146.415C180.987 146.465 181.189 146.51 181.322 146.55L180.944 148.141C180.861 148.114 180.758 148.089 180.635 148.066C180.516 148.043 180.394 148.031 180.268 148.031C179.956 148.031 179.739 148.104 179.616 148.25C179.494 148.393 179.432 148.593 179.432 148.852V157H177.319ZM185.424 157.149C184.652 157.149 183.984 156.985 183.421 156.657C182.861 156.326 182.428 155.865 182.123 155.275C181.818 154.682 181.666 153.994 181.666 153.212C181.666 152.423 181.818 151.733 182.123 151.143C182.428 150.55 182.861 150.089 183.421 149.761C183.984 149.43 184.652 149.264 185.424 149.264C186.197 149.264 186.863 149.43 187.423 149.761C187.986 150.089 188.421 150.55 188.725 151.143C189.03 151.733 189.183 152.423 189.183 153.212C189.183 153.994 189.03 154.682 188.725 155.275C188.421 155.865 187.986 156.326 187.423 156.657C186.863 156.985 186.197 157.149 185.424 157.149ZM185.434 155.509C185.786 155.509 186.079 155.409 186.314 155.21C186.55 155.008 186.727 154.733 186.846 154.385C186.969 154.037 187.03 153.641 187.03 153.197C187.03 152.753 186.969 152.357 186.846 152.009C186.727 151.661 186.55 151.385 186.314 151.183C186.079 150.981 185.786 150.88 185.434 150.88C185.08 150.88 184.781 150.981 184.539 151.183C184.301 151.385 184.12 151.661 183.998 152.009C183.878 152.357 183.819 152.753 183.819 153.197C183.819 153.641 183.878 154.037 183.998 154.385C184.12 154.733 184.301 155.008 184.539 155.21C184.781 155.409 185.08 155.509 185.434 155.509ZM190.56 157V149.364H192.613V150.696H192.693C192.832 150.222 193.066 149.864 193.394 149.622C193.722 149.377 194.1 149.254 194.527 149.254C194.633 149.254 194.748 149.261 194.87 149.274C194.993 149.287 195.101 149.306 195.194 149.329V151.208C195.094 151.178 194.957 151.152 194.781 151.129C194.605 151.105 194.444 151.094 194.299 151.094C193.987 151.094 193.709 151.162 193.463 151.298C193.221 151.43 193.029 151.616 192.887 151.854C192.748 152.093 192.678 152.368 192.678 152.68V157H190.56ZM196.289 157V149.364H198.307V150.711H198.396C198.556 150.263 198.821 149.911 199.192 149.652C199.563 149.393 200.007 149.264 200.524 149.264C201.048 149.264 201.494 149.395 201.862 149.657C202.23 149.915 202.475 150.267 202.597 150.711H202.677C202.833 150.273 203.115 149.924 203.522 149.662C203.933 149.397 204.419 149.264 204.979 149.264C205.691 149.264 206.27 149.491 206.714 149.945C207.161 150.396 207.385 151.036 207.385 151.864V157H205.272V152.282C205.272 151.858 205.16 151.54 204.934 151.327C204.709 151.115 204.427 151.009 204.089 151.009C203.704 151.009 203.405 151.132 203.189 151.377C202.974 151.619 202.866 151.939 202.866 152.337V157H200.813V152.237C200.813 151.863 200.705 151.564 200.49 151.342C200.277 151.12 199.997 151.009 199.649 151.009C199.414 151.009 199.202 151.069 199.013 151.188C198.827 151.304 198.68 151.468 198.57 151.68C198.461 151.889 198.406 152.134 198.406 152.416V157H196.289ZM211.236 157.144C210.748 157.144 210.314 157.06 209.933 156.891C209.552 156.718 209.25 156.465 209.028 156.13C208.809 155.792 208.7 155.371 208.7 154.867C208.7 154.443 208.778 154.087 208.934 153.798C209.09 153.51 209.302 153.278 209.57 153.102C209.839 152.927 210.144 152.794 210.485 152.705C210.83 152.615 211.191 152.552 211.569 152.516C212.013 152.469 212.371 152.426 212.643 152.386C212.914 152.343 213.112 152.28 213.234 152.197C213.357 152.115 213.418 151.992 213.418 151.83V151.8C213.418 151.485 213.319 151.241 213.12 151.069C212.924 150.897 212.646 150.81 212.285 150.81C211.903 150.81 211.6 150.895 211.375 151.064C211.149 151.23 211 151.438 210.927 151.69L208.969 151.531C209.068 151.067 209.264 150.666 209.555 150.328C209.847 149.987 210.223 149.725 210.684 149.543C211.148 149.357 211.685 149.264 212.295 149.264C212.719 149.264 213.125 149.314 213.513 149.413C213.904 149.513 214.25 149.667 214.552 149.876C214.857 150.085 215.097 150.353 215.273 150.681C215.448 151.006 215.536 151.395 215.536 151.849V157H213.528V155.941H213.468C213.345 156.18 213.181 156.39 212.976 156.572C212.77 156.751 212.523 156.892 212.235 156.995C211.947 157.094 211.613 157.144 211.236 157.144ZM211.842 155.683C212.154 155.683 212.429 155.621 212.667 155.499C212.906 155.373 213.093 155.204 213.229 154.991C213.365 154.779 213.433 154.539 213.433 154.271V153.46C213.367 153.503 213.276 153.543 213.16 153.58C213.047 153.613 212.919 153.644 212.777 153.674C212.634 153.701 212.492 153.725 212.349 153.749C212.207 153.768 212.077 153.787 211.961 153.803C211.713 153.84 211.496 153.898 211.31 153.977C211.125 154.057 210.98 154.165 210.878 154.3C210.775 154.433 210.724 154.599 210.724 154.798C210.724 155.086 210.828 155.306 211.037 155.459C211.249 155.608 211.517 155.683 211.842 155.683ZM221.241 149.364V150.955H216.642V149.364H221.241ZM217.686 147.534H219.804V154.653C219.804 154.849 219.834 155.001 219.894 155.111C219.953 155.217 220.036 155.291 220.142 155.335C220.252 155.378 220.378 155.399 220.52 155.399C220.619 155.399 220.719 155.391 220.818 155.374C220.918 155.354 220.994 155.339 221.047 155.33L221.38 156.906C221.274 156.939 221.125 156.977 220.933 157.02C220.74 157.066 220.507 157.094 220.232 157.104C219.721 157.124 219.274 157.056 218.889 156.901C218.508 156.745 218.212 156.503 217.999 156.175C217.787 155.847 217.683 155.432 217.686 154.932V147.534ZM222.621 157V149.364H224.738V157H222.621ZM223.684 148.379C223.37 148.379 223.099 148.275 222.874 148.066C222.652 147.854 222.541 147.6 222.541 147.305C222.541 147.014 222.652 146.763 222.874 146.555C223.099 146.343 223.37 146.237 223.684 146.237C223.999 146.237 224.268 146.343 224.49 146.555C224.715 146.763 224.828 147.014 224.828 147.305C224.828 147.6 224.715 147.854 224.49 148.066C224.268 148.275 223.999 148.379 223.684 148.379ZM229.885 157.149C229.113 157.149 228.445 156.985 227.882 156.657C227.322 156.326 226.889 155.865 226.584 155.275C226.279 154.682 226.127 153.994 226.127 153.212C226.127 152.423 226.279 151.733 226.584 151.143C226.889 150.55 227.322 150.089 227.882 149.761C228.445 149.43 229.113 149.264 229.885 149.264C230.658 149.264 231.324 149.43 231.884 149.761C232.447 150.089 232.882 150.55 233.186 151.143C233.491 151.733 233.644 152.423 233.644 153.212C233.644 153.994 233.491 154.682 233.186 155.275C232.882 155.865 232.447 156.326 231.884 156.657C231.324 156.985 230.658 157.149 229.885 157.149ZM229.895 155.509C230.247 155.509 230.54 155.409 230.775 155.21C231.011 155.008 231.188 154.733 231.307 154.385C231.43 154.037 231.491 153.641 231.491 153.197C231.491 152.753 231.43 152.357 231.307 152.009C231.188 151.661 231.011 151.385 230.775 151.183C230.54 150.981 230.247 150.88 229.895 150.88C229.541 150.88 229.242 150.981 229 151.183C228.762 151.385 228.581 151.661 228.458 152.009C228.339 152.357 228.279 152.753 228.279 153.197C228.279 153.641 228.339 154.037 228.458 154.385C228.581 154.733 228.762 155.008 229 155.21C229.242 155.409 229.541 155.509 229.895 155.509ZM237.139 152.585V157H235.021V149.364H237.039V150.711H237.129C237.298 150.267 237.581 149.915 237.979 149.657C238.377 149.395 238.859 149.264 239.426 149.264C239.956 149.264 240.418 149.38 240.813 149.612C241.207 149.844 241.514 150.176 241.733 150.607C241.951 151.034 242.061 151.545 242.061 152.138V157H239.943V152.516C239.946 152.048 239.827 151.684 239.585 151.422C239.343 151.157 239.01 151.024 238.586 151.024C238.301 151.024 238.049 151.085 237.83 151.208C237.614 151.331 237.445 151.51 237.323 151.745C237.203 151.977 237.142 152.257 237.139 152.585Z" fill="#5854F7"/>
<rect x="0.5" y="0.5" width="411" height="195" rx="4.5" stroke="#7B61FF" stroke-dasharray="10 5"/>
</svg>
