<svg width="508" height="330" viewBox="0 0 508 330" fill="none" xmlns="http://www.w3.org/2000/svg">
<rect x="34" y="28" width="440" height="36" rx="4" fill="#373F49"/>
<path fill-rule="evenodd" clip-rule="evenodd" d="M55.1667 39.3332C51.9451 39.3332 49.3334 41.9448 49.3334 45.1665C49.3334 48.3882 51.9451 50.9998 55.1667 50.9998C58.3884 50.9998 61.0001 48.3882 61.0001 45.1665C61.0001 41.9448 58.3884 39.3332 55.1667 39.3332ZM47.6667 45.1665C47.6667 41.0244 51.0246 37.6665 55.1667 37.6665C59.3089 37.6665 62.6667 41.0244 62.6667 45.1665C62.6667 49.3086 59.3089 52.6665 55.1667 52.6665C51.0246 52.6665 47.6667 49.3086 47.6667 45.1665Z" fill="#D9DDE3"/>
<path fill-rule="evenodd" clip-rule="evenodd" d="M59.2858 49.2856C59.6113 48.9601 60.1389 48.9601 60.4643 49.2856L64.0893 52.9106C64.4148 53.236 64.4148 53.7637 64.0893 54.0891C63.7639 54.4145 63.2363 54.4145 62.9108 54.0891L59.2858 50.4641C58.9604 50.1387 58.9604 49.611 59.2858 49.2856Z" fill="#D9DDE3"/>
<path d="M84.8011 43.3636C84.7415 42.8598 84.4995 42.4688 84.0753 42.1903C83.651 41.9119 83.1307 41.7727 82.5142 41.7727C82.0634 41.7727 81.669 41.8456 81.331 41.9915C80.9962 42.1373 80.7344 42.3378 80.5455 42.593C80.3598 42.8482 80.267 43.1383 80.267 43.4631C80.267 43.7348 80.3317 43.9685 80.4609 44.1641C80.5935 44.3563 80.7625 44.517 80.968 44.6463C81.1735 44.7723 81.389 44.8767 81.6143 44.9595C81.8397 45.0391 82.0469 45.1037 82.2358 45.1534L83.2699 45.4318C83.535 45.5014 83.83 45.5975 84.1548 45.7202C84.483 45.8428 84.7962 46.0102 85.0945 46.2223C85.3961 46.4311 85.6446 46.6996 85.8402 47.0277C86.0357 47.3558 86.1335 47.7585 86.1335 48.2358C86.1335 48.786 85.9893 49.2831 85.701 49.7273C85.416 50.1714 84.9983 50.5244 84.4482 50.7862C83.9013 51.0481 83.2367 51.179 82.4545 51.179C81.7254 51.179 81.094 51.0613 80.5604 50.826C80.0301 50.5907 79.6125 50.2625 79.3075 49.8416C79.0059 49.4207 78.8352 48.9318 78.7955 48.375H80.0682C80.1013 48.7595 80.2306 49.0777 80.456 49.3295C80.6847 49.5781 80.973 49.7637 81.321 49.8864C81.6723 50.0057 82.0502 50.0653 82.4545 50.0653C82.9252 50.0653 83.3478 49.9891 83.7223 49.8366C84.0968 49.6809 84.3935 49.4654 84.6122 49.1903C84.831 48.9119 84.9403 48.5871 84.9403 48.2159C84.9403 47.8778 84.8459 47.6027 84.657 47.3906C84.468 47.1785 84.2195 47.0062 83.9112 46.8736C83.603 46.741 83.2699 46.625 82.9119 46.5256L81.6591 46.1676C80.8636 45.9389 80.2339 45.6125 79.7699 45.1882C79.3059 44.764 79.0739 44.2088 79.0739 43.5227C79.0739 42.9527 79.228 42.4555 79.5362 42.0312C79.8478 41.6037 80.2654 41.2723 80.7891 41.0369C81.3161 40.7983 81.9044 40.679 82.554 40.679C83.2102 40.679 83.7936 40.7966 84.304 41.032C84.8144 41.264 85.2188 41.5821 85.517 41.9865C85.8187 42.3909 85.9777 42.8499 85.9943 43.3636H84.8011ZM91.2033 51.1591C90.4675 51.1591 89.8328 50.9967 89.2992 50.6719C88.7689 50.3438 88.3596 49.8864 88.0712 49.2997C87.7862 48.7098 87.6436 48.0237 87.6436 47.2415C87.6436 46.4593 87.7862 45.7699 88.0712 45.1733C88.3596 44.5734 88.7606 44.1061 89.2743 43.7713C89.7914 43.4332 90.3946 43.2642 91.084 43.2642C91.4817 43.2642 91.8745 43.3305 92.2623 43.4631C92.65 43.5956 93.003 43.8111 93.3212 44.1094C93.6394 44.4044 93.8929 44.7955 94.0819 45.2827C94.2708 45.7699 94.3652 46.3698 94.3652 47.0824V47.5795H88.4789V46.5653H93.1721C93.1721 46.1345 93.0859 45.75 92.9135 45.4119C92.7445 45.0739 92.5025 44.8071 92.1877 44.6115C91.8761 44.416 91.5082 44.3182 91.084 44.3182C90.6167 44.3182 90.2123 44.4342 89.8709 44.6662C89.5328 44.8949 89.2727 45.1932 89.0904 45.5611C88.9081 45.929 88.8169 46.3234 88.8169 46.7443V47.4205C88.8169 47.9972 88.9164 48.486 89.1152 48.8871C89.3174 49.2848 89.5975 49.5881 89.9554 49.7969C90.3134 50.0024 90.7293 50.1051 91.2033 50.1051C91.5115 50.1051 91.79 50.062 92.0385 49.9759C92.2904 49.8864 92.5075 49.7538 92.6898 49.5781C92.8721 49.3991 93.013 49.1771 93.1124 48.9119L94.2459 49.2301C94.1266 49.6146 93.9261 49.9527 93.6444 50.2443C93.3626 50.5327 93.0146 50.758 92.6003 50.9205C92.186 51.0795 91.7203 51.1591 91.2033 51.1591ZM98.3972 51.179C97.9133 51.179 97.4741 51.0878 97.0797 50.9055C96.6853 50.7199 96.3721 50.4531 96.1401 50.1051C95.9081 49.7538 95.7921 49.3295 95.7921 48.8324C95.7921 48.3949 95.8783 48.0402 96.0506 47.7685C96.223 47.4934 96.4533 47.2779 96.7417 47.1222C97.03 46.9664 97.3482 46.8504 97.6962 46.7741C98.0475 46.6946 98.4005 46.6316 98.7551 46.5852C99.2192 46.5256 99.5953 46.4808 99.8837 46.451C100.175 46.4179 100.387 46.3632 100.52 46.2869C100.656 46.2107 100.724 46.0781 100.724 45.8892V45.8494C100.724 45.3589 100.59 44.9777 100.321 44.706C100.056 44.4342 99.6534 44.2983 99.1131 44.2983C98.553 44.2983 98.1138 44.4209 97.7956 44.6662C97.4775 44.9115 97.2537 45.1733 97.1245 45.4517L96.0108 45.054C96.2097 44.59 96.4748 44.2287 96.8063 43.9702C97.141 43.7083 97.5056 43.526 97.9 43.4233C98.2978 43.3172 98.6889 43.2642 99.0733 43.2642C99.3186 43.2642 99.6003 43.294 99.9185 43.3537C100.24 43.41 100.55 43.5277 100.848 43.7067C101.15 43.8857 101.4 44.1558 101.599 44.517C101.798 44.8783 101.897 45.3622 101.897 45.9688V51H100.724V49.9659H100.664C100.585 50.1316 100.452 50.3089 100.267 50.4979C100.081 50.6868 99.834 50.8475 99.5257 50.9801C99.2175 51.1127 98.8413 51.179 98.3972 51.179ZM98.5762 50.125C99.0402 50.125 99.4313 50.0339 99.7495 49.8516C100.071 49.6693 100.313 49.4339 100.475 49.1456C100.641 48.8572 100.724 48.554 100.724 48.2358V47.1619C100.674 47.2216 100.565 47.2763 100.396 47.326C100.23 47.3724 100.038 47.4138 99.8191 47.4503C99.6036 47.4834 99.3932 47.5133 99.1877 47.5398C98.9855 47.563 98.8214 47.5829 98.6955 47.5994C98.3906 47.6392 98.1055 47.7038 97.8404 47.7933C97.5785 47.8795 97.3664 48.0104 97.204 48.1861C97.0449 48.3584 96.9654 48.5937 96.9654 48.892C96.9654 49.2997 97.1162 49.608 97.4178 49.8168C97.7227 50.0223 98.1088 50.125 98.5762 50.125ZM104.039 51V43.3636H105.172V44.517H105.252C105.391 44.1392 105.643 43.8326 106.007 43.5973C106.372 43.362 106.783 43.2443 107.24 43.2443C107.327 43.2443 107.434 43.246 107.564 43.2493C107.693 43.2526 107.791 43.2576 107.857 43.2642V44.4574C107.817 44.4474 107.726 44.4325 107.583 44.4126C107.444 44.3894 107.297 44.3778 107.141 44.3778C106.77 44.3778 106.438 44.4557 106.147 44.6115C105.858 44.764 105.63 44.9761 105.461 45.2479C105.295 45.5163 105.212 45.8229 105.212 46.1676V51H104.039ZM112.118 51.1591C111.402 51.1591 110.785 50.9901 110.268 50.652C109.751 50.3139 109.353 49.8482 109.075 49.255C108.797 48.6617 108.657 47.9839 108.657 47.2216C108.657 46.446 108.8 45.7616 109.085 45.1683C109.373 44.5717 109.774 44.1061 110.288 43.7713C110.805 43.4332 111.408 43.2642 112.098 43.2642C112.635 43.2642 113.118 43.3636 113.549 43.5625C113.98 43.7614 114.333 44.0398 114.608 44.3977C114.883 44.7557 115.054 45.1733 115.12 45.6506H113.947C113.858 45.3026 113.659 44.9943 113.35 44.7259C113.046 44.4541 112.635 44.3182 112.118 44.3182C111.66 44.3182 111.259 44.4375 110.914 44.6761C110.573 44.9115 110.306 45.2446 110.114 45.6754C109.925 46.103 109.831 46.6051 109.831 47.1818C109.831 47.7718 109.923 48.2855 110.109 48.723C110.298 49.1605 110.563 49.5002 110.904 49.7422C111.249 49.9841 111.654 50.1051 112.118 50.1051C112.422 50.1051 112.699 50.0521 112.948 49.946C113.196 49.84 113.407 49.6875 113.579 49.4886C113.752 49.2898 113.874 49.0511 113.947 48.7727H115.12C115.054 49.2235 114.89 49.6295 114.628 49.9908C114.37 50.3487 114.027 50.6338 113.599 50.8459C113.175 51.0547 112.681 51.1591 112.118 51.1591ZM118.009 46.4062V51H116.836V40.8182H118.009V44.5568H118.108C118.287 44.1624 118.556 43.8492 118.914 43.6172C119.275 43.3819 119.756 43.2642 120.355 43.2642C120.876 43.2642 121.332 43.3686 121.723 43.5774C122.114 43.7829 122.417 44.0994 122.632 44.527C122.851 44.9512 122.961 45.4915 122.961 46.1477V51H121.787V46.2273C121.787 45.6207 121.63 45.1518 121.315 44.8203C121.003 44.4856 120.571 44.3182 120.017 44.3182C119.633 44.3182 119.288 44.3994 118.983 44.5618C118.682 44.7242 118.443 44.9612 118.267 45.2727C118.095 45.5843 118.009 45.9621 118.009 46.4062Z" fill="#D9DDE3"/>
<rect x="34.5" y="80.5" width="439" height="35" rx="3.5" fill="#373F49"/>
<path fill-rule="evenodd" clip-rule="evenodd" d="M55.1667 91.3332C51.9451 91.3332 49.3334 93.9448 49.3334 97.1665C49.3334 100.388 51.9451 103 55.1667 103C58.3884 103 61.0001 100.388 61.0001 97.1665C61.0001 93.9448 58.3884 91.3332 55.1667 91.3332ZM47.6667 97.1665C47.6667 93.0244 51.0246 89.6665 55.1667 89.6665C59.3089 89.6665 62.6667 93.0244 62.6667 97.1665C62.6667 101.309 59.3089 104.667 55.1667 104.667C51.0246 104.667 47.6667 101.309 47.6667 97.1665Z" fill="#D9DDE3"/>
<path fill-rule="evenodd" clip-rule="evenodd" d="M59.2858 101.286C59.6113 100.96 60.1389 100.96 60.4643 101.286L64.0893 104.911C64.4148 105.236 64.4148 105.764 64.0893 106.089C63.7639 106.415 63.2363 106.415 62.9108 106.089L59.2858 102.464C58.9604 102.139 58.9604 101.611 59.2858 101.286Z" fill="#D9DDE3"/>
<path d="M84.8011 95.3636C84.7415 94.8598 84.4995 94.4688 84.0753 94.1903C83.651 93.9119 83.1307 93.7727 82.5142 93.7727C82.0634 93.7727 81.669 93.8456 81.331 93.9915C80.9962 94.1373 80.7344 94.3378 80.5455 94.593C80.3598 94.8482 80.267 95.1383 80.267 95.4631C80.267 95.7348 80.3317 95.9685 80.4609 96.1641C80.5935 96.3563 80.7625 96.517 80.968 96.6463C81.1735 96.7723 81.389 96.8767 81.6143 96.9595C81.8397 97.0391 82.0469 97.1037 82.2358 97.1534L83.2699 97.4318C83.535 97.5014 83.83 97.5975 84.1548 97.7202C84.483 97.8428 84.7962 98.0102 85.0945 98.2223C85.3961 98.4311 85.6446 98.6996 85.8402 99.0277C86.0357 99.3558 86.1335 99.7585 86.1335 100.236C86.1335 100.786 85.9893 101.283 85.701 101.727C85.416 102.171 84.9983 102.524 84.4482 102.786C83.9013 103.048 83.2367 103.179 82.4545 103.179C81.7254 103.179 81.094 103.061 80.5604 102.826C80.0301 102.591 79.6125 102.263 79.3075 101.842C79.0059 101.421 78.8352 100.932 78.7955 100.375H80.0682C80.1013 100.759 80.2306 101.078 80.456 101.33C80.6847 101.578 80.973 101.764 81.321 101.886C81.6723 102.006 82.0502 102.065 82.4545 102.065C82.9252 102.065 83.3478 101.989 83.7223 101.837C84.0968 101.681 84.3935 101.465 84.6122 101.19C84.831 100.912 84.9403 100.587 84.9403 100.216C84.9403 99.8778 84.8459 99.6027 84.657 99.3906C84.468 99.1785 84.2195 99.0062 83.9112 98.8736C83.603 98.741 83.2699 98.625 82.9119 98.5256L81.6591 98.1676C80.8636 97.9389 80.2339 97.6125 79.7699 97.1882C79.3059 96.764 79.0739 96.2088 79.0739 95.5227C79.0739 94.9527 79.228 94.4555 79.5362 94.0312C79.8478 93.6037 80.2654 93.2723 80.7891 93.0369C81.3161 92.7983 81.9044 92.679 82.554 92.679C83.2102 92.679 83.7936 92.7966 84.304 93.032C84.8144 93.264 85.2188 93.5821 85.517 93.9865C85.8187 94.3909 85.9777 94.8499 85.9943 95.3636H84.8011ZM91.2033 103.159C90.4675 103.159 89.8328 102.997 89.2992 102.672C88.7689 102.344 88.3596 101.886 88.0712 101.3C87.7862 100.71 87.6436 100.024 87.6436 99.2415C87.6436 98.4593 87.7862 97.7699 88.0712 97.1733C88.3596 96.5734 88.7606 96.1061 89.2743 95.7713C89.7914 95.4332 90.3946 95.2642 91.084 95.2642C91.4817 95.2642 91.8745 95.3305 92.2623 95.4631C92.65 95.5956 93.003 95.8111 93.3212 96.1094C93.6394 96.4044 93.8929 96.7955 94.0819 97.2827C94.2708 97.7699 94.3652 98.3698 94.3652 99.0824V99.5795H88.4789V98.5653H93.1721C93.1721 98.1345 93.0859 97.75 92.9135 97.4119C92.7445 97.0739 92.5025 96.8071 92.1877 96.6115C91.8761 96.416 91.5082 96.3182 91.084 96.3182C90.6167 96.3182 90.2123 96.4342 89.8709 96.6662C89.5328 96.8949 89.2727 97.1932 89.0904 97.5611C88.9081 97.929 88.8169 98.3234 88.8169 98.7443V99.4205C88.8169 99.9972 88.9164 100.486 89.1152 100.887C89.3174 101.285 89.5975 101.588 89.9554 101.797C90.3134 102.002 90.7293 102.105 91.2033 102.105C91.5115 102.105 91.79 102.062 92.0385 101.976C92.2904 101.886 92.5075 101.754 92.6898 101.578C92.8721 101.399 93.013 101.177 93.1124 100.912L94.2459 101.23C94.1266 101.615 93.9261 101.953 93.6444 102.244C93.3626 102.533 93.0146 102.758 92.6003 102.92C92.186 103.08 91.7203 103.159 91.2033 103.159ZM98.3972 103.179C97.9133 103.179 97.4741 103.088 97.0797 102.906C96.6853 102.72 96.3721 102.453 96.1401 102.105C95.9081 101.754 95.7921 101.33 95.7921 100.832C95.7921 100.395 95.8783 100.04 96.0506 99.7685C96.223 99.4934 96.4533 99.2779 96.7417 99.1222C97.03 98.9664 97.3482 98.8504 97.6962 98.7741C98.0475 98.6946 98.4005 98.6316 98.7551 98.5852C99.2192 98.5256 99.5953 98.4808 99.8837 98.451C100.175 98.4179 100.387 98.3632 100.52 98.2869C100.656 98.2107 100.724 98.0781 100.724 97.8892V97.8494C100.724 97.3589 100.59 96.9777 100.321 96.706C100.056 96.4342 99.6534 96.2983 99.1131 96.2983C98.553 96.2983 98.1138 96.4209 97.7956 96.6662C97.4775 96.9115 97.2537 97.1733 97.1245 97.4517L96.0108 97.054C96.2097 96.59 96.4748 96.2287 96.8063 95.9702C97.141 95.7083 97.5056 95.526 97.9 95.4233C98.2978 95.3172 98.6889 95.2642 99.0733 95.2642C99.3186 95.2642 99.6003 95.294 99.9185 95.3537C100.24 95.41 100.55 95.5277 100.848 95.7067C101.15 95.8857 101.4 96.1558 101.599 96.517C101.798 96.8783 101.897 97.3622 101.897 97.9688V103H100.724V101.966H100.664C100.585 102.132 100.452 102.309 100.267 102.498C100.081 102.687 99.834 102.848 99.5257 102.98C99.2175 103.113 98.8413 103.179 98.3972 103.179ZM98.5762 102.125C99.0402 102.125 99.4313 102.034 99.7495 101.852C100.071 101.669 100.313 101.434 100.475 101.146C100.641 100.857 100.724 100.554 100.724 100.236V99.1619C100.674 99.2216 100.565 99.2763 100.396 99.326C100.23 99.3724 100.038 99.4138 99.8191 99.4503C99.6036 99.4834 99.3932 99.5133 99.1877 99.5398C98.9855 99.563 98.8214 99.5829 98.6955 99.5994C98.3906 99.6392 98.1055 99.7038 97.8404 99.7933C97.5785 99.8795 97.3664 100.01 97.204 100.186C97.0449 100.358 96.9654 100.594 96.9654 100.892C96.9654 101.3 97.1162 101.608 97.4178 101.817C97.7227 102.022 98.1088 102.125 98.5762 102.125ZM104.039 103V95.3636H105.172V96.517H105.252C105.391 96.1392 105.643 95.8326 106.007 95.5973C106.372 95.362 106.783 95.2443 107.24 95.2443C107.327 95.2443 107.434 95.246 107.564 95.2493C107.693 95.2526 107.791 95.2576 107.857 95.2642V96.4574C107.817 96.4474 107.726 96.4325 107.583 96.4126C107.444 96.3894 107.297 96.3778 107.141 96.3778C106.77 96.3778 106.438 96.4557 106.147 96.6115C105.858 96.764 105.63 96.9761 105.461 97.2479C105.295 97.5163 105.212 97.8229 105.212 98.1676V103H104.039ZM112.118 103.159C111.402 103.159 110.785 102.99 110.268 102.652C109.751 102.314 109.353 101.848 109.075 101.255C108.797 100.662 108.657 99.9839 108.657 99.2216C108.657 98.446 108.8 97.7616 109.085 97.1683C109.373 96.5717 109.774 96.1061 110.288 95.7713C110.805 95.4332 111.408 95.2642 112.098 95.2642C112.635 95.2642 113.118 95.3636 113.549 95.5625C113.98 95.7614 114.333 96.0398 114.608 96.3977C114.883 96.7557 115.054 97.1733 115.12 97.6506H113.947C113.858 97.3026 113.659 96.9943 113.35 96.7259C113.046 96.4541 112.635 96.3182 112.118 96.3182C111.66 96.3182 111.259 96.4375 110.914 96.6761C110.573 96.9115 110.306 97.2446 110.114 97.6754C109.925 98.103 109.831 98.6051 109.831 99.1818C109.831 99.7718 109.923 100.286 110.109 100.723C110.298 101.161 110.563 101.5 110.904 101.742C111.249 101.984 111.654 102.105 112.118 102.105C112.422 102.105 112.699 102.052 112.948 101.946C113.196 101.84 113.407 101.688 113.579 101.489C113.752 101.29 113.874 101.051 113.947 100.773H115.12C115.054 101.223 114.89 101.629 114.628 101.991C114.37 102.349 114.027 102.634 113.599 102.846C113.175 103.055 112.681 103.159 112.118 103.159ZM118.009 98.4062V103H116.836V92.8182H118.009V96.5568H118.108C118.287 96.1624 118.556 95.8492 118.914 95.6172C119.275 95.3819 119.756 95.2642 120.355 95.2642C120.876 95.2642 121.332 95.3686 121.723 95.5774C122.114 95.7829 122.417 96.0994 122.632 96.527C122.851 96.9512 122.961 97.4915 122.961 98.1477V103H121.787V98.2273C121.787 97.6207 121.63 97.1518 121.315 96.8203C121.003 96.4856 120.571 96.3182 120.017 96.3182C119.633 96.3182 119.288 96.3994 118.983 96.5618C118.682 96.7242 118.443 96.9612 118.267 97.2727C118.095 97.5843 118.009 97.9621 118.009 98.4062Z" fill="#D9DDE3"/>
<rect x="34.5" y="80.5" width="439" height="35" rx="3.5" stroke="#5A697C"/>
<rect x="34.5" y="132.5" width="439" height="35" rx="3.5" fill="#373F49"/>
<path fill-rule="evenodd" clip-rule="evenodd" d="M55.1667 143.333C51.9451 143.333 49.3334 145.945 49.3334 149.167C49.3334 152.388 51.9451 155 55.1667 155C58.3884 155 61.0001 152.388 61.0001 149.167C61.0001 145.945 58.3884 143.333 55.1667 143.333ZM47.6667 149.167C47.6667 145.024 51.0246 141.667 55.1667 141.667C59.3089 141.667 62.6667 145.024 62.6667 149.167C62.6667 153.309 59.3089 156.667 55.1667 156.667C51.0246 156.667 47.6667 153.309 47.6667 149.167Z" fill="#D9DDE3"/>
<path fill-rule="evenodd" clip-rule="evenodd" d="M59.2858 153.286C59.6113 152.96 60.1389 152.96 60.4643 153.286L64.0893 156.911C64.4148 157.236 64.4148 157.764 64.0893 158.089C63.7639 158.415 63.2363 158.415 62.9108 158.089L59.2858 154.464C58.9604 154.139 58.9604 153.611 59.2858 153.286Z" fill="#D9DDE3"/>
<rect x="78" y="140" width="1" height="20" fill="#D9DDE3"/>
<rect x="34.5" y="132.5" width="439" height="35" rx="3.5" stroke="#798FFF"/>
<rect x="34" y="184" width="440" height="36" rx="4" fill="#373F49"/>
<path fill-rule="evenodd" clip-rule="evenodd" d="M55.1667 195.333C51.9451 195.333 49.3334 197.945 49.3334 201.167C49.3334 204.388 51.9451 207 55.1667 207C58.3884 207 61.0001 204.388 61.0001 201.167C61.0001 197.945 58.3884 195.333 55.1667 195.333ZM47.6667 201.167C47.6667 197.024 51.0246 193.667 55.1667 193.667C59.3089 193.667 62.6667 197.024 62.6667 201.167C62.6667 205.309 59.3089 208.667 55.1667 208.667C51.0246 208.667 47.6667 205.309 47.6667 201.167Z" fill="#D9DDE3"/>
<path fill-rule="evenodd" clip-rule="evenodd" d="M59.2858 205.286C59.6113 204.96 60.1389 204.96 60.4643 205.286L64.0893 208.911C64.4148 209.236 64.4148 209.764 64.0893 210.089C63.7639 210.415 63.2363 210.415 62.9108 210.089L59.2858 206.464C58.9604 206.139 58.9604 205.611 59.2858 205.286Z" fill="#D9DDE3"/>
<path fill-rule="evenodd" clip-rule="evenodd" d="M457.589 196.411C457.915 196.737 457.915 197.264 457.589 197.59L447.589 207.59C447.264 207.915 446.736 207.915 446.411 207.59C446.085 207.264 446.085 206.737 446.411 206.411L456.411 196.411C456.736 196.086 457.264 196.086 457.589 196.411Z" fill="#D9DDE3"/>
<path fill-rule="evenodd" clip-rule="evenodd" d="M446.411 196.411C446.736 196.086 447.264 196.086 447.589 196.411L457.589 206.411C457.915 206.737 457.915 207.264 457.589 207.59C457.264 207.915 456.736 207.915 456.411 207.59L446.411 197.59C446.085 197.264 446.085 196.737 446.411 196.411Z" fill="#D9DDE3"/>
<rect x="78" y="190" width="65" height="24" rx="4" fill="#5A697C"/>
<path d="M86.8803 198.21V197.273H93.4258V198.21H90.6815V206H89.6246V198.21H86.8803ZM96.7156 206.136C96.0849 206.136 95.5408 205.997 95.0835 205.719C94.6289 205.438 94.2781 205.045 94.0309 204.543C93.7866 204.037 93.6644 203.449 93.6644 202.778C93.6644 202.108 93.7866 201.517 94.0309 201.006C94.2781 200.491 94.6218 200.091 95.0621 199.804C95.5053 199.514 96.0224 199.369 96.6133 199.369C96.9542 199.369 97.2908 199.426 97.6232 199.54C97.9556 199.653 98.2582 199.838 98.5309 200.094C98.8036 200.347 99.021 200.682 99.1829 201.099C99.3448 201.517 99.4258 202.031 99.4258 202.642V203.068H94.3803V202.199H98.4031C98.4031 201.83 98.3292 201.5 98.1815 201.21C98.0366 200.92 97.8292 200.692 97.5593 200.524C97.2923 200.357 96.9769 200.273 96.6133 200.273C96.2127 200.273 95.8661 200.372 95.5735 200.571C95.2837 200.767 95.0607 201.023 94.9045 201.338C94.7482 201.653 94.6701 201.991 94.6701 202.352V202.932C94.6701 203.426 94.7553 203.845 94.9258 204.189C95.0991 204.53 95.3391 204.79 95.646 204.969C95.9528 205.145 96.3093 205.233 96.7156 205.233C96.9798 205.233 97.2184 205.196 97.4315 205.122C97.6474 205.045 97.8335 204.932 97.9897 204.781C98.146 204.628 98.2667 204.437 98.3519 204.21L99.3235 204.483C99.2212 204.812 99.0494 205.102 98.8079 205.352C98.5664 205.599 98.2681 205.793 97.913 205.932C97.5579 206.068 97.1587 206.136 96.7156 206.136ZM101.53 199.455L103.098 202.131L104.666 199.455H105.825L103.712 202.727L105.825 206H104.666L103.098 203.46L101.53 206H100.371L102.45 202.727L100.371 199.455H101.53ZM110.107 199.455V200.307H106.715V199.455H110.107ZM107.703 197.886H108.709V204.125C108.709 204.409 108.75 204.622 108.833 204.764C108.918 204.903 109.026 204.997 109.157 205.045C109.29 205.091 109.431 205.114 109.578 205.114C109.689 205.114 109.78 205.108 109.851 205.097C109.922 205.082 109.979 205.071 110.022 205.062L110.226 205.966C110.158 205.991 110.063 206.017 109.941 206.043C109.819 206.071 109.664 206.085 109.476 206.085C109.192 206.085 108.914 206.024 108.641 205.902C108.371 205.78 108.147 205.594 107.968 205.344C107.792 205.094 107.703 204.778 107.703 204.398V197.886Z" fill="#D9DDE3"/>
<path fill-rule="evenodd" clip-rule="evenodd" d="M131.471 197.529C131.732 197.789 131.732 198.211 131.471 198.472L123.471 206.472C123.211 206.732 122.789 206.732 122.529 206.472C122.268 206.211 122.268 205.789 122.529 205.529L130.529 197.529C130.789 197.268 131.211 197.268 131.471 197.529Z" fill="#D9DDE3"/>
<path fill-rule="evenodd" clip-rule="evenodd" d="M122.529 197.529C122.789 197.268 123.211 197.268 123.471 197.529L131.471 205.529C131.732 205.789 131.732 206.211 131.471 206.472C131.211 206.732 130.789 206.732 130.529 206.472L122.529 198.472C122.268 198.211 122.268 197.789 122.529 197.529Z" fill="#D9DDE3"/>
<rect x="34" y="236" width="440" height="64" rx="4" fill="#373F49"/>
<path fill-rule="evenodd" clip-rule="evenodd" d="M55.1667 247.333C51.9451 247.333 49.3334 249.945 49.3334 253.167C49.3334 256.388 51.9451 259 55.1667 259C58.3884 259 61.0001 256.388 61.0001 253.167C61.0001 249.945 58.3884 247.333 55.1667 247.333ZM47.6667 253.167C47.6667 249.024 51.0246 245.667 55.1667 245.667C59.3089 245.667 62.6667 249.024 62.6667 253.167C62.6667 257.309 59.3089 260.667 55.1667 260.667C51.0246 260.667 47.6667 257.309 47.6667 253.167Z" fill="#D9DDE3"/>
<path fill-rule="evenodd" clip-rule="evenodd" d="M59.2858 257.286C59.6113 256.96 60.1389 256.96 60.4643 257.286L64.0893 260.911C64.4148 261.236 64.4148 261.764 64.0893 262.089C63.7639 262.415 63.2363 262.415 62.9108 262.089L59.2858 258.464C58.9604 258.139 58.9604 257.611 59.2858 257.286Z" fill="#D9DDE3"/>
<path fill-rule="evenodd" clip-rule="evenodd" d="M457.589 248.411C457.915 248.737 457.915 249.264 457.589 249.59L447.589 259.59C447.264 259.915 446.736 259.915 446.411 259.59C446.085 259.264 446.085 258.737 446.411 258.411L456.411 248.411C456.736 248.086 457.264 248.086 457.589 248.411Z" fill="#D9DDE3"/>
<path fill-rule="evenodd" clip-rule="evenodd" d="M446.411 248.411C446.736 248.086 447.264 248.086 447.589 248.411L457.589 258.411C457.915 258.737 457.915 259.264 457.589 259.59C457.264 259.915 456.736 259.915 456.411 259.59L446.411 249.59C446.085 249.264 446.085 248.737 446.411 248.411Z" fill="#D9DDE3"/>
<rect x="78" y="242" width="147" height="24" rx="4" fill="#5A697C"/>
<path d="M87.2013 258V249.273H88.2582V253.159H92.9116V249.273H93.9684V258H92.9116V254.097H88.2582V258H87.2013ZM98.6921 258.136C98.0614 258.136 97.5174 257.997 97.06 257.719C96.6055 257.438 96.2546 257.045 96.0075 256.543C95.7631 256.037 95.641 255.449 95.641 254.778C95.641 254.108 95.7631 253.517 96.0075 253.006C96.2546 252.491 96.5984 252.091 97.0387 251.804C97.4819 251.514 97.9989 251.369 98.5898 251.369C98.9308 251.369 99.2674 251.426 99.5998 251.54C99.9322 251.653 100.235 251.838 100.507 252.094C100.78 252.347 100.998 252.682 101.159 253.099C101.321 253.517 101.402 254.031 101.402 254.642V255.068H96.3569V254.199H100.38C100.38 253.83 100.306 253.5 100.158 253.21C100.013 252.92 99.8058 252.692 99.5359 252.524C99.2688 252.357 98.9535 252.273 98.5898 252.273C98.1893 252.273 97.8427 252.372 97.5501 252.571C97.2603 252.767 97.0373 253.023 96.881 253.338C96.7248 253.653 96.6467 253.991 96.6467 254.352V254.932C96.6467 255.426 96.7319 255.845 96.9023 256.189C97.0756 256.53 97.3157 256.79 97.6225 256.969C97.9293 257.145 98.2859 257.233 98.6921 257.233C98.9563 257.233 99.195 257.196 99.408 257.122C99.6239 257.045 99.81 256.932 99.9663 256.781C100.123 256.628 100.243 256.437 100.328 256.21L101.3 256.483C101.198 256.812 101.026 257.102 100.784 257.352C100.543 257.599 100.245 257.793 99.8896 257.932C99.5344 258.068 99.1353 258.136 98.6921 258.136ZM104.858 258.153C104.444 258.153 104.067 258.075 103.729 257.919C103.391 257.76 103.123 257.531 102.924 257.233C102.725 256.932 102.625 256.568 102.625 256.142C102.625 255.767 102.699 255.463 102.847 255.23C102.995 254.994 103.192 254.81 103.439 254.676C103.686 254.543 103.959 254.443 104.257 254.378C104.559 254.31 104.861 254.256 105.165 254.216C105.563 254.165 105.885 254.126 106.132 254.101C106.382 254.072 106.564 254.026 106.678 253.96C106.794 253.895 106.853 253.781 106.853 253.619V253.585C106.853 253.165 106.738 252.838 106.507 252.605C106.28 252.372 105.935 252.256 105.472 252.256C104.992 252.256 104.615 252.361 104.343 252.571C104.07 252.781 103.878 253.006 103.767 253.244L102.813 252.903C102.983 252.506 103.211 252.196 103.495 251.974C103.782 251.75 104.094 251.594 104.432 251.506C104.773 251.415 105.108 251.369 105.438 251.369C105.648 251.369 105.89 251.395 106.162 251.446C106.438 251.494 106.703 251.595 106.959 251.749C107.218 251.902 107.432 252.134 107.603 252.443C107.773 252.753 107.858 253.168 107.858 253.688V258H106.853V257.114H106.801C106.733 257.256 106.62 257.408 106.461 257.57C106.301 257.732 106.09 257.869 105.826 257.983C105.561 258.097 105.239 258.153 104.858 258.153ZM105.012 257.25C105.409 257.25 105.745 257.172 106.017 257.016C106.293 256.859 106.5 256.658 106.64 256.411C106.782 256.163 106.853 255.903 106.853 255.631V254.71C106.81 254.761 106.716 254.808 106.571 254.851C106.429 254.891 106.265 254.926 106.077 254.957C105.892 254.986 105.712 255.011 105.536 255.034C105.363 255.054 105.222 255.071 105.114 255.085C104.853 255.119 104.608 255.175 104.381 255.251C104.157 255.325 103.975 255.437 103.836 255.588C103.699 255.736 103.631 255.937 103.631 256.193C103.631 256.543 103.76 256.807 104.019 256.986C104.28 257.162 104.611 257.25 105.012 257.25ZM109.694 258V251.455H110.665V252.443H110.734C110.853 252.119 111.069 251.857 111.381 251.655C111.694 251.453 112.046 251.352 112.438 251.352C112.512 251.352 112.604 251.354 112.715 251.357C112.826 251.359 112.91 251.364 112.967 251.369V252.392C112.933 252.384 112.854 252.371 112.732 252.354C112.613 252.334 112.487 252.324 112.353 252.324C112.035 252.324 111.751 252.391 111.501 252.524C111.254 252.655 111.058 252.837 110.913 253.07C110.771 253.3 110.7 253.562 110.7 253.858V258H109.694ZM117.415 251.455V252.307H114.023V251.455H117.415ZM115.012 249.886H116.018V256.125C116.018 256.409 116.059 256.622 116.141 256.764C116.227 256.903 116.335 256.997 116.465 257.045C116.599 257.091 116.739 257.114 116.887 257.114C116.998 257.114 117.089 257.108 117.16 257.097C117.231 257.082 117.288 257.071 117.33 257.062L117.535 257.966C117.467 257.991 117.371 258.017 117.249 258.043C117.127 258.071 116.972 258.085 116.785 258.085C116.501 258.085 116.222 258.024 115.95 257.902C115.68 257.78 115.455 257.594 115.276 257.344C115.1 257.094 115.012 256.778 115.012 256.398V249.886ZM124.962 258.136C124.371 258.136 123.853 257.996 123.407 257.714C122.964 257.433 122.617 257.04 122.367 256.534C122.12 256.028 121.996 255.437 121.996 254.761C121.996 254.08 122.12 253.484 122.367 252.976C122.617 252.467 122.964 252.072 123.407 251.791C123.853 251.51 124.371 251.369 124.962 251.369C125.553 251.369 126.07 251.51 126.513 251.791C126.96 252.072 127.306 252.467 127.553 252.976C127.803 253.484 127.928 254.08 127.928 254.761C127.928 255.437 127.803 256.028 127.553 256.534C127.306 257.04 126.96 257.433 126.513 257.714C126.07 257.996 125.553 258.136 124.962 258.136ZM124.962 257.233C125.411 257.233 125.781 257.118 126.07 256.888C126.36 256.658 126.575 256.355 126.714 255.98C126.853 255.605 126.923 255.199 126.923 254.761C126.923 254.324 126.853 253.916 126.714 253.538C126.575 253.161 126.36 252.855 126.07 252.622C125.781 252.389 125.411 252.273 124.962 252.273C124.513 252.273 124.144 252.389 123.854 252.622C123.565 252.855 123.35 253.161 123.211 253.538C123.072 253.916 123.002 254.324 123.002 254.761C123.002 255.199 123.072 255.605 123.211 255.98C123.35 256.355 123.565 256.658 123.854 256.888C124.144 257.118 124.513 257.233 124.962 257.233ZM132.378 251.455V252.307H128.85V251.455H132.378ZM129.907 258V250.551C129.907 250.176 129.995 249.864 130.171 249.614C130.347 249.364 130.576 249.176 130.857 249.051C131.138 248.926 131.435 248.864 131.748 248.864C131.995 248.864 132.196 248.884 132.353 248.923C132.509 248.963 132.625 249 132.702 249.034L132.412 249.903C132.361 249.886 132.29 249.865 132.199 249.839C132.111 249.814 131.995 249.801 131.85 249.801C131.517 249.801 131.277 249.885 131.13 250.053C130.985 250.22 130.912 250.466 130.912 250.79V258H129.907ZM140.009 251.455V252.307H136.617V251.455H140.009ZM137.606 249.886H138.612V256.125C138.612 256.409 138.653 256.622 138.735 256.764C138.82 256.903 138.928 256.997 139.059 257.045C139.192 257.091 139.333 257.114 139.481 257.114C139.592 257.114 139.683 257.108 139.754 257.097C139.825 257.082 139.881 257.071 139.924 257.062L140.129 257.966C140.06 257.991 139.965 258.017 139.843 258.043C139.721 258.071 139.566 258.085 139.379 258.085C139.094 258.085 138.816 258.024 138.543 257.902C138.273 257.78 138.049 257.594 137.87 257.344C137.694 257.094 137.606 256.778 137.606 256.398V249.886ZM142.668 254.062V258H141.663V249.273H142.668V252.477H142.754C142.907 252.139 143.137 251.871 143.444 251.672C143.754 251.47 144.165 251.369 144.68 251.369C145.126 251.369 145.516 251.459 145.852 251.638C146.187 251.814 146.447 252.085 146.631 252.452C146.819 252.815 146.913 253.278 146.913 253.841V258H145.907V253.909C145.907 253.389 145.772 252.987 145.502 252.703C145.235 252.416 144.864 252.273 144.39 252.273C144.06 252.273 143.765 252.342 143.504 252.482C143.245 252.621 143.04 252.824 142.89 253.091C142.742 253.358 142.668 253.682 142.668 254.062ZM151.497 258.136C150.866 258.136 150.322 257.997 149.865 257.719C149.41 257.438 149.059 257.045 148.812 256.543C148.568 256.037 148.446 255.449 148.446 254.778C148.446 254.108 148.568 253.517 148.812 253.006C149.059 252.491 149.403 252.091 149.843 251.804C150.287 251.514 150.804 251.369 151.395 251.369C151.735 251.369 152.072 251.426 152.404 251.54C152.737 251.653 153.039 251.838 153.312 252.094C153.585 252.347 153.802 252.682 153.964 253.099C154.126 253.517 154.207 254.031 154.207 254.642V255.068H149.162V254.199H153.184C153.184 253.83 153.11 253.5 152.963 253.21C152.818 252.92 152.61 252.692 152.341 252.524C152.074 252.357 151.758 252.273 151.395 252.273C150.994 252.273 150.647 252.372 150.355 252.571C150.065 252.767 149.842 253.023 149.686 253.338C149.529 253.653 149.451 253.991 149.451 254.352V254.932C149.451 255.426 149.537 255.845 149.707 256.189C149.88 256.53 150.12 256.79 150.427 256.969C150.734 257.145 151.091 257.233 151.497 257.233C151.761 257.233 152 257.196 152.213 257.122C152.429 257.045 152.615 256.932 152.771 256.781C152.927 256.628 153.048 256.437 153.133 256.21L154.105 256.483C154.002 256.812 153.831 257.102 153.589 257.352C153.348 257.599 153.049 257.793 152.694 257.932C152.339 258.068 151.94 258.136 151.497 258.136ZM158.771 250.21V249.273H165.316V250.21H162.572V258H161.515V250.21H158.771ZM168.521 258.136C167.93 258.136 167.412 257.996 166.966 257.714C166.522 257.433 166.176 257.04 165.926 256.534C165.679 256.028 165.555 255.437 165.555 254.761C165.555 254.08 165.679 253.484 165.926 252.976C166.176 252.467 166.522 252.072 166.966 251.791C167.412 251.51 167.93 251.369 168.521 251.369C169.112 251.369 169.629 251.51 170.072 251.791C170.518 252.072 170.865 252.467 171.112 252.976C171.362 253.484 171.487 254.08 171.487 254.761C171.487 255.437 171.362 256.028 171.112 256.534C170.865 257.04 170.518 257.433 170.072 257.714C169.629 257.996 169.112 258.136 168.521 258.136ZM168.521 257.233C168.97 257.233 169.339 257.118 169.629 256.888C169.919 256.658 170.133 256.355 170.272 255.98C170.412 255.605 170.481 255.199 170.481 254.761C170.481 254.324 170.412 253.916 170.272 253.538C170.133 253.161 169.919 252.855 169.629 252.622C169.339 252.389 168.97 252.273 168.521 252.273C168.072 252.273 167.703 252.389 167.413 252.622C167.123 252.855 166.909 253.161 166.77 253.538C166.63 253.916 166.561 254.324 166.561 254.761C166.561 255.199 166.63 255.605 166.77 255.98C166.909 256.355 167.123 256.658 167.413 256.888C167.703 257.118 168.072 257.233 168.521 257.233ZM174.282 258L172.288 251.455H173.345L174.76 256.466H174.828L176.225 251.455H177.299L178.68 256.449H178.748L180.163 251.455H181.22L179.225 258H178.237L176.805 252.972H176.703L175.271 258H174.282ZM185.071 258.136C184.44 258.136 183.896 257.997 183.439 257.719C182.984 257.438 182.634 257.045 182.386 256.543C182.142 256.037 182.02 255.449 182.02 254.778C182.02 254.108 182.142 253.517 182.386 253.006C182.634 252.491 182.977 252.091 183.418 251.804C183.861 251.514 184.378 251.369 184.969 251.369C185.31 251.369 185.646 251.426 185.979 251.54C186.311 251.653 186.614 251.838 186.886 252.094C187.159 252.347 187.376 252.682 187.538 253.099C187.7 253.517 187.781 254.031 187.781 254.642V255.068H182.736V254.199H186.759C186.759 253.83 186.685 253.5 186.537 253.21C186.392 252.92 186.185 252.692 185.915 252.524C185.648 252.357 185.332 252.273 184.969 252.273C184.568 252.273 184.222 252.372 183.929 252.571C183.639 252.767 183.416 253.023 183.26 253.338C183.104 253.653 183.026 253.991 183.026 254.352V254.932C183.026 255.426 183.111 255.845 183.281 256.189C183.455 256.53 183.695 256.79 184.001 256.969C184.308 257.145 184.665 257.233 185.071 257.233C185.335 257.233 185.574 257.196 185.787 257.122C186.003 257.045 186.189 256.932 186.345 256.781C186.501 256.628 186.622 256.437 186.707 256.21L187.679 256.483C187.577 256.812 187.405 257.102 187.163 257.352C186.922 257.599 186.624 257.793 186.268 257.932C185.913 258.068 185.514 258.136 185.071 258.136ZM189.311 258V251.455H190.283V252.443H190.351C190.47 252.119 190.686 251.857 190.999 251.655C191.311 251.453 191.663 251.352 192.055 251.352C192.129 251.352 192.222 251.354 192.332 251.357C192.443 251.359 192.527 251.364 192.584 251.369V252.392C192.55 252.384 192.472 252.371 192.349 252.354C192.23 252.334 192.104 252.324 191.97 252.324C191.652 252.324 191.368 252.391 191.118 252.524C190.871 252.655 190.675 252.837 190.53 253.07C190.388 253.3 190.317 253.562 190.317 253.858V258H189.311Z" fill="#D9DDE3"/>
<path fill-rule="evenodd" clip-rule="evenodd" d="M213.471 249.529C213.732 249.789 213.732 250.211 213.471 250.472L205.471 258.472C205.211 258.732 204.789 258.732 204.529 258.472C204.268 258.211 204.268 257.789 204.529 257.529L212.529 249.529C212.789 249.268 213.211 249.268 213.471 249.529Z" fill="#D9DDE3"/>
<path fill-rule="evenodd" clip-rule="evenodd" d="M204.529 249.529C204.789 249.268 205.211 249.268 205.471 249.529L213.471 257.529C213.732 257.789 213.732 258.211 213.471 258.472C213.211 258.732 212.789 258.732 212.529 258.472L204.529 250.472C204.268 250.211 204.268 249.789 204.529 249.529Z" fill="#D9DDE3"/>
<rect x="229" y="242" width="110" height="24" rx="4" fill="#5A697C"/>
<path d="M238.434 258V249.273H241.383C242.064 249.273 242.624 249.389 243.062 249.622C243.499 249.852 243.823 250.169 244.033 250.572C244.243 250.976 244.349 251.435 244.349 251.949C244.349 252.463 244.243 252.919 244.033 253.317C243.823 253.714 243.501 254.027 243.066 254.254C242.631 254.479 242.076 254.591 241.4 254.591H239.013V253.636H241.366C241.831 253.636 242.206 253.568 242.491 253.432C242.778 253.295 242.985 253.102 243.113 252.852C243.243 252.599 243.309 252.298 243.309 251.949C243.309 251.599 243.243 251.294 243.113 251.033C242.982 250.771 242.773 250.57 242.486 250.428C242.199 250.283 241.82 250.21 241.349 250.21H239.491V258H238.434ZM242.542 254.08L244.689 258H243.462L241.349 254.08H242.542ZM248.647 258.136C248.017 258.136 247.472 257.997 247.015 257.719C246.561 257.438 246.21 257.045 245.963 256.543C245.718 256.037 245.596 255.449 245.596 254.778C245.596 254.108 245.718 253.517 245.963 253.006C246.21 252.491 246.553 252.091 246.994 251.804C247.437 251.514 247.954 251.369 248.545 251.369C248.886 251.369 249.222 251.426 249.555 251.54C249.887 251.653 250.19 251.838 250.463 252.094C250.735 252.347 250.953 252.682 251.115 253.099C251.276 253.517 251.357 254.031 251.357 254.642V255.068H246.312V254.199H250.335C250.335 253.83 250.261 253.5 250.113 253.21C249.968 252.92 249.761 252.692 249.491 252.524C249.224 252.357 248.909 252.273 248.545 252.273C248.144 252.273 247.798 252.372 247.505 252.571C247.215 252.767 246.992 253.023 246.836 253.338C246.68 253.653 246.602 253.991 246.602 254.352V254.932C246.602 255.426 246.687 255.845 246.857 256.189C247.031 256.53 247.271 256.79 247.578 256.969C247.884 257.145 248.241 257.233 248.647 257.233C248.911 257.233 249.15 257.196 249.363 257.122C249.579 257.045 249.765 256.932 249.921 256.781C250.078 256.628 250.198 256.437 250.284 256.21L251.255 256.483C251.153 256.812 250.981 257.102 250.74 257.352C250.498 257.599 250.2 257.793 249.845 257.932C249.49 258.068 249.09 258.136 248.647 258.136ZM252.887 260.455V251.455H253.859V252.494H253.978C254.052 252.381 254.154 252.236 254.285 252.06C254.419 251.881 254.609 251.722 254.856 251.582C255.106 251.44 255.444 251.369 255.87 251.369C256.421 251.369 256.907 251.507 257.328 251.783C257.748 252.058 258.076 252.449 258.312 252.955C258.548 253.46 258.666 254.057 258.666 254.744C258.666 255.438 258.548 256.038 258.312 256.547C258.076 257.053 257.749 257.445 257.332 257.723C256.914 257.999 256.433 258.136 255.887 258.136C255.467 258.136 255.13 258.067 254.877 257.928C254.624 257.786 254.43 257.625 254.294 257.446C254.157 257.264 254.052 257.114 253.978 256.994H253.893V260.455H252.887ZM253.876 254.727C253.876 255.222 253.948 255.658 254.093 256.036C254.238 256.411 254.45 256.705 254.728 256.918C255.007 257.128 255.347 257.233 255.751 257.233C256.171 257.233 256.522 257.122 256.803 256.901C257.088 256.676 257.301 256.375 257.443 255.997C257.588 255.616 257.66 255.193 257.66 254.727C257.66 254.267 257.589 253.852 257.447 253.483C257.308 253.111 257.096 252.817 256.812 252.601C256.531 252.382 256.177 252.273 255.751 252.273C255.342 252.273 254.998 252.376 254.72 252.584C254.441 252.788 254.231 253.075 254.089 253.445C253.947 253.811 253.876 254.239 253.876 254.727ZM261.205 249.273V258H260.2V249.273H261.205ZM264.974 258.153C264.559 258.153 264.182 258.075 263.844 257.919C263.506 257.76 263.238 257.531 263.039 257.233C262.84 256.932 262.741 256.568 262.741 256.142C262.741 255.767 262.814 255.463 262.962 255.23C263.11 254.994 263.307 254.81 263.555 254.676C263.802 254.543 264.074 254.443 264.373 254.378C264.674 254.31 264.976 254.256 265.28 254.216C265.678 254.165 266.001 254.126 266.248 254.101C266.498 254.072 266.68 254.026 266.793 253.96C266.91 253.895 266.968 253.781 266.968 253.619V253.585C266.968 253.165 266.853 252.838 266.623 252.605C266.395 252.372 266.05 252.256 265.587 252.256C265.107 252.256 264.731 252.361 264.458 252.571C264.185 252.781 263.993 253.006 263.883 253.244L262.928 252.903C263.099 252.506 263.326 252.196 263.61 251.974C263.897 251.75 264.209 251.594 264.547 251.506C264.888 251.415 265.224 251.369 265.553 251.369C265.763 251.369 266.005 251.395 266.278 251.446C266.553 251.494 266.819 251.595 267.074 251.749C267.333 251.902 267.547 252.134 267.718 252.443C267.888 252.753 267.974 253.168 267.974 253.688V258H266.968V257.114H266.917C266.849 257.256 266.735 257.408 266.576 257.57C266.417 257.732 266.205 257.869 265.941 257.983C265.677 258.097 265.354 258.153 264.974 258.153ZM265.127 257.25C265.525 257.25 265.86 257.172 266.133 257.016C266.408 256.859 266.616 256.658 266.755 256.411C266.897 256.163 266.968 255.903 266.968 255.631V254.71C266.925 254.761 266.831 254.808 266.687 254.851C266.545 254.891 266.38 254.926 266.192 254.957C266.008 254.986 265.827 255.011 265.651 255.034C265.478 255.054 265.337 255.071 265.229 255.085C264.968 255.119 264.724 255.175 264.496 255.251C264.272 255.325 264.09 255.437 263.951 255.588C263.814 255.736 263.746 255.937 263.746 256.193C263.746 256.543 263.876 256.807 264.134 256.986C264.395 257.162 264.726 257.25 265.127 257.25ZM272.468 258.136C271.855 258.136 271.326 257.991 270.883 257.702C270.44 257.412 270.099 257.013 269.86 256.504C269.622 255.996 269.502 255.415 269.502 254.761C269.502 254.097 269.624 253.51 269.869 253.001C270.116 252.49 270.46 252.091 270.9 251.804C271.343 251.514 271.86 251.369 272.451 251.369C272.911 251.369 273.326 251.455 273.695 251.625C274.065 251.795 274.367 252.034 274.603 252.341C274.839 252.648 274.985 253.006 275.042 253.415H274.036C273.96 253.116 273.789 252.852 273.525 252.622C273.264 252.389 272.911 252.273 272.468 252.273C272.076 252.273 271.732 252.375 271.437 252.58C271.144 252.781 270.916 253.067 270.751 253.436C270.589 253.803 270.508 254.233 270.508 254.727C270.508 255.233 270.588 255.673 270.747 256.048C270.909 256.423 271.136 256.714 271.428 256.922C271.724 257.129 272.07 257.233 272.468 257.233C272.73 257.233 272.967 257.188 273.18 257.097C273.393 257.006 273.573 256.875 273.721 256.705C273.869 256.534 273.974 256.33 274.036 256.091H275.042C274.985 256.477 274.845 256.825 274.62 257.135C274.399 257.442 274.105 257.686 273.738 257.868C273.374 258.047 272.951 258.136 272.468 258.136ZM279.257 258.136C278.626 258.136 278.082 257.997 277.624 257.719C277.17 257.438 276.819 257.045 276.572 256.543C276.328 256.037 276.205 255.449 276.205 254.778C276.205 254.108 276.328 253.517 276.572 253.006C276.819 252.491 277.163 252.091 277.603 251.804C278.046 251.514 278.563 251.369 279.154 251.369C279.495 251.369 279.832 251.426 280.164 251.54C280.497 251.653 280.799 251.838 281.072 252.094C281.345 252.347 281.562 252.682 281.724 253.099C281.886 253.517 281.967 254.031 281.967 254.642V255.068H276.921V254.199H280.944C280.944 253.83 280.87 253.5 280.722 253.21C280.578 252.92 280.37 252.692 280.1 252.524C279.833 252.357 279.518 252.273 279.154 252.273C278.754 252.273 278.407 252.372 278.115 252.571C277.825 252.767 277.602 253.023 277.445 253.338C277.289 253.653 277.211 253.991 277.211 254.352V254.932C277.211 255.426 277.296 255.845 277.467 256.189C277.64 256.53 277.88 256.79 278.187 256.969C278.494 257.145 278.85 257.233 279.257 257.233C279.521 257.233 279.759 257.196 279.972 257.122C280.188 257.045 280.374 256.932 280.531 256.781C280.687 256.628 280.808 256.437 280.893 256.21L281.865 256.483C281.762 256.812 281.59 257.102 281.349 257.352C281.107 257.599 280.809 257.793 280.454 257.932C280.099 258.068 279.7 258.136 279.257 258.136ZM285.423 258.153C285.008 258.153 284.632 258.075 284.294 257.919C283.955 257.76 283.687 257.531 283.488 257.233C283.289 256.932 283.19 256.568 283.19 256.142C283.19 255.767 283.264 255.463 283.411 255.23C283.559 254.994 283.757 254.81 284.004 254.676C284.251 254.543 284.524 254.443 284.822 254.378C285.123 254.31 285.426 254.256 285.73 254.216C286.127 254.165 286.45 254.126 286.697 254.101C286.947 254.072 287.129 254.026 287.242 253.96C287.359 253.895 287.417 253.781 287.417 253.619V253.585C287.417 253.165 287.302 252.838 287.072 252.605C286.845 252.372 286.499 252.256 286.036 252.256C285.556 252.256 285.18 252.361 284.907 252.571C284.634 252.781 284.443 253.006 284.332 253.244L283.377 252.903C283.548 252.506 283.775 252.196 284.059 251.974C284.346 251.75 284.659 251.594 284.997 251.506C285.338 251.415 285.673 251.369 286.002 251.369C286.213 251.369 286.454 251.395 286.727 251.446C287.002 251.494 287.268 251.595 287.524 251.749C287.782 251.902 287.997 252.134 288.167 252.443C288.338 252.753 288.423 253.168 288.423 253.688V258H287.417V257.114H287.366C287.298 257.256 287.184 257.408 287.025 257.57C286.866 257.732 286.654 257.869 286.39 257.983C286.126 258.097 285.803 258.153 285.423 258.153ZM285.576 257.25C285.974 257.25 286.309 257.172 286.582 257.016C286.857 256.859 287.065 256.658 287.204 256.411C287.346 256.163 287.417 255.903 287.417 255.631V254.71C287.374 254.761 287.281 254.808 287.136 254.851C286.994 254.891 286.829 254.926 286.642 254.957C286.457 254.986 286.276 255.011 286.1 255.034C285.927 255.054 285.786 255.071 285.678 255.085C285.417 255.119 285.173 255.175 284.945 255.251C284.721 255.325 284.539 255.437 284.4 255.588C284.264 255.736 284.195 255.937 284.195 256.193C284.195 256.543 284.325 256.807 284.583 256.986C284.845 257.162 285.176 257.25 285.576 257.25ZM290.395 258V249.273H291.4V252.494H291.486C291.559 252.381 291.662 252.236 291.792 252.06C291.926 251.881 292.116 251.722 292.363 251.582C292.613 251.44 292.952 251.369 293.378 251.369C293.929 251.369 294.415 251.507 294.835 251.783C295.256 252.058 295.584 252.449 295.819 252.955C296.055 253.46 296.173 254.057 296.173 254.744C296.173 255.438 296.055 256.038 295.819 256.547C295.584 257.053 295.257 257.445 294.839 257.723C294.422 257.999 293.94 258.136 293.395 258.136C292.974 258.136 292.638 258.067 292.385 257.928C292.132 257.786 291.937 257.625 291.801 257.446C291.665 257.264 291.559 257.114 291.486 256.994H291.366V258H290.395ZM291.383 254.727C291.383 255.222 291.456 255.658 291.601 256.036C291.746 256.411 291.957 256.705 292.236 256.918C292.514 257.128 292.855 257.233 293.258 257.233C293.679 257.233 294.03 257.122 294.311 256.901C294.595 256.676 294.808 256.375 294.95 255.997C295.095 255.616 295.167 255.193 295.167 254.727C295.167 254.267 295.096 253.852 294.954 253.483C294.815 253.111 294.604 252.817 294.319 252.601C294.038 252.382 293.684 252.273 293.258 252.273C292.849 252.273 292.506 252.376 292.227 252.584C291.949 252.788 291.738 253.075 291.596 253.445C291.454 253.811 291.383 254.239 291.383 254.727ZM298.717 249.273V258H297.711V249.273H298.717ZM303.303 258.136C302.673 258.136 302.129 257.997 301.671 257.719C301.217 257.438 300.866 257.045 300.619 256.543C300.374 256.037 300.252 255.449 300.252 254.778C300.252 254.108 300.374 253.517 300.619 253.006C300.866 252.491 301.21 252.091 301.65 251.804C302.093 251.514 302.61 251.369 303.201 251.369C303.542 251.369 303.879 251.426 304.211 251.54C304.544 251.653 304.846 251.838 305.119 252.094C305.392 252.347 305.609 252.682 305.771 253.099C305.933 253.517 306.014 254.031 306.014 254.642V255.068H300.968V254.199H304.991C304.991 253.83 304.917 253.5 304.769 253.21C304.624 252.92 304.417 252.692 304.147 252.524C303.88 252.357 303.565 252.273 303.201 252.273C302.801 252.273 302.454 252.372 302.161 252.571C301.872 252.767 301.649 253.023 301.492 253.338C301.336 253.653 301.258 253.991 301.258 254.352V254.932C301.258 255.426 301.343 255.845 301.514 256.189C301.687 256.53 301.927 256.79 302.234 256.969C302.541 257.145 302.897 257.233 303.303 257.233C303.568 257.233 303.806 257.196 304.019 257.122C304.235 257.045 304.421 256.932 304.578 256.781C304.734 256.628 304.855 256.437 304.94 256.21L305.911 256.483C305.809 256.812 305.637 257.102 305.396 257.352C305.154 257.599 304.856 257.793 304.501 257.932C304.146 258.068 303.747 258.136 303.303 258.136Z" fill="#D9DDE3"/>
<path fill-rule="evenodd" clip-rule="evenodd" d="M327.471 249.529C327.732 249.789 327.732 250.211 327.471 250.472L319.471 258.472C319.211 258.732 318.789 258.732 318.529 258.472C318.268 258.211 318.268 257.789 318.529 257.529L326.529 249.529C326.789 249.268 327.211 249.268 327.471 249.529Z" fill="#D9DDE3"/>
<path fill-rule="evenodd" clip-rule="evenodd" d="M318.529 249.529C318.789 249.268 319.211 249.268 319.471 249.529L327.471 257.529C327.732 257.789 327.732 258.211 327.471 258.472C327.211 258.732 326.789 258.732 326.529 258.472L318.529 250.472C318.268 250.211 318.268 249.789 318.529 249.529Z" fill="#D9DDE3"/>
<rect x="78" y="270" width="88" height="24" rx="4" fill="#5A697C"/>
<path d="M90.7669 277.273H91.8237V283.511C91.8237 284.068 91.7214 284.541 91.5169 284.93C91.3123 285.32 91.024 285.615 90.6518 285.817C90.2797 286.018 89.8407 286.119 89.335 286.119C88.8578 286.119 88.4331 286.033 88.0609 285.859C87.6887 285.683 87.3961 285.433 87.1831 285.109C86.97 284.786 86.8635 284.401 86.8635 283.955H87.9032C87.9032 284.202 87.9643 284.418 88.0865 284.602C88.2115 284.784 88.3819 284.926 88.5978 285.028C88.8137 285.131 89.0595 285.182 89.335 285.182C89.639 285.182 89.8975 285.118 90.1106 284.99C90.3237 284.862 90.4856 284.675 90.5964 284.428C90.71 284.178 90.7669 283.872 90.7669 283.511V277.273ZM95.7314 286.153C95.3166 286.153 94.9402 286.075 94.6021 285.919C94.264 285.76 93.9956 285.531 93.7967 285.233C93.5978 284.932 93.4984 284.568 93.4984 284.142C93.4984 283.767 93.5723 283.463 93.72 283.23C93.8677 282.994 94.0652 282.81 94.3123 282.676C94.5595 282.543 94.8322 282.443 95.1305 282.378C95.4316 282.31 95.7342 282.256 96.0382 282.216C96.4359 282.165 96.7583 282.126 97.0055 282.101C97.2555 282.072 97.4373 282.026 97.551 281.96C97.6674 281.895 97.7257 281.781 97.7257 281.619V281.585C97.7257 281.165 97.6106 280.838 97.3805 280.605C97.1532 280.372 96.8081 280.256 96.345 280.256C95.8649 280.256 95.4885 280.361 95.2157 280.571C94.943 280.781 94.7512 281.006 94.6404 281.244L93.6859 280.903C93.8564 280.506 94.0836 280.196 94.3677 279.974C94.6547 279.75 94.9672 279.594 95.3052 279.506C95.6461 279.415 95.9814 279.369 96.3109 279.369C96.5211 279.369 96.7626 279.395 97.0353 279.446C97.3109 279.494 97.5765 279.595 97.8322 279.749C98.0907 279.902 98.3052 280.134 98.4757 280.443C98.6461 280.753 98.7314 281.168 98.7314 281.688V286H97.7257V285.114H97.6745C97.6064 285.256 97.4927 285.408 97.3336 285.57C97.1745 285.732 96.9629 285.869 96.6987 285.983C96.4345 286.097 96.112 286.153 95.7314 286.153ZM95.8848 285.25C96.2825 285.25 96.6177 285.172 96.8904 285.016C97.166 284.859 97.3734 284.658 97.5126 284.411C97.6547 284.163 97.7257 283.903 97.7257 283.631V282.71C97.6831 282.761 97.5893 282.808 97.4444 282.851C97.3024 282.891 97.1376 282.926 96.9501 282.957C96.7654 282.986 96.585 283.011 96.4089 283.034C96.2356 283.054 96.095 283.071 95.987 283.085C95.7257 283.119 95.4814 283.175 95.2541 283.251C95.0297 283.325 94.8478 283.437 94.7086 283.588C94.5723 283.736 94.5041 283.937 94.5041 284.193C94.5041 284.543 94.6333 284.807 94.8919 284.986C95.1532 285.162 95.4842 285.25 95.8848 285.25ZM100.567 286V279.455H101.573V286H100.567ZM101.078 278.364C100.882 278.364 100.713 278.297 100.571 278.163C100.432 278.03 100.362 277.869 100.362 277.682C100.362 277.494 100.432 277.334 100.571 277.2C100.713 277.067 100.882 277 101.078 277C101.274 277 101.442 277.067 101.581 277.2C101.723 277.334 101.794 277.494 101.794 277.682C101.794 277.869 101.723 278.03 101.581 278.163C101.442 278.297 101.274 278.364 101.078 278.364ZM104.42 277.273V286H103.415V277.273H104.42ZM106.399 286V277.273H107.404V280.494H107.49C107.563 280.381 107.666 280.236 107.796 280.06C107.93 279.881 108.12 279.722 108.367 279.582C108.617 279.44 108.955 279.369 109.382 279.369C109.933 279.369 110.419 279.507 110.839 279.783C111.259 280.058 111.588 280.449 111.823 280.955C112.059 281.46 112.177 282.057 112.177 282.744C112.177 283.438 112.059 284.038 111.823 284.547C111.588 285.053 111.261 285.445 110.843 285.723C110.426 285.999 109.944 286.136 109.399 286.136C108.978 286.136 108.642 286.067 108.389 285.928C108.136 285.786 107.941 285.625 107.805 285.446C107.669 285.264 107.563 285.114 107.49 284.994H107.37V286H106.399ZM107.387 282.727C107.387 283.222 107.46 283.658 107.605 284.036C107.749 284.411 107.961 284.705 108.24 284.918C108.518 285.128 108.859 285.233 109.262 285.233C109.683 285.233 110.034 285.122 110.315 284.901C110.599 284.676 110.812 284.375 110.954 283.997C111.099 283.616 111.171 283.193 111.171 282.727C111.171 282.267 111.1 281.852 110.958 281.483C110.819 281.111 110.607 280.817 110.323 280.601C110.042 280.382 109.688 280.273 109.262 280.273C108.853 280.273 108.509 280.376 108.231 280.584C107.953 280.788 107.742 281.075 107.6 281.445C107.458 281.811 107.387 282.239 107.387 282.727ZM113.715 286V279.455H114.721V286H113.715ZM114.227 278.364C114.031 278.364 113.862 278.297 113.72 278.163C113.58 278.03 113.511 277.869 113.511 277.682C113.511 277.494 113.58 277.334 113.72 277.2C113.862 277.067 114.031 277 114.227 277C114.423 277 114.59 277.067 114.73 277.2C114.872 277.334 114.943 277.494 114.943 277.682C114.943 277.869 114.872 278.03 114.73 278.163C114.59 278.297 114.423 278.364 114.227 278.364ZM116.563 286V279.455H117.535V280.443H117.603C117.722 280.119 117.938 279.857 118.251 279.655C118.563 279.453 118.915 279.352 119.307 279.352C119.381 279.352 119.474 279.354 119.584 279.357C119.695 279.359 119.779 279.364 119.836 279.369V280.392C119.802 280.384 119.724 280.371 119.601 280.354C119.482 280.334 119.356 280.324 119.222 280.324C118.904 280.324 118.62 280.391 118.37 280.524C118.123 280.655 117.927 280.837 117.782 281.07C117.64 281.3 117.569 281.562 117.569 281.858V286H116.563ZM123.3 286.136C122.755 286.136 122.273 285.999 121.856 285.723C121.438 285.445 121.111 285.053 120.876 284.547C120.64 284.038 120.522 283.438 120.522 282.744C120.522 282.057 120.64 281.46 120.876 280.955C121.111 280.449 121.439 280.058 121.86 279.783C122.28 279.507 122.766 279.369 123.317 279.369C123.743 279.369 124.08 279.44 124.327 279.582C124.577 279.722 124.768 279.881 124.898 280.06C125.032 280.236 125.135 280.381 125.209 280.494H125.295V277.273H126.3V286H125.329V284.994H125.209C125.135 285.114 125.03 285.264 124.894 285.446C124.758 285.625 124.563 285.786 124.31 285.928C124.057 286.067 123.721 286.136 123.3 286.136ZM123.437 285.233C123.84 285.233 124.181 285.128 124.459 284.918C124.738 284.705 124.949 284.411 125.094 284.036C125.239 283.658 125.312 283.222 125.312 282.727C125.312 282.239 125.241 281.811 125.099 281.445C124.956 281.075 124.746 280.788 124.468 280.584C124.189 280.376 123.846 280.273 123.437 280.273C123.01 280.273 122.655 280.382 122.371 280.601C122.09 280.817 121.878 281.111 121.736 281.483C121.597 281.852 121.528 282.267 121.528 282.727C121.528 283.193 121.599 283.616 121.741 283.997C121.885 284.375 122.099 284.676 122.38 284.901C122.664 285.122 123.016 285.233 123.437 285.233ZM132.918 280.92L132.015 281.176C131.958 281.026 131.874 280.879 131.763 280.737C131.655 280.592 131.508 280.473 131.32 280.379C131.133 280.286 130.893 280.239 130.6 280.239C130.199 280.239 129.866 280.331 129.599 280.516C129.334 280.697 129.202 280.929 129.202 281.21C129.202 281.46 129.293 281.658 129.475 281.803C129.657 281.947 129.941 282.068 130.327 282.165L131.299 282.403C131.884 282.545 132.32 282.763 132.607 283.055C132.894 283.345 133.037 283.719 133.037 284.176C133.037 284.551 132.93 284.886 132.714 285.182C132.501 285.477 132.202 285.71 131.819 285.881C131.435 286.051 130.989 286.136 130.481 286.136C129.813 286.136 129.26 285.991 128.823 285.702C128.385 285.412 128.108 284.989 127.992 284.432L128.947 284.193C129.037 284.545 129.209 284.81 129.462 284.986C129.718 285.162 130.052 285.25 130.464 285.25C130.932 285.25 131.305 285.151 131.58 284.952C131.858 284.75 131.998 284.509 131.998 284.227C131.998 284 131.918 283.81 131.759 283.656C131.6 283.5 131.356 283.384 131.026 283.307L129.935 283.051C129.336 282.909 128.895 282.689 128.614 282.391C128.336 282.089 128.197 281.713 128.197 281.261C128.197 280.892 128.3 280.565 128.508 280.281C128.718 279.997 129.003 279.774 129.364 279.612C129.728 279.45 130.14 279.369 130.6 279.369C131.248 279.369 131.756 279.511 132.126 279.795C132.498 280.08 132.762 280.455 132.918 280.92Z" fill="#D9DDE3"/>
<path fill-rule="evenodd" clip-rule="evenodd" d="M154.471 277.529C154.732 277.789 154.732 278.211 154.471 278.472L146.471 286.472C146.211 286.732 145.789 286.732 145.529 286.472C145.268 286.211 145.268 285.789 145.529 285.529L153.529 277.529C153.789 277.268 154.211 277.268 154.471 277.529Z" fill="#D9DDE3"/>
<path fill-rule="evenodd" clip-rule="evenodd" d="M145.529 277.529C145.789 277.268 146.211 277.268 146.471 277.529L154.471 285.529C154.732 285.789 154.732 286.211 154.471 286.472C154.211 286.732 153.789 286.732 153.529 286.472L145.529 278.472C145.268 278.211 145.268 277.789 145.529 277.529Z" fill="#D9DDE3"/>
<rect x="170" y="270" width="179" height="24" rx="4" fill="#5A697C"/>
<path d="M181.697 286.119C181.197 286.119 180.747 286.02 180.346 285.821C179.946 285.622 179.625 285.349 179.383 285.003C179.142 284.656 179.01 284.261 178.987 283.818H180.01C180.049 284.213 180.228 284.54 180.547 284.798C180.868 285.054 181.251 285.182 181.697 285.182C182.055 285.182 182.373 285.098 182.652 284.93C182.933 284.763 183.153 284.533 183.312 284.24C183.474 283.945 183.555 283.611 183.555 283.239C183.555 282.858 183.471 282.518 183.304 282.22C183.139 281.919 182.912 281.682 182.622 281.509C182.332 281.335 182.001 281.247 181.629 281.244C181.362 281.241 181.088 281.283 180.806 281.368C180.525 281.45 180.294 281.557 180.112 281.688L179.123 281.568L179.652 277.273H184.186V278.21H180.538L180.231 280.784H180.282C180.461 280.642 180.686 280.524 180.956 280.43C181.225 280.337 181.507 280.29 181.799 280.29C182.333 280.29 182.809 280.418 183.227 280.673C183.647 280.926 183.977 281.273 184.216 281.713C184.457 282.153 184.578 282.656 184.578 283.222C184.578 283.778 184.453 284.276 184.203 284.713C183.956 285.148 183.615 285.491 183.18 285.744C182.745 285.994 182.251 286.119 181.697 286.119ZM190.856 277.273V286H189.799V277.273H190.856ZM197.475 280.92L196.571 281.176C196.515 281.026 196.431 280.879 196.32 280.737C196.212 280.592 196.064 280.473 195.877 280.379C195.689 280.286 195.449 280.239 195.157 280.239C194.756 280.239 194.422 280.331 194.155 280.516C193.891 280.697 193.759 280.929 193.759 281.21C193.759 281.46 193.85 281.658 194.032 281.803C194.213 281.947 194.498 282.068 194.884 282.165L195.855 282.403C196.441 282.545 196.877 282.763 197.164 283.055C197.451 283.345 197.594 283.719 197.594 284.176C197.594 284.551 197.486 284.886 197.27 285.182C197.057 285.477 196.759 285.71 196.375 285.881C195.992 286.051 195.546 286.136 195.037 286.136C194.37 286.136 193.817 285.991 193.38 285.702C192.942 285.412 192.665 284.989 192.549 284.432L193.503 284.193C193.594 284.545 193.766 284.81 194.019 284.986C194.275 285.162 194.608 285.25 195.02 285.25C195.489 285.25 195.861 285.151 196.137 284.952C196.415 284.75 196.554 284.509 196.554 284.227C196.554 284 196.475 283.81 196.316 283.656C196.157 283.5 195.912 283.384 195.583 283.307L194.492 283.051C193.892 282.909 193.452 282.689 193.171 282.391C192.892 282.089 192.753 281.713 192.753 281.261C192.753 280.892 192.857 280.565 193.064 280.281C193.275 279.997 193.56 279.774 193.921 279.612C194.284 279.45 194.696 279.369 195.157 279.369C195.804 279.369 196.313 279.511 196.682 279.795C197.054 280.08 197.319 280.455 197.475 280.92ZM202.142 278.21V277.273H208.688V278.21H205.943V286H204.886V278.21H202.142ZM211.188 282.062V286H210.182V277.273H211.188V280.477H211.273C211.426 280.139 211.657 279.871 211.963 279.672C212.273 279.47 212.685 279.369 213.199 279.369C213.645 279.369 214.036 279.459 214.371 279.638C214.706 279.814 214.966 280.085 215.151 280.452C215.338 280.815 215.432 281.278 215.432 281.841V286H214.426V281.909C214.426 281.389 214.292 280.987 214.022 280.703C213.755 280.416 213.384 280.273 212.909 280.273C212.58 280.273 212.284 280.342 212.023 280.482C211.765 280.621 211.56 280.824 211.409 281.091C211.262 281.358 211.188 281.682 211.188 282.062ZM220.016 286.136C219.386 286.136 218.842 285.997 218.384 285.719C217.93 285.438 217.579 285.045 217.332 284.543C217.087 284.037 216.965 283.449 216.965 282.778C216.965 282.108 217.087 281.517 217.332 281.006C217.579 280.491 217.923 280.091 218.363 279.804C218.806 279.514 219.323 279.369 219.914 279.369C220.255 279.369 220.592 279.426 220.924 279.54C221.256 279.653 221.559 279.838 221.832 280.094C222.104 280.347 222.322 280.682 222.484 281.099C222.646 281.517 222.727 282.031 222.727 282.642V283.068H217.681V282.199H221.704C221.704 281.83 221.63 281.5 221.482 281.21C221.337 280.92 221.13 280.692 220.86 280.524C220.593 280.357 220.278 280.273 219.914 280.273C219.513 280.273 219.167 280.372 218.874 280.571C218.585 280.767 218.362 281.023 218.205 281.338C218.049 281.653 217.971 281.991 217.971 282.352V282.932C217.971 283.426 218.056 283.845 218.227 284.189C218.4 284.53 218.64 284.79 218.947 284.969C219.254 285.145 219.61 285.233 220.016 285.233C220.281 285.233 220.519 285.196 220.732 285.122C220.948 285.045 221.134 284.932 221.29 284.781C221.447 284.628 221.567 284.437 221.653 284.21L222.624 284.483C222.522 284.812 222.35 285.102 222.109 285.352C221.867 285.599 221.569 285.793 221.214 285.932C220.859 286.068 220.46 286.136 220.016 286.136ZM227.768 286V277.273H230.717C231.401 277.273 231.961 277.396 232.396 277.643C232.833 277.888 233.157 278.219 233.367 278.636C233.577 279.054 233.683 279.52 233.683 280.034C233.683 280.548 233.577 281.016 233.367 281.436C233.16 281.857 232.839 282.192 232.404 282.442C231.969 282.689 231.413 282.812 230.734 282.812H228.62V281.875H230.7C231.168 281.875 231.545 281.794 231.829 281.632C232.113 281.47 232.319 281.251 232.447 280.976C232.577 280.697 232.643 280.384 232.643 280.034C232.643 279.685 232.577 279.372 232.447 279.097C232.319 278.821 232.112 278.605 231.825 278.449C231.538 278.29 231.157 278.21 230.683 278.21H228.825V286H227.768ZM237.923 286.136C237.292 286.136 236.748 285.997 236.29 285.719C235.836 285.438 235.485 285.045 235.238 284.543C234.994 284.037 234.871 283.449 234.871 282.778C234.871 282.108 234.994 281.517 235.238 281.006C235.485 280.491 235.829 280.091 236.269 279.804C236.712 279.514 237.229 279.369 237.82 279.369C238.161 279.369 238.498 279.426 238.83 279.54C239.163 279.653 239.465 279.838 239.738 280.094C240.011 280.347 240.228 280.682 240.39 281.099C240.552 281.517 240.633 282.031 240.633 282.642V283.068H235.587V282.199H239.61C239.61 281.83 239.536 281.5 239.388 281.21C239.244 280.92 239.036 280.692 238.766 280.524C238.499 280.357 238.184 280.273 237.82 280.273C237.42 280.273 237.073 280.372 236.781 280.571C236.491 280.767 236.268 281.023 236.112 281.338C235.955 281.653 235.877 281.991 235.877 282.352V282.932C235.877 283.426 235.962 283.845 236.133 284.189C236.306 284.53 236.546 284.79 236.853 284.969C237.16 285.145 237.516 285.233 237.923 285.233C238.187 285.233 238.425 285.196 238.638 285.122C238.854 285.045 239.04 284.932 239.197 284.781C239.353 284.628 239.474 284.437 239.559 284.21L240.531 284.483C240.428 284.812 240.256 285.102 240.015 285.352C239.773 285.599 239.475 285.793 239.12 285.932C238.765 286.068 238.366 286.136 237.923 286.136ZM242.163 286V279.455H243.134V280.443H243.202C243.322 280.119 243.538 279.857 243.85 279.655C244.163 279.453 244.515 279.352 244.907 279.352C244.981 279.352 245.073 279.354 245.184 279.357C245.295 279.359 245.379 279.364 245.435 279.369V280.392C245.401 280.384 245.323 280.371 245.201 280.354C245.082 280.334 244.955 280.324 244.822 280.324C244.504 280.324 244.219 280.391 243.969 280.524C243.722 280.655 243.526 280.837 243.381 281.07C243.239 281.3 243.168 281.562 243.168 281.858V286H242.163ZM249.952 279.455V280.307H246.424V279.455H249.952ZM247.481 286V278.551C247.481 278.176 247.569 277.864 247.745 277.614C247.921 277.364 248.15 277.176 248.431 277.051C248.712 276.926 249.009 276.864 249.322 276.864C249.569 276.864 249.771 276.884 249.927 276.923C250.083 276.963 250.2 277 250.276 277.034L249.987 277.903C249.935 277.886 249.864 277.865 249.773 277.839C249.685 277.814 249.569 277.801 249.424 277.801C249.092 277.801 248.852 277.885 248.704 278.053C248.559 278.22 248.487 278.466 248.487 278.79V286H247.481ZM253.837 286.136C253.206 286.136 252.662 285.997 252.205 285.719C251.75 285.438 251.399 285.045 251.152 284.543C250.908 284.037 250.786 283.449 250.786 282.778C250.786 282.108 250.908 281.517 251.152 281.006C251.399 280.491 251.743 280.091 252.183 279.804C252.626 279.514 253.143 279.369 253.734 279.369C254.075 279.369 254.412 279.426 254.744 279.54C255.077 279.653 255.379 279.838 255.652 280.094C255.925 280.347 256.142 280.682 256.304 281.099C256.466 281.517 256.547 282.031 256.547 282.642V283.068H251.501V282.199H255.524C255.524 281.83 255.45 281.5 255.303 281.21C255.158 280.92 254.95 280.692 254.68 280.524C254.413 280.357 254.098 280.273 253.734 280.273C253.334 280.273 252.987 280.372 252.695 280.571C252.405 280.767 252.182 281.023 252.026 281.338C251.869 281.653 251.791 281.991 251.791 282.352V282.932C251.791 283.426 251.876 283.845 252.047 284.189C252.22 284.53 252.46 284.79 252.767 284.969C253.074 285.145 253.43 285.233 253.837 285.233C254.101 285.233 254.339 285.196 254.553 285.122C254.768 285.045 254.955 284.932 255.111 284.781C255.267 284.628 255.388 284.437 255.473 284.21L256.445 284.483C256.342 284.812 256.17 285.102 255.929 285.352C255.688 285.599 255.389 285.793 255.034 285.932C254.679 286.068 254.28 286.136 253.837 286.136ZM260.736 286.136C260.122 286.136 259.594 285.991 259.151 285.702C258.707 285.412 258.366 285.013 258.128 284.504C257.889 283.996 257.77 283.415 257.77 282.761C257.77 282.097 257.892 281.51 258.136 281.001C258.384 280.49 258.727 280.091 259.168 279.804C259.611 279.514 260.128 279.369 260.719 279.369C261.179 279.369 261.594 279.455 261.963 279.625C262.332 279.795 262.635 280.034 262.871 280.341C263.107 280.648 263.253 281.006 263.31 281.415H262.304C262.227 281.116 262.057 280.852 261.793 280.622C261.531 280.389 261.179 280.273 260.736 280.273C260.344 280.273 260 280.375 259.705 280.58C259.412 280.781 259.183 281.067 259.018 281.436C258.857 281.803 258.776 282.233 258.776 282.727C258.776 283.233 258.855 283.673 259.014 284.048C259.176 284.423 259.403 284.714 259.696 284.922C259.991 285.129 260.338 285.233 260.736 285.233C260.997 285.233 261.234 285.188 261.447 285.097C261.661 285.006 261.841 284.875 261.989 284.705C262.136 284.534 262.241 284.33 262.304 284.091H263.31C263.253 284.477 263.112 284.825 262.888 285.135C262.666 285.442 262.372 285.686 262.006 285.868C261.642 286.047 261.219 286.136 260.736 286.136ZM267.626 279.455V280.307H264.234V279.455H267.626ZM265.223 277.886H266.229V284.125C266.229 284.409 266.27 284.622 266.352 284.764C266.438 284.903 266.545 284.997 266.676 285.045C266.81 285.091 266.95 285.114 267.098 285.114C267.209 285.114 267.3 285.108 267.371 285.097C267.442 285.082 267.499 285.071 267.541 285.062L267.746 285.966C267.678 285.991 267.582 286.017 267.46 286.043C267.338 286.071 267.183 286.085 266.996 286.085C266.712 286.085 266.433 286.024 266.161 285.902C265.891 285.78 265.666 285.594 265.487 285.344C265.311 285.094 265.223 284.778 265.223 284.398V277.886ZM279.571 277.273V286H278.548L273.793 279.148H273.707V286H272.651V277.273H273.673L278.446 284.142H278.531V277.273H279.571ZM285.674 283.324V279.455H286.68V286H285.674V284.892H285.606C285.453 285.224 285.214 285.507 284.89 285.74C284.566 285.97 284.157 286.085 283.663 286.085C283.254 286.085 282.89 285.996 282.572 285.817C282.254 285.635 282.004 285.362 281.822 284.999C281.64 284.632 281.549 284.17 281.549 283.614V279.455H282.555V283.545C282.555 284.023 282.689 284.403 282.956 284.688C283.225 284.972 283.569 285.114 283.987 285.114C284.237 285.114 284.491 285.05 284.75 284.922C285.011 284.794 285.23 284.598 285.406 284.334C285.585 284.07 285.674 283.733 285.674 283.324ZM288.522 286V279.455H289.494V280.477H289.579C289.715 280.128 289.935 279.857 290.239 279.663C290.543 279.467 290.908 279.369 291.335 279.369C291.766 279.369 292.126 279.467 292.413 279.663C292.702 279.857 292.928 280.128 293.09 280.477H293.158C293.326 280.139 293.577 279.871 293.913 279.672C294.248 279.47 294.65 279.369 295.119 279.369C295.704 279.369 296.183 279.553 296.555 279.919C296.927 280.283 297.113 280.849 297.113 281.619V286H296.107V281.619C296.107 281.136 295.975 280.791 295.711 280.584C295.447 280.376 295.136 280.273 294.778 280.273C294.317 280.273 293.961 280.412 293.708 280.69C293.455 280.966 293.329 281.315 293.329 281.739V286H292.306V281.517C292.306 281.145 292.185 280.845 291.944 280.618C291.702 280.388 291.391 280.273 291.011 280.273C290.749 280.273 290.505 280.342 290.278 280.482C290.053 280.621 289.871 280.814 289.732 281.061C289.596 281.305 289.528 281.588 289.528 281.909V286H288.522ZM299.088 286V277.273H300.094V280.494H300.179C300.253 280.381 300.355 280.236 300.486 280.06C300.619 279.881 300.81 279.722 301.057 279.582C301.307 279.44 301.645 279.369 302.071 279.369C302.622 279.369 303.108 279.507 303.528 279.783C303.949 280.058 304.277 280.449 304.513 280.955C304.749 281.46 304.866 282.057 304.866 282.744C304.866 283.438 304.749 284.038 304.513 284.547C304.277 285.053 303.95 285.445 303.533 285.723C303.115 285.999 302.634 286.136 302.088 286.136C301.668 286.136 301.331 286.067 301.078 285.928C300.825 285.786 300.631 285.625 300.494 285.446C300.358 285.264 300.253 285.114 300.179 284.994H300.06V286H299.088ZM300.077 282.727C300.077 283.222 300.149 283.658 300.294 284.036C300.439 284.411 300.651 284.705 300.929 284.918C301.207 285.128 301.548 285.233 301.952 285.233C302.372 285.233 302.723 285.122 303.004 284.901C303.288 284.676 303.501 284.375 303.643 283.997C303.788 283.616 303.861 283.193 303.861 282.727C303.861 282.267 303.79 281.852 303.648 281.483C303.509 281.111 303.297 280.817 303.013 280.601C302.732 280.382 302.378 280.273 301.952 280.273C301.543 280.273 301.199 280.376 300.92 280.584C300.642 280.788 300.432 281.075 300.29 281.445C300.148 281.811 300.077 282.239 300.077 282.727ZM309.149 286.136C308.518 286.136 307.974 285.997 307.517 285.719C307.062 285.438 306.712 285.045 306.464 284.543C306.22 284.037 306.098 283.449 306.098 282.778C306.098 282.108 306.22 281.517 306.464 281.006C306.712 280.491 307.055 280.091 307.496 279.804C307.939 279.514 308.456 279.369 309.047 279.369C309.388 279.369 309.724 279.426 310.057 279.54C310.389 279.653 310.692 279.838 310.964 280.094C311.237 280.347 311.455 280.682 311.616 281.099C311.778 281.517 311.859 282.031 311.859 282.642V283.068H306.814V282.199H310.837C310.837 281.83 310.763 281.5 310.615 281.21C310.47 280.92 310.263 280.692 309.993 280.524C309.726 280.357 309.411 280.273 309.047 280.273C308.646 280.273 308.3 280.372 308.007 280.571C307.717 280.767 307.494 281.023 307.338 281.338C307.182 281.653 307.104 281.991 307.104 282.352V282.932C307.104 283.426 307.189 283.845 307.359 284.189C307.533 284.53 307.773 284.79 308.08 284.969C308.386 285.145 308.743 285.233 309.149 285.233C309.413 285.233 309.652 285.196 309.865 285.122C310.081 285.045 310.267 284.932 310.423 284.781C310.58 284.628 310.7 284.437 310.786 284.21L311.757 284.483C311.655 284.812 311.483 285.102 311.241 285.352C311 285.599 310.702 285.793 310.347 285.932C309.991 286.068 309.592 286.136 309.149 286.136ZM313.389 286V279.455H314.361V280.443H314.429C314.548 280.119 314.764 279.857 315.077 279.655C315.389 279.453 315.741 279.352 316.134 279.352C316.207 279.352 316.3 279.354 316.411 279.357C316.521 279.359 316.605 279.364 316.662 279.369V280.392C316.628 280.384 316.55 280.371 316.428 280.354C316.308 280.334 316.182 280.324 316.048 280.324C315.73 280.324 315.446 280.391 315.196 280.524C314.949 280.655 314.753 280.837 314.608 281.07C314.466 281.3 314.395 281.562 314.395 281.858V286H313.389Z" fill="#D9DDE3"/>
<path fill-rule="evenodd" clip-rule="evenodd" d="M337.471 277.529C337.732 277.789 337.732 278.211 337.471 278.472L329.471 286.472C329.211 286.732 328.789 286.732 328.529 286.472C328.268 286.211 328.268 285.789 328.529 285.529L336.529 277.529C336.789 277.268 337.211 277.268 337.471 277.529Z" fill="#D9DDE3"/>
<path fill-rule="evenodd" clip-rule="evenodd" d="M328.529 277.529C328.789 277.268 329.211 277.268 329.471 277.529L337.471 285.529C337.732 285.789 337.732 286.211 337.471 286.472C337.211 286.732 336.789 286.732 336.529 286.472L328.529 278.472C328.268 278.211 328.268 277.789 328.529 277.529Z" fill="#D9DDE3"/>
<rect x="0.5" y="0.5" width="507" height="329" rx="4.5" stroke="#9747FF" stroke-dasharray="10 5"/>
</svg>
