<svg width="88" height="88" viewBox="0 0 88 88" fill="none" xmlns="http://www.w3.org/2000/svg">
<rect width="88" height="88" rx="16" fill="#79E2F2" fill-opacity="0.3"/>
<g opacity="0.7" clip-path="url(#clip0_4647_181124)">
<path fill-rule="evenodd" clip-rule="evenodd" d="M44 41.3333C42.5272 41.3333 41.3333 42.5272 41.3333 44C41.3333 45.4728 42.5272 46.6667 44 46.6667C45.4728 46.6667 46.6667 45.4728 46.6667 44C46.6667 42.5272 45.4728 41.3333 44 41.3333ZM38.6667 44C38.6667 41.0545 41.0545 38.6667 44 38.6667C46.9455 38.6667 49.3333 41.0545 49.3333 44C49.3333 46.9455 46.9455 49.3333 44 49.3333C41.0545 49.3333 38.6667 46.9455 38.6667 44Z" fill="#D9DDE3"/>
<path fill-rule="evenodd" clip-rule="evenodd" d="M44 30.6667C43.6464 30.6667 43.3072 30.8071 43.0572 31.0572C42.8071 31.3072 42.6667 31.6464 42.6667 32V32.232C42.6639 32.9211 42.4597 33.5943 42.0793 34.1688C41.6988 34.7433 41.1586 35.1941 40.5252 35.4655C40.4125 35.5138 40.2939 35.5463 40.1728 35.5621C39.5973 35.7636 38.9778 35.8133 38.3747 35.7039C37.68 35.578 37.039 35.2468 36.5343 34.7532L36.5238 34.7429L36.4439 34.6628C36.32 34.5388 36.1725 34.44 36.0106 34.3729C35.8487 34.3058 35.6752 34.2712 35.5 34.2712C35.3248 34.2712 35.1513 34.3058 34.9894 34.3729C34.8275 34.44 34.6805 34.5383 34.5567 34.6623L34.5556 34.6633C34.4316 34.7872 34.3333 34.9342 34.2662 35.0961C34.1991 35.2579 34.1646 35.4314 34.1646 35.6067C34.1646 35.7819 34.1991 35.9554 34.2662 36.1173C34.3333 36.2791 34.4316 36.4262 34.5556 36.55L34.6465 36.6409C35.1402 37.1456 35.4713 37.7867 35.5973 38.4813C35.7207 39.1622 35.6415 39.864 35.3699 40.4997C35.1225 41.1484 34.6893 41.7102 34.1241 42.1145C33.5474 42.527 32.86 42.7564 32.1512 42.773L32.12 42.7733H32C31.6464 42.7733 31.3072 42.9138 31.0572 43.1639C30.8071 43.4139 30.6667 43.753 30.6667 44.1067C30.6667 44.4603 30.8071 44.7994 31.0572 45.0495C31.3072 45.2995 31.6464 45.44 32 45.44H32.232C32.9211 45.4427 33.5943 45.6469 34.1688 46.0274C34.7413 46.4066 35.1909 46.9443 35.4627 47.5748C35.7454 48.219 35.8295 48.933 35.7039 49.6253C35.578 50.32 35.2468 50.961 34.7532 51.4657L34.7429 51.4762L34.6628 51.5561C34.5388 51.68 34.44 51.8275 34.3729 51.9894C34.3058 52.1513 34.2712 52.3248 34.2712 52.5C34.2712 52.6752 34.3058 52.8487 34.3729 53.0106C34.44 53.1725 34.5383 53.3195 34.6623 53.4433L34.6633 53.4444C34.7872 53.5683 34.9342 53.6667 35.0961 53.7338C35.2579 53.8009 35.4314 53.8354 35.6067 53.8354C35.7819 53.8354 35.9554 53.8009 36.1173 53.7338C36.2791 53.6667 36.4262 53.5683 36.55 53.4444L36.6409 53.3535C37.1456 52.8598 37.7867 52.5287 38.4813 52.4027C39.1622 52.2793 39.8639 52.3585 40.4997 52.6301C41.1484 52.8775 41.7102 53.3107 42.1145 53.8759C42.527 54.4526 42.7564 55.14 42.773 55.8488L42.7733 55.88V56C42.7733 56.3536 42.9138 56.6928 43.1639 56.9428C43.4139 57.1929 43.753 57.3333 44.1067 57.3333C44.4603 57.3333 44.7994 57.1929 45.0495 56.9428C45.2995 56.6928 45.44 56.3536 45.44 56V55.7733L45.44 55.768C45.4428 55.0789 45.6469 54.4057 46.0274 53.8312C46.4066 53.2586 46.9444 52.809 47.575 52.5373C48.2191 52.2545 48.9331 52.1705 49.6253 52.2961C50.32 52.422 50.961 52.7532 51.4657 53.2468L51.4762 53.2571L51.5561 53.3372C51.68 53.4612 51.8276 53.56 51.9894 53.6271C52.1513 53.6942 52.3248 53.7288 52.5 53.7288C52.6752 53.7288 52.8487 53.6942 53.0106 53.6271C53.1725 53.56 53.3195 53.4617 53.4433 53.3377L53.4444 53.3367C53.5684 53.2128 53.6667 53.0658 53.7338 52.9039C53.8009 52.7421 53.8354 52.5686 53.8354 52.3933C53.8354 52.2181 53.8009 52.0446 53.7338 51.8827C53.6667 51.7209 53.5683 51.5738 53.4444 51.45L53.3535 51.3591C52.8598 50.8544 52.5287 50.2133 52.4027 49.5187C52.2772 48.8264 52.3612 48.1125 52.6439 47.4683C52.9157 46.8377 53.3653 46.2999 53.9378 45.9207C54.5124 45.5403 55.1856 45.3361 55.8747 45.3333L55.88 45.3333L56 45.3333C56.3536 45.3333 56.6928 45.1929 56.9428 44.9428C57.1929 44.6928 57.3333 44.3536 57.3333 44C57.3333 43.6464 57.1929 43.3072 56.9428 43.0572C56.6928 42.8071 56.3536 42.6667 56 42.6667H55.7733L55.768 42.6667C55.0789 42.6639 54.4057 42.4597 53.8312 42.0793C53.2567 41.6988 52.8059 41.1586 52.5345 40.5252C52.4862 40.4125 52.4537 40.2939 52.4379 40.1728C52.2364 39.5973 52.1867 38.9778 52.2961 38.3747C52.422 37.68 52.7532 37.039 53.2468 36.5343L53.2571 36.5238L53.3372 36.4439C53.4612 36.32 53.56 36.1724 53.6271 36.0106C53.6942 35.8487 53.7288 35.6752 53.7288 35.5C53.7288 35.3248 53.6942 35.1513 53.6271 34.9894C53.56 34.8276 53.4617 34.6805 53.3377 34.5567L53.3367 34.5556C53.2128 34.4316 53.0658 34.3333 52.9039 34.2662C52.7421 34.1991 52.5686 34.1646 52.3933 34.1646C52.2181 34.1646 52.0446 34.1991 51.8827 34.2662C51.7209 34.3333 51.5738 34.4317 51.45 34.5556L51.3591 34.6465C50.8544 35.1402 50.2133 35.4713 49.5187 35.5973C48.8263 35.7228 48.1123 35.6388 47.4682 35.356C46.8376 35.0843 46.2999 34.6347 45.9207 34.0622C45.5403 33.4876 45.3361 32.8144 45.3333 32.1253L45.3333 32.12V32C45.3333 31.6464 45.1929 31.3072 44.9428 31.0572C44.6928 30.8071 44.3536 30.6667 44 30.6667ZM53.8667 48L55.0865 48.5384C55.0166 48.6968 54.9957 48.8725 55.0266 49.0429C55.0572 49.2114 55.1369 49.3671 55.2558 49.4902L55.329 49.5633C55.3288 49.5632 55.3291 49.5635 55.329 49.5633C55.7006 49.9347 55.996 50.3762 56.1972 50.8616C56.3985 51.3472 56.5021 51.8677 56.5021 52.3933C56.5021 52.919 56.3985 53.4395 56.1972 53.9251C55.9959 54.4107 55.7009 54.8518 55.329 55.2233L54.3867 54.28L55.33 55.2223C54.9585 55.5942 54.5174 55.8892 54.0318 56.0905C53.5462 56.2918 53.0257 56.3954 52.5 56.3954C51.9743 56.3954 51.4538 56.2918 50.9682 56.0905C50.4829 55.8893 50.0419 55.5945 49.6705 55.2228C49.6703 55.2226 49.6707 55.223 49.6705 55.2228L49.5969 55.1492C49.4737 55.0303 49.3181 54.9505 49.1496 54.9199C48.9792 54.889 48.8034 54.9099 48.645 54.9798L48.6319 54.9856C48.4766 55.0522 48.3441 55.1627 48.2507 55.3036C48.1578 55.444 48.1077 55.6083 48.1067 55.7767V56C48.1067 57.0609 47.6852 58.0783 46.9351 58.8284C46.1849 59.5786 45.1675 60 44.1067 60C43.0458 60 42.0284 59.5786 41.2782 58.8284C40.5281 58.0783 40.1067 57.0609 40.1067 56V55.8992C40.1003 55.7296 40.0444 55.5654 39.9455 55.4273C39.8444 55.2858 39.703 55.1781 39.5398 55.118C39.5134 55.1084 39.4873 55.0978 39.4616 55.0865C39.3032 55.0166 39.1275 54.9957 38.9571 55.0266C38.7886 55.0572 38.6329 55.137 38.5097 55.2559L38.4367 55.329C38.4365 55.3291 38.4368 55.3288 38.4367 55.329C38.0653 55.7006 37.6238 55.996 37.1384 56.1972C36.6528 56.3985 36.1323 56.5021 35.6067 56.5021C35.081 56.5021 34.5605 56.3985 34.0749 56.1972C33.5898 55.9961 33.149 55.7014 32.7777 55.33C32.4058 54.9585 32.1108 54.5174 31.9095 54.0318C31.7082 53.5462 31.6046 53.0257 31.6046 52.5C31.6046 51.9743 31.7082 51.4538 31.9095 50.9682C32.1108 50.4826 32.4058 50.0415 32.7777 49.67L32.8508 49.5969C32.9697 49.4737 33.0495 49.3181 33.0801 49.1496C33.111 48.9792 33.0901 48.8034 33.0202 48.645L33.0144 48.6319C32.9478 48.4766 32.8373 48.3441 32.6964 48.2507C32.5561 48.1578 32.3917 48.1077 32.2233 48.1067H32C30.9391 48.1067 29.9217 47.6852 29.1716 46.9351C28.4214 46.1849 28 45.1675 28 44.1067C28 43.0458 28.4214 42.0284 29.1716 41.2782C29.9217 40.5281 30.9391 40.1067 32 40.1067H32.1009C32.2704 40.1003 32.4346 40.0444 32.5727 39.9455C32.7142 39.8444 32.8219 39.703 32.882 39.5398C32.8916 39.5134 32.9022 39.4873 32.9135 39.4616C32.9834 39.3032 33.0043 39.1275 32.9734 38.9571C32.9428 38.7886 32.863 38.6329 32.7441 38.5097L32.671 38.4367C32.2991 38.0652 32.0041 37.624 31.8028 37.1384C31.6015 36.6528 31.4979 36.1323 31.4979 35.6067C31.4979 35.081 31.6015 34.5605 31.8028 34.0749C32.004 33.5895 32.2989 33.1486 32.6705 32.7772C33.0419 32.4055 33.4829 32.1107 33.9682 31.9095C34.4538 31.7082 34.9743 31.6046 35.5 31.6046C36.0257 31.6046 36.5462 31.7082 37.0318 31.9095C37.5174 32.1108 37.9585 32.4058 38.33 32.7777L38.4031 32.8508C38.5262 32.9697 38.6819 33.0495 38.8504 33.0801C39.0208 33.111 39.1966 33.0901 39.355 33.0202C39.4404 32.9825 39.5292 32.954 39.6201 32.935C39.7131 32.8719 39.7933 32.791 39.8559 32.6964C39.9489 32.5561 39.9989 32.3917 40 32.2233V32C40 30.9391 40.4214 29.9217 41.1716 29.1716C41.9217 28.4214 42.9391 28 44 28C45.0609 28 46.0783 28.4214 46.8284 29.1716C47.5786 29.9217 48 30.9391 48 32V32.1167C48.0011 32.285 48.0511 32.4494 48.1441 32.5898C48.2374 32.7307 48.3699 32.8412 48.5252 32.9078L48.5384 32.9134C48.6968 32.9834 48.8725 33.0043 49.0429 32.9734C49.2114 32.9428 49.3671 32.863 49.4902 32.7441L49.5633 32.671C49.9348 32.2991 50.376 32.0041 50.8616 31.8028C51.3472 31.6015 51.8677 31.4979 52.3933 31.4979C52.919 31.4979 53.4395 31.6015 53.9251 31.8028C54.4107 32.0041 54.8518 32.2991 55.2233 32.671C55.5947 33.0423 55.8894 33.4831 56.0905 33.9682C56.2918 34.4538 56.3954 34.9743 56.3954 35.5C56.3954 36.0257 56.2918 36.5462 56.0905 37.0318C55.8893 37.5171 55.5945 37.9581 55.2228 38.3295C55.2226 38.3296 55.223 38.3293 55.2228 38.3295L55.1492 38.4031C55.0303 38.5262 54.9505 38.6819 54.9199 38.8504C54.889 39.0208 54.9099 39.1966 54.9798 39.355C55.0175 39.4404 55.046 39.5292 55.065 39.6201C55.1281 39.7131 55.209 39.7933 55.3036 39.8559C55.444 39.9489 55.6083 39.9989 55.7767 40H56C57.0609 40 58.0783 40.4214 58.8284 41.1716C59.5786 41.9217 60 42.9391 60 44C60 45.0609 59.5786 46.0783 58.8284 46.8284C58.0783 47.5786 57.0609 48 56 48H55.8833C55.715 48.0011 55.5506 48.0511 55.4102 48.1441C55.2693 48.2374 55.1588 48.3699 55.0922 48.5252L53.8667 48Z" fill="#D9DDE3"/>
</g>
<defs>
<clipPath id="clip0_4647_181124">
<rect width="32" height="32" fill="white" transform="translate(28 28)"/>
</clipPath>
</defs>
</svg>
