<svg width="64" height="34" viewBox="0 0 64 34" fill="none" xmlns="http://www.w3.org/2000/svg">
<rect x="0.375" y="0.375" width="63.25" height="33.25" rx="16.625" fill="#202328" fill-opacity="0.4" stroke="#10ACBF" stroke-width="0.75"/>
<rect x="6.15381" y="4.85742" width="24.6154" height="24.2857" rx="12.1429" fill="#10ACBF"/>
<path d="M24.6153 21.4668C24.6153 21.6195 24.5624 21.7517 24.4564 21.8632C24.3505 21.9748 24.2251 22.0306 24.0802 22.0306H20.2173C20.2229 22.1304 20.2396 22.3874 20.2675 22.8014C20.2954 23.2154 20.3093 23.534 20.3093 23.7572C20.3093 23.904 20.2591 24.0288 20.1588 24.1316C20.0585 24.2343 19.9386 24.2857 19.7993 24.2857H17.1237C16.9843 24.2857 16.8645 24.2343 16.7641 24.1316C16.6638 24.0288 16.6136 23.904 16.6136 23.7572C16.6136 23.534 16.6276 23.2154 16.6554 22.8014C16.6833 22.3874 16.7 22.1304 16.7056 22.0306H12.8427C12.6978 22.0306 12.5724 21.9748 12.4665 21.8632C12.3606 21.7517 12.3076 21.6195 12.3076 21.4668C12.3076 21.3141 12.3606 21.182 12.4665 21.0704L15.8277 17.5204H13.913C13.768 17.5204 13.6426 17.4646 13.5367 17.353C13.4308 17.2415 13.3779 17.1093 13.3779 16.9566C13.3779 16.8039 13.4308 16.6718 13.5367 16.5602L16.8979 13.0102H15.2508C15.1058 13.0102 14.9804 12.9544 14.8745 12.8428C14.7686 12.7313 14.7156 12.5991 14.7156 12.4464C14.7156 12.2937 14.7686 12.1616 14.8745 12.05L18.0852 8.66737C18.1911 8.55579 18.3165 8.5 18.4615 8.5C18.6064 8.5 18.7318 8.55579 18.8377 8.66737L22.0484 12.05C22.1543 12.1616 22.2073 12.2937 22.2073 12.4464C22.2073 12.5991 22.1543 12.7313 22.0484 12.8428C21.9425 12.9544 21.8171 13.0102 21.6722 13.0102H20.025L23.3862 16.5602C23.4921 16.6718 23.5451 16.8039 23.5451 16.9566C23.5451 17.1093 23.4921 17.2415 23.3862 17.353C23.2803 17.4646 23.1549 17.5204 23.01 17.5204H21.0952L24.4564 21.0704C24.5624 21.182 24.6153 21.3141 24.6153 21.4668Z" fill="#202328"/>
<path d="M45.8462 8.5C47.4518 8.5 48.171 9.79139 48.171 11.5357V18.7607H48.8975C49.2971 18.7607 49.624 18.4055 49.624 17.9714V13.2357C49.624 13.0264 49.7006 12.8256 49.8368 12.6776C49.9731 12.5296 50.1578 12.4464 50.3505 12.4464C50.5432 12.4464 50.728 12.5296 50.8642 12.6776C51.0005 12.8256 51.077 13.0264 51.077 13.2357V17.9714C51.077 18.5994 50.8474 19.2017 50.4387 19.6458C50.0299 20.0898 49.4756 20.3393 48.8975 20.3393H48.171V22.7071H49.624V24.2857H42.0685V22.7071H43.5215V17.9714H42.795C42.2169 17.9714 41.6626 17.722 41.2538 17.2779C40.8451 16.8338 40.6155 16.2316 40.6155 15.6036V14.025C40.6155 13.8157 40.692 13.6149 40.8283 13.4669C40.9645 13.3189 41.1493 13.2357 41.342 13.2357C41.5347 13.2357 41.7194 13.3189 41.8557 13.4669C41.9919 13.6149 42.0685 13.8157 42.0685 14.025V15.6036C42.0685 16.0377 42.3954 16.3929 42.795 16.3929H43.5215V11.5357C43.5215 9.79139 44.2407 8.5 45.8462 8.5Z" fill="#10ACBF"/>
</svg>
