<svg width="409" height="191" viewBox="0 0 409 191" fill="none" xmlns="http://www.w3.org/2000/svg">
<path d="M67.6761 35.9119V34.8182H75.3125V35.9119H72.1108V45H70.8778V35.9119H67.6761ZM78.2644 45.179C77.7805 45.179 77.3413 45.0878 76.9469 44.9055C76.5525 44.7199 76.2393 44.4531 76.0073 44.1051C75.7753 43.7538 75.6593 43.3295 75.6593 42.8324C75.6593 42.3949 75.7454 42.0402 75.9178 41.7685C76.0901 41.4934 76.3205 41.2779 76.6088 41.1222C76.8972 40.9664 77.2154 40.8504 77.5634 40.7741C77.9147 40.6946 78.2677 40.6316 78.6223 40.5852C79.0864 40.5256 79.4625 40.4808 79.7509 40.451C80.0426 40.4179 80.2547 40.3632 80.3873 40.2869C80.5231 40.2107 80.5911 40.0781 80.5911 39.8892V39.8494C80.5911 39.3589 80.4569 38.9777 80.1884 38.706C79.9232 38.4342 79.5205 38.2983 78.9803 38.2983C78.4202 38.2983 77.981 38.4209 77.6628 38.6662C77.3446 38.9115 77.1209 39.1733 76.9917 39.4517L75.878 39.054C76.0769 38.59 76.342 38.2287 76.6735 37.9702C77.0082 37.7083 77.3728 37.526 77.7672 37.4233C78.165 37.3172 78.556 37.2642 78.9405 37.2642C79.1858 37.2642 79.4675 37.294 79.7857 37.3537C80.1072 37.41 80.4171 37.5277 80.7154 37.7067C81.017 37.8857 81.2672 38.1558 81.4661 38.517C81.665 38.8783 81.7644 39.3622 81.7644 39.9688V45H80.5911V43.9659H80.5314C80.4519 44.1316 80.3193 44.3089 80.1337 44.4979C79.9481 44.6868 79.7012 44.8475 79.3929 44.9801C79.0847 45.1127 78.7085 45.179 78.2644 45.179ZM78.4434 44.125C78.9074 44.125 79.2985 44.0339 79.6167 43.8516C79.9382 43.6693 80.1801 43.4339 80.3425 43.1456C80.5082 42.8572 80.5911 42.554 80.5911 42.2358V41.1619C80.5414 41.2216 80.432 41.2763 80.263 41.326C80.0972 41.3724 79.905 41.4138 79.6863 41.4503C79.4708 41.4834 79.2604 41.5133 79.0549 41.5398C78.8527 41.563 78.6886 41.5829 78.5627 41.5994C78.2578 41.6392 77.9727 41.7038 77.7076 41.7933C77.4457 41.8795 77.2336 42.0104 77.0712 42.1861C76.9121 42.3584 76.8326 42.5937 76.8326 42.892C76.8326 43.2997 76.9834 43.608 77.285 43.8168C77.5899 44.0223 77.976 44.125 78.4434 44.125ZM84.065 45V34.8182H85.2383V38.5767H85.3377C85.4239 38.4441 85.5432 38.2751 85.6957 38.0696C85.8514 37.8608 86.0735 37.6752 86.3619 37.5128C86.6535 37.3471 87.0479 37.2642 87.5451 37.2642C88.1881 37.2642 88.7549 37.425 89.2454 37.7464C89.7359 38.0679 90.1187 38.5237 90.3938 39.1136C90.6689 39.7036 90.8065 40.3996 90.8065 41.2017C90.8065 42.0104 90.6689 42.7114 90.3938 43.3047C90.1187 43.8946 89.7376 44.352 89.2504 44.6768C88.7631 44.9983 88.2013 45.1591 87.565 45.1591C87.0745 45.1591 86.6817 45.0779 86.3867 44.9155C86.0917 44.7498 85.8647 44.5625 85.7056 44.3537C85.5465 44.1416 85.4239 43.9659 85.3377 43.8267H85.1985V45H84.065ZM85.2184 41.1818C85.2184 41.7585 85.3029 42.2673 85.4719 42.7081C85.641 43.1456 85.8879 43.4886 86.2127 43.7372C86.5375 43.9825 86.9353 44.1051 87.4059 44.1051C87.8964 44.1051 88.3058 43.9759 88.6339 43.7173C88.9653 43.4555 89.2139 43.1042 89.3796 42.6634C89.5487 42.2192 89.6332 41.7254 89.6332 41.1818C89.6332 40.6449 89.5503 40.161 89.3846 39.7301C89.2222 39.2959 88.9753 38.9529 88.6438 38.701C88.3157 38.4458 87.9031 38.3182 87.4059 38.3182C86.9286 38.3182 86.5276 38.4392 86.2028 38.6811C85.878 38.9197 85.6327 39.2545 85.467 39.6854C85.3013 40.1129 85.2184 40.6117 85.2184 41.1818Z" fill="#98A2AE"/>
<path fill-rule="evenodd" clip-rule="evenodd" d="M98.2916 38.2929C98.1048 38.4818 98 38.7368 98 39.0024C98 39.2681 98.1048 39.523 98.2916 39.7119L101.231 42.6769C101.449 42.8919 101.731 42.9989 102.01 42.9989C102.289 42.9989 102.566 42.8919 102.779 42.6769L105.709 39.7219C105.895 39.5329 106 39.278 106 39.0124C106 38.7469 105.895 38.492 105.709 38.3029C105.617 38.2098 105.507 38.1358 105.387 38.0853C105.266 38.0347 105.136 38.0087 105.006 38.0087C104.875 38.0087 104.745 38.0347 104.625 38.0853C104.504 38.1358 104.394 38.2098 104.303 38.3029L102.005 40.6199L99.6976 38.2929C99.6055 38.2001 99.496 38.1264 99.3754 38.0762C99.2547 38.0259 99.1253 38 98.9946 38C98.8639 38 98.7344 38.0259 98.6138 38.0762C98.4931 38.1264 98.3836 38.2001 98.2916 38.2929Z" fill="#98A2AE"/>
<path fill-rule="evenodd" clip-rule="evenodd" d="M188.292 38.2929C188.105 38.4818 188 38.7368 188 39.0024C188 39.2681 188.105 39.523 188.292 39.7119L191.231 42.6769C191.449 42.8919 191.731 42.9989 192.01 42.9989C192.289 42.9989 192.566 42.8919 192.779 42.6769L195.709 39.7219C195.895 39.5329 196 39.278 196 39.0124C196 38.7469 195.895 38.492 195.709 38.3029C195.617 38.2098 195.507 38.1358 195.387 38.0853C195.266 38.0347 195.136 38.0087 195.006 38.0087C194.875 38.0087 194.745 38.0347 194.625 38.0853C194.504 38.1358 194.394 38.2098 194.303 38.3029L192.005 40.6199L189.698 38.2929C189.606 38.2001 189.496 38.1264 189.375 38.0762C189.255 38.0259 189.125 38 188.995 38C188.864 38 188.734 38.0259 188.614 38.0762C188.493 38.1264 188.384 38.2001 188.292 38.2929Z" fill="#98A2AE"/>
<path d="M295.58 34.2102V33.2727H302.125V34.2102H299.381V42H298.324V34.2102H295.58ZM304.655 42.1534C304.24 42.1534 303.864 42.0753 303.526 41.919C303.188 41.7599 302.919 41.5312 302.721 41.233C302.522 40.9318 302.422 40.5682 302.422 40.142C302.422 39.767 302.496 39.4631 302.644 39.2301C302.792 38.9943 302.989 38.8097 303.236 38.6761C303.483 38.5426 303.756 38.4432 304.054 38.3778C304.355 38.3097 304.658 38.2557 304.962 38.2159C305.36 38.1648 305.682 38.1264 305.929 38.1009C306.179 38.0724 306.361 38.0256 306.475 37.9602C306.591 37.8949 306.65 37.7812 306.65 37.6193V37.5852C306.65 37.1648 306.534 36.8381 306.304 36.6051C306.077 36.3722 305.732 36.2557 305.269 36.2557C304.789 36.2557 304.412 36.3608 304.14 36.571C303.867 36.7812 303.675 37.0057 303.564 37.2443L302.61 36.9034C302.78 36.5057 303.007 36.196 303.292 35.9744C303.578 35.75 303.891 35.5937 304.229 35.5057C304.57 35.4148 304.905 35.3693 305.235 35.3693C305.445 35.3693 305.686 35.3949 305.959 35.446C306.235 35.4943 306.5 35.5952 306.756 35.7486C307.015 35.902 307.229 36.1335 307.4 36.4432C307.57 36.7528 307.655 37.1676 307.655 37.6875V42H306.65V41.1136H306.598C306.53 41.2557 306.417 41.4077 306.257 41.5696C306.098 41.7315 305.887 41.8693 305.623 41.983C305.358 42.0966 305.036 42.1534 304.655 42.1534ZM304.809 41.25C305.206 41.25 305.542 41.1719 305.814 41.0156C306.09 40.8594 306.297 40.6577 306.436 40.4105C306.578 40.1634 306.65 39.9034 306.65 39.6307V38.7102C306.607 38.7614 306.513 38.8082 306.368 38.8509C306.226 38.8906 306.061 38.9261 305.874 38.9574C305.689 38.9858 305.509 39.0114 305.333 39.0341C305.159 39.054 305.019 39.071 304.911 39.0852C304.65 39.1193 304.405 39.1747 304.178 39.2514C303.953 39.3253 303.772 39.4375 303.632 39.5881C303.496 39.7358 303.428 39.9375 303.428 40.1932C303.428 40.5426 303.557 40.8068 303.816 40.9858C304.077 41.1619 304.408 41.25 304.809 41.25ZM309.627 42V33.2727H310.633V36.4943H310.718C310.792 36.3807 310.894 36.2358 311.025 36.0597C311.158 35.8807 311.349 35.7216 311.596 35.5824C311.846 35.4403 312.184 35.3693 312.61 35.3693C313.161 35.3693 313.647 35.5071 314.067 35.7827C314.488 36.0582 314.816 36.4489 315.052 36.9545C315.288 37.4602 315.406 38.0568 315.406 38.7443C315.406 39.4375 315.288 40.0384 315.052 40.5469C314.816 41.0526 314.489 41.4446 314.072 41.723C313.654 41.9986 313.173 42.1364 312.627 42.1364C312.207 42.1364 311.87 42.0668 311.617 41.9276C311.364 41.7855 311.17 41.625 311.033 41.446C310.897 41.2642 310.792 41.1136 310.718 40.9943H310.599V42H309.627ZM310.616 38.7273C310.616 39.2216 310.688 39.6577 310.833 40.0355C310.978 40.4105 311.19 40.7045 311.468 40.9176C311.746 41.1278 312.087 41.233 312.491 41.233C312.911 41.233 313.262 41.1222 313.543 40.9006C313.827 40.6761 314.04 40.375 314.183 39.9972C314.327 39.6165 314.4 39.1932 314.4 38.7273C314.4 38.267 314.329 37.8523 314.187 37.483C314.048 37.1108 313.836 36.8168 313.552 36.6009C313.271 36.3821 312.917 36.2727 312.491 36.2727C312.082 36.2727 311.738 36.3764 311.46 36.5838C311.181 36.7884 310.971 37.0753 310.829 37.4446C310.687 37.8111 310.616 38.2386 310.616 38.7273Z" fill="#98A2AE"/>
<path d="M67.6761 111.912V110.818H75.3125V111.912H72.1108V121H70.8778V111.912H67.6761ZM78.2644 121.179C77.7805 121.179 77.3413 121.088 76.9469 120.906C76.5525 120.72 76.2393 120.453 76.0073 120.105C75.7753 119.754 75.6593 119.33 75.6593 118.832C75.6593 118.395 75.7454 118.04 75.9178 117.768C76.0901 117.493 76.3205 117.278 76.6088 117.122C76.8972 116.966 77.2154 116.85 77.5634 116.774C77.9147 116.695 78.2677 116.632 78.6223 116.585C79.0864 116.526 79.4625 116.481 79.7509 116.451C80.0426 116.418 80.2547 116.363 80.3873 116.287C80.5231 116.211 80.5911 116.078 80.5911 115.889V115.849C80.5911 115.359 80.4569 114.978 80.1884 114.706C79.9232 114.434 79.5205 114.298 78.9803 114.298C78.4202 114.298 77.981 114.421 77.6628 114.666C77.3446 114.911 77.1209 115.173 76.9917 115.452L75.878 115.054C76.0769 114.59 76.342 114.229 76.6735 113.97C77.0082 113.708 77.3728 113.526 77.7672 113.423C78.165 113.317 78.556 113.264 78.9405 113.264C79.1858 113.264 79.4675 113.294 79.7857 113.354C80.1072 113.41 80.4171 113.528 80.7154 113.707C81.017 113.886 81.2672 114.156 81.4661 114.517C81.665 114.878 81.7644 115.362 81.7644 115.969V121H80.5911V119.966H80.5314C80.4519 120.132 80.3193 120.309 80.1337 120.498C79.9481 120.687 79.7012 120.848 79.3929 120.98C79.0847 121.113 78.7085 121.179 78.2644 121.179ZM78.4434 120.125C78.9074 120.125 79.2985 120.034 79.6167 119.852C79.9382 119.669 80.1801 119.434 80.3425 119.146C80.5082 118.857 80.5911 118.554 80.5911 118.236V117.162C80.5414 117.222 80.432 117.276 80.263 117.326C80.0972 117.372 79.905 117.414 79.6863 117.45C79.4708 117.483 79.2604 117.513 79.0549 117.54C78.8527 117.563 78.6886 117.583 78.5627 117.599C78.2578 117.639 77.9727 117.704 77.7076 117.793C77.4457 117.879 77.2336 118.01 77.0712 118.186C76.9121 118.358 76.8326 118.594 76.8326 118.892C76.8326 119.3 76.9834 119.608 77.285 119.817C77.5899 120.022 77.976 120.125 78.4434 120.125ZM84.065 121V110.818H85.2383V114.577H85.3377C85.4239 114.444 85.5432 114.275 85.6957 114.07C85.8514 113.861 86.0735 113.675 86.3619 113.513C86.6535 113.347 87.0479 113.264 87.5451 113.264C88.1881 113.264 88.7549 113.425 89.2454 113.746C89.7359 114.068 90.1187 114.524 90.3938 115.114C90.6689 115.704 90.8065 116.4 90.8065 117.202C90.8065 118.01 90.6689 118.711 90.3938 119.305C90.1187 119.895 89.7376 120.352 89.2504 120.677C88.7631 120.998 88.2013 121.159 87.565 121.159C87.0745 121.159 86.6817 121.078 86.3867 120.915C86.0917 120.75 85.8647 120.562 85.7056 120.354C85.5465 120.142 85.4239 119.966 85.3377 119.827H85.1985V121H84.065ZM85.2184 117.182C85.2184 117.759 85.3029 118.267 85.4719 118.708C85.641 119.146 85.8879 119.489 86.2127 119.737C86.5375 119.982 86.9353 120.105 87.4059 120.105C87.8964 120.105 88.3058 119.976 88.6339 119.717C88.9653 119.455 89.2139 119.104 89.3796 118.663C89.5487 118.219 89.6332 117.725 89.6332 117.182C89.6332 116.645 89.5503 116.161 89.3846 115.73C89.2222 115.296 88.9753 114.953 88.6438 114.701C88.3157 114.446 87.9031 114.318 87.4059 114.318C86.9286 114.318 86.5276 114.439 86.2028 114.681C85.878 114.92 85.6327 115.254 85.467 115.685C85.3013 116.113 85.2184 116.612 85.2184 117.182Z" fill="#D9DDE3"/>
<path fill-rule="evenodd" clip-rule="evenodd" d="M98.2916 114.293C98.1048 114.482 98 114.737 98 115.002C98 115.268 98.1048 115.523 98.2916 115.712L101.231 118.677C101.449 118.892 101.731 118.999 102.01 118.999C102.289 118.999 102.566 118.892 102.779 118.677L105.709 115.722C105.895 115.533 106 115.278 106 115.012C106 114.747 105.895 114.492 105.709 114.303C105.617 114.21 105.507 114.136 105.387 114.085C105.266 114.035 105.136 114.009 105.006 114.009C104.875 114.009 104.745 114.035 104.625 114.085C104.504 114.136 104.394 114.21 104.303 114.303L102.005 116.62L99.6976 114.293C99.6055 114.2 99.496 114.126 99.3754 114.076C99.2547 114.026 99.1253 114 98.9946 114C98.8639 114 98.7344 114.026 98.6138 114.076C98.4931 114.126 98.3836 114.2 98.2916 114.293Z" fill="#5A697C"/>
<path d="M63 134C63 133.448 63.4477 133 64 133H115C115.552 133 116 133.448 116 134V136H63V134Z" fill="#5854F7"/>
<path fill-rule="evenodd" clip-rule="evenodd" d="M188.292 114.293C188.105 114.482 188 114.737 188 115.002C188 115.268 188.105 115.523 188.292 115.712L191.231 118.677C191.449 118.892 191.731 118.999 192.01 118.999C192.289 118.999 192.566 118.892 192.779 118.677L195.709 115.722C195.895 115.533 196 115.278 196 115.012C196 114.747 195.895 114.492 195.709 114.303C195.617 114.21 195.507 114.136 195.387 114.085C195.266 114.035 195.136 114.009 195.006 114.009C194.875 114.009 194.745 114.035 194.625 114.085C194.504 114.136 194.394 114.21 194.303 114.303L192.005 116.62L189.698 114.293C189.606 114.2 189.496 114.126 189.375 114.076C189.255 114.026 189.125 114 188.995 114C188.864 114 188.734 114.026 188.614 114.076C188.493 114.126 188.384 114.2 188.292 114.293Z" fill="#5A697C"/>
<path d="M178 134C178 133.448 178.448 133 179 133H205C205.552 133 206 133.448 206 134V136H178V134Z" fill="#5854F7"/>
<path d="M295.58 110.21V109.273H302.125V110.21H299.381V118H298.324V110.21H295.58ZM304.655 118.153C304.24 118.153 303.864 118.075 303.526 117.919C303.188 117.76 302.919 117.531 302.721 117.233C302.522 116.932 302.422 116.568 302.422 116.142C302.422 115.767 302.496 115.463 302.644 115.23C302.792 114.994 302.989 114.81 303.236 114.676C303.483 114.543 303.756 114.443 304.054 114.378C304.355 114.31 304.658 114.256 304.962 114.216C305.36 114.165 305.682 114.126 305.929 114.101C306.179 114.072 306.361 114.026 306.475 113.96C306.591 113.895 306.65 113.781 306.65 113.619V113.585C306.65 113.165 306.534 112.838 306.304 112.605C306.077 112.372 305.732 112.256 305.269 112.256C304.789 112.256 304.412 112.361 304.14 112.571C303.867 112.781 303.675 113.006 303.564 113.244L302.61 112.903C302.78 112.506 303.007 112.196 303.292 111.974C303.578 111.75 303.891 111.594 304.229 111.506C304.57 111.415 304.905 111.369 305.235 111.369C305.445 111.369 305.686 111.395 305.959 111.446C306.235 111.494 306.5 111.595 306.756 111.749C307.015 111.902 307.229 112.134 307.4 112.443C307.57 112.753 307.655 113.168 307.655 113.688V118H306.65V117.114H306.598C306.53 117.256 306.417 117.408 306.257 117.57C306.098 117.732 305.887 117.869 305.623 117.983C305.358 118.097 305.036 118.153 304.655 118.153ZM304.809 117.25C305.206 117.25 305.542 117.172 305.814 117.016C306.09 116.859 306.297 116.658 306.436 116.411C306.578 116.163 306.65 115.903 306.65 115.631V114.71C306.607 114.761 306.513 114.808 306.368 114.851C306.226 114.891 306.061 114.926 305.874 114.957C305.689 114.986 305.509 115.011 305.333 115.034C305.159 115.054 305.019 115.071 304.911 115.085C304.65 115.119 304.405 115.175 304.178 115.251C303.953 115.325 303.772 115.437 303.632 115.588C303.496 115.736 303.428 115.937 303.428 116.193C303.428 116.543 303.557 116.807 303.816 116.986C304.077 117.162 304.408 117.25 304.809 117.25ZM309.627 118V109.273H310.633V112.494H310.718C310.792 112.381 310.894 112.236 311.025 112.06C311.158 111.881 311.349 111.722 311.596 111.582C311.846 111.44 312.184 111.369 312.61 111.369C313.161 111.369 313.647 111.507 314.067 111.783C314.488 112.058 314.816 112.449 315.052 112.955C315.288 113.46 315.406 114.057 315.406 114.744C315.406 115.438 315.288 116.038 315.052 116.547C314.816 117.053 314.489 117.445 314.072 117.723C313.654 117.999 313.173 118.136 312.627 118.136C312.207 118.136 311.87 118.067 311.617 117.928C311.364 117.786 311.17 117.625 311.033 117.446C310.897 117.264 310.792 117.114 310.718 116.994H310.599V118H309.627ZM310.616 114.727C310.616 115.222 310.688 115.658 310.833 116.036C310.978 116.411 311.19 116.705 311.468 116.918C311.746 117.128 312.087 117.233 312.491 117.233C312.911 117.233 313.262 117.122 313.543 116.901C313.827 116.676 314.04 116.375 314.183 115.997C314.327 115.616 314.4 115.193 314.4 114.727C314.4 114.267 314.329 113.852 314.187 113.483C314.048 113.111 313.836 112.817 313.552 112.601C313.271 112.382 312.917 112.273 312.491 112.273C312.082 112.273 311.738 112.376 311.46 112.584C311.181 112.788 310.971 113.075 310.829 113.445C310.687 113.811 310.616 114.239 310.616 114.727Z" fill="#D9DDE3"/>
<path d="M287 130C287 129.448 287.448 129 288 129H324C324.552 129 325 129.448 325 130V132H287V130Z" fill="#5854F7"/>
<rect x="0.5" y="0.5" width="408" height="190" rx="4.5" stroke="#7B61FF" stroke-dasharray="10 5"/>
</svg>
