<svg width="506" height="127" viewBox="0 0 506 127" fill="none" xmlns="http://www.w3.org/2000/svg">
<g clip-path="url(#clip0_4647_181559)">
<rect x="139" y="40" width="345" height="64" rx="4" fill="#373F49"/>
<path d="M151.676 53.9119H154.878V63H156.111V53.9119H159.312V52.8182H151.676V53.9119ZM163.151 63.1591C164.702 63.1591 165.835 62.3835 166.193 61.2301L165.06 60.9119C164.761 61.7074 164.07 62.1051 163.151 62.1051C161.773 62.1051 160.824 61.2152 160.769 59.5795H166.312V59.0824C166.312 56.2386 164.622 55.2642 163.031 55.2642C160.963 55.2642 159.591 56.8949 159.591 59.2415C159.591 61.5881 160.943 63.1591 163.151 63.1591ZM160.769 58.5653C160.849 57.3771 161.689 56.3182 163.031 56.3182C164.304 56.3182 165.119 57.2727 165.119 58.5653H160.769ZM168.767 55.3636H167.415L169.841 59.1818L167.415 63H168.767L170.597 60.0369L172.426 63H173.779L171.313 59.1818L173.779 55.3636H172.426L170.597 58.4858L168.767 55.3636ZM178.774 55.3636H177.143V53.5341H175.97V55.3636H174.816V56.358H175.97V61.1307C175.97 62.4631 177.044 63.0994 178.038 63.0994C178.475 63.0994 178.754 63.0199 178.913 62.9602L178.674 61.9062C178.575 61.9261 178.416 61.9659 178.157 61.9659C177.64 61.9659 177.143 61.8068 177.143 60.8125V56.358H178.774V55.3636Z" fill="#D9DDE3"/>
<rect x="151" y="46" width="147" height="24" rx="4" fill="#5A697C"/>
<path d="M160.201 62V53.2727H161.258V57.1591H165.912V53.2727H166.968V62H165.912V58.0966H161.258V62H160.201ZM171.692 62.1364C171.061 62.1364 170.517 61.9972 170.06 61.7188C169.605 61.4375 169.255 61.0455 169.007 60.5426C168.763 60.0369 168.641 59.4489 168.641 58.7784C168.641 58.108 168.763 57.517 169.007 57.0057C169.255 56.4915 169.598 56.0909 170.039 55.804C170.482 55.5142 170.999 55.3693 171.59 55.3693C171.931 55.3693 172.267 55.4261 172.6 55.5398C172.932 55.6534 173.235 55.8381 173.507 56.0938C173.78 56.3466 173.998 56.6818 174.159 57.0994C174.321 57.517 174.402 58.0312 174.402 58.642V59.0682H169.357V58.1989H173.38C173.38 57.8295 173.306 57.5 173.158 57.2102C173.013 56.9205 172.806 56.6918 172.536 56.5241C172.269 56.3565 171.953 56.2727 171.59 56.2727C171.189 56.2727 170.843 56.3722 170.55 56.571C170.26 56.767 170.037 57.0227 169.881 57.3381C169.725 57.6534 169.647 57.9915 169.647 58.3523V58.9318C169.647 59.4261 169.732 59.8452 169.902 60.1889C170.076 60.5298 170.316 60.7898 170.623 60.9688C170.929 61.1449 171.286 61.233 171.692 61.233C171.956 61.233 172.195 61.196 172.408 61.1222C172.624 61.0455 172.81 60.9318 172.966 60.7812C173.123 60.6278 173.243 60.4375 173.328 60.2102L174.3 60.483C174.198 60.8125 174.026 61.1023 173.784 61.3523C173.543 61.5994 173.245 61.7926 172.89 61.9318C172.534 62.0682 172.135 62.1364 171.692 62.1364ZM177.858 62.1534C177.444 62.1534 177.067 62.0753 176.729 61.919C176.391 61.7599 176.123 61.5312 175.924 61.233C175.725 60.9318 175.625 60.5682 175.625 60.142C175.625 59.767 175.699 59.4631 175.847 59.2301C175.995 58.9943 176.192 58.8097 176.439 58.6761C176.686 58.5426 176.959 58.4432 177.257 58.3778C177.559 58.3097 177.861 58.2557 178.165 58.2159C178.563 58.1648 178.885 58.1264 179.132 58.1009C179.382 58.0724 179.564 58.0256 179.678 57.9602C179.794 57.8949 179.853 57.7812 179.853 57.6193V57.5852C179.853 57.1648 179.738 56.8381 179.507 56.6051C179.28 56.3722 178.935 56.2557 178.472 56.2557C177.992 56.2557 177.615 56.3608 177.343 56.571C177.07 56.7812 176.878 57.0057 176.767 57.2443L175.813 56.9034C175.983 56.5057 176.211 56.196 176.495 55.9744C176.782 55.75 177.094 55.5937 177.432 55.5057C177.773 55.4148 178.108 55.3693 178.438 55.3693C178.648 55.3693 178.89 55.3949 179.162 55.446C179.438 55.4943 179.703 55.5952 179.959 55.7486C180.218 55.902 180.432 56.1335 180.603 56.4432C180.773 56.7528 180.858 57.1676 180.858 57.6875V62H179.853V61.1136H179.801C179.733 61.2557 179.62 61.4077 179.461 61.5696C179.301 61.7315 179.09 61.8693 178.826 61.983C178.561 62.0966 178.239 62.1534 177.858 62.1534ZM178.012 61.25C178.409 61.25 178.745 61.1719 179.017 61.0156C179.293 60.8594 179.5 60.6577 179.64 60.4105C179.782 60.1634 179.853 59.9034 179.853 59.6307V58.7102C179.81 58.7614 179.716 58.8082 179.571 58.8509C179.429 58.8906 179.265 58.9261 179.077 58.9574C178.892 58.9858 178.712 59.0114 178.536 59.0341C178.363 59.054 178.222 59.071 178.114 59.0852C177.853 59.1193 177.608 59.1747 177.381 59.2514C177.157 59.3253 176.975 59.4375 176.836 59.5881C176.699 59.7358 176.631 59.9375 176.631 60.1932C176.631 60.5426 176.76 60.8068 177.019 60.9858C177.28 61.1619 177.611 61.25 178.012 61.25ZM182.694 62V55.4545H183.665V56.4432H183.734C183.853 56.1193 184.069 55.8565 184.381 55.6548C184.694 55.4531 185.046 55.3523 185.438 55.3523C185.512 55.3523 185.604 55.3537 185.715 55.3565C185.826 55.3594 185.91 55.3636 185.967 55.3693V56.392C185.933 56.3835 185.854 56.3707 185.732 56.3537C185.613 56.3338 185.487 56.3239 185.353 56.3239C185.035 56.3239 184.751 56.3906 184.501 56.5241C184.254 56.6548 184.058 56.8366 183.913 57.0696C183.771 57.2997 183.7 57.5625 183.7 57.858V62H182.694ZM190.415 55.4545V56.3068H187.023V55.4545H190.415ZM188.012 53.8864H189.018V60.125C189.018 60.4091 189.059 60.6222 189.141 60.7642C189.227 60.9034 189.335 60.9972 189.465 61.0455C189.599 61.0909 189.739 61.1136 189.887 61.1136C189.998 61.1136 190.089 61.108 190.16 61.0966C190.231 61.0824 190.288 61.071 190.33 61.0625L190.535 61.9659C190.467 61.9915 190.371 62.017 190.249 62.0426C190.127 62.071 189.972 62.0852 189.785 62.0852C189.501 62.0852 189.222 62.0241 188.95 61.902C188.68 61.7798 188.455 61.5938 188.276 61.3438C188.1 61.0938 188.012 60.7784 188.012 60.3977V53.8864ZM197.962 62.1364C197.371 62.1364 196.853 61.9957 196.407 61.7145C195.964 61.4332 195.617 61.0398 195.367 60.5341C195.12 60.0284 194.996 59.4375 194.996 58.7614C194.996 58.0795 195.12 57.4844 195.367 56.9759C195.617 56.4673 195.964 56.0724 196.407 55.7912C196.853 55.5099 197.371 55.3693 197.962 55.3693C198.553 55.3693 199.07 55.5099 199.513 55.7912C199.96 56.0724 200.306 56.4673 200.553 56.9759C200.803 57.4844 200.928 58.0795 200.928 58.7614C200.928 59.4375 200.803 60.0284 200.553 60.5341C200.306 61.0398 199.96 61.4332 199.513 61.7145C199.07 61.9957 198.553 62.1364 197.962 62.1364ZM197.962 61.233C198.411 61.233 198.781 61.1179 199.07 60.8878C199.36 60.6577 199.575 60.3551 199.714 59.9801C199.853 59.6051 199.923 59.1989 199.923 58.7614C199.923 58.3239 199.853 57.9162 199.714 57.5384C199.575 57.1605 199.36 56.8551 199.07 56.6222C198.781 56.3892 198.411 56.2727 197.962 56.2727C197.513 56.2727 197.144 56.3892 196.854 56.6222C196.565 56.8551 196.35 57.1605 196.211 57.5384C196.072 57.9162 196.002 58.3239 196.002 58.7614C196.002 59.1989 196.072 59.6051 196.211 59.9801C196.35 60.3551 196.565 60.6577 196.854 60.8878C197.144 61.1179 197.513 61.233 197.962 61.233ZM205.378 55.4545V56.3068H201.85V55.4545H205.378ZM202.907 62V54.5511C202.907 54.1761 202.995 53.8636 203.171 53.6136C203.347 53.3636 203.576 53.1761 203.857 53.0511C204.138 52.9261 204.435 52.8636 204.748 52.8636C204.995 52.8636 205.196 52.8835 205.353 52.9233C205.509 52.9631 205.625 53 205.702 53.0341L205.412 53.9034C205.361 53.8864 205.29 53.8651 205.199 53.8395C205.111 53.8139 204.995 53.8011 204.85 53.8011C204.517 53.8011 204.277 53.8849 204.13 54.0526C203.985 54.2202 203.912 54.4659 203.912 54.7898V62H202.907ZM213.009 55.4545V56.3068H209.617V55.4545H213.009ZM210.606 53.8864H211.612V60.125C211.612 60.4091 211.653 60.6222 211.735 60.7642C211.82 60.9034 211.928 60.9972 212.059 61.0455C212.192 61.0909 212.333 61.1136 212.481 61.1136C212.592 61.1136 212.683 61.108 212.754 61.0966C212.825 61.0824 212.881 61.071 212.924 61.0625L213.129 61.9659C213.06 61.9915 212.965 62.017 212.843 62.0426C212.721 62.071 212.566 62.0852 212.379 62.0852C212.094 62.0852 211.816 62.0241 211.543 61.902C211.273 61.7798 211.049 61.5938 210.87 61.3438C210.694 61.0938 210.606 60.7784 210.606 60.3977V53.8864ZM215.668 58.0625V62H214.663V53.2727H215.668V56.4773H215.754C215.907 56.1392 216.137 55.8707 216.444 55.6719C216.754 55.4702 217.165 55.3693 217.68 55.3693C218.126 55.3693 218.516 55.4588 218.852 55.6378C219.187 55.8139 219.447 56.0852 219.631 56.4517C219.819 56.8153 219.913 57.2784 219.913 57.8409V62H218.907V57.9091C218.907 57.3892 218.772 56.9872 218.502 56.7031C218.235 56.4162 217.864 56.2727 217.39 56.2727C217.06 56.2727 216.765 56.3423 216.504 56.4815C216.245 56.6207 216.04 56.8239 215.89 57.0909C215.742 57.358 215.668 57.6818 215.668 58.0625ZM224.497 62.1364C223.866 62.1364 223.322 61.9972 222.865 61.7188C222.41 61.4375 222.059 61.0455 221.812 60.5426C221.568 60.0369 221.446 59.4489 221.446 58.7784C221.446 58.108 221.568 57.517 221.812 57.0057C222.059 56.4915 222.403 56.0909 222.843 55.804C223.287 55.5142 223.804 55.3693 224.395 55.3693C224.735 55.3693 225.072 55.4261 225.404 55.5398C225.737 55.6534 226.039 55.8381 226.312 56.0938C226.585 56.3466 226.802 56.6818 226.964 57.0994C227.126 57.517 227.207 58.0312 227.207 58.642V59.0682H222.162V58.1989H226.184C226.184 57.8295 226.11 57.5 225.963 57.2102C225.818 56.9205 225.61 56.6918 225.341 56.5241C225.074 56.3565 224.758 56.2727 224.395 56.2727C223.994 56.2727 223.647 56.3722 223.355 56.571C223.065 56.767 222.842 57.0227 222.686 57.3381C222.529 57.6534 222.451 57.9915 222.451 58.3523V58.9318C222.451 59.4261 222.537 59.8452 222.707 60.1889C222.88 60.5298 223.12 60.7898 223.427 60.9688C223.734 61.1449 224.091 61.233 224.497 61.233C224.761 61.233 225 61.196 225.213 61.1222C225.429 61.0455 225.615 60.9318 225.771 60.7812C225.927 60.6278 226.048 60.4375 226.133 60.2102L227.105 60.483C227.002 60.8125 226.831 61.1023 226.589 61.3523C226.348 61.5994 226.049 61.7926 225.694 61.9318C225.339 62.0682 224.94 62.1364 224.497 62.1364ZM231.771 54.2102V53.2727H238.316V54.2102H235.572V62H234.515V54.2102H231.771ZM241.521 62.1364C240.93 62.1364 240.412 61.9957 239.966 61.7145C239.522 61.4332 239.176 61.0398 238.926 60.5341C238.679 60.0284 238.555 59.4375 238.555 58.7614C238.555 58.0795 238.679 57.4844 238.926 56.9759C239.176 56.4673 239.522 56.0724 239.966 55.7912C240.412 55.5099 240.93 55.3693 241.521 55.3693C242.112 55.3693 242.629 55.5099 243.072 55.7912C243.518 56.0724 243.865 56.4673 244.112 56.9759C244.362 57.4844 244.487 58.0795 244.487 58.7614C244.487 59.4375 244.362 60.0284 244.112 60.5341C243.865 61.0398 243.518 61.4332 243.072 61.7145C242.629 61.9957 242.112 62.1364 241.521 62.1364ZM241.521 61.233C241.97 61.233 242.339 61.1179 242.629 60.8878C242.919 60.6577 243.133 60.3551 243.272 59.9801C243.412 59.6051 243.481 59.1989 243.481 58.7614C243.481 58.3239 243.412 57.9162 243.272 57.5384C243.133 57.1605 242.919 56.8551 242.629 56.6222C242.339 56.3892 241.97 56.2727 241.521 56.2727C241.072 56.2727 240.703 56.3892 240.413 56.6222C240.123 56.8551 239.909 57.1605 239.77 57.5384C239.63 57.9162 239.561 58.3239 239.561 58.7614C239.561 59.1989 239.63 59.6051 239.77 59.9801C239.909 60.3551 240.123 60.6577 240.413 60.8878C240.703 61.1179 241.072 61.233 241.521 61.233ZM247.282 62L245.288 55.4545H246.345L247.76 60.4659H247.828L249.225 55.4545H250.299L251.68 60.4489H251.748L253.163 55.4545H254.22L252.225 62H251.237L249.805 56.9716H249.703L248.271 62H247.282ZM258.071 62.1364C257.44 62.1364 256.896 61.9972 256.439 61.7188C255.984 61.4375 255.634 61.0455 255.386 60.5426C255.142 60.0369 255.02 59.4489 255.02 58.7784C255.02 58.108 255.142 57.517 255.386 57.0057C255.634 56.4915 255.977 56.0909 256.418 55.804C256.861 55.5142 257.378 55.3693 257.969 55.3693C258.31 55.3693 258.646 55.4261 258.979 55.5398C259.311 55.6534 259.614 55.8381 259.886 56.0938C260.159 56.3466 260.376 56.6818 260.538 57.0994C260.7 57.517 260.781 58.0312 260.781 58.642V59.0682H255.736V58.1989H259.759C259.759 57.8295 259.685 57.5 259.537 57.2102C259.392 56.9205 259.185 56.6918 258.915 56.5241C258.648 56.3565 258.332 56.2727 257.969 56.2727C257.568 56.2727 257.222 56.3722 256.929 56.571C256.639 56.767 256.416 57.0227 256.26 57.3381C256.104 57.6534 256.026 57.9915 256.026 58.3523V58.9318C256.026 59.4261 256.111 59.8452 256.281 60.1889C256.455 60.5298 256.695 60.7898 257.001 60.9688C257.308 61.1449 257.665 61.233 258.071 61.233C258.335 61.233 258.574 61.196 258.787 61.1222C259.003 61.0455 259.189 60.9318 259.345 60.7812C259.501 60.6278 259.622 60.4375 259.707 60.2102L260.679 60.483C260.577 60.8125 260.405 61.1023 260.163 61.3523C259.922 61.5994 259.624 61.7926 259.268 61.9318C258.913 62.0682 258.514 62.1364 258.071 62.1364ZM262.311 62V55.4545H263.283V56.4432H263.351C263.47 56.1193 263.686 55.8565 263.999 55.6548C264.311 55.4531 264.663 55.3523 265.055 55.3523C265.129 55.3523 265.222 55.3537 265.332 55.3565C265.443 55.3594 265.527 55.3636 265.584 55.3693V56.392C265.55 56.3835 265.472 56.3707 265.349 56.3537C265.23 56.3338 265.104 56.3239 264.97 56.3239C264.652 56.3239 264.368 56.3906 264.118 56.5241C263.871 56.6548 263.675 56.8366 263.53 57.0696C263.388 57.2997 263.317 57.5625 263.317 57.858V62H262.311Z" fill="#D9DDE3"/>
<path fill-rule="evenodd" clip-rule="evenodd" d="M286.471 53.5288C286.732 53.7891 286.732 54.2112 286.471 54.4716L278.471 62.4716C278.211 62.7319 277.789 62.7319 277.529 62.4716C277.268 62.2112 277.268 61.7891 277.529 61.5288L285.529 53.5288C285.789 53.2684 286.211 53.2684 286.471 53.5288Z" fill="#D9DDE3"/>
<path fill-rule="evenodd" clip-rule="evenodd" d="M277.529 53.5288C277.789 53.2684 278.211 53.2684 278.471 53.5288L286.471 61.5288C286.732 61.7891 286.732 62.2112 286.471 62.4716C286.211 62.7319 285.789 62.7319 285.529 62.4716L277.529 54.4716C277.268 54.2112 277.268 53.7891 277.529 53.5288Z" fill="#D9DDE3"/>
<rect x="302" y="46" width="110" height="24" rx="4" fill="#5A697C"/>
<path d="M311.434 62V53.2727H314.383C315.064 53.2727 315.624 53.3892 316.062 53.6222C316.499 53.8523 316.823 54.169 317.033 54.5724C317.243 54.9759 317.349 55.4347 317.349 55.9489C317.349 56.4631 317.243 56.919 317.033 57.3168C316.823 57.7145 316.501 58.027 316.066 58.2543C315.631 58.4787 315.076 58.5909 314.4 58.5909H312.013V57.6364H314.366C314.831 57.6364 315.206 57.5682 315.491 57.4318C315.778 57.2955 315.985 57.1023 316.113 56.8523C316.243 56.5994 316.309 56.2983 316.309 55.9489C316.309 55.5994 316.243 55.294 316.113 55.0327C315.982 54.7713 315.773 54.5696 315.486 54.4276C315.199 54.2827 314.82 54.2102 314.349 54.2102H312.491V62H311.434ZM315.542 58.0795L317.689 62H316.462L314.349 58.0795H315.542ZM321.647 62.1364C321.017 62.1364 320.472 61.9972 320.015 61.7188C319.561 61.4375 319.21 61.0455 318.963 60.5426C318.718 60.0369 318.596 59.4489 318.596 58.7784C318.596 58.108 318.718 57.517 318.963 57.0057C319.21 56.4915 319.553 56.0909 319.994 55.804C320.437 55.5142 320.954 55.3693 321.545 55.3693C321.886 55.3693 322.222 55.4261 322.555 55.5398C322.887 55.6534 323.19 55.8381 323.463 56.0938C323.735 56.3466 323.953 56.6818 324.115 57.0994C324.276 57.517 324.357 58.0312 324.357 58.642V59.0682H319.312V58.1989H323.335C323.335 57.8295 323.261 57.5 323.113 57.2102C322.968 56.9205 322.761 56.6918 322.491 56.5241C322.224 56.3565 321.909 56.2727 321.545 56.2727C321.144 56.2727 320.798 56.3722 320.505 56.571C320.215 56.767 319.992 57.0227 319.836 57.3381C319.68 57.6534 319.602 57.9915 319.602 58.3523V58.9318C319.602 59.4261 319.687 59.8452 319.857 60.1889C320.031 60.5298 320.271 60.7898 320.578 60.9688C320.884 61.1449 321.241 61.233 321.647 61.233C321.911 61.233 322.15 61.196 322.363 61.1222C322.579 61.0455 322.765 60.9318 322.921 60.7812C323.078 60.6278 323.198 60.4375 323.284 60.2102L324.255 60.483C324.153 60.8125 323.981 61.1023 323.74 61.3523C323.498 61.5994 323.2 61.7926 322.845 61.9318C322.49 62.0682 322.09 62.1364 321.647 62.1364ZM325.887 64.4545V55.4545H326.859V56.4943H326.978C327.052 56.3807 327.154 56.2358 327.285 56.0597C327.419 55.8807 327.609 55.7216 327.856 55.5824C328.106 55.4403 328.444 55.3693 328.87 55.3693C329.421 55.3693 329.907 55.5071 330.328 55.7827C330.748 56.0582 331.076 56.4489 331.312 56.9545C331.548 57.4602 331.666 58.0568 331.666 58.7443C331.666 59.4375 331.548 60.0384 331.312 60.5469C331.076 61.0526 330.749 61.4446 330.332 61.723C329.914 61.9986 329.433 62.1364 328.887 62.1364C328.467 62.1364 328.13 62.0668 327.877 61.9276C327.624 61.7855 327.43 61.625 327.294 61.446C327.157 61.2642 327.052 61.1136 326.978 60.9943H326.893V64.4545H325.887ZM326.876 58.7273C326.876 59.2216 326.948 59.6577 327.093 60.0355C327.238 60.4105 327.45 60.7045 327.728 60.9176C328.007 61.1278 328.347 61.233 328.751 61.233C329.171 61.233 329.522 61.1222 329.803 60.9006C330.088 60.6761 330.301 60.375 330.443 59.9972C330.588 59.6165 330.66 59.1932 330.66 58.7273C330.66 58.267 330.589 57.8523 330.447 57.483C330.308 57.1108 330.096 56.8168 329.812 56.6009C329.531 56.3821 329.177 56.2727 328.751 56.2727C328.342 56.2727 327.998 56.3764 327.72 56.5838C327.441 56.7884 327.231 57.0753 327.089 57.4446C326.947 57.8111 326.876 58.2386 326.876 58.7273ZM334.205 53.2727V62H333.2V53.2727H334.205ZM337.974 62.1534C337.559 62.1534 337.182 62.0753 336.844 61.919C336.506 61.7599 336.238 61.5312 336.039 61.233C335.84 60.9318 335.741 60.5682 335.741 60.142C335.741 59.767 335.814 59.4631 335.962 59.2301C336.11 58.9943 336.307 58.8097 336.555 58.6761C336.802 58.5426 337.074 58.4432 337.373 58.3778C337.674 58.3097 337.976 58.2557 338.28 58.2159C338.678 58.1648 339.001 58.1264 339.248 58.1009C339.498 58.0724 339.68 58.0256 339.793 57.9602C339.91 57.8949 339.968 57.7812 339.968 57.6193V57.5852C339.968 57.1648 339.853 56.8381 339.623 56.6051C339.395 56.3722 339.05 56.2557 338.587 56.2557C338.107 56.2557 337.731 56.3608 337.458 56.571C337.185 56.7812 336.993 57.0057 336.883 57.2443L335.928 56.9034C336.099 56.5057 336.326 56.196 336.61 55.9744C336.897 55.75 337.209 55.5937 337.547 55.5057C337.888 55.4148 338.224 55.3693 338.553 55.3693C338.763 55.3693 339.005 55.3949 339.278 55.446C339.553 55.4943 339.819 55.5952 340.074 55.7486C340.333 55.902 340.547 56.1335 340.718 56.4432C340.888 56.7528 340.974 57.1676 340.974 57.6875V62H339.968V61.1136H339.917C339.849 61.2557 339.735 61.4077 339.576 61.5696C339.417 61.7315 339.205 61.8693 338.941 61.983C338.677 62.0966 338.354 62.1534 337.974 62.1534ZM338.127 61.25C338.525 61.25 338.86 61.1719 339.133 61.0156C339.408 60.8594 339.616 60.6577 339.755 60.4105C339.897 60.1634 339.968 59.9034 339.968 59.6307V58.7102C339.925 58.7614 339.831 58.8082 339.687 58.8509C339.545 58.8906 339.38 58.9261 339.192 58.9574C339.008 58.9858 338.827 59.0114 338.651 59.0341C338.478 59.054 338.337 59.071 338.229 59.0852C337.968 59.1193 337.724 59.1747 337.496 59.2514C337.272 59.3253 337.09 59.4375 336.951 59.5881C336.814 59.7358 336.746 59.9375 336.746 60.1932C336.746 60.5426 336.876 60.8068 337.134 60.9858C337.395 61.1619 337.726 61.25 338.127 61.25ZM345.468 62.1364C344.855 62.1364 344.326 61.9915 343.883 61.7017C343.44 61.4119 343.099 61.0128 342.86 60.5043C342.622 59.9957 342.502 59.4148 342.502 58.7614C342.502 58.0966 342.624 57.5099 342.869 57.0014C343.116 56.4901 343.46 56.0909 343.9 55.804C344.343 55.5142 344.86 55.3693 345.451 55.3693C345.911 55.3693 346.326 55.4545 346.695 55.625C347.065 55.7955 347.367 56.0341 347.603 56.3409C347.839 56.6477 347.985 57.0057 348.042 57.4148H347.036C346.96 57.1165 346.789 56.8523 346.525 56.6222C346.264 56.3892 345.911 56.2727 345.468 56.2727C345.076 56.2727 344.732 56.375 344.437 56.5795C344.144 56.7812 343.916 57.0668 343.751 57.4361C343.589 57.8026 343.508 58.233 343.508 58.7273C343.508 59.233 343.588 59.6733 343.747 60.0483C343.909 60.4233 344.136 60.7145 344.428 60.9219C344.724 61.1293 345.07 61.233 345.468 61.233C345.73 61.233 345.967 61.1875 346.18 61.0966C346.393 61.0057 346.573 60.875 346.721 60.7045C346.869 60.5341 346.974 60.3295 347.036 60.0909H348.042C347.985 60.4773 347.845 60.8253 347.62 61.1349C347.399 61.4418 347.105 61.6861 346.738 61.8679C346.374 62.0469 345.951 62.1364 345.468 62.1364ZM352.257 62.1364C351.626 62.1364 351.082 61.9972 350.624 61.7188C350.17 61.4375 349.819 61.0455 349.572 60.5426C349.328 60.0369 349.205 59.4489 349.205 58.7784C349.205 58.108 349.328 57.517 349.572 57.0057C349.819 56.4915 350.163 56.0909 350.603 55.804C351.046 55.5142 351.563 55.3693 352.154 55.3693C352.495 55.3693 352.832 55.4261 353.164 55.5398C353.497 55.6534 353.799 55.8381 354.072 56.0938C354.345 56.3466 354.562 56.6818 354.724 57.0994C354.886 57.517 354.967 58.0312 354.967 58.642V59.0682H349.921V58.1989H353.944C353.944 57.8295 353.87 57.5 353.722 57.2102C353.578 56.9205 353.37 56.6918 353.1 56.5241C352.833 56.3565 352.518 56.2727 352.154 56.2727C351.754 56.2727 351.407 56.3722 351.115 56.571C350.825 56.767 350.602 57.0227 350.445 57.3381C350.289 57.6534 350.211 57.9915 350.211 58.3523V58.9318C350.211 59.4261 350.296 59.8452 350.467 60.1889C350.64 60.5298 350.88 60.7898 351.187 60.9688C351.494 61.1449 351.85 61.233 352.257 61.233C352.521 61.233 352.759 61.196 352.972 61.1222C353.188 61.0455 353.374 60.9318 353.531 60.7812C353.687 60.6278 353.808 60.4375 353.893 60.2102L354.865 60.483C354.762 60.8125 354.59 61.1023 354.349 61.3523C354.107 61.5994 353.809 61.7926 353.454 61.9318C353.099 62.0682 352.7 62.1364 352.257 62.1364ZM358.423 62.1534C358.008 62.1534 357.632 62.0753 357.294 61.919C356.955 61.7599 356.687 61.5312 356.488 61.233C356.289 60.9318 356.19 60.5682 356.19 60.142C356.19 59.767 356.264 59.4631 356.411 59.2301C356.559 58.9943 356.757 58.8097 357.004 58.6761C357.251 58.5426 357.524 58.4432 357.822 58.3778C358.123 58.3097 358.426 58.2557 358.73 58.2159C359.127 58.1648 359.45 58.1264 359.697 58.1009C359.947 58.0724 360.129 58.0256 360.242 57.9602C360.359 57.8949 360.417 57.7812 360.417 57.6193V57.5852C360.417 57.1648 360.302 56.8381 360.072 56.6051C359.845 56.3722 359.499 56.2557 359.036 56.2557C358.556 56.2557 358.18 56.3608 357.907 56.571C357.634 56.7812 357.443 57.0057 357.332 57.2443L356.377 56.9034C356.548 56.5057 356.775 56.196 357.059 55.9744C357.346 55.75 357.659 55.5937 357.997 55.5057C358.338 55.4148 358.673 55.3693 359.002 55.3693C359.213 55.3693 359.454 55.3949 359.727 55.446C360.002 55.4943 360.268 55.5952 360.524 55.7486C360.782 55.902 360.997 56.1335 361.167 56.4432C361.338 56.7528 361.423 57.1676 361.423 57.6875V62H360.417V61.1136H360.366C360.298 61.2557 360.184 61.4077 360.025 61.5696C359.866 61.7315 359.654 61.8693 359.39 61.983C359.126 62.0966 358.803 62.1534 358.423 62.1534ZM358.576 61.25C358.974 61.25 359.309 61.1719 359.582 61.0156C359.857 60.8594 360.065 60.6577 360.204 60.4105C360.346 60.1634 360.417 59.9034 360.417 59.6307V58.7102C360.374 58.7614 360.281 58.8082 360.136 58.8509C359.994 58.8906 359.829 58.9261 359.642 58.9574C359.457 58.9858 359.276 59.0114 359.1 59.0341C358.927 59.054 358.786 59.071 358.678 59.0852C358.417 59.1193 358.173 59.1747 357.945 59.2514C357.721 59.3253 357.539 59.4375 357.4 59.5881C357.264 59.7358 357.195 59.9375 357.195 60.1932C357.195 60.5426 357.325 60.8068 357.583 60.9858C357.845 61.1619 358.176 61.25 358.576 61.25ZM363.395 62V53.2727H364.4V56.4943H364.486C364.559 56.3807 364.662 56.2358 364.792 56.0597C364.926 55.8807 365.116 55.7216 365.363 55.5824C365.613 55.4403 365.952 55.3693 366.378 55.3693C366.929 55.3693 367.415 55.5071 367.835 55.7827C368.256 56.0582 368.584 56.4489 368.819 56.9545C369.055 57.4602 369.173 58.0568 369.173 58.7443C369.173 59.4375 369.055 60.0384 368.819 60.5469C368.584 61.0526 368.257 61.4446 367.839 61.723C367.422 61.9986 366.94 62.1364 366.395 62.1364C365.974 62.1364 365.638 62.0668 365.385 61.9276C365.132 61.7855 364.937 61.625 364.801 61.446C364.665 61.2642 364.559 61.1136 364.486 60.9943H364.366V62H363.395ZM364.383 58.7273C364.383 59.2216 364.456 59.6577 364.601 60.0355C364.746 60.4105 364.957 60.7045 365.236 60.9176C365.514 61.1278 365.855 61.233 366.258 61.233C366.679 61.233 367.03 61.1222 367.311 60.9006C367.595 60.6761 367.808 60.375 367.95 59.9972C368.095 59.6165 368.167 59.1932 368.167 58.7273C368.167 58.267 368.096 57.8523 367.954 57.483C367.815 57.1108 367.604 56.8168 367.319 56.6009C367.038 56.3821 366.684 56.2727 366.258 56.2727C365.849 56.2727 365.506 56.3764 365.227 56.5838C364.949 56.7884 364.738 57.0753 364.596 57.4446C364.454 57.8111 364.383 58.2386 364.383 58.7273ZM371.717 53.2727V62H370.711V53.2727H371.717ZM376.303 62.1364C375.673 62.1364 375.129 61.9972 374.671 61.7188C374.217 61.4375 373.866 61.0455 373.619 60.5426C373.374 60.0369 373.252 59.4489 373.252 58.7784C373.252 58.108 373.374 57.517 373.619 57.0057C373.866 56.4915 374.21 56.0909 374.65 55.804C375.093 55.5142 375.61 55.3693 376.201 55.3693C376.542 55.3693 376.879 55.4261 377.211 55.5398C377.544 55.6534 377.846 55.8381 378.119 56.0938C378.392 56.3466 378.609 56.6818 378.771 57.0994C378.933 57.517 379.014 58.0312 379.014 58.642V59.0682H373.968V58.1989H377.991C377.991 57.8295 377.917 57.5 377.769 57.2102C377.624 56.9205 377.417 56.6918 377.147 56.5241C376.88 56.3565 376.565 56.2727 376.201 56.2727C375.801 56.2727 375.454 56.3722 375.161 56.571C374.872 56.767 374.649 57.0227 374.492 57.3381C374.336 57.6534 374.258 57.9915 374.258 58.3523V58.9318C374.258 59.4261 374.343 59.8452 374.514 60.1889C374.687 60.5298 374.927 60.7898 375.234 60.9688C375.541 61.1449 375.897 61.233 376.303 61.233C376.568 61.233 376.806 61.196 377.019 61.1222C377.235 61.0455 377.421 60.9318 377.578 60.7812C377.734 60.6278 377.855 60.4375 377.94 60.2102L378.911 60.483C378.809 60.8125 378.637 61.1023 378.396 61.3523C378.154 61.5994 377.856 61.7926 377.501 61.9318C377.146 62.0682 376.747 62.1364 376.303 62.1364Z" fill="#D9DDE3"/>
<path fill-rule="evenodd" clip-rule="evenodd" d="M400.471 53.5288C400.732 53.7891 400.732 54.2112 400.471 54.4716L392.471 62.4716C392.211 62.7319 391.789 62.7319 391.529 62.4716C391.268 62.2112 391.268 61.7891 391.529 61.5288L399.529 53.5288C399.789 53.2684 400.211 53.2684 400.471 53.5288Z" fill="#D9DDE3"/>
<path fill-rule="evenodd" clip-rule="evenodd" d="M391.529 53.5288C391.789 53.2684 392.211 53.2684 392.471 53.5288L400.471 61.5288C400.732 61.7891 400.732 62.2112 400.471 62.4716C400.211 62.7319 399.789 62.7319 399.529 62.4716L391.529 54.4716C391.268 54.2112 391.268 53.7891 391.529 53.5288Z" fill="#D9DDE3"/>
<rect x="151" y="74" width="88" height="24" rx="4" fill="#5A697C"/>
<path d="M163.767 81.2727H164.824V87.5114C164.824 88.0682 164.721 88.5412 164.517 88.9304C164.312 89.3196 164.024 89.6151 163.652 89.8168C163.28 90.0185 162.841 90.1193 162.335 90.1193C161.858 90.1193 161.433 90.0327 161.061 89.8594C160.689 89.6832 160.396 89.4332 160.183 89.1094C159.97 88.7855 159.863 88.4006 159.863 87.9545H160.903C160.903 88.2017 160.964 88.4176 161.086 88.6023C161.211 88.7841 161.382 88.9261 161.598 89.0284C161.814 89.1307 162.059 89.1818 162.335 89.1818C162.639 89.1818 162.898 89.1179 163.111 88.9901C163.324 88.8622 163.486 88.6747 163.596 88.4276C163.71 88.1776 163.767 87.8722 163.767 87.5114V81.2727ZM168.731 90.1534C168.317 90.1534 167.94 90.0753 167.602 89.919C167.264 89.7599 166.996 89.5312 166.797 89.233C166.598 88.9318 166.498 88.5682 166.498 88.142C166.498 87.767 166.572 87.4631 166.72 87.2301C166.868 86.9943 167.065 86.8097 167.312 86.6761C167.559 86.5426 167.832 86.4432 168.131 86.3778C168.432 86.3097 168.734 86.2557 169.038 86.2159C169.436 86.1648 169.758 86.1264 170.006 86.1009C170.256 86.0724 170.437 86.0256 170.551 85.9602C170.667 85.8949 170.726 85.7812 170.726 85.6193V85.5852C170.726 85.1648 170.611 84.8381 170.381 84.6051C170.153 84.3722 169.808 84.2557 169.345 84.2557C168.865 84.2557 168.488 84.3608 168.216 84.571C167.943 84.7812 167.751 85.0057 167.64 85.2443L166.686 84.9034C166.856 84.5057 167.084 84.196 167.368 83.9744C167.655 83.75 167.967 83.5937 168.305 83.5057C168.646 83.4148 168.981 83.3693 169.311 83.3693C169.521 83.3693 169.763 83.3949 170.035 83.446C170.311 83.4943 170.577 83.5952 170.832 83.7486C171.091 83.902 171.305 84.1335 171.476 84.4432C171.646 84.7528 171.731 85.1676 171.731 85.6875V90H170.726V89.1136H170.675C170.606 89.2557 170.493 89.4077 170.334 89.5696C170.175 89.7315 169.963 89.8693 169.699 89.983C169.434 90.0966 169.112 90.1534 168.731 90.1534ZM168.885 89.25C169.282 89.25 169.618 89.1719 169.89 89.0156C170.166 88.8594 170.373 88.6577 170.513 88.4105C170.655 88.1634 170.726 87.9034 170.726 87.6307V86.7102C170.683 86.7614 170.589 86.8082 170.444 86.8509C170.302 86.8906 170.138 86.9261 169.95 86.9574C169.765 86.9858 169.585 87.0114 169.409 87.0341C169.236 87.054 169.095 87.071 168.987 87.0852C168.726 87.1193 168.481 87.1747 168.254 87.2514C168.03 87.3253 167.848 87.4375 167.709 87.5881C167.572 87.7358 167.504 87.9375 167.504 88.1932C167.504 88.5426 167.633 88.8068 167.892 88.9858C168.153 89.1619 168.484 89.25 168.885 89.25ZM173.567 90V83.4545H174.573V90H173.567ZM174.078 82.3636C173.882 82.3636 173.713 82.2969 173.571 82.1634C173.432 82.0298 173.362 81.8693 173.362 81.6818C173.362 81.4943 173.432 81.3338 173.571 81.2003C173.713 81.0668 173.882 81 174.078 81C174.274 81 174.442 81.0668 174.581 81.2003C174.723 81.3338 174.794 81.4943 174.794 81.6818C174.794 81.8693 174.723 82.0298 174.581 82.1634C174.442 82.2969 174.274 82.3636 174.078 82.3636ZM177.42 81.2727V90H176.415V81.2727H177.42ZM179.399 90V81.2727H180.404V84.4943H180.49C180.563 84.3807 180.666 84.2358 180.796 84.0597C180.93 83.8807 181.12 83.7216 181.367 83.5824C181.617 83.4403 181.955 83.3693 182.382 83.3693C182.933 83.3693 183.419 83.5071 183.839 83.7827C184.259 84.0582 184.588 84.4489 184.823 84.9545C185.059 85.4602 185.177 86.0568 185.177 86.7443C185.177 87.4375 185.059 88.0384 184.823 88.5469C184.588 89.0526 184.261 89.4446 183.843 89.723C183.426 89.9986 182.944 90.1364 182.399 90.1364C181.978 90.1364 181.642 90.0668 181.389 89.9276C181.136 89.7855 180.941 89.625 180.805 89.446C180.669 89.2642 180.563 89.1136 180.49 88.9943H180.37V90H179.399ZM180.387 86.7273C180.387 87.2216 180.46 87.6577 180.605 88.0355C180.749 88.4105 180.961 88.7045 181.24 88.9176C181.518 89.1278 181.859 89.233 182.262 89.233C182.683 89.233 183.034 89.1222 183.315 88.9006C183.599 88.6761 183.812 88.375 183.954 87.9972C184.099 87.6165 184.171 87.1932 184.171 86.7273C184.171 86.267 184.1 85.8523 183.958 85.483C183.819 85.1108 183.607 84.8168 183.323 84.6009C183.042 84.3821 182.688 84.2727 182.262 84.2727C181.853 84.2727 181.509 84.3764 181.231 84.5838C180.953 84.7884 180.742 85.0753 180.6 85.4446C180.458 85.8111 180.387 86.2386 180.387 86.7273ZM186.715 90V83.4545H187.721V90H186.715ZM187.227 82.3636C187.031 82.3636 186.862 82.2969 186.72 82.1634C186.58 82.0298 186.511 81.8693 186.511 81.6818C186.511 81.4943 186.58 81.3338 186.72 81.2003C186.862 81.0668 187.031 81 187.227 81C187.423 81 187.59 81.0668 187.73 81.2003C187.872 81.3338 187.943 81.4943 187.943 81.6818C187.943 81.8693 187.872 82.0298 187.73 82.1634C187.59 82.2969 187.423 82.3636 187.227 82.3636ZM189.563 90V83.4545H190.535V84.4432H190.603C190.722 84.1193 190.938 83.8565 191.251 83.6548C191.563 83.4531 191.915 83.3523 192.307 83.3523C192.381 83.3523 192.474 83.3537 192.584 83.3565C192.695 83.3594 192.779 83.3636 192.836 83.3693V84.392C192.802 84.3835 192.724 84.3707 192.601 84.3537C192.482 84.3338 192.356 84.3239 192.222 84.3239C191.904 84.3239 191.62 84.3906 191.37 84.5241C191.123 84.6548 190.927 84.8366 190.782 85.0696C190.64 85.2997 190.569 85.5625 190.569 85.858V90H189.563ZM196.3 90.1364C195.755 90.1364 195.273 89.9986 194.856 89.723C194.438 89.4446 194.111 89.0526 193.876 88.5469C193.64 88.0384 193.522 87.4375 193.522 86.7443C193.522 86.0568 193.64 85.4602 193.876 84.9545C194.111 84.4489 194.439 84.0582 194.86 83.7827C195.28 83.5071 195.766 83.3693 196.317 83.3693C196.743 83.3693 197.08 83.4403 197.327 83.5824C197.577 83.7216 197.768 83.8807 197.898 84.0597C198.032 84.2358 198.135 84.3807 198.209 84.4943H198.295V81.2727H199.3V90H198.329V88.9943H198.209C198.135 89.1136 198.03 89.2642 197.894 89.446C197.758 89.625 197.563 89.7855 197.31 89.9276C197.057 90.0668 196.721 90.1364 196.3 90.1364ZM196.437 89.233C196.84 89.233 197.181 89.1278 197.459 88.9176C197.738 88.7045 197.949 88.4105 198.094 88.0355C198.239 87.6577 198.312 87.2216 198.312 86.7273C198.312 86.2386 198.241 85.8111 198.099 85.4446C197.956 85.0753 197.746 84.7884 197.468 84.5838C197.189 84.3764 196.846 84.2727 196.437 84.2727C196.01 84.2727 195.655 84.3821 195.371 84.6009C195.09 84.8168 194.878 85.1108 194.736 85.483C194.597 85.8523 194.528 86.267 194.528 86.7273C194.528 87.1932 194.599 87.6165 194.741 87.9972C194.885 88.375 195.099 88.6761 195.38 88.9006C195.664 89.1222 196.016 89.233 196.437 89.233ZM205.918 84.9205L205.015 85.1761C204.958 85.0256 204.874 84.8793 204.763 84.7372C204.655 84.5923 204.508 84.473 204.32 84.3793C204.133 84.2855 203.893 84.2386 203.6 84.2386C203.199 84.2386 202.866 84.331 202.599 84.5156C202.334 84.6974 202.202 84.929 202.202 85.2102C202.202 85.4602 202.293 85.6577 202.475 85.8026C202.657 85.9474 202.941 86.0682 203.327 86.1648L204.299 86.4034C204.884 86.5455 205.32 86.7628 205.607 87.0554C205.894 87.3452 206.037 87.7187 206.037 88.1761C206.037 88.5511 205.93 88.8864 205.714 89.1818C205.501 89.4773 205.202 89.7102 204.819 89.8807C204.435 90.0511 203.989 90.1364 203.481 90.1364C202.813 90.1364 202.26 89.9915 201.823 89.7017C201.385 89.4119 201.108 88.9886 200.992 88.4318L201.947 88.1932C202.037 88.5455 202.209 88.8097 202.462 88.9858C202.718 89.1619 203.052 89.25 203.464 89.25C203.932 89.25 204.305 89.1506 204.58 88.9517C204.858 88.75 204.998 88.5085 204.998 88.2273C204.998 88 204.918 87.8097 204.759 87.6562C204.6 87.5 204.356 87.3835 204.026 87.3068L202.935 87.0511C202.336 86.9091 201.895 86.6889 201.614 86.3906C201.336 86.0895 201.197 85.7131 201.197 85.2614C201.197 84.892 201.3 84.5653 201.508 84.2812C201.718 83.9972 202.003 83.7741 202.364 83.6122C202.728 83.4503 203.14 83.3693 203.6 83.3693C204.248 83.3693 204.756 83.5114 205.126 83.7955C205.498 84.0795 205.762 84.4545 205.918 84.9205Z" fill="#D9DDE3"/>
<path fill-rule="evenodd" clip-rule="evenodd" d="M227.471 81.5288C227.732 81.7891 227.732 82.2112 227.471 82.4716L219.471 90.4716C219.211 90.7319 218.789 90.7319 218.529 90.4716C218.268 90.2112 218.268 89.7891 218.529 89.5288L226.529 81.5288C226.789 81.2684 227.211 81.2684 227.471 81.5288Z" fill="#D9DDE3"/>
<path fill-rule="evenodd" clip-rule="evenodd" d="M218.529 81.5288C218.789 81.2684 219.211 81.2684 219.471 81.5288L227.471 89.5288C227.732 89.7891 227.732 90.2112 227.471 90.4716C227.211 90.7319 226.789 90.7319 226.529 90.4716L218.529 82.4716C218.268 82.2112 218.268 81.7891 218.529 81.5288Z" fill="#D9DDE3"/>
<rect x="243" y="74" width="179" height="24" rx="4" fill="#5A697C"/>
<path d="M254.697 90.1193C254.197 90.1193 253.747 90.0199 253.346 89.821C252.946 89.6222 252.625 89.3494 252.383 89.0028C252.142 88.6562 252.01 88.2614 251.987 87.8182H253.01C253.049 88.2131 253.228 88.5398 253.547 88.7983C253.868 89.054 254.251 89.1818 254.697 89.1818C255.055 89.1818 255.373 89.098 255.652 88.9304C255.933 88.7628 256.153 88.5327 256.312 88.2401C256.474 87.9446 256.555 87.6108 256.555 87.2386C256.555 86.858 256.471 86.5185 256.304 86.2202C256.139 85.919 255.912 85.6818 255.622 85.5085C255.332 85.3352 255.001 85.2472 254.629 85.2443C254.362 85.2415 254.088 85.2827 253.806 85.3679C253.525 85.4503 253.294 85.5568 253.112 85.6875L252.123 85.5682L252.652 81.2727H257.186V82.2102H253.538L253.231 84.7841H253.282C253.461 84.642 253.686 84.5241 253.956 84.4304C254.225 84.3366 254.507 84.2898 254.799 84.2898C255.333 84.2898 255.809 84.4176 256.227 84.6733C256.647 84.9261 256.977 85.2727 257.216 85.7131C257.457 86.1534 257.578 86.6562 257.578 87.2216C257.578 87.7784 257.453 88.2756 257.203 88.7131C256.956 89.1477 256.615 89.4915 256.18 89.7443C255.745 89.9943 255.251 90.1193 254.697 90.1193ZM263.856 81.2727V90H262.799V81.2727H263.856ZM270.475 84.9205L269.571 85.1761C269.515 85.0256 269.431 84.8793 269.32 84.7372C269.212 84.5923 269.064 84.473 268.877 84.3793C268.689 84.2855 268.449 84.2386 268.157 84.2386C267.756 84.2386 267.422 84.331 267.155 84.5156C266.891 84.6974 266.759 84.929 266.759 85.2102C266.759 85.4602 266.85 85.6577 267.032 85.8026C267.213 85.9474 267.498 86.0682 267.884 86.1648L268.855 86.4034C269.441 86.5455 269.877 86.7628 270.164 87.0554C270.451 87.3452 270.594 87.7187 270.594 88.1761C270.594 88.5511 270.486 88.8864 270.27 89.1818C270.057 89.4773 269.759 89.7102 269.375 89.8807C268.992 90.0511 268.546 90.1364 268.037 90.1364C267.37 90.1364 266.817 89.9915 266.38 89.7017C265.942 89.4119 265.665 88.9886 265.549 88.4318L266.503 88.1932C266.594 88.5455 266.766 88.8097 267.019 88.9858C267.275 89.1619 267.608 89.25 268.02 89.25C268.489 89.25 268.861 89.1506 269.137 88.9517C269.415 88.75 269.554 88.5085 269.554 88.2273C269.554 88 269.475 87.8097 269.316 87.6562C269.157 87.5 268.912 87.3835 268.583 87.3068L267.492 87.0511C266.892 86.9091 266.452 86.6889 266.171 86.3906C265.892 86.0895 265.753 85.7131 265.753 85.2614C265.753 84.892 265.857 84.5653 266.064 84.2812C266.275 83.9972 266.56 83.7741 266.921 83.6122C267.284 83.4503 267.696 83.3693 268.157 83.3693C268.804 83.3693 269.313 83.5114 269.682 83.7955C270.054 84.0795 270.319 84.4545 270.475 84.9205ZM275.142 82.2102V81.2727H281.688V82.2102H278.943V90H277.886V82.2102H275.142ZM284.188 86.0625V90H283.182V81.2727H284.188V84.4773H284.273C284.426 84.1392 284.657 83.8707 284.963 83.6719C285.273 83.4702 285.685 83.3693 286.199 83.3693C286.645 83.3693 287.036 83.4588 287.371 83.6378C287.706 83.8139 287.966 84.0852 288.151 84.4517C288.338 84.8153 288.432 85.2784 288.432 85.8409V90H287.426V85.9091C287.426 85.3892 287.292 84.9872 287.022 84.7031C286.755 84.4162 286.384 84.2727 285.909 84.2727C285.58 84.2727 285.284 84.3423 285.023 84.4815C284.765 84.6207 284.56 84.8239 284.409 85.0909C284.262 85.358 284.188 85.6818 284.188 86.0625ZM293.016 90.1364C292.386 90.1364 291.842 89.9972 291.384 89.7188C290.93 89.4375 290.579 89.0455 290.332 88.5426C290.087 88.0369 289.965 87.4489 289.965 86.7784C289.965 86.108 290.087 85.517 290.332 85.0057C290.579 84.4915 290.923 84.0909 291.363 83.804C291.806 83.5142 292.323 83.3693 292.914 83.3693C293.255 83.3693 293.592 83.4261 293.924 83.5398C294.256 83.6534 294.559 83.8381 294.832 84.0938C295.104 84.3466 295.322 84.6818 295.484 85.0994C295.646 85.517 295.727 86.0312 295.727 86.642V87.0682H290.681V86.1989H294.704C294.704 85.8295 294.63 85.5 294.482 85.2102C294.337 84.9205 294.13 84.6918 293.86 84.5241C293.593 84.3565 293.278 84.2727 292.914 84.2727C292.513 84.2727 292.167 84.3722 291.874 84.571C291.585 84.767 291.362 85.0227 291.205 85.3381C291.049 85.6534 290.971 85.9915 290.971 86.3523V86.9318C290.971 87.4261 291.056 87.8452 291.227 88.1889C291.4 88.5298 291.64 88.7898 291.947 88.9688C292.254 89.1449 292.61 89.233 293.016 89.233C293.281 89.233 293.519 89.196 293.732 89.1222C293.948 89.0455 294.134 88.9318 294.29 88.7812C294.447 88.6278 294.567 88.4375 294.653 88.2102L295.624 88.483C295.522 88.8125 295.35 89.1023 295.109 89.3523C294.867 89.5994 294.569 89.7926 294.214 89.9318C293.859 90.0682 293.46 90.1364 293.016 90.1364ZM300.768 90V81.2727H303.717C304.401 81.2727 304.961 81.3963 305.396 81.6435C305.833 81.8878 306.157 82.2188 306.367 82.6364C306.577 83.054 306.683 83.5199 306.683 84.0341C306.683 84.5483 306.577 85.0156 306.367 85.4361C306.16 85.8565 305.839 86.1918 305.404 86.4418C304.969 86.6889 304.413 86.8125 303.734 86.8125H301.62V85.875H303.7C304.168 85.875 304.545 85.794 304.829 85.6321C305.113 85.4702 305.319 85.2514 305.447 84.9759C305.577 84.6974 305.643 84.3835 305.643 84.0341C305.643 83.6847 305.577 83.3722 305.447 83.0966C305.319 82.821 305.112 82.6051 304.825 82.4489C304.538 82.2898 304.157 82.2102 303.683 82.2102H301.825V90H300.768ZM310.923 90.1364C310.292 90.1364 309.748 89.9972 309.29 89.7188C308.836 89.4375 308.485 89.0455 308.238 88.5426C307.994 88.0369 307.871 87.4489 307.871 86.7784C307.871 86.108 307.994 85.517 308.238 85.0057C308.485 84.4915 308.829 84.0909 309.269 83.804C309.712 83.5142 310.229 83.3693 310.82 83.3693C311.161 83.3693 311.498 83.4261 311.83 83.5398C312.163 83.6534 312.465 83.8381 312.738 84.0938C313.011 84.3466 313.228 84.6818 313.39 85.0994C313.552 85.517 313.633 86.0312 313.633 86.642V87.0682H308.587V86.1989H312.61C312.61 85.8295 312.536 85.5 312.388 85.2102C312.244 84.9205 312.036 84.6918 311.766 84.5241C311.499 84.3565 311.184 84.2727 310.82 84.2727C310.42 84.2727 310.073 84.3722 309.781 84.571C309.491 84.767 309.268 85.0227 309.112 85.3381C308.955 85.6534 308.877 85.9915 308.877 86.3523V86.9318C308.877 87.4261 308.962 87.8452 309.133 88.1889C309.306 88.5298 309.546 88.7898 309.853 88.9688C310.16 89.1449 310.516 89.233 310.923 89.233C311.187 89.233 311.425 89.196 311.638 89.1222C311.854 89.0455 312.04 88.9318 312.197 88.7812C312.353 88.6278 312.474 88.4375 312.559 88.2102L313.531 88.483C313.428 88.8125 313.256 89.1023 313.015 89.3523C312.773 89.5994 312.475 89.7926 312.12 89.9318C311.765 90.0682 311.366 90.1364 310.923 90.1364ZM315.163 90V83.4545H316.134V84.4432H316.202C316.322 84.1193 316.538 83.8565 316.85 83.6548C317.163 83.4531 317.515 83.3523 317.907 83.3523C317.981 83.3523 318.073 83.3537 318.184 83.3565C318.295 83.3594 318.379 83.3636 318.435 83.3693V84.392C318.401 84.3835 318.323 84.3707 318.201 84.3537C318.082 84.3338 317.955 84.3239 317.822 84.3239C317.504 84.3239 317.219 84.3906 316.969 84.5241C316.722 84.6548 316.526 84.8366 316.381 85.0696C316.239 85.2997 316.168 85.5625 316.168 85.858V90H315.163ZM322.952 83.4545V84.3068H319.424V83.4545H322.952ZM320.481 90V82.5511C320.481 82.1761 320.569 81.8636 320.745 81.6136C320.921 81.3636 321.15 81.1761 321.431 81.0511C321.712 80.9261 322.009 80.8636 322.322 80.8636C322.569 80.8636 322.771 80.8835 322.927 80.9233C323.083 80.9631 323.2 81 323.276 81.0341L322.987 81.9034C322.935 81.8864 322.864 81.8651 322.773 81.8395C322.685 81.8139 322.569 81.8011 322.424 81.8011C322.092 81.8011 321.852 81.8849 321.704 82.0526C321.559 82.2202 321.487 82.4659 321.487 82.7898V90H320.481ZM326.837 90.1364C326.206 90.1364 325.662 89.9972 325.205 89.7188C324.75 89.4375 324.399 89.0455 324.152 88.5426C323.908 88.0369 323.786 87.4489 323.786 86.7784C323.786 86.108 323.908 85.517 324.152 85.0057C324.399 84.4915 324.743 84.0909 325.183 83.804C325.626 83.5142 326.143 83.3693 326.734 83.3693C327.075 83.3693 327.412 83.4261 327.744 83.5398C328.077 83.6534 328.379 83.8381 328.652 84.0938C328.925 84.3466 329.142 84.6818 329.304 85.0994C329.466 85.517 329.547 86.0312 329.547 86.642V87.0682H324.501V86.1989H328.524C328.524 85.8295 328.45 85.5 328.303 85.2102C328.158 84.9205 327.95 84.6918 327.68 84.5241C327.413 84.3565 327.098 84.2727 326.734 84.2727C326.334 84.2727 325.987 84.3722 325.695 84.571C325.405 84.767 325.182 85.0227 325.026 85.3381C324.869 85.6534 324.791 85.9915 324.791 86.3523V86.9318C324.791 87.4261 324.876 87.8452 325.047 88.1889C325.22 88.5298 325.46 88.7898 325.767 88.9688C326.074 89.1449 326.43 89.233 326.837 89.233C327.101 89.233 327.339 89.196 327.553 89.1222C327.768 89.0455 327.955 88.9318 328.111 88.7812C328.267 88.6278 328.388 88.4375 328.473 88.2102L329.445 88.483C329.342 88.8125 329.17 89.1023 328.929 89.3523C328.688 89.5994 328.389 89.7926 328.034 89.9318C327.679 90.0682 327.28 90.1364 326.837 90.1364ZM333.736 90.1364C333.122 90.1364 332.594 89.9915 332.151 89.7017C331.707 89.4119 331.366 89.0128 331.128 88.5043C330.889 87.9957 330.77 87.4148 330.77 86.7614C330.77 86.0966 330.892 85.5099 331.136 85.0014C331.384 84.4901 331.727 84.0909 332.168 83.804C332.611 83.5142 333.128 83.3693 333.719 83.3693C334.179 83.3693 334.594 83.4545 334.963 83.625C335.332 83.7955 335.635 84.0341 335.871 84.3409C336.107 84.6477 336.253 85.0057 336.31 85.4148H335.304C335.227 85.1165 335.057 84.8523 334.793 84.6222C334.531 84.3892 334.179 84.2727 333.736 84.2727C333.344 84.2727 333 84.375 332.705 84.5795C332.412 84.7812 332.183 85.0668 332.018 85.4361C331.857 85.8026 331.776 86.233 331.776 86.7273C331.776 87.233 331.855 87.6733 332.014 88.0483C332.176 88.4233 332.403 88.7145 332.696 88.9219C332.991 89.1293 333.338 89.233 333.736 89.233C333.997 89.233 334.234 89.1875 334.447 89.0966C334.661 89.0057 334.841 88.875 334.989 88.7045C335.136 88.5341 335.241 88.3295 335.304 88.0909H336.31C336.253 88.4773 336.112 88.8253 335.888 89.1349C335.666 89.4418 335.372 89.6861 335.006 89.8679C334.642 90.0469 334.219 90.1364 333.736 90.1364ZM340.626 83.4545V84.3068H337.234V83.4545H340.626ZM338.223 81.8864H339.229V88.125C339.229 88.4091 339.27 88.6222 339.352 88.7642C339.438 88.9034 339.545 88.9972 339.676 89.0455C339.81 89.0909 339.95 89.1136 340.098 89.1136C340.209 89.1136 340.3 89.108 340.371 89.0966C340.442 89.0824 340.499 89.071 340.541 89.0625L340.746 89.9659C340.678 89.9915 340.582 90.017 340.46 90.0426C340.338 90.071 340.183 90.0852 339.996 90.0852C339.712 90.0852 339.433 90.0241 339.161 89.902C338.891 89.7798 338.666 89.5938 338.487 89.3438C338.311 89.0938 338.223 88.7784 338.223 88.3977V81.8864ZM352.571 81.2727V90H351.548L346.793 83.1477H346.707V90H345.651V81.2727H346.673L351.446 88.142H351.531V81.2727H352.571ZM358.674 87.3239V83.4545H359.68V90H358.674V88.892H358.606C358.453 89.2244 358.214 89.5071 357.89 89.7401C357.566 89.9702 357.157 90.0852 356.663 90.0852C356.254 90.0852 355.89 89.9957 355.572 89.8168C355.254 89.6349 355.004 89.3622 354.822 88.9986C354.64 88.6321 354.549 88.1705 354.549 87.6136V83.4545H355.555V87.5455C355.555 88.0227 355.689 88.4034 355.956 88.6875C356.225 88.9716 356.569 89.1136 356.987 89.1136C357.237 89.1136 357.491 89.0497 357.75 88.9219C358.011 88.794 358.23 88.598 358.406 88.3338C358.585 88.0696 358.674 87.733 358.674 87.3239ZM361.522 90V83.4545H362.494V84.4773H362.579C362.715 84.1278 362.935 83.8565 363.239 83.6634C363.543 83.4673 363.908 83.3693 364.335 83.3693C364.766 83.3693 365.126 83.4673 365.413 83.6634C365.702 83.8565 365.928 84.1278 366.09 84.4773H366.158C366.326 84.1392 366.577 83.8707 366.913 83.6719C367.248 83.4702 367.65 83.3693 368.119 83.3693C368.704 83.3693 369.183 83.5526 369.555 83.919C369.927 84.2827 370.113 84.8494 370.113 85.6193V90H369.107V85.6193C369.107 85.1364 368.975 84.7912 368.711 84.5838C368.447 84.3764 368.136 84.2727 367.778 84.2727C367.317 84.2727 366.961 84.4119 366.708 84.6903C366.455 84.9659 366.329 85.3153 366.329 85.7386V90H365.306V85.517C365.306 85.1449 365.185 84.8452 364.944 84.6179C364.702 84.3878 364.391 84.2727 364.011 84.2727C363.749 84.2727 363.505 84.3423 363.278 84.4815C363.053 84.6207 362.871 84.8139 362.732 85.0611C362.596 85.3054 362.528 85.5881 362.528 85.9091V90H361.522ZM372.088 90V81.2727H373.094V84.4943H373.179C373.253 84.3807 373.355 84.2358 373.486 84.0597C373.619 83.8807 373.81 83.7216 374.057 83.5824C374.307 83.4403 374.645 83.3693 375.071 83.3693C375.622 83.3693 376.108 83.5071 376.528 83.7827C376.949 84.0582 377.277 84.4489 377.513 84.9545C377.749 85.4602 377.866 86.0568 377.866 86.7443C377.866 87.4375 377.749 88.0384 377.513 88.5469C377.277 89.0526 376.95 89.4446 376.533 89.723C376.115 89.9986 375.634 90.1364 375.088 90.1364C374.668 90.1364 374.331 90.0668 374.078 89.9276C373.825 89.7855 373.631 89.625 373.494 89.446C373.358 89.2642 373.253 89.1136 373.179 88.9943H373.06V90H372.088ZM373.077 86.7273C373.077 87.2216 373.149 87.6577 373.294 88.0355C373.439 88.4105 373.651 88.7045 373.929 88.9176C374.207 89.1278 374.548 89.233 374.952 89.233C375.372 89.233 375.723 89.1222 376.004 88.9006C376.288 88.6761 376.501 88.375 376.643 87.9972C376.788 87.6165 376.861 87.1932 376.861 86.7273C376.861 86.267 376.79 85.8523 376.648 85.483C376.509 85.1108 376.297 84.8168 376.013 84.6009C375.732 84.3821 375.378 84.2727 374.952 84.2727C374.543 84.2727 374.199 84.3764 373.92 84.5838C373.642 84.7884 373.432 85.0753 373.29 85.4446C373.148 85.8111 373.077 86.2386 373.077 86.7273ZM382.149 90.1364C381.518 90.1364 380.974 89.9972 380.517 89.7188C380.062 89.4375 379.712 89.0455 379.464 88.5426C379.22 88.0369 379.098 87.4489 379.098 86.7784C379.098 86.108 379.22 85.517 379.464 85.0057C379.712 84.4915 380.055 84.0909 380.496 83.804C380.939 83.5142 381.456 83.3693 382.047 83.3693C382.388 83.3693 382.724 83.4261 383.057 83.5398C383.389 83.6534 383.692 83.8381 383.964 84.0938C384.237 84.3466 384.455 84.6818 384.616 85.0994C384.778 85.517 384.859 86.0312 384.859 86.642V87.0682H379.814V86.1989H383.837C383.837 85.8295 383.763 85.5 383.615 85.2102C383.47 84.9205 383.263 84.6918 382.993 84.5241C382.726 84.3565 382.411 84.2727 382.047 84.2727C381.646 84.2727 381.3 84.3722 381.007 84.571C380.717 84.767 380.494 85.0227 380.338 85.3381C380.182 85.6534 380.104 85.9915 380.104 86.3523V86.9318C380.104 87.4261 380.189 87.8452 380.359 88.1889C380.533 88.5298 380.773 88.7898 381.08 88.9688C381.386 89.1449 381.743 89.233 382.149 89.233C382.413 89.233 382.652 89.196 382.865 89.1222C383.081 89.0455 383.267 88.9318 383.423 88.7812C383.58 88.6278 383.7 88.4375 383.786 88.2102L384.757 88.483C384.655 88.8125 384.483 89.1023 384.241 89.3523C384 89.5994 383.702 89.7926 383.347 89.9318C382.991 90.0682 382.592 90.1364 382.149 90.1364ZM386.389 90V83.4545H387.361V84.4432H387.429C387.548 84.1193 387.764 83.8565 388.077 83.6548C388.389 83.4531 388.741 83.3523 389.134 83.3523C389.207 83.3523 389.3 83.3537 389.411 83.3565C389.521 83.3594 389.605 83.3636 389.662 83.3693V84.392C389.628 84.3835 389.55 84.3707 389.428 84.3537C389.308 84.3338 389.182 84.3239 389.048 84.3239C388.73 84.3239 388.446 84.3906 388.196 84.5241C387.949 84.6548 387.753 84.8366 387.608 85.0696C387.466 85.2997 387.395 85.5625 387.395 85.858V90H386.389Z" fill="#D9DDE3"/>
<path fill-rule="evenodd" clip-rule="evenodd" d="M410.471 81.5288C410.732 81.7891 410.732 82.2112 410.471 82.4716L402.471 90.4716C402.211 90.7319 401.789 90.7319 401.529 90.4716C401.268 90.2112 401.268 89.7891 401.529 89.5288L409.529 81.5288C409.789 81.2684 410.211 81.2684 410.471 81.5288Z" fill="#D9DDE3"/>
<path fill-rule="evenodd" clip-rule="evenodd" d="M401.529 81.5288C401.789 81.2684 402.211 81.2684 402.471 81.5288L410.471 89.5288C410.732 89.7891 410.732 90.2112 410.471 90.4716C410.211 90.7319 409.789 90.7319 409.529 90.4716L401.529 82.4716C401.268 82.2112 401.268 81.7891 401.529 81.5288Z" fill="#D9DDE3"/>
<path fill-rule="evenodd" clip-rule="evenodd" d="M458.292 70.2929C458.105 70.4818 458 70.7368 458 71.0024C458 71.2681 458.105 71.523 458.292 71.7119L461.231 74.6769C461.449 74.8919 461.731 74.9989 462.01 74.9989C462.289 74.9989 462.566 74.8919 462.779 74.6769L465.709 71.7219C465.895 71.5329 466 71.278 466 71.0124C466 70.7469 465.895 70.492 465.709 70.3029C465.617 70.2098 465.507 70.1358 465.387 70.0853C465.266 70.0347 465.136 70.0087 465.006 70.0087C464.875 70.0087 464.745 70.0347 464.625 70.0853C464.504 70.1358 464.394 70.2098 464.303 70.3029L462.005 72.6199L459.698 70.2929C459.606 70.2001 459.496 70.1264 459.375 70.0762C459.255 70.0259 459.125 70 458.995 70C458.864 70 458.734 70.0259 458.614 70.0762C458.493 70.1264 458.384 70.2001 458.292 70.2929Z" fill="#5A697C"/>
<path d="M139.759 32V23.2727H141.604V30.4787H145.345V32H139.759ZM148.4 32.1236C147.982 32.1236 147.61 32.0511 147.283 31.9062C146.956 31.7585 146.698 31.5412 146.507 31.2543C146.32 30.9645 146.226 30.6037 146.226 30.1719C146.226 29.8082 146.293 29.5028 146.426 29.2557C146.56 29.0085 146.742 28.8097 146.972 28.6591C147.202 28.5085 147.463 28.3949 147.756 28.3182C148.051 28.2415 148.361 28.1875 148.685 28.1562C149.066 28.1165 149.373 28.0795 149.605 28.0455C149.838 28.0085 150.007 27.9545 150.113 27.8835C150.218 27.8125 150.27 27.7074 150.27 27.5682V27.5426C150.27 27.2727 150.185 27.0639 150.015 26.9162C149.847 26.7685 149.608 26.6946 149.299 26.6946C148.972 26.6946 148.712 26.767 148.519 26.9119C148.326 27.054 148.198 27.233 148.135 27.4489L146.456 27.3125C146.542 26.9148 146.709 26.571 146.959 26.2812C147.209 25.9886 147.532 25.7642 147.926 25.608C148.324 25.4489 148.784 25.3693 149.307 25.3693C149.671 25.3693 150.019 25.4119 150.351 25.4972C150.686 25.5824 150.983 25.7145 151.242 25.8935C151.503 26.0724 151.709 26.3026 151.86 26.5838C152.01 26.8622 152.086 27.196 152.086 27.5852V32H150.364V31.0923H150.313C150.208 31.2969 150.067 31.4773 149.891 31.6335C149.715 31.7869 149.503 31.9077 149.256 31.9957C149.009 32.081 148.723 32.1236 148.4 32.1236ZM148.919 30.8707C149.186 30.8707 149.422 30.8182 149.627 30.7131C149.831 30.6051 149.992 30.4602 150.108 30.2784C150.225 30.0966 150.283 29.8906 150.283 29.6605V28.9659C150.226 29.0028 150.148 29.0369 150.049 29.0682C149.952 29.0966 149.843 29.1236 149.721 29.1491C149.598 29.1719 149.476 29.1932 149.354 29.2131C149.232 29.2301 149.121 29.2457 149.022 29.2599C148.809 29.2912 148.623 29.3409 148.463 29.4091C148.304 29.4773 148.181 29.5696 148.093 29.6861C148.005 29.7997 147.961 29.9418 147.961 30.1122C147.961 30.3594 148.05 30.5483 148.229 30.679C148.411 30.8068 148.641 30.8707 148.919 30.8707ZM153.528 32V23.2727H155.343V26.554H155.399C155.478 26.3778 155.593 26.1989 155.744 26.017C155.897 25.8324 156.096 25.679 156.341 25.5568C156.588 25.4318 156.895 25.3693 157.261 25.3693C157.738 25.3693 158.179 25.4943 158.582 25.7443C158.985 25.9915 159.308 26.3651 159.549 26.8651C159.791 27.3622 159.912 27.9858 159.912 28.7358C159.912 29.4659 159.794 30.0824 159.558 30.5852C159.325 31.0852 159.007 31.4645 158.603 31.723C158.203 31.9787 157.754 32.1065 157.257 32.1065C156.904 32.1065 156.605 32.0483 156.358 31.9318C156.113 31.8153 155.913 31.669 155.757 31.4929C155.6 31.3139 155.481 31.1335 155.399 30.9517H155.318V32H153.528ZM155.305 28.7273C155.305 29.1165 155.359 29.456 155.467 29.7457C155.575 30.0355 155.731 30.2614 155.936 30.4233C156.14 30.5824 156.389 30.6619 156.681 30.6619C156.977 30.6619 157.227 30.581 157.431 30.419C157.636 30.2543 157.791 30.027 157.896 29.7372C158.004 29.4446 158.058 29.108 158.058 28.7273C158.058 28.3494 158.005 28.017 157.9 27.7301C157.795 27.4432 157.64 27.2187 157.436 27.0568C157.231 26.8949 156.98 26.8139 156.681 26.8139C156.386 26.8139 156.136 26.892 155.931 27.0483C155.73 27.2045 155.575 27.4261 155.467 27.7131C155.359 28 155.305 28.3381 155.305 28.7273ZM164.106 32.1278C163.433 32.1278 162.853 31.9915 162.367 31.7188C161.884 31.4432 161.512 31.054 161.251 30.5511C160.989 30.0455 160.859 29.4474 160.859 28.7571C160.859 28.0838 160.989 27.4929 161.251 26.9844C161.512 26.4759 161.88 26.0795 162.354 25.7955C162.832 25.5114 163.391 25.3693 164.033 25.3693C164.465 25.3693 164.867 25.4389 165.239 25.5781C165.614 25.7145 165.941 25.9205 166.219 26.196C166.501 26.4716 166.719 26.8182 166.876 27.2358C167.032 27.6506 167.11 28.1364 167.11 28.6932V29.1918H161.583V28.0668H165.401C165.401 27.8054 165.344 27.5739 165.231 27.3722C165.117 27.1705 164.96 27.0128 164.758 26.8991C164.559 26.7827 164.327 26.7244 164.063 26.7244C163.788 26.7244 163.543 26.7884 163.33 26.9162C163.12 27.0412 162.955 27.2102 162.836 27.4233C162.717 27.6335 162.656 27.8679 162.653 28.1264V29.196C162.653 29.5199 162.712 29.7997 162.832 30.0355C162.954 30.2713 163.126 30.4531 163.347 30.581C163.569 30.7088 163.832 30.7727 164.136 30.7727C164.337 30.7727 164.522 30.7443 164.69 30.6875C164.857 30.6307 165.001 30.5455 165.12 30.4318C165.239 30.3182 165.33 30.179 165.393 30.0142L167.072 30.125C166.987 30.5284 166.812 30.8807 166.548 31.1818C166.286 31.4801 165.948 31.7131 165.533 31.8807C165.121 32.0455 164.646 32.1278 164.106 32.1278ZM170.11 23.2727V32H168.295V23.2727H170.11Z" fill="#D9DDE3"/>
</g>
<rect x="20" y="46" width="65" height="24" rx="4" fill="#5A697C"/>
<path d="M28.8803 54.2102V53.2727H35.4258V54.2102H32.6815V62H31.6246V54.2102H28.8803ZM38.7156 62.1364C38.0849 62.1364 37.5408 61.9972 37.0835 61.7188C36.6289 61.4375 36.2781 61.0455 36.0309 60.5426C35.7866 60.0369 35.6644 59.4489 35.6644 58.7784C35.6644 58.108 35.7866 57.517 36.0309 57.0057C36.2781 56.4915 36.6218 56.0909 37.0621 55.804C37.5053 55.5142 38.0224 55.3693 38.6133 55.3693C38.9542 55.3693 39.2908 55.4261 39.6232 55.5398C39.9556 55.6534 40.2582 55.8381 40.5309 56.0938C40.8036 56.3466 41.021 56.6818 41.1829 57.0994C41.3448 57.517 41.4258 58.0312 41.4258 58.642V59.0682H36.3803V58.1989H40.4031C40.4031 57.8295 40.3292 57.5 40.1815 57.2102C40.0366 56.9205 39.8292 56.6918 39.5593 56.5241C39.2923 56.3565 38.9769 56.2727 38.6133 56.2727C38.2127 56.2727 37.8661 56.3722 37.5735 56.571C37.2837 56.767 37.0607 57.0227 36.9045 57.3381C36.7482 57.6534 36.6701 57.9915 36.6701 58.3523V58.9318C36.6701 59.4261 36.7553 59.8452 36.9258 60.1889C37.0991 60.5298 37.3391 60.7898 37.646 60.9688C37.9528 61.1449 38.3093 61.233 38.7156 61.233C38.9798 61.233 39.2184 61.196 39.4315 61.1222C39.6474 61.0455 39.8335 60.9318 39.9897 60.7812C40.146 60.6278 40.2667 60.4375 40.3519 60.2102L41.3235 60.483C41.2212 60.8125 41.0494 61.1023 40.8079 61.3523C40.5664 61.5994 40.2681 61.7926 39.913 61.9318C39.5579 62.0682 39.1587 62.1364 38.7156 62.1364ZM43.5298 55.4545L45.098 58.1307L46.6662 55.4545H47.8253L45.7116 58.7273L47.8253 62H46.6662L45.098 59.4602L43.5298 62H42.3707L44.4503 58.7273L42.3707 55.4545H43.5298ZM52.1069 55.4545V56.3068H48.7148V55.4545H52.1069ZM49.7035 53.8864H50.7092V60.125C50.7092 60.4091 50.7504 60.6222 50.8327 60.7642C50.918 60.9034 51.0259 60.9972 51.1566 61.0455C51.2901 61.0909 51.4308 61.1136 51.5785 61.1136C51.6893 61.1136 51.7802 61.108 51.8512 61.0966C51.9222 61.0824 51.979 61.071 52.0217 61.0625L52.2262 61.9659C52.158 61.9915 52.0629 62.017 51.9407 62.0426C51.8185 62.071 51.6637 62.0852 51.4762 62.0852C51.1921 62.0852 50.9137 62.0241 50.641 61.902C50.3711 61.7798 50.1467 61.5938 49.9677 61.3438C49.7915 61.0938 49.7035 60.7784 49.7035 60.3977V53.8864Z" fill="#D9DDE3"/>
<path fill-rule="evenodd" clip-rule="evenodd" d="M73.4713 53.5288C73.7317 53.7891 73.7317 54.2112 73.4713 54.4716L65.4713 62.4716C65.211 62.7319 64.7889 62.7319 64.5285 62.4716C64.2682 62.2112 64.2682 61.7891 64.5285 61.5288L72.5285 53.5288C72.7889 53.2684 73.211 53.2684 73.4713 53.5288Z" fill="#D9DDE3"/>
<path fill-rule="evenodd" clip-rule="evenodd" d="M64.5285 53.5288C64.7889 53.2684 65.211 53.2684 65.4713 53.5288L73.4713 61.5288C73.7317 61.7891 73.7317 62.2112 73.4713 62.4716C73.211 62.7319 72.7889 62.7319 72.5285 62.4716L64.5285 54.4716C64.2682 54.2112 64.2682 53.7891 64.5285 53.5288Z" fill="#D9DDE3"/>
<rect x="0.5" y="0.5" width="505" height="126" rx="4.5" stroke="#9747FF" stroke-dasharray="10 5"/>
<defs>
<clipPath id="clip0_4647_181559">
<rect width="345" height="84" fill="white" transform="translate(139 20)"/>
</clipPath>
</defs>
</svg>
