<svg width="88" height="88" viewBox="0 0 88 88" fill="none" xmlns="http://www.w3.org/2000/svg">
<rect width="88" height="88" rx="16" fill="#262B31"/>
<g opacity="0.3">
<path fill-rule="evenodd" clip-rule="evenodd" d="M44.0002 31.9997C37.3727 31.9997 32.0002 37.3723 32.0002 43.9997C32.0002 50.6271 37.3727 55.9997 44.0002 55.9997C50.6276 55.9997 56.0002 50.6271 56.0002 43.9997C56.0002 37.3723 50.6276 31.9997 44.0002 31.9997ZM29.3335 43.9997C29.3335 35.8995 35.9 29.333 44.0002 29.333C52.1003 29.333 58.6668 35.8995 58.6668 43.9997C58.6668 52.0999 52.1003 58.6663 44.0002 58.6663C35.9 58.6663 29.3335 52.0999 29.3335 43.9997Z" fill="#98A2AE"/>
<path fill-rule="evenodd" clip-rule="evenodd" d="M43.9998 34.667C44.7362 34.667 45.3332 35.2639 45.3332 36.0003V43.1763L49.9295 45.4744C50.5881 45.8037 50.8551 46.6046 50.5257 47.2633C50.1964 47.9219 49.3955 48.1889 48.7369 47.8596L43.4036 45.1929C42.9518 44.967 42.6665 44.5054 42.6665 44.0003V36.0003C42.6665 35.2639 43.2635 34.667 43.9998 34.667Z" fill="#98A2AE"/>
</g>
</svg>
