<svg width="540" height="384" viewBox="0 0 540 384" fill="none" xmlns="http://www.w3.org/2000/svg">
<path fill-rule="evenodd" clip-rule="evenodd" d="M33.7084 96.7071C33.8952 96.5182 34 96.2632 34 95.9976C34 95.7319 33.8952 95.477 33.7084 95.2881L30.7694 92.3231C30.5514 92.1081 30.2694 92.0011 29.9904 92.0011C29.7114 92.0011 29.4344 92.1081 29.2214 92.3231L26.2914 95.2781C26.1049 95.4671 26.0002 95.722 26.0002 95.9876C26.0002 96.2531 26.1049 96.508 26.2914 96.6971C26.3833 96.7902 26.4927 96.8642 26.6134 96.9147C26.7341 96.9653 26.8636 96.9913 26.9944 96.9913C27.1252 96.9913 27.2548 96.9653 27.3755 96.9147C27.4961 96.8642 27.6056 96.7902 27.6974 96.6971L29.9954 94.3801L32.3024 96.7071C32.3945 96.7999 32.504 96.8736 32.6246 96.9238C32.7453 96.9741 32.8747 97 33.0054 97C33.1361 97 33.2656 96.9741 33.3862 96.9238C33.5069 96.8736 33.6164 96.7999 33.7084 96.7071Z" fill="#5A697C"/>
<path fill-rule="evenodd" clip-rule="evenodd" d="M88.2929 97.7084C88.4818 97.8952 88.7368 98 89.0024 98C89.2681 98 89.523 97.8952 89.7119 97.7084L92.6769 94.7694C92.8919 94.5514 92.9989 94.2694 92.9989 93.9904C92.9989 93.7114 92.8919 93.4344 92.6769 93.2214L89.7219 90.2914C89.5329 90.1049 89.278 90.0002 89.0124 90.0002C88.7469 90.0002 88.492 90.1049 88.3029 90.2914C88.2098 90.3833 88.1358 90.4927 88.0853 90.6134C88.0347 90.7341 88.0087 90.8636 88.0087 90.9944C88.0087 91.1252 88.0347 91.2548 88.0853 91.3755C88.1358 91.4961 88.2098 91.6056 88.3029 91.6974L90.6199 93.9954L88.2929 96.3024C88.2001 96.3945 88.1264 96.504 88.0762 96.6246C88.0259 96.7453 88 96.8747 88 97.0054C88 97.1361 88.0259 97.2656 88.0762 97.3862C88.1264 97.5069 88.2001 97.6164 88.2929 97.7084Z" fill="#5A697C"/>
<path fill-rule="evenodd" clip-rule="evenodd" d="M152.707 97.7084C152.518 97.8952 152.263 98 151.998 98C151.732 98 151.477 97.8952 151.288 97.7084L148.323 94.7694C148.108 94.5514 148.001 94.2694 148.001 93.9904C148.001 93.7114 148.108 93.4344 148.323 93.2214L151.278 90.2914C151.467 90.1049 151.722 90.0002 151.988 90.0002C152.253 90.0002 152.508 90.1049 152.697 90.2914C152.79 90.3833 152.864 90.4927 152.915 90.6134C152.965 90.7341 152.991 90.8636 152.991 90.9944C152.991 91.1252 152.965 91.2548 152.915 91.3755C152.864 91.4961 152.79 91.6056 152.697 91.6974L150.38 93.9954L152.707 96.3024C152.8 96.3945 152.874 96.504 152.924 96.6246C152.974 96.7453 153 96.8747 153 97.0054C153 97.1361 152.974 97.2656 152.924 97.3862C152.874 97.5069 152.8 97.6164 152.707 97.7084Z" fill="#5A697C"/>
<path fill-rule="evenodd" clip-rule="evenodd" d="M29.1665 23.3337C25.9448 23.3337 23.3332 25.9453 23.3332 29.167C23.3332 32.3887 25.9448 35.0003 29.1665 35.0003C32.3882 35.0003 34.9998 32.3887 34.9998 29.167C34.9998 25.9453 32.3882 23.3337 29.1665 23.3337ZM21.6665 29.167C21.6665 25.0249 25.0244 21.667 29.1665 21.667C33.3086 21.667 36.6665 25.0249 36.6665 29.167C36.6665 33.3091 33.3086 36.667 29.1665 36.667C25.0244 36.667 21.6665 33.3091 21.6665 29.167Z" fill="#5A697C"/>
<path fill-rule="evenodd" clip-rule="evenodd" d="M33.2856 33.2861C33.611 32.9606 34.1387 32.9606 34.4641 33.2861L38.0891 36.9111C38.4145 37.2365 38.4145 37.7641 38.0891 38.0896C37.7637 38.415 37.236 38.415 36.9106 38.0896L33.2856 34.4646C32.9601 34.1391 32.9601 33.6115 33.2856 33.2861Z" fill="#5A697C"/>
<path fill-rule="evenodd" clip-rule="evenodd" d="M89.9998 23.333C90.4601 23.333 90.8332 23.7061 90.8332 24.1663V35.833C90.8332 36.2932 90.4601 36.6663 89.9998 36.6663C89.5396 36.6663 89.1665 36.2932 89.1665 35.833V24.1663C89.1665 23.7061 89.5396 23.333 89.9998 23.333Z" fill="#5A697C"/>
<path fill-rule="evenodd" clip-rule="evenodd" d="M83.3335 30.0003C83.3335 29.5401 83.7066 29.167 84.1668 29.167H95.8335C96.2937 29.167 96.6668 29.5401 96.6668 30.0003C96.6668 30.4606 96.2937 30.8337 95.8335 30.8337H84.1668C83.7066 30.8337 83.3335 30.4606 83.3335 30.0003Z" fill="#5A697C"/>
<path fill-rule="evenodd" clip-rule="evenodd" d="M143.333 30.0003C143.333 29.5401 143.707 29.167 144.167 29.167H155.833C156.294 29.167 156.667 29.5401 156.667 30.0003C156.667 30.4606 156.294 30.8337 155.833 30.8337H144.167C143.707 30.8337 143.333 30.4606 143.333 30.0003Z" fill="#5A697C"/>
<g clip-path="url(#clip0_4647_184342)">
<path fill-rule="evenodd" clip-rule="evenodd" d="M210 28.3333C209.08 28.3333 208.333 29.0795 208.333 30C208.333 30.9205 209.08 31.6667 210 31.6667C210.92 31.6667 211.667 30.9205 211.667 30C211.667 29.0795 210.92 28.3333 210 28.3333ZM206.667 30C206.667 28.1591 208.159 26.6667 210 26.6667C211.841 26.6667 213.333 28.1591 213.333 30C213.333 31.8409 211.841 33.3333 210 33.3333C208.159 33.3333 206.667 31.8409 206.667 30Z" fill="#5A697C"/>
<path fill-rule="evenodd" clip-rule="evenodd" d="M210 21.6667C209.779 21.6667 209.567 21.7545 209.411 21.9107C209.254 22.067 209.167 22.279 209.167 22.5V22.645C209.165 23.0757 209.037 23.4964 208.8 23.8555C208.562 24.2146 208.224 24.4963 207.828 24.6659C207.758 24.6961 207.684 24.7164 207.608 24.7263C207.248 24.8523 206.861 24.8833 206.484 24.815C206.05 24.7362 205.649 24.5293 205.334 24.2207L205.327 24.2143L205.277 24.1643C205.2 24.0868 205.108 24.025 205.007 23.983C204.905 23.9411 204.797 23.9195 204.688 23.9195C204.578 23.9195 204.47 23.9411 204.368 23.983C204.267 24.025 204.175 24.0864 204.098 24.1639L204.097 24.1646C204.02 24.242 203.958 24.3339 203.916 24.435C203.874 24.5362 203.853 24.6447 203.853 24.7542C203.853 24.8637 203.874 24.9721 203.916 25.0733C203.958 25.1744 204.02 25.2664 204.097 25.3438L204.154 25.4006C204.463 25.716 204.67 26.1167 204.748 26.5508C204.825 26.9764 204.776 27.415 204.606 27.8123C204.452 28.2178 204.181 28.5689 203.828 28.8216C203.467 29.0793 203.037 29.2227 202.594 29.2331L202.575 29.2333H202.5C202.279 29.2333 202.067 29.3211 201.911 29.4774C201.754 29.6337 201.667 29.8457 201.667 30.0667C201.667 30.2877 201.754 30.4996 201.911 30.6559C202.067 30.8122 202.279 30.9 202.5 30.9H202.645C203.076 30.9017 203.496 31.0293 203.856 31.2671C204.213 31.5041 204.494 31.8402 204.664 32.2343C204.841 32.6369 204.893 33.0831 204.815 33.5158C204.736 33.95 204.529 34.3506 204.221 34.6661L204.214 34.6726L204.164 34.7226C204.087 34.8 204.025 34.8922 203.983 34.9934C203.941 35.0945 203.92 35.203 203.92 35.3125C203.92 35.422 203.941 35.5305 203.983 35.6316C204.025 35.7328 204.086 35.8247 204.164 35.9021L204.165 35.9027C204.242 35.9802 204.334 36.0417 204.435 36.0836C204.536 36.1256 204.645 36.1471 204.754 36.1471C204.864 36.1471 204.972 36.1256 205.073 36.0836C205.174 36.0417 205.266 35.9802 205.344 35.9027L205.401 35.8459C205.716 35.5374 206.117 35.3304 206.551 35.2517C206.976 35.1745 207.415 35.2241 207.812 35.3938C208.218 35.5484 208.569 35.8192 208.822 36.1725C209.079 36.5329 209.223 36.9625 209.233 37.4055L209.233 37.425V37.5C209.233 37.721 209.321 37.933 209.477 38.0893C209.634 38.2455 209.846 38.3333 210.067 38.3333C210.288 38.3333 210.5 38.2455 210.656 38.0893C210.812 37.933 210.9 37.721 210.9 37.5V37.3583L210.9 37.355C210.902 36.9243 211.029 36.5036 211.267 36.1445C211.504 35.7866 211.84 35.5056 212.234 35.3358C212.637 35.1591 213.083 35.1066 213.516 35.185C213.95 35.2638 214.351 35.4707 214.666 35.7793L214.673 35.7857L214.723 35.8357C214.8 35.9132 214.892 35.975 214.993 36.017C215.095 36.0589 215.203 36.0805 215.312 36.0805C215.422 36.0805 215.53 36.0589 215.632 36.017C215.733 35.975 215.825 35.9136 215.902 35.8361L215.903 35.8354C215.98 35.758 216.042 35.6661 216.084 35.5649C216.126 35.4638 216.147 35.3553 216.147 35.2458C216.147 35.1363 216.126 35.0279 216.084 34.9267C216.042 34.8255 215.98 34.7336 215.903 34.6562L215.846 34.5994C215.537 34.284 215.33 33.8833 215.252 33.4492C215.173 33.0165 215.226 32.5703 215.402 32.1677C215.572 31.7736 215.853 31.4375 216.211 31.2005C216.57 30.9627 216.991 30.8351 217.422 30.8333L217.425 30.8333L217.5 30.8333C217.721 30.8333 217.933 30.7455 218.089 30.5893C218.246 30.433 218.333 30.221 218.333 30C218.333 29.779 218.246 29.567 218.089 29.4107C217.933 29.2545 217.721 29.1667 217.5 29.1667H217.358L217.355 29.1667C216.924 29.1649 216.504 29.0373 216.144 28.7995C215.785 28.5617 215.504 28.2241 215.334 27.8283C215.304 27.7578 215.284 27.6837 215.274 27.608C215.148 27.2483 215.117 26.8611 215.185 26.4842C215.264 26.05 215.471 25.6494 215.779 25.3339L215.786 25.3274L215.836 25.2774C215.913 25.2 215.975 25.1078 216.017 25.0066C216.059 24.9055 216.08 24.797 216.08 24.6875C216.08 24.578 216.059 24.4695 216.017 24.3684C215.975 24.2672 215.914 24.1753 215.836 24.0979L215.835 24.0973C215.758 24.0198 215.666 23.9583 215.565 23.9164C215.464 23.8744 215.355 23.8529 215.246 23.8529C215.136 23.8529 215.028 23.8744 214.927 23.9164C214.826 23.9583 214.734 24.0198 214.656 24.0973L214.599 24.1541C214.284 24.4626 213.883 24.6696 213.449 24.7483C213.016 24.8268 212.57 24.7742 212.168 24.5975C211.774 24.4277 211.437 24.1467 211.2 23.7888C210.963 23.4298 210.835 23.009 210.833 22.5783L210.833 22.575V22.5C210.833 22.279 210.746 22.067 210.589 21.9107C210.433 21.7545 210.221 21.6667 210 21.6667ZM216.167 32.5L216.929 32.8365C216.885 32.9355 216.872 33.0453 216.892 33.1518C216.911 33.2571 216.961 33.3544 217.035 33.4314L217.081 33.4771C217.08 33.477 217.081 33.4772 217.081 33.4771C217.313 33.7092 217.497 33.9851 217.623 34.2885C217.749 34.592 217.814 34.9173 217.814 35.2458C217.814 35.5744 217.749 35.8997 217.623 36.2032C217.497 36.5067 217.313 36.7824 217.081 37.0146L216.492 36.425L217.081 37.0139C216.849 37.2464 216.573 37.4308 216.27 37.5566C215.966 37.6824 215.641 37.7471 215.312 37.7471C214.984 37.7471 214.659 37.6824 214.355 37.5566C214.052 37.4308 213.776 37.2465 213.544 37.0143C213.544 37.0141 213.544 37.0144 213.544 37.0143L213.498 36.9682C213.421 36.8939 213.324 36.8441 213.218 36.825C213.112 36.8057 213.002 36.8187 212.903 36.8624L212.895 36.866C212.798 36.9076 212.715 36.9767 212.657 37.0647C212.599 37.1525 212.567 37.2552 212.567 37.3604V37.5C212.567 38.163 212.303 38.7989 211.834 39.2678C211.366 39.7366 210.73 40 210.067 40C209.404 40 208.768 39.7366 208.299 39.2678C207.83 38.7989 207.567 38.163 207.567 37.5V37.437C207.563 37.331 207.528 37.2284 207.466 37.142C207.403 37.0536 207.314 36.9863 207.212 36.9488C207.196 36.9427 207.18 36.9361 207.164 36.9291C207.065 36.8854 206.955 36.8723 206.848 36.8916C206.743 36.9107 206.646 36.9606 206.569 37.0349L206.523 37.0806C206.523 37.0807 206.523 37.0805 206.523 37.0806C206.291 37.3129 206.015 37.4975 205.712 37.6232C205.408 37.7491 205.083 37.8138 204.754 37.8138C204.426 37.8138 204.1 37.7491 203.797 37.6232C203.494 37.4976 203.218 37.3134 202.986 37.0813C202.754 36.8491 202.569 36.5733 202.443 36.2698C202.318 35.9664 202.253 35.641 202.253 35.3125C202.253 34.984 202.318 34.6586 202.443 34.3551C202.569 34.0517 202.754 33.7759 202.986 33.5437L203.032 33.4981C203.106 33.4211 203.156 33.3238 203.175 33.2185C203.194 33.112 203.181 33.0022 203.138 32.9031L203.134 32.895C203.092 32.7979 203.023 32.715 202.935 32.6567C202.848 32.5986 202.745 32.5673 202.64 32.5667H202.5C201.837 32.5667 201.201 32.3033 200.732 31.8344C200.263 31.3656 200 30.7297 200 30.0667C200 29.4036 200.263 28.7677 200.732 28.2989C201.201 27.8301 201.837 27.5667 202.5 27.5667H202.563C202.669 27.5627 202.772 27.5277 202.858 27.466C202.946 27.4027 203.014 27.3144 203.051 27.2123C203.057 27.1959 203.064 27.1796 203.071 27.1635C203.115 27.0645 203.128 26.9547 203.108 26.8482C203.089 26.7429 203.039 26.6456 202.965 26.5686L202.919 26.5229C202.687 26.2907 202.503 26.015 202.377 25.7115C202.251 25.408 202.186 25.0827 202.186 24.7542C202.186 24.4256 202.251 24.1003 202.377 23.7968C202.503 23.4935 202.687 23.2179 202.919 22.9857C203.151 22.7535 203.427 22.5692 203.73 22.4434C204.034 22.3176 204.359 22.2529 204.688 22.2529C205.016 22.2529 205.341 22.3176 205.645 22.4434C205.948 22.5692 206.224 22.7536 206.456 22.9861L206.502 23.0317C206.579 23.1061 206.676 23.1559 206.782 23.175C206.888 23.1943 206.998 23.1813 207.097 23.1376C207.15 23.1141 207.206 23.0962 207.263 23.0844C207.321 23.0449 207.371 22.9944 207.41 22.9353C207.468 22.8475 207.499 22.7448 207.5 22.6396V22.5C207.5 21.837 207.763 21.2011 208.232 20.7322C208.701 20.2634 209.337 20 210 20C210.663 20 211.299 20.2634 211.768 20.7322C212.237 21.2011 212.5 21.837 212.5 22.5V22.5729C212.501 22.6781 212.532 22.7809 212.59 22.8686C212.648 22.9567 212.731 23.0258 212.828 23.0674L212.836 23.0709C212.936 23.1146 213.045 23.1277 213.152 23.1084C213.257 23.0893 213.354 23.0394 213.431 22.9651L213.477 22.9194C213.709 22.687 213.985 22.5026 214.288 22.3768C214.592 22.2509 214.917 22.1862 215.246 22.1862C215.574 22.1862 215.9 22.2509 216.203 22.3768C216.507 22.5026 216.782 22.687 217.015 22.9194C217.247 23.1515 217.431 23.4269 217.557 23.7301C217.682 24.0336 217.747 24.359 217.747 24.6875C217.747 25.016 217.682 25.3414 217.557 25.6449C217.431 25.9482 217.247 26.2238 217.014 26.4559C217.014 26.456 217.014 26.4558 217.014 26.4559L216.968 26.5019C216.894 26.5789 216.844 26.6762 216.825 26.7815C216.806 26.888 216.819 26.9978 216.862 27.0969C216.886 27.1502 216.904 27.2058 216.916 27.2626C216.955 27.3207 217.006 27.3708 217.065 27.41C217.152 27.4681 217.255 27.4993 217.36 27.5H217.5C218.163 27.5 218.799 27.7634 219.268 28.2322C219.737 28.7011 220 29.337 220 30C220 30.663 219.737 31.2989 219.268 31.7678C218.799 32.2366 218.163 32.5 217.5 32.5H217.427C217.322 32.5007 217.219 32.5319 217.131 32.59C217.043 32.6484 216.974 32.7312 216.933 32.8283L216.167 32.5Z" fill="#5A697C"/>
</g>
<path fill-rule="evenodd" clip-rule="evenodd" d="M262.5 31.667C262.96 31.667 263.333 32.0401 263.333 32.5003V35.8337C263.333 36.0547 263.421 36.2666 263.577 36.4229C263.734 36.5792 263.945 36.667 264.167 36.667H275.833C276.054 36.667 276.266 36.5792 276.422 36.4229C276.579 36.2666 276.667 36.0547 276.667 35.8337V32.5003C276.667 32.0401 277.04 31.667 277.5 31.667C277.96 31.667 278.333 32.0401 278.333 32.5003V35.8337C278.333 36.4967 278.07 37.1326 277.601 37.6014C277.132 38.0703 276.496 38.3337 275.833 38.3337H264.167C263.503 38.3337 262.868 38.0703 262.399 37.6014C261.93 37.1326 261.667 36.4967 261.667 35.8337V32.5003C261.667 32.0401 262.04 31.667 262.5 31.667Z" fill="#5A697C"/>
<path fill-rule="evenodd" clip-rule="evenodd" d="M265.244 27.7441C265.57 27.4186 266.097 27.4186 266.423 27.7441L270 31.3215L273.577 27.7441C273.903 27.4186 274.43 27.4186 274.756 27.7441C275.081 28.0695 275.081 28.5972 274.756 28.9226L270.589 33.0893C270.264 33.4147 269.736 33.4147 269.411 33.0893L265.244 28.9226C264.919 28.5972 264.919 28.0695 265.244 27.7441Z" fill="#5A697C"/>
<path fill-rule="evenodd" clip-rule="evenodd" d="M270 21.667C270.46 21.667 270.833 22.0401 270.833 22.5003V32.5003C270.833 32.9606 270.46 33.3337 270 33.3337C269.54 33.3337 269.167 32.9606 269.167 32.5003V22.5003C269.167 22.0401 269.54 21.667 270 21.667Z" fill="#5A697C"/>
<path fill-rule="evenodd" clip-rule="evenodd" d="M322.5 31.667C322.96 31.667 323.333 32.0401 323.333 32.5003V35.8337C323.333 36.0547 323.421 36.2666 323.577 36.4229C323.734 36.5792 323.945 36.667 324.167 36.667H335.833C336.054 36.667 336.266 36.5792 336.422 36.4229C336.579 36.2666 336.667 36.0547 336.667 35.8337V32.5003C336.667 32.0401 337.04 31.667 337.5 31.667C337.96 31.667 338.333 32.0401 338.333 32.5003V35.8337C338.333 36.4967 338.07 37.1326 337.601 37.6014C337.132 38.0703 336.496 38.3337 335.833 38.3337H324.167C323.503 38.3337 322.868 38.0703 322.399 37.6014C321.93 37.1326 321.667 36.4967 321.667 35.8337V32.5003C321.667 32.0401 322.04 31.667 322.5 31.667Z" fill="#5A697C"/>
<path fill-rule="evenodd" clip-rule="evenodd" d="M334.756 27.2559C334.43 27.5814 333.903 27.5814 333.577 27.2559L330 23.6785L326.423 27.2559C326.097 27.5814 325.57 27.5814 325.244 27.2559C324.919 26.9305 324.919 26.4028 325.244 26.0774L329.411 21.9107C329.736 21.5853 330.264 21.5853 330.589 21.9107L334.756 26.0774C335.081 26.4028 335.081 26.9305 334.756 27.2559Z" fill="#5A697C"/>
<path fill-rule="evenodd" clip-rule="evenodd" d="M330 33.333C329.54 33.333 329.167 32.9599 329.167 32.4997V22.4997C329.167 22.0394 329.54 21.6663 330 21.6663C330.46 21.6663 330.833 22.0394 330.833 22.4997V32.4997C330.833 32.9599 330.46 33.333 330 33.333Z" fill="#5A697C"/>
<path fill-rule="evenodd" clip-rule="evenodd" d="M383.333 23.3337C383.112 23.3337 382.901 23.4215 382.744 23.5777C382.588 23.734 382.5 23.946 382.5 24.167V35.8337C382.5 36.0547 382.588 36.2666 382.744 36.4229C382.901 36.5792 383.112 36.667 383.333 36.667H396.667C396.888 36.667 397.1 36.5792 397.256 36.4229C397.412 36.2666 397.5 36.0547 397.5 35.8337V26.667C397.5 26.446 397.412 26.234 397.256 26.0777C397.1 25.9215 396.888 25.8337 396.667 25.8337H389.167C388.888 25.8337 388.628 25.6944 388.473 25.4626L387.054 23.3337H383.333ZM381.566 22.3992C382.035 21.9304 382.67 21.667 383.333 21.667H387.5C387.779 21.667 388.039 21.8062 388.194 22.0381L389.613 24.167H396.667C397.33 24.167 397.966 24.4304 398.435 24.8992C398.903 25.3681 399.167 26.004 399.167 26.667V35.8337C399.167 36.4967 398.903 37.1326 398.435 37.6014C397.966 38.0703 397.33 38.3337 396.667 38.3337H383.333C382.67 38.3337 382.035 38.0703 381.566 37.6014C381.097 37.1326 380.833 36.4967 380.833 35.8337V24.167C380.833 23.504 381.097 22.8681 381.566 22.3992Z" fill="#5A697C"/>
<path fill-rule="evenodd" clip-rule="evenodd" d="M39.548 216.759C39.8255 216.902 40 217.188 40 217.5V225.833C40 226.145 39.8255 226.431 39.548 226.574C39.2704 226.717 38.9363 226.693 38.6823 226.511L32.849 222.345C32.63 222.188 32.5 221.936 32.5 221.667C32.5 221.397 32.63 221.145 32.849 220.988L38.6823 216.822C38.9363 216.64 39.2704 216.616 39.548 216.759ZM34.7671 221.667L38.3333 224.214V219.119L34.7671 221.667Z" fill="#5A697C"/>
<path fill-rule="evenodd" clip-rule="evenodd" d="M22.5 216.667C22.0398 216.667 21.6667 217.04 21.6667 217.5V225.833C21.6667 226.294 22.0398 226.667 22.5 226.667H31.6667C32.1269 226.667 32.5 226.294 32.5 225.833V217.5C32.5 217.04 32.1269 216.667 31.6667 216.667H22.5ZM20 217.5C20 216.119 21.1193 215 22.5 215H31.6667C33.0474 215 34.1667 216.119 34.1667 217.5V225.833C34.1667 227.214 33.0474 228.333 31.6667 228.333H22.5C21.1193 228.333 20 227.214 20 225.833V217.5Z" fill="#5A697C"/>
<g clip-path="url(#clip1_4647_184342)">
<path fill-rule="evenodd" clip-rule="evenodd" d="M503.483 22.4997C502.94 22.4997 502.5 22.9399 502.5 23.483V36.5163C502.5 37.0594 502.94 37.4997 503.483 37.4997H516.517C517.06 37.4997 517.5 37.0594 517.5 36.5163V23.483C517.5 22.9399 517.06 22.4997 516.517 22.4997H503.483ZM500.833 23.483C500.833 22.0195 502.02 20.833 503.483 20.833H516.517C517.98 20.833 519.167 22.0195 519.167 23.483V36.5163C519.167 37.9799 517.98 39.1663 516.517 39.1663H503.483C502.02 39.1663 500.833 37.9799 500.833 36.5163V23.483Z" fill="#5A697C"/>
<path fill-rule="evenodd" clip-rule="evenodd" d="M505.833 20.833C506.294 20.833 506.667 21.2061 506.667 21.6663V38.333C506.667 38.7932 506.294 39.1663 505.833 39.1663C505.373 39.1663 505 38.7932 505 38.333V21.6663C505 21.2061 505.373 20.833 505.833 20.833Z" fill="#5A697C"/>
<path fill-rule="evenodd" clip-rule="evenodd" d="M514.167 20.833C514.627 20.833 515 21.2061 515 21.6663V38.333C515 38.7932 514.627 39.1663 514.167 39.1663C513.707 39.1663 513.333 38.7932 513.333 38.333V21.6663C513.333 21.2061 513.707 20.833 514.167 20.833Z" fill="#5A697C"/>
<path fill-rule="evenodd" clip-rule="evenodd" d="M500.833 29.9997C500.833 29.5394 501.207 29.1663 501.667 29.1663H518.333C518.794 29.1663 519.167 29.5394 519.167 29.9997C519.167 30.4599 518.794 30.833 518.333 30.833H501.667C501.207 30.833 500.833 30.4599 500.833 29.9997Z" fill="#5A697C"/>
<path fill-rule="evenodd" clip-rule="evenodd" d="M500.833 25.833C500.833 25.3728 501.207 24.9997 501.667 24.9997H505.833C506.294 24.9997 506.667 25.3728 506.667 25.833C506.667 26.2932 506.294 26.6663 505.833 26.6663H501.667C501.207 26.6663 500.833 26.2932 500.833 25.833Z" fill="#5A697C"/>
<path fill-rule="evenodd" clip-rule="evenodd" d="M500.833 34.1663C500.833 33.7061 501.207 33.333 501.667 33.333H505.833C506.294 33.333 506.667 33.7061 506.667 34.1663C506.667 34.6266 506.294 34.9997 505.833 34.9997H501.667C501.207 34.9997 500.833 34.6266 500.833 34.1663Z" fill="#5A697C"/>
<path fill-rule="evenodd" clip-rule="evenodd" d="M513.333 34.1663C513.333 33.7061 513.707 33.333 514.167 33.333H518.333C518.794 33.333 519.167 33.7061 519.167 34.1663C519.167 34.6266 518.794 34.9997 518.333 34.9997H514.167C513.707 34.9997 513.333 34.6266 513.333 34.1663Z" fill="#5A697C"/>
<path fill-rule="evenodd" clip-rule="evenodd" d="M513.333 25.833C513.333 25.3728 513.707 24.9997 514.167 24.9997H518.333C518.794 24.9997 519.167 25.3728 519.167 25.833C519.167 26.2932 518.794 26.6663 518.333 26.6663H514.167C513.707 26.6663 513.333 26.2932 513.333 25.833Z" fill="#5A697C"/>
</g>
<path fill-rule="evenodd" clip-rule="evenodd" d="M83.2322 213.565C83.7011 213.096 84.337 212.833 85 212.833H91.6667C91.8877 212.833 92.0996 212.921 92.2559 213.077L97.2559 218.077C97.4122 218.233 97.5 218.445 97.5 218.666V228.666C97.5 229.329 97.2366 229.965 96.7678 230.434C96.2989 230.903 95.663 231.166 95 231.166H85C84.337 231.166 83.7011 230.903 83.2322 230.434C82.7634 229.965 82.5 229.329 82.5 228.666V215.333C82.5 214.67 82.7634 214.034 83.2322 213.565ZM85 214.5C84.779 214.5 84.567 214.587 84.4107 214.744C84.2545 214.9 84.1667 215.112 84.1667 215.333V228.666C84.1667 228.887 84.2545 229.099 84.4107 229.256C84.567 229.412 84.779 229.5 85 229.5H95C95.221 229.5 95.433 229.412 95.5893 229.256C95.7455 229.099 95.8333 228.887 95.8333 228.666V219.012L91.3215 214.5H85Z" fill="#5A697C"/>
<path fill-rule="evenodd" clip-rule="evenodd" d="M91.6667 212.833C92.1269 212.833 92.5 213.206 92.5 213.666V217.833H96.6667C97.1269 217.833 97.5 218.206 97.5 218.666C97.5 219.127 97.1269 219.5 96.6667 219.5H91.6667C91.2064 219.5 90.8333 219.127 90.8333 218.666V213.666C90.8333 213.206 91.2064 212.833 91.6667 212.833Z" fill="#5A697C"/>
<path fill-rule="evenodd" clip-rule="evenodd" d="M85.8333 222.833C85.8333 222.373 86.2064 222 86.6667 222H93.3333C93.7936 222 94.1667 222.373 94.1667 222.833C94.1667 223.293 93.7936 223.666 93.3333 223.666H86.6667C86.2064 223.666 85.8333 223.293 85.8333 222.833Z" fill="#5A697C"/>
<path fill-rule="evenodd" clip-rule="evenodd" d="M85.8333 226.166C85.8333 225.706 86.2064 225.333 86.6667 225.333H93.3333C93.7936 225.333 94.1667 225.706 94.1667 226.166C94.1667 226.627 93.7936 227 93.3333 227H86.6667C86.2064 227 85.8333 226.627 85.8333 226.166Z" fill="#5A697C"/>
<path fill-rule="evenodd" clip-rule="evenodd" d="M85.8333 219.5C85.8333 219.039 86.2064 218.666 86.6667 218.666H88.3333C88.7936 218.666 89.1667 219.039 89.1667 219.5C89.1667 219.96 88.7936 220.333 88.3333 220.333H86.6667C86.2064 220.333 85.8333 219.96 85.8333 219.5Z" fill="#5A697C"/>
<g clip-path="url(#clip2_4647_184342)">
<path fill-rule="evenodd" clip-rule="evenodd" d="M449.63 21.9545C449.63 21.9546 449.63 21.9548 449.629 21.9549L442.965 25.2873L442.963 25.2882C442.824 25.3572 442.707 25.4636 442.625 25.5953C442.544 25.727 442.5 25.8789 442.5 26.0339C442.5 26.0339 442.5 26.034 442.5 26.0339V33.9728C442.499 34.1281 442.541 34.2806 442.622 34.4131C442.703 34.5454 442.819 34.6525 442.958 34.7224C442.958 34.7223 442.958 34.7225 442.958 34.7224L449.623 38.0549C449.739 38.1129 449.867 38.1431 449.996 38.1431C450.125 38.1431 450.253 38.113 450.369 38.055L457.036 34.7216L457.038 34.7207C457.177 34.6517 457.293 34.5453 457.375 34.4136C457.457 34.2818 457.5 34.1299 457.5 33.9748V26.0341C457.5 25.879 457.457 25.7271 457.375 25.5953C457.293 25.4636 457.177 25.3572 457.038 25.2882L457.036 25.2873L450.371 21.9549C450.371 21.9548 450.371 21.9546 450.37 21.9545C450.255 21.8975 450.129 21.8678 450 21.8678C449.872 21.8678 449.745 21.8975 449.63 21.9545ZM450.742 21.2086L451.113 20.4623C450.767 20.2906 450.386 20.2012 450 20.2012C449.614 20.2012 449.233 20.2906 448.888 20.4623L448.886 20.4633L442.221 23.7957C442.221 23.7958 442.22 23.796 442.22 23.7962C441.804 24.0032 441.454 24.322 441.209 24.717C440.964 25.1123 440.834 25.5681 440.834 26.0332L440.834 33.9643C440.831 34.4292 440.958 34.8855 441.2 35.2822C441.443 35.6797 441.792 36.0015 442.209 36.2112L442.211 36.2123L448.877 39.5455C449.225 39.7193 449.608 39.8098 449.996 39.8098C450.384 39.8098 450.767 39.7194 451.115 39.5456C451.114 39.5457 451.115 39.5456 451.115 39.5456L457.779 36.2132C457.78 36.2131 457.78 36.213 457.78 36.2128C458.196 36.0058 458.547 35.6869 458.792 35.2919C459.037 34.8966 459.167 34.4408 459.167 33.9757V26.0336C459.167 25.5685 459.037 25.1123 458.792 24.717C458.547 24.322 458.196 24.0032 457.78 23.7962C457.78 23.796 457.78 23.7959 457.779 23.7957L451.115 20.4633L450.742 21.2086Z" fill="#5A697C"/>
<path fill-rule="evenodd" clip-rule="evenodd" d="M441.188 24.7609C441.394 24.3493 441.895 24.1824 442.306 24.3883L450 28.2353L457.694 24.3883C458.106 24.1824 458.606 24.3493 458.812 24.7609C459.018 25.1726 458.851 25.6732 458.44 25.879L450.373 29.9123C450.138 30.0296 449.862 30.0296 449.628 29.9123L441.561 25.879C441.149 25.6732 440.982 25.1726 441.188 24.7609Z" fill="#5A697C"/>
<path fill-rule="evenodd" clip-rule="evenodd" d="M450 28.3336C450.46 28.3336 450.834 28.7067 450.834 29.167V38.967C450.834 39.4272 450.46 39.8003 450 39.8003C449.54 39.8003 449.167 39.4272 449.167 38.967V29.167C449.167 28.7067 449.54 28.3336 450 28.3336Z" fill="#5A697C"/>
<path fill-rule="evenodd" clip-rule="evenodd" d="M445.088 22.5443C445.294 22.1326 445.795 21.9658 446.206 22.1716L454.54 26.3383C454.951 26.5441 455.118 27.0446 454.912 27.4563C454.706 27.8679 454.206 28.0348 453.794 27.829L445.461 23.6623C445.049 23.4565 444.882 22.9559 445.088 22.5443Z" fill="#5A697C"/>
</g>
<path fill-rule="evenodd" clip-rule="evenodd" d="M140.911 214.15C141.047 213.855 141.342 213.667 141.667 213.667H158.334C158.658 213.667 158.953 213.855 159.089 214.15C159.226 214.444 159.179 214.791 158.97 215.038L152.5 222.689V229.5C152.5 229.789 152.351 230.057 152.105 230.209C151.859 230.361 151.552 230.375 151.294 230.246L147.961 228.579C147.679 228.438 147.5 228.149 147.5 227.834V222.689L141.031 215.038C140.821 214.791 140.774 214.444 140.911 214.15ZM143.463 215.334L148.97 221.846C149.097 221.996 149.167 222.187 149.167 222.384V227.319L150.834 228.152V222.384C150.834 222.187 150.903 221.996 151.031 221.846L156.537 215.334H143.463Z" fill="#5A697C"/>
<path fill-rule="evenodd" clip-rule="evenodd" d="M215.589 216.411C215.915 216.737 215.915 217.264 215.589 217.59L205.589 227.59C205.264 227.915 204.736 227.915 204.411 227.59C204.085 227.264 204.085 226.737 204.411 226.411L214.411 216.411C214.736 216.086 215.264 216.086 215.589 216.411Z" fill="#5A697C"/>
<path fill-rule="evenodd" clip-rule="evenodd" d="M204.411 216.411C204.736 216.086 205.264 216.086 205.589 216.411L215.589 226.411C215.915 226.737 215.915 227.264 215.589 227.59C215.264 227.915 214.736 227.915 214.411 227.59L204.411 217.59C204.085 217.264 204.085 216.737 204.411 216.411Z" fill="#5A697C"/>
<path fill-rule="evenodd" clip-rule="evenodd" d="M261.22 224.887C262.002 224.106 263.062 223.667 264.167 223.667H270.833C271.938 223.667 272.998 224.106 273.78 224.887C274.561 225.669 275 226.729 275 227.834V229.5C275 229.961 274.627 230.334 274.167 230.334C273.706 230.334 273.333 229.961 273.333 229.5V227.834C273.333 227.171 273.07 226.535 272.601 226.066C272.132 225.597 271.496 225.334 270.833 225.334H264.167C263.504 225.334 262.868 225.597 262.399 226.066C261.93 226.535 261.667 227.171 261.667 227.834V229.5C261.667 229.961 261.294 230.334 260.833 230.334C260.373 230.334 260 229.961 260 229.5V227.834C260 226.729 260.439 225.669 261.22 224.887Z" fill="#5A697C"/>
<path fill-rule="evenodd" clip-rule="evenodd" d="M267.5 215.334C266.119 215.334 265 216.453 265 217.834C265 219.214 266.119 220.334 267.5 220.334C268.881 220.334 270 219.214 270 217.834C270 216.453 268.881 215.334 267.5 215.334ZM263.333 217.834C263.333 215.532 265.199 213.667 267.5 213.667C269.801 213.667 271.667 215.532 271.667 217.834C271.667 220.135 269.801 222 267.5 222C265.199 222 263.333 220.135 263.333 217.834Z" fill="#5A697C"/>
<path fill-rule="evenodd" clip-rule="evenodd" d="M275.86 224.4C275.975 223.954 276.429 223.686 276.875 223.801C277.769 224.032 278.561 224.553 279.126 225.283C279.692 226.012 279.999 226.909 280 227.832L280 229.5C280 229.96 279.627 230.333 279.167 230.333C278.706 230.333 278.333 229.96 278.333 229.5V227.834C278.333 227.833 278.333 227.834 278.333 227.834C278.333 227.28 278.148 226.741 277.809 226.304C277.47 225.866 276.995 225.553 276.458 225.415C276.013 225.3 275.745 224.845 275.86 224.4Z" fill="#5A697C"/>
<path fill-rule="evenodd" clip-rule="evenodd" d="M272.526 214.401C272.64 213.955 273.094 213.686 273.54 213.801C274.436 214.03 275.231 214.551 275.798 215.282C276.365 216.013 276.673 216.912 276.673 217.837C276.673 218.762 276.365 219.661 275.798 220.392C275.231 221.123 274.437 221.644 273.54 221.874C273.094 221.988 272.64 221.719 272.526 221.273C272.412 220.827 272.681 220.373 273.127 220.259C273.665 220.121 274.141 219.809 274.482 219.37C274.822 218.932 275.007 218.392 275.007 217.837C275.007 217.282 274.822 216.743 274.482 216.304C274.141 215.866 273.665 215.553 273.127 215.415C272.681 215.301 272.412 214.847 272.526 214.401Z" fill="#5A697C"/>
<path fill-rule="evenodd" clip-rule="evenodd" d="M323.333 215.334C322.873 215.334 322.5 215.707 322.5 216.167V224.5C322.5 224.961 322.873 225.334 323.333 225.334H336.667C337.127 225.334 337.5 224.961 337.5 224.5V216.167C337.5 215.707 337.127 215.334 336.667 215.334H323.333ZM320.833 216.167C320.833 214.786 321.953 213.667 323.333 213.667H336.667C338.048 213.667 339.167 214.786 339.167 216.167V224.5C339.167 225.881 338.048 227 336.667 227H323.333C321.953 227 320.833 225.881 320.833 224.5V216.167Z" fill="#5A697C"/>
<path fill-rule="evenodd" clip-rule="evenodd" d="M325.833 229.5C325.833 229.04 326.207 228.667 326.667 228.667H333.333C333.794 228.667 334.167 229.04 334.167 229.5C334.167 229.961 333.794 230.334 333.333 230.334H326.667C326.207 230.334 325.833 229.961 325.833 229.5Z" fill="#5A697C"/>
<path fill-rule="evenodd" clip-rule="evenodd" d="M330 225.333C330.46 225.333 330.833 225.706 330.833 226.166V229.5C330.833 229.96 330.46 230.333 330 230.333C329.54 230.333 329.167 229.96 329.167 229.5V226.166C329.167 225.706 329.54 225.333 330 225.333Z" fill="#5A697C"/>
<path d="M397.5 217.833H386.667C386.167 217.833 385.833 217.5 385.833 217C385.833 216.5 386.167 216.166 386.667 216.166H397.5C398 216.166 398.333 216.5 398.333 217C398.333 217.5 398 217.833 397.5 217.833Z" fill="#5A697C"/>
<path d="M397.5 222.833H386.667C386.167 222.833 385.833 222.5 385.833 222C385.833 221.5 386.167 221.166 386.667 221.166H397.5C398 221.166 398.333 221.5 398.333 222C398.333 222.5 398 222.833 397.5 222.833Z" fill="#5A697C"/>
<path d="M397.5 227.833H386.667C386.167 227.833 385.833 227.5 385.833 227C385.833 226.5 386.167 226.166 386.667 226.166H397.5C398 226.166 398.333 226.5 398.333 227C398.333 227.5 398 227.833 397.5 227.833Z" fill="#5A697C"/>
<path d="M382.5 217.833C382.417 217.833 382.417 217.833 382.333 217.833C382.25 217.833 382.25 217.833 382.167 217.75C382.083 217.75 382.083 217.666 382 217.666C381.917 217.666 381.917 217.583 381.917 217.583C381.833 217.5 381.75 217.416 381.75 217.333C381.667 217.25 381.667 217.083 381.667 217C381.667 216.916 381.667 216.75 381.75 216.666C381.833 216.583 381.833 216.5 381.917 216.416C382.167 216.166 382.5 216.083 382.833 216.25C382.917 216.333 383 216.333 383.083 216.416C383.25 216.583 383.333 216.75 383.333 217C383.333 217.25 383.25 217.416 383.083 217.583C382.917 217.75 382.75 217.833 382.5 217.833Z" fill="#5A697C"/>
<path d="M382.5 222.833C382.25 222.833 382.083 222.75 381.917 222.583C381.75 222.416 381.667 222.25 381.667 222C381.667 221.916 381.667 221.916 381.667 221.833C381.667 221.75 381.667 221.75 381.75 221.666C381.75 221.583 381.833 221.583 381.833 221.5C381.833 221.416 381.917 221.416 381.917 221.416C382 221.333 382.083 221.25 382.167 221.25C382.5 221.083 382.833 221.166 383.083 221.416L383.167 221.5C383.167 221.583 383.25 221.583 383.25 221.666C383.25 221.75 383.25 221.75 383.333 221.833C383.333 221.916 383.333 221.916 383.333 222C383.333 222.25 383.25 222.416 383.083 222.583C382.917 222.75 382.75 222.833 382.5 222.833Z" fill="#5A697C"/>
<path d="M382.5 227.833C382.25 227.833 382.083 227.75 381.917 227.583C381.75 227.416 381.667 227.25 381.667 227C381.667 226.916 381.667 226.75 381.75 226.666C381.833 226.583 381.833 226.5 381.917 226.416C382.25 226.083 382.75 226.083 383.083 226.416C383.25 226.583 383.333 226.75 383.333 227C383.333 227.25 383.25 227.416 383.083 227.583C382.917 227.75 382.75 227.833 382.5 227.833Z" fill="#5A697C"/>
<path fill-rule="evenodd" clip-rule="evenodd" d="M441.667 214.5C441.667 214.04 442.04 213.667 442.5 213.667H448.333C448.793 213.667 449.167 214.04 449.167 214.5V220.334C449.167 220.794 448.793 221.167 448.333 221.167H442.5C442.04 221.167 441.667 220.794 441.667 220.334V214.5ZM443.333 215.334V219.5H447.5V215.334H443.333Z" fill="#5A697C"/>
<path fill-rule="evenodd" clip-rule="evenodd" d="M450.833 214.5C450.833 214.04 451.207 213.667 451.667 213.667H457.5C457.96 213.667 458.333 214.04 458.333 214.5V220.334C458.333 220.794 457.96 221.167 457.5 221.167H451.667C451.207 221.167 450.833 220.794 450.833 220.334V214.5ZM452.5 215.334V219.5H456.667V215.334H452.5Z" fill="#5A697C"/>
<path fill-rule="evenodd" clip-rule="evenodd" d="M450.833 223.666C450.833 223.206 451.207 222.833 451.667 222.833H457.5C457.96 222.833 458.333 223.206 458.333 223.666V229.5C458.333 229.96 457.96 230.333 457.5 230.333H451.667C451.207 230.333 450.833 229.96 450.833 229.5V223.666ZM452.5 224.5V228.666H456.667V224.5H452.5Z" fill="#5A697C"/>
<path fill-rule="evenodd" clip-rule="evenodd" d="M441.667 223.666C441.667 223.206 442.04 222.833 442.5 222.833H448.333C448.793 222.833 449.167 223.206 449.167 223.666V229.5C449.167 229.96 448.793 230.333 448.333 230.333H442.5C442.04 230.333 441.667 229.96 441.667 229.5V223.666ZM443.333 224.5V228.666H447.5V224.5H443.333Z" fill="#5A697C"/>
<path fill-rule="evenodd" clip-rule="evenodd" d="M510.589 216.756C510.915 216.43 510.915 215.903 510.589 215.577C510.264 215.252 509.736 215.252 509.411 215.577L503.578 221.41C503.252 221.736 503.252 222.263 503.578 222.589L509.411 228.422C509.736 228.748 510.264 228.748 510.589 228.422C510.915 228.097 510.915 227.569 510.589 227.244L506.178 222.833H515.834C516.294 222.833 516.667 222.46 516.667 221.999C516.667 221.539 516.294 221.166 515.834 221.166H506.179L510.589 216.756Z" fill="#5A697C"/>
<path fill-rule="evenodd" clip-rule="evenodd" d="M204.167 93.9997C203.706 93.9997 203.333 94.3728 203.333 94.833V100.666C203.333 101.127 203.706 101.5 204.167 101.5H215.833C216.293 101.5 216.667 101.127 216.667 100.666V94.833C216.667 94.3728 216.293 93.9997 215.833 93.9997H204.167ZM201.667 94.833C201.667 93.4523 202.786 92.333 204.167 92.333H215.833C217.214 92.333 218.333 93.4523 218.333 94.833V100.666C218.333 102.047 217.214 103.166 215.833 103.166H204.167C202.786 103.166 201.667 102.047 201.667 100.666V94.833Z" fill="#5A697C"/>
<path fill-rule="evenodd" clip-rule="evenodd" d="M210 86.4997C209.116 86.4997 208.268 86.8509 207.643 87.476C207.018 88.1011 206.667 88.949 206.667 89.833V93.1663C206.667 93.6266 206.294 93.9997 205.833 93.9997C205.373 93.9997 205 93.6266 205 93.1663V89.833C205 88.5069 205.527 87.2352 206.464 86.2975C207.402 85.3598 208.674 84.833 210 84.833C211.326 84.833 212.598 85.3598 213.536 86.2975C214.473 87.2352 215 88.5069 215 89.833V93.1663C215 93.6266 214.627 93.9997 214.167 93.9997C213.706 93.9997 213.333 93.6266 213.333 93.1663V89.833C213.333 88.949 212.982 88.1011 212.357 87.476C211.732 86.8509 210.884 86.4997 210 86.4997Z" fill="#5A697C"/>
<path fill-rule="evenodd" clip-rule="evenodd" d="M263 89.6364C263 89.2347 263.313 88.9091 263.7 88.9091H276.3C276.687 88.9091 277 89.2347 277 89.6364C277 90.038 276.687 90.3636 276.3 90.3636H263.7C263.313 90.3636 263 90.038 263 89.6364Z" fill="#5A697C"/>
<path fill-rule="evenodd" clip-rule="evenodd" d="M268.6 87.4545C268.414 87.4545 268.236 87.5312 268.105 87.6676C267.974 87.8039 267.9 87.9889 267.9 88.1818V88.9091H272.1V88.1818C272.1 87.9889 272.026 87.8039 271.895 87.6676C271.764 87.5312 271.586 87.4545 271.4 87.4545H268.6ZM273.5 88.9091V88.1818C273.5 87.6032 273.279 87.0482 272.885 86.639C272.491 86.2299 271.957 86 271.4 86H268.6C268.043 86 267.509 86.2299 267.115 86.639C266.721 87.0482 266.5 87.6032 266.5 88.1818V88.9091H265.1C264.713 88.9091 264.4 89.2347 264.4 89.6364V99.8182C264.4 100.397 264.621 100.952 265.015 101.361C265.409 101.77 265.943 102 266.5 102H273.5C274.057 102 274.591 101.77 274.985 101.361C275.379 100.952 275.6 100.397 275.6 99.8182V89.6364C275.6 89.2347 275.287 88.9091 274.9 88.9091H273.5ZM265.8 90.3636V99.8182C265.8 100.011 265.874 100.196 266.005 100.332C266.136 100.469 266.314 100.545 266.5 100.545H273.5C273.686 100.545 273.864 100.469 273.995 100.332C274.126 100.196 274.2 100.011 274.2 99.8182V90.3636H265.8Z" fill="#5A697C"/>
<path fill-rule="evenodd" clip-rule="evenodd" d="M268.6 92.5455C268.987 92.5455 269.3 92.8711 269.3 93.2727V97.6364C269.3 98.038 268.987 98.3636 268.6 98.3636C268.213 98.3636 267.9 98.038 267.9 97.6364V93.2727C267.9 92.8711 268.213 92.5455 268.6 92.5455Z" fill="#5A697C"/>
<path fill-rule="evenodd" clip-rule="evenodd" d="M271.4 92.5455C271.787 92.5455 272.1 92.8711 272.1 93.2727V97.6364C272.1 98.038 271.787 98.3636 271.4 98.3636C271.013 98.3636 270.7 98.038 270.7 97.6364V93.2727C270.7 92.8711 271.013 92.5455 271.4 92.5455Z" fill="#5A697C"/>
<path fill-rule="evenodd" clip-rule="evenodd" d="M326.807 86.0381C326.961 85.8062 327.221 85.667 327.5 85.667H332.5C332.779 85.667 333.039 85.8062 333.193 86.0381L334.613 88.167H337.5C338.163 88.167 338.799 88.4304 339.268 88.8992C339.737 89.3681 340 90.004 340 90.667V99.8337C340 100.497 339.737 101.133 339.268 101.601C338.799 102.07 338.163 102.334 337.5 102.334H322.5C321.837 102.334 321.201 102.07 320.732 101.601C320.263 101.133 320 100.497 320 99.8337V90.667C320 90.004 320.263 89.3681 320.732 88.8992C321.201 88.4304 321.837 88.167 322.5 88.167H325.387L326.807 86.0381ZM327.946 87.3337L326.527 89.4626C326.372 89.6944 326.112 89.8337 325.833 89.8337H322.5C322.279 89.8337 322.067 89.9215 321.911 90.0777C321.754 90.234 321.667 90.446 321.667 90.667V99.8337C321.667 100.055 321.754 100.267 321.911 100.423C322.067 100.579 322.279 100.667 322.5 100.667H337.5C337.721 100.667 337.933 100.579 338.089 100.423C338.246 100.267 338.333 100.055 338.333 99.8337V90.667C338.333 90.446 338.246 90.234 338.089 90.0777C337.933 89.9215 337.721 89.8337 337.5 89.8337H334.167C333.888 89.8337 333.628 89.6944 333.473 89.4626L332.054 87.3337H327.946Z" fill="#5A697C"/>
<path fill-rule="evenodd" clip-rule="evenodd" d="M330 92.3337C328.619 92.3337 327.5 93.4529 327.5 94.8337C327.5 96.2144 328.619 97.3337 330 97.3337C331.381 97.3337 332.5 96.2144 332.5 94.8337C332.5 93.4529 331.381 92.3337 330 92.3337ZM325.833 94.8337C325.833 92.5325 327.699 90.667 330 90.667C332.301 90.667 334.167 92.5325 334.167 94.8337C334.167 97.1348 332.301 99.0003 330 99.0003C327.699 99.0003 325.833 97.1348 325.833 94.8337Z" fill="#5A697C"/>
<path fill-rule="evenodd" clip-rule="evenodd" d="M397.256 88.4111C397.581 88.7365 397.581 89.2641 397.256 89.5896L388.089 98.7562C387.764 99.0817 387.236 99.0817 386.911 98.7562L382.744 94.5896C382.419 94.2641 382.419 93.7365 382.744 93.4111C383.07 93.0856 383.597 93.0856 383.923 93.4111L387.5 96.9885L396.077 88.4111C396.403 88.0856 396.93 88.0856 397.256 88.4111Z" fill="#5A697C"/>
<path d="M456.667 92.3333C456.667 91.8731 456.294 91.5 455.833 91.5H444.167C443.707 91.5 443.333 91.8731 443.333 92.3333C443.333 92.7936 443.707 93.1667 444.167 93.1667H455.833C456.294 93.1667 456.667 92.7936 456.667 92.3333ZM443.333 95.6667C443.333 96.1269 443.707 96.5 444.167 96.5H455.833C456.294 96.5 456.667 96.1269 456.667 95.6667C456.667 95.2064 456.294 94.8333 455.833 94.8333H444.167C443.707 94.8333 443.333 95.2064 443.333 95.6667Z" fill="#5A697C"/>
<path fill-rule="evenodd" clip-rule="evenodd" d="M511.636 86.224C511.934 85.9253 512.419 85.9253 512.717 86.224L515.776 89.2828C516.075 89.5814 516.075 90.0656 515.776 90.3643L507.364 98.776C507.221 98.9194 507.026 99 506.824 99H503.765C503.342 99 503 98.6576 503 98.2353V95.1765C503 94.9737 503.081 94.7792 503.224 94.6357L511.636 86.224ZM504.529 95.4932V97.4706H506.507L514.154 89.8235L512.176 87.8462L504.529 95.4932Z" fill="#5A697C"/>
<path fill-rule="evenodd" clip-rule="evenodd" d="M503 101.85C503 101.381 503.336 101 503.75 101H517.25C517.664 101 518 101.381 518 101.85C518 102.319 517.664 102.7 517.25 102.7H503.75C503.336 102.7 503 102.319 503 101.85Z" fill="#5A697C"/>
<path d="M92.5 278.5H97.5V283.5" stroke="#5A697C" stroke-width="2" stroke-linecap="round" stroke-linejoin="round"/>
<path d="M87.5 293.5H82.5V288.5" stroke="#5A697C" stroke-width="2" stroke-linecap="round" stroke-linejoin="round"/>
<path d="M97.5001 278.5L91.6667 284.333" stroke="#5A697C" stroke-width="2" stroke-linecap="round" stroke-linejoin="round"/>
<path d="M82.5 293.5L88.3333 287.667" stroke="#5A697C" stroke-width="2" stroke-linecap="round" stroke-linejoin="round"/>
<path d="M336 347L339 350L336 353" stroke="#5A697C" stroke-width="2" stroke-linecap="round" stroke-linejoin="round"/>
<path d="M324 353L321 350L324 347" stroke="#5A697C" stroke-width="2" stroke-linecap="round" stroke-linejoin="round"/>
<path d="M339 350L332 350" stroke="#5A697C" stroke-width="2" stroke-linecap="round" stroke-linejoin="round"/>
<path d="M321 350L328 350" stroke="#5A697C" stroke-width="2" stroke-linecap="round" stroke-linejoin="round"/>
<path d="M394.667 350H385.333C384.597 350 384 350.651 384 351.455V356.545C384 357.349 384.597 358 385.333 358H394.667C395.403 358 396 357.349 396 356.545V351.455C396 350.651 395.403 350 394.667 350Z" stroke="#5A697C" stroke-width="1.6" stroke-linecap="round" stroke-linejoin="round"/>
<path d="M386.25 349.25V346.25C386.25 345.255 386.645 344.302 387.348 343.598C388.052 342.895 389.005 342.5 390 342.5C390.995 342.5 391.948 342.895 392.652 343.598C393.355 344.302 393.75 345.255 393.75 346.25V349.25" stroke="#5A697C" stroke-width="1.6" stroke-linecap="round" stroke-linejoin="round"/>
<path d="M35 286.833V291.833C35 292.275 34.8244 292.699 34.5118 293.012C34.1993 293.324 33.7754 293.5 33.3333 293.5H24.1667C23.7246 293.5 23.3007 293.324 22.9882 293.012C22.6756 292.699 22.5 292.275 22.5 291.833V282.667C22.5 282.225 22.6756 281.801 22.9882 281.488C23.3007 281.176 23.7246 281 24.1667 281H29.1667" stroke="#5A697C" stroke-width="2" stroke-linecap="round" stroke-linejoin="round"/>
<path d="M32.5 278.5H37.5V283.5" stroke="#5A697C" stroke-width="2" stroke-linecap="round" stroke-linejoin="round"/>
<path d="M28.3333 287.667L37.4999 278.5" stroke="#5A697C" stroke-width="2" stroke-linecap="round" stroke-linejoin="round"/>
<g clip-path="url(#clip3_4647_184342)">
<path d="M219.167 279.333V284.333H214.167" stroke="#5A697C" stroke-width="2" stroke-linecap="round" stroke-linejoin="round"/>
<path d="M217.075 288.5C216.533 290.034 215.508 291.349 214.154 292.249C212.799 293.149 211.189 293.584 209.565 293.489C207.942 293.394 206.394 292.774 205.153 291.723C203.913 290.671 203.048 289.245 202.689 287.659C202.329 286.073 202.495 284.413 203.162 282.93C203.828 281.446 204.958 280.219 206.382 279.434C207.806 278.649 209.447 278.348 211.057 278.576C212.667 278.805 214.159 279.55 215.308 280.7L219.167 284.334" stroke="#5A697C" stroke-width="2" stroke-linecap="round" stroke-linejoin="round"/>
</g>
<g clip-path="url(#clip4_4647_184342)">
<path d="M270 294.334C274.602 294.334 278.333 290.603 278.333 286C278.333 281.398 274.602 277.667 270 277.667C265.397 277.667 261.667 281.398 261.667 286C261.667 290.603 265.397 294.334 270 294.334Z" stroke="#5A697C" stroke-width="2" stroke-linecap="round" stroke-linejoin="round"/>
<path d="M270 282.667V286" stroke="#5A697C" stroke-width="2" stroke-linecap="round" stroke-linejoin="round"/>
<path d="M270 289.333H270.009" stroke="#5A697C" stroke-width="2" stroke-linecap="round" stroke-linejoin="round"/>
</g>
<path d="M335.833 278.5H324.167C323.246 278.5 322.5 279.246 322.5 280.167V291.833C322.5 292.754 323.246 293.5 324.167 293.5H335.833C336.754 293.5 337.5 292.754 337.5 291.833V280.167C337.5 279.246 336.754 278.5 335.833 278.5Z" stroke="#5A697C" stroke-width="2" stroke-linecap="round" stroke-linejoin="round"/>
<path d="M327.083 285.083C328.188 285.083 329.083 284.188 329.083 283.083C329.083 281.978 328.188 281.083 327.083 281.083C325.979 281.083 325.083 281.978 325.083 283.083C325.083 284.188 325.979 285.083 327.083 285.083Z" stroke="#5A697C" stroke-width="1.5" stroke-linecap="round" stroke-linejoin="round"/>
<path d="M337.5 288.5L333.333 284.333L324.167 293.5" stroke="#5A697C" stroke-width="2" stroke-linecap="round" stroke-linejoin="round"/>
<path fill-rule="evenodd" clip-rule="evenodd" d="M142.5 287.666C142.5 287.206 142.873 286.833 143.333 286.833H148.333C148.794 286.833 149.167 287.206 149.167 287.666V292.666C149.167 293.127 148.794 293.5 148.333 293.5C147.873 293.5 147.5 293.127 147.5 292.666V288.5H143.333C142.873 288.5 142.5 288.127 142.5 287.666Z" fill="#5A697C"/>
<path fill-rule="evenodd" clip-rule="evenodd" d="M151.667 278.5C152.127 278.5 152.5 278.873 152.5 279.333V283.5H156.667C157.127 283.5 157.5 283.873 157.5 284.333C157.5 284.794 157.127 285.167 156.667 285.167H151.667C151.207 285.167 150.833 284.794 150.833 284.333V279.333C150.833 278.873 151.207 278.5 151.667 278.5Z" fill="#5A697C"/>
<path fill-rule="evenodd" clip-rule="evenodd" d="M158.089 277.911C158.415 278.237 158.415 278.764 158.089 279.09L152.256 284.923C151.931 285.248 151.403 285.248 151.078 284.923C150.752 284.597 150.752 284.07 151.078 283.744L156.911 277.911C157.236 277.586 157.764 277.586 158.089 277.911Z" fill="#5A697C"/>
<path fill-rule="evenodd" clip-rule="evenodd" d="M148.922 287.077C149.248 287.403 149.248 287.93 148.922 288.256L143.089 294.089C142.764 294.414 142.236 294.414 141.911 294.089C141.585 293.763 141.585 293.236 141.911 292.91L147.744 287.077C148.069 286.752 148.597 286.752 148.922 287.077Z" fill="#5A697C"/>
<path fill-rule="evenodd" clip-rule="evenodd" d="M384.601 277.769C384.868 277.623 385.194 277.635 385.45 277.799L397.117 285.299C397.356 285.453 397.5 285.717 397.5 286C397.5 286.284 397.356 286.548 397.117 286.701L385.45 294.201C385.194 294.366 384.868 294.378 384.601 294.232C384.333 294.086 384.167 293.805 384.167 293.5V278.5C384.167 278.195 384.333 277.915 384.601 277.769ZM385.833 280.027V291.974L395.125 286L385.833 280.027Z" fill="#5A697C"/>
<g clip-path="url(#clip5_4647_184342)">
<path d="M456 347.75H449.25C448.422 347.75 447.75 348.422 447.75 349.25V356C447.75 356.828 448.422 357.5 449.25 357.5H456C456.828 357.5 457.5 356.828 457.5 356V349.25C457.5 348.422 456.828 347.75 456 347.75Z" stroke="#5A697C" stroke-width="1.5" stroke-linecap="round" stroke-linejoin="round"/>
<path d="M444.75 352.25H444C443.602 352.25 443.221 352.092 442.939 351.811C442.658 351.529 442.5 351.148 442.5 350.75V344C442.5 343.602 442.658 343.221 442.939 342.939C443.221 342.658 443.602 342.5 444 342.5H450.75C451.148 342.5 451.529 342.658 451.811 342.939C452.092 343.221 452.25 343.602 452.25 344V344.75" stroke="#5A697C" stroke-width="1.5" stroke-linecap="round" stroke-linejoin="round"/>
</g>
<path fill-rule="evenodd" clip-rule="evenodd" d="M441.784 286C441.875 286.157 441.996 286.358 442.145 286.59C442.53 287.184 443.098 287.975 443.837 288.763C445.33 290.355 447.416 291.833 450 291.833C452.584 291.833 454.67 290.355 456.163 288.763C456.902 287.975 457.47 287.184 457.855 286.59C458.004 286.358 458.125 286.157 458.216 286C458.125 285.843 458.004 285.642 457.855 285.41C457.47 284.816 456.902 284.025 456.163 283.237C454.67 281.645 452.584 280.167 450 280.167C447.416 280.167 445.33 281.645 443.837 283.237C443.098 284.025 442.53 284.816 442.145 285.41C441.996 285.642 441.875 285.843 441.784 286ZM459.167 286C459.912 285.627 459.912 285.627 459.912 285.627L459.91 285.624L459.908 285.618L459.898 285.6C459.89 285.584 459.879 285.563 459.864 285.535C459.835 285.481 459.793 285.403 459.738 285.305C459.629 285.11 459.467 284.835 459.255 284.506C458.832 283.851 458.203 282.975 457.379 282.097C455.746 280.355 453.25 278.5 450 278.5C446.75 278.5 444.254 280.355 442.621 282.097C441.797 282.975 441.168 283.851 440.745 284.506C440.533 284.835 440.371 285.11 440.262 285.305C440.207 285.403 440.165 285.481 440.136 285.535C440.121 285.563 440.11 285.584 440.102 285.6L440.092 285.618L440.09 285.624L440.089 285.626C440.088 285.626 440.088 285.627 440.833 286L440.088 285.627C439.971 285.862 439.971 286.138 440.088 286.373L440.833 286C440.088 286.373 440.088 286.372 440.088 286.373L440.09 286.376L440.092 286.382L440.102 286.4C440.11 286.416 440.121 286.437 440.136 286.465C440.165 286.519 440.207 286.597 440.262 286.695C440.371 286.89 440.533 287.165 440.745 287.494C441.168 288.149 441.797 289.025 442.621 289.903C444.254 291.645 446.75 293.5 450 293.5C453.25 293.5 455.746 291.645 457.379 289.903C458.203 289.025 458.832 288.149 459.255 287.494C459.467 287.165 459.629 286.89 459.738 286.695C459.793 286.597 459.835 286.519 459.864 286.465C459.879 286.437 459.89 286.416 459.898 286.4L459.908 286.382L459.91 286.376L459.911 286.374C459.912 286.374 459.912 286.373 459.167 286ZM459.167 286L459.912 286.373C460.029 286.138 460.029 285.861 459.912 285.627L459.167 286Z" fill="#5A697C"/>
<path fill-rule="evenodd" clip-rule="evenodd" d="M450 284.334C449.079 284.334 448.333 285.08 448.333 286C448.333 286.921 449.079 287.667 450 287.667C450.92 287.667 451.667 286.921 451.667 286C451.667 285.08 450.92 284.334 450 284.334ZM446.667 286C446.667 284.159 448.159 282.667 450 282.667C451.841 282.667 453.333 284.159 453.333 286C453.333 287.841 451.841 289.334 450 289.334C448.159 289.334 446.667 287.841 446.667 286Z" fill="#5A697C"/>
<g clip-path="url(#clip6_4647_184342)">
<path d="M510 293.5C503.75 293.5 500.25 286.667 500.083 286.333C500 286.083 500 285.833 500.083 285.583C501.167 283.583 502.667 281.833 504.583 280.417C504.917 280.083 505.417 280.167 505.75 280.583C506 280.917 506 281.5 505.583 281.75C504 282.917 502.75 284.333 501.75 286C502.5 287.333 505.5 291.833 510 291.833C511.583 291.833 513.167 291.25 514.417 290.25C514.75 290 515.333 290.083 515.583 290.417C515.833 290.75 515.75 291.333 515.417 291.583C513.917 292.833 512 293.5 510 293.5ZM517.333 289.5C517.167 289.5 516.917 289.417 516.833 289.333C516.5 289 516.417 288.5 516.75 288.167C517.333 287.5 517.833 286.833 518.25 286.083C517.5 284.75 514.5 280.25 510 280.25C509.5 280.25 508.917 280.333 508.417 280.417C508 280.417 507.583 280.167 507.417 279.75C507.25 279.333 507.583 278.833 508 278.75C508.667 278.583 509.333 278.5 510 278.5C516.25 278.5 519.75 285.333 519.917 285.667C520 285.917 520 286.167 519.917 286.417C519.417 287.417 518.75 288.333 518 289.25C517.833 289.417 517.583 289.5 517.333 289.5ZM509.917 289.417C509.083 289.417 508.25 289.083 507.667 288.5C507 287.917 506.667 287.083 506.583 286.167C506.583 285.25 506.833 284.417 507.5 283.75C507.583 283.667 507.583 283.667 507.667 283.583C508 283.25 508.5 283.25 508.833 283.583C509.167 283.917 509.167 284.417 508.833 284.75L508.75 284.833C508.417 285.167 508.25 285.583 508.333 286C508.333 286.417 508.5 286.833 508.833 287.167C509.5 287.833 510.583 287.75 511.167 287.083C511.5 286.75 512 286.75 512.333 287.083C512.667 287.417 512.667 287.917 512.333 288.25C511.75 289 510.833 289.417 509.917 289.417Z" fill="#5A697C"/>
<path d="M519.167 296C518.917 296 518.75 295.917 518.583 295.75L500.25 277.417C499.917 277.083 499.917 276.583 500.25 276.25C500.583 275.917 501.083 275.917 501.417 276.25L519.75 294.583C520.083 294.917 520.083 295.417 519.75 295.75C519.583 295.917 519.417 296 519.167 296Z" fill="#5A697C"/>
</g>
<path fill-rule="evenodd" clip-rule="evenodd" d="M33.15 149.99C32.4865 149.99 31.8501 150.253 31.3809 150.723L23.7226 158.381C22.9407 159.163 22.5014 160.223 22.5014 161.329C22.5014 162.435 22.9407 163.496 23.7226 164.278C24.5045 165.059 25.565 165.499 26.6708 165.499C27.7766 165.499 28.8372 165.059 29.6191 164.278L37.2774 156.619C37.6028 156.294 38.1305 156.294 38.4559 156.619C38.7814 156.945 38.7814 157.472 38.4559 157.798L30.7976 165.456C29.7031 166.551 28.2187 167.165 26.6708 167.165C25.123 167.165 23.6386 166.551 22.5441 165.456C21.4496 164.362 20.8347 162.877 20.8347 161.329C20.8347 159.781 21.4496 158.297 22.5441 157.203L30.2024 149.544C30.9842 148.762 32.0444 148.323 33.15 148.323C34.2556 148.323 35.3158 148.762 36.0976 149.544C36.8793 150.326 37.3185 151.386 37.3185 152.492C37.3185 153.597 36.8793 154.658 36.0976 155.439L28.4309 163.098C27.9619 163.567 27.3258 163.83 26.6625 163.83C25.9992 163.83 25.3631 163.567 24.8941 163.098C24.4251 162.629 24.1616 161.993 24.1616 161.329C24.1616 160.666 24.4251 160.03 24.8941 159.561L31.9694 152.494C32.2951 152.169 32.8227 152.169 33.1479 152.495C33.4732 152.82 33.4729 153.348 33.1472 153.673L26.0726 160.739C25.9163 160.896 25.8282 161.108 25.8282 161.329C25.8282 161.551 25.9161 161.763 26.0726 161.919C26.229 162.076 26.4412 162.164 26.6625 162.164C26.8838 162.164 27.096 162.076 27.2524 161.919L34.9191 154.261C35.3881 153.792 35.6519 153.155 35.6519 152.492C35.6519 151.828 35.3883 151.192 34.9191 150.723C34.4499 150.253 33.8135 149.99 33.15 149.99Z" fill="#5A697C"/>
<path d="M90.3333 150V153.333" stroke="#5A697C" stroke-width="1.66667" stroke-linecap="round" stroke-linejoin="round"/>
<path d="M90.3335 163.333V166.666" stroke="#5A697C" stroke-width="1.66667" stroke-linecap="round" stroke-linejoin="round"/>
<path d="M84.4419 152.441L86.8002 154.8" stroke="#5A697C" stroke-width="1.66667" stroke-linecap="round" stroke-linejoin="round"/>
<path d="M93.8667 161.866L96.225 164.225" stroke="#5A697C" stroke-width="1.66667" stroke-linecap="round" stroke-linejoin="round"/>
<path d="M82 158.333H85.3333" stroke="#5A697C" stroke-width="1.66667" stroke-linecap="round" stroke-linejoin="round"/>
<path d="M95.3335 158.333H98.6668" stroke="#5A697C" stroke-width="1.66667" stroke-linecap="round" stroke-linejoin="round"/>
<path d="M84.4419 164.225L86.8002 161.866" stroke="#5A697C" stroke-width="1.66667" stroke-linecap="round" stroke-linejoin="round"/>
<path d="M93.8667 154.8L96.225 152.441" stroke="#5A697C" stroke-width="1.66667" stroke-linecap="round" stroke-linejoin="round"/>
<path fill-rule="evenodd" clip-rule="evenodd" d="M140.833 150.5C140.833 150.04 141.207 149.667 141.667 149.667H146.667C147.772 149.667 148.832 150.106 149.613 150.887C150.395 151.669 150.833 152.729 150.833 153.834V165.5C150.833 165.961 150.46 166.334 150 166.334C149.54 166.334 149.167 165.961 149.167 165.5C149.167 165.058 148.991 164.634 148.679 164.322C148.366 164.009 147.942 163.834 147.5 163.834H141.667C141.207 163.834 140.833 163.461 140.833 163V150.5ZM149.167 162.614V153.834C149.167 153.171 148.903 152.535 148.435 152.066C147.966 151.597 147.33 151.334 146.667 151.334H142.5V162.167H147.5C148.09 162.167 148.664 162.324 149.167 162.614Z" fill="#5A697C"/>
<path fill-rule="evenodd" clip-rule="evenodd" d="M150.387 150.887C151.169 150.106 152.228 149.667 153.333 149.667H158.333C158.794 149.667 159.167 150.04 159.167 150.5V163C159.167 163.461 158.794 163.834 158.333 163.834H152.5C152.058 163.834 151.634 164.009 151.322 164.322C151.009 164.634 150.833 165.058 150.833 165.5C150.833 165.961 150.46 166.334 150 166.334C149.54 166.334 149.167 165.961 149.167 165.5V153.834C149.167 152.729 149.606 151.669 150.387 150.887ZM150.833 162.614C151.336 162.324 151.91 162.167 152.5 162.167H157.5V151.334H153.333C152.67 151.334 152.035 151.597 151.566 152.066C151.097 152.535 150.833 153.171 150.833 153.834V162.614Z" fill="#5A697C"/>
<path fill-rule="evenodd" clip-rule="evenodd" d="M200.833 158C200.833 157.54 201.207 157.167 201.667 157.167H218.333C218.794 157.167 219.167 157.54 219.167 158C219.167 158.46 218.794 158.833 218.333 158.833H201.667C201.207 158.833 200.833 158.46 200.833 158Z" fill="#5A697C"/>
<path fill-rule="evenodd" clip-rule="evenodd" d="M206.033 150.5L213.967 150.5C214.432 150.5 214.888 150.63 215.283 150.875C215.678 151.12 215.997 151.47 216.204 151.886C216.204 151.887 216.205 151.887 216.205 151.888L219.079 157.627C219.137 157.743 219.167 157.87 219.167 158V163C219.167 163.663 218.903 164.299 218.435 164.768C217.966 165.237 217.33 165.5 216.667 165.5H203.333C202.67 165.5 202.035 165.237 201.566 164.768C201.097 164.299 200.833 163.663 200.833 163V158C200.833 157.87 200.864 157.743 200.922 157.627L203.796 151.888C203.796 151.887 203.796 151.887 203.796 151.886C204.003 151.47 204.322 151.12 204.717 150.875C205.112 150.63 205.568 150.5 206.033 150.5ZM204.542 152.258L205.287 152.631L202.5 158.197V163C202.5 163.221 202.588 163.433 202.744 163.589C202.901 163.746 203.112 163.833 203.333 163.833H216.667C216.888 163.833 217.1 163.746 217.256 163.589C217.412 163.433 217.5 163.221 217.5 163V158.197L214.713 152.631L214.712 152.629C214.643 152.49 214.537 152.373 214.405 152.292C214.273 152.21 214.122 152.167 213.967 152.167H206.034C205.879 152.167 205.727 152.21 205.595 152.292C205.463 152.373 205.357 152.49 205.288 152.629L204.542 152.258Z" fill="#5A697C"/>
<g clip-path="url(#clip7_4647_184342)">
<path fill-rule="evenodd" clip-rule="evenodd" d="M270.646 150.292C271.589 149.381 272.852 148.877 274.163 148.889C275.474 148.9 276.728 149.426 277.655 150.353C278.582 151.28 279.108 152.534 279.119 153.845C279.131 155.156 278.627 156.419 277.716 157.362L277.706 157.373L275.206 159.872C274.699 160.38 274.089 160.772 273.417 161.022C272.746 161.273 272.028 161.376 271.313 161.325C270.598 161.274 269.902 161.069 269.273 160.725C268.643 160.382 268.095 159.907 267.666 159.332C267.39 158.964 267.466 158.442 267.834 158.166C268.203 157.89 268.725 157.966 269.001 158.334C269.287 158.717 269.652 159.034 270.072 159.263C270.491 159.492 270.955 159.628 271.432 159.662C271.909 159.697 272.387 159.628 272.835 159.461C273.283 159.294 273.689 159.032 274.027 158.694L276.522 156.199C277.126 155.571 277.46 154.731 277.453 153.86C277.445 152.986 277.095 152.15 276.477 151.532C275.859 150.914 275.023 150.563 274.149 150.555C273.277 150.548 272.436 150.882 271.808 151.487L270.379 152.908C270.053 153.232 269.525 153.231 269.201 152.904C268.876 152.578 268.878 152.05 269.204 151.726L270.637 150.301L270.646 150.292Z" fill="#5A697C"/>
<path fill-rule="evenodd" clip-rule="evenodd" d="M266.583 154.978C267.254 154.727 267.972 154.624 268.687 154.675C269.402 154.726 270.098 154.931 270.727 155.275C271.357 155.618 271.905 156.093 272.334 156.667C272.61 157.036 272.534 157.558 272.166 157.834C271.797 158.11 271.275 158.034 270.999 157.666C270.713 157.283 270.348 156.966 269.928 156.737C269.509 156.508 269.045 156.372 268.568 156.338C268.092 156.303 267.613 156.372 267.165 156.539C266.717 156.706 266.311 156.968 265.973 157.306L263.478 159.8C262.874 160.429 262.54 161.269 262.547 162.14C262.555 163.014 262.905 163.85 263.523 164.468C264.141 165.086 264.977 165.437 265.851 165.444C266.723 165.452 267.563 165.118 268.191 164.514L269.611 163.094C269.936 162.769 270.464 162.769 270.789 163.094C271.115 163.419 271.115 163.947 270.789 164.273L269.364 165.698L269.354 165.708C268.411 166.619 267.148 167.122 265.837 167.111C264.526 167.1 263.272 166.574 262.345 165.647C261.418 164.72 260.892 163.466 260.881 162.155C260.869 160.844 261.373 159.581 262.284 158.638L262.294 158.627L264.794 156.127C264.794 156.128 264.794 156.127 264.794 156.127C265.301 155.62 265.911 155.228 266.583 154.978Z" fill="#5A697C"/>
</g>
<path fill-rule="evenodd" clip-rule="evenodd" d="M323.333 154.667C322.873 154.667 322.5 155.04 322.5 155.5V163.834C322.5 164.294 322.873 164.667 323.333 164.667H336.667C337.127 164.667 337.5 164.294 337.5 163.834V155.5C337.5 155.04 337.127 154.667 336.667 154.667H323.333ZM320.833 155.5C320.833 154.12 321.953 153 323.333 153H336.667C338.048 153 339.167 154.12 339.167 155.5V163.834C339.167 165.214 338.048 166.334 336.667 166.334H323.333C321.953 166.334 320.833 165.214 320.833 163.834V155.5Z" fill="#5A697C"/>
<path fill-rule="evenodd" clip-rule="evenodd" d="M326.566 150.399C327.035 149.93 327.67 149.667 328.333 149.667H331.667C332.33 149.667 332.966 149.93 333.435 150.399C333.903 150.868 334.167 151.504 334.167 152.167V165.5C334.167 165.961 333.794 166.334 333.333 166.334C332.873 166.334 332.5 165.961 332.5 165.5V152.167C332.5 151.946 332.412 151.734 332.256 151.578C332.1 151.421 331.888 151.334 331.667 151.334H328.333C328.112 151.334 327.901 151.421 327.744 151.578C327.588 151.734 327.5 151.946 327.5 152.167V165.5C327.5 165.961 327.127 166.334 326.667 166.334C326.207 166.334 325.833 165.961 325.833 165.5V152.167C325.833 151.504 326.097 150.868 326.566 150.399Z" fill="#5A697C"/>
<path fill-rule="evenodd" clip-rule="evenodd" d="M398.089 149.077C398.415 149.403 398.415 149.93 398.089 150.256L397.012 151.333L398.923 153.244C399.079 153.4 399.167 153.612 399.167 153.833C399.167 154.054 399.079 154.266 398.923 154.422L396.006 157.339C395.85 157.495 395.638 157.583 395.417 157.583C395.196 157.583 394.984 157.495 394.827 157.339L392.917 155.428L390.628 157.717C390.884 158.063 391.099 158.44 391.266 158.839C391.543 159.498 391.687 160.205 391.689 160.919C391.692 161.633 391.553 162.341 391.28 163.002C391.008 163.662 390.608 164.262 390.103 164.767C389.598 165.273 388.998 165.673 388.337 165.945C387.677 166.217 386.969 166.356 386.254 166.354C385.54 166.351 384.833 166.208 384.175 165.931C383.516 165.654 382.919 165.25 382.417 164.742L382.411 164.735C381.424 163.714 380.878 162.345 380.89 160.925C380.903 159.505 381.472 158.146 382.477 157.142C383.481 156.138 384.84 155.568 386.26 155.556C387.404 155.546 388.514 155.898 389.437 156.551L396.911 149.077C397.236 148.752 397.764 148.752 398.089 149.077ZM388.935 158.296C388.927 158.289 388.92 158.282 388.912 158.275C388.205 157.592 387.257 157.214 386.274 157.222C385.291 157.231 384.35 157.625 383.655 158.321C382.96 159.016 382.565 159.956 382.557 160.94C382.548 161.921 382.925 162.867 383.606 163.574C383.953 163.925 384.366 164.204 384.82 164.395C385.276 164.586 385.765 164.686 386.26 164.687C386.755 164.689 387.245 164.593 387.702 164.404C388.159 164.216 388.575 163.939 388.924 163.589C389.274 163.239 389.551 162.824 389.74 162.366C389.928 161.909 390.024 161.419 390.023 160.925C390.021 160.43 389.921 159.941 389.73 159.485C389.544 159.041 389.274 158.638 388.935 158.296ZM394.095 154.25L395.417 155.571L397.155 153.833L395.833 152.512L394.095 154.25Z" fill="#5A697C"/>
<path fill-rule="evenodd" clip-rule="evenodd" d="M453.798 150.523C453.396 150.478 452.986 150.491 452.583 150.564C451.75 150.716 450.983 151.118 450.384 151.717C449.785 152.316 449.383 153.083 449.231 153.917C449.079 154.75 449.185 155.61 449.534 156.381C449.677 156.697 449.609 157.069 449.364 157.314L443.606 163.072C443.431 163.248 443.332 163.485 443.332 163.733C443.332 163.981 443.431 164.219 443.606 164.394C443.781 164.569 444.019 164.668 444.267 164.668C444.514 164.668 444.752 164.569 444.927 164.394L450.686 158.636C450.931 158.39 451.303 158.323 451.619 158.466C452.39 158.815 453.25 158.92 454.083 158.769C454.916 158.617 455.684 158.215 456.283 157.616C456.882 157.017 457.284 156.25 457.436 155.416C457.509 155.013 457.522 154.604 457.477 154.202L455.333 156.345C455.022 156.65 454.603 156.821 454.167 156.821C453.73 156.821 453.312 156.65 453 156.345L452.994 156.339L451.655 155C451.349 154.688 451.178 154.269 451.178 153.833C451.178 153.397 451.349 152.978 451.655 152.666L451.661 152.66L453.798 150.523ZM452.285 148.925C453.451 148.712 454.655 148.86 455.735 149.349C455.984 149.462 456.162 149.69 456.211 149.959C456.26 150.228 456.174 150.504 455.981 150.697L452.845 153.833L454.167 155.155L457.302 152.019C457.496 151.825 457.772 151.739 458.041 151.788C458.31 151.837 458.538 152.015 458.651 152.265C459.14 153.345 459.288 154.549 459.075 155.715C458.863 156.882 458.3 157.956 457.461 158.794C456.623 159.633 455.549 160.196 454.382 160.408C453.409 160.586 452.41 160.512 451.479 160.199L446.106 165.572C445.618 166.06 444.956 166.334 444.267 166.334C443.577 166.334 442.915 166.06 442.427 165.572C441.94 165.085 441.666 164.423 441.666 163.733C441.666 163.043 441.94 162.382 442.427 161.894L447.801 156.521C447.488 155.589 447.414 154.591 447.591 153.618C447.804 152.451 448.367 151.377 449.205 150.539C450.044 149.7 451.118 149.137 452.285 148.925Z" fill="#5A697C"/>
<path fill-rule="evenodd" clip-rule="evenodd" d="M504.167 158C503.706 158 503.333 158.373 503.333 158.833V164.666C503.333 165.127 503.706 165.5 504.167 165.5H515.833C516.293 165.5 516.667 165.127 516.667 164.666V158.833C516.667 158.373 516.293 158 515.833 158H504.167ZM501.667 158.833C501.667 157.452 502.786 156.333 504.167 156.333H515.833C517.214 156.333 518.333 157.452 518.333 158.833V164.666C518.333 166.047 517.214 167.166 515.833 167.166H504.167C502.786 167.166 501.667 166.047 501.667 164.666V158.833Z" fill="#5A697C"/>
<path fill-rule="evenodd" clip-rule="evenodd" d="M510 150.5C509.116 150.5 508.268 150.851 507.643 151.476C507.018 152.101 506.667 152.949 506.667 153.833V157.166C506.667 157.627 506.294 158 505.833 158C505.373 158 505 157.627 505 157.166V153.833C505 152.507 505.527 151.235 506.464 150.297C507.402 149.36 508.674 148.833 510 148.833C511.326 148.833 512.598 149.36 513.536 150.297C514.473 151.235 515 152.507 515 153.833V157.166C515 157.627 514.627 158 514.167 158C513.706 158 513.333 157.627 513.333 157.166V153.833C513.333 152.949 512.982 152.101 512.357 151.476C511.732 150.851 510.884 150.5 510 150.5Z" fill="#5A697C"/>
<g clip-path="url(#clip8_4647_184342)">
<path d="M29.9998 358.334C34.6022 358.334 38.3332 354.603 38.3332 350C38.3332 345.398 34.6022 341.667 29.9998 341.667C25.3975 341.667 21.6665 345.398 21.6665 350C21.6665 354.603 25.3975 358.334 29.9998 358.334Z" stroke="#5A697C" stroke-width="2" stroke-linecap="round" stroke-linejoin="round"/>
<path d="M30 353.333V350" stroke="#5A697C" stroke-width="2" stroke-linecap="round" stroke-linejoin="round"/>
<path d="M30 346.667H30.0083" stroke="#5A697C" stroke-width="2" stroke-linecap="round" stroke-linejoin="round"/>
</g>
<path d="M97 349.36V350.004C96.9991 351.513 96.5103 352.982 95.6065 354.191C94.7027 355.4 93.4323 356.285 91.9847 356.713C90.5372 357.141 88.9901 357.089 87.5741 356.566C86.1582 356.043 84.9493 355.076 84.1277 353.81C83.3061 352.544 82.9159 351.046 83.0152 349.539C83.1145 348.033 83.698 346.599 84.6788 345.452C85.6595 344.304 86.9849 343.505 88.4573 343.172C89.9297 342.839 91.4702 342.992 92.849 343.606" stroke="#5A697C" stroke-width="1.7" stroke-linecap="round" stroke-linejoin="round"/>
<path d="M97 344L90.0769 351L88 348.902" stroke="#5A697C" stroke-width="1.7" stroke-linecap="round" stroke-linejoin="round"/>
<g clip-path="url(#clip9_4647_184342)">
<path fill-rule="evenodd" clip-rule="evenodd" d="M150 342.5C145.858 342.5 142.5 345.858 142.5 350C142.5 354.142 145.858 357.5 150 357.5C154.142 357.5 157.5 354.142 157.5 350C157.5 345.858 154.142 342.5 150 342.5ZM140.833 350C140.833 344.937 144.938 340.833 150 340.833C155.063 340.833 159.167 344.937 159.167 350C159.167 355.062 155.063 359.166 150 359.166C144.938 359.166 140.833 355.062 140.833 350Z" fill="#5A697C"/>
<path fill-rule="evenodd" clip-rule="evenodd" d="M150 344.167C150.46 344.167 150.833 344.54 150.833 345V349.485L153.706 350.922C154.117 351.127 154.284 351.628 154.079 352.04C153.873 352.451 153.372 352.618 152.96 352.412L149.627 350.746C149.345 350.605 149.167 350.316 149.167 350V345C149.167 344.54 149.54 344.167 150 344.167Z" fill="#5A697C"/>
</g>
<circle cx="209.649" cy="345.649" r="3.98169" stroke="#5A697C" stroke-width="1.5" stroke-linecap="round" stroke-linejoin="round"/>
<path fill-rule="evenodd" clip-rule="evenodd" d="M203.334 355.169C203.332 354.889 203.395 354.612 203.517 354.36C203.898 353.597 204.973 353.193 205.866 353.01C206.51 352.873 207.162 352.781 207.819 352.735C209.034 352.629 210.257 352.629 211.472 352.735C212.129 352.781 212.781 352.873 213.425 353.01C214.317 353.193 215.393 353.559 215.774 354.36C216.019 354.874 216.019 355.471 215.774 355.985C215.393 356.786 214.317 357.152 213.425 357.327C212.782 357.47 212.129 357.565 211.472 357.609C210.483 357.693 209.489 357.709 208.498 357.655C208.269 357.655 208.047 357.655 207.819 357.609C207.164 357.565 206.514 357.471 205.874 357.327C204.973 357.152 203.906 356.786 203.517 355.985C203.396 355.73 203.333 355.451 203.334 355.169Z" stroke="#5A697C" stroke-width="1.5" stroke-linecap="round" stroke-linejoin="round"/>
<path d="M270.167 358.333C274.677 358.333 278.333 354.676 278.333 350.166C278.333 345.656 274.677 342 270.167 342C265.656 342 262 345.656 262 350.166C262 354.676 265.656 358.333 270.167 358.333Z" stroke="#5A697C" stroke-width="1.5" stroke-linecap="round" stroke-linejoin="round"/>
<path d="M262 350.165H278.333" stroke="#5A697C" stroke-width="1.5" stroke-linecap="round" stroke-linejoin="round"/>
<path d="M270.167 342C272.209 344.236 273.37 347.138 273.433 350.166C273.37 353.194 272.209 356.096 270.167 358.333C268.124 356.096 266.963 353.194 266.9 350.166C266.963 347.138 268.124 344.236 270.167 342V342Z" stroke="#5A697C" stroke-width="1.5" stroke-linecap="round" stroke-linejoin="round"/>
<path fill-rule="evenodd" clip-rule="evenodd" d="M517.708 350C517.708 354.258 514.257 357.709 510 357.709C505.742 357.709 502.292 354.258 502.292 350C502.292 345.743 505.742 342.292 510 342.292C514.257 342.292 517.708 345.743 517.708 350Z" stroke="#5A697C" stroke-width="1.5" stroke-linecap="round" stroke-linejoin="round"/>
<path d="M512.859 352.452L509.718 350.578V346.539" stroke="#5A697C" stroke-width="1.5" stroke-linecap="round" stroke-linejoin="round"/>
<rect x="0.5" y="0.5" width="539" height="383" rx="4.5" stroke="#9747FF" stroke-dasharray="10 5"/>
<defs>
<clipPath id="clip0_4647_184342">
<rect width="20" height="20" fill="white" transform="translate(200 20)"/>
</clipPath>
<clipPath id="clip1_4647_184342">
<rect width="20" height="20" fill="white" transform="translate(500 20)"/>
</clipPath>
<clipPath id="clip2_4647_184342">
<rect width="20" height="20" fill="white" transform="translate(440 20)"/>
</clipPath>
<clipPath id="clip3_4647_184342">
<rect width="20" height="20" fill="white" transform="translate(200 276)"/>
</clipPath>
<clipPath id="clip4_4647_184342">
<rect width="20" height="20" fill="white" transform="translate(260 276)"/>
</clipPath>
<clipPath id="clip5_4647_184342">
<rect width="18" height="18" fill="white" transform="translate(441 341)"/>
</clipPath>
<clipPath id="clip6_4647_184342">
<rect width="20" height="20" fill="white" transform="translate(500 276)"/>
</clipPath>
<clipPath id="clip7_4647_184342">
<rect width="20" height="20" fill="white" transform="translate(260 148)"/>
</clipPath>
<clipPath id="clip8_4647_184342">
<rect width="20" height="20" fill="white" transform="translate(20 340)"/>
</clipPath>
<clipPath id="clip9_4647_184342">
<rect width="20" height="20" fill="white" transform="translate(140 340)"/>
</clipPath>
</defs>
</svg>
