<svg width="93" height="37" viewBox="0 0 93 37" fill="none" xmlns="http://www.w3.org/2000/svg">
<path d="M6.83313 20.3588C5.71135 20.3588 4.68692 20.0853 3.75984 19.5384C2.83275 18.9821 2.09108 18.2404 1.53483 17.3134C0.987846 16.3863 0.714355 15.3618 0.714355 14.2401C0.714355 13.109 0.987846 12.0846 1.53483 11.1668C2.09108 10.2397 2.83275 9.50264 3.75984 8.95566C4.68692 8.39941 5.71135 8.12128 6.83313 8.12128C7.96418 8.12128 8.98861 8.39941 9.90642 8.95566C10.8335 9.50264 11.5705 10.2397 12.1175 11.1668C12.6738 12.0846 12.9519 13.109 12.9519 14.2401C12.9519 15.3618 12.6738 16.3863 12.1175 17.3134C11.5705 18.2404 10.8335 18.9821 9.90642 19.5384C8.98861 20.0853 7.96418 20.3588 6.83313 20.3588Z" fill="white"/>
<path d="M24.2473 28.4801V0H36.5405C38.6542 0 40.5038 0.417189 42.0891 1.25157C43.6744 2.08595 44.9074 3.25871 45.7882 4.76986C46.6689 6.28101 47.1093 8.04712 47.1093 10.0682C47.1093 12.1078 46.655 13.8739 45.7465 15.3665C44.8472 16.8591 43.5817 18.0087 41.95 18.8152C40.3276 19.6218 38.4317 20.0251 36.2624 20.0251H28.9198V14.0176H34.7048C35.6134 14.0176 36.3875 13.86 37.0272 13.5447C37.6762 13.2203 38.1721 12.7614 38.5152 12.168C38.8675 11.5747 39.0436 10.8747 39.0436 10.0682C39.0436 9.25233 38.8675 8.55701 38.5152 7.98222C38.1721 7.39815 37.6762 6.95315 37.0272 6.64721C36.3875 6.332 35.6134 6.1744 34.7048 6.1744H31.9792V28.4801H24.2473Z" fill="white"/>
<path d="M55.0532 28.8139C53.6904 28.8139 52.4852 28.5914 51.4376 28.1464C50.3993 27.6921 49.5834 27.006 48.9901 26.0882C48.3968 25.1704 48.1001 24.0023 48.1001 22.5838C48.1001 21.4157 48.2994 20.4191 48.6981 19.594C49.0967 18.7596 49.653 18.0782 50.3668 17.5498C51.0807 17.0213 51.9104 16.618 52.8561 16.3399C53.811 16.0618 54.84 15.881 55.9433 15.7976C57.1392 15.7049 58.0987 15.5936 58.8219 15.4638C59.5543 15.3247 60.0827 15.1347 60.4072 14.8937C60.7317 14.6433 60.8939 14.3142 60.8939 13.9063V13.8507C60.8939 13.2944 60.6807 12.868 60.2542 12.5713C59.8277 12.2746 59.2808 12.1263 58.6133 12.1263C57.8809 12.1263 57.2829 12.2885 56.8194 12.613C56.3651 12.9282 56.0916 13.4149 55.9989 14.0732H48.9345C49.0272 12.7753 49.4397 11.5793 50.1721 10.4854C50.9138 9.38212 51.9939 8.50139 53.4123 7.84316C54.8307 7.17565 56.6015 6.8419 58.7245 6.8419C60.2542 6.8419 61.6263 7.02269 62.8408 7.38425C64.0553 7.73654 65.089 8.23253 65.9419 8.87222C66.7948 9.50264 67.4438 10.2443 67.8888 11.0972C68.343 11.9409 68.5702 12.8587 68.5702 13.8507V28.4801H61.3945V25.4764H61.2276C60.8012 26.2736 60.282 26.918 59.6701 27.4093C59.0675 27.9007 58.3769 28.2576 57.5981 28.4801C56.8286 28.7026 55.9803 28.8139 55.0532 28.8139ZM57.5564 23.9745C58.1404 23.9745 58.6874 23.8539 59.1973 23.6129C59.7165 23.3719 60.1383 23.0242 60.4628 22.5699C60.7873 22.1157 60.9495 21.564 60.9495 20.9151V19.1351C60.7456 19.2185 60.5277 19.2973 60.2959 19.3715C60.0734 19.4457 59.8324 19.5152 59.5728 19.5801C59.3225 19.645 59.0536 19.7052 58.7662 19.7609C58.4881 19.8165 58.1961 19.8675 57.8901 19.9138C57.2968 20.0065 56.8101 20.1595 56.43 20.3727C56.0591 20.5767 55.781 20.8316 55.5956 21.1376C55.4195 21.4343 55.3314 21.768 55.3314 22.1388C55.3314 22.7322 55.54 23.1864 55.9572 23.5017C56.3743 23.8169 56.9074 23.9745 57.5564 23.9745Z" fill="white"/>
<path d="M76.1456 36.4901C75.2649 36.4901 74.4259 36.4206 73.6286 36.2816C72.8313 36.1518 72.1314 35.971 71.5287 35.7392L73.1975 30.2879C73.8279 30.5104 74.4027 30.6541 74.9219 30.719C75.4503 30.7839 75.9 30.7468 76.2708 30.6078C76.6509 30.4687 76.9244 30.2045 77.0913 29.8151L77.2581 29.4257L69.7487 7.12003H77.7588L81.2075 21.9163H81.43L84.9344 7.12003H93.0001L85.2125 30.2601C84.8232 31.4375 84.2577 32.4944 83.516 33.4308C82.7836 34.3764 81.8194 35.1227 80.6235 35.6697C79.4275 36.2167 77.9349 36.4901 76.1456 36.4901Z" fill="white"/>
</svg>
