<svg width="98" height="98" viewBox="0 0 98 98" fill="none" xmlns="http://www.w3.org/2000/svg">
<rect width="97.3125" height="97.3125" rx="16.875" fill="#262B31"/>
<path d="M23.3246 32.2444C22.48 31.4289 23.0572 30 24.2312 30H33.7508C36.457 30 39.0574 31.0505 41.0043 32.9302L73.4997 64.3051C74.3442 65.1205 73.767 66.5495 72.593 66.5495H63.0734C60.3673 66.5495 57.7668 65.499 55.82 63.6193L23.3246 32.2444Z" fill="url(#paint0_linear_4647_180851)"/>
<path d="M73.4997 32.2444C74.3442 31.4289 73.767 30 72.593 30H63.0734C60.3673 30 57.7668 31.0505 55.82 32.9302L23.3246 64.3051C22.48 65.1205 23.0572 66.5495 24.2312 66.5495H33.7508C36.457 66.5495 39.0574 65.499 41.0043 63.6193L73.4997 32.2444Z" fill="url(#paint1_linear_4647_180851)"/>
<defs>
<linearGradient id="paint0_linear_4647_180851" x1="26.2214" y1="26.7367" x2="69.9502" y2="66.5495" gradientUnits="userSpaceOnUse">
<stop stop-color="#F1E58E"/>
<stop offset="1" stop-color="#F86D18"/>
</linearGradient>
<linearGradient id="paint1_linear_4647_180851" x1="69.2975" y1="30" x2="28.832" y2="66.5495" gradientUnits="userSpaceOnUse">
<stop stop-color="#FDAB47"/>
<stop offset="1" stop-color="#F6BA3B"/>
</linearGradient>
</defs>
</svg>
